<?xml version="1.0" encoding="UTF-8"?>
<svg width="79px" height="31px" viewBox="0 0 79 31" version="1.1" xmlns="http://www.w3.org/2000/svg" xmlns:xlink="http://www.w3.org/1999/xlink">
    <!-- Generator: Sketch 56.2 (81672) - https://sketch.com -->
    <title>CRISTINASUÁREZ</title>
    <desc>Created with Sketch.</desc>
    <g id="Welcome" stroke="none" stroke-width="1" fill="none" fill-rule="evenodd">
        <g id="Friends" transform="translate(-587.000000, -1094.000000)" fill="#4C5796" fill-rule="nonzero">
            <path d="M599.5,1101.648 C599.5,1101.776 599.196003,1101.972 598.588,1102.236 C595.099983,1103.73201 592.35601,1104.48 590.356,1104.48 C589.435995,1104.48 588.696003,1104.324 588.136,1104.012 C587.367996,1103.58 586.984,1102.88 586.984,1101.912 C586.984,1101.024 587.599994,1099.99201 588.832,1098.816 C589.864005,1097.824 591.115993,1096.92 592.588,1096.104 C593.980007,1095.328 594.984,1094.94 595.6,1094.94 C596.056002,1094.94 596.284,1095.22 596.284,1095.78 C596.284,1096.02 596.268,1096.176 596.236,1096.248 C596.196,1096.368 596.072001,1096.52 595.864,1096.704 C595.808,1096.752 595.112007,1097.088 593.776,1097.712 C592.391993,1098.368 591.320004,1098.992 590.56,1099.584 C589.447994,1100.464 588.892,1101.352 588.892,1102.248 C588.892,1102.688 589.163997,1103 589.708,1103.184 C590.036002,1103.296 590.411998,1103.352 590.836,1103.352 C591.516003,1103.352 592.311995,1103.256 593.224,1103.064 C593.952004,1102.904 594.479998,1102.756 594.808,1102.62 C595.368003,1102.324 596.223994,1101.908 597.376,1101.372 C598.144004,1101.06 598.544,1100.904 598.576,1100.904 C598.704001,1100.904 598.889999,1100.994 599.134,1101.174 C599.378001,1101.354 599.5,1101.512 599.5,1101.648 Z M611.22,1097.112 C611.22,1097.608 610.860004,1098.016 610.14,1098.336 C609.619997,1098.568 608.936004,1098.744 608.088,1098.864 C607.679998,1098.904 607.276002,1098.944 606.876,1098.984 C607.348002,1099.24 607.819998,1099.492 608.292,1099.74 C608.996004,1100.132 609.535998,1100.496 609.912,1100.832 C610.424003,1101.296 610.68,1101.748 610.68,1102.188 C610.68,1102.38 610.648,1102.552 610.584,1102.704 C610.496,1102.904 610.372001,1103.004 610.212,1103.004 C610.132,1103.004 609.896002,1102.784 609.504,1102.344 C609.111998,1101.904 608.872,1101.672 608.784,1101.648 L605.304,1100.76 C605.119999,1100.76 604.844002,1100.712 604.476,1100.616 C603.995998,1100.48 603.756,1100.324 603.756,1100.148 C603.756,1099.58 604.219995,1099.084 605.148,1098.66 C605.404001,1098.548 605.931996,1098.376 606.732,1098.144 C607.180002,1098.008 607.519999,1097.896 607.752,1097.808 C608.256003,1097.608 608.603999,1097.404 608.796,1097.196 C608.748,1097.06 608.564002,1096.992 608.244,1096.992 C607.627997,1096.992 606.784005,1097.14 605.712,1097.436 C604.543994,1097.764 603.896001,1098.076 603.768,1098.372 C603.439998,1099.092 602.920004,1100.26799 602.208,1101.9 C602.095999,1102.164 601.980001,1102.644 601.86,1103.34 C601.82,1103.644 601.78,1103.944 601.74,1104.24 C601.627999,1104.864 601.480001,1105.368 601.296,1105.752 C601.039999,1106.28 600.724002,1106.544 600.348,1106.544 C600.243999,1106.544 600.108001,1106.464 599.94,1106.304 C599.908,1105.472 599.983999,1104.692 600.168,1103.964 C600.280001,1103.54 600.535998,1102.80401 600.936,1101.756 C601.384002,1100.60399 601.747999,1099.552 602.028,1098.6 C601.988,1098.576 601.812002,1098.524 601.5,1098.444 C601.259999,1098.372 601.136,1098.308 601.128,1098.252 C601.112,1098.108 601.14,1097.916 601.212,1097.676 C601.316001,1097.316 601.368,1097.116 601.368,1097.076 C601.376,1097.076 601.567998,1097.004 601.944,1096.86 C602.200001,1096.764 602.36,1096.672 602.424,1096.584 C602.544001,1096.392 602.667999,1096.204 602.796,1096.02 C602.940001,1095.86 603.163998,1095.78 603.468,1095.78 C603.516,1095.78 603.745998,1095.808 604.158,1095.864 C604.570002,1095.92 604.808,1095.948 604.872,1095.948 C604.944,1095.948 605.187998,1095.868 605.604,1095.708 C606.116003,1095.508 606.551998,1095.36 606.912,1095.264 C607.512003,1095.104 608.071997,1095.024 608.592,1095.024 C609.216003,1095.024 609.779997,1095.18 610.284,1095.492 C610.908003,1095.876 611.22,1096.416 611.22,1097.112 Z M616.268,1095.264 C616.308,1096.168 616.104002,1097.20399 615.656,1098.372 L614.456,1101.324 C614.247999,1101.924 614.024001,1102.94399 613.784,1104.384 C613.599999,1104.52 613.440001,1104.588 613.304,1104.588 C612.775997,1104.588 612.512,1104.208 612.512,1103.448 C612.512,1102.76 612.639999,1102.04 612.896,1101.288 C613.016001,1100.92 613.343997,1100.10601 613.88,1098.846 C614.416003,1097.58599 614.871998,1096.40401 615.248,1095.3 C615.440001,1095.148 615.635999,1095.072 615.836,1095.072 C615.980001,1095.072 616.123999,1095.136 616.268,1095.264 Z M626.74,1102.488 C626.74,1103.176 626.272005,1103.776 625.336,1104.288 C624.639997,1104.672 623.732006,1104.984 622.612,1105.224 C621.787996,1105.4 621.184002,1105.488 620.8,1105.488 C620.647999,1105.488 620.344002,1105.436 619.888,1105.332 C619.359997,1105.212 618.936002,1105.084 618.616,1104.948 L618.616,1104.432 C618.608,1103.984 618.819998,1103.592 619.252,1103.256 L622.552,1103.58 C623.424004,1103.548 624.239996,1103.3 625,1102.836 L625,1102.572 C624.511998,1101.956 623.620006,1101.56 622.324,1101.384 C621.3,1101.256 620.280005,1101.128 619.264,1101 C618.287995,1100.744 617.8,1100.172 617.8,1099.284 C617.8,1098.716 618.207996,1098.08 619.024,1097.376 C619.712003,1096.792 620.547995,1096.26 621.532,1095.78 C622.452005,1095.34 623.123998,1095.12 623.548,1095.12 C624.140003,1095.12 624.476,1095.128 624.556,1095.144 C624.884002,1095.224 625.032,1095.444 625,1095.804 C624.96,1096.26 624.540004,1096.624 623.74,1096.896 C622.979996,1097.128 622.224004,1097.36 621.472,1097.592 C620.647996,1097.936 620.192,1098.416 620.104,1099.032 C620.928004,1099.152 621.747996,1099.272 622.564,1099.392 C623.796006,1099.584 624.739997,1099.868 625.396,1100.244 C626.292004,1100.772 626.74,1101.52 626.74,1102.488 Z M638.7,1095.42 C638.7,1095.668 638.428003,1095.884 637.884,1096.068 C637.547998,1096.188 637.236001,1096.264 636.948,1096.296 C635.595993,1096.456 634.112008,1096.756 632.496,1097.196 C632.488,1097.324 632.452,1097.488 632.388,1097.688 C632.308,1097.936 632.26,1098.092 632.244,1098.156 C632.043999,1098.94 631.840001,1099.724 631.632,1100.508 C631.231998,1102.11601 631.032,1103.108 631.032,1103.484 L630.996,1104.948 C630.996,1105.052 630.888001,1105.136 630.672,1105.2 C630.511999,1105.248 630.384,1105.272 630.288,1105.272 C629.847998,1105.272 629.628,1104.916 629.628,1104.204 C629.628,1103.868 629.711999,1103.316 629.88,1102.548 C630.016001,1101.908 630.135999,1101.428 630.24,1101.108 C630.304,1100.924 630.403999,1100.388 630.54,1099.5 C630.692001,1098.556 630.768,1097.932 630.768,1097.628 C630.768,1097.468 630.704001,1097.356 630.576,1097.292 L628.5,1097.4 C628.163998,1097.48 627.996,1097.216 627.996,1096.608 C627.996,1096.264 628.083999,1096.036 628.26,1095.924 C628.380001,1095.852 628.591998,1095.816 628.896,1095.816 C628.936,1095.816 629.023999,1095.824 629.16,1095.84 C629.296001,1095.856 629.392,1095.868 629.448,1095.876 L636.612,1094.796 C637.100002,1094.852 637.583998,1094.904 638.064,1094.952 C638.488002,1095.024 638.7,1095.18 638.7,1095.42 Z M640.484,1095.264 C640.524,1096.168 640.320002,1097.20399 639.872,1098.372 L638.672,1101.324 C638.463999,1101.924 638.240001,1102.94399 638,1104.384 C637.815999,1104.52 637.656001,1104.588 637.52,1104.588 C636.991997,1104.588 636.728,1104.208 636.728,1103.448 C636.728,1102.76 636.855999,1102.04 637.112,1101.288 C637.232001,1100.92 637.559997,1100.10601 638.096,1098.846 C638.632003,1097.58599 639.087998,1096.40401 639.464,1095.3 C639.656001,1095.148 639.851999,1095.072 640.052,1095.072 C640.196001,1095.072 640.339999,1095.136 640.484,1095.264 Z M653.548,1095.12 C653.548,1095.456 653.248003,1096.32399 652.648,1097.724 C651.999997,1099.24401 651.344003,1100.54399 650.68,1101.624 C649.855996,1102.96001 649.196002,1103.628 648.7,1103.628 C648.259998,1103.628 647.796002,1103.216 647.308,1102.392 C646.955998,1101.8 646.596002,1101.00401 646.228,1100.004 L645.7,1098.492 C645.211998,1099.52401 644.676003,1101.09599 644.092,1103.208 C644.052,1103.376 643.894001,1103.552 643.618,1103.736 C643.341999,1103.92 643.132001,1104.012 642.988,1104.012 C642.627998,1104.012 642.352001,1103.848 642.16,1103.52 C642.015999,1103.28 641.944,1103.016 641.944,1102.728 C641.944,1102.304 642.015999,1101.916 642.16,1101.564 C642.528002,1100.676 643.143996,1099.44001 644.008,1097.856 C644.528003,1096.896 645.015998,1096.176 645.472,1095.696 C645.536,1095.632 645.691999,1095.584 645.94,1095.552 C646.300002,1095.504 646.512,1095.472 646.576,1095.456 C647.448004,1096.87201 648.003999,1098.81199 648.244,1101.276 C648.348001,1101.372 648.511999,1101.524 648.736,1101.732 C649.200002,1100.924 649.775997,1099.69601 650.464,1098.048 C650.904002,1097.00799 651.191999,1096.356 651.328,1096.092 C651.936003,1094.97199 652.515997,1094.412 653.068,1094.412 C653.308001,1094.412 653.46,1094.512 653.524,1094.712 C653.54,1094.76 653.548,1094.896 653.548,1095.12 Z M665.676,1099.896 C665.596,1100.32 665.512,1100.592 665.424,1100.712 C665.336,1100.832 665.188001,1100.892 664.98,1100.892 C664.932,1100.892 664.832001,1100.888 664.68,1100.88 C664.527999,1100.872 664.400001,1100.868 664.296,1100.868 C664.312,1100.868 664.168002,1100.884 663.864,1100.916 C663.615999,1100.94 663.444,1100.94 663.348,1100.916 L663.204,1102.044 C663.091999,1102.82 662.944001,1103.44 662.76,1103.904 C662.503999,1104.56 662.192002,1104.888 661.824,1104.888 C661.279997,1104.888 661.008,1104.24401 661.008,1102.956 C661.008,1102.636 661.026,1102.274 661.062,1101.87 C661.098,1101.466 661.116,1101.276 661.116,1101.3 C661.1,1101.284 661.094,1101.25 661.098,1101.198 C661.102,1101.146 661.076,1101.12 661.02,1101.12 C660.851999,1101.12 660.384004,1101.172 659.616,1101.276 C658.655995,1101.412 657.920003,1101.556 657.408,1101.708 C657.368,1101.716 657.216001,1101.9 656.952,1102.26 C656.639998,1102.684 656.456,1102.928 656.4,1102.992 L655.464,1104.24 C655.111998,1104.672 654.716002,1104.888 654.276,1104.888 C653.627997,1104.888 653.304,1104.584 653.304,1103.976 C653.304,1103.464 654.563987,1102.05201 657.084,1099.74 C658.580007,1098.41999 660.071993,1097.10001 661.56,1095.78 C661.712001,1095.652 661.939998,1095.544 662.244,1095.456 C662.524001,1095.384 662.783999,1095.348 663.024,1095.348 C663.424002,1095.348 663.675999,1095.496 663.78,1095.792 C663.828,1095.92 663.852,1096.212 663.852,1096.668 L663.612,1099.644 L665.28,1099.644 C665.448001,1099.636 665.58,1099.72 665.676,1099.896 Z M661.2,1099.572 L661.104,1098.66 C661.064,1098.284 660.968001,1098.024 660.816,1097.88 C660.519999,1098.096 660.168002,1098.444 659.76,1098.924 C659.455998,1099.3 659.152002,1099.672 658.848,1100.04 L661.2,1099.572 Z M603.408,1120.488 C603.408,1121.176 602.940005,1121.776 602.004,1122.288 C601.307997,1122.672 600.400006,1122.984 599.28,1123.224 C598.455996,1123.4 597.852002,1123.488 597.468,1123.488 C597.315999,1123.488 597.012002,1123.436 596.556,1123.332 C596.027997,1123.212 595.604002,1123.084 595.284,1122.948 L595.284,1122.432 C595.276,1121.984 595.487998,1121.592 595.92,1121.256 L599.22,1121.58 C600.092004,1121.548 600.907996,1121.3 601.668,1120.836 L601.668,1120.572 C601.179998,1119.956 600.288006,1119.56 598.992,1119.384 C597.968,1119.256 596.948005,1119.128 595.932,1119 C594.955995,1118.744 594.468,1118.172 594.468,1117.284 C594.468,1116.716 594.875996,1116.08 595.692,1115.376 C596.380003,1114.792 597.215995,1114.26 598.2,1113.78 C599.120005,1113.34 599.791998,1113.12 600.216,1113.12 C600.808003,1113.12 601.144,1113.128 601.224,1113.144 C601.552002,1113.224 601.7,1113.444 601.668,1113.804 C601.628,1114.26 601.208004,1114.624 600.408,1114.896 C599.647996,1115.128 598.892004,1115.36 598.14,1115.592 C597.315996,1115.936 596.86,1116.416 596.772,1117.032 C597.596004,1117.152 598.415996,1117.272 599.232,1117.392 C600.464006,1117.584 601.407997,1117.868 602.064,1118.244 C602.960004,1118.772 603.408,1119.52 603.408,1120.488 Z M612.212,1113.612 C612.212,1114.084 611.948003,1114.97999 611.42,1116.3 C610.811997,1117.83601 610.128,1119.11199 609.368,1120.128 C608.407995,1121.42401 607.460005,1122.072 606.524,1122.072 C605.883997,1122.072 605.380002,1121.52401 605.012,1120.428 C604.755999,1119.676 604.628,1119.024 604.628,1118.472 C604.628,1118.392 604.699999,1117.65601 604.844,1116.264 C605.004001,1114.71199 605.108,1113.58 605.156,1112.868 C605.18,1112.868 605.259999,1112.844 605.396,1112.796 C605.532001,1112.748 605.655999,1112.724 605.768,1112.724 C606.272003,1112.724 606.675998,1112.87 606.98,1113.162 C607.284002,1113.454 607.436,1113.836 607.436,1114.308 C607.436,1114.412 607.232002,1115.30599 606.824,1116.99 C606.415998,1118.67401 606.212,1119.568 606.212,1119.672 C606.212,1119.912 606.24,1120.072 606.296,1120.152 C606.368,1120.256 606.507999,1120.308 606.716,1120.308 C607.308003,1120.308 607.943997,1119.66801 608.624,1118.388 C609.112002,1117.484 609.611997,1116.26801 610.124,1114.74 L610.844,1112.484 L611.54,1112.484 C611.988002,1112.924 612.212,1113.3 612.212,1113.612 Z M624.604,1117.896 C624.499999,1118.48 624.324001,1118.856 624.076,1119.024 C623.883999,1119.16 623.520003,1119.228 622.984,1119.228 C622.655998,1119.228 622.404001,1119.208 622.228,1119.168 C622.188,1119.52 622.144,1119.876 622.096,1120.236 C621.991999,1120.956 621.852001,1121.536 621.676,1121.976 C621.427999,1122.584 621.120002,1122.888 620.752,1122.888 C620.167997,1122.888 619.876,1122.19601 619.876,1120.812 C619.876,1120.54 619.888,1120.24 619.912,1119.912 C619.936,1119.584 619.948,1119.432 619.948,1119.456 C619.924,1119.424 619.876,1119.408 619.804,1119.408 C619.659999,1119.408 619.168004,1119.476 618.328,1119.612 C617.319995,1119.772 616.560003,1119.928 616.048,1120.08 C616.008,1120.088 615.904001,1120.212 615.736,1120.452 C615.527999,1120.74 615.392,1120.92 615.328,1120.992 L614.392,1122.24 C614.039998,1122.672 613.644002,1122.888 613.204,1122.888 C612.555997,1122.888 612.232,1122.584 612.232,1121.976 C612.232,1121.464 613.491987,1120.05201 616.012,1117.74 C617.508007,1116.41999 618.999993,1115.10001 620.488,1113.78 C620.640001,1113.652 620.867998,1113.544 621.172,1113.456 C621.452001,1113.384 621.711999,1113.348 621.952,1113.348 C622.352002,1113.348 622.603999,1113.496 622.708,1113.792 C622.756,1113.92 622.78,1114.212 622.78,1114.668 L622.54,1117.644 L624.208,1117.644 C624.376001,1117.636 624.508,1117.72 624.604,1117.896 Z M620.128,1117.572 L620.032,1116.66 C619.992,1116.284 619.896001,1116.024 619.744,1115.88 C619.447999,1116.096 619.096002,1116.444 618.688,1116.924 C618.383998,1117.3 618.080002,1117.672 617.776,1118.04 L620.128,1117.572 Z M622.492,1112.568 C621.995998,1112.712 621.684001,1112.8 621.556,1112.832 C621.099998,1113.04 620.712002,1113.232 620.392,1113.408 C620.119999,1113.52 619.828002,1113.576 619.516,1113.576 C619.379999,1113.576 619.294,1113.558 619.258,1113.522 C619.222,1113.486 619.176,1113.396 619.12,1113.252 C619.112,1113.228 619.159999,1113.148 619.264,1113.012 C619.368001,1112.876 619.448,1112.788 619.504,1112.748 C619.736001,1112.628 619.927999,1112.54 620.08,1112.484 C620.768003,1112.276 621.191999,1112.152 621.352,1112.112 C621.376,1112.104 621.535999,1112.056 621.832,1111.968 C622.040001,1111.904 622.176,1111.876 622.24,1111.884 C622.400001,1111.884 622.551999,1111.98 622.696,1112.172 C622.76,1112.252 622.768,1112.348 622.72,1112.46 L622.492,1112.568 Z M637.296,1115.112 C637.296,1115.608 636.936004,1116.016 636.216,1116.336 C635.695997,1116.568 635.012004,1116.744 634.164,1116.864 C633.755998,1116.904 633.352002,1116.944 632.952,1116.984 C633.424002,1117.24 633.895998,1117.492 634.368,1117.74 C635.072004,1118.132 635.611998,1118.496 635.988,1118.832 C636.500003,1119.296 636.756,1119.748 636.756,1120.188 C636.756,1120.38 636.724,1120.552 636.66,1120.704 C636.572,1120.904 636.448001,1121.004 636.288,1121.004 C636.208,1121.004 635.972002,1120.784 635.58,1120.344 C635.187998,1119.904 634.948,1119.672 634.86,1119.648 L631.38,1118.76 C631.195999,1118.76 630.920002,1118.712 630.552,1118.616 C630.071998,1118.48 629.832,1118.324 629.832,1118.148 C629.832,1117.58 630.295995,1117.084 631.224,1116.66 C631.480001,1116.548 632.007996,1116.376 632.808,1116.144 C633.256002,1116.008 633.595999,1115.896 633.828,1115.808 C634.332003,1115.608 634.679999,1115.404 634.872,1115.196 C634.824,1115.06 634.640002,1114.992 634.32,1114.992 C633.703997,1114.992 632.860005,1115.14 631.788,1115.436 C630.619994,1115.764 629.972001,1116.076 629.844,1116.372 C629.515998,1117.092 628.996004,1118.26799 628.284,1119.9 C628.171999,1120.164 628.056001,1120.644 627.936,1121.34 C627.896,1121.644 627.856,1121.944 627.816,1122.24 C627.703999,1122.864 627.556001,1123.368 627.372,1123.752 C627.115999,1124.28 626.800002,1124.544 626.424,1124.544 C626.319999,1124.544 626.184001,1124.464 626.016,1124.304 C625.984,1123.472 626.059999,1122.692 626.244,1121.964 C626.356001,1121.54 626.611998,1120.80401 627.012,1119.756 C627.460002,1118.60399 627.823999,1117.552 628.104,1116.6 C628.064,1116.576 627.888002,1116.524 627.576,1116.444 C627.335999,1116.372 627.212,1116.308 627.204,1116.252 C627.188,1116.108 627.216,1115.916 627.288,1115.676 C627.392001,1115.316 627.444,1115.116 627.444,1115.076 C627.452,1115.076 627.643998,1115.004 628.02,1114.86 C628.276001,1114.764 628.436,1114.672 628.5,1114.584 C628.620001,1114.392 628.743999,1114.204 628.872,1114.02 C629.016001,1113.86 629.239998,1113.78 629.544,1113.78 C629.592,1113.78 629.821998,1113.808 630.234,1113.864 C630.646002,1113.92 630.884,1113.948 630.948,1113.948 C631.02,1113.948 631.263998,1113.868 631.68,1113.708 C632.192003,1113.508 632.627998,1113.36 632.988,1113.264 C633.588003,1113.104 634.147997,1113.024 634.668,1113.024 C635.292003,1113.024 635.855997,1113.18 636.36,1113.492 C636.984003,1113.876 637.296,1114.416 637.296,1115.112 Z M647.9,1117.356 C646.971995,1117.556 645.660008,1117.752 643.964,1117.944 C642.859994,1118.064 642.116002,1118.252 641.732,1118.508 C641.235998,1118.836 640.880001,1119.492 640.664,1120.476 C640.808001,1120.556 641.107998,1120.596 641.564,1120.596 C641.66,1120.596 642.255995,1120.398 643.352,1120.002 C644.448005,1119.606 645.044,1119.408 645.14,1119.408 C645.428001,1119.408 645.635999,1119.44 645.764,1119.504 C645.988001,1119.6 646.203999,1119.82 646.412,1120.164 C646.075998,1120.788 645.200007,1121.404 643.784,1122.012 C642.431993,1122.588 641.304005,1122.876 640.4,1122.876 C639.775997,1122.876 639.320001,1122.768 639.032,1122.552 C638.703998,1122.296 638.54,1121.864 638.54,1121.256 C638.54,1120.472 638.903996,1119.03201 639.632,1116.936 C640.320003,1114.95199 640.783999,1113.856 641.024,1113.648 C641.296001,1113.4 642.087993,1113.276 643.4,1113.276 C644.080003,1113.276 644.511999,1113.3 644.696,1113.348 C645.096002,1113.444 645.471998,1113.704 645.824,1114.128 L645.632,1114.668 C645.423999,1114.7 645.152002,1114.716 644.816,1114.716 C644.744,1114.716 644.628001,1114.712 644.468,1114.704 L644.12,1114.704 C643.439997,1114.704 642.952001,1114.784 642.656,1114.944 C642.223998,1115.168 642.008,1115.592 642.008,1116.216 L641.996,1116.72 C642.476002,1116.728 643.279994,1116.688 644.408,1116.6 C645.592006,1116.512 646.371998,1116.468 646.748,1116.468 C647.044001,1116.468 647.321999,1116.528 647.582,1116.648 C647.842001,1116.768 647.972,1116.924 647.972,1117.116 C647.972,1117.196 647.948,1117.276 647.9,1117.356 Z M658.264,1121.46 C658.264,1121.7 658.032002,1121.884 657.568,1122.012 C657.231998,1122.108 656.888002,1122.156 656.536,1122.156 C655.359994,1122.156 654.040007,1122.084 652.576,1121.94 C650.239988,1121.716 649.048,1121.372 649,1120.908 C648.944,1120.34 649.839991,1119.31601 651.688,1117.836 C652.896006,1116.868 654.063994,1116.024 655.192,1115.304 C653.591992,1115.08 652.84,1114.968 652.936,1114.968 C652.703999,1114.968 652.198004,1115.004 651.418,1115.076 C650.637996,1115.148 650.264,1115.184 650.296,1115.184 C649.887998,1115.184 649.520002,1115.144 649.192,1115.064 C648.663997,1114.952 648.4,1114.764 648.4,1114.5 C648.4,1113.604 649.155992,1113.156 650.668,1113.156 C651.916006,1113.156 653.123994,1113.24 654.292,1113.408 C656.31601,1113.696 657.328,1114.176 657.328,1114.848 C657.328,1115.2 656.29601,1116.19199 654.232,1117.824 C652.23999,1119.40001 651.064002,1120.228 650.704,1120.308 C651.008002,1120.364 651.839993,1120.392 653.2,1120.392 L655.696,1120.308 C656.200003,1120.308 656.691998,1120.376 657.172,1120.512 C657.9,1120.72 658.264,1121.036 658.264,1121.46 Z" id="CRISTINASUÁREZ"></path>
        </g>
    </g>
</svg>