<?xml version="1.0" encoding="UTF-8"?>
<svg width="85px" height="30px" viewBox="0 0 85 30" version="1.1" xmlns="http://www.w3.org/2000/svg" xmlns:xlink="http://www.w3.org/1999/xlink">
    <!-- Generator: Sketch 56.2 (81672) - https://sketch.com -->
    <title>IRENEDEPABLO</title>
    <desc>Created with Sketch.</desc>
    <g id="Welcome" stroke="none" stroke-width="1" fill="none" fill-rule="evenodd">
        <g id="Friends" transform="translate(-805.000000, -1094.000000)" fill="#4C5796" fill-rule="nonzero">
            <path d="M827.486,1095.264 C827.526,1096.168 827.322002,1097.20399 826.874,1098.372 L825.674,1101.324 C825.465999,1101.924 825.242001,1102.94399 825.002,1104.384 C824.817999,1104.52 824.658001,1104.588 824.522,1104.588 C823.993997,1104.588 823.73,1104.208 823.73,1103.448 C823.73,1102.76 823.857999,1102.04 824.114,1101.288 C824.234001,1100.92 824.561997,1100.10601 825.098,1098.846 C825.634003,1097.58599 826.089998,1096.40401 826.466,1095.3 C826.658001,1095.148 826.853999,1095.072 827.054,1095.072 C827.198001,1095.072 827.341999,1095.136 827.486,1095.264 Z M840.346,1097.112 C840.346,1097.608 839.986004,1098.016 839.266,1098.336 C838.745997,1098.568 838.062004,1098.744 837.214,1098.864 C836.805998,1098.904 836.402002,1098.944 836.002,1098.984 C836.474002,1099.24 836.945998,1099.492 837.418,1099.74 C838.122004,1100.132 838.661998,1100.496 839.038,1100.832 C839.550003,1101.296 839.806,1101.748 839.806,1102.188 C839.806,1102.38 839.774,1102.552 839.71,1102.704 C839.622,1102.904 839.498001,1103.004 839.338,1103.004 C839.258,1103.004 839.022002,1102.784 838.63,1102.344 C838.237998,1101.904 837.998,1101.672 837.91,1101.648 L834.43,1100.76 C834.245999,1100.76 833.970002,1100.712 833.602,1100.616 C833.121998,1100.48 832.882,1100.324 832.882,1100.148 C832.882,1099.58 833.345995,1099.084 834.274,1098.66 C834.530001,1098.548 835.057996,1098.376 835.858,1098.144 C836.306002,1098.008 836.645999,1097.896 836.878,1097.808 C837.382003,1097.608 837.729999,1097.404 837.922,1097.196 C837.874,1097.06 837.690002,1096.992 837.37,1096.992 C836.753997,1096.992 835.910005,1097.14 834.838,1097.436 C833.669994,1097.764 833.022001,1098.076 832.894,1098.372 C832.565998,1099.092 832.046004,1100.26799 831.334,1101.9 C831.221999,1102.164 831.106001,1102.644 830.986,1103.34 C830.946,1103.644 830.906,1103.944 830.866,1104.24 C830.753999,1104.864 830.606001,1105.368 830.422,1105.752 C830.165999,1106.28 829.850002,1106.544 829.474,1106.544 C829.369999,1106.544 829.234001,1106.464 829.066,1106.304 C829.034,1105.472 829.109999,1104.692 829.294,1103.964 C829.406001,1103.54 829.661998,1102.80401 830.062,1101.756 C830.510002,1100.60399 830.873999,1099.552 831.154,1098.6 C831.114,1098.576 830.938002,1098.524 830.626,1098.444 C830.385999,1098.372 830.262,1098.308 830.254,1098.252 C830.238,1098.108 830.266,1097.916 830.338,1097.676 C830.442001,1097.316 830.494,1097.116 830.494,1097.076 C830.502,1097.076 830.693998,1097.004 831.07,1096.86 C831.326001,1096.764 831.486,1096.672 831.55,1096.584 C831.670001,1096.392 831.793999,1096.204 831.922,1096.02 C832.066001,1095.86 832.289998,1095.78 832.594,1095.78 C832.642,1095.78 832.871998,1095.808 833.284,1095.864 C833.696002,1095.92 833.934,1095.948 833.998,1095.948 C834.07,1095.948 834.313998,1095.868 834.73,1095.708 C835.242003,1095.508 835.677998,1095.36 836.038,1095.264 C836.638003,1095.104 837.197997,1095.024 837.718,1095.024 C838.342003,1095.024 838.905997,1095.18 839.41,1095.492 C840.034003,1095.876 840.346,1096.416 840.346,1097.112 Z M850.95,1099.356 C850.021995,1099.556 848.710008,1099.752 847.014,1099.944 C845.909994,1100.064 845.166002,1100.252 844.782,1100.508 C844.285998,1100.836 843.930001,1101.492 843.714,1102.476 C843.858001,1102.556 844.157998,1102.596 844.614,1102.596 C844.71,1102.596 845.305995,1102.398 846.402,1102.002 C847.498005,1101.606 848.094,1101.408 848.19,1101.408 C848.478001,1101.408 848.685999,1101.44 848.814,1101.504 C849.038001,1101.6 849.253999,1101.82 849.462,1102.164 C849.125998,1102.788 848.250007,1103.404 846.834,1104.012 C845.481993,1104.588 844.354005,1104.876 843.45,1104.876 C842.825997,1104.876 842.370001,1104.768 842.082,1104.552 C841.753998,1104.296 841.59,1103.864 841.59,1103.256 C841.59,1102.472 841.953996,1101.03201 842.682,1098.936 C843.370003,1096.95199 843.833999,1095.856 844.074,1095.648 C844.346001,1095.4 845.137993,1095.276 846.45,1095.276 C847.130003,1095.276 847.561999,1095.3 847.746,1095.348 C848.146002,1095.444 848.521998,1095.704 848.874,1096.128 L848.682,1096.668 C848.473999,1096.7 848.202002,1096.716 847.866,1096.716 C847.794,1096.716 847.678001,1096.712 847.518,1096.704 L847.17,1096.704 C846.489997,1096.704 846.002001,1096.784 845.706,1096.944 C845.273998,1097.168 845.058,1097.592 845.058,1098.216 L845.046,1098.72 C845.526002,1098.728 846.329994,1098.688 847.458,1098.6 C848.642006,1098.512 849.421998,1098.468 849.798,1098.468 C850.094001,1098.468 850.371999,1098.528 850.632,1098.648 C850.892001,1098.768 851.022,1098.924 851.022,1099.116 C851.022,1099.196 850.998,1099.276 850.95,1099.356 Z M862.982,1095.12 C862.982,1095.456 862.682003,1096.32399 862.082,1097.724 C861.433997,1099.24401 860.778003,1100.54399 860.114,1101.624 C859.289996,1102.96001 858.630002,1103.628 858.134,1103.628 C857.693998,1103.628 857.230002,1103.216 856.742,1102.392 C856.389998,1101.8 856.030002,1101.00401 855.662,1100.004 L855.134,1098.492 C854.645998,1099.52401 854.110003,1101.09599 853.526,1103.208 C853.486,1103.376 853.328001,1103.552 853.052,1103.736 C852.775999,1103.92 852.566001,1104.012 852.422,1104.012 C852.061998,1104.012 851.786001,1103.848 851.594,1103.52 C851.449999,1103.28 851.378,1103.016 851.378,1102.728 C851.378,1102.304 851.449999,1101.916 851.594,1101.564 C851.962002,1100.676 852.577996,1099.44001 853.442,1097.856 C853.962003,1096.896 854.449998,1096.176 854.906,1095.696 C854.97,1095.632 855.125999,1095.584 855.374,1095.552 C855.734002,1095.504 855.946,1095.472 856.01,1095.456 C856.882004,1096.87201 857.437999,1098.81199 857.678,1101.276 C857.782001,1101.372 857.945999,1101.524 858.17,1101.732 C858.634002,1100.924 859.209997,1099.69601 859.898,1098.048 C860.338002,1097.00799 860.625999,1096.356 860.762,1096.092 C861.370003,1094.97199 861.949997,1094.412 862.502,1094.412 C862.742001,1094.412 862.894,1094.512 862.958,1094.712 C862.974,1094.76 862.982,1094.896 862.982,1095.12 Z M872.806,1099.356 C871.877995,1099.556 870.566008,1099.752 868.87,1099.944 C867.765994,1100.064 867.022002,1100.252 866.638,1100.508 C866.141998,1100.836 865.786001,1101.492 865.57,1102.476 C865.714001,1102.556 866.013998,1102.596 866.47,1102.596 C866.566,1102.596 867.161995,1102.398 868.258,1102.002 C869.354005,1101.606 869.95,1101.408 870.046,1101.408 C870.334001,1101.408 870.541999,1101.44 870.67,1101.504 C870.894001,1101.6 871.109999,1101.82 871.318,1102.164 C870.981998,1102.788 870.106007,1103.404 868.69,1104.012 C867.337993,1104.588 866.210005,1104.876 865.306,1104.876 C864.681997,1104.876 864.226001,1104.768 863.938,1104.552 C863.609998,1104.296 863.446,1103.864 863.446,1103.256 C863.446,1102.472 863.809996,1101.03201 864.538,1098.936 C865.226003,1096.95199 865.689999,1095.856 865.93,1095.648 C866.202001,1095.4 866.993993,1095.276 868.306,1095.276 C868.986003,1095.276 869.417999,1095.3 869.602,1095.348 C870.002002,1095.444 870.377998,1095.704 870.73,1096.128 L870.538,1096.668 C870.329999,1096.7 870.058002,1096.716 869.722,1096.716 C869.65,1096.716 869.534001,1096.712 869.374,1096.704 L869.026,1096.704 C868.345997,1096.704 867.858001,1096.784 867.562,1096.944 C867.129998,1097.168 866.914,1097.592 866.914,1098.216 L866.902,1098.72 C867.382002,1098.728 868.185994,1098.688 869.314,1098.6 C870.498006,1098.512 871.277998,1098.468 871.654,1098.468 C871.950001,1098.468 872.227999,1098.528 872.488,1098.648 C872.748001,1098.768 872.878,1098.924 872.878,1099.116 C872.878,1099.196 872.854,1099.276 872.806,1099.356 Z M818.252,1115.892 C818.252,1116.876 817.484008,1117.86 815.948,1118.844 C814.851995,1119.556 813.420009,1120.228 811.652,1120.86 C811.604,1120.876 810.828008,1121.124 809.324,1121.604 C808.851998,1121.756 808.200004,1122.004 807.368,1122.348 C806.911998,1122.532 806.524002,1122.624 806.204,1122.624 C805.883998,1122.624 805.676,1122.564 805.58,1122.444 C805.508,1122.348 805.472,1122.16 805.472,1121.88 C805.472,1121.28 805.667998,1120.33801 806.06,1119.054 C806.452002,1117.76999 806.648,1116.86 806.648,1116.324 C806.648,1116.012 806.604,1115.732 806.516,1115.484 C806.604,1115.348 806.767999,1115.28 807.008,1115.28 C807.128001,1115.28 807.259999,1115.3 807.404,1115.34 C807.524001,1115.18 807.624,1114.892 807.704,1114.476 C807.784,1114.004 807.86,1113.696 807.932,1113.552 C808.076001,1113.256 808.307998,1113.108 808.628,1113.108 C808.716,1113.108 808.815999,1113.12 808.928,1113.144 C809.080001,1113.256 809.156,1113.436 809.156,1113.684 L809.156,1113.756 C809.156,1113.932 809.176,1114.076 809.216,1114.188 C810.360006,1113.596 811.155998,1113.244 811.604,1113.132 C811.908002,1113.06 812.571995,1113.024 813.596,1113.024 C814.828006,1113.024 815.779997,1113.148 816.452,1113.396 C817.652006,1113.828 818.252,1114.65999 818.252,1115.892 Z M816.752,1116.24 C816.752,1115.608 816.228005,1115.12 815.18,1114.776 C814.443996,1114.536 813.736003,1114.416 813.056,1114.416 C811.975995,1114.416 810.996004,1114.644 810.116,1115.1 C809.819999,1115.252 809.520002,1115.404 809.216,1115.556 C808.863998,1115.756 808.664,1115.904 808.616,1116 C808.327999,1116.568 808.064001,1117.312 807.824,1118.232 L807.248,1120.536 C808.464006,1120.192 810.255988,1119.664 812.624,1118.952 C815.376014,1118.072 816.752,1117.168 816.752,1116.24 Z M827.2,1117.356 C826.271995,1117.556 824.960008,1117.752 823.264,1117.944 C822.159994,1118.064 821.416002,1118.252 821.032,1118.508 C820.535998,1118.836 820.180001,1119.492 819.964,1120.476 C820.108001,1120.556 820.407998,1120.596 820.864,1120.596 C820.96,1120.596 821.555995,1120.398 822.652,1120.002 C823.748005,1119.606 824.344,1119.408 824.44,1119.408 C824.728001,1119.408 824.935999,1119.44 825.064,1119.504 C825.288001,1119.6 825.503999,1119.82 825.712,1120.164 C825.375998,1120.788 824.500007,1121.404 823.084,1122.012 C821.731993,1122.588 820.604005,1122.876 819.7,1122.876 C819.075997,1122.876 818.620001,1122.768 818.332,1122.552 C818.003998,1122.296 817.84,1121.864 817.84,1121.256 C817.84,1120.472 818.203996,1119.03201 818.932,1116.936 C819.620003,1114.95199 820.083999,1113.856 820.324,1113.648 C820.596001,1113.4 821.387993,1113.276 822.7,1113.276 C823.380003,1113.276 823.811999,1113.3 823.996,1113.348 C824.396002,1113.444 824.771998,1113.704 825.124,1114.128 L824.932,1114.668 C824.723999,1114.7 824.452002,1114.716 824.116,1114.716 C824.044,1114.716 823.928001,1114.712 823.768,1114.704 L823.42,1114.704 C822.739997,1114.704 822.252001,1114.784 821.956,1114.944 C821.523998,1115.168 821.308,1115.592 821.308,1116.216 L821.296,1116.72 C821.776002,1116.728 822.579994,1116.688 823.708,1116.6 C824.892006,1116.512 825.671998,1116.468 826.048,1116.468 C826.344001,1116.468 826.621999,1116.528 826.882,1116.648 C827.142001,1116.768 827.272,1116.924 827.272,1117.116 C827.272,1117.196 827.248,1117.276 827.2,1117.356 Z M843.824,1115.22 C843.824,1115.884 843.486003,1116.502 842.81,1117.074 C842.133997,1117.646 841.364004,1117.952 840.5,1117.992 C840.219999,1118.008 839.860002,1117.992 839.42,1117.944 C838.923998,1117.896 838.576001,1117.872 838.376,1117.872 C838.087999,1117.872 837.816001,1117.9 837.56,1117.956 C837.415999,1118.268 837.236001,1118.72 837.02,1119.312 C836.691998,1120.208 836.528,1120.828 836.528,1121.172 L836.528,1122.468 C836.528,1122.548 836.496,1122.66 836.432,1122.804 C836.36,1122.98 836.276,1123.068 836.18,1123.068 C835.883999,1123.068 835.636,1122.964 835.436,1122.756 C835.235999,1122.548 835.136,1122.328 835.136,1122.096 C835.136,1121.872 835.379998,1120.38401 835.868,1117.632 C835.948,1117.136 836.083999,1116.37601 836.276,1115.352 L836.372,1114.704 C836.428,1114.416 836.5,1114.188 836.588,1114.02 C836.700001,1113.94 836.867999,1113.804 837.092,1113.612 C837.124,1113.604 837.168,1113.6 837.224,1113.6 C837.376001,1113.6 837.5,1113.672 837.596,1113.816 C837.692,1113.96 837.788,1114.108 837.884,1114.26 C839.116006,1113.74 840.155996,1113.42 841.004,1113.3 C841.068,1113.292 841.14,1113.288 841.22,1113.288 C841.780003,1113.288 842.327997,1113.452 842.864,1113.78 C843.504003,1114.164 843.824,1114.644 843.824,1115.22 Z M842.168,1115.124 C842.168,1114.684 841.740004,1114.464 840.884,1114.464 C840.731999,1114.464 840.480002,1114.556 840.128,1114.74 C839.679998,1114.972 839.42,1115.1 839.348,1115.124 C839.171999,1115.188 838.964001,1115.3 838.724,1115.46 C838.387998,1115.676 838.22,1115.856 838.22,1116 C838.22,1116.152 838.279999,1116.244 838.4,1116.276 C838.424,1116.284 838.511999,1116.288 838.664,1116.288 C839.376004,1116.288 840.051997,1116.22 840.692,1116.084 C841.284003,1115.956 841.677999,1115.824 841.874,1115.688 C842.070001,1115.552 842.168,1115.364 842.168,1115.124 Z M856.276,1117.896 C856.196,1118.32 856.112,1118.592 856.024,1118.712 C855.936,1118.832 855.788001,1118.892 855.58,1118.892 C855.532,1118.892 855.432001,1118.888 855.28,1118.88 C855.127999,1118.872 855.000001,1118.868 854.896,1118.868 C854.912,1118.868 854.768002,1118.884 854.464,1118.916 C854.215999,1118.94 854.044,1118.94 853.948,1118.916 L853.804,1120.044 C853.691999,1120.82 853.544001,1121.44 853.36,1121.904 C853.103999,1122.56 852.792002,1122.888 852.424,1122.888 C851.879997,1122.888 851.608,1122.24401 851.608,1120.956 C851.608,1120.636 851.626,1120.274 851.662,1119.87 C851.698,1119.466 851.716,1119.276 851.716,1119.3 C851.7,1119.284 851.694,1119.25 851.698,1119.198 C851.702,1119.146 851.676,1119.12 851.62,1119.12 C851.451999,1119.12 850.984004,1119.172 850.216,1119.276 C849.255995,1119.412 848.520003,1119.556 848.008,1119.708 C847.968,1119.716 847.816001,1119.9 847.552,1120.26 C847.239998,1120.684 847.056,1120.928 847,1120.992 L846.064,1122.24 C845.711998,1122.672 845.316002,1122.888 844.876,1122.888 C844.227997,1122.888 843.904,1122.584 843.904,1121.976 C843.904,1121.464 845.163987,1120.05201 847.684,1117.74 C849.180007,1116.41999 850.671993,1115.10001 852.16,1113.78 C852.312001,1113.652 852.539998,1113.544 852.844,1113.456 C853.124001,1113.384 853.383999,1113.348 853.624,1113.348 C854.024002,1113.348 854.275999,1113.496 854.38,1113.792 C854.428,1113.92 854.452,1114.212 854.452,1114.668 L854.212,1117.644 L855.88,1117.644 C856.048001,1117.636 856.18,1117.72 856.276,1117.896 Z M851.8,1117.572 L851.704,1116.66 C851.664,1116.284 851.568001,1116.024 851.416,1115.88 C851.119999,1116.096 850.768002,1116.444 850.36,1116.924 C850.055998,1117.3 849.752002,1117.672 849.448,1118.04 L851.8,1117.572 Z M869.352,1119.492 C869.352,1119.58 869.328,1119.772 869.28,1120.068 C869.216,1120.404 869.156,1120.652 869.1,1120.812 C868.619998,1121.268 867.484009,1121.76 865.692,1122.288 C863.74799,1122.872 862.032007,1123.164 860.544,1123.164 C859.359994,1123.164 858.604002,1122.988 858.276,1122.636 C857.947998,1122.284 857.784,1121.52801 857.784,1120.368 C857.784,1120 857.78,1119.824 857.772,1119.84 C857.796,1119.672 857.879999,1119.408 858.024,1119.048 C858.296001,1118.52 858.711997,1117.66801 859.272,1116.492 C859.328,1116.356 859.4,1116.052 859.488,1115.58 C859.56,1115.164 859.655999,1114.864 859.776,1114.68 C859.872,1114.536 860.319996,1114.372 861.12,1114.188 C862.760008,1113.812 864.099995,1113.624 865.14,1113.624 C866.940009,1113.624 867.84,1113.992 867.84,1114.728 C867.84,1114.92 867.722001,1115.224 867.486,1115.64 C867.249999,1116.056 867.020001,1116.36 866.796,1116.552 C867.716005,1116.728 868.391998,1117.116 868.824,1117.716 C869.176002,1118.204 869.352,1118.796 869.352,1119.492 Z M865.752,1115.34 L865.62,1115.196 L864.276,1115.196 C863.835998,1115.188 863.164005,1115.284 862.26,1115.484 C861.019994,1115.756 860.4,1116.096 860.4,1116.504 L860.4,1116.756 C860.424,1116.74 860.511999,1116.736 860.664,1116.744 C861.024002,1116.752 861.411998,1116.756 861.828,1116.756 C862.532004,1116.716 863.271996,1116.556 864.048,1116.276 C864.824004,1115.996 865.391998,1115.684 865.752,1115.34 Z M867.96,1119.696 C867.96,1119.488 867.748002,1119.224 867.324,1118.904 C866.987998,1118.648 866.728001,1118.484 866.544,1118.412 C866.079998,1118.244 865.212006,1118.16 863.94,1118.16 C863.315997,1118.16 862.816002,1118.204 862.44,1118.292 L861.408,1118.556 C861.135999,1118.604 860.860001,1118.652 860.58,1118.7 C860.267998,1118.764 860.036001,1118.844 859.884,1118.94 C859.667999,1119.084 859.476001,1119.356 859.308,1119.756 C859.155999,1120.124 859.096,1120.404 859.128,1120.596 C860.280006,1120.332 861.215996,1120.2 861.936,1120.2 C862.576003,1120.2 862.896,1120.304 862.896,1120.512 C862.896,1120.648 862.712002,1120.832 862.344,1121.064 C862.143999,1121.176 861.940001,1121.288 861.732,1121.4 C865.884021,1120.88 867.96,1120.312 867.96,1119.696 Z M880.484,1120.524 C880.484,1120.668 880.380001,1120.9 880.172,1121.22 C879.947999,1121.588 879.736001,1121.772 879.536,1121.772 C879.56,1121.772 879.316003,1121.72 878.804,1121.616 C878.291997,1121.512 877.728003,1121.46 877.112,1121.46 C876.175995,1121.46 875.112006,1121.586 873.92,1121.838 C872.727994,1122.09 871.840003,1122.216 871.256,1122.216 C870.975999,1122.216 870.780001,1122.188 870.668,1122.132 C870.507999,1122.052 870.428,1121.88 870.428,1121.616 C870.428,1121.592 870.575999,1121.252 870.872,1120.596 C871.208002,1119.844 871.455999,1119.212 871.616,1118.7 C872.040002,1117.26799 872.431998,1115.42801 872.792,1113.18 C872.848,1112.804 873.055998,1112.616 873.416,1112.616 C873.568001,1112.616 873.727999,1112.696 873.896,1112.856 C873.92,1115.10401 873.444005,1117.43999 872.468,1119.864 C872.628001,1119.84 873.135996,1119.756 873.992,1119.612 C874.696004,1119.484 875.084,1119.42 875.156,1119.42 C876.204005,1119.42 877.147996,1119.464 877.988,1119.552 C879.652008,1119.736 880.484,1120.06 880.484,1120.524 Z M889.852,1117.428 C889.852,1118.71601 889.436004,1119.91199 888.604,1121.016 C887.667995,1122.26401 886.504007,1122.888 885.112,1122.888 C884.023995,1122.888 883.172003,1122.572 882.556,1121.94 C881.971997,1121.332 881.68,1120.52001 881.68,1119.504 C881.68,1119.096 881.823999,1118.36801 882.112,1117.32 C882.472002,1116.03199 882.891998,1114.98 883.372,1114.164 C883.996003,1113.08399 884.659996,1112.544 885.364,1112.544 C886.636006,1112.544 887.695996,1112.992 888.544,1113.888 C889.416004,1114.808 889.852,1115.98799 889.852,1117.428 Z M887.776,1117.896 C887.808,1117.264 887.640002,1116.46 887.272,1115.484 C886.839998,1114.35599 886.356003,1113.792 885.82,1113.792 C885.379998,1113.792 884.956,1114.22 884.548,1115.076 C884.243998,1115.74 883.976001,1116.58799 883.744,1117.62 C883.551999,1118.468 883.456,1119.068 883.456,1119.42 C883.456,1119.82 883.519999,1120.212 883.648,1120.596 C883.888001,1121.276 884.283997,1121.616 884.836,1121.616 C885.700004,1121.616 886.399997,1121.26 886.936,1120.548 C887.440003,1119.868 887.72,1118.98401 887.776,1117.896 Z" id="IRENEDEPABLO"></path>
        </g>
    </g>
</svg>