<?xml version="1.0" encoding="UTF-8"?>
<svg width="66px" height="31px" viewBox="0 0 66 31" version="1.1" xmlns="http://www.w3.org/2000/svg" xmlns:xlink="http://www.w3.org/1999/xlink">
    <!-- Generator: Sketch 56.2 (81672) - https://sketch.com -->
    <title>Group 22</title>
    <desc>Created with Sketch.</desc>
    <g id="Welcome" stroke="none" stroke-width="1" fill="none" fill-rule="evenodd">
        <g id="Friends" transform="translate(-927.000000, -1094.000000)">
            <g id="Group-22" transform="translate(927.000000, 1091.000000)">
                <path d="M13.948,11.524 C13.948,11.6680007 13.844001,11.8999984 13.636,12.22 C13.4119989,12.5880018 13.200001,12.772 13,12.772 C13.0240001,12.772 12.7800026,12.7200005 12.268,12.616 C11.7559974,12.5119995 11.1920031,12.46 10.576,12.46 C9.63999532,12.46 8.57600596,12.5859987 7.384,12.838 C6.19199404,13.0900013 5.30400292,13.216 4.72,13.216 C4.4399986,13.216 4.24400056,13.1880003 4.132,13.132 C3.9719992,13.0519996 3.892,12.8800013 3.892,12.616 C3.892,12.5919999 4.03999852,12.2520033 4.336,11.596 C4.67200168,10.8439962 4.9199992,10.2120026 5.08,9.7 C5.50400212,8.26799284 5.8959982,6.42801124 6.256,4.18 C6.31200028,3.80399812 6.5199982,3.616 6.88,3.616 C7.03200076,3.616 7.19199916,3.6959992 7.36,3.856 C7.38400012,6.10401124 6.90800488,8.43998788 5.932,10.864 C6.0920008,10.8399999 6.59999572,10.7560007 7.456,10.612 C8.16000352,10.4839994 8.54799964,10.42 8.62,10.42 C9.66800524,10.42 10.6119958,10.4639996 11.452,10.552 C13.1160083,10.7360009 13.948,11.0599977 13.948,11.524 Z M26.856,8.896 C26.7759996,9.32000212 26.6920004,9.5919994 26.604,9.712 C26.5159996,9.8320006 26.368001,9.892 26.16,9.892 C26.1119998,9.892 26.0120008,9.88800004 25.86,9.88 C25.7079992,9.87199996 25.5800005,9.868 25.476,9.868 C25.4920001,9.868 25.3480015,9.88399984 25.044,9.916 C24.7959988,9.94000012 24.6240005,9.94000012 24.528,9.916 L24.384,11.044 C24.2719994,11.8200039 24.1240009,12.4399977 23.94,12.904 C23.6839987,13.5600033 23.3720018,13.888 23.004,13.888 C22.4599973,13.888 22.188,13.2440064 22.188,11.956 C22.188,11.6359984 22.2059998,11.274002 22.242,10.87 C22.2780002,10.465998 22.296,10.2759999 22.296,10.3 C22.2799999,10.2839999 22.274,10.2500003 22.278,10.198 C22.282,10.1459997 22.2560003,10.12 22.2,10.12 C22.0319992,10.12 21.5640038,10.1719995 20.796,10.276 C19.8359952,10.4120007 19.1000026,10.5559992 18.588,10.708 C18.5479998,10.716 18.3960013,10.8999982 18.132,11.26 C17.8199984,11.6840021 17.6360003,11.9279997 17.58,11.992 L16.644,13.24 C16.2919982,13.6720022 15.8960022,13.888 15.456,13.888 C14.8079968,13.888 14.484,13.584003 14.484,12.976 C14.484,12.4639974 15.7439874,11.0520116 18.264,8.74 C19.7600075,7.4199934 21.2519926,6.1000066 22.74,4.78 C22.8920008,4.65199936 23.1199985,4.54400044 23.424,4.456 C23.7040014,4.38399964 23.9639988,4.348 24.204,4.348 C24.604002,4.348 24.8559995,4.49599852 24.96,4.792 C25.0080002,4.92000064 25.032,5.21199772 25.032,5.668 L24.792,8.644 L26.46,8.644 C26.6280008,8.63599996 26.7599995,8.71999912 26.856,8.896 Z M22.38,8.572 L22.284,7.66 C22.2439998,7.28399812 22.1480008,7.02400072 21.996,6.88 C21.6999985,7.09600108 21.348002,7.4439976 20.94,7.924 C20.6359985,8.30000188 20.3320015,8.67199816 20.028,9.04 L22.38,8.572 Z M35.768,4.612 C35.768,5.08400236 35.5040026,5.9799934 34.976,7.3 C34.367997,8.83600768 33.684,10.1119949 32.924,11.128 C31.9639952,12.4240065 31.0160047,13.072 30.08,13.072 C29.4399968,13.072 28.9360018,12.5240055 28.568,11.428 C28.3119987,10.6759962 28.184,10.0240028 28.184,9.472 C28.184,9.3919996 28.2559993,8.65600696 28.4,7.264 C28.5600008,5.71199224 28.6639998,4.58000356 28.712,3.868 C28.7360001,3.868 28.8159993,3.84400024 28.952,3.796 C29.0880007,3.74799976 29.2119994,3.724 29.324,3.724 C29.8280025,3.724 30.2319985,3.86999854 30.536,4.162 C30.8400015,4.45400146 30.992,4.83599764 30.992,5.308 C30.992,5.41200052 30.788002,6.30599158 30.38,7.99 C29.971998,9.67400842 29.768,10.5679995 29.768,10.672 C29.768,10.9120012 29.7959997,11.0719996 29.852,11.152 C29.9240004,11.2560005 30.063999,11.308 30.272,11.308 C30.864003,11.308 31.4999966,10.6680064 32.18,9.388 C32.6680024,8.484 33.1679974,7.26800764 33.68,5.74 L34.4,3.484 L35.096,3.484 C35.5440022,3.9240022 35.768,4.29999844 35.768,4.612 Z M47.836,6.112 C47.836,6.60800248 47.4760036,7.0159984 46.756,7.336 C46.2359974,7.56800116 45.5520042,7.7439994 44.704,7.864 C44.295998,7.9040002 43.892002,7.9439998 43.492,7.984 C43.9640024,8.24000128 44.4359976,8.49199876 44.908,8.74 C45.6120035,9.13200196 46.1519981,9.49599832 46.528,9.832 C47.0400026,10.2960023 47.296,10.7479978 47.296,11.188 C47.296,11.380001 47.2640003,11.5519992 47.2,11.704 C47.1119996,11.904001 46.9880008,12.004 46.828,12.004 C46.7479996,12.004 46.512002,11.7840022 46.12,11.344 C45.727998,10.9039978 45.4880004,10.6720001 45.4,10.648 L41.92,9.76 C41.7359991,9.76 41.4600018,9.71200048 41.092,9.616 C40.6119976,9.47999932 40.372,9.32400088 40.372,9.148 C40.372,8.57999716 40.8359954,8.08400212 41.764,7.66 C42.0200013,7.54799944 42.547996,7.37600116 43.348,7.144 C43.7960022,7.00799932 44.1359988,6.89600044 44.368,6.808 C44.8720025,6.607999 45.219999,6.40400104 45.412,6.196 C45.3639998,6.05999932 45.1800016,5.992 44.86,5.992 C44.2439969,5.992 43.4000054,6.13999852 42.328,6.436 C41.1599942,6.76400164 40.5120006,7.07599852 40.384,7.372 C40.0559984,8.0920036 39.5360036,9.26799184 38.824,10.9 C38.7119994,11.1640013 38.5960006,11.6439965 38.476,12.34 C38.4359998,12.6440015 38.3960002,12.9439985 38.356,13.24 C38.2439994,13.8640031 38.0960009,14.3679981 37.912,14.752 C37.6559987,15.2800026 37.3400019,15.544 36.964,15.544 C36.8599995,15.544 36.7240008,15.4640008 36.556,15.304 C36.5239998,14.4719958 36.5999991,13.6920036 36.784,12.964 C36.8960006,12.5399979 37.151998,11.8040052 37.552,10.756 C38.0000022,9.60399424 38.3639986,8.55200476 38.644,7.6 C38.6039998,7.57599988 38.4280016,7.524 38.116,7.444 C37.8759988,7.37199964 37.752,7.30800028 37.744,7.252 C37.7279999,7.10799928 37.7559996,6.9160012 37.828,6.676 C37.9320005,6.3159982 37.984,6.1160002 37.984,6.076 C37.992,6.076 38.1839981,6.00400072 38.56,5.86 C38.8160013,5.76399952 38.9759997,5.67200044 39.04,5.584 C39.1600006,5.39199904 39.2839994,5.20400092 39.412,5.02 C39.5560007,4.8599992 39.7799985,4.78 40.084,4.78 C40.1320002,4.78 40.3619979,4.80799972 40.774,4.864 C41.1860021,4.92000028 41.4239997,4.948 41.488,4.948 C41.5600004,4.948 41.8039979,4.8680008 42.22,4.708 C42.7320026,4.507999 43.1679982,4.36000048 43.528,4.264 C44.128003,4.1039992 44.6879974,4.024 45.208,4.024 C45.8320031,4.024 46.3959975,4.17999844 46.9,4.492 C47.5240031,4.87600192 47.836,5.41599652 47.836,6.112 Z M60.744,8.896 C60.6639996,9.32000212 60.5800004,9.5919994 60.492,9.712 C60.4039996,9.8320006 60.256001,9.892 60.048,9.892 C59.9999998,9.892 59.9000008,9.88800004 59.748,9.88 C59.5959992,9.87199996 59.4680005,9.868 59.364,9.868 C59.3800001,9.868 59.2360015,9.88399984 58.932,9.916 C58.6839988,9.94000012 58.5120005,9.94000012 58.416,9.916 L58.272,11.044 C58.1599994,11.8200039 58.0120009,12.4399977 57.828,12.904 C57.5719987,13.5600033 57.2600018,13.888 56.892,13.888 C56.3479973,13.888 56.076,13.2440064 56.076,11.956 C56.076,11.6359984 56.0939998,11.274002 56.13,10.87 C56.1660002,10.465998 56.184,10.2759999 56.184,10.3 C56.1679999,10.2839999 56.162,10.2500003 56.166,10.198 C56.17,10.1459997 56.1440003,10.12 56.088,10.12 C55.9199992,10.12 55.4520038,10.1719995 54.684,10.276 C53.7239952,10.4120007 52.9880026,10.5559992 52.476,10.708 C52.4359998,10.716 52.2840013,10.8999982 52.02,11.26 C51.7079984,11.6840021 51.5240003,11.9279997 51.468,11.992 L50.532,13.24 C50.1799982,13.6720022 49.7840022,13.888 49.344,13.888 C48.6959968,13.888 48.372,13.584003 48.372,12.976 C48.372,12.4639974 49.6319874,11.0520116 52.152,8.74 C53.6480075,7.4199934 55.1399926,6.1000066 56.628,4.78 C56.7800008,4.65199936 57.0079985,4.54400044 57.312,4.456 C57.5920014,4.38399964 57.8519988,4.348 58.092,4.348 C58.492002,4.348 58.7439995,4.49599852 58.848,4.792 C58.8960002,4.92000064 58.92,5.21199772 58.92,5.668 L58.68,8.644 L60.348,8.644 C60.5160008,8.63599996 60.6479995,8.71999912 60.744,8.896 Z M56.268,8.572 L56.172,7.66 C56.1319998,7.28399812 56.0360008,7.02400072 55.884,6.88 C55.5879985,7.09600108 55.236002,7.4439976 54.828,7.924 C54.5239985,8.30000188 54.2200015,8.67199816 53.916,9.04 L56.268,8.572 Z M13.248,25.588 C13.1519995,25.8840015 12.7880032,26.727993 12.156,28.12 C11.5719971,29.4160065 11.2320005,30.259998 11.136,30.652 C11.1199999,30.7160003 11.112,30.7999995 11.112,30.904 C11.112,31.0080005 11.1259999,31.1959986 11.154,31.468 C11.1820001,31.7400014 11.196,31.9479993 11.196,32.092 C11.196,32.7960035 10.900003,33.148 10.308,33.148 C10.1239991,33.148 9.94800084,33.044001 9.78,32.836 C9.61199916,32.627999 9.528,32.4120011 9.528,32.188 C9.528,32.1159996 9.53999988,32.0520003 9.564,31.996 L11.4,25.864 C11.4400002,25.7839996 11.46,25.7320001 11.46,25.708 C11.46,25.7 11.456,25.696 11.448,25.696 C11.4319999,25.704 11.4040002,25.7319998 11.364,25.78 C10.4279953,26.572004 9.49200468,27.367996 8.556,28.168 C6.93999192,29.4560064 5.86000272,30.1 5.316,30.1 C4.69999692,30.1 4.0520034,28.9840112 3.372,26.752 C3.03599832,27.2560025 2.73600132,27.8719964 2.472,28.6 C2.41599972,28.7600008 2.22000168,29.3839946 1.884,30.472 C1.82799972,30.6480009 1.68200118,30.8839985 1.446,31.18 C1.20999882,31.4760015 1.03600056,31.624 0.924,31.624 C0.59599836,31.624 0.38800044,31.5080012 0.3,31.276 C0.26799984,31.1879996 0.252,30.9880016 0.252,30.676 C0.252,30.5559994 0.50399748,29.900006 1.008,28.708 C1.56000276,27.3799934 2.07199764,26.2560046 2.544,25.336 C3.16000308,24.143994 3.58399884,23.548 3.816,23.548 C4.30400244,23.548 4.69199856,23.9159963 4.98,24.652 C5.180001,25.1720026 5.33199948,25.8879954 5.436,26.8 C5.48400024,27.2800024 5.53199976,27.7559976 5.58,28.228 C6.6200052,27.4839963 7.65599484,26.7400037 8.688,25.996 C10.5840095,24.6679934 11.7559978,24.004 12.204,24.004 C12.5160016,24.004 12.775999,24.1719983 12.984,24.508 C13.176001,24.7960014 13.272,25.0879985 13.272,25.384 C13.272,25.4640004 13.2640001,25.5319997 13.248,25.588 Z M25.772,26.896 C25.6919996,27.3200021 25.6080004,27.5919994 25.52,27.712 C25.4319996,27.8320006 25.284001,27.892 25.076,27.892 C25.0279998,27.892 24.9280008,27.888 24.776,27.88 C24.6239992,27.872 24.4960005,27.868 24.392,27.868 C24.4080001,27.868 24.2640015,27.8839998 23.96,27.916 C23.7119988,27.9400001 23.5400005,27.9400001 23.444,27.916 L23.3,29.044 C23.1879994,29.8200039 23.0400009,30.4399977 22.856,30.904 C22.5999987,31.5600033 22.2880018,31.888 21.92,31.888 C21.3759973,31.888 21.104,31.2440064 21.104,29.956 C21.104,29.6359984 21.1219998,29.274002 21.158,28.87 C21.1940002,28.465998 21.212,28.2759999 21.212,28.3 C21.1959999,28.2839999 21.19,28.2500003 21.194,28.198 C21.198,28.1459997 21.1720003,28.12 21.116,28.12 C20.9479992,28.12 20.4800038,28.1719995 19.712,28.276 C18.7519952,28.4120007 18.0160026,28.5559992 17.504,28.708 C17.4639998,28.716 17.3120013,28.8999982 17.048,29.26 C16.7359984,29.6840021 16.5520003,29.9279997 16.496,29.992 L15.56,31.24 C15.2079982,31.6720022 14.8120022,31.888 14.372,31.888 C13.7239968,31.888 13.4,31.584003 13.4,30.976 C13.4,30.4639974 14.6599874,29.0520116 17.18,26.74 C18.6760075,25.4199934 20.1679926,24.1000066 21.656,22.78 C21.8080008,22.6519994 22.0359985,22.5440004 22.34,22.456 C22.6200014,22.3839996 22.8799988,22.348 23.12,22.348 C23.520002,22.348 23.7719995,22.4959985 23.876,22.792 C23.9240002,22.9200006 23.948,23.2119977 23.948,23.668 L23.708,26.644 L25.376,26.644 C25.5440008,26.636 25.6759995,26.7199991 25.772,26.896 Z M21.296,26.572 L21.2,25.66 C21.1599998,25.2839981 21.0640008,25.0240007 20.912,24.88 C20.6159985,25.0960011 20.264002,25.4439976 19.856,25.924 C19.5519985,26.3000019 19.2480015,26.6719982 18.944,27.04 L21.296,26.572 Z M38.464,24.112 C38.464,24.6080025 38.1040036,25.0159984 37.384,25.336 C36.8639974,25.5680012 36.1800042,25.7439994 35.332,25.864 C34.923998,25.9040002 34.520002,25.9439998 34.12,25.984 C34.5920024,26.2400013 35.0639976,26.4919988 35.536,26.74 C36.2400035,27.132002 36.7799981,27.4959983 37.156,27.832 C37.6680026,28.2960023 37.924,28.7479978 37.924,29.188 C37.924,29.380001 37.8920003,29.5519992 37.828,29.704 C37.7399996,29.904001 37.6160008,30.004 37.456,30.004 C37.3759996,30.004 37.140002,29.7840022 36.748,29.344 C36.355998,28.9039978 36.1160004,28.6720001 36.028,28.648 L32.548,27.76 C32.3639991,27.76 32.0880018,27.7120005 31.72,27.616 C31.2399976,27.4799993 31,27.3240009 31,27.148 C31,26.5799972 31.4639954,26.0840021 32.392,25.66 C32.6480013,25.5479994 33.175996,25.3760012 33.976,25.144 C34.4240022,25.0079993 34.7639988,24.8960004 34.996,24.808 C35.5000025,24.607999 35.847999,24.404001 36.04,24.196 C35.9919998,24.0599993 35.8080016,23.992 35.488,23.992 C34.8719969,23.992 34.0280054,24.1399985 32.956,24.436 C31.7879942,24.7640016 31.1400006,25.0759985 31.012,25.372 C30.6839984,26.0920036 30.1640036,27.2679918 29.452,28.9 C29.3399994,29.1640013 29.2240006,29.6439965 29.104,30.34 C29.0639998,30.6440015 29.0240002,30.9439985 28.984,31.24 C28.8719994,31.8640031 28.7240009,32.3679981 28.54,32.752 C28.2839987,33.2800026 27.9680019,33.544 27.592,33.544 C27.4879995,33.544 27.3520008,33.4640008 27.184,33.304 C27.1519998,32.4719958 27.2279991,31.6920036 27.412,30.964 C27.5240006,30.5399979 27.779998,29.8040052 28.18,28.756 C28.6280022,27.6039942 28.9919986,26.5520048 29.272,25.6 C29.2319998,25.5759999 29.0560016,25.524 28.744,25.444 C28.5039988,25.3719996 28.38,25.3080003 28.372,25.252 C28.3559999,25.1079993 28.3839996,24.9160012 28.456,24.676 C28.5600005,24.3159982 28.612,24.1160002 28.612,24.076 C28.62,24.076 28.8119981,24.0040007 29.188,23.86 C29.4440013,23.7639995 29.6039997,23.6720004 29.668,23.584 C29.7880006,23.391999 29.9119994,23.2040009 30.04,23.02 C30.1840007,22.8599992 30.4079985,22.78 30.712,22.78 C30.7600002,22.78 30.9899979,22.8079997 31.402,22.864 C31.8140021,22.9200003 32.0519997,22.948 32.116,22.948 C32.1880004,22.948 32.4319979,22.8680008 32.848,22.708 C33.3600026,22.507999 33.7959982,22.3600005 34.156,22.264 C34.756003,22.1039992 35.3159974,22.024 35.836,22.024 C36.4600031,22.024 37.0239975,22.1799984 37.528,22.492 C38.1520031,22.8760019 38.464,23.4159965 38.464,24.112 Z M50.424,22.42 C50.424,22.6680012 50.1520027,22.8839991 49.608,23.068 C49.2719983,23.1880006 48.9600014,23.2639998 48.672,23.296 C47.3199932,23.4560008 45.8360081,23.7559978 44.22,24.196 C44.212,24.3240006 44.1760003,24.487999 44.112,24.688 C44.0319996,24.9360012 43.9840001,25.0919997 43.968,25.156 C43.767999,25.9400039 43.564001,26.7239961 43.356,27.508 C42.955998,29.116008 42.756,30.1079981 42.756,30.484 L42.72,31.948 C42.72,32.0520005 42.6120011,32.1359997 42.396,32.2 C42.2359992,32.2480002 42.1080005,32.272 42.012,32.272 C41.5719978,32.272 41.352,31.9160036 41.352,31.204 C41.352,30.8679983 41.4359992,30.3160038 41.604,29.548 C41.7400007,28.9079968 41.8599995,28.4280016 41.964,28.108 C42.0280003,27.9239991 42.1279993,27.3880044 42.264,26.5 C42.4160008,25.5559953 42.492,24.9320015 42.492,24.628 C42.492,24.4679992 42.4280006,24.3560003 42.3,24.292 L40.224,24.4 C39.8879983,24.4800004 39.72,24.216003 39.72,23.608 C39.72,23.2639983 39.8079991,23.0360006 39.984,22.924 C40.1040006,22.8519996 40.3159985,22.816 40.62,22.816 C40.6600002,22.816 40.7479993,22.8239999 40.884,22.84 C41.0200007,22.8560001 41.1159997,22.868 41.172,22.876 L48.336,21.796 C48.8240024,21.8520003 49.3079976,21.9039998 49.788,21.952 C50.2120021,22.0240004 50.424,22.1799988 50.424,22.42 Z M52.208,22.264 C52.2480002,23.1680045 52.0440022,24.2039942 51.596,25.372 L50.396,28.324 C50.187999,28.924003 49.9640012,29.9439928 49.724,31.384 C49.5399991,31.5200007 49.3800007,31.588 49.244,31.588 C48.7159974,31.588 48.452,31.2080038 48.452,30.448 C48.452,29.7599966 48.5799987,29.0400038 48.836,28.288 C48.9560006,27.9199982 49.2839973,27.1060063 49.82,25.846 C50.3560027,24.5859937 50.8119981,23.4040055 51.188,22.3 C51.380001,22.1479992 51.575999,22.072 51.776,22.072 C51.9200007,22.072 52.0639993,22.1359994 52.208,22.264 Z M65.272,22.12 C65.272,22.4560017 64.972003,23.323993 64.372,24.724 C63.7239968,26.2440076 63.0680033,27.5439946 62.404,28.624 C61.5799959,29.9600067 60.9200025,30.628 60.424,30.628 C59.9839978,30.628 59.5200024,30.2160041 59.032,29.392 C58.6799982,28.799997 58.3200018,28.004005 57.952,27.004 L57.424,25.492 C56.9359976,26.5240052 56.4000029,28.0959894 55.816,30.208 C55.7759998,30.3760008 55.6180014,30.5519991 55.342,30.736 C55.0659986,30.9200009 54.8560007,31.012 54.712,31.012 C54.3519982,31.012 54.076001,30.8480016 53.884,30.52 C53.7399993,30.2799988 53.668,30.0160014 53.668,29.728 C53.668,29.3039979 53.7399993,28.9160018 53.884,28.564 C54.2520018,27.6759956 54.8679957,26.4400079 55.732,24.856 C56.2520026,23.8959952 56.7399977,23.1760024 57.196,22.696 C57.2600003,22.6319997 57.4159988,22.5840002 57.664,22.552 C58.0240018,22.5039998 58.2359997,22.4720001 58.3,22.456 C59.1720044,23.8720071 59.7279988,25.8119877 59.968,28.276 C60.0720005,28.3720005 60.2359989,28.523999 60.46,28.732 C60.9240023,27.923996 61.4999966,26.6960082 62.188,25.048 C62.6280022,24.0079948 62.9159993,23.3560013 63.052,23.092 C63.660003,21.9719944 64.2399972,21.412 64.792,21.412 C65.0320012,21.412 65.1839997,21.511999 65.248,21.712 C65.2640001,21.7600002 65.272,21.8959989 65.272,22.12 Z" id="LAURAMARTIN" fill="#4C5796" fill-rule="nonzero"></path>
                <path d="M51.5,20.8826666 L54.9068302,17.788" id="Line-2" stroke="#4C5796" stroke-linecap="round"></path>
            </g>
        </g>
    </g>
</svg>