<?xml version="1.0" encoding="UTF-8"?>
<svg width="81px" height="31px" viewBox="0 0 81 31" version="1.1" xmlns="http://www.w3.org/2000/svg" xmlns:xlink="http://www.w3.org/1999/xlink">
    <!-- Generator: Sketch 56.2 (81672) - https://sketch.com -->
    <title>PABLONARVÁEZ</title>
    <desc>Created with Sketch.</desc>
    <g id="Welcome" stroke="none" stroke-width="1" fill="none" fill-rule="evenodd">
        <g id="Friends" transform="translate(-1139.000000, -1094.000000)" fill="#4C5796" fill-rule="nonzero">
            <path d="M1160.504,1097.22 C1160.504,1097.884 1160.166,1098.502 1159.49,1099.074 C1158.814,1099.646 1158.044,1099.952 1157.18,1099.992 C1156.9,1100.008 1156.54,1099.992 1156.1,1099.944 C1155.604,1099.896 1155.256,1099.872 1155.056,1099.872 C1154.768,1099.872 1154.496,1099.9 1154.24,1099.956 C1154.096,1100.268 1153.916,1100.72 1153.7,1101.312 C1153.372,1102.208 1153.208,1102.828 1153.208,1103.172 L1153.208,1104.468 C1153.208,1104.548 1153.176,1104.66 1153.112,1104.804 C1153.04,1104.98 1152.956,1105.068 1152.86,1105.068 C1152.564,1105.068 1152.316,1104.964 1152.116,1104.756 C1151.916,1104.548 1151.816,1104.328 1151.816,1104.096 C1151.816,1103.872 1152.06,1102.38401 1152.548,1099.632 C1152.628,1099.136 1152.764,1098.37601 1152.956,1097.352 L1153.052,1096.704 C1153.108,1096.416 1153.18,1096.188 1153.268,1096.02 C1153.38,1095.94 1153.548,1095.804 1153.772,1095.612 C1153.804,1095.604 1153.848,1095.6 1153.904,1095.6 C1154.056,1095.6 1154.18,1095.672 1154.276,1095.816 C1154.372,1095.96 1154.468,1096.108 1154.564,1096.26 C1155.79601,1095.74 1156.836,1095.42 1157.684,1095.3 C1157.748,1095.292 1157.82,1095.288 1157.9,1095.288 C1158.46,1095.288 1159.008,1095.452 1159.544,1095.78 C1160.184,1096.164 1160.504,1096.644 1160.504,1097.22 Z M1158.848,1097.124 C1158.848,1096.684 1158.42,1096.464 1157.564,1096.464 C1157.412,1096.464 1157.16,1096.556 1156.808,1096.74 C1156.36,1096.972 1156.1,1097.1 1156.028,1097.124 C1155.852,1097.188 1155.644,1097.3 1155.404,1097.46 C1155.068,1097.676 1154.9,1097.856 1154.9,1098 C1154.9,1098.152 1154.96,1098.244 1155.08,1098.276 C1155.104,1098.284 1155.192,1098.288 1155.344,1098.288 C1156.056,1098.288 1156.732,1098.22 1157.372,1098.084 C1157.964,1097.956 1158.358,1097.824 1158.554,1097.688 C1158.75,1097.552 1158.848,1097.364 1158.848,1097.124 Z M1172.956,1099.896 C1172.876,1100.32 1172.792,1100.592 1172.704,1100.712 C1172.616,1100.832 1172.468,1100.892 1172.26,1100.892 C1172.212,1100.892 1172.112,1100.888 1171.96,1100.88 C1171.808,1100.872 1171.68,1100.868 1171.576,1100.868 C1171.592,1100.868 1171.448,1100.884 1171.144,1100.916 C1170.896,1100.94 1170.724,1100.94 1170.628,1100.916 L1170.484,1102.044 C1170.372,1102.82 1170.224,1103.44 1170.04,1103.904 C1169.784,1104.56 1169.472,1104.888 1169.104,1104.888 C1168.56,1104.888 1168.288,1104.24401 1168.288,1102.956 C1168.288,1102.636 1168.306,1102.274 1168.342,1101.87 C1168.378,1101.466 1168.396,1101.276 1168.396,1101.3 C1168.38,1101.284 1168.374,1101.25 1168.378,1101.198 C1168.382,1101.146 1168.356,1101.12 1168.3,1101.12 C1168.132,1101.12 1167.664,1101.172 1166.896,1101.276 C1165.936,1101.412 1165.2,1101.556 1164.688,1101.708 C1164.648,1101.716 1164.496,1101.9 1164.232,1102.26 C1163.92,1102.684 1163.736,1102.928 1163.68,1102.992 L1162.744,1104.24 C1162.392,1104.672 1161.996,1104.888 1161.556,1104.888 C1160.908,1104.888 1160.584,1104.584 1160.584,1103.976 C1160.584,1103.464 1161.84399,1102.05201 1164.364,1099.74 C1165.86001,1098.41999 1167.35199,1097.10001 1168.84,1095.78 C1168.992,1095.652 1169.22,1095.544 1169.524,1095.456 C1169.804,1095.384 1170.064,1095.348 1170.304,1095.348 C1170.704,1095.348 1170.956,1095.496 1171.06,1095.792 C1171.108,1095.92 1171.132,1096.212 1171.132,1096.668 L1170.892,1099.644 L1172.56,1099.644 C1172.728,1099.636 1172.86,1099.72 1172.956,1099.896 Z M1168.48,1099.572 L1168.384,1098.66 C1168.344,1098.284 1168.248,1098.024 1168.096,1097.88 C1167.8,1098.096 1167.448,1098.444 1167.04,1098.924 C1166.736,1099.3 1166.432,1099.672 1166.128,1100.04 L1168.48,1099.572 Z M1186.032,1101.492 C1186.032,1101.58 1186.008,1101.772 1185.96,1102.068 C1185.896,1102.404 1185.836,1102.652 1185.78,1102.812 C1185.3,1103.268 1184.16401,1103.76 1182.372,1104.288 C1180.42799,1104.872 1178.71201,1105.164 1177.224,1105.164 C1176.03999,1105.164 1175.284,1104.988 1174.956,1104.636 C1174.628,1104.284 1174.464,1103.52801 1174.464,1102.368 C1174.464,1102 1174.46,1101.824 1174.452,1101.84 C1174.476,1101.672 1174.56,1101.408 1174.704,1101.048 C1174.976,1100.52 1175.392,1099.66801 1175.952,1098.492 C1176.008,1098.356 1176.08,1098.052 1176.168,1097.58 C1176.24,1097.164 1176.336,1096.864 1176.456,1096.68 C1176.552,1096.536 1177,1096.372 1177.8,1096.188 C1179.44001,1095.812 1180.77999,1095.624 1181.82,1095.624 C1183.62001,1095.624 1184.52,1095.992 1184.52,1096.728 C1184.52,1096.92 1184.402,1097.224 1184.166,1097.64 C1183.93,1098.056 1183.7,1098.36 1183.476,1098.552 C1184.396,1098.728 1185.072,1099.116 1185.504,1099.716 C1185.856,1100.204 1186.032,1100.796 1186.032,1101.492 Z M1182.432,1097.34 L1182.3,1097.196 L1180.956,1097.196 C1180.516,1097.188 1179.844,1097.284 1178.94,1097.484 C1177.69999,1097.756 1177.08,1098.096 1177.08,1098.504 L1177.08,1098.756 C1177.104,1098.74 1177.192,1098.736 1177.344,1098.744 C1177.704,1098.752 1178.092,1098.756 1178.508,1098.756 C1179.212,1098.716 1179.952,1098.556 1180.728,1098.276 C1181.504,1097.996 1182.072,1097.684 1182.432,1097.34 Z M1184.64,1101.696 C1184.64,1101.488 1184.428,1101.224 1184.004,1100.904 C1183.668,1100.648 1183.408,1100.484 1183.224,1100.412 C1182.76,1100.244 1181.89201,1100.16 1180.62,1100.16 C1179.996,1100.16 1179.496,1100.204 1179.12,1100.292 L1178.088,1100.556 C1177.816,1100.604 1177.54,1100.652 1177.26,1100.7 C1176.948,1100.764 1176.716,1100.844 1176.564,1100.94 C1176.348,1101.084 1176.156,1101.356 1175.988,1101.756 C1175.836,1102.124 1175.776,1102.404 1175.808,1102.596 C1176.96001,1102.332 1177.896,1102.2 1178.616,1102.2 C1179.256,1102.2 1179.576,1102.304 1179.576,1102.512 C1179.576,1102.648 1179.392,1102.832 1179.024,1103.064 C1178.824,1103.176 1178.62,1103.288 1178.412,1103.4 C1182.56402,1102.88 1184.64,1102.312 1184.64,1101.696 Z M1197.164,1102.524 C1197.164,1102.668 1197.06,1102.9 1196.852,1103.22 C1196.628,1103.588 1196.416,1103.772 1196.216,1103.772 C1196.24,1103.772 1195.996,1103.72 1195.484,1103.616 C1194.972,1103.512 1194.408,1103.46 1193.792,1103.46 C1192.856,1103.46 1191.79201,1103.586 1190.6,1103.838 C1189.40799,1104.09 1188.52,1104.216 1187.936,1104.216 C1187.656,1104.216 1187.46,1104.188 1187.348,1104.132 C1187.188,1104.052 1187.108,1103.88 1187.108,1103.616 C1187.108,1103.592 1187.256,1103.252 1187.552,1102.596 C1187.888,1101.844 1188.136,1101.212 1188.296,1100.7 C1188.72,1099.26799 1189.112,1097.42801 1189.472,1095.18 C1189.528,1094.804 1189.736,1094.616 1190.096,1094.616 C1190.248,1094.616 1190.408,1094.696 1190.576,1094.856 C1190.6,1097.10401 1190.124,1099.43999 1189.148,1101.864 C1189.308,1101.84 1189.816,1101.756 1190.672,1101.612 C1191.376,1101.484 1191.764,1101.42 1191.836,1101.42 C1192.88401,1101.42 1193.828,1101.464 1194.668,1101.552 C1196.33201,1101.736 1197.164,1102.06 1197.164,1102.524 Z M1206.532,1099.428 C1206.532,1100.71601 1206.116,1101.91199 1205.284,1103.016 C1204.348,1104.26401 1203.18401,1104.888 1201.792,1104.888 C1200.70399,1104.888 1199.852,1104.572 1199.236,1103.94 C1198.652,1103.332 1198.36,1102.52001 1198.36,1101.504 C1198.36,1101.096 1198.504,1100.36801 1198.792,1099.32 C1199.152,1098.03199 1199.572,1096.98 1200.052,1096.164 C1200.676,1095.08399 1201.34,1094.544 1202.044,1094.544 C1203.31601,1094.544 1204.376,1094.992 1205.224,1095.888 C1206.096,1096.808 1206.532,1097.98799 1206.532,1099.428 Z M1204.456,1099.896 C1204.488,1099.264 1204.32,1098.46 1203.952,1097.484 C1203.52,1096.35599 1203.036,1095.792 1202.5,1095.792 C1202.06,1095.792 1201.636,1096.22 1201.228,1097.076 C1200.924,1097.74 1200.656,1098.58799 1200.424,1099.62 C1200.232,1100.468 1200.136,1101.068 1200.136,1101.42 C1200.136,1101.82 1200.2,1102.212 1200.328,1102.596 C1200.568,1103.276 1200.964,1103.616 1201.516,1103.616 C1202.38,1103.616 1203.08,1103.26 1203.616,1102.548 C1204.12,1101.868 1204.4,1100.98401 1204.456,1099.896 Z M1150.698,1113.12 C1150.698,1113.456 1150.398,1114.32399 1149.798,1115.724 C1149.15,1117.24401 1148.494,1118.54399 1147.83,1119.624 C1147.006,1120.96001 1146.346,1121.628 1145.85,1121.628 C1145.41,1121.628 1144.946,1121.216 1144.458,1120.392 C1144.106,1119.8 1143.746,1119.00401 1143.378,1118.004 L1142.85,1116.492 C1142.362,1117.52401 1141.826,1119.09599 1141.242,1121.208 C1141.202,1121.376 1141.044,1121.552 1140.768,1121.736 C1140.492,1121.92 1140.282,1122.012 1140.138,1122.012 C1139.778,1122.012 1139.502,1121.848 1139.31,1121.52 C1139.166,1121.28 1139.094,1121.016 1139.094,1120.728 C1139.094,1120.304 1139.166,1119.916 1139.31,1119.564 C1139.678,1118.676 1140.294,1117.44001 1141.158,1115.856 C1141.678,1114.896 1142.166,1114.176 1142.622,1113.696 C1142.686,1113.632 1142.842,1113.584 1143.09,1113.552 C1143.45,1113.504 1143.662,1113.472 1143.726,1113.456 C1144.598,1114.87201 1145.154,1116.81199 1145.394,1119.276 C1145.498,1119.372 1145.662,1119.524 1145.886,1119.732 C1146.35,1118.924 1146.926,1117.69601 1147.614,1116.048 C1148.054,1115.00799 1148.342,1114.356 1148.478,1114.092 C1149.086,1112.97199 1149.666,1112.412 1150.218,1112.412 C1150.458,1112.412 1150.61,1112.512 1150.674,1112.712 C1150.69,1112.76 1150.698,1112.896 1150.698,1113.12 Z M1162.826,1117.896 C1162.746,1118.32 1162.662,1118.592 1162.574,1118.712 C1162.486,1118.832 1162.338,1118.892 1162.13,1118.892 C1162.082,1118.892 1161.982,1118.888 1161.83,1118.88 C1161.678,1118.872 1161.55,1118.868 1161.446,1118.868 C1161.462,1118.868 1161.318,1118.884 1161.014,1118.916 C1160.766,1118.94 1160.594,1118.94 1160.498,1118.916 L1160.354,1120.044 C1160.242,1120.82 1160.094,1121.44 1159.91,1121.904 C1159.654,1122.56 1159.342,1122.888 1158.974,1122.888 C1158.43,1122.888 1158.158,1122.24401 1158.158,1120.956 C1158.158,1120.636 1158.176,1120.274 1158.212,1119.87 C1158.248,1119.466 1158.266,1119.276 1158.266,1119.3 C1158.25,1119.284 1158.244,1119.25 1158.248,1119.198 C1158.252,1119.146 1158.226,1119.12 1158.17,1119.12 C1158.002,1119.12 1157.534,1119.172 1156.766,1119.276 C1155.806,1119.412 1155.07,1119.556 1154.558,1119.708 C1154.518,1119.716 1154.366,1119.9 1154.102,1120.26 C1153.79,1120.684 1153.606,1120.928 1153.55,1120.992 L1152.614,1122.24 C1152.262,1122.672 1151.866,1122.888 1151.426,1122.888 C1150.778,1122.888 1150.454,1122.584 1150.454,1121.976 C1150.454,1121.464 1151.71399,1120.05201 1154.234,1117.74 C1155.73001,1116.41999 1157.22199,1115.10001 1158.71,1113.78 C1158.862,1113.652 1159.09,1113.544 1159.394,1113.456 C1159.674,1113.384 1159.934,1113.348 1160.174,1113.348 C1160.574,1113.348 1160.826,1113.496 1160.93,1113.792 C1160.978,1113.92 1161.002,1114.212 1161.002,1114.668 L1160.762,1117.644 L1162.43,1117.644 C1162.598,1117.636 1162.73,1117.72 1162.826,1117.896 Z M1158.35,1117.572 L1158.254,1116.66 C1158.214,1116.284 1158.118,1116.024 1157.966,1115.88 C1157.67,1116.096 1157.318,1116.444 1156.91,1116.924 C1156.606,1117.3 1156.302,1117.672 1155.998,1118.04 L1158.35,1117.572 Z M1175.518,1115.112 C1175.518,1115.608 1175.158,1116.016 1174.438,1116.336 C1173.918,1116.568 1173.234,1116.744 1172.386,1116.864 C1171.978,1116.904 1171.574,1116.944 1171.174,1116.984 C1171.646,1117.24 1172.118,1117.492 1172.59,1117.74 C1173.294,1118.132 1173.834,1118.496 1174.21,1118.832 C1174.722,1119.296 1174.978,1119.748 1174.978,1120.188 C1174.978,1120.38 1174.946,1120.552 1174.882,1120.704 C1174.794,1120.904 1174.67,1121.004 1174.51,1121.004 C1174.43,1121.004 1174.194,1120.784 1173.802,1120.344 C1173.41,1119.904 1173.17,1119.672 1173.082,1119.648 L1169.602,1118.76 C1169.418,1118.76 1169.142,1118.712 1168.774,1118.616 C1168.294,1118.48 1168.054,1118.324 1168.054,1118.148 C1168.054,1117.58 1168.518,1117.084 1169.446,1116.66 C1169.702,1116.548 1170.23,1116.376 1171.03,1116.144 C1171.478,1116.008 1171.818,1115.896 1172.05,1115.808 C1172.554,1115.608 1172.902,1115.404 1173.094,1115.196 C1173.046,1115.06 1172.862,1114.992 1172.542,1114.992 C1171.926,1114.992 1171.08201,1115.14 1170.01,1115.436 C1168.84199,1115.764 1168.194,1116.076 1168.066,1116.372 C1167.738,1117.092 1167.218,1118.26799 1166.506,1119.9 C1166.394,1120.164 1166.278,1120.644 1166.158,1121.34 C1166.118,1121.644 1166.078,1121.944 1166.038,1122.24 C1165.926,1122.864 1165.778,1123.368 1165.594,1123.752 C1165.338,1124.28 1165.022,1124.544 1164.646,1124.544 C1164.542,1124.544 1164.406,1124.464 1164.238,1124.304 C1164.206,1123.472 1164.282,1122.692 1164.466,1121.964 C1164.578,1121.54 1164.834,1120.80401 1165.234,1119.756 C1165.682,1118.60399 1166.046,1117.552 1166.326,1116.6 C1166.286,1116.576 1166.11,1116.524 1165.798,1116.444 C1165.558,1116.372 1165.434,1116.308 1165.426,1116.252 C1165.41,1116.108 1165.438,1115.916 1165.51,1115.676 C1165.614,1115.316 1165.666,1115.116 1165.666,1115.076 C1165.674,1115.076 1165.866,1115.004 1166.242,1114.86 C1166.498,1114.764 1166.658,1114.672 1166.722,1114.584 C1166.842,1114.392 1166.966,1114.204 1167.094,1114.02 C1167.238,1113.86 1167.462,1113.78 1167.766,1113.78 C1167.814,1113.78 1168.044,1113.808 1168.456,1113.864 C1168.868,1113.92 1169.106,1113.948 1169.17,1113.948 C1169.242,1113.948 1169.486,1113.868 1169.902,1113.708 C1170.414,1113.508 1170.85,1113.36 1171.21,1113.264 C1171.81,1113.104 1172.37,1113.024 1172.89,1113.024 C1173.514,1113.024 1174.078,1113.18 1174.582,1113.492 C1175.206,1113.876 1175.518,1114.416 1175.518,1115.112 Z M1186.038,1113.948 C1186.038,1114.196 1185.606,1115.07999 1184.742,1116.6 C1183.862,1118.14401 1182.994,1119.53199 1182.138,1120.764 C1181.146,1122.20401 1180.506,1122.924 1180.218,1122.924 C1179.89,1122.924 1179.562,1122.428 1179.234,1121.436 C1179.066,1120.924 1178.834,1120.00001 1178.538,1118.664 C1178.306,1117.672 1178.15,1117.176 1178.07,1117.176 C1177.95,1117.176 1177.856,1117.126 1177.788,1117.026 C1177.72,1116.926 1177.674,1116.876 1177.65,1116.876 C1177.634,1116.876 1177.614,1116.88 1177.59,1116.888 C1177.102,1116.944 1176.858,1116.808 1176.858,1116.48 C1176.858,1116.368 1176.91,1116.16 1177.014,1115.856 C1177.254,1115.336 1177.462,1115.076 1177.638,1115.076 C1177.678,1115.076 1177.808,1115.11 1178.028,1115.178 C1178.248,1115.246 1178.47,1115.28 1178.694,1115.28 C1179.254,1115.28 1179.642,1115.484 1179.858,1115.892 C1180.01,1116.172 1180.122,1116.7 1180.194,1117.476 C1180.242,1117.94 1180.29,1118.352 1180.338,1118.712 C1180.442,1119.432 1180.55,1119.92 1180.662,1120.176 C1180.806,1120.048 1180.99,1119.828 1181.214,1119.516 C1181.494,1119.116 1181.654,1118.892 1181.694,1118.844 C1181.902,1118.596 1182.378,1117.79601 1183.122,1116.444 C1183.834,1115.15599 1184.27,1114.324 1184.43,1113.948 C1184.558,1113.644 1184.746,1113.452 1184.994,1113.372 C1185.13,1113.332 1185.398,1113.316 1185.798,1113.324 C1185.958,1113.332 1186.038,1113.54 1186.038,1113.948 Z M1198.49,1117.896 C1198.386,1118.48 1198.21,1118.856 1197.962,1119.024 C1197.77,1119.16 1197.406,1119.228 1196.87,1119.228 C1196.542,1119.228 1196.29,1119.208 1196.114,1119.168 C1196.074,1119.52 1196.03,1119.876 1195.982,1120.236 C1195.878,1120.956 1195.738,1121.536 1195.562,1121.976 C1195.314,1122.584 1195.006,1122.888 1194.638,1122.888 C1194.054,1122.888 1193.762,1122.19601 1193.762,1120.812 C1193.762,1120.54 1193.774,1120.24 1193.798,1119.912 C1193.822,1119.584 1193.834,1119.432 1193.834,1119.456 C1193.81,1119.424 1193.762,1119.408 1193.69,1119.408 C1193.546,1119.408 1193.054,1119.476 1192.214,1119.612 C1191.20599,1119.772 1190.446,1119.928 1189.934,1120.08 C1189.894,1120.088 1189.79,1120.212 1189.622,1120.452 C1189.414,1120.74 1189.278,1120.92 1189.214,1120.992 L1188.278,1122.24 C1187.926,1122.672 1187.53,1122.888 1187.09,1122.888 C1186.442,1122.888 1186.118,1122.584 1186.118,1121.976 C1186.118,1121.464 1187.37799,1120.05201 1189.898,1117.74 C1191.39401,1116.41999 1192.88599,1115.10001 1194.374,1113.78 C1194.526,1113.652 1194.754,1113.544 1195.058,1113.456 C1195.338,1113.384 1195.598,1113.348 1195.838,1113.348 C1196.238,1113.348 1196.49,1113.496 1196.594,1113.792 C1196.642,1113.92 1196.666,1114.212 1196.666,1114.668 L1196.426,1117.644 L1198.094,1117.644 C1198.262,1117.636 1198.394,1117.72 1198.49,1117.896 Z M1194.014,1117.572 L1193.918,1116.66 C1193.878,1116.284 1193.782,1116.024 1193.63,1115.88 C1193.334,1116.096 1192.982,1116.444 1192.574,1116.924 C1192.27,1117.3 1191.966,1117.672 1191.662,1118.04 L1194.014,1117.572 Z M1196.378,1112.568 C1195.882,1112.712 1195.57,1112.8 1195.442,1112.832 C1194.986,1113.04 1194.598,1113.232 1194.278,1113.408 C1194.006,1113.52 1193.714,1113.576 1193.402,1113.576 C1193.266,1113.576 1193.18,1113.558 1193.144,1113.522 C1193.108,1113.486 1193.062,1113.396 1193.006,1113.252 C1192.998,1113.228 1193.046,1113.148 1193.15,1113.012 C1193.254,1112.876 1193.334,1112.788 1193.39,1112.748 C1193.622,1112.628 1193.814,1112.54 1193.966,1112.484 C1194.654,1112.276 1195.078,1112.152 1195.238,1112.112 C1195.262,1112.104 1195.422,1112.056 1195.718,1111.968 C1195.926,1111.904 1196.062,1111.876 1196.126,1111.884 C1196.286,1111.884 1196.438,1111.98 1196.582,1112.172 C1196.646,1112.252 1196.654,1112.348 1196.606,1112.46 L1196.378,1112.568 Z M1209.202,1117.356 C1208.274,1117.556 1206.96201,1117.752 1205.266,1117.944 C1204.16199,1118.064 1203.418,1118.252 1203.034,1118.508 C1202.538,1118.836 1202.182,1119.492 1201.966,1120.476 C1202.11,1120.556 1202.41,1120.596 1202.866,1120.596 C1202.962,1120.596 1203.55799,1120.398 1204.654,1120.002 C1205.75001,1119.606 1206.346,1119.408 1206.442,1119.408 C1206.73,1119.408 1206.938,1119.44 1207.066,1119.504 C1207.29,1119.6 1207.506,1119.82 1207.714,1120.164 C1207.378,1120.788 1206.50201,1121.404 1205.086,1122.012 C1203.73399,1122.588 1202.606,1122.876 1201.702,1122.876 C1201.078,1122.876 1200.622,1122.768 1200.334,1122.552 C1200.006,1122.296 1199.842,1121.864 1199.842,1121.256 C1199.842,1120.472 1200.206,1119.03201 1200.934,1116.936 C1201.622,1114.95199 1202.086,1113.856 1202.326,1113.648 C1202.598,1113.4 1203.38999,1113.276 1204.702,1113.276 C1205.382,1113.276 1205.814,1113.3 1205.998,1113.348 C1206.398,1113.444 1206.774,1113.704 1207.126,1114.128 L1206.934,1114.668 C1206.726,1114.7 1206.454,1114.716 1206.118,1114.716 C1206.046,1114.716 1205.93,1114.712 1205.77,1114.704 L1205.422,1114.704 C1204.742,1114.704 1204.254,1114.784 1203.958,1114.944 C1203.526,1115.168 1203.31,1115.592 1203.31,1116.216 L1203.298,1116.72 C1203.778,1116.728 1204.58199,1116.688 1205.71,1116.6 C1206.89401,1116.512 1207.674,1116.468 1208.05,1116.468 C1208.346,1116.468 1208.624,1116.528 1208.884,1116.648 C1209.144,1116.768 1209.274,1116.924 1209.274,1117.116 C1209.274,1117.196 1209.25,1117.276 1209.202,1117.356 Z M1219.566,1121.46 C1219.566,1121.7 1219.334,1121.884 1218.87,1122.012 C1218.534,1122.108 1218.19,1122.156 1217.838,1122.156 C1216.66199,1122.156 1215.34201,1122.084 1213.878,1121.94 C1211.54199,1121.716 1210.35,1121.372 1210.302,1120.908 C1210.246,1120.34 1211.14199,1119.31601 1212.99,1117.836 C1214.19801,1116.868 1215.36599,1116.024 1216.494,1115.304 C1214.89399,1115.08 1214.142,1114.968 1214.238,1114.968 C1214.006,1114.968 1213.5,1115.004 1212.72,1115.076 C1211.94,1115.148 1211.566,1115.184 1211.598,1115.184 C1211.19,1115.184 1210.822,1115.144 1210.494,1115.064 C1209.966,1114.952 1209.702,1114.764 1209.702,1114.5 C1209.702,1113.604 1210.45799,1113.156 1211.97,1113.156 C1213.21801,1113.156 1214.42599,1113.24 1215.594,1113.408 C1217.61801,1113.696 1218.63,1114.176 1218.63,1114.848 C1218.63,1115.2 1217.59801,1116.19199 1215.534,1117.824 C1213.54199,1119.40001 1212.366,1120.228 1212.006,1120.308 C1212.31,1120.364 1213.14199,1120.392 1214.502,1120.392 L1216.998,1120.308 C1217.502,1120.308 1217.994,1120.376 1218.474,1120.512 C1219.202,1120.72 1219.566,1121.036 1219.566,1121.46 Z" id="PABLONARVÁEZ"></path>
        </g>
    </g>
</svg>