<?xml version="1.0" encoding="UTF-8"?>
<svg width="88px" height="31px" viewBox="0 0 88 31" version="1.1" xmlns="http://www.w3.org/2000/svg" xmlns:xlink="http://www.w3.org/1999/xlink">
    <!-- Generator: Sketch 56.2 (81672) - https://sketch.com -->
    <title>SANDRAS.GUERRA</title>
    <desc>Created with Sketch.</desc>
    <g id="Welcome" stroke="none" stroke-width="1" fill="none" fill-rule="evenodd">
        <g id="Friends" transform="translate(-459.000000, -1094.000000)" fill="#4C5796" fill-rule="nonzero">
            <path d="M475.828,1102.488 C475.828,1103.176 475.360005,1103.776 474.424,1104.288 C473.727997,1104.672 472.820006,1104.984 471.7,1105.224 C470.875996,1105.4 470.272002,1105.488 469.888,1105.488 C469.735999,1105.488 469.432002,1105.436 468.976,1105.332 C468.447997,1105.212 468.024002,1105.084 467.704,1104.948 L467.704,1104.432 C467.696,1103.984 467.907998,1103.592 468.34,1103.256 L471.64,1103.58 C472.512004,1103.548 473.327996,1103.3 474.088,1102.836 L474.088,1102.572 C473.599998,1101.956 472.708006,1101.56 471.412,1101.384 C470.388,1101.256 469.368005,1101.128 468.352,1101 C467.375995,1100.744 466.888,1100.172 466.888,1099.284 C466.888,1098.716 467.295996,1098.08 468.112,1097.376 C468.800003,1096.792 469.635995,1096.26 470.62,1095.78 C471.540005,1095.34 472.211998,1095.12 472.636,1095.12 C473.228003,1095.12 473.564,1095.128 473.644,1095.144 C473.972002,1095.224 474.12,1095.444 474.088,1095.804 C474.048,1096.26 473.628004,1096.624 472.828,1096.896 C472.067996,1097.128 471.312004,1097.36 470.56,1097.592 C469.735996,1097.936 469.28,1098.416 469.192,1099.032 C470.016004,1099.152 470.835996,1099.272 471.652,1099.392 C472.884006,1099.584 473.827997,1099.868 474.484,1100.244 C475.380004,1100.772 475.828,1101.52 475.828,1102.488 Z M488.736,1099.896 C488.656,1100.32 488.572,1100.592 488.484,1100.712 C488.396,1100.832 488.248001,1100.892 488.04,1100.892 C487.992,1100.892 487.892001,1100.888 487.74,1100.88 C487.587999,1100.872 487.460001,1100.868 487.356,1100.868 C487.372,1100.868 487.228002,1100.884 486.924,1100.916 C486.675999,1100.94 486.504,1100.94 486.408,1100.916 L486.264,1102.044 C486.151999,1102.82 486.004001,1103.44 485.82,1103.904 C485.563999,1104.56 485.252002,1104.888 484.884,1104.888 C484.339997,1104.888 484.068,1104.24401 484.068,1102.956 C484.068,1102.636 484.086,1102.274 484.122,1101.87 C484.158,1101.466 484.176,1101.276 484.176,1101.3 C484.16,1101.284 484.154,1101.25 484.158,1101.198 C484.162,1101.146 484.136,1101.12 484.08,1101.12 C483.911999,1101.12 483.444004,1101.172 482.676,1101.276 C481.715995,1101.412 480.980003,1101.556 480.468,1101.708 C480.428,1101.716 480.276001,1101.9 480.012,1102.26 C479.699998,1102.684 479.516,1102.928 479.46,1102.992 L478.524,1104.24 C478.171998,1104.672 477.776002,1104.888 477.336,1104.888 C476.687997,1104.888 476.364,1104.584 476.364,1103.976 C476.364,1103.464 477.623987,1102.05201 480.144,1099.74 C481.640007,1098.41999 483.131993,1097.10001 484.62,1095.78 C484.772001,1095.652 484.999998,1095.544 485.304,1095.456 C485.584001,1095.384 485.843999,1095.348 486.084,1095.348 C486.484002,1095.348 486.735999,1095.496 486.84,1095.792 C486.888,1095.92 486.912,1096.212 486.912,1096.668 L486.672,1099.644 L488.34,1099.644 C488.508001,1099.636 488.64,1099.72 488.736,1099.896 Z M484.26,1099.572 L484.164,1098.66 C484.124,1098.284 484.028001,1098.024 483.876,1097.88 C483.579999,1098.096 483.228002,1098.444 482.82,1098.924 C482.515998,1099.3 482.212002,1099.672 481.908,1100.04 L484.26,1099.572 Z M501.632,1095.12 C501.632,1095.456 501.332003,1096.32399 500.732,1097.724 C500.083997,1099.24401 499.428003,1100.54399 498.764,1101.624 C497.939996,1102.96001 497.280002,1103.628 496.784,1103.628 C496.343998,1103.628 495.880002,1103.216 495.392,1102.392 C495.039998,1101.8 494.680002,1101.00401 494.312,1100.004 L493.784,1098.492 C493.295998,1099.52401 492.760003,1101.09599 492.176,1103.208 C492.136,1103.376 491.978001,1103.552 491.702,1103.736 C491.425999,1103.92 491.216001,1104.012 491.072,1104.012 C490.711998,1104.012 490.436001,1103.848 490.244,1103.52 C490.099999,1103.28 490.028,1103.016 490.028,1102.728 C490.028,1102.304 490.099999,1101.916 490.244,1101.564 C490.612002,1100.676 491.227996,1099.44001 492.092,1097.856 C492.612003,1096.896 493.099998,1096.176 493.556,1095.696 C493.62,1095.632 493.775999,1095.584 494.024,1095.552 C494.384002,1095.504 494.596,1095.472 494.66,1095.456 C495.532004,1096.87201 496.087999,1098.81199 496.328,1101.276 C496.432001,1101.372 496.595999,1101.524 496.82,1101.732 C497.284002,1100.924 497.859997,1099.69601 498.548,1098.048 C498.988002,1097.00799 499.275999,1096.356 499.412,1096.092 C500.020003,1094.97199 500.599997,1094.412 501.152,1094.412 C501.392001,1094.412 501.544,1094.512 501.608,1094.712 C501.624,1094.76 501.632,1094.896 501.632,1095.12 Z M514.912,1097.892 C514.912,1098.876 514.144008,1099.86 512.608,1100.844 C511.511995,1101.556 510.080009,1102.228 508.312,1102.86 C508.264,1102.876 507.488008,1103.124 505.984,1103.604 C505.511998,1103.756 504.860004,1104.004 504.028,1104.348 C503.571998,1104.532 503.184002,1104.624 502.864,1104.624 C502.543998,1104.624 502.336,1104.564 502.24,1104.444 C502.168,1104.348 502.132,1104.16 502.132,1103.88 C502.132,1103.28 502.327998,1102.33801 502.72,1101.054 C503.112002,1099.76999 503.308,1098.86 503.308,1098.324 C503.308,1098.012 503.264,1097.732 503.176,1097.484 C503.264,1097.348 503.427999,1097.28 503.668,1097.28 C503.788001,1097.28 503.919999,1097.3 504.064,1097.34 C504.184001,1097.18 504.284,1096.892 504.364,1096.476 C504.444,1096.004 504.52,1095.696 504.592,1095.552 C504.736001,1095.256 504.967998,1095.108 505.288,1095.108 C505.376,1095.108 505.475999,1095.12 505.588,1095.144 C505.740001,1095.256 505.816,1095.436 505.816,1095.684 L505.816,1095.756 C505.816,1095.932 505.836,1096.076 505.876,1096.188 C507.020006,1095.596 507.815998,1095.244 508.264,1095.132 C508.568002,1095.06 509.231995,1095.024 510.256,1095.024 C511.488006,1095.024 512.439997,1095.148 513.112,1095.396 C514.312006,1095.828 514.912,1096.65999 514.912,1097.892 Z M513.412,1098.24 C513.412,1097.608 512.888005,1097.12 511.84,1096.776 C511.103996,1096.536 510.396003,1096.416 509.716,1096.416 C508.635995,1096.416 507.656004,1096.644 506.776,1097.1 C506.479999,1097.252 506.180002,1097.404 505.876,1097.556 C505.523998,1097.756 505.324,1097.904 505.276,1098 C504.987999,1098.568 504.724001,1099.312 504.484,1100.232 L503.908,1102.536 C505.124006,1102.192 506.915988,1101.664 509.284,1100.952 C512.036014,1100.072 513.412,1099.168 513.412,1098.24 Z M525.84,1097.112 C525.84,1097.608 525.480004,1098.016 524.76,1098.336 C524.239997,1098.568 523.556004,1098.744 522.708,1098.864 C522.299998,1098.904 521.896002,1098.944 521.496,1098.984 C521.968002,1099.24 522.439998,1099.492 522.912,1099.74 C523.616004,1100.132 524.155998,1100.496 524.532,1100.832 C525.044003,1101.296 525.3,1101.748 525.3,1102.188 C525.3,1102.38 525.268,1102.552 525.204,1102.704 C525.116,1102.904 524.992001,1103.004 524.832,1103.004 C524.752,1103.004 524.516002,1102.784 524.124,1102.344 C523.731998,1101.904 523.492,1101.672 523.404,1101.648 L519.924,1100.76 C519.739999,1100.76 519.464002,1100.712 519.096,1100.616 C518.615998,1100.48 518.376,1100.324 518.376,1100.148 C518.376,1099.58 518.839995,1099.084 519.768,1098.66 C520.024001,1098.548 520.551996,1098.376 521.352,1098.144 C521.800002,1098.008 522.139999,1097.896 522.372,1097.808 C522.876003,1097.608 523.223999,1097.404 523.416,1097.196 C523.368,1097.06 523.184002,1096.992 522.864,1096.992 C522.247997,1096.992 521.404005,1097.14 520.332,1097.436 C519.163994,1097.764 518.516001,1098.076 518.388,1098.372 C518.059998,1099.092 517.540004,1100.26799 516.828,1101.9 C516.715999,1102.164 516.600001,1102.644 516.48,1103.34 C516.44,1103.644 516.4,1103.944 516.36,1104.24 C516.247999,1104.864 516.100001,1105.368 515.916,1105.752 C515.659999,1106.28 515.344002,1106.544 514.968,1106.544 C514.863999,1106.544 514.728001,1106.464 514.56,1106.304 C514.528,1105.472 514.603999,1104.692 514.788,1103.964 C514.900001,1103.54 515.155998,1102.80401 515.556,1101.756 C516.004002,1100.60399 516.367999,1099.552 516.648,1098.6 C516.608,1098.576 516.432002,1098.524 516.12,1098.444 C515.879999,1098.372 515.756,1098.308 515.748,1098.252 C515.732,1098.108 515.76,1097.916 515.832,1097.676 C515.936001,1097.316 515.988,1097.116 515.988,1097.076 C515.996,1097.076 516.187998,1097.004 516.564,1096.86 C516.820001,1096.764 516.98,1096.672 517.044,1096.584 C517.164001,1096.392 517.287999,1096.204 517.416,1096.02 C517.560001,1095.86 517.783998,1095.78 518.088,1095.78 C518.136,1095.78 518.365998,1095.808 518.778,1095.864 C519.190002,1095.92 519.428,1095.948 519.492,1095.948 C519.564,1095.948 519.807998,1095.868 520.224,1095.708 C520.736003,1095.508 521.171998,1095.36 521.532,1095.264 C522.132003,1095.104 522.691997,1095.024 523.212,1095.024 C523.836003,1095.024 524.399997,1095.18 524.904,1095.492 C525.528003,1095.876 525.84,1096.416 525.84,1097.112 Z M538.748,1099.896 C538.668,1100.32 538.584,1100.592 538.496,1100.712 C538.408,1100.832 538.260001,1100.892 538.052,1100.892 C538.004,1100.892 537.904001,1100.888 537.752,1100.88 C537.599999,1100.872 537.472001,1100.868 537.368,1100.868 C537.384,1100.868 537.240002,1100.884 536.936,1100.916 C536.687999,1100.94 536.516,1100.94 536.42,1100.916 L536.276,1102.044 C536.163999,1102.82 536.016001,1103.44 535.832,1103.904 C535.575999,1104.56 535.264002,1104.888 534.896,1104.888 C534.351997,1104.888 534.08,1104.24401 534.08,1102.956 C534.08,1102.636 534.098,1102.274 534.134,1101.87 C534.17,1101.466 534.188,1101.276 534.188,1101.3 C534.172,1101.284 534.166,1101.25 534.17,1101.198 C534.174,1101.146 534.148,1101.12 534.092,1101.12 C533.923999,1101.12 533.456004,1101.172 532.688,1101.276 C531.727995,1101.412 530.992003,1101.556 530.48,1101.708 C530.44,1101.716 530.288001,1101.9 530.024,1102.26 C529.711998,1102.684 529.528,1102.928 529.472,1102.992 L528.536,1104.24 C528.183998,1104.672 527.788002,1104.888 527.348,1104.888 C526.699997,1104.888 526.376,1104.584 526.376,1103.976 C526.376,1103.464 527.635987,1102.05201 530.156,1099.74 C531.652007,1098.41999 533.143993,1097.10001 534.632,1095.78 C534.784001,1095.652 535.011998,1095.544 535.316,1095.456 C535.596001,1095.384 535.855999,1095.348 536.096,1095.348 C536.496002,1095.348 536.747999,1095.496 536.852,1095.792 C536.9,1095.92 536.924,1096.212 536.924,1096.668 L536.684,1099.644 L538.352,1099.644 C538.520001,1099.636 538.652,1099.72 538.748,1099.896 Z M534.272,1099.572 L534.176,1098.66 C534.136,1098.284 534.040001,1098.024 533.888,1097.88 C533.591999,1098.096 533.240002,1098.444 532.832,1098.924 C532.527998,1099.3 532.224002,1099.672 531.92,1100.04 L534.272,1099.572 Z M468.124,1120.488 C468.124,1121.176 467.656005,1121.776 466.72,1122.288 C466.023997,1122.672 465.116006,1122.984 463.996,1123.224 C463.171996,1123.4 462.568002,1123.488 462.184,1123.488 C462.031999,1123.488 461.728002,1123.436 461.272,1123.332 C460.743997,1123.212 460.320002,1123.084 460,1122.948 L460,1122.432 C459.992,1121.984 460.203998,1121.592 460.636,1121.256 L463.936,1121.58 C464.808004,1121.548 465.623996,1121.3 466.384,1120.836 L466.384,1120.572 C465.895998,1119.956 465.004006,1119.56 463.708,1119.384 C462.684,1119.256 461.664005,1119.128 460.648,1119 C459.671995,1118.744 459.184,1118.172 459.184,1117.284 C459.184,1116.716 459.591996,1116.08 460.408,1115.376 C461.096003,1114.792 461.931995,1114.26 462.916,1113.78 C463.836005,1113.34 464.507998,1113.12 464.932,1113.12 C465.524003,1113.12 465.86,1113.128 465.94,1113.144 C466.268002,1113.224 466.416,1113.444 466.384,1113.804 C466.344,1114.26 465.924004,1114.624 465.124,1114.896 C464.363996,1115.128 463.608004,1115.36 462.856,1115.592 C462.031996,1115.936 461.576,1116.416 461.488,1117.032 C462.312004,1117.152 463.131996,1117.272 463.948,1117.392 C465.180006,1117.584 466.123997,1117.868 466.78,1118.244 C467.676004,1118.772 468.124,1119.52 468.124,1120.488 Z M471.144,1121.328 C471.184,1121.504 471.084,1121.672 470.844,1121.832 C470.651999,1121.96 470.496001,1122.024 470.376,1122.024 C470.231999,1122.024 470.078001,1121.974 469.914,1121.874 C469.749999,1121.774 469.64,1121.656 469.584,1121.52 L469.608,1121.004 C469.736001,1120.684 469.951998,1120.524 470.256,1120.524 C470.352,1120.524 470.451999,1120.544 470.556,1120.584 L470.892,1120.86 L471.144,1121.328 Z M489.58,1121.196 C489.58,1121.308 489.260003,1121.5 488.62,1121.772 C487.915996,1122.076 487.136004,1122.328 486.28,1122.528 C485.231995,1122.784 484.260004,1122.912 483.364,1122.912 C481.539991,1122.912 480.628,1121.98401 480.628,1120.128 C480.628,1119.336 481.023996,1118.39201 481.816,1117.296 C482.568004,1116.26399 483.455995,1115.368 484.48,1114.608 C485.552005,1113.808 486.459996,1113.408 487.204,1113.408 C487.660002,1113.408 488.099998,1113.524 488.524,1113.756 C489.020002,1114.028 489.268,1114.376 489.268,1114.8 C489.268,1115.152 489.088002,1115.576 488.728,1116.072 C488.351998,1116.6 487.988002,1116.864 487.636,1116.864 C487.459999,1116.864 487.332,1116.692 487.252,1116.348 C487.131999,1115.796 487.06,1115.492 487.036,1115.436 C486.899999,1115.116 486.664002,1114.98 486.328,1115.028 C485.831998,1115.092 484.976006,1115.73999 483.76,1116.972 C482.519994,1118.22801 481.9,1119.12 481.9,1119.648 C481.9,1120.184 482.187997,1120.588 482.764,1120.86 C483.188002,1121.068 483.663997,1121.172 484.192,1121.172 C484.440001,1121.172 484.715998,1121.112 485.02,1120.992 C485.396002,1120.832 485.584,1120.64 485.584,1120.416 C485.584,1120.408 485.588,1120.352 485.596,1120.248 C485.604,1120.168 485.604,1120.1 485.596,1120.044 C485.588,1119.972 485.574,1119.93 485.554,1119.918 C485.534,1119.906 485.196003,1119.816 484.54,1119.648 C484.043998,1119.52 483.796,1119.36 483.796,1119.168 C483.796,1118.648 484.591992,1118.388 486.184,1118.388 L486.592,1118.388 C486.728001,1118.396 486.788,1118.4 486.772,1118.4 C487.716005,1118.4 488.359998,1118.568 488.704,1118.904 C489.080002,1119.256 489.371999,1120.01999 489.58,1121.196 Z M499.044,1113.612 C499.044,1114.084 498.780003,1114.97999 498.252,1116.3 C497.643997,1117.83601 496.96,1119.11199 496.2,1120.128 C495.239995,1121.42401 494.292005,1122.072 493.356,1122.072 C492.715997,1122.072 492.212002,1121.52401 491.844,1120.428 C491.587999,1119.676 491.46,1119.024 491.46,1118.472 C491.46,1118.392 491.531999,1117.65601 491.676,1116.264 C491.836001,1114.71199 491.94,1113.58 491.988,1112.868 C492.012,1112.868 492.091999,1112.844 492.228,1112.796 C492.364001,1112.748 492.487999,1112.724 492.6,1112.724 C493.104003,1112.724 493.507998,1112.87 493.812,1113.162 C494.116002,1113.454 494.268,1113.836 494.268,1114.308 C494.268,1114.412 494.064002,1115.30599 493.656,1116.99 C493.247998,1118.67401 493.044,1119.568 493.044,1119.672 C493.044,1119.912 493.072,1120.072 493.128,1120.152 C493.2,1120.256 493.339999,1120.308 493.548,1120.308 C494.140003,1120.308 494.775997,1119.66801 495.456,1118.388 C495.944002,1117.484 496.443997,1116.26801 496.956,1114.74 L497.676,1112.484 L498.372,1112.484 C498.820002,1112.924 499.044,1113.3 499.044,1113.612 Z M509.132,1117.356 C508.203995,1117.556 506.892008,1117.752 505.196,1117.944 C504.091994,1118.064 503.348002,1118.252 502.964,1118.508 C502.467998,1118.836 502.112001,1119.492 501.896,1120.476 C502.040001,1120.556 502.339998,1120.596 502.796,1120.596 C502.892,1120.596 503.487995,1120.398 504.584,1120.002 C505.680005,1119.606 506.276,1119.408 506.372,1119.408 C506.660001,1119.408 506.867999,1119.44 506.996,1119.504 C507.220001,1119.6 507.435999,1119.82 507.644,1120.164 C507.307998,1120.788 506.432007,1121.404 505.016,1122.012 C503.663993,1122.588 502.536005,1122.876 501.632,1122.876 C501.007997,1122.876 500.552001,1122.768 500.264,1122.552 C499.935998,1122.296 499.772,1121.864 499.772,1121.256 C499.772,1120.472 500.135996,1119.03201 500.864,1116.936 C501.552003,1114.95199 502.015999,1113.856 502.256,1113.648 C502.528001,1113.4 503.319993,1113.276 504.632,1113.276 C505.312003,1113.276 505.743999,1113.3 505.928,1113.348 C506.328002,1113.444 506.703998,1113.704 507.056,1114.128 L506.864,1114.668 C506.655999,1114.7 506.384002,1114.716 506.048,1114.716 C505.976,1114.716 505.860001,1114.712 505.7,1114.704 L505.352,1114.704 C504.671997,1114.704 504.184001,1114.784 503.888,1114.944 C503.455998,1115.168 503.24,1115.592 503.24,1116.216 L503.228,1116.72 C503.708002,1116.728 504.511994,1116.688 505.64,1116.6 C506.824006,1116.512 507.603998,1116.468 507.98,1116.468 C508.276001,1116.468 508.553999,1116.528 508.814,1116.648 C509.074001,1116.768 509.204,1116.924 509.204,1117.116 C509.204,1117.196 509.18,1117.276 509.132,1117.356 Z M520.96,1115.112 C520.96,1115.608 520.600004,1116.016 519.88,1116.336 C519.359997,1116.568 518.676004,1116.744 517.828,1116.864 C517.419998,1116.904 517.016002,1116.944 516.616,1116.984 C517.088002,1117.24 517.559998,1117.492 518.032,1117.74 C518.736004,1118.132 519.275998,1118.496 519.652,1118.832 C520.164003,1119.296 520.42,1119.748 520.42,1120.188 C520.42,1120.38 520.388,1120.552 520.324,1120.704 C520.236,1120.904 520.112001,1121.004 519.952,1121.004 C519.872,1121.004 519.636002,1120.784 519.244,1120.344 C518.851998,1119.904 518.612,1119.672 518.524,1119.648 L515.044,1118.76 C514.859999,1118.76 514.584002,1118.712 514.216,1118.616 C513.735998,1118.48 513.496,1118.324 513.496,1118.148 C513.496,1117.58 513.959995,1117.084 514.888,1116.66 C515.144001,1116.548 515.671996,1116.376 516.472,1116.144 C516.920002,1116.008 517.259999,1115.896 517.492,1115.808 C517.996003,1115.608 518.343999,1115.404 518.536,1115.196 C518.488,1115.06 518.304002,1114.992 517.984,1114.992 C517.367997,1114.992 516.524005,1115.14 515.452,1115.436 C514.283994,1115.764 513.636001,1116.076 513.508,1116.372 C513.179998,1117.092 512.660004,1118.26799 511.948,1119.9 C511.835999,1120.164 511.720001,1120.644 511.6,1121.34 C511.56,1121.644 511.52,1121.944 511.48,1122.24 C511.367999,1122.864 511.220001,1123.368 511.036,1123.752 C510.779999,1124.28 510.464002,1124.544 510.088,1124.544 C509.983999,1124.544 509.848001,1124.464 509.68,1124.304 C509.648,1123.472 509.723999,1122.692 509.908,1121.964 C510.020001,1121.54 510.275998,1120.80401 510.676,1119.756 C511.124002,1118.60399 511.487999,1117.552 511.768,1116.6 C511.728,1116.576 511.552002,1116.524 511.24,1116.444 C510.999999,1116.372 510.876,1116.308 510.868,1116.252 C510.852,1116.108 510.88,1115.916 510.952,1115.676 C511.056001,1115.316 511.108,1115.116 511.108,1115.076 C511.116,1115.076 511.307998,1115.004 511.684,1114.86 C511.940001,1114.764 512.1,1114.672 512.164,1114.584 C512.284001,1114.392 512.407999,1114.204 512.536,1114.02 C512.680001,1113.86 512.903998,1113.78 513.208,1113.78 C513.256,1113.78 513.485998,1113.808 513.898,1113.864 C514.310002,1113.92 514.548,1113.948 514.612,1113.948 C514.684,1113.948 514.927998,1113.868 515.344,1113.708 C515.856003,1113.508 516.291998,1113.36 516.652,1113.264 C517.252003,1113.104 517.811997,1113.024 518.332,1113.024 C518.956003,1113.024 519.519997,1113.18 520.024,1113.492 C520.648003,1113.876 520.96,1114.416 520.96,1115.112 Z M533.544,1115.112 C533.544,1115.608 533.184004,1116.016 532.464,1116.336 C531.943997,1116.568 531.260004,1116.744 530.412,1116.864 C530.003998,1116.904 529.600002,1116.944 529.2,1116.984 C529.672002,1117.24 530.143998,1117.492 530.616,1117.74 C531.320004,1118.132 531.859998,1118.496 532.236,1118.832 C532.748003,1119.296 533.004,1119.748 533.004,1120.188 C533.004,1120.38 532.972,1120.552 532.908,1120.704 C532.82,1120.904 532.696001,1121.004 532.536,1121.004 C532.456,1121.004 532.220002,1120.784 531.828,1120.344 C531.435998,1119.904 531.196,1119.672 531.108,1119.648 L527.628,1118.76 C527.443999,1118.76 527.168002,1118.712 526.8,1118.616 C526.319998,1118.48 526.08,1118.324 526.08,1118.148 C526.08,1117.58 526.543995,1117.084 527.472,1116.66 C527.728001,1116.548 528.255996,1116.376 529.056,1116.144 C529.504002,1116.008 529.843999,1115.896 530.076,1115.808 C530.580003,1115.608 530.927999,1115.404 531.12,1115.196 C531.072,1115.06 530.888002,1114.992 530.568,1114.992 C529.951997,1114.992 529.108005,1115.14 528.036,1115.436 C526.867994,1115.764 526.220001,1116.076 526.092,1116.372 C525.763998,1117.092 525.244004,1118.26799 524.532,1119.9 C524.419999,1120.164 524.304001,1120.644 524.184,1121.34 C524.144,1121.644 524.104,1121.944 524.064,1122.24 C523.951999,1122.864 523.804001,1123.368 523.62,1123.752 C523.363999,1124.28 523.048002,1124.544 522.672,1124.544 C522.567999,1124.544 522.432001,1124.464 522.264,1124.304 C522.232,1123.472 522.307999,1122.692 522.492,1121.964 C522.604001,1121.54 522.859998,1120.80401 523.26,1119.756 C523.708002,1118.60399 524.071999,1117.552 524.352,1116.6 C524.312,1116.576 524.136002,1116.524 523.824,1116.444 C523.583999,1116.372 523.46,1116.308 523.452,1116.252 C523.436,1116.108 523.464,1115.916 523.536,1115.676 C523.640001,1115.316 523.692,1115.116 523.692,1115.076 C523.7,1115.076 523.891998,1115.004 524.268,1114.86 C524.524001,1114.764 524.684,1114.672 524.748,1114.584 C524.868001,1114.392 524.991999,1114.204 525.12,1114.02 C525.264001,1113.86 525.487998,1113.78 525.792,1113.78 C525.84,1113.78 526.069998,1113.808 526.482,1113.864 C526.894002,1113.92 527.132,1113.948 527.196,1113.948 C527.268,1113.948 527.511998,1113.868 527.928,1113.708 C528.440003,1113.508 528.875998,1113.36 529.236,1113.264 C529.836003,1113.104 530.395997,1113.024 530.916,1113.024 C531.540003,1113.024 532.103997,1113.18 532.608,1113.492 C533.232003,1113.876 533.544,1114.416 533.544,1115.112 Z M546.452,1117.896 C546.372,1118.32 546.288,1118.592 546.2,1118.712 C546.112,1118.832 545.964001,1118.892 545.756,1118.892 C545.708,1118.892 545.608001,1118.888 545.456,1118.88 C545.303999,1118.872 545.176001,1118.868 545.072,1118.868 C545.088,1118.868 544.944002,1118.884 544.64,1118.916 C544.391999,1118.94 544.22,1118.94 544.124,1118.916 L543.98,1120.044 C543.867999,1120.82 543.720001,1121.44 543.536,1121.904 C543.279999,1122.56 542.968002,1122.888 542.6,1122.888 C542.055997,1122.888 541.784,1122.24401 541.784,1120.956 C541.784,1120.636 541.802,1120.274 541.838,1119.87 C541.874,1119.466 541.892,1119.276 541.892,1119.3 C541.876,1119.284 541.87,1119.25 541.874,1119.198 C541.878,1119.146 541.852,1119.12 541.796,1119.12 C541.627999,1119.12 541.160004,1119.172 540.392,1119.276 C539.431995,1119.412 538.696003,1119.556 538.184,1119.708 C538.144,1119.716 537.992001,1119.9 537.728,1120.26 C537.415998,1120.684 537.232,1120.928 537.176,1120.992 L536.24,1122.24 C535.887998,1122.672 535.492002,1122.888 535.052,1122.888 C534.403997,1122.888 534.08,1122.584 534.08,1121.976 C534.08,1121.464 535.339987,1120.05201 537.86,1117.74 C539.356007,1116.41999 540.847993,1115.10001 542.336,1113.78 C542.488001,1113.652 542.715998,1113.544 543.02,1113.456 C543.300001,1113.384 543.559999,1113.348 543.8,1113.348 C544.200002,1113.348 544.451999,1113.496 544.556,1113.792 C544.604,1113.92 544.628,1114.212 544.628,1114.668 L544.388,1117.644 L546.056,1117.644 C546.224001,1117.636 546.356,1117.72 546.452,1117.896 Z M541.976,1117.572 C541.944,1117.268 541.912,1116.964 541.88,1116.66 C541.84,1116.284 541.744001,1116.024 541.592,1115.88 C541.295999,1116.096 540.944002,1116.444 540.536,1116.924 C540.231998,1117.3 539.928002,1117.672 539.624,1118.04 L541.976,1117.572 Z" id="SANDRAS.GUERRA"></path>
        </g>
    </g>
</svg>