<?xml version="1.0" encoding="UTF-8"?>
<svg width="73px" height="31px" viewBox="0 0 73 31" version="1.1" xmlns="http://www.w3.org/2000/svg" xmlns:xlink="http://www.w3.org/1999/xlink">
    <!-- Generator: Sketch 56.2 (81672) - https://sketch.com -->
    <title>Group 23</title>
    <desc>Created with Sketch.</desc>
    <g id="Welcome" stroke="none" stroke-width="1" fill="none" fill-rule="evenodd">
        <g id="Friends" transform="translate(-1030.000000, -1094.000000)">
            <g id="Group-23" transform="translate(1030.000000, 1091.000000)">
                <path d="M9.328,11.488 C9.328,12.1760034 8.86000468,12.7759974 7.924,13.288 C7.22799652,13.6720019 6.3200056,13.9839988 5.2,14.224 C4.37599588,14.4000009 3.77200192,14.488 3.388,14.488 C3.23599924,14.488 2.93200228,14.4360005 2.476,14.332 C1.94799736,14.2119994 1.5240016,14.0840007 1.204,13.948 L1.204,13.432 C1.19599996,12.9839978 1.40799784,12.5920017 1.84,12.256 L5.14,12.58 C6.01200436,12.5479998 6.8279962,12.3000023 7.588,11.836 L7.588,11.572 C7.09999756,10.9559969 6.20800648,10.5600009 4.912,10.384 C3.888,10.2559994 2.86800508,10.1280006 1.852,10 C0.87599512,9.74399872 0.388,9.17200444 0.388,8.284 C0.388,7.71599716 0.79599592,7.08000352 1.612,6.376 C2.30000344,5.79199708 3.13599508,5.2600024 4.12,4.78 C5.0400046,4.3399978 5.71199788,4.12 6.136,4.12 C6.72800296,4.12 7.0639996,4.12799992 7.144,4.144 C7.47200164,4.2240004 7.62000016,4.4439982 7.588,4.804 C7.5479998,5.26000228 7.128004,5.62399864 6.328,5.896 C5.5679962,6.12800116 4.81200376,6.35999884 4.06,6.592 C3.23599588,6.93600172 2.78000044,7.41599692 2.692,8.032 C3.51600412,8.1520006 4.33599592,8.2719994 5.152,8.392 C6.38400616,8.58400096 7.32799672,8.86799812 7.984,9.244 C8.88000448,9.77200264 9.328,10.5199952 9.328,11.488 Z M22.236,8.896 C22.1559996,9.32000212 22.0720004,9.5919994 21.984,9.712 C21.8959996,9.8320006 21.748001,9.892 21.54,9.892 C21.4919998,9.892 21.3920008,9.88800004 21.24,9.88 C21.0879992,9.87199996 20.9600005,9.868 20.856,9.868 C20.8720001,9.868 20.7280015,9.88399984 20.424,9.916 C20.1759988,9.94000012 20.0040005,9.94000012 19.908,9.916 L19.764,11.044 C19.6519994,11.8200039 19.5040009,12.4399977 19.32,12.904 C19.0639987,13.5600033 18.7520018,13.888 18.384,13.888 C17.8399973,13.888 17.568,13.2440064 17.568,11.956 C17.568,11.6359984 17.5859998,11.274002 17.622,10.87 C17.6580002,10.465998 17.676,10.2759999 17.676,10.3 C17.6599999,10.2839999 17.654,10.2500003 17.658,10.198 C17.662,10.1459997 17.6360003,10.12 17.58,10.12 C17.4119992,10.12 16.9440038,10.1719995 16.176,10.276 C15.2159952,10.4120007 14.4800026,10.5559992 13.968,10.708 C13.9279998,10.716 13.7760013,10.8999982 13.512,11.26 C13.1999984,11.6840021 13.0160003,11.9279997 12.96,11.992 L12.024,13.24 C11.6719982,13.6720022 11.2760022,13.888 10.836,13.888 C10.1879968,13.888 9.864,13.584003 9.864,12.976 C9.864,12.4639974 11.1239874,11.0520116 13.644,8.74 C15.1400075,7.4199934 16.6319926,6.1000066 18.12,4.78 C18.2720008,4.65199936 18.4999985,4.54400044 18.804,4.456 C19.0840014,4.38399964 19.3439988,4.348 19.584,4.348 C19.984002,4.348 20.2359995,4.49599852 20.34,4.792 C20.3880002,4.92000064 20.412,5.21199772 20.412,5.668 L20.172,8.644 L21.84,8.644 C22.0080008,8.63599996 22.1399995,8.71999912 22.236,8.896 Z M17.76,8.572 L17.664,7.66 C17.6239998,7.28399812 17.5280008,7.02400072 17.376,6.88 C17.0799985,7.09600108 16.728002,7.4439976 16.32,7.924 C16.0159985,8.30000188 15.7120015,8.67199816 15.408,9.04 L17.76,8.572 Z M35.132,4.12 C35.132,4.45600168 34.832003,5.323993 34.232,6.724 C33.5839968,8.2440076 32.9280033,9.5439946 32.264,10.624 C31.4399959,11.9600067 30.7800025,12.628 30.284,12.628 C29.8439978,12.628 29.3800024,12.2160041 28.892,11.392 C28.5399982,10.799997 28.1800018,10.004005 27.812,9.004 L27.284,7.492 C26.7959976,8.52400516 26.2600029,10.0959894 25.676,12.208 C25.6359998,12.3760008 25.4780014,12.5519991 25.202,12.736 C24.9259986,12.9200009 24.7160007,13.012 24.572,13.012 C24.2119982,13.012 23.936001,12.8480016 23.744,12.52 C23.5999993,12.2799988 23.528,12.0160014 23.528,11.728 C23.528,11.3039979 23.5999993,10.9160018 23.744,10.564 C24.1120018,9.67599556 24.7279957,8.44000792 25.592,6.856 C26.1120026,5.8959952 26.5999977,5.1760024 27.056,4.696 C27.1200003,4.63199968 27.2759988,4.58400016 27.524,4.552 C27.8840018,4.50399976 28.0959997,4.47200008 28.16,4.456 C29.0320044,5.87200708 29.5879988,7.81198768 29.828,10.276 C29.9320005,10.3720005 30.0959989,10.523999 30.32,10.732 C30.7840023,9.92399596 31.3599966,8.69600824 32.048,7.048 C32.4880022,6.0079948 32.7759993,5.35600132 32.912,5.092 C33.520003,3.9719944 34.0999972,3.412 34.652,3.412 C34.8920012,3.412 35.0439997,3.511999 35.108,3.712 C35.1240001,3.76000024 35.132,3.89599888 35.132,4.12 Z M48.412,6.892 C48.412,7.87600492 47.6440077,8.85999508 46.108,9.844 C45.0119945,10.5560036 43.5800088,11.2279968 41.812,11.86 C41.7639998,11.8760001 40.9880075,12.1239976 39.484,12.604 C39.0119976,12.7560008 38.3600042,13.0039983 37.528,13.348 C37.0719977,13.5320009 36.6840016,13.624 36.364,13.624 C36.0439984,13.624 35.8360005,13.5640006 35.74,13.444 C35.6679996,13.3479995 35.632,13.1600014 35.632,12.88 C35.632,12.279997 35.827998,11.3380064 36.22,10.054 C36.612002,8.76999358 36.808,7.86000268 36.808,7.324 C36.808,7.01199844 36.7640004,6.73200124 36.676,6.484 C36.7640004,6.34799932 36.9279988,6.28 37.168,6.28 C37.2880006,6.28 37.4199993,6.2999998 37.564,6.34 C37.6840006,6.1799992 37.7839996,5.89200208 37.864,5.476 C37.9440004,5.00399764 38.0199996,4.69600072 38.092,4.552 C38.2360007,4.25599852 38.4679984,4.108 38.788,4.108 C38.8760004,4.108 38.9759994,4.11999988 39.088,4.144 C39.2400008,4.25600056 39.316,4.43599876 39.316,4.684 L39.316,4.756 C39.316,4.93200088 39.3359998,5.07599944 39.376,5.188 C40.5200057,4.59599704 41.3159978,4.24400056 41.764,4.132 C42.0680015,4.05999964 42.7319949,4.024 43.756,4.024 C44.9880062,4.024 45.9399966,4.14799876 46.612,4.396 C47.812006,4.82800216 48.412,5.65999384 48.412,6.892 Z M46.912,7.24 C46.912,6.60799684 46.3880052,6.12000172 45.34,5.776 C44.6039963,5.5359988 43.8960034,5.416 43.216,5.416 C42.1359946,5.416 41.1560044,5.64399772 40.276,6.1 C39.9799985,6.25200076 39.6800015,6.40399924 39.376,6.556 C39.0239982,6.756001 38.8240002,6.90399952 38.776,7 C38.4879986,7.56800284 38.2240012,8.3119954 37.984,9.232 L37.408,11.536 C38.6240061,11.1919983 40.4159882,10.6640036 42.784,9.952 C45.5360138,9.0719956 46.912,8.16800464 46.912,7.24 Z M59.34,6.112 C59.34,6.60800248 58.9800036,7.0159984 58.26,7.336 C57.7399974,7.56800116 57.0560042,7.7439994 56.208,7.864 C55.799998,7.9040002 55.396002,7.9439998 54.996,7.984 C55.4680024,8.24000128 55.9399976,8.49199876 56.412,8.74 C57.1160035,9.13200196 57.6559981,9.49599832 58.032,9.832 C58.5440026,10.2960023 58.8,10.7479978 58.8,11.188 C58.8,11.380001 58.7680003,11.5519992 58.704,11.704 C58.6159996,11.904001 58.4920008,12.004 58.332,12.004 C58.2519996,12.004 58.016002,11.7840022 57.624,11.344 C57.231998,10.9039978 56.9920004,10.6720001 56.904,10.648 L53.424,9.76 C53.2399991,9.76 52.9640018,9.71200048 52.596,9.616 C52.1159976,9.47999932 51.876,9.32400088 51.876,9.148 C51.876,8.57999716 52.3399954,8.08400212 53.268,7.66 C53.5240013,7.54799944 54.051996,7.37600116 54.852,7.144 C55.3000022,7.00799932 55.6399988,6.89600044 55.872,6.808 C56.3760025,6.607999 56.723999,6.40400104 56.916,6.196 C56.8679998,6.05999932 56.6840016,5.992 56.364,5.992 C55.7479969,5.992 54.9040054,6.13999852 53.832,6.436 C52.6639942,6.76400164 52.0160006,7.07599852 51.888,7.372 C51.5599984,8.0920036 51.0400036,9.26799184 50.328,10.9 C50.2159994,11.1640013 50.1000006,11.6439965 49.98,12.34 C49.9399998,12.6440015 49.9000002,12.9439985 49.86,13.24 C49.7479994,13.8640031 49.6000009,14.3679981 49.416,14.752 C49.1599987,15.2800026 48.8440019,15.544 48.468,15.544 C48.3639995,15.544 48.2280008,15.4640008 48.06,15.304 C48.0279998,14.4719958 48.1039991,13.6920036 48.288,12.964 C48.4000006,12.5399979 48.655998,11.8040052 49.056,10.756 C49.5040022,9.60399424 49.8679986,8.55200476 50.148,7.6 C50.1079998,7.57599988 49.9320016,7.524 49.62,7.444 C49.3799988,7.37199964 49.256,7.30800028 49.248,7.252 C49.2319999,7.10799928 49.2599996,6.9160012 49.332,6.676 C49.4360005,6.3159982 49.488,6.1160002 49.488,6.076 C49.496,6.076 49.6879981,6.00400072 50.064,5.86 C50.3200013,5.76399952 50.4799997,5.67200044 50.544,5.584 C50.6640006,5.39199904 50.7879994,5.20400092 50.916,5.02 C51.0600007,4.8599992 51.2839985,4.78 51.588,4.78 C51.6360002,4.78 51.8659979,4.80799972 52.278,4.864 C52.6900021,4.92000028 52.9279997,4.948 52.992,4.948 C53.0640004,4.948 53.3079979,4.8680008 53.724,4.708 C54.2360026,4.507999 54.6719982,4.36000048 55.032,4.264 C55.632003,4.1039992 56.1919974,4.024 56.712,4.024 C57.3360031,4.024 57.8999975,4.17999844 58.404,4.492 C59.0280031,4.87600192 59.34,5.41599652 59.34,6.112 Z M72.248,8.896 C72.1679996,9.32000212 72.0840004,9.5919994 71.996,9.712 C71.9079996,9.8320006 71.760001,9.892 71.552,9.892 C71.5039998,9.892 71.4040008,9.88800004 71.252,9.88 C71.0999992,9.87199996 70.9720005,9.868 70.868,9.868 C70.8840001,9.868 70.7400015,9.88399984 70.436,9.916 C70.1879988,9.94000012 70.0160005,9.94000012 69.92,9.916 L69.776,11.044 C69.6639994,11.8200039 69.5160009,12.4399977 69.332,12.904 C69.0759987,13.5600033 68.7640018,13.888 68.396,13.888 C67.8519973,13.888 67.58,13.2440064 67.58,11.956 C67.58,11.6359984 67.5979998,11.274002 67.634,10.87 C67.6700002,10.465998 67.688,10.2759999 67.688,10.3 C67.6719999,10.2839999 67.666,10.2500003 67.67,10.198 C67.674,10.1459997 67.6480003,10.12 67.592,10.12 C67.4239992,10.12 66.9560038,10.1719995 66.188,10.276 C65.2279952,10.4120007 64.4920026,10.5559992 63.98,10.708 C63.9399998,10.716 63.7880013,10.8999982 63.524,11.26 C63.2119984,11.6840021 63.0280003,11.9279997 62.972,11.992 L62.036,13.24 C61.6839982,13.6720022 61.2880022,13.888 60.848,13.888 C60.1999968,13.888 59.876,13.584003 59.876,12.976 C59.876,12.4639974 61.1359874,11.0520116 63.656,8.74 C65.1520075,7.4199934 66.6439926,6.1000066 68.132,4.78 C68.2840008,4.65199936 68.5119985,4.54400044 68.816,4.456 C69.0960014,4.38399964 69.3559988,4.348 69.596,4.348 C69.996002,4.348 70.2479995,4.49599852 70.352,4.792 C70.4000002,4.92000064 70.424,5.21199772 70.424,5.668 L70.184,8.644 L71.852,8.644 C72.0200008,8.63599996 72.1519995,8.71999912 72.248,8.896 Z M67.772,8.572 L67.676,7.66 C67.6359998,7.28399812 67.5400008,7.02400072 67.388,6.88 C67.0919985,7.09600108 66.740002,7.4439976 66.332,7.924 C66.0279985,8.30000188 65.7240015,8.67199816 65.42,9.04 L67.772,8.572 Z M12.076,30.196 C12.076,30.3080006 11.7560032,30.4999986 11.116,30.772 C10.4119965,31.0760015 9.63200428,31.327999 8.776,31.528 C7.72799476,31.7840013 6.75600448,31.912 5.86,31.912 C4.03599088,31.912 3.124,30.9840093 3.124,29.128 C3.124,28.335996 3.51999604,27.3920055 4.312,26.296 C5.06400376,25.2639948 5.95199488,24.3680038 6.976,23.608 C8.04800536,22.807996 8.95599628,22.408 9.7,22.408 C10.1560023,22.408 10.5959979,22.5239988 11.02,22.756 C11.5160025,23.0280014 11.764,23.3759979 11.764,23.8 C11.764,24.1520018 11.5840018,24.5759975 11.224,25.072 C10.8479981,25.6000026 10.4840018,25.864 10.132,25.864 C9.95599912,25.864 9.8280004,25.6920017 9.748,25.348 C9.6279994,24.7959972 9.55600012,24.4920003 9.532,24.436 C9.39599932,24.1159984 9.16000168,23.9799998 8.824,24.028 C8.32799752,24.0920003 7.47200608,24.7399938 6.256,25.972 C5.0159938,27.2280063 4.396,28.1199974 4.396,28.648 C4.396,29.1840027 4.68399712,29.5879986 5.26,29.86 C5.68400212,30.068001 6.15999736,30.172 6.688,30.172 C6.93600124,30.172 7.21199848,30.1120006 7.516,29.992 C7.89200188,29.8319992 8.08,29.6400011 8.08,29.416 C8.08,29.408 8.08399996,29.3520005 8.092,29.248 C8.10000004,29.1679996 8.10000004,29.1000003 8.092,29.044 C8.08399996,28.9719996 8.0700001,28.9300001 8.05,28.918 C8.0299999,28.9059999 7.69200328,28.8160008 7.036,28.648 C6.53999752,28.5199994 6.292,28.360001 6.292,28.168 C6.292,27.6479974 7.08799204,27.388 8.68,27.388 L9.088,27.388 C9.22400068,27.396 9.28400008,27.4 9.268,27.4 C10.2120047,27.4 10.8559983,27.5679983 11.2,27.904 C11.5760019,28.2560018 11.867999,29.0199941 12.076,30.196 Z M25.644,26.896 C25.5639996,27.3200021 25.4800004,27.5919994 25.392,27.712 C25.3039996,27.8320006 25.156001,27.892 24.948,27.892 C24.8999998,27.892 24.8000008,27.888 24.648,27.88 C24.4959992,27.872 24.3680005,27.868 24.264,27.868 C24.2800001,27.868 24.1360015,27.8839998 23.832,27.916 C23.5839988,27.9400001 23.4120005,27.9400001 23.316,27.916 L23.172,29.044 C23.0599994,29.8200039 22.9120009,30.4399977 22.728,30.904 C22.4719987,31.5600033 22.1600018,31.888 21.792,31.888 C21.2479973,31.888 20.976,31.2440064 20.976,29.956 C20.976,29.6359984 20.9939998,29.274002 21.03,28.87 C21.0660002,28.465998 21.084,28.2759999 21.084,28.3 C21.0679999,28.2839999 21.062,28.2500003 21.066,28.198 C21.07,28.1459997 21.0440003,28.12 20.988,28.12 C20.8199992,28.12 20.3520038,28.1719995 19.584,28.276 C18.6239952,28.4120007 17.8880026,28.5559992 17.376,28.708 C17.3359998,28.716 17.1840013,28.8999982 16.92,29.26 C16.6079984,29.6840021 16.4240003,29.9279997 16.368,29.992 L15.432,31.24 C15.0799982,31.6720022 14.6840022,31.888 14.244,31.888 C13.5959968,31.888 13.272,31.584003 13.272,30.976 C13.272,30.4639974 14.5319874,29.0520116 17.052,26.74 C18.5480075,25.4199934 20.0399926,24.1000066 21.528,22.78 C21.6800008,22.6519994 21.9079985,22.5440004 22.212,22.456 C22.4920014,22.3839996 22.7519988,22.348 22.992,22.348 C23.392002,22.348 23.6439995,22.4959985 23.748,22.792 C23.7960002,22.9200006 23.82,23.2119977 23.82,23.668 L23.58,26.644 L25.248,26.644 C25.4160008,26.636 25.5479995,26.7199991 25.644,26.896 Z M21.168,26.572 L21.072,25.66 C21.0319998,25.2839981 20.9360008,25.0240007 20.784,24.88 C20.4879985,25.0960011 20.136002,25.4439976 19.728,25.924 C19.4239985,26.3000019 19.1200015,26.6719982 18.816,27.04 L21.168,26.572 Z M38.336,24.112 C38.336,24.6080025 37.9760036,25.0159984 37.256,25.336 C36.7359974,25.5680012 36.0520042,25.7439994 35.204,25.864 C34.795998,25.9040002 34.392002,25.9439998 33.992,25.984 C34.4640024,26.2400013 34.9359976,26.4919988 35.408,26.74 C36.1120035,27.132002 36.6519981,27.4959983 37.028,27.832 C37.5400026,28.2960023 37.796,28.7479978 37.796,29.188 C37.796,29.380001 37.7640003,29.5519992 37.7,29.704 C37.6119996,29.904001 37.4880008,30.004 37.328,30.004 C37.2479996,30.004 37.012002,29.7840022 36.62,29.344 C36.227998,28.9039978 35.9880004,28.6720001 35.9,28.648 L32.42,27.76 C32.2359991,27.76 31.9600018,27.7120005 31.592,27.616 C31.1119976,27.4799993 30.872,27.3240009 30.872,27.148 C30.872,26.5799972 31.3359954,26.0840021 32.264,25.66 C32.5200013,25.5479994 33.047996,25.3760012 33.848,25.144 C34.2960022,25.0079993 34.6359988,24.8960004 34.868,24.808 C35.3720025,24.607999 35.719999,24.404001 35.912,24.196 C35.8639998,24.0599993 35.6800016,23.992 35.36,23.992 C34.7439969,23.992 33.9000054,24.1399985 32.828,24.436 C31.6599942,24.7640016 31.0120006,25.0759985 30.884,25.372 C30.5559984,26.0920036 30.0360036,27.2679918 29.324,28.9 C29.2119994,29.1640013 29.0960006,29.6439965 28.976,30.34 C28.9359998,30.6440015 28.8960002,30.9439985 28.856,31.24 C28.7439994,31.8640031 28.5960009,32.3679981 28.412,32.752 C28.1559987,33.2800026 27.8400019,33.544 27.464,33.544 C27.3599995,33.544 27.2240008,33.4640008 27.056,33.304 C27.0239998,32.4719958 27.0999991,31.6920036 27.284,30.964 C27.3960006,30.5399979 27.651998,29.8040052 28.052,28.756 C28.5000022,27.6039942 28.8639986,26.5520048 29.144,25.6 C29.1039998,25.5759999 28.9280016,25.524 28.616,25.444 C28.3759988,25.3719996 28.252,25.3080003 28.244,25.252 C28.2279999,25.1079993 28.2559996,24.9160012 28.328,24.676 C28.4320005,24.3159982 28.484,24.1160002 28.484,24.076 C28.492,24.076 28.6839981,24.0040007 29.06,23.86 C29.3160013,23.7639995 29.4759997,23.6720004 29.54,23.584 C29.6600006,23.391999 29.7839994,23.2040009 29.912,23.02 C30.0560007,22.8599992 30.2799985,22.78 30.584,22.78 C30.6320002,22.78 30.8619979,22.8079997 31.274,22.864 C31.6860021,22.9200003 31.9239997,22.948 31.988,22.948 C32.0600004,22.948 32.3039979,22.8680008 32.72,22.708 C33.2320026,22.507999 33.6679982,22.3600005 34.028,22.264 C34.628003,22.1039992 35.1879974,22.024 35.708,22.024 C36.3320031,22.024 36.8959975,22.1799984 37.4,22.492 C38.0240031,22.8760019 38.336,23.4159965 38.336,24.112 Z M52.132,28.648 C52.132,28.7760006 51.828003,28.9719987 51.22,29.236 C47.7319826,30.7320075 44.98801,31.48 42.988,31.48 C42.0679954,31.48 41.3280028,31.3240016 40.768,31.012 C39.9999962,30.5799978 39.616,29.8800048 39.616,28.912 C39.616,28.0239956 40.2319938,26.9920059 41.464,25.816 C42.4960052,24.823995 43.7479926,23.9200041 45.22,23.104 C46.612007,22.3279961 47.616,21.94 48.232,21.94 C48.6880023,21.94 48.916,22.2199972 48.916,22.78 C48.916,23.0200012 48.9000002,23.1759996 48.868,23.248 C48.8279998,23.3680006 48.704001,23.5199991 48.496,23.704 C48.4399997,23.7520002 47.7440067,24.0879969 46.408,24.712 C45.0239931,25.3680033 43.9520038,25.991997 43.192,26.584 C42.0799944,27.4640044 41.524,28.3519955 41.524,29.248 C41.524,29.6880022 41.7959973,29.9999991 42.34,30.184 C42.6680016,30.2960006 43.0439979,30.352 43.468,30.352 C44.1480034,30.352 44.9439954,30.256001 45.856,30.064 C46.5840036,29.9039992 47.1119984,29.7560007 47.44,29.62 C48.0000028,29.3239985 48.8559942,28.9080027 50.008,28.372 C50.7760038,28.0599984 51.1759998,27.904 51.208,27.904 C51.3360006,27.904 51.5219988,27.9939991 51.766,28.174 C52.0100012,28.3540009 52.132,28.5119993 52.132,28.648 Z M56.316,22.264 C56.3560002,23.1680045 56.1520022,24.2039942 55.704,25.372 L54.504,28.324 C54.295999,28.924003 54.0720012,29.9439928 53.832,31.384 C53.6479991,31.5200007 53.4880007,31.588 53.352,31.588 C52.8239974,31.588 52.56,31.2080038 52.56,30.448 C52.56,29.7599966 52.6879987,29.0400038 52.944,28.288 C53.0640006,27.9199982 53.3919973,27.1060063 53.928,25.846 C54.4640027,24.5859937 54.9199981,23.4040055 55.296,22.3 C55.488001,22.1479992 55.683999,22.072 55.884,22.072 C56.0280007,22.072 56.1719993,22.1359994 56.316,22.264 Z M69.5,26.896 C69.4199996,27.3200021 69.3360004,27.5919994 69.248,27.712 C69.1599996,27.8320006 69.012001,27.892 68.804,27.892 C68.7559998,27.892 68.6560008,27.888 68.504,27.88 C68.3519992,27.872 68.2240005,27.868 68.12,27.868 C68.1360001,27.868 67.9920015,27.8839998 67.688,27.916 C67.4399988,27.9400001 67.2680005,27.9400001 67.172,27.916 L67.028,29.044 C66.9159994,29.8200039 66.7680009,30.4399977 66.584,30.904 C66.3279987,31.5600033 66.0160018,31.888 65.648,31.888 C65.1039973,31.888 64.832,31.2440064 64.832,29.956 C64.832,29.6359984 64.8499998,29.274002 64.886,28.87 C64.9220002,28.465998 64.94,28.2759999 64.94,28.3 C64.9239999,28.2839999 64.918,28.2500003 64.922,28.198 C64.926,28.1459997 64.9000003,28.12 64.844,28.12 C64.6759992,28.12 64.2080038,28.1719995 63.44,28.276 C62.4799952,28.4120007 61.7440026,28.5559992 61.232,28.708 C61.1919998,28.716 61.0400013,28.8999982 60.776,29.26 C60.4639984,29.6840021 60.2800003,29.9279997 60.224,29.992 L59.288,31.24 C58.9359982,31.6720022 58.5400022,31.888 58.1,31.888 C57.4519968,31.888 57.128,31.584003 57.128,30.976 C57.128,30.4639974 58.3879874,29.0520116 60.908,26.74 C62.4040075,25.4199934 63.8959926,24.1000066 65.384,22.78 C65.5360008,22.6519994 65.7639985,22.5440004 66.068,22.456 C66.3480014,22.3839996 66.6079988,22.348 66.848,22.348 C67.248002,22.348 67.4999995,22.4959985 67.604,22.792 C67.6520002,22.9200006 67.676,23.2119977 67.676,23.668 L67.436,26.644 L69.104,26.644 C69.2720008,26.636 69.4039995,26.7199991 69.5,26.896 Z M65.024,26.572 C64.9919998,26.2679985 64.9600002,25.9640015 64.928,25.66 C64.8879998,25.2839981 64.7920008,25.0240007 64.64,24.88 C64.3439985,25.0960011 63.992002,25.4439976 63.584,25.924 C63.2799985,26.3000019 62.9760015,26.6719982 62.672,27.04 L65.024,26.572 Z" id="SANDRAGARCIA" fill="#4C5796" fill-rule="nonzero"></path>
                <path d="M55.5,20.8826666 L58.9068302,17.788" id="Line-2" stroke="#4C5796" stroke-linecap="round"></path>
            </g>
        </g>
    </g>
</svg>