<?xml version="1.0" encoding="UTF-8"?>
<svg width="81px" height="31px" viewBox="0 0 81 31" version="1.1" xmlns="http://www.w3.org/2000/svg" xmlns:xlink="http://www.w3.org/1999/xlink">
    <!-- Generator: Sketch 56.2 (81672) - https://sketch.com -->
    <title>SANDRAESCOBAR</title>
    <desc>Created with Sketch.</desc>
    <g id="Welcome" stroke="none" stroke-width="1" fill="none" fill-rule="evenodd">
        <g id="Friends" transform="translate(-225.000000, -1094.000000)" fill="#4C5796" fill-rule="nonzero">
            <path d="M238.328,1102.488 C238.328,1103.176 237.860005,1103.776 236.924,1104.288 C236.227997,1104.672 235.320006,1104.984 234.2,1105.224 C233.375996,1105.4 232.772002,1105.488 232.388,1105.488 C232.235999,1105.488 231.932002,1105.436 231.476,1105.332 C230.947997,1105.212 230.524002,1105.084 230.204,1104.948 L230.204,1104.432 C230.196,1103.984 230.407998,1103.592 230.84,1103.256 L234.14,1103.58 C235.012004,1103.548 235.827996,1103.3 236.588,1102.836 L236.588,1102.572 C236.099998,1101.956 235.208006,1101.56 233.912,1101.384 C232.888,1101.256 231.868005,1101.128 230.852,1101 C229.875995,1100.744 229.388,1100.172 229.388,1099.284 C229.388,1098.716 229.795996,1098.08 230.612,1097.376 C231.300003,1096.792 232.135995,1096.26 233.12,1095.78 C234.040005,1095.34 234.711998,1095.12 235.136,1095.12 C235.728003,1095.12 236.064,1095.128 236.144,1095.144 C236.472002,1095.224 236.62,1095.444 236.588,1095.804 C236.548,1096.26 236.128004,1096.624 235.328,1096.896 C234.567996,1097.128 233.812004,1097.36 233.06,1097.592 C232.235996,1097.936 231.78,1098.416 231.692,1099.032 C232.516004,1099.152 233.335996,1099.272 234.152,1099.392 C235.384006,1099.584 236.327997,1099.868 236.984,1100.244 C237.880004,1100.772 238.328,1101.52 238.328,1102.488 Z M251.236,1099.896 C251.156,1100.32 251.072,1100.592 250.984,1100.712 C250.896,1100.832 250.748001,1100.892 250.54,1100.892 C250.492,1100.892 250.392001,1100.888 250.24,1100.88 C250.087999,1100.872 249.960001,1100.868 249.856,1100.868 C249.872,1100.868 249.728002,1100.884 249.424,1100.916 C249.175999,1100.94 249.004,1100.94 248.908,1100.916 L248.764,1102.044 C248.651999,1102.82 248.504001,1103.44 248.32,1103.904 C248.063999,1104.56 247.752002,1104.888 247.384,1104.888 C246.839997,1104.888 246.568,1104.24401 246.568,1102.956 C246.568,1102.636 246.586,1102.274 246.622,1101.87 C246.658,1101.466 246.676,1101.276 246.676,1101.3 C246.66,1101.284 246.654,1101.25 246.658,1101.198 C246.662,1101.146 246.636,1101.12 246.58,1101.12 C246.411999,1101.12 245.944004,1101.172 245.176,1101.276 C244.215995,1101.412 243.480003,1101.556 242.968,1101.708 C242.928,1101.716 242.776001,1101.9 242.512,1102.26 C242.199998,1102.684 242.016,1102.928 241.96,1102.992 L241.024,1104.24 C240.671998,1104.672 240.276002,1104.888 239.836,1104.888 C239.187997,1104.888 238.864,1104.584 238.864,1103.976 C238.864,1103.464 240.123987,1102.05201 242.644,1099.74 C244.140007,1098.41999 245.631993,1097.10001 247.12,1095.78 C247.272001,1095.652 247.499998,1095.544 247.804,1095.456 C248.084001,1095.384 248.343999,1095.348 248.584,1095.348 C248.984002,1095.348 249.235999,1095.496 249.34,1095.792 C249.388,1095.92 249.412,1096.212 249.412,1096.668 L249.172,1099.644 L250.84,1099.644 C251.008001,1099.636 251.14,1099.72 251.236,1099.896 Z M246.76,1099.572 L246.664,1098.66 C246.624,1098.284 246.528001,1098.024 246.376,1097.88 C246.079999,1098.096 245.728002,1098.444 245.32,1098.924 C245.015998,1099.3 244.712002,1099.672 244.408,1100.04 L246.76,1099.572 Z M264.132,1095.12 C264.132,1095.456 263.832003,1096.32399 263.232,1097.724 C262.583997,1099.24401 261.928003,1100.54399 261.264,1101.624 C260.439996,1102.96001 259.780002,1103.628 259.284,1103.628 C258.843998,1103.628 258.380002,1103.216 257.892,1102.392 C257.539998,1101.8 257.180002,1101.00401 256.812,1100.004 L256.284,1098.492 C255.795998,1099.52401 255.260003,1101.09599 254.676,1103.208 C254.636,1103.376 254.478001,1103.552 254.202,1103.736 C253.925999,1103.92 253.716001,1104.012 253.572,1104.012 C253.211998,1104.012 252.936001,1103.848 252.744,1103.52 C252.599999,1103.28 252.528,1103.016 252.528,1102.728 C252.528,1102.304 252.599999,1101.916 252.744,1101.564 C253.112002,1100.676 253.727996,1099.44001 254.592,1097.856 C255.112003,1096.896 255.599998,1096.176 256.056,1095.696 C256.12,1095.632 256.275999,1095.584 256.524,1095.552 C256.884002,1095.504 257.096,1095.472 257.16,1095.456 C258.032004,1096.87201 258.587999,1098.81199 258.828,1101.276 C258.932001,1101.372 259.095999,1101.524 259.32,1101.732 C259.784002,1100.924 260.359997,1099.69601 261.048,1098.048 C261.488002,1097.00799 261.775999,1096.356 261.912,1096.092 C262.520003,1094.97199 263.099997,1094.412 263.652,1094.412 C263.892001,1094.412 264.044,1094.512 264.108,1094.712 C264.124,1094.76 264.132,1094.896 264.132,1095.12 Z M277.412,1097.892 C277.412,1098.876 276.644008,1099.86 275.108,1100.844 C274.011995,1101.556 272.580009,1102.228 270.812,1102.86 C270.764,1102.876 269.988008,1103.124 268.484,1103.604 C268.011998,1103.756 267.360004,1104.004 266.528,1104.348 C266.071998,1104.532 265.684002,1104.624 265.364,1104.624 C265.043998,1104.624 264.836,1104.564 264.74,1104.444 C264.668,1104.348 264.632,1104.16 264.632,1103.88 C264.632,1103.28 264.827998,1102.33801 265.22,1101.054 C265.612002,1099.76999 265.808,1098.86 265.808,1098.324 C265.808,1098.012 265.764,1097.732 265.676,1097.484 C265.764,1097.348 265.927999,1097.28 266.168,1097.28 C266.288001,1097.28 266.419999,1097.3 266.564,1097.34 C266.684001,1097.18 266.784,1096.892 266.864,1096.476 C266.944,1096.004 267.02,1095.696 267.092,1095.552 C267.236001,1095.256 267.467998,1095.108 267.788,1095.108 C267.876,1095.108 267.975999,1095.12 268.088,1095.144 C268.240001,1095.256 268.316,1095.436 268.316,1095.684 L268.316,1095.756 C268.316,1095.932 268.336,1096.076 268.376,1096.188 C269.520006,1095.596 270.315998,1095.244 270.764,1095.132 C271.068002,1095.06 271.731995,1095.024 272.756,1095.024 C273.988006,1095.024 274.939997,1095.148 275.612,1095.396 C276.812006,1095.828 277.412,1096.65999 277.412,1097.892 Z M275.912,1098.24 C275.912,1097.608 275.388005,1097.12 274.34,1096.776 C273.603996,1096.536 272.896003,1096.416 272.216,1096.416 C271.135995,1096.416 270.156004,1096.644 269.276,1097.1 C268.979999,1097.252 268.680002,1097.404 268.376,1097.556 C268.023998,1097.756 267.824,1097.904 267.776,1098 C267.487999,1098.568 267.224001,1099.312 266.984,1100.232 L266.408,1102.536 C267.624006,1102.192 269.415988,1101.664 271.784,1100.952 C274.536014,1100.072 275.912,1099.168 275.912,1098.24 Z M288.34,1097.112 C288.34,1097.608 287.980004,1098.016 287.26,1098.336 C286.739997,1098.568 286.056004,1098.744 285.208,1098.864 C284.799998,1098.904 284.396002,1098.944 283.996,1098.984 C284.468002,1099.24 284.939998,1099.492 285.412,1099.74 C286.116004,1100.132 286.655998,1100.496 287.032,1100.832 C287.544003,1101.296 287.8,1101.748 287.8,1102.188 C287.8,1102.38 287.768,1102.552 287.704,1102.704 C287.616,1102.904 287.492001,1103.004 287.332,1103.004 C287.252,1103.004 287.016002,1102.784 286.624,1102.344 C286.231998,1101.904 285.992,1101.672 285.904,1101.648 L282.424,1100.76 C282.239999,1100.76 281.964002,1100.712 281.596,1100.616 C281.115998,1100.48 280.876,1100.324 280.876,1100.148 C280.876,1099.58 281.339995,1099.084 282.268,1098.66 C282.524001,1098.548 283.051996,1098.376 283.852,1098.144 C284.300002,1098.008 284.639999,1097.896 284.872,1097.808 C285.376003,1097.608 285.723999,1097.404 285.916,1097.196 C285.868,1097.06 285.684002,1096.992 285.364,1096.992 C284.747997,1096.992 283.904005,1097.14 282.832,1097.436 C281.663994,1097.764 281.016001,1098.076 280.888,1098.372 C280.559998,1099.092 280.040004,1100.26799 279.328,1101.9 C279.215999,1102.164 279.100001,1102.644 278.98,1103.34 C278.94,1103.644 278.9,1103.944 278.86,1104.24 C278.747999,1104.864 278.600001,1105.368 278.416,1105.752 C278.159999,1106.28 277.844002,1106.544 277.468,1106.544 C277.363999,1106.544 277.228001,1106.464 277.06,1106.304 C277.028,1105.472 277.103999,1104.692 277.288,1103.964 C277.400001,1103.54 277.655998,1102.80401 278.056,1101.756 C278.504002,1100.60399 278.867999,1099.552 279.148,1098.6 C279.108,1098.576 278.932002,1098.524 278.62,1098.444 C278.379999,1098.372 278.256,1098.308 278.248,1098.252 C278.232,1098.108 278.26,1097.916 278.332,1097.676 C278.436001,1097.316 278.488,1097.116 278.488,1097.076 C278.496,1097.076 278.687998,1097.004 279.064,1096.86 C279.320001,1096.764 279.48,1096.672 279.544,1096.584 C279.664001,1096.392 279.787999,1096.204 279.916,1096.02 C280.060001,1095.86 280.283998,1095.78 280.588,1095.78 C280.636,1095.78 280.865998,1095.808 281.278,1095.864 C281.690002,1095.92 281.928,1095.948 281.992,1095.948 C282.064,1095.948 282.307998,1095.868 282.724,1095.708 C283.236003,1095.508 283.671998,1095.36 284.032,1095.264 C284.632003,1095.104 285.191997,1095.024 285.712,1095.024 C286.336003,1095.024 286.899997,1095.18 287.404,1095.492 C288.028003,1095.876 288.34,1096.416 288.34,1097.112 Z M301.248,1099.896 C301.168,1100.32 301.084,1100.592 300.996,1100.712 C300.908,1100.832 300.760001,1100.892 300.552,1100.892 C300.504,1100.892 300.404001,1100.888 300.252,1100.88 C300.099999,1100.872 299.972001,1100.868 299.868,1100.868 C299.884,1100.868 299.740002,1100.884 299.436,1100.916 C299.187999,1100.94 299.016,1100.94 298.92,1100.916 L298.776,1102.044 C298.663999,1102.82 298.516001,1103.44 298.332,1103.904 C298.075999,1104.56 297.764002,1104.888 297.396,1104.888 C296.851997,1104.888 296.58,1104.24401 296.58,1102.956 C296.58,1102.636 296.598,1102.274 296.634,1101.87 C296.67,1101.466 296.688,1101.276 296.688,1101.3 C296.672,1101.284 296.666,1101.25 296.67,1101.198 C296.674,1101.146 296.648,1101.12 296.592,1101.12 C296.423999,1101.12 295.956004,1101.172 295.188,1101.276 C294.227995,1101.412 293.492003,1101.556 292.98,1101.708 C292.94,1101.716 292.788001,1101.9 292.524,1102.26 C292.211998,1102.684 292.028,1102.928 291.972,1102.992 L291.036,1104.24 C290.683998,1104.672 290.288002,1104.888 289.848,1104.888 C289.199997,1104.888 288.876,1104.584 288.876,1103.976 C288.876,1103.464 290.135987,1102.05201 292.656,1099.74 C294.152007,1098.41999 295.643993,1097.10001 297.132,1095.78 C297.284001,1095.652 297.511998,1095.544 297.816,1095.456 C298.096001,1095.384 298.355999,1095.348 298.596,1095.348 C298.996002,1095.348 299.247999,1095.496 299.352,1095.792 C299.4,1095.92 299.424,1096.212 299.424,1096.668 L299.184,1099.644 L300.852,1099.644 C301.020001,1099.636 301.152,1099.72 301.248,1099.896 Z M296.772,1099.572 L296.676,1098.66 C296.636,1098.284 296.540001,1098.024 296.388,1097.88 C296.091999,1098.096 295.740002,1098.444 295.332,1098.924 C295.027998,1099.3 294.724002,1099.672 294.42,1100.04 L296.772,1099.572 Z M234.76,1117.356 C233.831995,1117.556 232.520008,1117.752 230.824,1117.944 C229.719994,1118.064 228.976002,1118.252 228.592,1118.508 C228.095998,1118.836 227.740001,1119.492 227.524,1120.476 C227.668001,1120.556 227.967998,1120.596 228.424,1120.596 C228.52,1120.596 229.115995,1120.398 230.212,1120.002 C231.308005,1119.606 231.904,1119.408 232,1119.408 C232.288001,1119.408 232.495999,1119.44 232.624,1119.504 C232.848001,1119.6 233.063999,1119.82 233.272,1120.164 C232.935998,1120.788 232.060007,1121.404 230.644,1122.012 C229.291993,1122.588 228.164005,1122.876 227.26,1122.876 C226.635997,1122.876 226.180001,1122.768 225.892,1122.552 C225.563998,1122.296 225.4,1121.864 225.4,1121.256 C225.4,1120.472 225.763996,1119.03201 226.492,1116.936 C227.180003,1114.95199 227.643999,1113.856 227.884,1113.648 C228.156001,1113.4 228.947993,1113.276 230.26,1113.276 C230.940003,1113.276 231.371999,1113.3 231.556,1113.348 C231.956002,1113.444 232.331998,1113.704 232.684,1114.128 L232.492,1114.668 C232.283999,1114.7 232.012002,1114.716 231.676,1114.716 C231.604,1114.716 231.488001,1114.712 231.328,1114.704 L230.98,1114.704 C230.299997,1114.704 229.812001,1114.784 229.516,1114.944 C229.083998,1115.168 228.868,1115.592 228.868,1116.216 L228.856,1116.72 C229.336002,1116.728 230.139994,1116.688 231.268,1116.6 C232.452006,1116.512 233.231998,1116.468 233.608,1116.468 C233.904001,1116.468 234.181999,1116.528 234.442,1116.648 C234.702001,1116.768 234.832,1116.924 234.832,1117.116 C234.832,1117.196 234.808,1117.276 234.76,1117.356 Z M244.2,1120.488 C244.2,1121.176 243.732005,1121.776 242.796,1122.288 C242.099997,1122.672 241.192006,1122.984 240.072,1123.224 C239.247996,1123.4 238.644002,1123.488 238.26,1123.488 C238.107999,1123.488 237.804002,1123.436 237.348,1123.332 C236.819997,1123.212 236.396002,1123.084 236.076,1122.948 L236.076,1122.432 C236.068,1121.984 236.279998,1121.592 236.712,1121.256 L240.012,1121.58 C240.884004,1121.548 241.699996,1121.3 242.46,1120.836 L242.46,1120.572 C241.971998,1119.956 241.080006,1119.56 239.784,1119.384 C238.76,1119.256 237.740005,1119.128 236.724,1119 C235.747995,1118.744 235.26,1118.172 235.26,1117.284 C235.26,1116.716 235.667996,1116.08 236.484,1115.376 C237.172003,1114.792 238.007995,1114.26 238.992,1113.78 C239.912005,1113.34 240.583998,1113.12 241.008,1113.12 C241.600003,1113.12 241.936,1113.128 242.016,1113.144 C242.344002,1113.224 242.492,1113.444 242.46,1113.804 C242.42,1114.26 242.000004,1114.624 241.2,1114.896 C240.439996,1115.128 239.684004,1115.36 238.932,1115.592 C238.107996,1115.936 237.652,1116.416 237.564,1117.032 C238.388004,1117.152 239.207996,1117.272 240.024,1117.392 C241.256006,1117.584 242.199997,1117.868 242.856,1118.244 C243.752004,1118.772 244.2,1119.52 244.2,1120.488 Z M257.996,1119.648 C257.996,1119.776 257.692003,1119.972 257.084,1120.236 C253.595983,1121.73201 250.85201,1122.48 248.852,1122.48 C247.931995,1122.48 247.192003,1122.324 246.632,1122.012 C245.863996,1121.58 245.48,1120.88 245.48,1119.912 C245.48,1119.024 246.095994,1117.99201 247.328,1116.816 C248.360005,1115.824 249.611993,1114.92 251.084,1114.104 C252.476007,1113.328 253.48,1112.94 254.096,1112.94 C254.552002,1112.94 254.78,1113.22 254.78,1113.78 C254.78,1114.02 254.764,1114.176 254.732,1114.248 C254.692,1114.368 254.568001,1114.52 254.36,1114.704 C254.304,1114.752 253.608007,1115.088 252.272,1115.712 C250.887993,1116.368 249.816004,1116.992 249.056,1117.584 C247.943994,1118.464 247.388,1119.352 247.388,1120.248 C247.388,1120.688 247.659997,1121 248.204,1121.184 C248.532002,1121.296 248.907998,1121.352 249.332,1121.352 C250.012003,1121.352 250.807995,1121.256 251.72,1121.064 C252.448004,1120.904 252.975998,1120.756 253.304,1120.62 C253.864003,1120.324 254.719994,1119.908 255.872,1119.372 C256.640004,1119.06 257.04,1118.904 257.072,1118.904 C257.200001,1118.904 257.385999,1118.994 257.63,1119.174 C257.874001,1119.354 257.996,1119.512 257.996,1119.648 Z M266.5,1117.428 C266.5,1118.71601 266.084004,1119.91199 265.252,1121.016 C264.315995,1122.26401 263.152007,1122.888 261.76,1122.888 C260.671995,1122.888 259.820003,1122.572 259.204,1121.94 C258.619997,1121.332 258.328,1120.52001 258.328,1119.504 C258.328,1119.096 258.471999,1118.36801 258.76,1117.32 C259.120002,1116.03199 259.539998,1114.98 260.02,1114.164 C260.644003,1113.08399 261.307996,1112.544 262.012,1112.544 C263.284006,1112.544 264.343996,1112.992 265.192,1113.888 C266.064004,1114.808 266.5,1115.98799 266.5,1117.428 Z M264.424,1117.896 C264.456,1117.264 264.288002,1116.46 263.92,1115.484 C263.487998,1114.35599 263.004003,1113.792 262.468,1113.792 C262.027998,1113.792 261.604,1114.22 261.196,1115.076 C260.891998,1115.74 260.624001,1116.58799 260.392,1117.62 C260.199999,1118.468 260.104,1119.068 260.104,1119.42 C260.104,1119.82 260.167999,1120.212 260.296,1120.596 C260.536001,1121.276 260.931997,1121.616 261.484,1121.616 C262.348004,1121.616 263.047997,1121.26 263.584,1120.548 C264.088003,1119.868 264.368,1118.98401 264.424,1117.896 Z M279.912,1119.492 C279.912,1119.58 279.888,1119.772 279.84,1120.068 C279.776,1120.404 279.716,1120.652 279.66,1120.812 C279.179998,1121.268 278.044009,1121.76 276.252,1122.288 C274.30799,1122.872 272.592007,1123.164 271.104,1123.164 C269.919994,1123.164 269.164002,1122.988 268.836,1122.636 C268.507998,1122.284 268.344,1121.52801 268.344,1120.368 C268.344,1120 268.34,1119.824 268.332,1119.84 C268.356,1119.672 268.439999,1119.408 268.584,1119.048 C268.856001,1118.52 269.271997,1117.66801 269.832,1116.492 C269.888,1116.356 269.96,1116.052 270.048,1115.58 C270.12,1115.164 270.215999,1114.864 270.336,1114.68 C270.432,1114.536 270.879996,1114.372 271.68,1114.188 C273.320008,1113.812 274.659995,1113.624 275.7,1113.624 C277.500009,1113.624 278.4,1113.992 278.4,1114.728 C278.4,1114.92 278.282001,1115.224 278.046,1115.64 C277.809999,1116.056 277.580001,1116.36 277.356,1116.552 C278.276005,1116.728 278.951998,1117.116 279.384,1117.716 C279.736002,1118.204 279.912,1118.796 279.912,1119.492 Z M276.312,1115.34 L276.18,1115.196 L274.836,1115.196 C274.395998,1115.188 273.724005,1115.284 272.82,1115.484 C271.579994,1115.756 270.96,1116.096 270.96,1116.504 L270.96,1116.756 C270.984,1116.74 271.071999,1116.736 271.224,1116.744 C271.584002,1116.752 271.971998,1116.756 272.388,1116.756 C273.092004,1116.716 273.831996,1116.556 274.608,1116.276 C275.384004,1115.996 275.951998,1115.684 276.312,1115.34 Z M278.52,1119.696 C278.52,1119.488 278.308002,1119.224 277.884,1118.904 C277.547998,1118.648 277.288001,1118.484 277.104,1118.412 C276.639998,1118.244 275.772006,1118.16 274.5,1118.16 C273.875997,1118.16 273.376002,1118.204 273,1118.292 L271.968,1118.556 C271.695999,1118.604 271.420001,1118.652 271.14,1118.7 C270.827998,1118.764 270.596001,1118.844 270.444,1118.94 C270.227999,1119.084 270.036001,1119.356 269.868,1119.756 C269.715999,1120.124 269.656,1120.404 269.688,1120.596 C270.840006,1120.332 271.775996,1120.2 272.496,1120.2 C273.136003,1120.2 273.456,1120.304 273.456,1120.512 C273.456,1120.648 273.272002,1120.832 272.904,1121.064 C272.703999,1121.176 272.500001,1121.288 272.292,1121.4 C276.444021,1120.88 278.52,1120.312 278.52,1119.696 Z M292.64,1117.896 C292.56,1118.32 292.476,1118.592 292.388,1118.712 C292.3,1118.832 292.152001,1118.892 291.944,1118.892 C291.896,1118.892 291.796001,1118.888 291.644,1118.88 C291.491999,1118.872 291.364001,1118.868 291.26,1118.868 C291.276,1118.868 291.132002,1118.884 290.828,1118.916 C290.579999,1118.94 290.408,1118.94 290.312,1118.916 L290.168,1120.044 C290.055999,1120.82 289.908001,1121.44 289.724,1121.904 C289.467999,1122.56 289.156002,1122.888 288.788,1122.888 C288.243997,1122.888 287.972,1122.24401 287.972,1120.956 C287.972,1120.636 287.99,1120.274 288.026,1119.87 C288.062,1119.466 288.08,1119.276 288.08,1119.3 C288.064,1119.284 288.058,1119.25 288.062,1119.198 C288.066,1119.146 288.04,1119.12 287.984,1119.12 C287.815999,1119.12 287.348004,1119.172 286.58,1119.276 C285.619995,1119.412 284.884003,1119.556 284.372,1119.708 C284.332,1119.716 284.180001,1119.9 283.916,1120.26 C283.603998,1120.684 283.42,1120.928 283.364,1120.992 L282.428,1122.24 C282.075998,1122.672 281.680002,1122.888 281.24,1122.888 C280.591997,1122.888 280.268,1122.584 280.268,1121.976 C280.268,1121.464 281.527987,1120.05201 284.048,1117.74 C285.544007,1116.41999 287.035993,1115.10001 288.524,1113.78 C288.676001,1113.652 288.903998,1113.544 289.208,1113.456 C289.488001,1113.384 289.747999,1113.348 289.988,1113.348 C290.388002,1113.348 290.639999,1113.496 290.744,1113.792 C290.792,1113.92 290.816,1114.212 290.816,1114.668 L290.576,1117.644 L292.244,1117.644 C292.412001,1117.636 292.544,1117.72 292.64,1117.896 Z M288.164,1117.572 L288.068,1116.66 C288.028,1116.284 287.932001,1116.024 287.78,1115.88 C287.483999,1116.096 287.132002,1116.444 286.724,1116.924 C286.419998,1117.3 286.116002,1117.672 285.812,1118.04 L288.164,1117.572 Z M305.332,1115.112 C305.332,1115.608 304.972004,1116.016 304.252,1116.336 C303.731997,1116.568 303.048004,1116.744 302.2,1116.864 C301.791998,1116.904 301.388002,1116.944 300.988,1116.984 C301.460002,1117.24 301.931998,1117.492 302.404,1117.74 C303.108004,1118.132 303.647998,1118.496 304.024,1118.832 C304.536003,1119.296 304.792,1119.748 304.792,1120.188 C304.792,1120.38 304.76,1120.552 304.696,1120.704 C304.608,1120.904 304.484001,1121.004 304.324,1121.004 C304.244,1121.004 304.008002,1120.784 303.616,1120.344 C303.223998,1119.904 302.984,1119.672 302.896,1119.648 L299.416,1118.76 C299.231999,1118.76 298.956002,1118.712 298.588,1118.616 C298.107998,1118.48 297.868,1118.324 297.868,1118.148 C297.868,1117.58 298.331995,1117.084 299.26,1116.66 C299.516001,1116.548 300.043996,1116.376 300.844,1116.144 C301.292002,1116.008 301.631999,1115.896 301.864,1115.808 C302.368003,1115.608 302.715999,1115.404 302.908,1115.196 C302.86,1115.06 302.676002,1114.992 302.356,1114.992 C301.739997,1114.992 300.896005,1115.14 299.824,1115.436 C298.655994,1115.764 298.008001,1116.076 297.88,1116.372 C297.551998,1117.092 297.032004,1118.26799 296.32,1119.9 C296.207999,1120.164 296.092001,1120.644 295.972,1121.34 C295.932,1121.644 295.892,1121.944 295.852,1122.24 C295.739999,1122.864 295.592001,1123.368 295.408,1123.752 C295.151999,1124.28 294.836002,1124.544 294.46,1124.544 C294.355999,1124.544 294.220001,1124.464 294.052,1124.304 C294.02,1123.472 294.095999,1122.692 294.28,1121.964 C294.392001,1121.54 294.647998,1120.80401 295.048,1119.756 C295.496002,1118.60399 295.859999,1117.552 296.14,1116.6 C296.1,1116.576 295.924002,1116.524 295.612,1116.444 C295.371999,1116.372 295.248,1116.308 295.24,1116.252 C295.224,1116.108 295.252,1115.916 295.324,1115.676 C295.428001,1115.316 295.48,1115.116 295.48,1115.076 C295.488,1115.076 295.679998,1115.004 296.056,1114.86 C296.312001,1114.764 296.472,1114.672 296.536,1114.584 C296.656001,1114.392 296.779999,1114.204 296.908,1114.02 C297.052001,1113.86 297.275998,1113.78 297.58,1113.78 C297.628,1113.78 297.857998,1113.808 298.27,1113.864 C298.682002,1113.92 298.92,1113.948 298.984,1113.948 C299.056,1113.948 299.299998,1113.868 299.716,1113.708 C300.228003,1113.508 300.663998,1113.36 301.024,1113.264 C301.624003,1113.104 302.183997,1113.024 302.704,1113.024 C303.328003,1113.024 303.891997,1113.18 304.396,1113.492 C305.020003,1113.876 305.332,1114.416 305.332,1115.112 Z" id="SANDRAESCOBAR"></path>
        </g>
    </g>
</svg>