<?xml version="1.0" encoding="UTF-8"?>
<svg width="76px" height="31px" viewBox="0 0 76 31" version="1.1" xmlns="http://www.w3.org/2000/svg" xmlns:xlink="http://www.w3.org/1999/xlink">
    <!-- Generator: Sketch 56.2 (81672) - https://sketch.com -->
    <title>Group 21</title>
    <desc>Created with Sketch.</desc>
    <g id="Welcome" stroke="none" stroke-width="1" fill="none" fill-rule="evenodd">
        <g id="Friends" transform="translate(-344.000000, -1094.000000)">
            <g id="Group-21" transform="translate(342.000000, 1091.000000)">
                <path d="M48.5,20.5 L55.5,20.5" id="Line" stroke="#4C5796" stroke-linecap="round"></path>
                <path d="M14.606,4.42 C14.606,4.66800124 14.3340027,4.88399908 13.79,5.068 C13.4539983,5.1880006 13.1420014,5.26399984 12.854,5.296 C11.5019932,5.4560008 10.0180081,5.7559978 8.402,6.196 C8.39399996,6.32400064 8.35800032,6.487999 8.294,6.688 C8.2139996,6.93600124 8.16600008,7.09199968 8.15,7.156 C7.949999,7.94000392 7.74600104,8.72399608 7.538,9.508 C7.137998,11.116008 6.938,12.1079981 6.938,12.484 L6.902,13.948 C6.902,14.0520005 6.79400108,14.1359997 6.578,14.2 C6.4179992,14.2480002 6.29000048,14.272 6.194,14.272 C5.7539978,14.272 5.534,13.9160036 5.534,13.204 C5.534,12.8679983 5.61799916,12.3160038 5.786,11.548 C5.92200068,10.9079968 6.04199948,10.4280016 6.146,10.108 C6.21000032,9.92399908 6.30999932,9.38800444 6.446,8.5 C6.59800076,7.55599528 6.674,6.93200152 6.674,6.628 C6.674,6.4679992 6.61000064,6.35600032 6.482,6.292 L4.406,6.4 C4.06999832,6.4800004 3.902,6.21600304 3.902,5.608 C3.902,5.26399828 3.98999912,5.03600056 4.166,4.924 C4.2860006,4.85199964 4.49799848,4.816 4.802,4.816 C4.8420002,4.816 4.92999932,4.82399992 5.066,4.84 C5.20200068,4.85600008 5.29799972,4.86799996 5.354,4.876 L12.518,3.796 C13.0060024,3.85200028 13.4899976,3.90399976 13.97,3.952 C14.3940021,4.02400036 14.606,4.1799988 14.606,4.42 Z M24.25,8.896 C24.1699996,9.32000212 24.0860004,9.5919994 23.998,9.712 C23.9099996,9.8320006 23.762001,9.892 23.554,9.892 C23.5059998,9.892 23.4060008,9.88800004 23.254,9.88 C23.1019992,9.87199996 22.9740005,9.868 22.87,9.868 C22.8860001,9.868 22.7420015,9.88399984 22.438,9.916 C22.1899988,9.94000012 22.0180005,9.94000012 21.922,9.916 L21.778,11.044 C21.6659994,11.8200039 21.5180009,12.4399977 21.334,12.904 C21.0779987,13.5600033 20.7660018,13.888 20.398,13.888 C19.8539973,13.888 19.582,13.2440064 19.582,11.956 C19.582,11.6359984 19.5999998,11.274002 19.636,10.87 C19.6720002,10.465998 19.69,10.2759999 19.69,10.3 C19.6739999,10.2839999 19.668,10.2500003 19.672,10.198 C19.676,10.1459997 19.6500003,10.12 19.594,10.12 C19.4259992,10.12 18.9580038,10.1719995 18.19,10.276 C17.2299952,10.4120007 16.4940026,10.5559992 15.982,10.708 C15.9419998,10.716 15.7900013,10.8999982 15.526,11.26 C15.2139984,11.6840021 15.0300003,11.9279997 14.974,11.992 L14.038,13.24 C13.6859982,13.6720022 13.2900022,13.888 12.85,13.888 C12.2019968,13.888 11.878,13.584003 11.878,12.976 C11.878,12.4639974 13.1379874,11.0520116 15.658,8.74 C17.1540075,7.4199934 18.6459926,6.1000066 20.134,4.78 C20.2860008,4.65199936 20.5139985,4.54400044 20.818,4.456 C21.0980014,4.38399964 21.3579988,4.348 21.598,4.348 C21.998002,4.348 22.2499995,4.49599852 22.354,4.792 C22.4020002,4.92000064 22.426,5.21199772 22.426,5.668 L22.186,8.644 L23.854,8.644 C24.0220008,8.63599996 24.1539995,8.71999912 24.25,8.896 Z M19.774,8.572 L19.678,7.66 C19.6379998,7.28399812 19.5420008,7.02400072 19.39,6.88 C19.0939985,7.09600108 18.742002,7.4439976 18.334,7.924 C18.0299985,8.30000188 17.7260015,8.67199816 17.422,9.04 L19.774,8.572 Z M38.61,7.588 C38.5139995,7.88400148 38.1500032,8.72799304 37.518,10.12 C36.9339971,11.4160065 36.5940005,12.259998 36.498,12.652 C36.4819999,12.7160003 36.474,12.7999995 36.474,12.904 C36.474,13.0080005 36.4879999,13.1959986 36.516,13.468 C36.5440001,13.7400014 36.558,13.9479993 36.558,14.092 C36.558,14.7960035 36.262003,15.148 35.67,15.148 C35.4859991,15.148 35.3100008,15.044001 35.142,14.836 C34.9739992,14.627999 34.89,14.4120011 34.89,14.188 C34.89,14.1159996 34.9019999,14.0520003 34.926,13.996 L36.762,7.864 C36.8020002,7.7839996 36.822,7.73200012 36.822,7.708 C36.822,7.69999996 36.818,7.696 36.81,7.696 C36.7939999,7.70400004 36.7660002,7.73199976 36.726,7.78 C35.7899953,8.57200396 34.8540047,9.367996 33.918,10.168 C32.3019919,11.4560064 31.2220027,12.1 30.678,12.1 C30.0619969,12.1 29.4140034,10.9840112 28.734,8.752 C28.3979983,9.25600252 28.0980013,9.87199636 27.834,10.6 C27.7779997,10.7600008 27.5820017,11.3839946 27.246,12.472 C27.1899997,12.6480009 27.0440012,12.8839985 26.808,13.18 C26.5719988,13.4760015 26.3980006,13.624 26.286,13.624 C25.9579984,13.624 25.7500004,13.5080012 25.662,13.276 C25.6299998,13.1879996 25.614,12.9880016 25.614,12.676 C25.614,12.5559994 25.8659975,11.900006 26.37,10.708 C26.9220028,9.37999336 27.4339976,8.2560046 27.906,7.336 C28.5220031,6.14399404 28.9459988,5.548 29.178,5.548 C29.6660024,5.548 30.0539986,5.91599632 30.342,6.652 C30.542001,7.1720026 30.6939995,7.88799544 30.798,8.8 C30.8460002,9.2800024 30.8939998,9.75599764 30.942,10.228 C31.9820052,9.48399628 33.0179948,8.74000372 34.05,7.996 C35.9460095,6.66799336 37.1179978,6.004 37.566,6.004 C37.8780016,6.004 38.137999,6.17199832 38.346,6.508 C38.538001,6.79600144 38.634,7.08799852 38.634,7.384 C38.634,7.4640004 38.6260001,7.53199972 38.61,7.588 Z M51.134,8.896 C51.0539996,9.32000212 50.9700004,9.5919994 50.882,9.712 C50.7939996,9.8320006 50.646001,9.892 50.438,9.892 C50.3899998,9.892 50.2900008,9.88800004 50.138,9.88 C49.9859992,9.87199996 49.8580005,9.868 49.754,9.868 C49.7700001,9.868 49.6260015,9.88399984 49.322,9.916 C49.0739988,9.94000012 48.9020005,9.94000012 48.806,9.916 L48.662,11.044 C48.5499994,11.8200039 48.4020009,12.4399977 48.218,12.904 C47.9619987,13.5600033 47.6500018,13.888 47.282,13.888 C46.7379973,13.888 46.466,13.2440064 46.466,11.956 C46.466,11.6359984 46.4839998,11.274002 46.52,10.87 C46.5560002,10.465998 46.574,10.2759999 46.574,10.3 C46.5579999,10.2839999 46.552,10.2500003 46.556,10.198 C46.56,10.1459997 46.5340003,10.12 46.478,10.12 C46.3099992,10.12 45.8420038,10.1719995 45.074,10.276 C44.1139952,10.4120007 43.3780026,10.5559992 42.866,10.708 C42.8259998,10.716 42.6740013,10.8999982 42.41,11.26 C42.0979984,11.6840021 41.9140003,11.9279997 41.858,11.992 L40.922,13.24 C40.5699982,13.6720022 40.1740022,13.888 39.734,13.888 C39.0859968,13.888 38.762,13.584003 38.762,12.976 C38.762,12.4639974 40.0219874,11.0520116 42.542,8.74 C44.0380075,7.4199934 45.5299926,6.1000066 47.018,4.78 C47.1700008,4.65199936 47.3979985,4.54400044 47.702,4.456 C47.9820014,4.38399964 48.2419988,4.348 48.482,4.348 C48.882002,4.348 49.1339995,4.49599852 49.238,4.792 C49.2860002,4.92000064 49.31,5.21199772 49.31,5.668 L49.07,8.644 L50.738,8.644 C50.9060008,8.63599996 51.0379995,8.71999912 51.134,8.896 Z M46.658,8.572 L46.562,7.66 C46.5219998,7.28399812 46.4260008,7.02400072 46.274,6.88 C45.9779985,7.09600108 45.626002,7.4439976 45.218,7.924 C44.9139985,8.30000188 44.6100015,8.67199816 44.306,9.04 L46.658,8.572 Z M63.826,6.112 C63.826,6.60800248 63.4660036,7.0159984 62.746,7.336 C62.2259974,7.56800116 61.5420042,7.7439994 60.694,7.864 C60.285998,7.9040002 59.882002,7.9439998 59.482,7.984 C59.9540024,8.24000128 60.4259976,8.49199876 60.898,8.74 C61.6020035,9.13200196 62.1419981,9.49599832 62.518,9.832 C63.0300026,10.2960023 63.286,10.7479978 63.286,11.188 C63.286,11.380001 63.2540003,11.5519992 63.19,11.704 C63.1019996,11.904001 62.9780008,12.004 62.818,12.004 C62.7379996,12.004 62.502002,11.7840022 62.11,11.344 C61.717998,10.9039978 61.4780004,10.6720001 61.39,10.648 L57.91,9.76 C57.7259991,9.76 57.4500018,9.71200048 57.082,9.616 C56.6019976,9.47999932 56.362,9.32400088 56.362,9.148 C56.362,8.57999716 56.8259954,8.08400212 57.754,7.66 C58.0100013,7.54799944 58.537996,7.37600116 59.338,7.144 C59.7860022,7.00799932 60.1259988,6.89600044 60.358,6.808 C60.8620025,6.607999 61.209999,6.40400104 61.402,6.196 C61.3539998,6.05999932 61.1700016,5.992 60.85,5.992 C60.2339969,5.992 59.3900054,6.13999852 58.318,6.436 C57.1499942,6.76400164 56.5020006,7.07599852 56.374,7.372 C56.0459984,8.0920036 55.5260036,9.26799184 54.814,10.9 C54.7019994,11.1640013 54.5860006,11.6439965 54.466,12.34 C54.4259998,12.6440015 54.3860002,12.9439985 54.346,13.24 C54.2339994,13.8640031 54.0860009,14.3679981 53.902,14.752 C53.6459987,15.2800026 53.3300019,15.544 52.954,15.544 C52.8499995,15.544 52.7140008,15.4640008 52.546,15.304 C52.5139998,14.4719958 52.5899991,13.6920036 52.774,12.964 C52.8860006,12.5399979 53.141998,11.8040052 53.542,10.756 C53.9900022,9.60399424 54.3539986,8.55200476 54.634,7.6 C54.5939998,7.57599988 54.4180016,7.524 54.106,7.444 C53.8659988,7.37199964 53.742,7.30800028 53.734,7.252 C53.7179999,7.10799928 53.7459996,6.9160012 53.818,6.676 C53.9220005,6.3159982 53.974,6.1160002 53.974,6.076 C53.982,6.076 54.1739981,6.00400072 54.55,5.86 C54.8060013,5.76399952 54.9659997,5.67200044 55.03,5.584 C55.1500006,5.39199904 55.2739994,5.20400092 55.402,5.02 C55.5460007,4.8599992 55.7699985,4.78 56.074,4.78 C56.1220002,4.78 56.3519979,4.80799972 56.764,4.864 C57.1760021,4.92000028 57.4139997,4.948 57.478,4.948 C57.5500004,4.948 57.7939979,4.8680008 58.21,4.708 C58.7220026,4.507999 59.1579982,4.36000048 59.518,4.264 C60.118003,4.1039992 60.6779974,4.024 61.198,4.024 C61.8220031,4.024 62.3859975,4.17999844 62.89,4.492 C63.5140031,4.87600192 63.826,5.41599652 63.826,6.112 Z M76.734,8.896 C76.6539996,9.32000212 76.5700004,9.5919994 76.482,9.712 C76.3939996,9.8320006 76.246001,9.892 76.038,9.892 C75.9899998,9.892 75.8900008,9.88800004 75.738,9.88 C75.5859992,9.87199996 75.4580005,9.868 75.354,9.868 C75.3700001,9.868 75.2260015,9.88399984 74.922,9.916 C74.6739988,9.94000012 74.5020005,9.94000012 74.406,9.916 L74.262,11.044 C74.1499994,11.8200039 74.0020009,12.4399977 73.818,12.904 C73.5619987,13.5600033 73.2500018,13.888 72.882,13.888 C72.3379973,13.888 72.066,13.2440064 72.066,11.956 C72.066,11.6359984 72.0839998,11.274002 72.12,10.87 C72.1560002,10.465998 72.174,10.2759999 72.174,10.3 C72.1579999,10.2839999 72.152,10.2500003 72.156,10.198 C72.16,10.1459997 72.1340003,10.12 72.078,10.12 C71.9099992,10.12 71.4420038,10.1719995 70.674,10.276 C69.7139952,10.4120007 68.9780026,10.5559992 68.466,10.708 C68.4259998,10.716 68.2740013,10.8999982 68.01,11.26 C67.6979984,11.6840021 67.5140003,11.9279997 67.458,11.992 L66.522,13.24 C66.1699982,13.6720022 65.7740022,13.888 65.334,13.888 C64.6859968,13.888 64.362,13.584003 64.362,12.976 C64.362,12.4639974 65.6219874,11.0520116 68.142,8.74 C69.6380075,7.4199934 71.1299926,6.1000066 72.618,4.78 C72.7700008,4.65199936 72.9979985,4.54400044 73.302,4.456 C73.5820014,4.38399964 73.8419988,4.348 74.082,4.348 C74.482002,4.348 74.7339995,4.49599852 74.838,4.792 C74.8860002,4.92000064 74.91,5.21199772 74.91,5.668 L74.67,8.644 L76.338,8.644 C76.5060008,8.63599996 76.6379995,8.71999912 76.734,8.896 Z M72.258,8.572 L72.162,7.66 C72.1219998,7.28399812 72.0260008,7.02400072 71.874,6.88 C71.5779985,7.09600108 71.226002,7.4439976 70.818,7.924 C70.5139985,8.30000188 70.2100015,8.67199816 69.906,9.04 L72.258,8.572 Z M13.348,26.248 C13.348,26.3200004 13.2640008,26.453999 13.096,26.65 C12.9279992,26.846001 12.7800006,26.9559999 12.652,26.98 C12.5239994,27.0040001 11.864006,27.1079991 10.672,27.292 C9.87999604,27.4120006 9.04800436,27.5879988 8.176,27.82 C7.84799836,27.9000004 7.5240016,27.9799996 7.204,28.06 C6.75599776,28.1800006 6.4120012,28.3079993 6.172,28.444 C5.86799848,28.6200009 5.58400132,29.1879952 5.32,30.148 L4.672,32.62 C4.39999864,33.4680042 4.09200172,33.892 3.748,33.892 C3.41999836,33.892 3.16000096,33.7120018 2.968,33.352 C2.81599924,33.0799986 2.74,32.8160013 2.74,32.56 C2.74,32.0319974 2.96799772,31.3420043 3.424,30.49 C3.88000228,29.6379957 4.108,29.1240009 4.108,28.948 C4.108,28.8359994 4.01000098,28.6560012 3.814,28.408 C3.61799902,28.1599988 3.52,27.9160012 3.52,27.676 C3.52,27.348 3.7599976,27.1440004 4.24,27.064 C4.49600128,27.0399999 4.75599868,27.0160001 5.02,26.992 C5.02800004,26.9759999 5.46399568,25.9000107 6.328,23.764 C6.60000136,23.0999967 6.90799828,22.6960007 7.252,22.552 C7.55600152,22.4319994 8.307994,22.372 9.508,22.372 C9.55600024,22.372 9.66399916,22.368 9.832,22.36 C10.0000008,22.352 10.1359995,22.348 10.24,22.348 C11.1840047,22.348 11.656,22.6399971 11.656,23.224 C11.656,23.624002 11.5240013,23.8999992 11.26,24.052 C11.0839991,24.1480005 10.8120018,24.196 10.444,24.196 L8.632,24.196 C8.26399816,24.196 7.89200188,24.491997 7.516,25.084 C7.17199828,25.6200027 7.02799972,25.9999989 7.084,26.224 L12.076,25.624 C12.3640014,25.624 12.6239988,25.6639996 12.856,25.744 C13.1840016,25.8560006 13.348,26.0239989 13.348,26.248 Z M24.78,26.896 C24.6999996,27.3200021 24.6160004,27.5919994 24.528,27.712 C24.4399996,27.8320006 24.292001,27.892 24.084,27.892 C24.0359998,27.892 23.9360008,27.888 23.784,27.88 C23.6319992,27.872 23.5040005,27.868 23.4,27.868 C23.4160001,27.868 23.2720015,27.8839998 22.968,27.916 C22.7199988,27.9400001 22.5480005,27.9400001 22.452,27.916 L22.308,29.044 C22.1959994,29.8200039 22.0480009,30.4399977 21.864,30.904 C21.6079987,31.5600033 21.2960018,31.888 20.928,31.888 C20.3839973,31.888 20.112,31.2440064 20.112,29.956 C20.112,29.6359984 20.1299998,29.274002 20.166,28.87 C20.2020002,28.465998 20.22,28.2759999 20.22,28.3 C20.2039999,28.2839999 20.198,28.2500003 20.202,28.198 C20.206,28.1459997 20.1800003,28.12 20.124,28.12 C19.9559992,28.12 19.4880038,28.1719995 18.72,28.276 C17.7599952,28.4120007 17.0240026,28.5559992 16.512,28.708 C16.4719998,28.716 16.3200013,28.8999982 16.056,29.26 C15.7439984,29.6840021 15.5600003,29.9279997 15.504,29.992 L14.568,31.24 C14.2159982,31.6720022 13.8200022,31.888 13.38,31.888 C12.7319968,31.888 12.408,31.584003 12.408,30.976 C12.408,30.4639974 13.6679874,29.0520116 16.188,26.74 C17.6840075,25.4199934 19.1759926,24.1000066 20.664,22.78 C20.8160008,22.6519994 21.0439985,22.5440004 21.348,22.456 C21.6280014,22.3839996 21.8879988,22.348 22.128,22.348 C22.528002,22.348 22.7799995,22.4959985 22.884,22.792 C22.9320002,22.9200006 22.956,23.2119977 22.956,23.668 L22.716,26.644 L24.384,26.644 C24.5520008,26.636 24.6839995,26.7199991 24.78,26.896 Z M20.304,26.572 L20.208,25.66 C20.1679998,25.2839981 20.0720008,25.0240007 19.92,24.88 C19.6239985,25.0960011 19.272002,25.4439976 18.864,25.924 C18.5599985,26.3000019 18.2560015,26.6719982 17.952,27.04 L20.304,26.572 Z M37.472,24.112 C37.472,24.6080025 37.1120036,25.0159984 36.392,25.336 C35.8719974,25.5680012 35.1880042,25.7439994 34.34,25.864 C33.931998,25.9040002 33.528002,25.9439998 33.128,25.984 C33.6000024,26.2400013 34.0719976,26.4919988 34.544,26.74 C35.2480035,27.132002 35.7879981,27.4959983 36.164,27.832 C36.6760026,28.2960023 36.932,28.7479978 36.932,29.188 C36.932,29.380001 36.9000003,29.5519992 36.836,29.704 C36.7479996,29.904001 36.6240008,30.004 36.464,30.004 C36.3839996,30.004 36.148002,29.7840022 35.756,29.344 C35.363998,28.9039978 35.1240004,28.6720001 35.036,28.648 L31.556,27.76 C31.3719991,27.76 31.0960018,27.7120005 30.728,27.616 C30.2479976,27.4799993 30.008,27.3240009 30.008,27.148 C30.008,26.5799972 30.4719954,26.0840021 31.4,25.66 C31.6560013,25.5479994 32.183996,25.3760012 32.984,25.144 C33.4320022,25.0079993 33.7719988,24.8960004 34.004,24.808 C34.5080025,24.607999 34.855999,24.404001 35.048,24.196 C34.9999998,24.0599993 34.8160016,23.992 34.496,23.992 C33.8799969,23.992 33.0360054,24.1399985 31.964,24.436 C30.7959942,24.7640016 30.1480006,25.0759985 30.02,25.372 C29.6919984,26.0920036 29.1720036,27.2679918 28.46,28.9 C28.3479994,29.1640013 28.2320006,29.6439965 28.112,30.34 C28.0719998,30.6440015 28.0320002,30.9439985 27.992,31.24 C27.8799994,31.8640031 27.7320009,32.3679981 27.548,32.752 C27.2919987,33.2800026 26.9760019,33.544 26.6,33.544 C26.4959995,33.544 26.3600008,33.4640008 26.192,33.304 C26.1599998,32.4719958 26.2359991,31.6920036 26.42,30.964 C26.5320006,30.5399979 26.787998,29.8040052 27.188,28.756 C27.6360022,27.6039942 27.9999986,26.5520048 28.28,25.6 C28.2399998,25.5759999 28.0640016,25.524 27.752,25.444 C27.5119988,25.3719996 27.388,25.3080003 27.38,25.252 C27.3639999,25.1079993 27.3919996,24.9160012 27.464,24.676 C27.5680005,24.3159982 27.62,24.1160002 27.62,24.076 C27.628,24.076 27.8199981,24.0040007 28.196,23.86 C28.4520013,23.7639995 28.6119997,23.6720004 28.676,23.584 C28.7960006,23.391999 28.9199994,23.2040009 29.048,23.02 C29.1920007,22.8599992 29.4159985,22.78 29.72,22.78 C29.7680002,22.78 29.9979979,22.8079997 30.41,22.864 C30.8220021,22.9200003 31.0599997,22.948 31.124,22.948 C31.1960004,22.948 31.4399979,22.8680008 31.856,22.708 C32.3680026,22.507999 32.8039982,22.3600005 33.164,22.264 C33.764003,22.1039992 34.3239974,22.024 34.844,22.024 C35.4680031,22.024 36.0319975,22.1799984 36.536,22.492 C37.1600031,22.8760019 37.472,23.4159965 37.472,24.112 Z M42.52,22.264 C42.5600002,23.1680045 42.3560022,24.2039942 41.908,25.372 L40.708,28.324 C40.499999,28.924003 40.2760012,29.9439928 40.036,31.384 C39.8519991,31.5200007 39.6920007,31.588 39.556,31.588 C39.0279974,31.588 38.764,31.2080038 38.764,30.448 C38.764,29.7599966 38.8919987,29.0400038 39.148,28.288 C39.2680006,27.9199982 39.5959973,27.1060063 40.132,25.846 C40.6680027,24.5859937 41.1239981,23.4040055 41.5,22.3 C41.692001,22.1479992 41.887999,22.072 42.088,22.072 C42.2320007,22.072 42.3759993,22.1359994 42.52,22.264 Z M55.584,22.12 C55.584,22.4560017 55.284003,23.323993 54.684,24.724 C54.0359968,26.2440076 53.3800033,27.5439946 52.716,28.624 C51.8919959,29.9600067 51.2320025,30.628 50.736,30.628 C50.2959978,30.628 49.8320024,30.2160041 49.344,29.392 C48.9919982,28.799997 48.6320018,28.004005 48.264,27.004 L47.736,25.492 C47.2479976,26.5240052 46.7120029,28.0959894 46.128,30.208 C46.0879998,30.3760008 45.9300014,30.5519991 45.654,30.736 C45.3779986,30.9200009 45.1680007,31.012 45.024,31.012 C44.6639982,31.012 44.388001,30.8480016 44.196,30.52 C44.0519993,30.2799988 43.98,30.0160014 43.98,29.728 C43.98,29.3039979 44.0519993,28.9160018 44.196,28.564 C44.5640018,27.6759956 45.1799957,26.4400079 46.044,24.856 C46.5640026,23.8959952 47.0519977,23.1760024 47.508,22.696 C47.5720003,22.6319997 47.7279988,22.5840002 47.976,22.552 C48.3360018,22.5039998 48.5479997,22.4720001 48.612,22.456 C49.4840044,23.8720071 50.0399988,25.8119877 50.28,28.276 C50.3840005,28.3720005 50.5479989,28.523999 50.772,28.732 C51.2360023,27.923996 51.8119966,26.6960082 52.5,25.048 C52.9400022,24.0079948 53.2279993,23.3560013 53.364,23.092 C53.972003,21.9719944 54.5519972,21.412 55.104,21.412 C55.3440012,21.412 55.4959997,21.511999 55.56,21.712 C55.5760001,21.7600002 55.584,21.8959989 55.584,22.12 Z M67.712,26.896 C67.6319996,27.3200021 67.5480004,27.5919994 67.46,27.712 C67.3719996,27.8320006 67.224001,27.892 67.016,27.892 C66.9679998,27.892 66.8680008,27.888 66.716,27.88 C66.5639992,27.872 66.4360005,27.868 66.332,27.868 C66.3480001,27.868 66.2040015,27.8839998 65.9,27.916 C65.6519988,27.9400001 65.4800005,27.9400001 65.384,27.916 L65.24,29.044 C65.1279994,29.8200039 64.9800009,30.4399977 64.796,30.904 C64.5399987,31.5600033 64.2280018,31.888 63.86,31.888 C63.3159973,31.888 63.044,31.2440064 63.044,29.956 C63.044,29.6359984 63.0619998,29.274002 63.098,28.87 C63.1340002,28.465998 63.152,28.2759999 63.152,28.3 C63.1359999,28.2839999 63.13,28.2500003 63.134,28.198 C63.138,28.1459997 63.1120003,28.12 63.056,28.12 C62.8879992,28.12 62.4200038,28.1719995 61.652,28.276 C60.6919952,28.4120007 59.9560026,28.5559992 59.444,28.708 C59.4039998,28.716 59.2520013,28.8999982 58.988,29.26 C58.6759984,29.6840021 58.4920003,29.9279997 58.436,29.992 L57.5,31.24 C57.1479982,31.6720022 56.7520022,31.888 56.312,31.888 C55.6639968,31.888 55.34,31.584003 55.34,30.976 C55.34,30.4639974 56.5999874,29.0520116 59.12,26.74 C60.6160075,25.4199934 62.1079926,24.1000066 63.596,22.78 C63.7480008,22.6519994 63.9759985,22.5440004 64.28,22.456 C64.5600014,22.3839996 64.8199988,22.348 65.06,22.348 C65.460002,22.348 65.7119995,22.4959985 65.816,22.792 C65.8640002,22.9200006 65.888,23.2119977 65.888,23.668 L65.648,26.644 L67.316,26.644 C67.4840008,26.636 67.6159995,26.7199991 67.712,26.896 Z M63.236,26.572 L63.14,25.66 C63.0999998,25.2839981 63.0040008,25.0240007 62.852,24.88 C62.5559985,25.0960011 62.204002,25.4439976 61.796,25.924 C61.4919985,26.3000019 61.1880015,26.6719982 60.884,27.04 L63.236,26.572 Z M78.016,29.488 C78.016,30.1760034 77.5480047,30.7759974 76.612,31.288 C75.9159965,31.6720019 75.0080056,31.9839988 73.888,32.224 C73.0639959,32.4000009 72.4600019,32.488 72.076,32.488 C71.9239992,32.488 71.6200023,32.4360005 71.164,32.332 C70.6359974,32.2119994 70.2120016,32.0840007 69.892,31.948 L69.892,31.432 C69.884,30.9839978 70.0959978,30.5920017 70.528,30.256 L73.828,30.58 C74.7000044,30.5479998 75.5159962,30.3000023 76.276,29.836 L76.276,29.572 C75.7879976,28.9559969 74.8960065,28.5600009 73.6,28.384 C72.576,28.2559994 71.5560051,28.1280006 70.54,28 C69.5639951,27.7439987 69.076,27.1720044 69.076,26.284 C69.076,25.7159972 69.4839959,25.0800035 70.3,24.376 C70.9880034,23.7919971 71.8239951,23.2600024 72.808,22.78 C73.7280046,22.3399978 74.3999979,22.12 74.824,22.12 C75.416003,22.12 75.7519996,22.1279999 75.832,22.144 C76.1600016,22.2240004 76.3080002,22.4439982 76.276,22.804 C76.2359998,23.2600023 75.816004,23.6239986 75.016,23.896 C74.2559962,24.1280012 73.5000038,24.3599988 72.748,24.592 C71.9239959,24.9360017 71.4680004,25.4159969 71.38,26.032 C72.2040041,26.1520006 73.0239959,26.2719994 73.84,26.392 C75.0720062,26.584001 76.0159967,26.8679981 76.672,27.244 C77.5680045,27.7720026 78.016,28.5199952 78.016,29.488 Z" id="TAMARAFARINAS" fill="#4C5796" fill-rule="nonzero"></path>
            </g>
        </g>
    </g>
</svg>