<?xml version="1.0" encoding="UTF-8"?>
<svg width="773px" height="422px" viewBox="0 0 773 422" version="1.1" xmlns="http://www.w3.org/2000/svg" xmlns:xlink="http://www.w3.org/1999/xlink">
    <!-- Generator: Sketch 56.2 (81672) - https://sketch.com -->
    <title>Group 25</title>
    <desc>Created with Sketch.</desc>
    <defs>
        <path d="M29.2265625,51.265625 L25.921875,51.265625 L25.921875,56 L24.953125,56 L24.953125,44.625 L28.6484375,44.625 C29.8619852,44.625 30.8098924,44.9192679 31.4921875,45.5078125 C32.1744826,46.0963571 32.515625,46.9192655 32.515625,47.9765625 C32.515625,48.7057328 32.3020855,49.3489555 31.875,49.90625 C31.4479145,50.4635445 30.8750036,50.8489573 30.15625,51.0625 L33,55.8984375 L33,56 L31.9765625,56 L29.2265625,51.265625 Z M25.921875,50.4453125 L28.8671875,50.4453125 C29.6744832,50.4453125 30.3229142,50.2161481 30.8125,49.7578125 C31.3020858,49.2994769 31.546875,48.7057328 31.546875,47.9765625 C31.546875,47.1744752 31.2916692,46.5520855 30.78125,46.109375 C30.2708308,45.6666645 29.5546921,45.4453125 28.6328125,45.4453125 L25.921875,45.4453125 L25.921875,50.4453125 Z M37.9609375,56 L37.0234375,56 L37.0234375,47.546875 L37.9609375,47.546875 L37.9609375,56 Z M36.859375,45.1015625 C36.859375,44.9244783 36.9166661,44.7747402 37.03125,44.6523438 C37.1458339,44.5299473 37.3020823,44.46875 37.5,44.46875 C37.6979177,44.46875 37.8554682,44.5299473 37.9726562,44.6523438 C38.0898443,44.7747402 38.1484375,44.9244783 38.1484375,45.1015625 C38.1484375,45.2786467 38.0898443,45.4270827 37.9726562,45.546875 C37.8554682,45.6666673 37.6979177,45.7265625 37.5,45.7265625 C37.3020823,45.7265625 37.1458339,45.6666673 37.03125,45.546875 C36.9166661,45.4270827 36.859375,45.2786467 36.859375,45.1015625 Z M45.625,55.3671875 C46.2760449,55.3671875 46.8216124,55.1835956 47.2617188,54.8164062 C47.7018251,54.4492169 47.940104,53.9739612 47.9765625,53.390625 L48.875,53.390625 C48.8489582,53.9062526 48.6875015,54.3763 48.390625,54.8007812 C48.0937485,55.2252625 47.6992212,55.5572905 47.2070312,55.796875 C46.7148413,56.0364595 46.1875028,56.15625 45.625,56.15625 C44.515625,56.15625 43.636722,55.7708372 42.9882812,55 C42.3398405,54.2291628 42.015625,53.1927148 42.015625,51.890625 L42.015625,51.609375 C42.015625,50.7760375 42.1614569,50.0390657 42.453125,49.3984375 C42.7447931,48.7578093 43.1627577,48.2630226 43.7070312,47.9140625 C44.2513048,47.5651024 44.8880172,47.390625 45.6171875,47.390625 C46.5442755,47.390625 47.3085907,47.6666639 47.9101562,48.21875 C48.5117218,48.7708361 48.8333331,49.4973913 48.875,50.3984375 L47.9765625,50.3984375 C47.9348956,49.7369759 47.6966168,49.203127 47.2617188,48.796875 C46.8268207,48.390625 46.2786491,48.1875 45.6171875,48.1875 C44.7734333,48.1875 44.1184919,48.4921845 43.6523438,49.1015625 C43.1861956,49.7109405 42.953125,50.5650987 42.953125,51.6640625 L42.953125,51.9375 C42.953125,53.0156304 43.1861956,53.8567678 43.6523438,54.4609375 C44.1184919,55.0651072 44.7760374,55.3671875 45.625,55.3671875 Z M53.671875,48.9765625 C53.9791682,48.4713516 54.3723934,48.0807305 54.8515625,47.8046875 C55.3307316,47.5286445 55.8541638,47.390625 56.421875,47.390625 C57.3281295,47.390625 58.002602,47.6458308 58.4453125,48.15625 C58.888023,48.6666692 59.1119791,49.4322866 59.1171875,50.453125 L59.1171875,56 L58.1875,56 L58.1875,50.4453125 C58.1822916,49.6901004 58.022137,49.127606 57.7070312,48.7578125 C57.3919255,48.388019 56.8880243,48.203125 56.1953125,48.203125 C55.6171846,48.203125 55.105471,48.3841128 54.6601562,48.7460938 C54.2148415,49.1080747 53.8854177,49.5963511 53.671875,50.2109375 L53.671875,56 L52.7421875,56 L52.7421875,44 L53.671875,44 L53.671875,48.9765625 Z M68.859375,56 C68.7656245,55.7343737 68.7057293,55.3411484 68.6796875,54.8203125 C68.3515609,55.247398 67.9335963,55.5768218 67.4257812,55.8085938 C66.9179662,56.0403657 66.3802112,56.15625 65.8125,56.15625 C64.9999959,56.15625 64.3424504,55.9296898 63.8398438,55.4765625 C63.3372371,55.0234352 63.0859375,54.4505243 63.0859375,53.7578125 C63.0859375,52.9348917 63.428382,52.2838566 64.1132812,51.8046875 C64.7981805,51.3255184 65.752598,51.0859375 66.9765625,51.0859375 L68.671875,51.0859375 L68.671875,50.125 C68.671875,49.5208303 68.4856789,49.0455746 68.1132812,48.6992188 C67.7408836,48.3528629 67.1979202,48.1796875 66.484375,48.1796875 C65.8333301,48.1796875 65.294273,48.3463525 64.8671875,48.6796875 C64.440102,49.0130225 64.2265625,49.4140602 64.2265625,49.8828125 L63.2890625,49.875 C63.2890625,49.2031216 63.6015594,48.6210962 64.2265625,48.1289062 C64.8515656,47.6367163 65.6197871,47.390625 66.53125,47.390625 C67.473963,47.390625 68.2174452,47.6262997 68.7617188,48.0976562 C69.3059923,48.5690128 69.5859375,49.2265583 69.6015625,50.0703125 L69.6015625,54.0703125 C69.6015625,54.8880249 69.6874991,55.499998 69.859375,55.90625 L69.859375,56 L68.859375,56 Z M65.921875,55.328125 C66.5468781,55.328125 67.1054663,55.1770848 67.5976562,54.875 C68.0898462,54.5729152 68.4479155,54.1692734 68.671875,53.6640625 L68.671875,51.8046875 L67,51.8046875 C66.0677037,51.8151042 65.3385443,51.9856754 64.8125,52.3164062 C64.2864557,52.6471371 64.0234375,53.1015596 64.0234375,53.6796875 C64.0234375,54.1536482 64.199217,54.5468734 64.5507812,54.859375 C64.9023455,55.1718766 65.3593722,55.328125 65.921875,55.328125 Z M78,48.34375 C77.8020823,48.3072915 77.591147,48.2890625 77.3671875,48.2890625 C76.7838512,48.2890625 76.2903666,48.4518213 75.8867188,48.7773438 C75.4830709,49.1028662 75.1953134,49.5755177 75.0234375,50.1953125 L75.0234375,56 L74.09375,56 L74.09375,47.546875 L75.0078125,47.546875 L75.0234375,48.890625 C75.5182316,47.890625 76.3124945,47.390625 77.40625,47.390625 C77.666668,47.390625 77.8723951,47.4244788 78.0234375,47.4921875 L78,48.34375 Z M80.953125,51.6953125 C80.953125,50.3828059 81.2460908,49.3372435 81.8320312,48.5585938 C82.4179717,47.779944 83.2135366,47.390625 84.21875,47.390625 C85.3593807,47.390625 86.2291637,47.8411413 86.828125,48.7421875 L86.828125,44 L87.7578125,44 L87.7578125,56 L86.8828125,56 L86.84375,54.875 C86.2447887,55.7291709 85.3645891,56.15625 84.203125,56.15625 C83.2291618,56.15625 82.4440134,55.7643268 81.8476562,54.9804688 C81.2512991,54.1966107 80.953125,53.1380275 80.953125,51.8046875 L80.953125,51.6953125 Z M81.8984375,51.859375 C81.8984375,52.9375054 82.1145812,53.7877573 82.546875,54.4101562 C82.9791688,55.0325552 83.5885377,55.34375 84.375,55.34375 C85.5260474,55.34375 86.3437476,54.8359426 86.828125,53.8203125 L86.828125,49.8515625 C86.3437476,48.7525987 85.5312557,48.203125 84.390625,48.203125 C83.6041627,48.203125 82.9921897,48.5117157 82.5546875,49.1289062 C82.1171853,49.7460968 81.8984375,50.656244 81.8984375,51.859375 Z M53.7578125,88.453125 C53.6276035,89.6510477 53.1992224,90.5677052 52.4726562,91.203125 C51.7460901,91.8385448 50.7786519,92.15625 49.5703125,92.15625 C48.7265583,92.15625 47.980472,91.9453146 47.3320312,91.5234375 C46.6835905,91.1015604 46.1822934,90.5039101 45.828125,89.7304688 C45.4739566,88.9570274 45.2942709,88.0729216 45.2890625,87.078125 L45.2890625,85.6015625 C45.2890625,84.5911408 45.4661441,83.6953164 45.8203125,82.9140625 C46.1744809,82.1328086 46.6835904,81.52995 47.3476562,81.1054688 C48.0117221,80.6809875 48.7760373,80.46875 49.640625,80.46875 C50.8593811,80.46875 51.8216111,80.7981738 52.5273438,81.4570312 C53.2330764,82.1158887 53.6432286,83.0260359 53.7578125,84.1875 L52.7890625,84.1875 C52.549478,82.2551987 51.5000093,81.2890625 49.640625,81.2890625 C48.6093698,81.2890625 47.7877635,81.6744753 47.1757812,82.4453125 C46.563799,83.2161497 46.2578125,84.2812432 46.2578125,85.640625 L46.2578125,87.03125 C46.2578125,88.3437566 46.5559866,89.3906211 47.1523438,90.171875 C47.7487009,90.9531289 48.5546824,91.34375 49.5703125,91.34375 C50.5755259,91.34375 51.3333308,91.102867 51.84375,90.6210938 C52.3541692,90.1393205 52.6692702,89.4166715 52.7890625,88.453125 L53.7578125,88.453125 Z M63.2109375,92 C63.117187,91.7343737 63.0572918,91.3411484 63.03125,90.8203125 C62.7031234,91.247398 62.2851588,91.5768218 61.7773438,91.8085938 C61.2695287,92.0403657 60.7317737,92.15625 60.1640625,92.15625 C59.3515584,92.15625 58.6940129,91.9296898 58.1914062,91.4765625 C57.6887996,91.0234352 57.4375,90.4505243 57.4375,89.7578125 C57.4375,88.9348917 57.7799445,88.2838566 58.4648438,87.8046875 C59.149743,87.3255184 60.1041605,87.0859375 61.328125,87.0859375 L63.0234375,87.0859375 L63.0234375,86.125 C63.0234375,85.5208303 62.8372414,85.0455746 62.4648438,84.6992188 C62.0924461,84.3528629 61.5494827,84.1796875 60.8359375,84.1796875 C60.1848926,84.1796875 59.6458355,84.3463525 59.21875,84.6796875 C58.7916645,85.0130225 58.578125,85.4140602 58.578125,85.8828125 L57.640625,85.875 C57.640625,85.2031216 57.9531219,84.6210962 58.578125,84.1289062 C59.2031281,83.6367163 59.9713496,83.390625 60.8828125,83.390625 C61.8255255,83.390625 62.5690077,83.6262997 63.1132812,84.0976562 C63.6575548,84.5690128 63.9375,85.2265583 63.953125,86.0703125 L63.953125,90.0703125 C63.953125,90.8880249 64.0390616,91.499998 64.2109375,91.90625 L64.2109375,92 L63.2109375,92 Z M60.2734375,91.328125 C60.8984406,91.328125 61.4570288,91.1770848 61.9492188,90.875 C62.4414087,90.5729152 62.799478,90.1692734 63.0234375,89.6640625 L63.0234375,87.8046875 L61.3515625,87.8046875 C60.4192662,87.8151042 59.6901068,87.9856754 59.1640625,88.3164062 C58.6380182,88.6471371 58.375,89.1015596 58.375,89.6796875 C58.375,90.1536482 58.5507795,90.5468734 58.9023438,90.859375 C59.253908,91.1718766 59.7109347,91.328125 60.2734375,91.328125 Z M72.3515625,84.34375 C72.1536448,84.3072915 71.9427095,84.2890625 71.71875,84.2890625 C71.1354137,84.2890625 70.6419291,84.4518213 70.2382812,84.7773438 C69.8346334,85.1028662 69.5468759,85.5755177 69.375,86.1953125 L69.375,92 L68.4453125,92 L68.4453125,83.546875 L69.359375,83.546875 L69.375,84.890625 C69.8697941,83.890625 70.664057,83.390625 71.7578125,83.390625 C72.0182305,83.390625 72.2239576,83.4244788 72.375,83.4921875 L72.3515625,84.34375 Z M75.15625,87.6484375 C75.15625,86.8359334 75.3138005,86.1041699 75.6289062,85.453125 C75.944012,84.8020801 76.38932,84.2955747 76.9648438,83.9335938 C77.5403675,83.5716128 78.1927047,83.390625 78.921875,83.390625 C80.0468806,83.390625 80.9583298,83.7851523 81.65625,84.5742188 C82.3541702,85.3632852 82.703125,86.4088477 82.703125,87.7109375 L82.703125,87.90625 C82.703125,88.7239624 82.5455745,89.4596321 82.2304688,90.1132812 C81.915363,90.7669304 81.471357,91.2708316 80.8984375,91.625 C80.325518,91.9791684 79.6718787,92.15625 78.9375,92.15625 C77.8177027,92.15625 76.9075556,91.7617227 76.2070312,90.9726562 C75.5065069,90.1835898 75.15625,89.1380273 75.15625,87.8359375 L75.15625,87.6484375 Z M76.09375,87.90625 C76.09375,88.9166717 76.3554661,89.7460905 76.8789062,90.3945312 C77.4023464,91.042972 78.0885374,91.3671875 78.9375,91.3671875 C79.7812542,91.3671875 80.4648411,91.042972 80.9882812,90.3945312 C81.5117214,89.7460905 81.7734375,88.8906303 81.7734375,87.828125 L81.7734375,87.6484375 C81.7734375,87.0026009 81.653647,86.411461 81.4140625,85.875 C81.174478,85.338539 80.8385438,84.9231786 80.40625,84.6289062 C79.9739562,84.3346339 79.4791695,84.1875 78.921875,84.1875 C78.0885375,84.1875 77.4088568,84.5143196 76.8828125,85.1679688 C76.3567682,85.8216179 76.09375,86.677078 76.09375,87.734375 L76.09375,87.90625 Z M87.6796875,92 L86.7421875,92 L86.7421875,80 L87.6796875,80 L87.6796875,92 Z M45.5546875,128 L45.5546875,116.625 L48.9140625,116.625 C50.1328186,116.625 51.0572885,116.8763 51.6875,117.378906 C52.3177115,117.881513 52.6328125,118.622391 52.6328125,119.601562 C52.6328125,120.190107 52.4726579,120.701821 52.1523438,121.136719 C51.8320296,121.571617 51.393232,121.882812 50.8359375,122.070312 C51.4973991,122.216147 52.0299459,122.541664 52.4335938,123.046875 C52.8372416,123.552086 53.0390625,124.135413 53.0390625,124.796875 C53.0390625,125.802088 52.714847,126.587237 52.0664062,127.152344 C51.4179655,127.717451 50.5156308,128 49.359375,128 L45.5546875,128 Z M46.515625,122.53125 L46.515625,127.1875 L49.3984375,127.1875 C50.2213583,127.1875 50.8736955,126.977867 51.3554688,126.558594 C51.837242,126.139321 52.078125,125.557295 52.078125,124.8125 C52.078125,124.109371 51.8476586,123.553387 51.3867188,123.144531 C50.9257789,122.735675 50.2890666,122.53125 49.4765625,122.53125 L46.515625,122.53125 Z M46.515625,121.726562 L49.140625,121.726562 C49.9427123,121.710937 50.5637999,121.522137 51.0039062,121.160156 C51.4440126,120.798175 51.6640625,120.270837 51.6640625,119.578125 C51.6640625,118.848955 51.4362002,118.3112 50.9804688,117.964844 C50.5247373,117.618488 49.8359421,117.445312 48.9140625,117.445312 L46.515625,117.445312 L46.515625,121.726562 Z M62.4765625,128 C62.382812,127.734374 62.3229168,127.341148 62.296875,126.820312 C61.9687484,127.247398 61.5507838,127.576822 61.0429688,127.808594 C60.5351537,128.040366 59.9973987,128.15625 59.4296875,128.15625 C58.6171834,128.15625 57.9596379,127.92969 57.4570312,127.476562 C56.9544246,127.023435 56.703125,126.450524 56.703125,125.757812 C56.703125,124.934892 57.0455695,124.283857 57.7304688,123.804688 C58.415368,123.325518 59.3697855,123.085938 60.59375,123.085938 L62.2890625,123.085938 L62.2890625,122.125 C62.2890625,121.52083 62.1028664,121.045575 61.7304688,120.699219 C61.3580711,120.352863 60.8151077,120.179688 60.1015625,120.179688 C59.4505176,120.179688 58.9114605,120.346353 58.484375,120.679688 C58.0572895,121.013022 57.84375,121.41406 57.84375,121.882812 L56.90625,121.875 C56.90625,121.203122 57.2187469,120.621096 57.84375,120.128906 C58.4687531,119.636716 59.2369746,119.390625 60.1484375,119.390625 C61.0911505,119.390625 61.8346327,119.6263 62.3789062,120.097656 C62.9231798,120.569013 63.203125,121.226558 63.21875,122.070312 L63.21875,126.070312 C63.21875,126.888025 63.3046866,127.499998 63.4765625,127.90625 L63.4765625,128 L62.4765625,128 Z M59.5390625,127.328125 C60.1640656,127.328125 60.7226538,127.177085 61.2148438,126.875 C61.7070337,126.572915 62.065103,126.169273 62.2890625,125.664062 L62.2890625,123.804688 L60.6171875,123.804688 C59.6848912,123.815104 58.9557318,123.985675 58.4296875,124.316406 C57.9036432,124.647137 57.640625,125.10156 57.640625,125.679688 C57.640625,126.153648 57.8164045,126.546873 58.1679688,126.859375 C58.519533,127.171877 58.9765597,127.328125 59.5390625,127.328125 Z M71.6171875,120.34375 C71.4192698,120.307291 71.2083345,120.289062 70.984375,120.289062 C70.4010387,120.289062 69.9075541,120.451821 69.5039062,120.777344 C69.1002584,121.102866 68.8125009,121.575518 68.640625,122.195312 L68.640625,128 L67.7109375,128 L67.7109375,119.546875 L68.625,119.546875 L68.640625,120.890625 C69.1354191,119.890625 69.929682,119.390625 71.0234375,119.390625 C71.2838555,119.390625 71.4895826,119.424479 71.640625,119.492188 L71.6171875,120.34375 Z M79,120.34375 C78.8020823,120.307291 78.591147,120.289062 78.3671875,120.289062 C77.7838512,120.289062 77.2903666,120.451821 76.8867188,120.777344 C76.4830709,121.102866 76.1953134,121.575518 76.0234375,122.195312 L76.0234375,128 L75.09375,128 L75.09375,119.546875 L76.0078125,119.546875 L76.0234375,120.890625 C76.5182316,119.890625 77.3124945,119.390625 78.40625,119.390625 C78.666668,119.390625 78.8723951,119.424479 79.0234375,119.492188 L79,120.34375 Z M85.296875,126.65625 L87.765625,119.546875 L88.7734375,119.546875 L85.1640625,129.4375 L84.9765625,129.875 C84.5130185,130.901047 83.7968798,131.414062 82.828125,131.414062 C82.6041655,131.414062 82.3645846,131.377605 82.109375,131.304688 L82.1015625,130.53125 L82.5859375,130.578125 C83.0442731,130.578125 83.4153632,130.464845 83.6992188,130.238281 C83.9830743,130.011718 84.2239573,129.622399 84.421875,129.070312 L84.8359375,127.929688 L81.6484375,119.546875 L82.671875,119.546875 L85.296875,126.65625 Z M52.3359375,152.625 L56.53125,162.664062 L60.7421875,152.625 L62.0234375,152.625 L62.0234375,164 L61.0625,164 L61.0625,159.046875 L61.140625,153.96875 L56.90625,164 L56.1640625,164 L51.9453125,154.007812 L52.0234375,159.015625 L52.0234375,164 L51.0625,164 L51.0625,152.625 L52.3359375,152.625 Z M67.734375,164 L66.796875,164 L66.796875,155.546875 L67.734375,155.546875 L67.734375,164 Z M66.6328125,153.101562 C66.6328125,152.924478 66.6901036,152.77474 66.8046875,152.652344 C66.9192714,152.529947 67.0755198,152.46875 67.2734375,152.46875 C67.4713552,152.46875 67.6289057,152.529947 67.7460938,152.652344 C67.8632818,152.77474 67.921875,152.924478 67.921875,153.101562 C67.921875,153.278647 67.8632818,153.427083 67.7460938,153.546875 C67.6289057,153.666667 67.4713552,153.726562 67.2734375,153.726562 C67.0755198,153.726562 66.9192714,153.666667 66.8046875,153.546875 C66.6901036,153.427083 66.6328125,153.278647 66.6328125,153.101562 Z M74.28125,159.742188 L73.2109375,160.773438 L73.2109375,164 L72.2734375,164 L72.2734375,152 L73.2109375,152 L73.2109375,159.679688 L74.09375,158.726562 L77.328125,155.546875 L78.5078125,155.546875 L74.921875,159.109375 L78.8203125,164 L77.703125,164 L74.28125,159.742188 Z M85.2265625,164.15625 C84.5078089,164.15625 83.8580758,163.979168 83.2773438,163.625 C82.6966117,163.270832 82.2447933,162.777347 81.921875,162.144531 C81.5989567,161.511716 81.4375,160.802087 81.4375,160.015625 L81.4375,159.679688 C81.4375,158.867183 81.5950505,158.13542 81.9101562,157.484375 C82.225262,156.83333 82.6640597,156.321616 83.2265625,155.949219 C83.7890653,155.576821 84.3984342,155.390625 85.0546875,155.390625 C86.0807343,155.390625 86.8945282,155.740882 87.4960938,156.441406 C88.0976593,157.141931 88.3984375,158.098952 88.3984375,159.3125 L88.3984375,159.835938 L82.3671875,159.835938 L82.3671875,160.015625 C82.3671875,160.973963 82.6419243,161.772132 83.1914062,162.410156 C83.7408882,163.04818 84.4322875,163.367188 85.265625,163.367188 C85.7656275,163.367188 86.2070293,163.276043 86.5898438,163.09375 C86.9726582,162.911457 87.3203109,162.619794 87.6328125,162.21875 L88.21875,162.664062 C87.5312466,163.658859 86.5338607,164.15625 85.2265625,164.15625 Z M85.0546875,156.1875 C84.351559,156.1875 83.759117,156.44531 83.2773438,156.960938 C82.7955705,157.476565 82.5026047,158.169266 82.3984375,159.039062 L87.46875,159.039062 L87.46875,158.9375 C87.4427082,158.124996 87.2109397,157.463544 86.7734375,156.953125 C86.3359353,156.442706 85.7630244,156.1875 85.0546875,156.1875 Z M39.203125,188.625 L40.171875,188.625 L40.171875,196.617188 C40.171875,197.695318 39.8606802,198.554684 39.2382812,199.195312 C38.6158823,199.835941 37.7812552,200.15625 36.734375,200.15625 C35.6302028,200.15625 34.781253,199.86719 34.1875,199.289062 C33.593747,198.710935 33.296875,197.903651 33.296875,196.867188 L34.2578125,196.867188 C34.2578125,197.690108 34.4739562,198.308592 34.90625,198.722656 C35.3385438,199.136721 35.9479127,199.34375 36.734375,199.34375 C37.458337,199.34375 38.0481748,199.104169 38.5039062,198.625 C38.9596377,198.145831 39.1927083,197.494796 39.203125,196.671875 L39.203125,188.625 Z M50.1015625,200 C50.007812,199.734374 49.9479168,199.341148 49.921875,198.820312 C49.5937484,199.247398 49.1757838,199.576822 48.6679688,199.808594 C48.1601537,200.040366 47.6223987,200.15625 47.0546875,200.15625 C46.2421834,200.15625 45.5846379,199.92969 45.0820312,199.476562 C44.5794246,199.023435 44.328125,198.450524 44.328125,197.757812 C44.328125,196.934892 44.6705695,196.283857 45.3554688,195.804688 C46.040368,195.325518 46.9947855,195.085938 48.21875,195.085938 L49.9140625,195.085938 L49.9140625,194.125 C49.9140625,193.52083 49.7278664,193.045575 49.3554688,192.699219 C48.9830711,192.352863 48.4401077,192.179688 47.7265625,192.179688 C47.0755176,192.179688 46.5364605,192.346353 46.109375,192.679688 C45.6822895,193.013022 45.46875,193.41406 45.46875,193.882812 L44.53125,193.875 C44.53125,193.203122 44.8437469,192.621096 45.46875,192.128906 C46.0937531,191.636716 46.8619746,191.390625 47.7734375,191.390625 C48.7161505,191.390625 49.4596327,191.6263 50.0039062,192.097656 C50.5481798,192.569013 50.828125,193.226558 50.84375,194.070312 L50.84375,198.070312 C50.84375,198.888025 50.9296866,199.499998 51.1015625,199.90625 L51.1015625,200 L50.1015625,200 Z M47.1640625,199.328125 C47.7890656,199.328125 48.3476538,199.177085 48.8398438,198.875 C49.3320337,198.572915 49.690103,198.169273 49.9140625,197.664062 L49.9140625,195.804688 L48.2421875,195.804688 C47.3098912,195.815104 46.5807318,195.985675 46.0546875,196.316406 C45.5286432,196.647137 45.265625,197.10156 45.265625,197.679688 C45.265625,198.153648 45.4414045,198.546873 45.7929688,198.859375 C46.144533,199.171877 46.6015597,199.328125 47.1640625,199.328125 Z M56.2265625,191.546875 L56.2578125,192.992188 C56.5755224,192.471352 56.9713518,192.07422 57.4453125,191.800781 C57.9192732,191.527342 58.4427055,191.390625 59.015625,191.390625 C59.9218795,191.390625 60.596352,191.645831 61.0390625,192.15625 C61.481773,192.666669 61.7057291,193.432287 61.7109375,194.453125 L61.7109375,200 L60.78125,200 L60.78125,194.445312 C60.7760416,193.6901 60.615887,193.127606 60.3007812,192.757812 C59.9856755,192.388019 59.4817743,192.203125 58.7890625,192.203125 C58.2109346,192.203125 57.699221,192.384113 57.2539062,192.746094 C56.8085915,193.108075 56.4791677,193.596351 56.265625,194.210938 L56.265625,200 L55.3359375,200 L55.3359375,191.546875 L56.2265625,191.546875 Z M67.171875,200 L66.234375,200 L66.234375,191.546875 L67.171875,191.546875 L67.171875,200 Z M66.0703125,189.101562 C66.0703125,188.924478 66.1276036,188.77474 66.2421875,188.652344 C66.3567714,188.529947 66.5130198,188.46875 66.7109375,188.46875 C66.9088552,188.46875 67.0664057,188.529947 67.1835938,188.652344 C67.3007818,188.77474 67.359375,188.924478 67.359375,189.101562 C67.359375,189.278647 67.3007818,189.427083 67.1835938,189.546875 C67.0664057,189.666667 66.9088552,189.726562 66.7109375,189.726562 C66.5130198,189.726562 66.3567714,189.666667 66.2421875,189.546875 C66.1276036,189.427083 66.0703125,189.278647 66.0703125,189.101562 Z M74.8359375,199.367188 C75.4869824,199.367188 76.0325499,199.183596 76.4726562,198.816406 C76.9127626,198.449217 77.1510415,197.973961 77.1875,197.390625 L78.0859375,197.390625 C78.0598957,197.906253 77.898439,198.3763 77.6015625,198.800781 C77.304686,199.225263 76.9101587,199.55729 76.4179688,199.796875 C75.9257788,200.03646 75.3984403,200.15625 74.8359375,200.15625 C73.7265625,200.15625 72.8476595,199.770837 72.1992188,199 C71.550778,198.229163 71.2265625,197.192715 71.2265625,195.890625 L71.2265625,195.609375 C71.2265625,194.776037 71.3723944,194.039066 71.6640625,193.398438 C71.9557306,192.757809 72.3736952,192.263023 72.9179688,191.914062 C73.4622423,191.565102 74.0989547,191.390625 74.828125,191.390625 C75.755213,191.390625 76.5195282,191.666664 77.1210938,192.21875 C77.7226593,192.770836 78.0442706,193.497391 78.0859375,194.398438 L77.1875,194.398438 C77.1458331,193.736976 76.9075543,193.203127 76.4726562,192.796875 C76.0377582,192.390625 75.4895866,192.1875 74.828125,192.1875 C73.9843708,192.1875 73.3294294,192.492184 72.8632812,193.101562 C72.3971331,193.710941 72.1640625,194.565099 72.1640625,195.664062 L72.1640625,195.9375 C72.1640625,197.01563 72.3971331,197.856768 72.8632812,198.460938 C73.3294294,199.065107 73.9869749,199.367188 74.8359375,199.367188 Z M85.2265625,200.15625 C84.5078089,200.15625 83.8580758,199.979168 83.2773438,199.625 C82.6966117,199.270832 82.2447933,198.777347 81.921875,198.144531 C81.5989567,197.511716 81.4375,196.802087 81.4375,196.015625 L81.4375,195.679688 C81.4375,194.867183 81.5950505,194.13542 81.9101562,193.484375 C82.225262,192.83333 82.6640597,192.321616 83.2265625,191.949219 C83.7890653,191.576821 84.3984342,191.390625 85.0546875,191.390625 C86.0807343,191.390625 86.8945282,191.740882 87.4960938,192.441406 C88.0976593,193.141931 88.3984375,194.098952 88.3984375,195.3125 L88.3984375,195.835938 L82.3671875,195.835938 L82.3671875,196.015625 C82.3671875,196.973963 82.6419243,197.772132 83.1914062,198.410156 C83.7408882,199.04818 84.4322875,199.367188 85.265625,199.367188 C85.7656275,199.367188 86.2070293,199.276043 86.5898438,199.09375 C86.9726582,198.911457 87.3203109,198.619794 87.6328125,198.21875 L88.21875,198.664062 C87.5312466,199.658859 86.5338607,200.15625 85.2265625,200.15625 Z M85.0546875,192.1875 C84.351559,192.1875 83.759117,192.44531 83.2773438,192.960938 C82.7955705,193.476565 82.5026047,194.169266 82.3984375,195.039062 L87.46875,195.039062 L87.46875,194.9375 C87.4427082,194.124996 87.2109397,193.463544 86.7734375,192.953125 C86.3359353,192.442706 85.7630244,192.1875 85.0546875,192.1875 Z M43.3359375,236 L43.3359375,224.625 L46.515625,224.625 C47.4479213,224.625 48.2838505,224.837237 49.0234375,225.261719 C49.7630245,225.6862 50.3398417,226.294267 50.7539062,227.085938 C51.1679708,227.877608 51.375,228.778641 51.375,229.789062 L51.375,230.835938 C51.375,231.851568 51.1692729,232.7526 50.7578125,233.539062 C50.3463521,234.325525 49.7669308,234.93229 49.0195312,235.359375 C48.2721317,235.78646 47.4140673,236 46.4453125,236 L43.3359375,236 Z M44.296875,225.445312 L44.296875,235.1875 L46.453125,235.1875 C47.6510477,235.1875 48.6119755,234.790369 49.3359375,233.996094 C50.0598995,233.201819 50.421875,232.127611 50.421875,230.773438 L50.421875,229.773438 C50.421875,228.466139 50.0651077,227.419275 49.3515625,226.632812 C48.6380173,225.84635 47.6979225,225.450521 46.53125,225.445312 L44.296875,225.445312 Z M60.9296875,236 C60.835937,235.734374 60.7760418,235.341148 60.75,234.820312 C60.4218734,235.247398 60.0039088,235.576822 59.4960938,235.808594 C58.9882787,236.040366 58.4505237,236.15625 57.8828125,236.15625 C57.0703084,236.15625 56.4127629,235.92969 55.9101562,235.476562 C55.4075496,235.023435 55.15625,234.450524 55.15625,233.757812 C55.15625,232.934892 55.4986945,232.283857 56.1835938,231.804688 C56.868493,231.325518 57.8229105,231.085938 59.046875,231.085938 L60.7421875,231.085938 L60.7421875,230.125 C60.7421875,229.52083 60.5559914,229.045575 60.1835938,228.699219 C59.8111961,228.352863 59.2682327,228.179688 58.5546875,228.179688 C57.9036426,228.179688 57.3645855,228.346353 56.9375,228.679688 C56.5104145,229.013022 56.296875,229.41406 56.296875,229.882812 L55.359375,229.875 C55.359375,229.203122 55.6718719,228.621096 56.296875,228.128906 C56.9218781,227.636716 57.6900996,227.390625 58.6015625,227.390625 C59.5442755,227.390625 60.2877577,227.6263 60.8320312,228.097656 C61.3763048,228.569013 61.65625,229.226558 61.671875,230.070312 L61.671875,234.070312 C61.671875,234.888025 61.7578116,235.499998 61.9296875,235.90625 L61.9296875,236 L60.9296875,236 Z M57.9921875,235.328125 C58.6171906,235.328125 59.1757788,235.177085 59.6679688,234.875 C60.1601587,234.572915 60.518228,234.169273 60.7421875,233.664062 L60.7421875,231.804688 L59.0703125,231.804688 C58.1380162,231.815104 57.4088568,231.985675 56.8828125,232.316406 C56.3567682,232.647137 56.09375,233.10156 56.09375,233.679688 C56.09375,234.153648 56.2695295,234.546873 56.6210938,234.859375 C56.972658,235.171877 57.4296847,235.328125 57.9921875,235.328125 Z M68.6796875,234.710938 L71.25,227.546875 L72.2109375,227.546875 L69.0546875,236 L68.296875,236 L65.125,227.546875 L66.0859375,227.546875 L68.6796875,234.710938 Z M76.7890625,236 L75.8515625,236 L75.8515625,227.546875 L76.7890625,227.546875 L76.7890625,236 Z M75.6875,225.101562 C75.6875,224.924478 75.7447911,224.77474 75.859375,224.652344 C75.9739589,224.529947 76.1302073,224.46875 76.328125,224.46875 C76.5260427,224.46875 76.6835932,224.529947 76.8007812,224.652344 C76.9179693,224.77474 76.9765625,224.924478 76.9765625,225.101562 C76.9765625,225.278647 76.9179693,225.427083 76.8007812,225.546875 C76.6835932,225.666667 76.5260427,225.726562 76.328125,225.726562 C76.1302073,225.726562 75.9739589,225.666667 75.859375,225.546875 C75.7447911,225.427083 75.6875,225.278647 75.6875,225.101562 Z M80.953125,231.695312 C80.953125,230.382806 81.2460908,229.337243 81.8320312,228.558594 C82.4179717,227.779944 83.2135366,227.390625 84.21875,227.390625 C85.3593807,227.390625 86.2291637,227.841141 86.828125,228.742188 L86.828125,224 L87.7578125,224 L87.7578125,236 L86.8828125,236 L86.84375,234.875 C86.2447887,235.729171 85.3645891,236.15625 84.203125,236.15625 C83.2291618,236.15625 82.4440134,235.764327 81.8476562,234.980469 C81.2512991,234.196611 80.953125,233.138027 80.953125,231.804688 L80.953125,231.695312 Z M81.8984375,231.859375 C81.8984375,232.937505 82.1145812,233.787757 82.546875,234.410156 C82.9791688,235.032555 83.5885377,235.34375 84.375,235.34375 C85.5260474,235.34375 86.3437476,234.835943 86.828125,233.820312 L86.828125,229.851562 C86.3437476,228.752599 85.5312557,228.203125 84.390625,228.203125 C83.6041627,228.203125 82.9921897,228.511716 82.5546875,229.128906 C82.1171853,229.746097 81.8984375,230.656244 81.8984375,231.859375 Z M6.390625,266.6875 L1.0859375,266.6875 L1.0859375,272 L0.125,272 L0.125,260.625 L7.171875,260.625 L7.171875,261.445312 L1.0859375,261.445312 L1.0859375,265.867188 L6.390625,265.867188 L6.390625,266.6875 Z M16.171875,270.929688 C15.6093722,271.7474 14.7109437,272.15625 13.4765625,272.15625 C12.5755163,272.15625 11.8906273,271.894534 11.421875,271.371094 C10.9531227,270.847654 10.7135417,270.072922 10.703125,269.046875 L10.703125,263.546875 L11.6328125,263.546875 L11.6328125,268.929688 C11.6328125,270.539071 12.2838477,271.34375 13.5859375,271.34375 C14.9401109,271.34375 15.7968732,270.78386 16.15625,269.664062 L16.15625,263.546875 L17.09375,263.546875 L17.09375,272 L16.1875,272 L16.171875,270.929688 Z M22.4140625,263.546875 L22.4453125,264.992188 C22.7630224,264.471352 23.1588518,264.07422 23.6328125,263.800781 C24.1067732,263.527342 24.6302055,263.390625 25.203125,263.390625 C26.1093795,263.390625 26.783852,263.645831 27.2265625,264.15625 C27.669273,264.666669 27.8932291,265.432287 27.8984375,266.453125 L27.8984375,272 L26.96875,272 L26.96875,266.445312 C26.9635416,265.6901 26.803387,265.127606 26.4882812,264.757812 C26.1731755,264.388019 25.6692743,264.203125 24.9765625,264.203125 C24.3984346,264.203125 23.886721,264.384113 23.4414062,264.746094 C22.9960915,265.108075 22.6666677,265.596351 22.453125,266.210938 L22.453125,272 L21.5234375,272 L21.5234375,263.546875 L22.4140625,263.546875 Z M38.421875,272 L38.421875,260.625 L41.78125,260.625 C43.0000061,260.625 43.924476,260.8763 44.5546875,261.378906 C45.184899,261.881513 45.5,262.622391 45.5,263.601562 C45.5,264.190107 45.3398454,264.701821 45.0195312,265.136719 C44.6992171,265.571617 44.2604195,265.882812 43.703125,266.070312 C44.3645866,266.216147 44.8971334,266.541664 45.3007812,267.046875 C45.7044291,267.552086 45.90625,268.135413 45.90625,268.796875 C45.90625,269.802088 45.5820345,270.587237 44.9335938,271.152344 C44.285153,271.717451 43.3828183,272 42.2265625,272 L38.421875,272 Z M39.3828125,266.53125 L39.3828125,271.1875 L42.265625,271.1875 C43.0885458,271.1875 43.740883,270.977867 44.2226562,270.558594 C44.7044295,270.139321 44.9453125,269.557295 44.9453125,268.8125 C44.9453125,268.109371 44.7148461,267.553387 44.2539062,267.144531 C43.7929664,266.735675 43.1562541,266.53125 42.34375,266.53125 L39.3828125,266.53125 Z M39.3828125,265.726562 L42.0078125,265.726562 C42.8098998,265.710937 43.4309874,265.522137 43.8710938,265.160156 C44.3112001,264.798175 44.53125,264.270837 44.53125,263.578125 C44.53125,262.848955 44.3033877,262.3112 43.8476562,261.964844 C43.3919248,261.618488 42.7031296,261.445312 41.78125,261.445312 L39.3828125,261.445312 L39.3828125,265.726562 Z M49.4921875,267.648438 C49.4921875,266.835933 49.649738,266.10417 49.9648438,265.453125 C50.2799495,264.80208 50.7252575,264.295575 51.3007812,263.933594 C51.876305,263.571613 52.5286422,263.390625 53.2578125,263.390625 C54.3828181,263.390625 55.2942673,263.785152 55.9921875,264.574219 C56.6901077,265.363285 57.0390625,266.408848 57.0390625,267.710938 L57.0390625,267.90625 C57.0390625,268.723962 56.881512,269.459632 56.5664062,270.113281 C56.2513005,270.76693 55.8072945,271.270832 55.234375,271.625 C54.6614555,271.979168 54.0078162,272.15625 53.2734375,272.15625 C52.1536402,272.15625 51.2434931,271.761723 50.5429688,270.972656 C49.8424444,270.18359 49.4921875,269.138027 49.4921875,267.835938 L49.4921875,267.648438 Z M50.4296875,267.90625 C50.4296875,268.916672 50.6914036,269.746091 51.2148438,270.394531 C51.7382839,271.042972 52.4244749,271.367188 53.2734375,271.367188 C54.1171917,271.367188 54.8007786,271.042972 55.3242188,270.394531 C55.8476589,269.746091 56.109375,268.89063 56.109375,267.828125 L56.109375,267.648438 C56.109375,267.002601 55.9895845,266.411461 55.75,265.875 C55.5104155,265.338539 55.1744813,264.923179 54.7421875,264.628906 C54.3098937,264.334634 53.815107,264.1875 53.2578125,264.1875 C52.424475,264.1875 51.7447943,264.51432 51.21875,265.167969 C50.6927057,265.821618 50.4296875,266.677078 50.4296875,267.734375 L50.4296875,267.90625 Z M67.7734375,267.859375 C67.7734375,269.17709 67.4817738,270.222652 66.8984375,270.996094 C66.3151012,271.769535 65.5312549,272.15625 64.546875,272.15625 C63.3697858,272.15625 62.4791697,271.718754 61.875,270.84375 L61.8359375,272 L60.9609375,272 L60.9609375,260 L61.890625,260 L61.890625,264.773438 C62.484378,263.851558 63.3645775,263.390625 64.53125,263.390625 C65.531255,263.390625 66.3216117,263.772132 66.9023438,264.535156 C67.4830758,265.298181 67.7734375,266.359368 67.7734375,267.71875 L67.7734375,267.859375 Z M66.8359375,267.695312 C66.8359375,266.580724 66.6197938,265.720055 66.1875,265.113281 C65.7552062,264.506507 65.1458373,264.203125 64.359375,264.203125 C63.7604137,264.203125 63.2526062,264.350259 62.8359375,264.644531 C62.4192688,264.938804 62.1041677,265.369789 61.890625,265.9375 L61.890625,269.75 C62.3593773,270.812505 63.1874941,271.34375 64.375,271.34375 C65.1458372,271.34375 65.7486957,271.039066 66.1835938,270.429688 C66.6184918,269.820309 66.8359375,268.90886 66.8359375,267.695312 Z M78.640625,267.859375 C78.640625,269.17709 78.3489613,270.222652 77.765625,270.996094 C77.1822887,271.769535 76.3984424,272.15625 75.4140625,272.15625 C74.2369733,272.15625 73.3463572,271.718754 72.7421875,270.84375 L72.703125,272 L71.828125,272 L71.828125,260 L72.7578125,260 L72.7578125,264.773438 C73.3515655,263.851558 74.231765,263.390625 75.3984375,263.390625 C76.3984425,263.390625 77.1887992,263.772132 77.7695312,264.535156 C78.3502633,265.298181 78.640625,266.359368 78.640625,267.71875 L78.640625,267.859375 Z M77.703125,267.695312 C77.703125,266.580724 77.4869813,265.720055 77.0546875,265.113281 C76.6223937,264.506507 76.0130248,264.203125 75.2265625,264.203125 C74.6276012,264.203125 74.1197937,264.350259 73.703125,264.644531 C73.2864563,264.938804 72.9713552,265.369789 72.7578125,265.9375 L72.7578125,269.75 C73.2265648,270.812505 74.0546816,271.34375 75.2421875,271.34375 C76.0130247,271.34375 76.6158832,271.039066 77.0507812,270.429688 C77.4856793,269.820309 77.703125,268.90886 77.703125,267.695312 Z M85.296875,270.65625 L87.765625,263.546875 L88.7734375,263.546875 L85.1640625,273.4375 L84.9765625,273.875 C84.5130185,274.901047 83.7968798,275.414062 82.828125,275.414062 C82.6041655,275.414062 82.3645846,275.377605 82.109375,275.304688 L82.1015625,274.53125 L82.5859375,274.578125 C83.0442731,274.578125 83.4153632,274.464845 83.6992188,274.238281 C83.9830743,274.011718 84.2239573,273.622399 84.421875,273.070312 L84.8359375,271.929688 L81.6484375,263.546875 L82.671875,263.546875 L85.296875,270.65625 Z M45.546875,296.625 L49.7421875,306.664062 L53.953125,296.625 L55.234375,296.625 L55.234375,308 L54.2734375,308 L54.2734375,303.046875 L54.3515625,297.96875 L50.1171875,308 L49.375,308 L45.15625,298.007812 L45.234375,303.015625 L45.234375,308 L44.2734375,308 L44.2734375,296.625 L45.546875,296.625 Z M59.3828125,303.648438 C59.3828125,302.835933 59.540363,302.10417 59.8554688,301.453125 C60.1705745,300.80208 60.6158825,300.295575 61.1914062,299.933594 C61.76693,299.571613 62.4192672,299.390625 63.1484375,299.390625 C64.2734431,299.390625 65.1848923,299.785152 65.8828125,300.574219 C66.5807327,301.363285 66.9296875,302.408848 66.9296875,303.710938 L66.9296875,303.90625 C66.9296875,304.723962 66.772137,305.459632 66.4570312,306.113281 C66.1419255,306.76693 65.6979195,307.270832 65.125,307.625 C64.5520805,307.979168 63.8984412,308.15625 63.1640625,308.15625 C62.0442652,308.15625 61.1341181,307.761723 60.4335938,306.972656 C59.7330694,306.18359 59.3828125,305.138027 59.3828125,303.835938 L59.3828125,303.648438 Z M60.3203125,303.90625 C60.3203125,304.916672 60.5820286,305.746091 61.1054688,306.394531 C61.6289089,307.042972 62.3150999,307.367188 63.1640625,307.367188 C64.0078167,307.367188 64.6914036,307.042972 65.2148438,306.394531 C65.7382839,305.746091 66,304.89063 66,303.828125 L66,303.648438 C66,303.002601 65.8802095,302.411461 65.640625,301.875 C65.4010405,301.338539 65.0651063,300.923179 64.6328125,300.628906 C64.2005187,300.334634 63.705732,300.1875 63.1484375,300.1875 C62.3151,300.1875 61.6354193,300.51432 61.109375,301.167969 C60.5833307,301.821618 60.3203125,302.677078 60.3203125,303.734375 L60.3203125,303.90625 Z M71.75,299.546875 L71.78125,300.992188 C72.0989599,300.471352 72.4947893,300.07422 72.96875,299.800781 C73.4427107,299.527342 73.966143,299.390625 74.5390625,299.390625 C75.445317,299.390625 76.1197895,299.645831 76.5625,300.15625 C77.0052105,300.666669 77.2291666,301.432287 77.234375,302.453125 L77.234375,308 L76.3046875,308 L76.3046875,302.445312 C76.2994791,301.6901 76.1393245,301.127606 75.8242188,300.757812 C75.509113,300.388019 75.0052118,300.203125 74.3125,300.203125 C73.7343721,300.203125 73.2226585,300.384113 72.7773438,300.746094 C72.332029,301.108075 72.0026052,301.596351 71.7890625,302.210938 L71.7890625,308 L70.859375,308 L70.859375,299.546875 L71.75,299.546875 Z M86.984375,308 C86.8906245,307.734374 86.8307293,307.341148 86.8046875,306.820312 C86.4765609,307.247398 86.0585963,307.576822 85.5507812,307.808594 C85.0429662,308.040366 84.5052112,308.15625 83.9375,308.15625 C83.1249959,308.15625 82.4674504,307.92969 81.9648438,307.476562 C81.4622371,307.023435 81.2109375,306.450524 81.2109375,305.757812 C81.2109375,304.934892 81.553382,304.283857 82.2382812,303.804688 C82.9231805,303.325518 83.877598,303.085938 85.1015625,303.085938 L86.796875,303.085938 L86.796875,302.125 C86.796875,301.52083 86.6106789,301.045575 86.2382812,300.699219 C85.8658836,300.352863 85.3229202,300.179688 84.609375,300.179688 C83.9583301,300.179688 83.419273,300.346353 82.9921875,300.679688 C82.565102,301.013022 82.3515625,301.41406 82.3515625,301.882812 L81.4140625,301.875 C81.4140625,301.203122 81.7265594,300.621096 82.3515625,300.128906 C82.9765656,299.636716 83.7447871,299.390625 84.65625,299.390625 C85.598963,299.390625 86.3424452,299.6263 86.8867188,300.097656 C87.4309923,300.569013 87.7109375,301.226558 87.7265625,302.070312 L87.7265625,306.070312 C87.7265625,306.888025 87.8124991,307.499998 87.984375,307.90625 L87.984375,308 L86.984375,308 Z M84.046875,307.328125 C84.6718781,307.328125 85.2304663,307.177085 85.7226562,306.875 C86.2148462,306.572915 86.5729155,306.169273 86.796875,305.664062 L86.796875,303.804688 L85.125,303.804688 C84.1927037,303.815104 83.4635443,303.985675 82.9375,304.316406 C82.4114557,304.647137 82.1484375,305.10156 82.1484375,305.679688 C82.1484375,306.153648 82.324217,306.546873 82.6757812,306.859375 C83.0273455,307.171877 83.4843722,307.328125 84.046875,307.328125 Z M38.5,340.8125 L33.3359375,340.8125 L32.1640625,344 L31.15625,344 L35.4609375,332.625 L36.375,332.625 L40.6796875,344 L39.6796875,344 L38.5,340.8125 Z M33.6328125,339.992188 L38.1953125,339.992188 L35.9140625,333.796875 L33.6328125,339.992188 Z M45.0234375,335.546875 L45.0546875,336.992188 C45.3723974,336.471352 45.7682268,336.07422 46.2421875,335.800781 C46.7161482,335.527342 47.2395805,335.390625 47.8125,335.390625 C48.7187545,335.390625 49.393227,335.645831 49.8359375,336.15625 C50.278648,336.666669 50.5026041,337.432287 50.5078125,338.453125 L50.5078125,344 L49.578125,344 L49.578125,338.445312 C49.5729166,337.6901 49.412762,337.127606 49.0976562,336.757812 C48.7825505,336.388019 48.2786493,336.203125 47.5859375,336.203125 C47.0078096,336.203125 46.496096,336.384113 46.0507812,336.746094 C45.6054665,337.108075 45.2760427,337.596351 45.0625,338.210938 L45.0625,344 L44.1328125,344 L44.1328125,335.546875 L45.0234375,335.546875 Z M54.546875,339.695312 C54.546875,338.372389 54.8398408,337.324223 55.4257812,336.550781 C56.0117217,335.77734 56.8072866,335.390625 57.8125,335.390625 C58.9635474,335.390625 59.8385387,335.848954 60.4375,336.765625 L60.484375,335.546875 L61.359375,335.546875 L61.359375,343.828125 C61.359375,344.916672 61.0546905,345.778643 60.4453125,346.414062 C59.8359345,347.049482 59.0104219,347.367188 57.96875,347.367188 C57.3802054,347.367188 56.8190131,347.235678 56.2851562,346.972656 C55.7512994,346.709634 55.3307307,346.359377 55.0234375,345.921875 L55.546875,345.359375 C56.2083366,346.171879 56.9947871,346.578125 57.90625,346.578125 C58.6875039,346.578125 59.2968728,346.347659 59.734375,345.886719 C60.1718772,345.425779 60.3984374,344.786462 60.4140625,343.96875 L60.4140625,342.90625 C59.8151012,343.739588 58.9427141,344.15625 57.796875,344.15625 C56.8177034,344.15625 56.031253,343.765629 55.4375,342.984375 C54.843747,342.203121 54.546875,341.148444 54.546875,339.820312 L54.546875,339.695312 Z M55.4921875,339.859375 C55.4921875,340.937505 55.7083312,341.787757 56.140625,342.410156 C56.5729188,343.032555 57.1822877,343.34375 57.96875,343.34375 C59.1197974,343.34375 59.9348934,342.82813 60.4140625,341.796875 L60.4140625,337.867188 C60.1953114,337.325518 59.8802104,336.912762 59.46875,336.628906 C59.0572896,336.345051 58.5625029,336.203125 57.984375,336.203125 C57.1979127,336.203125 56.5859397,336.511716 56.1484375,337.128906 C55.7109353,337.746097 55.4921875,338.656244 55.4921875,339.859375 Z M69.0703125,344.15625 C68.3515589,344.15625 67.7018258,343.979168 67.1210938,343.625 C66.5403617,343.270832 66.0885433,342.777347 65.765625,342.144531 C65.4427067,341.511716 65.28125,340.802087 65.28125,340.015625 L65.28125,339.679688 C65.28125,338.867183 65.4388005,338.13542 65.7539062,337.484375 C66.069012,336.83333 66.5078097,336.321616 67.0703125,335.949219 C67.6328153,335.576821 68.2421842,335.390625 68.8984375,335.390625 C69.9244843,335.390625 70.7382782,335.740882 71.3398438,336.441406 C71.9414093,337.141931 72.2421875,338.098952 72.2421875,339.3125 L72.2421875,339.835938 L66.2109375,339.835938 L66.2109375,340.015625 C66.2109375,340.973963 66.4856743,341.772132 67.0351562,342.410156 C67.5846382,343.04818 68.2760375,343.367188 69.109375,343.367188 C69.6093775,343.367188 70.0507793,343.276043 70.4335938,343.09375 C70.8164082,342.911457 71.1640609,342.619794 71.4765625,342.21875 L72.0625,342.664062 C71.3749966,343.658859 70.3776107,344.15625 69.0703125,344.15625 Z M68.8984375,336.1875 C68.195309,336.1875 67.602867,336.44531 67.1210938,336.960938 C66.6393205,337.476565 66.3463547,338.169266 66.2421875,339.039062 L71.3125,339.039062 L71.3125,338.9375 C71.2864582,338.124996 71.0546897,337.463544 70.6171875,336.953125 C70.1796853,336.442706 69.6067744,336.1875 68.8984375,336.1875 Z M77.109375,344 L76.171875,344 L76.171875,332 L77.109375,332 L77.109375,344 Z M86.984375,344 C86.8906245,343.734374 86.8307293,343.341148 86.8046875,342.820312 C86.4765609,343.247398 86.0585963,343.576822 85.5507812,343.808594 C85.0429662,344.040366 84.5052112,344.15625 83.9375,344.15625 C83.1249959,344.15625 82.4674504,343.92969 81.9648438,343.476562 C81.4622371,343.023435 81.2109375,342.450524 81.2109375,341.757812 C81.2109375,340.934892 81.553382,340.283857 82.2382812,339.804688 C82.9231805,339.325518 83.877598,339.085938 85.1015625,339.085938 L86.796875,339.085938 L86.796875,338.125 C86.796875,337.52083 86.6106789,337.045575 86.2382812,336.699219 C85.8658836,336.352863 85.3229202,336.179688 84.609375,336.179688 C83.9583301,336.179688 83.419273,336.346353 82.9921875,336.679688 C82.565102,337.013022 82.3515625,337.41406 82.3515625,337.882812 L81.4140625,337.875 C81.4140625,337.203122 81.7265594,336.621096 82.3515625,336.128906 C82.9765656,335.636716 83.7447871,335.390625 84.65625,335.390625 C85.598963,335.390625 86.3424452,335.6263 86.8867188,336.097656 C87.4309923,336.569013 87.7109375,337.226558 87.7265625,338.070312 L87.7265625,342.070312 C87.7265625,342.888025 87.8124991,343.499998 87.984375,343.90625 L87.984375,344 L86.984375,344 Z M84.046875,343.328125 C84.6718781,343.328125 85.2304663,343.177085 85.7226562,342.875 C86.2148462,342.572915 86.5729155,342.169273 86.796875,341.664062 L86.796875,339.804688 L85.125,339.804688 C84.1927037,339.815104 83.4635443,339.985675 82.9375,340.316406 C82.4114557,340.647137 82.1484375,341.10156 82.1484375,341.679688 C82.1484375,342.153648 82.324217,342.546873 82.6757812,342.859375 C83.0273455,343.171877 83.4843722,343.328125 84.046875,343.328125 Z M50.234375,377.203125 C50.234375,376.572914 50.013023,376.074221 49.5703125,375.707031 C49.127602,375.339842 48.3177142,374.990887 47.140625,374.660156 C45.9635358,374.329425 45.1041694,373.96875 44.5625,373.578125 C43.7916628,373.026039 43.40625,372.302088 43.40625,371.40625 C43.40625,370.536454 43.7643193,369.82943 44.4804688,369.285156 C45.1966182,368.740883 46.1119736,368.46875 47.2265625,368.46875 C47.9817746,368.46875 48.6575491,368.614582 49.2539062,368.90625 C49.8502634,369.197918 50.3124984,369.604164 50.640625,370.125 C50.9687516,370.645836 51.1328125,371.226559 51.1328125,371.867188 L50.1640625,371.867188 C50.1640625,371.091142 49.8984402,370.46745 49.3671875,369.996094 C48.8359348,369.524737 48.1224003,369.289062 47.2265625,369.289062 C46.3567665,369.289062 45.6640651,369.483071 45.1484375,369.871094 C44.6328099,370.259117 44.375,370.765622 44.375,371.390625 C44.375,371.96875 44.6067685,372.440102 45.0703125,372.804688 C45.5338565,373.169273 46.2760366,373.490884 47.296875,373.769531 C48.3177134,374.048178 49.0911432,374.337238 49.6171875,374.636719 C50.1432318,374.936199 50.5390612,375.294269 50.8046875,375.710938 C51.0703138,376.127606 51.203125,376.619789 51.203125,377.1875 C51.203125,378.083338 50.8450557,378.802081 50.1289062,379.34375 C49.4127568,379.885419 48.4687559,380.15625 47.296875,380.15625 C46.4947877,380.15625 45.7591179,380.013022 45.0898438,379.726562 C44.4205696,379.440103 43.9127621,379.039065 43.5664062,378.523438 C43.2200504,378.00781 43.046875,377.41667 43.046875,376.75 L44.0078125,376.75 C44.0078125,377.552087 44.3072887,378.184894 44.90625,378.648438 C45.5052113,379.111981 46.3020784,379.34375 47.296875,379.34375 C48.1822961,379.34375 48.8932265,379.148439 49.4296875,378.757812 C49.9661485,378.367186 50.234375,377.848962 50.234375,377.203125 Z M56.5078125,369.382812 L56.5078125,371.546875 L58.2578125,371.546875 L58.2578125,372.3125 L56.5078125,372.3125 L56.5078125,377.945312 C56.5078125,378.414065 56.5924471,378.76302 56.7617188,378.992188 C56.9309904,379.221355 57.2135397,379.335938 57.609375,379.335938 C57.7656258,379.335938 58.0182274,379.309896 58.3671875,379.257812 L58.40625,380.023438 C58.1614571,380.11198 57.8281271,380.15625 57.40625,380.15625 C56.7656218,380.15625 56.2994806,379.970054 56.0078125,379.597656 C55.7161444,379.225259 55.5703125,378.677087 55.5703125,377.953125 L55.5703125,372.3125 L54.015625,372.3125 L54.015625,371.546875 L55.5703125,371.546875 L55.5703125,369.382812 L56.5078125,369.382812 Z M65.46875,380.15625 C64.7499964,380.15625 64.1002633,379.979168 63.5195312,379.625 C62.9387992,379.270832 62.4869808,378.777347 62.1640625,378.144531 C61.8411442,377.511716 61.6796875,376.802087 61.6796875,376.015625 L61.6796875,375.679688 C61.6796875,374.867183 61.837238,374.13542 62.1523438,373.484375 C62.4674495,372.83333 62.9062472,372.321616 63.46875,371.949219 C64.0312528,371.576821 64.6406217,371.390625 65.296875,371.390625 C66.3229218,371.390625 67.1367157,371.740882 67.7382812,372.441406 C68.3398468,373.141931 68.640625,374.098952 68.640625,375.3125 L68.640625,375.835938 L62.609375,375.835938 L62.609375,376.015625 C62.609375,376.973963 62.8841118,377.772132 63.4335938,378.410156 C63.9830757,379.04818 64.674475,379.367188 65.5078125,379.367188 C66.007815,379.367188 66.4492168,379.276043 66.8320312,379.09375 C67.2148457,378.911457 67.5624984,378.619794 67.875,378.21875 L68.4609375,378.664062 C67.7734341,379.658859 66.7760482,380.15625 65.46875,380.15625 Z M65.296875,372.1875 C64.5937465,372.1875 64.0013045,372.44531 63.5195312,372.960938 C63.037758,373.476565 62.7447922,374.169266 62.640625,375.039062 L67.7109375,375.039062 L67.7109375,374.9375 C67.6848957,374.124996 67.4531272,373.463544 67.015625,372.953125 C66.5781228,372.442706 66.0052119,372.1875 65.296875,372.1875 Z M74.9921875,378.710938 L77.5625,371.546875 L78.5234375,371.546875 L75.3671875,380 L74.609375,380 L71.4375,371.546875 L72.3984375,371.546875 L74.9921875,378.710938 Z M85.2265625,380.15625 C84.5078089,380.15625 83.8580758,379.979168 83.2773438,379.625 C82.6966117,379.270832 82.2447933,378.777347 81.921875,378.144531 C81.5989567,377.511716 81.4375,376.802087 81.4375,376.015625 L81.4375,375.679688 C81.4375,374.867183 81.5950505,374.13542 81.9101562,373.484375 C82.225262,372.83333 82.6640597,372.321616 83.2265625,371.949219 C83.7890653,371.576821 84.3984342,371.390625 85.0546875,371.390625 C86.0807343,371.390625 86.8945282,371.740882 87.4960938,372.441406 C88.0976593,373.141931 88.3984375,374.098952 88.3984375,375.3125 L88.3984375,375.835938 L82.3671875,375.835938 L82.3671875,376.015625 C82.3671875,376.973963 82.6419243,377.772132 83.1914062,378.410156 C83.7408882,379.04818 84.4322875,379.367188 85.265625,379.367188 C85.7656275,379.367188 86.2070293,379.276043 86.5898438,379.09375 C86.9726582,378.911457 87.3203109,378.619794 87.6328125,378.21875 L88.21875,378.664062 C87.5312466,379.658859 86.5338607,380.15625 85.2265625,380.15625 Z M85.0546875,372.1875 C84.351559,372.1875 83.759117,372.44531 83.2773438,372.960938 C82.7955705,373.476565 82.5026047,374.169266 82.3984375,375.039062 L87.46875,375.039062 L87.46875,374.9375 C87.4427082,374.124996 87.2109397,373.463544 86.7734375,372.953125 C86.3359353,372.442706 85.7630244,372.1875 85.0546875,372.1875 Z M35.96875,411.265625 L32.6640625,411.265625 L32.6640625,416 L31.6953125,416 L31.6953125,404.625 L35.390625,404.625 C36.6041727,404.625 37.5520799,404.919268 38.234375,405.507812 C38.9166701,406.096357 39.2578125,406.919266 39.2578125,407.976562 C39.2578125,408.705733 39.044273,409.348956 38.6171875,409.90625 C38.190102,410.463544 37.6171911,410.848957 36.8984375,411.0625 L39.7421875,415.898438 L39.7421875,416 L38.71875,416 L35.96875,411.265625 Z M32.6640625,410.445312 L35.609375,410.445312 C36.4166707,410.445312 37.0651017,410.216148 37.5546875,409.757812 C38.0442733,409.299477 38.2890625,408.705733 38.2890625,407.976562 C38.2890625,407.174475 38.0338567,406.552086 37.5234375,406.109375 C37.0130183,405.666664 36.2968796,405.445312 35.375,405.445312 L32.6640625,405.445312 L32.6640625,410.445312 Z M43.140625,411.648438 C43.140625,410.835933 43.2981755,410.10417 43.6132812,409.453125 C43.928387,408.80208 44.373695,408.295575 44.9492188,407.933594 C45.5247425,407.571613 46.1770797,407.390625 46.90625,407.390625 C48.0312556,407.390625 48.9427048,407.785152 49.640625,408.574219 C50.3385452,409.363285 50.6875,410.408848 50.6875,411.710938 L50.6875,411.90625 C50.6875,412.723962 50.5299495,413.459632 50.2148438,414.113281 C49.899738,414.76693 49.455732,415.270832 48.8828125,415.625 C48.309893,415.979168 47.6562537,416.15625 46.921875,416.15625 C45.8020777,416.15625 44.8919306,415.761723 44.1914062,414.972656 C43.4908819,414.18359 43.140625,413.138027 43.140625,411.835938 L43.140625,411.648438 Z M44.078125,411.90625 C44.078125,412.916672 44.3398411,413.746091 44.8632812,414.394531 C45.3867214,415.042972 46.0729124,415.367188 46.921875,415.367188 C47.7656292,415.367188 48.4492161,415.042972 48.9726562,414.394531 C49.4960964,413.746091 49.7578125,412.89063 49.7578125,411.828125 L49.7578125,411.648438 C49.7578125,411.002601 49.638022,410.411461 49.3984375,409.875 C49.158853,409.338539 48.8229188,408.923179 48.390625,408.628906 C47.9583312,408.334634 47.4635445,408.1875 46.90625,408.1875 C46.0729125,408.1875 45.3932318,408.51432 44.8671875,409.167969 C44.3411432,409.821618 44.078125,410.677078 44.078125,411.734375 L44.078125,411.90625 Z M54.2421875,411.695312 C54.2421875,410.372389 54.5351533,409.324223 55.1210938,408.550781 C55.7070342,407.77734 56.5025991,407.390625 57.5078125,407.390625 C58.6588599,407.390625 59.5338512,407.848954 60.1328125,408.765625 L60.1796875,407.546875 L61.0546875,407.546875 L61.0546875,415.828125 C61.0546875,416.916672 60.750003,417.778643 60.140625,418.414062 C59.531247,419.049482 58.7057344,419.367188 57.6640625,419.367188 C57.0755179,419.367188 56.5143256,419.235678 55.9804688,418.972656 C55.4466119,418.709634 55.0260432,418.359377 54.71875,417.921875 L55.2421875,417.359375 C55.9036491,418.171879 56.6900996,418.578125 57.6015625,418.578125 C58.3828164,418.578125 58.9921853,418.347659 59.4296875,417.886719 C59.8671897,417.425779 60.0937499,416.786462 60.109375,415.96875 L60.109375,414.90625 C59.5104137,415.739588 58.6380266,416.15625 57.4921875,416.15625 C56.5130159,416.15625 55.7265655,415.765629 55.1328125,414.984375 C54.5390595,414.203121 54.2421875,413.148444 54.2421875,411.820312 L54.2421875,411.695312 Z M55.1875,411.859375 C55.1875,412.937505 55.4036437,413.787757 55.8359375,414.410156 C56.2682313,415.032555 56.8776002,415.34375 57.6640625,415.34375 C58.8151099,415.34375 59.6302059,414.82813 60.109375,413.796875 L60.109375,409.867188 C59.8906239,409.325518 59.5755229,408.912762 59.1640625,408.628906 C58.7526021,408.345051 58.2578154,408.203125 57.6796875,408.203125 C56.8932252,408.203125 56.2812522,408.511716 55.84375,409.128906 C55.4062478,409.746097 55.1875,410.656244 55.1875,411.859375 Z M65.1171875,411.695312 C65.1171875,410.372389 65.4101533,409.324223 65.9960938,408.550781 C66.5820342,407.77734 67.3775991,407.390625 68.3828125,407.390625 C69.5338599,407.390625 70.4088512,407.848954 71.0078125,408.765625 L71.0546875,407.546875 L71.9296875,407.546875 L71.9296875,415.828125 C71.9296875,416.916672 71.625003,417.778643 71.015625,418.414062 C70.406247,419.049482 69.5807344,419.367188 68.5390625,419.367188 C67.9505179,419.367188 67.3893256,419.235678 66.8554688,418.972656 C66.3216119,418.709634 65.9010432,418.359377 65.59375,417.921875 L66.1171875,417.359375 C66.7786491,418.171879 67.5650996,418.578125 68.4765625,418.578125 C69.2578164,418.578125 69.8671853,418.347659 70.3046875,417.886719 C70.7421897,417.425779 70.9687499,416.786462 70.984375,415.96875 L70.984375,414.90625 C70.3854137,415.739588 69.5130266,416.15625 68.3671875,416.15625 C67.3880159,416.15625 66.6015655,415.765629 66.0078125,414.984375 C65.4140595,414.203121 65.1171875,413.148444 65.1171875,411.820312 L65.1171875,411.695312 Z M66.0625,411.859375 C66.0625,412.937505 66.2786437,413.787757 66.7109375,414.410156 C67.1432313,415.032555 67.7526002,415.34375 68.5390625,415.34375 C69.6901099,415.34375 70.5052059,414.82813 70.984375,413.796875 L70.984375,409.867188 C70.7656239,409.325518 70.4505229,408.912762 70.0390625,408.628906 C69.6276021,408.345051 69.1328154,408.203125 68.5546875,408.203125 C67.7682252,408.203125 67.1562522,408.511716 66.71875,409.128906 C66.2812478,409.746097 66.0625,410.656244 66.0625,411.859375 Z M77.4140625,416 L76.4765625,416 L76.4765625,407.546875 L77.4140625,407.546875 L77.4140625,416 Z M76.3125,405.101562 C76.3125,404.924478 76.3697911,404.77474 76.484375,404.652344 C76.5989589,404.529947 76.7552073,404.46875 76.953125,404.46875 C77.1510427,404.46875 77.3085932,404.529947 77.4257812,404.652344 C77.5429693,404.77474 77.6015625,404.924478 77.6015625,405.101562 C77.6015625,405.278647 77.5429693,405.427083 77.4257812,405.546875 C77.3085932,405.666667 77.1510427,405.726562 76.953125,405.726562 C76.7552073,405.726562 76.5989589,405.666667 76.484375,405.546875 C76.3697911,405.427083 76.3125,405.278647 76.3125,405.101562 Z M85.2265625,416.15625 C84.5078089,416.15625 83.8580758,415.979168 83.2773438,415.625 C82.6966117,415.270832 82.2447933,414.777347 81.921875,414.144531 C81.5989567,413.511716 81.4375,412.802087 81.4375,412.015625 L81.4375,411.679688 C81.4375,410.867183 81.5950505,410.13542 81.9101562,409.484375 C82.225262,408.83333 82.6640597,408.321616 83.2265625,407.949219 C83.7890653,407.576821 84.3984342,407.390625 85.0546875,407.390625 C86.0807343,407.390625 86.8945282,407.740882 87.4960938,408.441406 C88.0976593,409.141931 88.3984375,410.098952 88.3984375,411.3125 L88.3984375,411.835938 L82.3671875,411.835938 L82.3671875,412.015625 C82.3671875,412.973963 82.6419243,413.772132 83.1914062,414.410156 C83.7408882,415.04818 84.4322875,415.367188 85.265625,415.367188 C85.7656275,415.367188 86.2070293,415.276043 86.5898438,415.09375 C86.9726582,414.911457 87.3203109,414.619794 87.6328125,414.21875 L88.21875,414.664062 C87.5312466,415.658859 86.5338607,416.15625 85.2265625,416.15625 Z M85.0546875,408.1875 C84.351559,408.1875 83.759117,408.44531 83.2773438,408.960938 C82.7955705,409.476565 82.5026047,410.169266 82.3984375,411.039062 L87.46875,411.039062 L87.46875,410.9375 C87.4427082,410.124996 87.2109397,409.463544 86.7734375,408.953125 C86.3359353,408.442706 85.7630244,408.1875 85.0546875,408.1875 Z" id="path-1"></path>
        <path d="M124.0625,7.2578125 C124.0625,8.86198719 123.768232,10.0794229 123.179688,10.9101562 C122.591143,11.7408896 121.723964,12.15625 120.578125,12.15625 C119.453119,12.15625 118.591149,11.748702 117.992188,10.9335938 C117.393226,10.1184855 117.085938,8.93229945 117.070312,7.375 L117.070312,5.3359375 C117.070312,3.73697117 117.367185,2.52604578 117.960938,1.703125 C118.55469,0.880204219 119.421869,0.46875 120.5625,0.46875 C121.687506,0.46875 122.546872,0.865881445 123.140625,1.66015625 C123.734378,2.45443105 124.041667,3.62499227 124.0625,5.171875 L124.0625,7.2578125 Z M123.125,5.21875 C123.125,3.91666016 122.912763,2.932295 122.488281,2.265625 C122.0638,1.598955 121.421879,1.265625 120.5625,1.265625 C119.718746,1.265625 119.083335,1.59114258 118.65625,2.2421875 C118.229165,2.89323242 118.010417,3.85416031 118,5.125 L118,7.359375 C118,8.65625648 118.22005,9.64843406 118.660156,10.3359375 C119.100263,11.0234409 119.739579,11.3671875 120.578125,11.3671875 C121.411463,11.3671875 122.042967,11.0312534 122.472656,10.359375 C122.902346,9.68749664 123.119792,8.70313148 123.125,7.40625 L123.125,5.21875 Z" id="path-2"></path>
        <path d="M243.554688,12 L242.617188,12 L242.617188,1.75 L239.523438,2.8984375 L239.523438,2.0234375 L243.398438,0.5859375 L243.554688,0.5859375 L243.554688,12 Z M256.929688,7.2578125 C256.929688,8.86198719 256.63542,10.0794229 256.046875,10.9101562 C255.45833,11.7408896 254.591152,12.15625 253.445312,12.15625 C252.320307,12.15625 251.458336,11.748702 250.859375,10.9335938 C250.260414,10.1184855 249.953125,8.93229945 249.9375,7.375 L249.9375,5.3359375 C249.9375,3.73697117 250.234372,2.52604578 250.828125,1.703125 C251.421878,0.880204219 252.289057,0.46875 253.429688,0.46875 C254.554693,0.46875 255.41406,0.865881445 256.007812,1.66015625 C256.601565,2.45443105 256.908854,3.62499227 256.929688,5.171875 L256.929688,7.2578125 Z M255.992188,5.21875 C255.992188,3.91666016 255.77995,2.932295 255.355469,2.265625 C254.930987,1.598955 254.289067,1.265625 253.429688,1.265625 C252.585933,1.265625 251.950523,1.59114258 251.523438,2.2421875 C251.096352,2.89323242 250.877604,3.85416031 250.867188,5.125 L250.867188,7.359375 C250.867188,8.65625648 251.087237,9.64843406 251.527344,10.3359375 C251.96745,11.0234409 252.606767,11.3671875 253.445312,11.3671875 C254.27865,11.3671875 254.910154,11.0312534 255.339844,10.359375 C255.769533,9.68749664 255.986979,8.70313148 255.992188,7.40625 L255.992188,5.21875 Z" id="path-3"></path>
        <path d="M375.328125,12 L368.203125,12 L368.203125,11.28125 L372.101562,6.859375 C372.747399,6.11457961 373.195311,5.50000242 373.445312,5.015625 C373.695314,4.53124758 373.820312,4.05989813 373.820312,3.6015625 C373.820312,2.88280891 373.609377,2.31380418 373.1875,1.89453125 C372.765623,1.47525832 372.1849,1.265625 371.445312,1.265625 C370.679684,1.265625 370.0612,1.51041422 369.589844,2 C369.118487,2.48958578 368.882812,3.12499609 368.882812,3.90625 L367.953125,3.90625 C367.953125,3.2656218 368.097655,2.6822943 368.386719,2.15625 C368.675783,1.6302057 369.087237,1.21744941 369.621094,0.91796875 C370.154951,0.618488086 370.763017,0.46875 371.445312,0.46875 C372.486984,0.46875 373.300778,0.742184766 373.886719,1.2890625 C374.472659,1.83594023 374.765625,2.58072445 374.765625,3.5234375 C374.765625,4.05469016 374.600262,4.63541352 374.269531,5.265625 C373.9388,5.89583648 373.356775,6.68228695 372.523438,7.625 L369.351562,11.2109375 L375.328125,11.2109375 L375.328125,12 Z M385.929688,7.2578125 C385.929688,8.86198719 385.63542,10.0794229 385.046875,10.9101562 C384.45833,11.7408896 383.591152,12.15625 382.445312,12.15625 C381.320307,12.15625 380.458336,11.748702 379.859375,10.9335938 C379.260414,10.1184855 378.953125,8.93229945 378.9375,7.375 L378.9375,5.3359375 C378.9375,3.73697117 379.234372,2.52604578 379.828125,1.703125 C380.421878,0.880204219 381.289057,0.46875 382.429688,0.46875 C383.554693,0.46875 384.41406,0.865881445 385.007812,1.66015625 C385.601565,2.45443105 385.908854,3.62499227 385.929688,5.171875 L385.929688,7.2578125 Z M384.992188,5.21875 C384.992188,3.91666016 384.77995,2.932295 384.355469,2.265625 C383.930987,1.598955 383.289067,1.265625 382.429688,1.265625 C381.585933,1.265625 380.950523,1.59114258 380.523438,2.2421875 C380.096352,2.89323242 379.877604,3.85416031 379.867188,5.125 L379.867188,7.359375 C379.867188,8.65625648 380.087237,9.64843406 380.527344,10.3359375 C380.96745,11.0234409 381.606767,11.3671875 382.445312,11.3671875 C383.27865,11.3671875 383.910154,11.0312534 384.339844,10.359375 C384.769533,9.68749664 384.986979,8.70313148 384.992188,7.40625 L384.992188,5.21875 Z" id="path-4"></path>
        <path d="M499.28125,5.8046875 L500.25,5.8046875 C500.786461,5.8046875 501.255206,5.70963637 501.65625,5.51953125 C502.057294,5.32942613 502.36328,5.06901207 502.574219,4.73828125 C502.785157,4.40755043 502.890625,4.02604383 502.890625,3.59375 C502.890625,2.86457969 502.684898,2.29427289 502.273438,1.8828125 C501.861977,1.47135211 501.270837,1.265625 500.5,1.265625 C499.77083,1.265625 499.173179,1.4804666 498.707031,1.91015625 C498.240883,2.3398459 498.007812,2.90624648 498.007812,3.609375 L497.070312,3.609375 C497.070312,3.02083039 497.218749,2.48307535 497.515625,1.99609375 C497.812501,1.50911215 498.223956,1.13281383 498.75,0.8671875 C499.276044,0.601561172 499.859372,0.46875 500.5,0.46875 C501.531255,0.46875 502.343747,0.749997188 502.9375,1.3125 C503.531253,1.87500281 503.828125,2.64582844 503.828125,3.625 C503.828125,4.17187773 503.65495,4.67577895 503.308594,5.13671875 C502.962238,5.59765855 502.486982,5.94270719 501.882812,6.171875 C502.591149,6.36979266 503.127602,6.70963301 503.492188,7.19140625 C503.856773,7.67317949 504.039062,8.2473925 504.039062,8.9140625 C504.039062,9.8880257 503.721357,10.671872 503.085938,11.265625 C502.450518,11.859378 501.601568,12.15625 500.539062,12.15625 C499.861976,12.15625 499.240888,12.0208347 498.675781,11.75 C498.110674,11.4791653 497.673179,11.1002629 497.363281,10.6132812 C497.053384,10.1262996 496.898438,9.55989906 496.898438,8.9140625 L497.835938,8.9140625 C497.835938,9.63802445 498.088539,10.2278623 498.59375,10.6835938 C499.098961,11.1393252 499.747392,11.3671875 500.539062,11.3671875 C501.346358,11.3671875 501.975258,11.1601583 502.425781,10.7460938 C502.876304,10.3320292 503.101562,9.73177477 503.101562,8.9453125 C503.101562,8.18489203 502.858075,7.60416867 502.371094,7.203125 C501.884112,6.80208133 501.166671,6.6015625 500.21875,6.6015625 L499.28125,6.6015625 L499.28125,5.8046875 Z M514.929688,7.2578125 C514.929688,8.86198719 514.63542,10.0794229 514.046875,10.9101562 C513.45833,11.7408896 512.591152,12.15625 511.445312,12.15625 C510.320307,12.15625 509.458336,11.748702 508.859375,10.9335938 C508.260414,10.1184855 507.953125,8.93229945 507.9375,7.375 L507.9375,5.3359375 C507.9375,3.73697117 508.234372,2.52604578 508.828125,1.703125 C509.421878,0.880204219 510.289057,0.46875 511.429688,0.46875 C512.554693,0.46875 513.41406,0.865881445 514.007812,1.66015625 C514.601565,2.45443105 514.908854,3.62499227 514.929688,5.171875 L514.929688,7.2578125 Z M513.992188,5.21875 C513.992188,3.91666016 513.77995,2.932295 513.355469,2.265625 C512.930987,1.598955 512.289067,1.265625 511.429688,1.265625 C510.585933,1.265625 509.950523,1.59114258 509.523438,2.2421875 C509.096352,2.89323242 508.877604,3.85416031 508.867188,5.125 L508.867188,7.359375 C508.867188,8.65625648 509.087237,9.64843406 509.527344,10.3359375 C509.96745,11.0234409 510.606767,11.3671875 511.445312,11.3671875 C512.27865,11.3671875 512.910154,11.0312534 513.339844,10.359375 C513.769533,9.68749664 513.986979,8.70313148 513.992188,7.40625 L513.992188,5.21875 Z" id="path-5"></path>
        <path d="M631.945312,8.3359375 L633.71875,8.3359375 L633.71875,9.125 L631.945312,9.125 L631.945312,12 L631.007812,12 L631.007812,9.125 L625.65625,9.125 L625.65625,8.59375 L630.921875,0.625 L631.945312,0.625 L631.945312,8.3359375 Z M626.804688,8.3359375 L631.007812,8.3359375 L631.007812,1.8359375 L630.59375,2.5546875 L626.804688,8.3359375 Z M643.929688,7.2578125 C643.929688,8.86198719 643.63542,10.0794229 643.046875,10.9101562 C642.45833,11.7408896 641.591152,12.15625 640.445312,12.15625 C639.320307,12.15625 638.458336,11.748702 637.859375,10.9335938 C637.260414,10.1184855 636.953125,8.93229945 636.9375,7.375 L636.9375,5.3359375 C636.9375,3.73697117 637.234372,2.52604578 637.828125,1.703125 C638.421878,0.880204219 639.289057,0.46875 640.429688,0.46875 C641.554693,0.46875 642.41406,0.865881445 643.007812,1.66015625 C643.601565,2.45443105 643.908854,3.62499227 643.929688,5.171875 L643.929688,7.2578125 Z M642.992188,5.21875 C642.992188,3.91666016 642.77995,2.932295 642.355469,2.265625 C641.930987,1.598955 641.289067,1.265625 640.429688,1.265625 C639.585933,1.265625 638.950523,1.59114258 638.523438,2.2421875 C638.096352,2.89323242 637.877604,3.85416031 637.867188,5.125 L637.867188,7.359375 C637.867188,8.65625648 638.087237,9.64843406 638.527344,10.3359375 C638.96745,11.0234409 639.606767,11.3671875 640.445312,11.3671875 C641.27865,11.3671875 641.910154,11.0312534 642.339844,10.359375 C642.769533,9.68749664 642.986979,8.70313148 642.992188,7.40625 L642.992188,5.21875 Z" id="path-6"></path>
        <path d="M755.835938,6.171875 L756.390625,0.625 L762.078125,0.625 L762.078125,1.4921875 L757.195312,1.4921875 L756.796875,5.3359375 C757.406253,4.91926875 758.119788,4.7109375 758.9375,4.7109375 C759.963547,4.7109375 760.781247,5.0442675 761.390625,5.7109375 C762.000003,6.3776075 762.304688,7.26561945 762.304688,8.375 C762.304688,9.57292266 762.007815,10.5026009 761.414062,11.1640625 C760.82031,11.8255241 759.98438,12.15625 758.90625,12.15625 C757.916662,12.15625 757.114586,11.8802111 756.5,11.328125 C755.885414,10.7760389 755.533855,10.0026091 755.445312,9.0078125 L756.34375,9.0078125 C756.432292,9.78385805 756.69531,10.3710918 757.132812,10.7695312 C757.570315,11.1679707 758.161455,11.3671875 758.90625,11.3671875 C759.718754,11.3671875 760.332029,11.1093776 760.746094,10.59375 C761.160158,10.0781224 761.367188,9.34375477 761.367188,8.390625 C761.367188,7.5572875 761.135419,6.8776068 760.671875,6.3515625 C760.208331,5.8255182 759.575525,5.5625 758.773438,5.5625 C758.330727,5.5625 757.945312,5.61848902 757.617188,5.73046875 C757.289061,5.84244848 756.94271,6.05989422 756.578125,6.3828125 L755.835938,6.171875 Z M772.929688,7.2578125 C772.929688,8.86198719 772.63542,10.0794229 772.046875,10.9101562 C771.45833,11.7408896 770.591152,12.15625 769.445312,12.15625 C768.320307,12.15625 767.458336,11.748702 766.859375,10.9335938 C766.260414,10.1184855 765.953125,8.93229945 765.9375,7.375 L765.9375,5.3359375 C765.9375,3.73697117 766.234372,2.52604578 766.828125,1.703125 C767.421878,0.880204219 768.289057,0.46875 769.429688,0.46875 C770.554693,0.46875 771.41406,0.865881445 772.007812,1.66015625 C772.601565,2.45443105 772.908854,3.62499227 772.929688,5.171875 L772.929688,7.2578125 Z M771.992188,5.21875 C771.992188,3.91666016 771.77995,2.932295 771.355469,2.265625 C770.930987,1.598955 770.289067,1.265625 769.429688,1.265625 C768.585933,1.265625 767.950523,1.59114258 767.523438,2.2421875 C767.096352,2.89323242 766.877604,3.85416031 766.867188,5.125 L766.867188,7.359375 C766.867188,8.65625648 767.087237,9.64843406 767.527344,10.3359375 C767.96745,11.0234409 768.606767,11.3671875 769.445312,11.3671875 C770.27865,11.3671875 770.910154,11.0312534 771.339844,10.359375 C771.769533,9.68749664 771.986979,8.70313148 771.992188,7.40625 L771.992188,5.21875 Z" id="path-7"></path>
    </defs>
    <g id="Welcome" stroke="none" stroke-width="1" fill="none" fill-rule="evenodd">
        <g id="Friends" transform="translate(-326.000000, -13507.000000)">
            <g id="Group-25" transform="translate(326.000000, 13507.000000)">
                <g id="RichardCarolBarryMikeJaniceDavidFunBobbyMonaAngelaSteveRoggie" fill-rule="nonzero" fill="#000000">
                    <use xlink:href="#path-1"></use>
                    <use xlink:href="#path-1"></use>
                </g>
                <path d="M-82,228.453092 L322,228.453092" id="Path" stroke="#000000" opacity="0.300000012" stroke-dasharray="6,9" transform="translate(120.000000, 228.000000) rotate(-270.000000) translate(-120.000000, -228.000000) "></path>
                <path d="M47,228.453092 L451,228.453092" id="Path-Copy-2" stroke="#000000" opacity="0.300000012" stroke-dasharray="6,9" transform="translate(249.000000, 228.000000) rotate(-270.000000) translate(-249.000000, -228.000000) "></path>
                <path d="M176,228.453092 L580,228.453092" id="Path-Copy-3" stroke="#000000" opacity="0.300000012" stroke-dasharray="6,9" transform="translate(378.000000, 228.000000) rotate(-270.000000) translate(-378.000000, -228.000000) "></path>
                <path d="M305,228.453092 L709,228.453092" id="Path-Copy-4" stroke="#000000" opacity="0.300000012" stroke-dasharray="6,9" transform="translate(507.000000, 228.000000) rotate(-270.000000) translate(-507.000000, -228.000000) "></path>
                <path d="M434,228.453092 L838,228.453092" id="Path-Copy-5" stroke="#000000" opacity="0.300000012" stroke-dasharray="6,9" transform="translate(636.000000, 228.000000) rotate(-270.000000) translate(-636.000000, -228.000000) "></path>
                <path d="M563,228.453092 L967,228.453092" id="Path-Copy-6" stroke="#000000" opacity="0.300000012" stroke-dasharray="6,9" transform="translate(765.000000, 228.000000) rotate(-270.000000) translate(-765.000000, -228.000000) "></path>
                <g id="0" fill-rule="nonzero" fill="#000000">
                    <use xlink:href="#path-2"></use>
                    <use xlink:href="#path-2"></use>
                </g>
                <g id="10" fill-rule="nonzero" fill="#000000">
                    <use xlink:href="#path-3"></use>
                    <use xlink:href="#path-3"></use>
                </g>
                <g id="20" fill-rule="nonzero" fill="#000000">
                    <use xlink:href="#path-4"></use>
                    <use xlink:href="#path-4"></use>
                </g>
                <g id="30" fill-rule="nonzero" fill="#000000">
                    <use xlink:href="#path-5"></use>
                    <use xlink:href="#path-5"></use>
                </g>
                <g id="40" fill-rule="nonzero" fill="#000000">
                    <use xlink:href="#path-6"></use>
                    <use xlink:href="#path-6"></use>
                </g>
                <g id="50" fill-rule="nonzero" fill="#000000">
                    <use xlink:href="#path-7"></use>
                    <use xlink:href="#path-7"></use>
                </g>
            </g>
        </g>
    </g>
</svg>