<?xml version="1.0" encoding="UTF-8"?>
<svg width="741px" height="439px" viewBox="0 0 741 439" version="1.1" xmlns="http://www.w3.org/2000/svg" xmlns:xlink="http://www.w3.org/1999/xlink">
    <!-- Generator: Sketch 56.2 (81672) - https://sketch.com -->
    <title>Group 27</title>
    <desc>Created with Sketch.</desc>
    <defs>
        <path d="M48.4456259,418.14907 C48.4456259,419.753245 48.151358,420.970681 47.5628134,421.801414 C46.9742688,422.632148 46.1070899,423.047508 44.9612509,423.047508 C43.8362452,423.047508 42.9742747,422.63996 42.3753134,421.824852 C41.776352,421.009744 41.4690634,419.823557 41.4534384,418.266258 L41.4534384,416.227195 C41.4534384,414.628229 41.7503104,413.417304 42.3440634,412.594383 C42.9378163,411.771462 43.8049952,411.360008 44.9456259,411.360008 C46.0706315,411.360008 46.9299979,411.757139 47.5237509,412.551414 C48.1175038,413.345689 48.4247924,414.51625 48.4456259,416.063133 L48.4456259,418.14907 Z M47.5081259,416.110008 C47.5081259,414.807918 47.2958884,413.823553 46.8714071,413.156883 C46.4469258,412.490213 45.8050052,412.156883 44.9456259,412.156883 C44.1018716,412.156883 43.4664613,412.482401 43.0393759,413.133445 C42.6122904,413.78449 42.3935426,414.745418 42.3831259,416.016258 L42.3831259,418.250633 C42.3831259,419.547514 42.6031757,420.539692 43.0432821,421.227195 C43.4833885,421.914699 44.122705,422.258445 44.9612509,422.258445 C45.7945884,422.258445 46.4260925,421.922511 46.8557821,421.250633 C47.2854718,420.578755 47.5029175,419.594389 47.5081259,418.297508 L47.5081259,416.110008 Z" id="path-1"></path>
        <path d="M20.4846884,314.664412 L21.0393759,309.117537 L26.7268759,309.117537 L26.7268759,309.984725 L21.8440634,309.984725 L21.4456259,313.828475 C22.0550039,313.411806 22.7685384,313.203475 23.5862509,313.203475 C24.6122977,313.203475 25.4299978,313.536805 26.0393759,314.203475 C26.6487539,314.870145 26.9534384,315.758157 26.9534384,316.867537 C26.9534384,318.06546 26.6565663,318.995138 26.0628134,319.6566 C25.4690604,320.318061 24.6331313,320.648787 23.5550009,320.648787 C22.5654126,320.648787 21.7633373,320.372748 21.1487509,319.820662 C20.5341645,319.268576 20.1826055,318.495146 20.0940634,317.50035 L20.9925009,317.50035 C21.081043,318.276395 21.3440612,318.863629 21.7815634,319.262069 C22.2190656,319.660508 22.8102055,319.859725 23.5550009,319.859725 C24.3675049,319.859725 24.98078,319.601915 25.3948446,319.086287 C25.8089092,318.57066 26.0159384,317.836292 26.0159384,316.883162 C26.0159384,316.049825 25.7841698,315.370144 25.3206259,314.8441 C24.8570819,314.318056 24.2242757,314.055037 23.4221884,314.055037 C22.9794778,314.055037 22.5940634,314.111026 22.2659384,314.223006 C21.9378117,314.334986 21.591461,314.552432 21.2268759,314.87535 L20.4846884,314.664412 Z M37.5784384,315.75035 C37.5784384,317.354525 37.2841705,318.57196 36.6956259,319.402694 C36.1070813,320.233427 35.2399024,320.648787 34.0940634,320.648787 C32.9690577,320.648787 32.1070872,320.241239 31.5081259,319.426131 C30.9091645,318.611023 30.6018759,317.424837 30.5862509,315.867537 L30.5862509,313.828475 C30.5862509,312.229508 30.8831229,311.018583 31.4768759,310.195662 C32.0706288,309.372742 32.9378077,308.961287 34.0784384,308.961287 C35.203444,308.961287 36.0628104,309.358419 36.6565634,310.152694 C37.2503163,310.946968 37.5576049,312.11753 37.5784384,313.664412 L37.5784384,315.75035 Z M36.6409384,313.711287 C36.6409384,312.409197 36.4287009,311.424832 36.0042196,310.758162 C35.5797383,310.091492 34.9378177,309.758162 34.0784384,309.758162 C33.2346841,309.758162 32.5992738,310.08368 32.1721884,310.734725 C31.7451029,311.38577 31.5263551,312.346698 31.5159384,313.617537 L31.5159384,315.851912 C31.5159384,317.148794 31.7359882,318.140971 32.1760946,318.828475 C32.616201,319.515978 33.2555175,319.859725 34.0940634,319.859725 C34.9274009,319.859725 35.558905,319.523791 35.9885946,318.851912 C36.4182843,318.180034 36.63573,317.195669 36.6409384,315.898787 L36.6409384,313.711287 Z M48.4456259,315.75035 C48.4456259,317.354525 48.151358,318.57196 47.5628134,319.402694 C46.9742688,320.233427 46.1070899,320.648787 44.9612509,320.648787 C43.8362452,320.648787 42.9742747,320.241239 42.3753134,319.426131 C41.776352,318.611023 41.4690634,317.424837 41.4534384,315.867537 L41.4534384,313.828475 C41.4534384,312.229508 41.7503104,311.018583 42.3440634,310.195662 C42.9378163,309.372742 43.8049952,308.961287 44.9456259,308.961287 C46.0706315,308.961287 46.9299979,309.358419 47.5237509,310.152694 C48.1175038,310.946968 48.4247924,312.11753 48.4456259,313.664412 L48.4456259,315.75035 Z M47.5081259,313.711287 C47.5081259,312.409197 47.2958884,311.424832 46.8714071,310.758162 C46.4469258,310.091492 45.8050052,309.758162 44.9456259,309.758162 C44.1018716,309.758162 43.4664613,310.08368 43.0393759,310.734725 C42.6122904,311.38577 42.3935426,312.346698 42.3831259,313.617537 L42.3831259,315.851912 C42.3831259,317.148794 42.6031757,318.140971 43.0432821,318.828475 C43.4833885,319.515978 44.122705,319.859725 44.9612509,319.859725 C45.7945884,319.859725 46.4260925,319.523791 46.8557821,318.851912 C47.2854718,318.180034 47.5029175,317.195669 47.5081259,315.898787 L47.5081259,313.711287 Z" id="path-2"></path>
        <path d="M7.51593836,218.093817 L6.57843836,218.093817 L6.57843836,207.843817 L3.48468836,208.992254 L3.48468836,208.117254 L7.35968836,206.679754 L7.51593836,206.679754 L7.51593836,218.093817 Z M14.0940634,217.531317 C14.0940634,217.349024 14.1526565,217.194078 14.2698446,217.066473 C14.3870327,216.938868 14.5497915,216.875067 14.7581259,216.875067 C14.9664602,216.875067 15.1305211,216.938868 15.2503134,217.066473 C15.3701056,217.194078 15.4300009,217.349024 15.4300009,217.531317 C15.4300009,217.713609 15.3701056,217.863347 15.2503134,217.980535 C15.1305211,218.097723 14.9664602,218.156317 14.7581259,218.156317 C14.5497915,218.156317 14.3870327,218.097723 14.2698446,217.980535 C14.1526565,217.863347 14.0940634,217.713609 14.0940634,217.531317 Z M26.7112509,213.351629 C26.7112509,214.955804 26.416983,216.17324 25.8284384,217.003973 C25.2398938,217.834706 24.3727149,218.250067 23.2268759,218.250067 C22.1018702,218.250067 21.2398997,217.842519 20.6409384,217.02741 C20.041977,216.212302 19.7346884,215.026116 19.7190634,213.468817 L19.7190634,211.429754 C19.7190634,209.830788 20.0159354,208.619862 20.6096884,207.796942 C21.2034413,206.974021 22.0706202,206.562567 23.2112509,206.562567 C24.3362565,206.562567 25.1956229,206.959698 25.7893759,207.753973 C26.3831288,208.548248 26.6904174,209.718809 26.7112509,211.265692 L26.7112509,213.351629 Z M25.7737509,211.312567 C25.7737509,210.010477 25.5615134,209.026112 25.1370321,208.359442 C24.7125508,207.692772 24.0706302,207.359442 23.2112509,207.359442 C22.3674966,207.359442 21.7320863,207.684959 21.3050009,208.336004 C20.8779154,208.987049 20.6591676,209.947977 20.6487509,211.218817 L20.6487509,213.453192 C20.6487509,214.750073 20.8688007,215.742251 21.3089071,216.429754 C21.7490135,217.117258 22.38833,217.461004 23.2268759,217.461004 C24.0602134,217.461004 24.6917175,217.12507 25.1214071,216.453192 C25.5510968,215.781313 25.7685425,214.796948 25.7737509,213.500067 L25.7737509,211.312567 Z M37.5784384,213.351629 C37.5784384,214.955804 37.2841705,216.17324 36.6956259,217.003973 C36.1070813,217.834706 35.2399024,218.250067 34.0940634,218.250067 C32.9690577,218.250067 32.1070872,217.842519 31.5081259,217.02741 C30.9091645,216.212302 30.6018759,215.026116 30.5862509,213.468817 L30.5862509,211.429754 C30.5862509,209.830788 30.8831229,208.619862 31.4768759,207.796942 C32.0706288,206.974021 32.9378077,206.562567 34.0784384,206.562567 C35.203444,206.562567 36.0628104,206.959698 36.6565634,207.753973 C37.2503163,208.548248 37.5576049,209.718809 37.5784384,211.265692 L37.5784384,213.351629 Z M36.6409384,211.312567 C36.6409384,210.010477 36.4287009,209.026112 36.0042196,208.359442 C35.5797383,207.692772 34.9378177,207.359442 34.0784384,207.359442 C33.2346841,207.359442 32.5992738,207.684959 32.1721884,208.336004 C31.7451029,208.987049 31.5263551,209.947977 31.5159384,211.218817 L31.5159384,213.453192 C31.5159384,214.750073 31.7359882,215.742251 32.1760946,216.429754 C32.616201,217.117258 33.2555175,217.461004 34.0940634,217.461004 C34.9274009,217.461004 35.558905,217.12507 35.9885946,216.453192 C36.4182843,215.781313 36.63573,214.796948 36.6409384,213.500067 L36.6409384,211.312567 Z M48.4456259,213.351629 C48.4456259,214.955804 48.151358,216.17324 47.5628134,217.003973 C46.9742688,217.834706 46.1070899,218.250067 44.9612509,218.250067 C43.8362452,218.250067 42.9742747,217.842519 42.3753134,217.02741 C41.776352,216.212302 41.4690634,215.026116 41.4534384,213.468817 L41.4534384,211.429754 C41.4534384,209.830788 41.7503104,208.619862 42.3440634,207.796942 C42.9378163,206.974021 43.8049952,206.562567 44.9456259,206.562567 C46.0706315,206.562567 46.9299979,206.959698 47.5237509,207.753973 C48.1175038,208.548248 48.4247924,209.718809 48.4456259,211.265692 L48.4456259,213.351629 Z M47.5081259,211.312567 C47.5081259,210.010477 47.2958884,209.026112 46.8714071,208.359442 C46.4469258,207.692772 45.8050052,207.359442 44.9456259,207.359442 C44.1018716,207.359442 43.4664613,207.684959 43.0393759,208.336004 C42.6122904,208.987049 42.3935426,209.947977 42.3831259,211.218817 L42.3831259,213.453192 C42.3831259,214.750073 42.6031757,215.742251 43.0432821,216.429754 C43.4833885,217.117258 44.122705,217.461004 44.9612509,217.461004 C45.7945884,217.461004 46.4260925,217.12507 46.8557821,216.453192 C47.2854718,215.781313 47.5029175,214.796948 47.5081259,213.500067 L47.5081259,211.312567 Z" id="path-3"></path>
        <path d="M7.51593836,115.695096 L6.57843836,115.695096 L6.57843836,105.445096 L3.48468836,106.593533 L3.48468836,105.718533 L7.35968836,104.281033 L7.51593836,104.281033 L7.51593836,115.695096 Z M14.0940634,115.132596 C14.0940634,114.950303 14.1526565,114.795357 14.2698446,114.667752 C14.3870327,114.540147 14.5497915,114.476346 14.7581259,114.476346 C14.9664602,114.476346 15.1305211,114.540147 15.2503134,114.667752 C15.3701056,114.795357 15.4300009,114.950303 15.4300009,115.132596 C15.4300009,115.314889 15.3701056,115.464627 15.2503134,115.581815 C15.1305211,115.699003 14.9664602,115.757596 14.7581259,115.757596 C14.5497915,115.757596 14.3870327,115.699003 14.2698446,115.581815 C14.1526565,115.464627 14.0940634,115.314889 14.0940634,115.132596 Z M20.4846884,109.866971 L21.0393759,104.320096 L26.7268759,104.320096 L26.7268759,105.187283 L21.8440634,105.187283 L21.4456259,109.031033 C22.0550039,108.614365 22.7685384,108.406033 23.5862509,108.406033 C24.6122977,108.406033 25.4299978,108.739363 26.0393759,109.406033 C26.6487539,110.072703 26.9534384,110.960715 26.9534384,112.070096 C26.9534384,113.268019 26.6565663,114.197697 26.0628134,114.859158 C25.4690604,115.52062 24.6331313,115.851346 23.5550009,115.851346 C22.5654126,115.851346 21.7633373,115.575307 21.1487509,115.023221 C20.5341645,114.471135 20.1826055,113.697705 20.0940634,112.702908 L20.9925009,112.702908 C21.081043,113.478954 21.3440612,114.066188 21.7815634,114.464627 C22.2190656,114.863067 22.8102055,115.062283 23.5550009,115.062283 C24.3675049,115.062283 24.98078,114.804474 25.3948446,114.288846 C25.8089092,113.773218 26.0159384,113.038851 26.0159384,112.085721 C26.0159384,111.252383 25.7841698,110.572703 25.3206259,110.046658 C24.8570819,109.520614 24.2242757,109.257596 23.4221884,109.257596 C22.9794778,109.257596 22.5940634,109.313585 22.2659384,109.425565 C21.9378117,109.537544 21.591461,109.75499 21.2268759,110.077908 L20.4846884,109.866971 Z M37.5784384,110.952908 C37.5784384,112.557083 37.2841705,113.774519 36.6956259,114.605252 C36.1070813,115.435986 35.2399024,115.851346 34.0940634,115.851346 C32.9690577,115.851346 32.1070872,115.443798 31.5081259,114.62869 C30.9091645,113.813581 30.6018759,112.627395 30.5862509,111.070096 L30.5862509,109.031033 C30.5862509,107.432067 30.8831229,106.221142 31.4768759,105.398221 C32.0706288,104.5753 32.9378077,104.163846 34.0784384,104.163846 C35.203444,104.163846 36.0628104,104.560977 36.6565634,105.355252 C37.2503163,106.149527 37.5576049,107.320088 37.5784384,108.866971 L37.5784384,110.952908 Z M36.6409384,108.913846 C36.6409384,107.611756 36.4287009,106.627391 36.0042196,105.960721 C35.5797383,105.294051 34.9378177,104.960721 34.0784384,104.960721 C33.2346841,104.960721 32.5992738,105.286239 32.1721884,105.937283 C31.7451029,106.588328 31.5263551,107.549256 31.5159384,108.820096 L31.5159384,111.054471 C31.5159384,112.351352 31.7359882,113.34353 32.1760946,114.031033 C32.616201,114.718537 33.2555175,115.062283 34.0940634,115.062283 C34.9274009,115.062283 35.558905,114.726349 35.9885946,114.054471 C36.4182843,113.382593 36.63573,112.398227 36.6409384,111.101346 L36.6409384,108.913846 Z M48.4456259,110.952908 C48.4456259,112.557083 48.151358,113.774519 47.5628134,114.605252 C46.9742688,115.435986 46.1070899,115.851346 44.9612509,115.851346 C43.8362452,115.851346 42.9742747,115.443798 42.3753134,114.62869 C41.776352,113.813581 41.4690634,112.627395 41.4534384,111.070096 L41.4534384,109.031033 C41.4534384,107.432067 41.7503104,106.221142 42.3440634,105.398221 C42.9378163,104.5753 43.8049952,104.163846 44.9456259,104.163846 C46.0706315,104.163846 46.9299979,104.560977 47.5237509,105.355252 C48.1175038,106.149527 48.4247924,107.320088 48.4456259,108.866971 L48.4456259,110.952908 Z M47.5081259,108.913846 C47.5081259,107.611756 47.2958884,106.627391 46.8714071,105.960721 C46.4469258,105.294051 45.8050052,104.960721 44.9456259,104.960721 C44.1018716,104.960721 43.4664613,105.286239 43.0393759,105.937283 C42.6122904,106.588328 42.3935426,107.549256 42.3831259,108.820096 L42.3831259,111.054471 C42.3831259,112.351352 42.6031757,113.34353 43.0432821,114.031033 C43.4833885,114.718537 44.122705,115.062283 44.9612509,115.062283 C45.7945884,115.062283 46.4260925,114.726349 46.8557821,114.054471 C47.2854718,113.382593 47.5029175,112.398227 47.5081259,111.101346 L47.5081259,108.913846 Z" id="path-4"></path>
        <path d="M10.2893759,15.108742 L3.16437586,15.108742 L3.16437586,14.389992 L7.06281336,9.968117 C7.70864993,9.22332161 8.15656211,8.60874443 8.40656336,8.124367 C8.65656461,7.63998958 8.78156336,7.16864013 8.78156336,6.7103045 C8.78156336,5.99155091 8.57062797,5.42254618 8.14875086,5.00327325 C7.72687376,4.58400032 7.1461504,4.374367 6.40656336,4.374367 C5.64093454,4.374367 5.02245114,4.61915622 4.55109461,5.108742 C4.07973809,5.59832779 3.84406336,6.2337381 3.84406336,7.014992 L2.91437586,7.014992 C2.91437586,6.3743638 3.05890567,5.7910363 3.34796961,5.264992 C3.63703356,4.73894771 4.04848778,4.32619142 4.58234461,4.02671075 C5.11620145,3.72723009 5.72426829,3.577492 6.40656336,3.577492 C7.44823524,3.577492 8.26202918,3.85092677 8.84796961,4.3978045 C9.43391004,4.94468224 9.72687586,5.68946646 9.72687586,6.6321795 C9.72687586,7.16343216 9.56151293,7.74415552 9.23078211,8.374367 C8.90005129,9.00457849 8.31802586,9.79102896 7.48468836,10.733742 L4.31281336,14.3196795 L10.2893759,14.3196795 L10.2893759,15.108742 Z M14.0940634,14.546242 C14.0940634,14.3639494 14.1526565,14.2090031 14.2698446,14.0813983 C14.3870327,13.9537934 14.5497915,13.889992 14.7581259,13.889992 C14.9664602,13.889992 15.1305211,13.9537934 15.2503134,14.0813983 C15.3701056,14.2090031 15.4300009,14.3639494 15.4300009,14.546242 C15.4300009,14.7285346 15.3701056,14.8782727 15.2503134,14.9954608 C15.1305211,15.1126488 14.9664602,15.171242 14.7581259,15.171242 C14.5497915,15.171242 14.3870327,15.1126488 14.2698446,14.9954608 C14.1526565,14.8782727 14.0940634,14.7285346 14.0940634,14.546242 Z M26.7112509,10.3665545 C26.7112509,11.9707292 26.416983,13.1881649 25.8284384,14.0188983 C25.2398938,14.8496316 24.3727149,15.264992 23.2268759,15.264992 C22.1018702,15.264992 21.2398997,14.857444 20.6409384,14.0423358 C20.041977,13.2272275 19.7346884,12.0410415 19.7190634,10.483742 L19.7190634,8.4446795 C19.7190634,6.84571318 20.0159354,5.63478779 20.6096884,4.811867 C21.2034413,3.98894622 22.0706202,3.577492 23.2112509,3.577492 C24.3362565,3.577492 25.1956229,3.97462345 25.7893759,4.76889825 C26.3831288,5.56317306 26.6904174,6.73373427 26.7112509,8.280617 L26.7112509,10.3665545 Z M25.7737509,8.327492 C25.7737509,7.02540216 25.5615134,6.041037 25.1370321,5.374367 C24.7125508,4.707697 24.0706302,4.374367 23.2112509,4.374367 C22.3674966,4.374367 21.7320863,4.69988458 21.3050009,5.3509295 C20.8779154,6.00197443 20.6591676,6.96290232 20.6487509,8.233742 L20.6487509,10.468117 C20.6487509,11.7649985 20.8688007,12.7571761 21.3089071,13.4446795 C21.7490135,14.1321829 22.38833,14.4759295 23.2268759,14.4759295 C24.0602134,14.4759295 24.6917175,14.1399954 25.1214071,13.468117 C25.5510968,12.7962386 25.7685425,11.8118735 25.7737509,10.514992 L25.7737509,8.327492 Z M37.5784384,10.3665545 C37.5784384,11.9707292 37.2841705,13.1881649 36.6956259,14.0188983 C36.1070813,14.8496316 35.2399024,15.264992 34.0940634,15.264992 C32.9690577,15.264992 32.1070872,14.857444 31.5081259,14.0423358 C30.9091645,13.2272275 30.6018759,12.0410415 30.5862509,10.483742 L30.5862509,8.4446795 C30.5862509,6.84571318 30.8831229,5.63478779 31.4768759,4.811867 C32.0706288,3.98894622 32.9378077,3.577492 34.0784384,3.577492 C35.203444,3.577492 36.0628104,3.97462345 36.6565634,4.76889825 C37.2503163,5.56317306 37.5576049,6.73373427 37.5784384,8.280617 L37.5784384,10.3665545 Z M36.6409384,8.327492 C36.6409384,7.02540216 36.4287009,6.041037 36.0042196,5.374367 C35.5797383,4.707697 34.9378177,4.374367 34.0784384,4.374367 C33.2346841,4.374367 32.5992738,4.69988458 32.1721884,5.3509295 C31.7451029,6.00197443 31.5263551,6.96290232 31.5159384,8.233742 L31.5159384,10.468117 C31.5159384,11.7649985 31.7359882,12.7571761 32.1760946,13.4446795 C32.616201,14.1321829 33.2555175,14.4759295 34.0940634,14.4759295 C34.9274009,14.4759295 35.558905,14.1399954 35.9885946,13.468117 C36.4182843,12.7962386 36.63573,11.8118735 36.6409384,10.514992 L36.6409384,8.327492 Z M48.4456259,10.3665545 C48.4456259,11.9707292 48.151358,13.1881649 47.5628134,14.0188983 C46.9742688,14.8496316 46.1070899,15.264992 44.9612509,15.264992 C43.8362452,15.264992 42.9742747,14.857444 42.3753134,14.0423358 C41.776352,13.2272275 41.4690634,12.0410415 41.4534384,10.483742 L41.4534384,8.4446795 C41.4534384,6.84571318 41.7503104,5.63478779 42.3440634,4.811867 C42.9378163,3.98894622 43.8049952,3.577492 44.9456259,3.577492 C46.0706315,3.577492 46.9299979,3.97462345 47.5237509,4.76889825 C48.1175038,5.56317306 48.4247924,6.73373427 48.4456259,8.280617 L48.4456259,10.3665545 Z M47.5081259,8.327492 C47.5081259,7.02540216 47.2958884,6.041037 46.8714071,5.374367 C46.4469258,4.707697 45.8050052,4.374367 44.9456259,4.374367 C44.1018716,4.374367 43.4664613,4.69988458 43.0393759,5.3509295 C42.6122904,6.00197443 42.3935426,6.96290232 42.3831259,8.233742 L42.3831259,10.468117 C42.3831259,11.7649985 42.6031757,12.7571761 43.0432821,13.4446795 C43.4833885,14.1321829 44.122705,14.4759295 44.9612509,14.4759295 C45.7945884,14.4759295 46.4260925,14.1399954 46.8557821,13.468117 C47.2854718,12.7962386 47.5029175,11.8118735 47.5081259,10.514992 L47.5081259,8.327492 Z" id="path-5"></path>
        <path d="M87.9453125,430.445312 L84.046875,430.445312 L84.046875,441 L83.0859375,441 L83.0859375,430.445312 L79.1953125,430.445312 L79.1953125,429.625 L87.9453125,429.625 L87.9453125,430.445312 Z M95.765625,441 L94.828125,441 L94.828125,430.75 L91.734375,431.898438 L91.734375,431.023438 L95.609375,429.585938 L95.765625,429.585938 L95.765625,441 Z" id="path-6"></path>
        <path d="M511.945312,430.445312 L508.046875,430.445312 L508.046875,441 L507.085938,441 L507.085938,430.445312 L503.195312,430.445312 L503.195312,429.625 L511.945312,429.625 L511.945312,430.445312 Z M522.421875,430.164062 L517.5625,441 L516.585938,441 L521.414062,430.421875 L514.945312,430.421875 L514.945312,429.625 L522.421875,429.625 L522.421875,430.164062 Z" id="path-7"></path>
        <path d="M582.945312,430.445312 L579.046875,430.445312 L579.046875,441 L578.085938,441 L578.085938,430.445312 L574.195312,430.445312 L574.195312,429.625 L582.945312,429.625 L582.945312,430.445312 Z M593.117188,432.554688 C593.117188,433.143232 592.945314,433.670571 592.601562,434.136719 C592.257811,434.602867 591.80469,434.945311 591.242188,435.164062 C591.898441,435.388022 592.424477,435.749997 592.820312,436.25 C593.216148,436.750003 593.414062,437.328122 593.414062,437.984375 C593.414062,438.958338 593.083337,439.730466 592.421875,440.300781 C591.760413,440.871097 590.885422,441.15625 589.796875,441.15625 C588.697911,441.15625 587.819014,440.872399 587.160156,440.304688 C586.501299,439.736976 586.171875,438.963547 586.171875,437.984375 C586.171875,437.338538 586.361977,436.763023 586.742188,436.257812 C587.122398,435.752602 587.643226,435.388022 588.304688,435.164062 C587.742185,434.945311 587.294273,434.602867 586.960938,434.136719 C586.627602,433.670571 586.460938,433.143232 586.460938,432.554688 C586.460938,431.611974 586.76432,430.861982 587.371094,430.304688 C587.977868,429.747393 588.781245,429.46875 589.78125,429.46875 C590.781255,429.46875 591.587237,429.749997 592.199219,430.3125 C592.811201,430.875003 593.117188,431.622391 593.117188,432.554688 Z M592.476562,437.992188 C592.476562,437.283851 592.223961,436.701825 591.71875,436.246094 C591.213539,435.790362 590.567712,435.5625 589.78125,435.5625 C588.994788,435.5625 588.351565,435.786456 587.851562,436.234375 C587.35156,436.682294 587.101562,437.268226 587.101562,437.992188 C587.101562,438.716149 587.343748,439.292967 587.828125,439.722656 C588.312502,440.152346 588.968746,440.367188 589.796875,440.367188 C590.604171,440.367188 591.252602,440.153648 591.742188,439.726562 C592.231773,439.299477 592.476562,438.721358 592.476562,437.992188 Z M592.179688,432.546875 C592.179688,431.89583 591.954429,431.352867 591.503906,430.917969 C591.053383,430.483071 590.47917,430.265625 589.78125,430.265625 C589.072913,430.265625 588.4987,430.475258 588.058594,430.894531 C587.618487,431.313804 587.398438,431.86458 587.398438,432.546875 C587.398438,433.213545 587.618487,433.749998 588.058594,434.15625 C588.4987,434.562502 589.075517,434.765625 589.789062,434.765625 C590.492191,434.765625 591.066404,434.5612 591.511719,434.152344 C591.957033,433.743488 592.179688,433.208337 592.179688,432.546875 Z" id="path-8"></path>
        <path d="M158.945312,430.445312 L155.046875,430.445312 L155.046875,441 L154.085938,441 L154.085938,430.445312 L150.195312,430.445312 L150.195312,429.625 L158.945312,429.625 L158.945312,430.445312 Z M169.539062,441 L162.414062,441 L162.414062,440.28125 L166.3125,435.859375 C166.958337,435.11458 167.406249,434.500002 167.65625,434.015625 C167.906251,433.531248 168.03125,433.059898 168.03125,432.601562 C168.03125,431.882809 167.820315,431.313804 167.398438,430.894531 C166.97656,430.475258 166.395837,430.265625 165.65625,430.265625 C164.890621,430.265625 164.272138,430.510414 163.800781,431 C163.329425,431.489586 163.09375,432.124996 163.09375,432.90625 L162.164062,432.90625 C162.164062,432.265622 162.308592,431.682294 162.597656,431.15625 C162.88672,430.630206 163.298174,430.217449 163.832031,429.917969 C164.365888,429.618488 164.973955,429.46875 165.65625,429.46875 C166.697922,429.46875 167.511716,429.742185 168.097656,430.289062 C168.683597,430.83594 168.976562,431.580724 168.976562,432.523438 C168.976562,433.05469 168.8112,433.635414 168.480469,434.265625 C168.149738,434.895836 167.567712,435.682287 166.734375,436.625 L163.5625,440.210938 L169.539062,440.210938 L169.539062,441 Z" id="path-9"></path>
        <path d="M229.445312,430.445312 L225.546875,430.445312 L225.546875,441 L224.585938,441 L224.585938,430.445312 L220.695312,430.445312 L220.695312,429.625 L229.445312,429.625 L229.445312,430.445312 Z M234.992188,434.804688 L235.960938,434.804688 C236.497399,434.804688 236.966144,434.709636 237.367188,434.519531 C237.768231,434.329426 238.074218,434.069012 238.285156,433.738281 C238.496095,433.40755 238.601562,433.026044 238.601562,432.59375 C238.601562,431.86458 238.395835,431.294273 237.984375,430.882812 C237.572915,430.471352 236.981775,430.265625 236.210938,430.265625 C235.481767,430.265625 234.884117,430.480467 234.417969,430.910156 C233.951821,431.339846 233.71875,431.906246 233.71875,432.609375 L232.78125,432.609375 C232.78125,432.02083 232.929686,431.483075 233.226562,430.996094 C233.523439,430.509112 233.934893,430.132814 234.460938,429.867188 C234.986982,429.601561 235.570309,429.46875 236.210938,429.46875 C237.242193,429.46875 238.054685,429.749997 238.648438,430.3125 C239.24219,430.875003 239.539062,431.645828 239.539062,432.625 C239.539062,433.171878 239.365887,433.675779 239.019531,434.136719 C238.673175,434.597659 238.19792,434.942707 237.59375,435.171875 C238.302087,435.369793 238.83854,435.709633 239.203125,436.191406 C239.56771,436.673179 239.75,437.247393 239.75,437.914062 C239.75,438.888026 239.432295,439.671872 238.796875,440.265625 C238.161455,440.859378 237.312505,441.15625 236.25,441.15625 C235.572913,441.15625 234.951826,441.020835 234.386719,440.75 C233.821612,440.479165 233.384116,440.100263 233.074219,439.613281 C232.764321,439.1263 232.609375,438.559899 232.609375,437.914062 L233.546875,437.914062 C233.546875,438.638024 233.799477,439.227862 234.304688,439.683594 C234.809898,440.139325 235.458329,440.367188 236.25,440.367188 C237.057296,440.367188 237.686196,440.160158 238.136719,439.746094 C238.587242,439.332029 238.8125,438.731775 238.8125,437.945312 C238.8125,437.184892 238.569013,436.604169 238.082031,436.203125 C237.59505,435.802081 236.877609,435.601562 235.929688,435.601562 L234.992188,435.601562 L234.992188,434.804688 Z" id="path-10"></path>
        <path d="M300.445312,430.445312 L296.546875,430.445312 L296.546875,441 L295.585938,441 L295.585938,430.445312 L291.695312,430.445312 L291.695312,429.625 L300.445312,429.625 L300.445312,430.445312 Z M309.65625,437.335938 L311.429688,437.335938 L311.429688,438.125 L309.65625,438.125 L309.65625,441 L308.71875,441 L308.71875,438.125 L303.367188,438.125 L303.367188,437.59375 L308.632812,429.625 L309.65625,429.625 L309.65625,437.335938 Z M304.515625,437.335938 L308.71875,437.335938 L308.71875,430.835938 L308.304688,431.554688 L304.515625,437.335938 Z" id="path-11"></path>
        <path d="M371.445312,430.445312 L367.546875,430.445312 L367.546875,441 L366.585938,441 L366.585938,430.445312 L362.695312,430.445312 L362.695312,429.625 L371.445312,429.625 L371.445312,430.445312 Z M375.546875,435.171875 L376.101562,429.625 L381.789062,429.625 L381.789062,430.492188 L376.90625,430.492188 L376.507812,434.335938 C377.117191,433.919269 377.830725,433.710938 378.648438,433.710938 C379.674484,433.710938 380.492184,434.044268 381.101562,434.710938 C381.710941,435.377607 382.015625,436.265619 382.015625,437.375 C382.015625,438.572923 381.718753,439.502601 381.125,440.164062 C380.531247,440.825524 379.695318,441.15625 378.617188,441.15625 C377.627599,441.15625 376.825524,440.880211 376.210938,440.328125 C375.596351,439.776039 375.244792,439.002609 375.15625,438.007812 L376.054688,438.007812 C376.14323,438.783858 376.406248,439.371092 376.84375,439.769531 C377.281252,440.167971 377.872392,440.367188 378.617188,440.367188 C379.429692,440.367188 380.042967,440.109378 380.457031,439.59375 C380.871096,439.078122 381.078125,438.343755 381.078125,437.390625 C381.078125,436.557287 380.846356,435.877607 380.382812,435.351562 C379.919269,434.825518 379.286462,434.5625 378.484375,434.5625 C378.041664,434.5625 377.65625,434.618489 377.328125,434.730469 C376.999998,434.842448 376.653648,435.059894 376.289062,435.382812 L375.546875,435.171875 Z" id="path-12"></path>
        <path d="M440.945312,430.445312 L437.046875,430.445312 L437.046875,441 L436.085938,441 L436.085938,430.445312 L432.195312,430.445312 L432.195312,429.625 L440.945312,429.625 L440.945312,430.445312 Z M449.929688,429.539062 L449.929688,430.359375 L449.820312,430.359375 C448.460931,430.359375 447.390629,430.759111 446.609375,431.558594 C445.828121,432.358077 445.395834,433.468743 445.3125,434.890625 C445.625002,434.458331 446.023435,434.123699 446.507812,433.886719 C446.99219,433.649738 447.533851,433.53125 448.132812,433.53125 C449.132817,433.53125 449.928382,433.876299 450.519531,434.566406 C451.11068,435.256514 451.40625,436.158849 451.40625,437.273438 C451.40625,438.013025 451.268231,438.679685 450.992188,439.273438 C450.716144,439.86719 450.320315,440.329425 449.804688,440.660156 C449.28906,440.990887 448.700524,441.15625 448.039062,441.15625 C446.950515,441.15625 446.065108,440.761723 445.382812,439.972656 C444.700517,439.18359 444.359375,438.164069 444.359375,436.914062 L444.359375,435.976562 C444.359375,433.940094 444.822912,432.363287 445.75,431.246094 C446.677088,430.128901 447.992179,429.559896 449.695312,429.539062 L449.929688,429.539062 Z M447.984375,434.335938 C447.390622,434.335938 446.837242,434.511717 446.324219,434.863281 C445.811195,435.214846 445.468751,435.661456 445.296875,436.203125 L445.296875,437 C445.296875,437.989588 445.550779,438.796872 446.058594,439.421875 C446.566409,440.046878 447.226558,440.359375 448.039062,440.359375 C448.768233,440.359375 449.358071,440.070315 449.808594,439.492188 C450.259117,438.91406 450.484375,438.1849 450.484375,437.304688 C450.484375,436.40885 450.259117,435.690107 449.808594,435.148438 C449.358071,434.606768 448.750004,434.335938 447.984375,434.335938 Z" id="path-13"></path>
        <path d="M653.945312,430.445312 L650.046875,430.445312 L650.046875,441 L649.085938,441 L649.085938,430.445312 L645.195312,430.445312 L645.195312,429.625 L653.945312,429.625 L653.945312,430.445312 Z M663.25,435.734375 C662.916665,436.223961 662.502607,436.602863 662.007812,436.871094 C661.513018,437.139324 660.976565,437.273438 660.398438,437.273438 C659.752601,437.273438 659.182294,437.106772 658.6875,436.773438 C658.192706,436.440103 657.809897,435.97917 657.539062,435.390625 C657.268228,434.80208 657.132812,434.158858 657.132812,433.460938 C657.132812,432.710934 657.277342,432.028649 657.566406,431.414062 C657.85547,430.799476 658.259112,430.321616 658.777344,429.980469 C659.295576,429.639321 659.893226,429.46875 660.570312,429.46875 C661.710943,429.46875 662.598955,429.868486 663.234375,430.667969 C663.869795,431.467452 664.1875,432.601555 664.1875,434.070312 L664.1875,434.914062 C664.1875,436.966156 663.750004,438.507807 662.875,439.539062 C661.999996,440.570318 660.664071,441.085938 658.867188,441.085938 L658.695312,441.085938 L658.703125,440.273438 L659.03125,440.273438 C660.390632,440.252604 661.424476,439.867191 662.132812,439.117188 C662.841149,438.367184 663.213541,437.239591 663.25,435.734375 Z M660.515625,436.46875 C661.140628,436.46875 661.70182,436.282554 662.199219,435.910156 C662.696617,435.537759 663.049478,435.05469 663.257812,434.460938 L663.257812,433.921875 C663.257812,432.765619 663.016929,431.868493 662.535156,431.230469 C662.053383,430.592445 661.40365,430.273438 660.585938,430.273438 C659.84635,430.273438 659.239586,430.571612 658.765625,431.167969 C658.291664,431.764326 658.054688,432.51562 658.054688,433.421875 C658.054688,434.291671 658.28255,435.016924 658.738281,435.597656 C659.194013,436.178388 659.786455,436.46875 660.515625,436.46875 Z" id="path-14"></path>
        <path d="M719.511719,430.445312 L715.613281,430.445312 L715.613281,441 L714.652344,441 L714.652344,430.445312 L710.761719,430.445312 L710.761719,429.625 L719.511719,429.625 L719.511719,430.445312 Z M727.332031,441 L726.394531,441 L726.394531,430.75 L723.300781,431.898438 L723.300781,431.023438 L727.175781,429.585938 L727.332031,429.585938 L727.332031,441 Z M740.707031,436.257812 C740.707031,437.861987 740.412763,439.079423 739.824219,439.910156 C739.235674,440.74089 738.368495,441.15625 737.222656,441.15625 C736.097651,441.15625 735.23568,440.748702 734.636719,439.933594 C734.037757,439.118486 733.730469,437.932299 733.714844,436.375 L733.714844,434.335938 C733.714844,432.736971 734.011716,431.526046 734.605469,430.703125 C735.199222,429.880204 736.066401,429.46875 737.207031,429.46875 C738.332037,429.46875 739.191403,429.865881 739.785156,430.660156 C740.378909,431.454431 740.686198,432.624992 740.707031,434.171875 L740.707031,436.257812 Z M739.769531,434.21875 C739.769531,432.91666 739.557294,431.932295 739.132812,431.265625 C738.708331,430.598955 738.066411,430.265625 737.207031,430.265625 C736.363277,430.265625 735.727867,430.591143 735.300781,431.242188 C734.873696,431.893232 734.654948,432.85416 734.644531,434.125 L734.644531,436.359375 C734.644531,437.656256 734.864581,438.648434 735.304688,439.335938 C735.744794,440.023441 736.38411,440.367188 737.222656,440.367188 C738.055994,440.367188 738.687498,440.031253 739.117188,439.359375 C739.546877,438.687497 739.764323,437.703131 739.769531,436.40625 L739.769531,434.21875 Z" id="path-15"></path>
    </defs>
    <g id="Welcome" stroke="none" stroke-width="1" fill="none" fill-rule="evenodd">
        <g id="Friends" transform="translate(-350.000000, -16427.000000)">
            <g id="Group-27" transform="translate(348.000000, 16424.000000)">
                <g id="salidas2-copy">
                    <g id="rejilla">
                        <path d="M79.1300138,416.938166 L743,416.938166" id="Path" stroke="#000000" opacity="0.300000012"></path>
                        <path d="M79.1300138,314.539446 L743,314.539446" id="Path" stroke="#000000" opacity="0.300000012" stroke-dasharray="6,9"></path>
                        <path d="M79.1300138,212.140725 L743,212.140725" id="Path" stroke="#000000" opacity="0.300000012" stroke-dasharray="6,9"></path>
                        <path d="M79.1300138,110.648188 L743,110.648188" id="Path" stroke="#000000" opacity="0.300000012" stroke-dasharray="6,9"></path>
                        <path d="M79.1300138,9.15565032 L743,9.15565032" id="Path" stroke="#000000" opacity="0.300000012" stroke-dasharray="6,9"></path>
                        <g id="0" fill-rule="nonzero" fill="#000000">
                            <use xlink:href="#path-1"></use>
                            <use xlink:href="#path-1"></use>
                        </g>
                        <g id="500" fill-rule="nonzero" fill="#000000">
                            <use xlink:href="#path-2"></use>
                            <use xlink:href="#path-2"></use>
                        </g>
                        <g id="1.000" fill-rule="nonzero" fill="#000000">
                            <use xlink:href="#path-3"></use>
                            <use xlink:href="#path-3"></use>
                        </g>
                        <g id="1.500" fill-rule="nonzero" fill="#000000">
                            <use xlink:href="#path-4"></use>
                            <use xlink:href="#path-4"></use>
                        </g>
                        <g id="2.000" fill-rule="nonzero" fill="#000000">
                            <use xlink:href="#path-5"></use>
                            <use xlink:href="#path-5"></use>
                        </g>
                    </g>
                </g>
                <g id="T1" fill-rule="nonzero" fill="#000000">
                    <use xlink:href="#path-6"></use>
                    <use xlink:href="#path-6"></use>
                </g>
                <g id="T7" fill-rule="nonzero" fill="#000000">
                    <use xlink:href="#path-7"></use>
                    <use xlink:href="#path-7"></use>
                </g>
                <g id="T8" fill-rule="nonzero" fill="#000000">
                    <use xlink:href="#path-8"></use>
                    <use xlink:href="#path-8"></use>
                </g>
                <g id="T2" fill-rule="nonzero" fill="#000000">
                    <use xlink:href="#path-9"></use>
                    <use xlink:href="#path-9"></use>
                </g>
                <g id="T3" fill-rule="nonzero" fill="#000000">
                    <use xlink:href="#path-10"></use>
                    <use xlink:href="#path-10"></use>
                </g>
                <g id="T4" fill-rule="nonzero" fill="#000000">
                    <use xlink:href="#path-11"></use>
                    <use xlink:href="#path-11"></use>
                </g>
                <g id="T5" fill-rule="nonzero" fill="#000000">
                    <use xlink:href="#path-12"></use>
                    <use xlink:href="#path-12"></use>
                </g>
                <g id="T6" fill-rule="nonzero" fill="#000000">
                    <use xlink:href="#path-13"></use>
                    <use xlink:href="#path-13"></use>
                </g>
                <g id="T9" fill-rule="nonzero" fill="#000000">
                    <use xlink:href="#path-14"></use>
                    <use xlink:href="#path-14"></use>
                </g>
                <g id="T10" fill-rule="nonzero" fill="#000000">
                    <use xlink:href="#path-15"></use>
                    <use xlink:href="#path-15"></use>
                </g>
            </g>
        </g>
    </g>
</svg>