<?xml version="1.0" encoding="UTF-8"?>
<svg width="360px" height="615px" viewBox="0 0 360 615" version="1.1" xmlns="http://www.w3.org/2000/svg" xmlns:xlink="http://www.w3.org/1999/xlink">
    <!-- Generator: Sketch 56.2 (81672) - https://sketch.com -->
    <title>Group</title>
    <desc>Created with Sketch.</desc>
    <defs>
        <path d="M17.75,410.820312 L13.8515625,410.820312 L13.8515625,421.375 L12.890625,421.375 L12.890625,410.820312 L9,410.820312 L9,410 L17.75,410 L17.75,410.820312 Z M26.7265625,410.539062 L21.8671875,421.375 L20.890625,421.375 L25.71875,410.796875 L19.25,410.796875 L19.25,410 L26.7265625,410 L26.7265625,410.539062 Z" id="path-1"></path>
        <path d="M17.75,469.976562 L13.8515625,469.976562 L13.8515625,480.53125 L12.890625,480.53125 L12.890625,469.976562 L9,469.976562 L9,469.15625 L17.75,469.15625 L17.75,469.976562 Z M26.421875,472.085938 C26.421875,472.674482 26.2500017,473.201821 25.90625,473.667969 C25.5624983,474.134117 25.1093778,474.476561 24.546875,474.695312 C25.2031283,474.919272 25.7291647,475.281248 26.125,475.78125 C26.5208353,476.281252 26.71875,476.859372 26.71875,477.515625 C26.71875,478.489588 26.3880241,479.261716 25.7265625,479.832031 C25.0651009,480.402347 24.1901096,480.6875 23.1015625,480.6875 C22.0025987,480.6875 21.1237012,480.403649 20.4648438,479.835938 C19.8059863,479.268226 19.4765625,478.494797 19.4765625,477.515625 C19.4765625,476.869788 19.6666648,476.294273 20.046875,475.789062 C20.4270852,475.283852 20.9479134,474.919272 21.609375,474.695312 C21.0468722,474.476561 20.59896,474.134117 20.265625,473.667969 C19.93229,473.201821 19.765625,472.674482 19.765625,472.085938 C19.765625,471.143224 20.0690074,470.393232 20.6757812,469.835938 C21.2825551,469.278643 22.0859325,469 23.0859375,469 C24.0859425,469 24.891924,469.281247 25.5039062,469.84375 C26.1158885,470.406253 26.421875,471.153641 26.421875,472.085938 Z M25.78125,477.523438 C25.78125,476.815101 25.5286484,476.233075 25.0234375,475.777344 C24.5182266,475.321612 23.8723998,475.09375 23.0859375,475.09375 C22.2994752,475.09375 21.6562525,475.317706 21.15625,475.765625 C20.6562475,476.213544 20.40625,476.799476 20.40625,477.523438 C20.40625,478.247399 20.6484351,478.824217 21.1328125,479.253906 C21.6171899,479.683596 22.2734334,479.898438 23.1015625,479.898438 C23.9088582,479.898438 24.5572892,479.684898 25.046875,479.257812 C25.5364608,478.830727 25.78125,478.252608 25.78125,477.523438 Z M25.484375,472.078125 C25.484375,471.42708 25.2591168,470.884117 24.8085938,470.449219 C24.3580707,470.014321 23.7838577,469.796875 23.0859375,469.796875 C22.3776006,469.796875 21.8033876,470.006508 21.3632812,470.425781 C20.9231749,470.845054 20.703125,471.39583 20.703125,472.078125 C20.703125,472.744795 20.9231749,473.281248 21.3632812,473.6875 C21.8033876,474.093752 22.3802048,474.296875 23.09375,474.296875 C23.7968785,474.296875 24.3710915,474.09245 24.8164062,473.683594 C25.261721,473.274738 25.484375,472.739587 25.484375,472.078125 Z" id="path-2"></path>
        <path d="M17.75,170.976562 L13.8515625,170.976562 L13.8515625,181.53125 L12.890625,181.53125 L12.890625,170.976562 L9,170.976562 L9,170.15625 L17.75,170.15625 L17.75,170.976562 Z M21.796875,175.335938 L22.765625,175.335938 C23.302086,175.335938 23.7708313,175.240886 24.171875,175.050781 C24.5729187,174.860676 24.8789052,174.600262 25.0898438,174.269531 C25.3007823,173.9388 25.40625,173.557294 25.40625,173.125 C25.40625,172.39583 25.2005229,171.825523 24.7890625,171.414062 C24.3776021,171.002602 23.7864622,170.796875 23.015625,170.796875 C22.2864547,170.796875 21.6888044,171.011717 21.2226562,171.441406 C20.7565081,171.871096 20.5234375,172.437496 20.5234375,173.140625 L19.5859375,173.140625 C19.5859375,172.55208 19.7343735,172.014325 20.03125,171.527344 C20.3281265,171.040362 20.7395807,170.664064 21.265625,170.398438 C21.7916693,170.132811 22.3749968,170 23.015625,170 C24.0468802,170 24.859372,170.281247 25.453125,170.84375 C26.046878,171.406253 26.34375,172.177078 26.34375,173.15625 C26.34375,173.703128 26.1705746,174.207029 25.8242188,174.667969 C25.4778629,175.128909 25.0026072,175.473957 24.3984375,175.703125 C25.1067744,175.901043 25.6432273,176.240883 26.0078125,176.722656 C26.3723977,177.204429 26.5546875,177.778642 26.5546875,178.445312 C26.5546875,179.419276 26.2369823,180.203122 25.6015625,180.796875 C24.9661427,181.390628 24.1171928,181.6875 23.0546875,181.6875 C22.3776008,181.6875 21.7565132,181.552085 21.1914062,181.28125 C20.6262993,181.010415 20.1888036,180.631513 19.8789062,180.144531 C19.5690089,179.65755 19.4140625,179.091149 19.4140625,178.445312 L20.3515625,178.445312 C20.3515625,179.169274 20.6041641,179.759112 21.109375,180.214844 C21.6145859,180.670575 22.2630169,180.898438 23.0546875,180.898438 C23.8619832,180.898438 24.4908832,180.691408 24.9414062,180.277344 C25.3919293,179.863279 25.6171875,179.263025 25.6171875,178.476562 C25.6171875,177.716142 25.3737004,177.135419 24.8867188,176.734375 C24.3997371,176.333331 23.6822964,176.132812 22.734375,176.132812 L21.796875,176.132812 L21.796875,175.335938 Z" id="path-3"></path>
        <path d="M17.75,230.820312 L13.8515625,230.820312 L13.8515625,241.375 L12.890625,241.375 L12.890625,230.820312 L9,230.820312 L9,230 L17.75,230 L17.75,230.820312 Z M25.4609375,237.710938 L27.234375,237.710938 L27.234375,238.5 L25.4609375,238.5 L25.4609375,241.375 L24.5234375,241.375 L24.5234375,238.5 L19.171875,238.5 L19.171875,237.96875 L24.4375,230 L25.4609375,230 L25.4609375,237.710938 Z M20.3203125,237.710938 L24.5234375,237.710938 L24.5234375,231.210938 L24.109375,231.929688 L20.3203125,237.710938 Z" id="path-4"></path>
        <path d="M17.75,290.820312 L13.8515625,290.820312 L13.8515625,301.375 L12.890625,301.375 L12.890625,290.820312 L9,290.820312 L9,290 L17.75,290 L17.75,290.820312 Z M20.3515625,295.546875 L20.90625,290 L26.59375,290 L26.59375,290.867188 L21.7109375,290.867188 L21.3125,294.710938 C21.921878,294.294269 22.6354126,294.085938 23.453125,294.085938 C24.4791718,294.085938 25.296872,294.419267 25.90625,295.085938 C26.515628,295.752608 26.8203125,296.640619 26.8203125,297.75 C26.8203125,298.947923 26.5234405,299.877601 25.9296875,300.539062 C25.3359345,301.200524 24.5000054,301.53125 23.421875,301.53125 C22.4322867,301.53125 21.6302114,301.255211 21.015625,300.703125 C20.4010386,300.151039 20.0494796,299.377609 19.9609375,298.382812 L20.859375,298.382812 C20.9479171,299.158858 21.2109353,299.746092 21.6484375,300.144531 C22.0859397,300.542971 22.6770796,300.742188 23.421875,300.742188 C24.2343791,300.742188 24.8476542,300.484378 25.2617188,299.96875 C25.6757833,299.453122 25.8828125,298.718755 25.8828125,297.765625 C25.8828125,296.932288 25.651044,296.252607 25.1875,295.726562 C24.723956,295.200518 24.0911498,294.9375 23.2890625,294.9375 C22.846352,294.9375 22.4609375,294.993489 22.1328125,295.105469 C21.8046859,295.217448 21.4583352,295.434894 21.09375,295.757812 L20.3515625,295.546875 Z" id="path-5"></path>
        <path d="M17.75,350.90625 L13.8515625,350.90625 L13.8515625,361.460938 L12.890625,361.460938 L12.890625,350.90625 L9,350.90625 L9,350.085938 L17.75,350.085938 L17.75,350.90625 Z M25.234375,350 L25.234375,350.820312 L25.125,350.820312 C23.7656182,350.820312 22.6953164,351.220048 21.9140625,352.019531 C21.1328086,352.819014 20.7005213,353.92968 20.6171875,355.351562 C20.9296891,354.919269 21.3281226,354.584637 21.8125,354.347656 C22.2968774,354.110676 22.8385387,353.992188 23.4375,353.992188 C24.437505,353.992188 25.23307,354.337236 25.8242188,355.027344 C26.4153675,355.717451 26.7109375,356.619786 26.7109375,357.734375 C26.7109375,358.473962 26.572918,359.140622 26.296875,359.734375 C26.020832,360.328128 25.6250026,360.790363 25.109375,361.121094 C24.5937474,361.451825 24.0052116,361.617188 23.34375,361.617188 C22.2552029,361.617188 21.3697951,361.22266 20.6875,360.433594 C20.0052049,359.644527 19.6640625,358.625006 19.6640625,357.375 L19.6640625,356.4375 C19.6640625,354.401031 20.1275995,352.824224 21.0546875,351.707031 C21.9817755,350.589838 23.2968665,350.020833 25,350 L25.234375,350 Z M23.2890625,354.796875 C22.6953095,354.796875 22.1419296,354.972654 21.6289062,355.324219 C21.1158829,355.675783 20.7734384,356.122393 20.6015625,356.664062 L20.6015625,357.460938 C20.6015625,358.450526 20.8554662,359.257809 21.3632812,359.882812 C21.8710963,360.507816 22.5312459,360.820312 23.34375,360.820312 C24.0729203,360.820312 24.6627582,360.531253 25.1132812,359.953125 C25.5638043,359.374997 25.7890625,358.645838 25.7890625,357.765625 C25.7890625,356.869787 25.5638043,356.151044 25.1132812,355.609375 C24.6627582,355.067706 24.0546913,354.796875 23.2890625,354.796875 Z" id="path-6"></path>
        <path d="M17.75,50.859375 L13.8515625,50.859375 L13.8515625,61.4140625 L12.890625,61.4140625 L12.890625,50.859375 L9,50.859375 L9,50.0390625 L17.75,50.0390625 L17.75,50.859375 Z M24.0703125,61.4140625 L23.1328125,61.4140625 L23.1328125,51.1640625 L20.0390625,52.3125 L20.0390625,51.4375 L23.9140625,50 L24.0703125,50 L24.0703125,61.4140625 Z" id="path-7"></path>
        <path d="M17.75,110.976562 L13.8515625,110.976562 L13.8515625,121.53125 L12.890625,121.53125 L12.890625,110.976562 L9,110.976562 L9,110.15625 L17.75,110.15625 L17.75,110.976562 Z M26.84375,121.53125 L19.71875,121.53125 L19.71875,120.8125 L23.6171875,116.390625 C24.2630241,115.64583 24.7109363,115.031252 24.9609375,114.546875 C25.2109387,114.062498 25.3359375,113.591148 25.3359375,113.132812 C25.3359375,112.414059 25.1250021,111.845054 24.703125,111.425781 C24.2812479,111.006508 23.7005245,110.796875 22.9609375,110.796875 C22.1953087,110.796875 21.5768253,111.041664 21.1054688,111.53125 C20.6341122,112.020836 20.3984375,112.656246 20.3984375,113.4375 L19.46875,113.4375 C19.46875,112.796872 19.6132798,112.213544 19.9023438,111.6875 C20.1914077,111.161456 20.6028619,110.748699 21.1367188,110.449219 C21.6705756,110.149738 22.2786424,110 22.9609375,110 C24.0026094,110 24.8164033,110.273435 25.4023438,110.820312 C25.9882842,111.36719 26.28125,112.111974 26.28125,113.054688 C26.28125,113.58594 26.1158871,114.166664 25.7851562,114.796875 C25.4544254,115.427086 24.8724,116.213537 24.0390625,117.15625 L20.8671875,120.742188 L26.84375,120.742188 L26.84375,121.53125 Z" id="path-8"></path>
        <path d="M17.75,530.976562 L13.8515625,530.976562 L13.8515625,541.53125 L12.890625,541.53125 L12.890625,530.976562 L9,530.976562 L9,530.15625 L17.75,530.15625 L17.75,530.976562 Z M25.5546875,536.265625 C25.2213525,536.755211 24.8072941,537.134113 24.3125,537.402344 C23.8177059,537.670574 23.2812529,537.804688 22.703125,537.804688 C22.0572884,537.804688 21.4869816,537.638023 20.9921875,537.304688 C20.4973934,536.971352 20.1145847,536.51042 19.84375,535.921875 C19.5729153,535.33333 19.4375,534.690108 19.4375,533.992188 C19.4375,533.242184 19.5820298,532.559899 19.8710938,531.945312 C20.1601577,531.330726 20.5637995,530.852866 21.0820312,530.511719 C21.600263,530.170571 22.1979133,530 22.875,530 C24.0156307,530 24.9036427,530.399736 25.5390625,531.199219 C26.1744823,531.998702 26.4921875,533.132805 26.4921875,534.601562 L26.4921875,535.445312 C26.4921875,537.497406 26.0546919,539.039057 25.1796875,540.070312 C24.3046831,541.101568 22.968759,541.617188 21.171875,541.617188 L21,541.617188 L21.0078125,540.804688 L21.3359375,540.804688 C22.6953193,540.783854 23.7291631,540.398441 24.4375,539.648438 C25.1458369,538.898434 25.518229,537.770841 25.5546875,536.265625 Z M22.8203125,537 C23.4453156,537 24.0065079,536.813804 24.5039062,536.441406 C25.0013046,536.069009 25.3541656,535.58594 25.5625,534.992188 L25.5625,534.453125 C25.5625,533.296869 25.321617,532.399743 24.8398438,531.761719 C24.3580705,531.123695 23.7083374,530.804688 22.890625,530.804688 C22.151038,530.804688 21.5442732,531.102862 21.0703125,531.699219 C20.5963518,532.295576 20.359375,533.04687 20.359375,533.953125 C20.359375,534.822921 20.5872373,535.548174 21.0429688,536.128906 C21.4987002,536.709638 22.0911422,537 22.8203125,537 Z" id="path-9"></path>
        <path d="M8.75,591.976562 L4.8515625,591.976562 L4.8515625,602.53125 L3.890625,602.53125 L3.890625,591.976562 L0,591.976562 L0,591.15625 L8.75,591.15625 L8.75,591.976562 Z M15.0703125,602.53125 L14.1328125,602.53125 L14.1328125,592.28125 L11.0390625,593.429688 L11.0390625,592.554688 L14.9140625,591.117188 L15.0703125,591.117188 L15.0703125,602.53125 Z M26.9453125,597.789062 C26.9453125,599.393237 26.6510446,600.610673 26.0625,601.441406 C25.4739554,602.27214 24.6067766,602.6875 23.4609375,602.6875 C22.3359319,602.6875 21.4739613,602.279952 20.875,601.464844 C20.2760387,600.649736 19.9687501,599.463549 19.953125,597.90625 L19.953125,595.867188 C19.953125,594.268221 20.249997,593.057296 20.84375,592.234375 C21.437503,591.411454 22.3046818,591 23.4453125,591 C24.5703181,591 25.4296845,591.397131 26.0234375,592.191406 C26.6171905,592.985681 26.9244791,594.156242 26.9453125,595.703125 L26.9453125,597.789062 Z M26.0078125,595.75 C26.0078125,594.44791 25.795575,593.463545 25.3710938,592.796875 C24.9466125,592.130205 24.3046918,591.796875 23.4453125,591.796875 C22.6015583,591.796875 21.966148,592.122393 21.5390625,592.773438 C21.111977,593.424482 20.8932292,594.38541 20.8828125,595.65625 L20.8828125,597.890625 C20.8828125,599.187506 21.1028624,600.179684 21.5429688,600.867188 C21.9830751,601.554691 22.6223916,601.898438 23.4609375,601.898438 C24.294275,601.898438 24.9257791,601.562503 25.3554688,600.890625 C25.7851584,600.218747 26.0026041,599.234381 26.0078125,597.9375 L26.0078125,595.75 Z" id="path-10"></path>
        <path d="M34.9921875,6.7890625 C34.9921875,8.39323719 34.6979196,9.61067293 34.109375,10.4414062 C33.5208304,11.2721396 32.6536516,11.6875 31.5078125,11.6875 C30.3828069,11.6875 29.5208363,11.279952 28.921875,10.4648438 C28.3229137,9.64973551 28.0156251,8.46354945 28,6.90625 L28,4.8671875 C28,3.26822117 28.296872,2.05729578 28.890625,1.234375 C29.484378,0.411454219 30.3515568,0 31.4921875,0 C32.6171931,0 33.4765595,0.397131445 34.0703125,1.19140625 C34.6640655,1.98568105 34.9713541,3.15624227 34.9921875,4.703125 L34.9921875,6.7890625 Z M34.0546875,4.75 C34.0546875,3.44791016 33.84245,2.463545 33.4179688,1.796875 C32.9934875,1.130205 32.3515668,0.796875 31.4921875,0.796875 C30.6484333,0.796875 30.013023,1.12239258 29.5859375,1.7734375 C29.158852,2.42448242 28.9401042,3.38541031 28.9296875,4.65625 L28.9296875,6.890625 C28.9296875,8.18750648 29.1497374,9.17968406 29.5898438,9.8671875 C30.0299501,10.5546909 30.6692666,10.8984375 31.5078125,10.8984375 C32.34115,10.8984375 32.9726541,10.5625034 33.4023438,9.890625 C33.8320334,9.21874664 34.0494791,8.23438148 34.0546875,6.9375 L34.0546875,4.75 Z" id="path-11"></path>
        <path d="M94.375,11.53125 L87.25,11.53125 L87.25,10.8125 L91.1484375,6.390625 C91.7942741,5.64582961 92.2421863,5.03125242 92.4921875,4.546875 C92.7421887,4.06249758 92.8671875,3.59114813 92.8671875,3.1328125 C92.8671875,2.41405891 92.6562521,1.84505418 92.234375,1.42578125 C91.8124979,1.00650832 91.2317745,0.796875 90.4921875,0.796875 C89.7265587,0.796875 89.1080753,1.04166422 88.6367188,1.53125 C88.1653622,2.02083578 87.9296875,2.65624609 87.9296875,3.4375 L87,3.4375 C87,2.7968718 87.1445298,2.2135443 87.4335938,1.6875 C87.7226577,1.1614557 88.1341119,0.748699414 88.6679688,0.44921875 C89.2018256,0.149738086 89.8098924,0 90.4921875,0 C91.5338594,0 92.3476533,0.273434766 92.9335938,0.8203125 C93.5195342,1.36719023 93.8125,2.11197445 93.8125,3.0546875 C93.8125,3.58594016 93.6471371,4.16666352 93.3164062,4.796875 C92.9856754,5.42708648 92.40365,6.21353695 91.5703125,7.15625 L88.3984375,10.7421875 L94.375,10.7421875 L94.375,11.53125 Z M97.25,5.703125 L97.8046875,0.15625 L103.492188,0.15625 L103.492188,1.0234375 L98.609375,1.0234375 L98.2109375,4.8671875 C98.8203155,4.45051875 99.5338501,4.2421875 100.351562,4.2421875 C101.377609,4.2421875 102.195309,4.5755175 102.804688,5.2421875 C103.414066,5.9088575 103.71875,6.79686945 103.71875,7.90625 C103.71875,9.10417266 103.421878,10.0338509 102.828125,10.6953125 C102.234372,11.3567741 101.398443,11.6875 100.320312,11.6875 C99.3307242,11.6875 98.5286489,11.4114611 97.9140625,10.859375 C97.2994761,10.3072889 96.9479171,9.53385914 96.859375,8.5390625 L97.7578125,8.5390625 C97.8463546,9.31510805 98.1093728,9.90234176 98.546875,10.3007812 C98.9843772,10.6992207 99.5755171,10.8984375 100.320312,10.8984375 C101.132817,10.8984375 101.746092,10.6406276 102.160156,10.125 C102.574221,9.60937242 102.78125,8.87500477 102.78125,7.921875 C102.78125,7.0885375 102.549481,6.4088568 102.085938,5.8828125 C101.622394,5.3567682 100.989587,5.09375 100.1875,5.09375 C99.7447895,5.09375 99.359375,5.14973902 99.03125,5.26171875 C98.7031234,5.37369848 98.3567727,5.59114422 97.9921875,5.9140625 L97.25,5.703125 Z" id="path-12"></path>
        <path d="M153.390625,5.703125 L153.945312,0.15625 L159.632812,0.15625 L159.632812,1.0234375 L154.75,1.0234375 L154.351562,4.8671875 C154.960941,4.45051875 155.674475,4.2421875 156.492188,4.2421875 C157.518234,4.2421875 158.335934,4.5755175 158.945312,5.2421875 C159.554691,5.9088575 159.859375,6.79686945 159.859375,7.90625 C159.859375,9.10417266 159.562503,10.0338509 158.96875,10.6953125 C158.374997,11.3567741 157.539068,11.6875 156.460938,11.6875 C155.471349,11.6875 154.669274,11.4114611 154.054688,10.859375 C153.440101,10.3072889 153.088542,9.53385914 153,8.5390625 L153.898438,8.5390625 C153.98698,9.31510805 154.249998,9.90234176 154.6875,10.3007812 C155.125002,10.6992207 155.716142,10.8984375 156.460938,10.8984375 C157.273442,10.8984375 157.886717,10.6406276 158.300781,10.125 C158.714846,9.60937242 158.921875,8.87500477 158.921875,7.921875 C158.921875,7.0885375 158.690106,6.4088568 158.226562,5.8828125 C157.763019,5.3567682 157.130212,5.09375 156.328125,5.09375 C155.885414,5.09375 155.5,5.14973902 155.171875,5.26171875 C154.843748,5.37369848 154.497398,5.59114422 154.132812,5.9140625 L153.390625,5.703125 Z M168.984375,6.7890625 C168.984375,8.39323719 168.690107,9.61067293 168.101562,10.4414062 C167.513018,11.2721396 166.645839,11.6875 165.5,11.6875 C164.374994,11.6875 163.513024,11.279952 162.914062,10.4648438 C162.315101,9.64973551 162.007813,8.46354945 161.992188,6.90625 L161.992188,4.8671875 C161.992188,3.26822117 162.28906,2.05729578 162.882812,1.234375 C163.476565,0.411454219 164.343744,0 165.484375,0 C166.609381,0 167.468747,0.397131445 168.0625,1.19140625 C168.656253,1.98568105 168.963542,3.15624227 168.984375,4.703125 L168.984375,6.7890625 Z M168.046875,4.75 C168.046875,3.44791016 167.834638,2.463545 167.410156,1.796875 C166.985675,1.130205 166.343754,0.796875 165.484375,0.796875 C164.640621,0.796875 164.00521,1.12239258 163.578125,1.7734375 C163.15104,2.42448242 162.932292,3.38541031 162.921875,4.65625 L162.921875,6.890625 C162.921875,8.18750648 163.141925,9.17968406 163.582031,9.8671875 C164.022138,10.5546909 164.661454,10.8984375 165.5,10.8984375 C166.333337,10.8984375 166.964842,10.5625034 167.394531,9.890625 C167.824221,9.21874664 168.041667,8.23438148 168.046875,6.9375 L168.046875,4.75 Z" id="path-13"></path>
        <path d="M222.476562,0.5390625 L217.617188,11.375 L216.640625,11.375 L221.46875,0.796875 L215,0.796875 L215,0 L222.476562,0 L222.476562,0.5390625 Z M225.46875,5.546875 L226.023438,0 L231.710938,0 L231.710938,0.8671875 L226.828125,0.8671875 L226.429688,4.7109375 C227.039066,4.29426875 227.7526,4.0859375 228.570312,4.0859375 C229.596359,4.0859375 230.414059,4.4192675 231.023438,5.0859375 C231.632816,5.7526075 231.9375,6.64061945 231.9375,7.75 C231.9375,8.94792266 231.640628,9.87760086 231.046875,10.5390625 C230.453122,11.2005241 229.617193,11.53125 228.539062,11.53125 C227.549474,11.53125 226.747399,11.2552111 226.132812,10.703125 C225.518226,10.1510389 225.166667,9.37760914 225.078125,8.3828125 L225.976562,8.3828125 C226.065105,9.15885805 226.328123,9.74609176 226.765625,10.1445312 C227.203127,10.5429707 227.794267,10.7421875 228.539062,10.7421875 C229.351567,10.7421875 229.964842,10.4843776 230.378906,9.96875 C230.792971,9.45312242 231,8.71875477 231,7.765625 C231,6.9322875 230.768231,6.2526068 230.304688,5.7265625 C229.841144,5.2005182 229.208337,4.9375 228.40625,4.9375 C227.963539,4.9375 227.578125,4.99348902 227.25,5.10546875 C226.921873,5.21744848 226.575523,5.43489422 226.210938,5.7578125 L225.46875,5.546875 Z" id="path-14"></path>
        <path d="M278.03125,11.53125 L277.09375,11.53125 L277.09375,1.28125 L274,2.4296875 L274,1.5546875 L277.875,0.1171875 L278.03125,0.1171875 L278.03125,11.53125 Z M289.90625,6.7890625 C289.90625,8.39323719 289.611982,9.61067293 289.023438,10.4414062 C288.434893,11.2721396 287.567714,11.6875 286.421875,11.6875 C285.296869,11.6875 284.434899,11.279952 283.835938,10.4648438 C283.236976,9.64973551 282.929688,8.46354945 282.914062,6.90625 L282.914062,4.8671875 C282.914062,3.26822117 283.210935,2.05729578 283.804688,1.234375 C284.39844,0.411454219 285.265619,0 286.40625,0 C287.531256,0 288.390622,0.397131445 288.984375,1.19140625 C289.578128,1.98568105 289.885417,3.15624227 289.90625,4.703125 L289.90625,6.7890625 Z M288.96875,4.75 C288.96875,3.44791016 288.756513,2.463545 288.332031,1.796875 C287.90755,1.130205 287.265629,0.796875 286.40625,0.796875 C285.562496,0.796875 284.927085,1.12239258 284.5,1.7734375 C284.072915,2.42448242 283.854167,3.38541031 283.84375,4.65625 L283.84375,6.890625 C283.84375,8.18750648 284.0638,9.17968406 284.503906,9.8671875 C284.944013,10.5546909 285.583329,10.8984375 286.421875,10.8984375 C287.255212,10.8984375 287.886717,10.5625034 288.316406,9.890625 C288.746096,9.21874664 288.963542,8.23438148 288.96875,6.9375 L288.96875,4.75 Z M299.273438,6.7890625 C299.273438,8.39323719 298.97917,9.61067293 298.390625,10.4414062 C297.80208,11.2721396 296.934902,11.6875 295.789062,11.6875 C294.664057,11.6875 293.802086,11.279952 293.203125,10.4648438 C292.604164,9.64973551 292.296875,8.46354945 292.28125,6.90625 L292.28125,4.8671875 C292.28125,3.26822117 292.578122,2.05729578 293.171875,1.234375 C293.765628,0.411454219 294.632807,0 295.773438,0 C296.898443,0 297.75781,0.397131445 298.351562,1.19140625 C298.945315,1.98568105 299.252604,3.15624227 299.273438,4.703125 L299.273438,6.7890625 Z M298.335938,4.75 C298.335938,3.44791016 298.1237,2.463545 297.699219,1.796875 C297.274737,1.130205 296.632817,0.796875 295.773438,0.796875 C294.929683,0.796875 294.294273,1.12239258 293.867188,1.7734375 C293.440102,2.42448242 293.221354,3.38541031 293.210938,4.65625 L293.210938,6.890625 C293.210938,8.18750648 293.430987,9.17968406 293.871094,9.8671875 C294.3112,10.5546909 294.950517,10.8984375 295.789062,10.8984375 C296.6224,10.8984375 297.253904,10.5625034 297.683594,9.890625 C298.113283,9.21874664 298.330729,8.23438148 298.335938,6.9375 L298.335938,4.75 Z" id="path-15"></path>
        <path d="M338.03125,11.53125 L337.09375,11.53125 L337.09375,1.28125 L334,2.4296875 L334,1.5546875 L337.875,0.1171875 L338.03125,0.1171875 L338.03125,11.53125 Z M350.171875,11.53125 L343.046875,11.53125 L343.046875,10.8125 L346.945312,6.390625 C347.591149,5.64582961 348.039061,5.03125242 348.289062,4.546875 C348.539064,4.06249758 348.664062,3.59114813 348.664062,3.1328125 C348.664062,2.41405891 348.453127,1.84505418 348.03125,1.42578125 C347.609373,1.00650832 347.02865,0.796875 346.289062,0.796875 C345.523434,0.796875 344.90495,1.04166422 344.433594,1.53125 C343.962237,2.02083578 343.726562,2.65624609 343.726562,3.4375 L342.796875,3.4375 C342.796875,2.7968718 342.941405,2.2135443 343.230469,1.6875 C343.519533,1.1614557 343.930987,0.748699414 344.464844,0.44921875 C344.998701,0.149738086 345.606767,0 346.289062,0 C347.330734,0 348.144528,0.273434766 348.730469,0.8203125 C349.316409,1.36719023 349.609375,2.11197445 349.609375,3.0546875 C349.609375,3.58594016 349.444012,4.16666352 349.113281,4.796875 C348.78255,5.42708648 348.200525,6.21353695 347.367188,7.15625 L344.195312,10.7421875 L350.171875,10.7421875 L350.171875,11.53125 Z M353.046875,5.703125 L353.601562,0.15625 L359.289062,0.15625 L359.289062,1.0234375 L354.40625,1.0234375 L354.007812,4.8671875 C354.617191,4.45051875 355.330725,4.2421875 356.148438,4.2421875 C357.174484,4.2421875 357.992184,4.5755175 358.601562,5.2421875 C359.210941,5.9088575 359.515625,6.79686945 359.515625,7.90625 C359.515625,9.10417266 359.218753,10.0338509 358.625,10.6953125 C358.031247,11.3567741 357.195318,11.6875 356.117188,11.6875 C355.127599,11.6875 354.325524,11.4114611 353.710938,10.859375 C353.096351,10.3072889 352.744792,9.53385914 352.65625,8.5390625 L353.554688,8.5390625 C353.64323,9.31510805 353.906248,9.90234176 354.34375,10.3007812 C354.781252,10.6992207 355.372392,10.8984375 356.117188,10.8984375 C356.929692,10.8984375 357.542967,10.6406276 357.957031,10.125 C358.371096,9.60937242 358.578125,8.87500477 358.578125,7.921875 C358.578125,7.0885375 358.346356,6.4088568 357.882812,5.8828125 C357.419269,5.3567682 356.786462,5.09375 355.984375,5.09375 C355.541664,5.09375 355.15625,5.14973902 354.828125,5.26171875 C354.499998,5.37369848 354.153648,5.59114422 353.789062,5.9140625 L353.046875,5.703125 Z" id="path-16"></path>
    </defs>
    <g id="Welcome" stroke="none" stroke-width="1" fill="none" fill-rule="evenodd">
        <g id="iPhone-8-Copy-2" transform="translate(-7.000000, -874.000000)">
            <g id="Group" transform="translate(7.000000, 874.000000)">
                <g id="Group-3-Copy-3" transform="translate(192.000000, 316.500000) rotate(-270.000000) translate(-192.000000, -316.500000) translate(-108.000000, 156.000000)" stroke="#434343">
                    <g id="Group-3-Copy" transform="translate(0.500000, 0.500000)">
                        <g id="rejilla">
                            <path d="M1.42108547e-12,318.826735 L592,318.826735" id="Path" opacity="0.301469"></path>
                            <path d="M1.36424205e-12,254.876677 L592,254.876677" id="Path" opacity="0.247093564" stroke-dasharray="5,9"></path>
                            <path d="M1.36424205e-12,191.569988 L592,191.569988" id="Path" opacity="0.247093564" stroke-dasharray="5,9"></path>
                            <path d="M1.36424205e-12,128.202941 L592,128.202941" id="Path" opacity="0.247093564" stroke-dasharray="5,9"></path>
                            <path d="M1.36424205e-12,64.192524 L592,64.192524" id="Path" opacity="0.247093564" stroke-dasharray="5,9"></path>
                            <path d="M6,1.04221907 L598,1.04221907" id="Path-Copy" opacity="0.247093564" stroke-dasharray="5,9"></path>
                        </g>
                    </g>
                </g>
                <g id="Group-2" fill="#000000" fill-rule="nonzero">
                    <g id="T7">
                        <use xlink:href="#path-1"></use>
                        <use xlink:href="#path-1"></use>
                    </g>
                    <g id="T8">
                        <use xlink:href="#path-2"></use>
                        <use xlink:href="#path-2"></use>
                    </g>
                    <g id="T3">
                        <use xlink:href="#path-3"></use>
                        <use xlink:href="#path-3"></use>
                    </g>
                    <g id="T4">
                        <use xlink:href="#path-4"></use>
                        <use xlink:href="#path-4"></use>
                    </g>
                    <g id="T5">
                        <use xlink:href="#path-5"></use>
                        <use xlink:href="#path-5"></use>
                    </g>
                    <g id="T6">
                        <use xlink:href="#path-6"></use>
                        <use xlink:href="#path-6"></use>
                    </g>
                    <g id="T1">
                        <use xlink:href="#path-7"></use>
                        <use xlink:href="#path-7"></use>
                    </g>
                    <g id="T2">
                        <use xlink:href="#path-8"></use>
                        <use xlink:href="#path-8"></use>
                    </g>
                    <g id="T9">
                        <use xlink:href="#path-9"></use>
                        <use xlink:href="#path-9"></use>
                    </g>
                    <g id="T10">
                        <use xlink:href="#path-10"></use>
                        <use xlink:href="#path-10"></use>
                    </g>
                    <g id="0">
                        <use xlink:href="#path-11"></use>
                        <use xlink:href="#path-11"></use>
                    </g>
                    <g id="25">
                        <use xlink:href="#path-12"></use>
                        <use xlink:href="#path-12"></use>
                    </g>
                    <g id="50">
                        <use xlink:href="#path-13"></use>
                        <use xlink:href="#path-13"></use>
                    </g>
                    <g id="75">
                        <use xlink:href="#path-14"></use>
                        <use xlink:href="#path-14"></use>
                    </g>
                    <g id="100">
                        <use xlink:href="#path-15"></use>
                        <use xlink:href="#path-15"></use>
                    </g>
                    <g id="125">
                        <use xlink:href="#path-16"></use>
                        <use xlink:href="#path-16"></use>
                    </g>
                </g>
            </g>
        </g>
    </g>
</svg>