<?xml version="1.0" encoding="UTF-8"?>
<svg width="343px" height="633px" viewBox="0 0 343 633" version="1.1" xmlns="http://www.w3.org/2000/svg" xmlns:xlink="http://www.w3.org/1999/xlink">
    <!-- Generator: Sketch 56.2 (81672) - https://sketch.com -->
    <title>Group 3</title>
    <desc>Created with Sketch.</desc>
    <defs>
        <path d="M10.0625,10.2578125 C10.0625,11.8619872 9.76823211,13.0794229 9.1796875,13.9101562 C8.59114289,14.7408896 7.72396406,15.15625 6.578125,15.15625 C5.45311938,15.15625 4.59114883,14.748702 3.9921875,13.9335938 C3.39322617,13.1184855 3.08593758,11.9322995 3.0703125,10.375 L3.0703125,8.3359375 C3.0703125,6.73697117 3.36718453,5.52604578 3.9609375,4.703125 C4.55469047,3.88020422 5.4218693,3.46875 6.5625,3.46875 C7.68750562,3.46875 8.54687203,3.86588145 9.140625,4.66015625 C9.73437797,5.45443105 10.0416666,6.62499227 10.0625,8.171875 L10.0625,10.2578125 Z M9.125,8.21875 C9.125,6.91666016 8.91276254,5.932295 8.48828125,5.265625 C8.06379996,4.598955 7.4218793,4.265625 6.5625,4.265625 C5.71874578,4.265625 5.08333547,4.59114258 4.65625,5.2421875 C4.22916453,5.89323242 4.01041672,6.85416031 4,8.125 L4,10.359375 C4,11.6562565 4.22004988,12.6484341 4.66015625,13.3359375 C5.10026262,14.0234409 5.73957914,14.3671875 6.578125,14.3671875 C7.4114625,14.3671875 8.0429666,14.0312534 8.47265625,13.359375 C8.9023459,12.6874966 9.11979164,11.7031315 9.125,10.40625 L9.125,8.21875 Z" id="path-1"></path>
        <path d="M106.554688,15 L105.617188,15 L105.617188,4.75 L102.523438,5.8984375 L102.523438,5.0234375 L106.398438,3.5859375 L106.554688,3.5859375 L106.554688,15 Z M119.929688,10.2578125 C119.929688,11.8619872 119.63542,13.0794229 119.046875,13.9101562 C118.45833,14.7408896 117.591152,15.15625 116.445312,15.15625 C115.320307,15.15625 114.458336,14.748702 113.859375,13.9335938 C113.260414,13.1184855 112.953125,11.9322995 112.9375,10.375 L112.9375,8.3359375 C112.9375,6.73697117 113.234372,5.52604578 113.828125,4.703125 C114.421878,3.88020422 115.289057,3.46875 116.429688,3.46875 C117.554693,3.46875 118.41406,3.86588145 119.007812,4.66015625 C119.601565,5.45443105 119.908854,6.62499227 119.929688,8.171875 L119.929688,10.2578125 Z M118.992188,8.21875 C118.992188,6.91666016 118.77995,5.932295 118.355469,5.265625 C117.930987,4.598955 117.289067,4.265625 116.429688,4.265625 C115.585933,4.265625 114.950523,4.59114258 114.523438,5.2421875 C114.096352,5.89323242 113.877604,6.85416031 113.867188,8.125 L113.867188,10.359375 C113.867188,11.6562565 114.087237,12.6484341 114.527344,13.3359375 C114.96745,14.0234409 115.606767,14.3671875 116.445312,14.3671875 C117.27865,14.3671875 117.910154,14.0312534 118.339844,13.359375 C118.769533,12.6874966 118.986979,11.7031315 118.992188,10.40625 L118.992188,8.21875 Z" id="path-2"></path>
        <path d="M216.328125,15 L209.203125,15 L209.203125,14.28125 L213.101562,9.859375 C213.747399,9.11457961 214.195311,8.50000242 214.445312,8.015625 C214.695314,7.53124758 214.820312,7.05989813 214.820312,6.6015625 C214.820312,5.88280891 214.609377,5.31380418 214.1875,4.89453125 C213.765623,4.47525832 213.1849,4.265625 212.445312,4.265625 C211.679684,4.265625 211.0612,4.51041422 210.589844,5 C210.118487,5.48958578 209.882812,6.12499609 209.882812,6.90625 L208.953125,6.90625 C208.953125,6.2656218 209.097655,5.6822943 209.386719,5.15625 C209.675783,4.6302057 210.087237,4.21744941 210.621094,3.91796875 C211.154951,3.61848809 211.763017,3.46875 212.445312,3.46875 C213.486984,3.46875 214.300778,3.74218477 214.886719,4.2890625 C215.472659,4.83594023 215.765625,5.58072445 215.765625,6.5234375 C215.765625,7.05469016 215.600262,7.63541352 215.269531,8.265625 C214.9388,8.89583648 214.356775,9.68228695 213.523438,10.625 L210.351562,14.2109375 L216.328125,14.2109375 L216.328125,15 Z M226.929688,10.2578125 C226.929688,11.8619872 226.63542,13.0794229 226.046875,13.9101562 C225.45833,14.7408896 224.591152,15.15625 223.445312,15.15625 C222.320307,15.15625 221.458336,14.748702 220.859375,13.9335938 C220.260414,13.1184855 219.953125,11.9322995 219.9375,10.375 L219.9375,8.3359375 C219.9375,6.73697117 220.234372,5.52604578 220.828125,4.703125 C221.421878,3.88020422 222.289057,3.46875 223.429688,3.46875 C224.554693,3.46875 225.41406,3.86588145 226.007812,4.66015625 C226.601565,5.45443105 226.908854,6.62499227 226.929688,8.171875 L226.929688,10.2578125 Z M225.992188,8.21875 C225.992188,6.91666016 225.77995,5.932295 225.355469,5.265625 C224.930987,4.598955 224.289067,4.265625 223.429688,4.265625 C222.585933,4.265625 221.950523,4.59114258 221.523438,5.2421875 C221.096352,5.89323242 220.877604,6.85416031 220.867188,8.125 L220.867188,10.359375 C220.867188,11.6562565 221.087237,12.6484341 221.527344,13.3359375 C221.96745,14.0234409 222.606767,14.3671875 223.445312,14.3671875 C224.27865,14.3671875 224.910154,14.0312534 225.339844,13.359375 C225.769533,12.6874966 225.986979,11.7031315 225.992188,10.40625 L225.992188,8.21875 Z" id="path-3"></path>
        <path d="M319.28125,8.8046875 L320.25,8.8046875 C320.786461,8.8046875 321.255206,8.70963637 321.65625,8.51953125 C322.057294,8.32942613 322.36328,8.06901207 322.574219,7.73828125 C322.785157,7.40755043 322.890625,7.02604383 322.890625,6.59375 C322.890625,5.86457969 322.684898,5.29427289 322.273438,4.8828125 C321.861977,4.47135211 321.270837,4.265625 320.5,4.265625 C319.77083,4.265625 319.173179,4.4804666 318.707031,4.91015625 C318.240883,5.3398459 318.007812,5.90624648 318.007812,6.609375 L317.070312,6.609375 C317.070312,6.02083039 317.218749,5.48307535 317.515625,4.99609375 C317.812501,4.50911215 318.223956,4.13281383 318.75,3.8671875 C319.276044,3.60156117 319.859372,3.46875 320.5,3.46875 C321.531255,3.46875 322.343747,3.74999719 322.9375,4.3125 C323.531253,4.87500281 323.828125,5.64582844 323.828125,6.625 C323.828125,7.17187773 323.65495,7.67577895 323.308594,8.13671875 C322.962238,8.59765855 322.486982,8.94270719 321.882812,9.171875 C322.591149,9.36979266 323.127602,9.70963301 323.492188,10.1914062 C323.856773,10.6731795 324.039062,11.2473925 324.039062,11.9140625 C324.039062,12.8880257 323.721357,13.671872 323.085938,14.265625 C322.450518,14.859378 321.601568,15.15625 320.539062,15.15625 C319.861976,15.15625 319.240888,15.0208347 318.675781,14.75 C318.110674,14.4791653 317.673179,14.1002629 317.363281,13.6132812 C317.053384,13.1262996 316.898438,12.5598991 316.898438,11.9140625 L317.835938,11.9140625 C317.835938,12.6380245 318.088539,13.2278623 318.59375,13.6835938 C319.098961,14.1393252 319.747392,14.3671875 320.539062,14.3671875 C321.346358,14.3671875 321.975258,14.1601583 322.425781,13.7460938 C322.876304,13.3320292 323.101562,12.7317748 323.101562,11.9453125 C323.101562,11.184892 322.858075,10.6041687 322.371094,10.203125 C321.884112,9.80208133 321.166671,9.6015625 320.21875,9.6015625 L319.28125,9.6015625 L319.28125,8.8046875 Z M334.929688,10.2578125 C334.929688,11.8619872 334.63542,13.0794229 334.046875,13.9101562 C333.45833,14.7408896 332.591152,15.15625 331.445312,15.15625 C330.320307,15.15625 329.458336,14.748702 328.859375,13.9335938 C328.260414,13.1184855 327.953125,11.9322995 327.9375,10.375 L327.9375,8.3359375 C327.9375,6.73697117 328.234372,5.52604578 328.828125,4.703125 C329.421878,3.88020422 330.289057,3.46875 331.429688,3.46875 C332.554693,3.46875 333.41406,3.86588145 334.007812,4.66015625 C334.601565,5.45443105 334.908854,6.62499227 334.929688,8.171875 L334.929688,10.2578125 Z M333.992188,8.21875 C333.992188,6.91666016 333.77995,5.932295 333.355469,5.265625 C332.930987,4.598955 332.289067,4.265625 331.429688,4.265625 C330.585933,4.265625 329.950523,4.59114258 329.523438,5.2421875 C329.096352,5.89323242 328.877604,6.85416031 328.867188,8.125 L328.867188,10.359375 C328.867188,11.6562565 329.087237,12.6484341 329.527344,13.3359375 C329.96745,14.0234409 330.606767,14.3671875 331.445312,14.3671875 C332.27865,14.3671875 332.910154,14.0312534 333.339844,13.359375 C333.769533,12.6874966 333.986979,11.7031315 333.992188,10.40625 L333.992188,8.21875 Z" id="path-4"></path>
        <path d="M427.945312,11.3359375 L429.71875,11.3359375 L429.71875,12.125 L427.945312,12.125 L427.945312,15 L427.007812,15 L427.007812,12.125 L421.65625,12.125 L421.65625,11.59375 L426.921875,3.625 L427.945312,3.625 L427.945312,11.3359375 Z M422.804688,11.3359375 L427.007812,11.3359375 L427.007812,4.8359375 L426.59375,5.5546875 L422.804688,11.3359375 Z M439.929688,10.2578125 C439.929688,11.8619872 439.63542,13.0794229 439.046875,13.9101562 C438.45833,14.7408896 437.591152,15.15625 436.445312,15.15625 C435.320307,15.15625 434.458336,14.748702 433.859375,13.9335938 C433.260414,13.1184855 432.953125,11.9322995 432.9375,10.375 L432.9375,8.3359375 C432.9375,6.73697117 433.234372,5.52604578 433.828125,4.703125 C434.421878,3.88020422 435.289057,3.46875 436.429688,3.46875 C437.554693,3.46875 438.41406,3.86588145 439.007812,4.66015625 C439.601565,5.45443105 439.908854,6.62499227 439.929688,8.171875 L439.929688,10.2578125 Z M438.992188,8.21875 C438.992188,6.91666016 438.77995,5.932295 438.355469,5.265625 C437.930987,4.598955 437.289067,4.265625 436.429688,4.265625 C435.585933,4.265625 434.950523,4.59114258 434.523438,5.2421875 C434.096352,5.89323242 433.877604,6.85416031 433.867188,8.125 L433.867188,10.359375 C433.867188,11.6562565 434.087237,12.6484341 434.527344,13.3359375 C434.96745,14.0234409 435.606767,14.3671875 436.445312,14.3671875 C437.27865,14.3671875 437.910154,14.0312534 438.339844,13.359375 C438.769533,12.6874966 438.986979,11.7031315 438.992188,10.40625 L438.992188,8.21875 Z" id="path-5"></path>
        <path d="M530.835938,9.171875 L531.390625,3.625 L537.078125,3.625 L537.078125,4.4921875 L532.195312,4.4921875 L531.796875,8.3359375 C532.406253,7.91926875 533.119788,7.7109375 533.9375,7.7109375 C534.963547,7.7109375 535.781247,8.0442675 536.390625,8.7109375 C537.000003,9.3776075 537.304688,10.2656195 537.304688,11.375 C537.304688,12.5729227 537.007815,13.5026009 536.414062,14.1640625 C535.82031,14.8255241 534.98438,15.15625 533.90625,15.15625 C532.916662,15.15625 532.114586,14.8802111 531.5,14.328125 C530.885414,13.7760389 530.533855,13.0026091 530.445312,12.0078125 L531.34375,12.0078125 C531.432292,12.783858 531.69531,13.3710918 532.132812,13.7695312 C532.570315,14.1679707 533.161455,14.3671875 533.90625,14.3671875 C534.718754,14.3671875 535.332029,14.1093776 535.746094,13.59375 C536.160158,13.0781224 536.367188,12.3437548 536.367188,11.390625 C536.367188,10.5572875 536.135419,9.8776068 535.671875,9.3515625 C535.208331,8.8255182 534.575525,8.5625 533.773438,8.5625 C533.330727,8.5625 532.945312,8.61848902 532.617188,8.73046875 C532.289061,8.84244848 531.94271,9.05989422 531.578125,9.3828125 L530.835938,9.171875 Z M547.929688,10.2578125 C547.929688,11.8619872 547.63542,13.0794229 547.046875,13.9101562 C546.45833,14.7408896 545.591152,15.15625 544.445312,15.15625 C543.320307,15.15625 542.458336,14.748702 541.859375,13.9335938 C541.260414,13.1184855 540.953125,11.9322995 540.9375,10.375 L540.9375,8.3359375 C540.9375,6.73697117 541.234372,5.52604578 541.828125,4.703125 C542.421878,3.88020422 543.289057,3.46875 544.429688,3.46875 C545.554693,3.46875 546.41406,3.86588145 547.007812,4.66015625 C547.601565,5.45443105 547.908854,6.62499227 547.929688,8.171875 L547.929688,10.2578125 Z M546.992188,8.21875 C546.992188,6.91666016 546.77995,5.932295 546.355469,5.265625 C545.930987,4.598955 545.289067,4.265625 544.429688,4.265625 C543.585933,4.265625 542.950523,4.59114258 542.523438,5.2421875 C542.096352,5.89323242 541.877604,6.85416031 541.867188,8.125 L541.867188,10.359375 C541.867188,11.6562565 542.087237,12.6484341 542.527344,13.3359375 C542.96745,14.0234409 543.606767,14.3671875 544.445312,14.3671875 C545.27865,14.3671875 545.910154,14.0312534 546.339844,13.359375 C546.769533,12.6874966 546.986979,11.7031315 546.992188,10.40625 L546.992188,8.21875 Z" id="path-6"></path>
    </defs>
    <g id="Welcome" stroke="none" stroke-width="1" fill="none" fill-rule="evenodd">
        <g id="iPhone-8-Copy-2" transform="translate(-16.000000, -2398.000000)">
            <g id="Group-3" transform="translate(16.578125, 2397.792969)">
                <g id="Group-25" transform="translate(171.000000, 273.000000) rotate(-90.000000) translate(-171.000000, -273.000000) translate(-102.000000, 102.000000)">
                    <path d="M-148.5,187.953092 L160.5,187.953092" id="Path" stroke="#000000" opacity="0.300000012" transform="translate(6.000000, 187.500000) rotate(-270.000000) translate(-6.000000, -187.500000) "></path>
                    <path d="M-41.5,187.953092 L267.5,187.953092" id="Path-Copy-2" stroke="#000000" opacity="0.300000012" stroke-dasharray="6,9" transform="translate(113.000000, 187.500000) rotate(-270.000000) translate(-113.000000, -187.500000) "></path>
                    <path d="M65,187.726546 L374,187.726546" id="Path-Copy-3" stroke="#000000" opacity="0.300000012" stroke-dasharray="6,9" transform="translate(219.500000, 187.500000) rotate(-270.000000) translate(-219.500000, -187.500000) "></path>
                    <path d="M172,187.726546 L481,187.726546" id="Path-Copy-4" stroke="#000000" opacity="0.300000012" stroke-dasharray="6,9" transform="translate(326.500000, 187.500000) rotate(-270.000000) translate(-326.500000, -187.500000) "></path>
                    <path d="M278.5,187.953092 L587.5,187.953092" id="Path-Copy-5" stroke="#000000" opacity="0.300000012" stroke-dasharray="6,9" transform="translate(433.000000, 187.500000) rotate(-270.000000) translate(-433.000000, -187.500000) "></path>
                    <path d="M385.5,187.953092 L694.5,187.953092" id="Path-Copy-6" stroke="#000000" opacity="0.300000012" stroke-dasharray="6,9" transform="translate(540.000000, 187.500000) rotate(-270.000000) translate(-540.000000, -187.500000) "></path>
                    <g id="Group-26" transform="translate(5.000000, 47.000000)"></g>
                    <g id="0" fill-rule="nonzero" transform="translate(6.566406, 9.312500) rotate(-270.000000) translate(-6.566406, -9.312500) " fill="#000000">
                        <use xlink:href="#path-1"></use>
                        <use xlink:href="#path-1"></use>
                    </g>
                    <g id="10" fill-rule="nonzero" transform="translate(111.226562, 9.312500) rotate(-270.000000) translate(-111.226562, -9.312500) " fill="#000000">
                        <use xlink:href="#path-2"></use>
                        <use xlink:href="#path-2"></use>
                    </g>
                    <g id="20" fill-rule="nonzero" transform="translate(217.941406, 9.312500) rotate(-270.000000) translate(-217.941406, -9.312500) " fill="#000000">
                        <use xlink:href="#path-3"></use>
                        <use xlink:href="#path-3"></use>
                    </g>
                    <g id="30" fill-rule="nonzero" transform="translate(325.914062, 9.312500) rotate(-270.000000) translate(-325.914062, -9.312500) " fill="#000000">
                        <use xlink:href="#path-4"></use>
                        <use xlink:href="#path-4"></use>
                    </g>
                    <g id="40" fill-rule="nonzero" transform="translate(430.792969, 9.312500) rotate(-270.000000) translate(-430.792969, -9.312500) " fill="#000000">
                        <use xlink:href="#path-5"></use>
                        <use xlink:href="#path-5"></use>
                    </g>
                    <g id="50" fill-rule="nonzero" transform="translate(539.187500, 9.312500) rotate(-270.000000) translate(-539.187500, -9.312500) " fill="#000000">
                        <use xlink:href="#path-6"></use>
                        <use xlink:href="#path-6"></use>
                    </g>
                </g>
                <path d="M177.148438,453.472656 L173.84375,453.472656 L173.84375,458.207031 L172.875,458.207031 L172.875,446.832031 L176.570312,446.832031 C177.78386,446.832031 178.731767,447.126299 179.414062,447.714844 C180.096358,448.303388 180.4375,449.126297 180.4375,450.183594 C180.4375,450.912764 180.22396,451.555987 179.796875,452.113281 C179.36979,452.670576 178.796879,453.055989 178.078125,453.269531 L180.921875,458.105469 L180.921875,458.207031 L179.898438,458.207031 L177.148438,453.472656 Z M173.84375,452.652344 L176.789062,452.652344 C177.596358,452.652344 178.244789,452.423179 178.734375,451.964844 C179.223961,451.506508 179.46875,450.912764 179.46875,450.183594 C179.46875,449.381506 179.213544,448.759117 178.703125,448.316406 C178.192706,447.873696 177.476567,447.652344 176.554688,447.652344 L173.84375,447.652344 L173.84375,452.652344 Z M184.382812,458.207031 L183.445312,458.207031 L183.445312,449.753906 L184.382812,449.753906 L184.382812,458.207031 Z M183.28125,447.308594 C183.28125,447.13151 183.338541,446.981771 183.453125,446.859375 C183.567709,446.736979 183.723957,446.675781 183.921875,446.675781 C184.119793,446.675781 184.277343,446.736979 184.394531,446.859375 C184.511719,446.981771 184.570312,447.13151 184.570312,447.308594 C184.570312,447.485678 184.511719,447.634114 184.394531,447.753906 C184.277343,447.873699 184.119793,447.933594 183.921875,447.933594 C183.723957,447.933594 183.567709,447.873699 183.453125,447.753906 C183.338541,447.634114 183.28125,447.485678 183.28125,447.308594 Z M190.546875,457.574219 C191.19792,457.574219 191.743487,457.390627 192.183594,457.023438 C192.6237,456.656248 192.861979,456.180992 192.898438,455.597656 L193.796875,455.597656 C193.770833,456.113284 193.609376,456.583331 193.3125,457.007812 C193.015624,457.432294 192.621096,457.764322 192.128906,458.003906 C191.636716,458.243491 191.109378,458.363281 190.546875,458.363281 C189.4375,458.363281 188.558597,457.977868 187.910156,457.207031 C187.261716,456.436194 186.9375,455.399746 186.9375,454.097656 L186.9375,453.816406 C186.9375,452.983069 187.083332,452.246097 187.375,451.605469 C187.666668,450.964841 188.084633,450.470054 188.628906,450.121094 C189.17318,449.772134 189.809892,449.597656 190.539062,449.597656 C191.46615,449.597656 192.230466,449.873695 192.832031,450.425781 C193.433597,450.977867 193.755208,451.704423 193.796875,452.605469 L192.898438,452.605469 C192.856771,451.944007 192.618492,451.410158 192.183594,451.003906 C191.748696,450.597656 191.200524,450.394531 190.539062,450.394531 C189.695308,450.394531 189.040367,450.699216 188.574219,451.308594 C188.108071,451.917972 187.875,452.77213 187.875,453.871094 L187.875,454.144531 C187.875,455.222662 188.108071,456.063799 188.574219,456.667969 C189.040367,457.272138 189.697912,457.574219 190.546875,457.574219 Z M197.09375,451.183594 C197.401043,450.678383 197.794268,450.287762 198.273438,450.011719 C198.752607,449.735676 199.276039,449.597656 199.84375,449.597656 C200.750005,449.597656 201.424477,449.852862 201.867188,450.363281 C202.309898,450.8737 202.533854,451.639318 202.539062,452.660156 L202.539062,458.207031 L201.609375,458.207031 L201.609375,452.652344 C201.604167,451.897132 201.444012,451.334637 201.128906,450.964844 C200.813801,450.59505 200.309899,450.410156 199.617188,450.410156 C199.03906,450.410156 198.527346,450.591144 198.082031,450.953125 C197.636717,451.315106 197.307293,451.803382 197.09375,452.417969 L197.09375,458.207031 L196.164062,458.207031 L196.164062,446.207031 L197.09375,446.207031 L197.09375,451.183594 Z M210.78125,458.207031 C210.6875,457.941405 210.627604,457.54818 210.601562,457.027344 C210.273436,457.454429 209.855471,457.783853 209.347656,458.015625 C208.839841,458.247397 208.302086,458.363281 207.734375,458.363281 C206.921871,458.363281 206.264325,458.136721 205.761719,457.683594 C205.259112,457.230466 205.007812,456.657556 205.007812,455.964844 C205.007812,455.141923 205.350257,454.490888 206.035156,454.011719 C206.720056,453.53255 207.674473,453.292969 208.898438,453.292969 L210.59375,453.292969 L210.59375,452.332031 C210.59375,451.727862 210.407554,451.252606 210.035156,450.90625 C209.662759,450.559894 209.119795,450.386719 208.40625,450.386719 C207.755205,450.386719 207.216148,450.553384 206.789062,450.886719 C206.361977,451.220054 206.148438,451.621091 206.148438,452.089844 L205.210938,452.082031 C205.210938,451.410153 205.523434,450.828127 206.148438,450.335938 C206.773441,449.843748 207.541662,449.597656 208.453125,449.597656 C209.395838,449.597656 210.13932,449.833331 210.683594,450.304688 C211.227867,450.776044 211.507812,451.43359 211.523438,452.277344 L211.523438,456.277344 C211.523438,457.095056 211.609374,457.707029 211.78125,458.113281 L211.78125,458.207031 L210.78125,458.207031 Z M207.84375,457.535156 C208.468753,457.535156 209.027341,457.384116 209.519531,457.082031 C210.011721,456.779946 210.369791,456.376305 210.59375,455.871094 L210.59375,454.011719 L208.921875,454.011719 C207.989579,454.022135 207.260419,454.192707 206.734375,454.523438 C206.208331,454.854168 205.945312,455.308591 205.945312,455.886719 C205.945312,456.360679 206.121092,456.753905 206.472656,457.066406 C206.824221,457.378908 207.281247,457.535156 207.84375,457.535156 Z M218.421875,450.550781 C218.223957,450.514323 218.013022,450.496094 217.789062,450.496094 C217.205726,450.496094 216.712242,450.658853 216.308594,450.984375 C215.904946,451.309897 215.617188,451.782549 215.445312,452.402344 L215.445312,458.207031 L214.515625,458.207031 L214.515625,449.753906 L215.429688,449.753906 L215.445312,451.097656 C215.940107,450.097656 216.73437,449.597656 217.828125,449.597656 C218.088543,449.597656 218.29427,449.63151 218.445312,449.699219 L218.421875,450.550781 Z M219.875,453.902344 C219.875,452.589837 220.167966,451.544275 220.753906,450.765625 C221.339847,449.986975 222.135412,449.597656 223.140625,449.597656 C224.281256,449.597656 225.151039,450.048173 225.75,450.949219 L225.75,446.207031 L226.679688,446.207031 L226.679688,458.207031 L225.804688,458.207031 L225.765625,457.082031 C225.166664,457.936202 224.286464,458.363281 223.125,458.363281 C222.151037,458.363281 221.365888,457.971358 220.769531,457.1875 C220.173174,456.403642 219.875,455.345059 219.875,454.011719 L219.875,453.902344 Z M220.820312,454.066406 C220.820312,455.144537 221.036456,455.994789 221.46875,456.617188 C221.901044,457.239586 222.510413,457.550781 223.296875,457.550781 C224.447922,457.550781 225.265623,457.042974 225.75,456.027344 L225.75,452.058594 C225.265623,450.95963 224.453131,450.410156 223.3125,450.410156 C222.526038,450.410156 221.914065,450.718747 221.476562,451.335938 C221.03906,451.953128 220.820312,452.863275 220.820312,454.066406 Z M198.679688,482.660156 C198.549479,483.858079 198.121097,484.774736 197.394531,485.410156 C196.667965,486.045576 195.700527,486.363281 194.492188,486.363281 C193.648433,486.363281 192.902347,486.152346 192.253906,485.730469 C191.605466,485.308592 191.104168,484.710941 190.75,483.9375 C190.395832,483.164059 190.216146,482.279953 190.210938,481.285156 L190.210938,479.808594 C190.210938,478.798172 190.388019,477.902348 190.742188,477.121094 C191.096356,476.33984 191.605465,475.736981 192.269531,475.3125 C192.933597,474.888019 193.697912,474.675781 194.5625,474.675781 C195.781256,474.675781 196.743486,475.005205 197.449219,475.664062 C198.154951,476.32292 198.565104,477.233067 198.679688,478.394531 L197.710938,478.394531 C197.471353,476.46223 196.421884,475.496094 194.5625,475.496094 C193.531245,475.496094 192.709638,475.881507 192.097656,476.652344 C191.485674,477.423181 191.179688,478.488274 191.179688,479.847656 L191.179688,481.238281 C191.179688,482.550788 191.477862,483.597652 192.074219,484.378906 C192.670576,485.16016 193.476557,485.550781 194.492188,485.550781 C195.497401,485.550781 196.255206,485.309898 196.765625,484.828125 C197.276044,484.346352 197.591145,483.623703 197.710938,482.660156 L198.679688,482.660156 Z M206.632812,486.207031 C206.539062,485.941405 206.479167,485.54818 206.453125,485.027344 C206.124998,485.454429 205.707034,485.783853 205.199219,486.015625 C204.691404,486.247397 204.153649,486.363281 203.585938,486.363281 C202.773433,486.363281 202.115888,486.136721 201.613281,485.683594 C201.110675,485.230466 200.859375,484.657556 200.859375,483.964844 C200.859375,483.141923 201.201819,482.490888 201.886719,482.011719 C202.571618,481.53255 203.526036,481.292969 204.75,481.292969 L206.445312,481.292969 L206.445312,480.332031 C206.445312,479.727862 206.259116,479.252606 205.886719,478.90625 C205.514321,478.559894 204.971358,478.386719 204.257812,478.386719 C203.606768,478.386719 203.06771,478.553384 202.640625,478.886719 C202.21354,479.220054 202,479.621091 202,480.089844 L201.0625,480.082031 C201.0625,479.410153 201.374997,478.828127 202,478.335938 C202.625003,477.843748 203.393225,477.597656 204.304688,477.597656 C205.247401,477.597656 205.990883,477.833331 206.535156,478.304688 C207.07943,478.776044 207.359375,479.43359 207.375,480.277344 L207.375,484.277344 C207.375,485.095056 207.460937,485.707029 207.632812,486.113281 L207.632812,486.207031 L206.632812,486.207031 Z M203.695312,485.535156 C204.320316,485.535156 204.878904,485.384116 205.371094,485.082031 C205.863284,484.779946 206.221353,484.376305 206.445312,483.871094 L206.445312,482.011719 L204.773438,482.011719 C203.841141,482.022135 203.111982,482.192707 202.585938,482.523438 C202.059893,482.854168 201.796875,483.308591 201.796875,483.886719 C201.796875,484.360679 201.972654,484.753905 202.324219,485.066406 C202.675783,485.378908 203.13281,485.535156 203.695312,485.535156 Z M214.273438,478.550781 C214.07552,478.514323 213.864584,478.496094 213.640625,478.496094 C213.057289,478.496094 212.563804,478.658853 212.160156,478.984375 C211.756508,479.309897 211.468751,479.782549 211.296875,480.402344 L211.296875,486.207031 L210.367188,486.207031 L210.367188,477.753906 L211.28125,477.753906 L211.296875,479.097656 C211.791669,478.097656 212.585932,477.597656 213.679688,477.597656 C213.940105,477.597656 214.145833,477.63151 214.296875,477.699219 L214.273438,478.550781 Z M215.578125,481.855469 C215.578125,481.042965 215.735676,480.311201 216.050781,479.660156 C216.365887,479.009111 216.811195,478.502606 217.386719,478.140625 C217.962242,477.778644 218.61458,477.597656 219.34375,477.597656 C220.468756,477.597656 221.380205,477.992184 222.078125,478.78125 C222.776045,479.570316 223.125,480.615879 223.125,481.917969 L223.125,482.113281 C223.125,482.930994 222.967449,483.666663 222.652344,484.320312 C222.337238,484.973962 221.893232,485.477863 221.320312,485.832031 C220.747393,486.1862 220.093754,486.363281 219.359375,486.363281 C218.239578,486.363281 217.329431,485.968754 216.628906,485.179688 C215.928382,484.390621 215.578125,483.345059 215.578125,482.042969 L215.578125,481.855469 Z M216.515625,482.113281 C216.515625,483.123703 216.777341,483.953122 217.300781,484.601562 C217.824221,485.250003 218.510412,485.574219 219.359375,485.574219 C220.203129,485.574219 220.886716,485.250003 221.410156,484.601562 C221.933596,483.953122 222.195312,483.097662 222.195312,482.035156 L222.195312,481.855469 C222.195312,481.209632 222.075522,480.618492 221.835938,480.082031 C221.596353,479.54557 221.260419,479.13021 220.828125,478.835938 C220.395831,478.541665 219.901044,478.394531 219.34375,478.394531 C218.510413,478.394531 217.830732,478.721351 217.304688,479.375 C216.778643,480.028649 216.515625,480.884109 216.515625,481.941406 L216.515625,482.113281 Z M226.601562,486.207031 L225.664062,486.207031 L225.664062,474.207031 L226.601562,474.207031 L226.601562,486.207031 Z M190.476562,514.207031 L190.476562,502.832031 L193.835938,502.832031 C195.054694,502.832031 195.979164,503.083331 196.609375,503.585938 C197.239586,504.088544 197.554688,504.829422 197.554688,505.808594 C197.554688,506.397138 197.394533,506.908852 197.074219,507.34375 C196.753905,507.778648 196.315107,508.089843 195.757812,508.277344 C196.419274,508.423178 196.951821,508.748695 197.355469,509.253906 C197.759117,509.759117 197.960938,510.342445 197.960938,511.003906 C197.960938,512.00912 197.636722,512.794268 196.988281,513.359375 C196.339841,513.924482 195.437506,514.207031 194.28125,514.207031 L190.476562,514.207031 Z M191.4375,508.738281 L191.4375,513.394531 L194.320312,513.394531 C195.143233,513.394531 195.795571,513.184898 196.277344,512.765625 C196.759117,512.346352 197,511.764327 197,511.019531 C197,510.316403 196.769534,509.760419 196.308594,509.351562 C195.847654,508.942706 195.210942,508.738281 194.398438,508.738281 L191.4375,508.738281 Z M191.4375,507.933594 L194.0625,507.933594 C194.864587,507.917969 195.485675,507.729168 195.925781,507.367188 C196.365888,507.005207 196.585938,506.477868 196.585938,505.785156 C196.585938,505.055986 196.358075,504.518231 195.902344,504.171875 C195.446612,503.825519 194.757817,503.652344 193.835938,503.652344 L191.4375,503.652344 L191.4375,507.933594 Z M205.898438,514.207031 C205.804687,513.941405 205.744792,513.54818 205.71875,513.027344 C205.390623,513.454429 204.972659,513.783853 204.464844,514.015625 C203.957029,514.247397 203.419274,514.363281 202.851562,514.363281 C202.039058,514.363281 201.381513,514.136721 200.878906,513.683594 C200.3763,513.230466 200.125,512.657556 200.125,511.964844 C200.125,511.141923 200.467444,510.490888 201.152344,510.011719 C201.837243,509.53255 202.791661,509.292969 204.015625,509.292969 L205.710938,509.292969 L205.710938,508.332031 C205.710938,507.727862 205.524741,507.252606 205.152344,506.90625 C204.779946,506.559894 204.236983,506.386719 203.523438,506.386719 C202.872393,506.386719 202.333335,506.553384 201.90625,506.886719 C201.479165,507.220054 201.265625,507.621091 201.265625,508.089844 L200.328125,508.082031 C200.328125,507.410153 200.640622,506.828127 201.265625,506.335938 C201.890628,505.843748 202.65885,505.597656 203.570312,505.597656 C204.513026,505.597656 205.256508,505.833331 205.800781,506.304688 C206.345055,506.776044 206.625,507.43359 206.640625,508.277344 L206.640625,512.277344 C206.640625,513.095056 206.726562,513.707029 206.898438,514.113281 L206.898438,514.207031 L205.898438,514.207031 Z M202.960938,513.535156 C203.585941,513.535156 204.144529,513.384116 204.636719,513.082031 C205.128909,512.779946 205.486978,512.376305 205.710938,511.871094 L205.710938,510.011719 L204.039062,510.011719 C203.106766,510.022135 202.377607,510.192707 201.851562,510.523438 C201.325518,510.854168 201.0625,511.308591 201.0625,511.886719 C201.0625,512.360679 201.238279,512.753905 201.589844,513.066406 C201.941408,513.378908 202.398435,513.535156 202.960938,513.535156 Z M213.539062,506.550781 C213.341145,506.514323 213.130209,506.496094 212.90625,506.496094 C212.322914,506.496094 211.829429,506.658853 211.425781,506.984375 C211.022133,507.309897 210.734376,507.782549 210.5625,508.402344 L210.5625,514.207031 L209.632812,514.207031 L209.632812,505.753906 L210.546875,505.753906 L210.5625,507.097656 C211.057294,506.097656 211.851557,505.597656 212.945312,505.597656 C213.20573,505.597656 213.411458,505.63151 213.5625,505.699219 L213.539062,506.550781 Z M219.421875,506.550781 C219.223957,506.514323 219.013022,506.496094 218.789062,506.496094 C218.205726,506.496094 217.712242,506.658853 217.308594,506.984375 C216.904946,507.309897 216.617188,507.782549 216.445312,508.402344 L216.445312,514.207031 L215.515625,514.207031 L215.515625,505.753906 L216.429688,505.753906 L216.445312,507.097656 C216.940107,506.097656 217.73437,505.597656 218.828125,505.597656 C219.088543,505.597656 219.29427,505.63151 219.445312,505.699219 L219.421875,506.550781 Z M224.21875,512.863281 L226.6875,505.753906 L227.695312,505.753906 L224.085938,515.644531 L223.898438,516.082031 C223.434894,517.108078 222.718755,517.621094 221.75,517.621094 C221.526041,517.621094 221.28646,517.584636 221.03125,517.511719 L221.023438,516.738281 L221.507812,516.785156 C221.966148,516.785156 222.337238,516.671876 222.621094,516.445312 C222.904949,516.218749 223.145832,515.82943 223.34375,515.277344 L223.757812,514.136719 L220.570312,505.753906 L221.59375,505.753906 L224.21875,512.863281 Z M195.757812,530.832031 L199.953125,540.871094 L204.164062,530.832031 L205.445312,530.832031 L205.445312,542.207031 L204.484375,542.207031 L204.484375,537.253906 L204.5625,532.175781 L200.328125,542.207031 L199.585938,542.207031 L195.367188,532.214844 L195.445312,537.222656 L195.445312,542.207031 L194.484375,542.207031 L194.484375,530.832031 L195.757812,530.832031 Z M209.65625,542.207031 L208.71875,542.207031 L208.71875,533.753906 L209.65625,533.753906 L209.65625,542.207031 Z M208.554688,531.308594 C208.554688,531.13151 208.611979,530.981771 208.726562,530.859375 C208.841146,530.736979 208.997395,530.675781 209.195312,530.675781 C209.39323,530.675781 209.550781,530.736979 209.667969,530.859375 C209.785157,530.981771 209.84375,531.13151 209.84375,531.308594 C209.84375,531.485678 209.785157,531.634114 209.667969,531.753906 C209.550781,531.873699 209.39323,531.933594 209.195312,531.933594 C208.997395,531.933594 208.841146,531.873699 208.726562,531.753906 C208.611979,531.634114 208.554688,531.485678 208.554688,531.308594 Z M214.703125,537.949219 L213.632812,538.980469 L213.632812,542.207031 L212.695312,542.207031 L212.695312,530.207031 L213.632812,530.207031 L213.632812,537.886719 L214.515625,536.933594 L217.75,533.753906 L218.929688,533.753906 L215.34375,537.316406 L219.242188,542.207031 L218.125,542.207031 L214.703125,537.949219 Z M224.148438,542.363281 C223.429684,542.363281 222.779951,542.1862 222.199219,541.832031 C221.618487,541.477863 221.166668,540.984378 220.84375,540.351562 C220.520832,539.718747 220.359375,539.009119 220.359375,538.222656 L220.359375,537.886719 C220.359375,537.074215 220.516926,536.342451 220.832031,535.691406 C221.147137,535.040361 221.585935,534.528648 222.148438,534.15625 C222.71094,533.783852 223.320309,533.597656 223.976562,533.597656 C225.002609,533.597656 225.816403,533.947913 226.417969,534.648438 C227.019534,535.348962 227.320312,536.305984 227.320312,537.519531 L227.320312,538.042969 L221.289062,538.042969 L221.289062,538.222656 C221.289062,539.180994 221.563799,539.979163 222.113281,540.617188 C222.662763,541.255212 223.354163,541.574219 224.1875,541.574219 C224.687502,541.574219 225.128904,541.483074 225.511719,541.300781 C225.894533,541.118489 226.242186,540.826825 226.554688,540.425781 L227.140625,540.871094 C226.453122,541.86589 225.455736,542.363281 224.148438,542.363281 Z M223.976562,534.394531 C223.273434,534.394531 222.680992,534.652341 222.199219,535.167969 C221.717446,535.683596 221.42448,536.376298 221.320312,537.246094 L226.390625,537.246094 L226.390625,537.144531 C226.364583,536.332027 226.132815,535.670575 225.695312,535.160156 C225.25781,534.649737 224.684899,534.394531 223.976562,534.394531 Z M185.625,558.832031 L186.59375,558.832031 L186.59375,566.824219 C186.59375,567.902349 186.282555,568.761716 185.660156,569.402344 C185.037757,570.042972 184.20313,570.363281 183.15625,570.363281 C182.052078,570.363281 181.203128,570.074222 180.609375,569.496094 C180.015622,568.917966 179.71875,568.110682 179.71875,567.074219 L180.679688,567.074219 C180.679688,567.89714 180.895831,568.515623 181.328125,568.929688 C181.760419,569.343752 182.369788,569.550781 183.15625,569.550781 C183.880212,569.550781 184.47005,569.3112 184.925781,568.832031 C185.381513,568.352862 185.614583,567.701827 185.625,566.878906 L185.625,558.832031 Z M195.023438,570.207031 C194.929687,569.941405 194.869792,569.54818 194.84375,569.027344 C194.515623,569.454429 194.097659,569.783853 193.589844,570.015625 C193.082029,570.247397 192.544274,570.363281 191.976562,570.363281 C191.164058,570.363281 190.506513,570.136721 190.003906,569.683594 C189.5013,569.230466 189.25,568.657556 189.25,567.964844 C189.25,567.141923 189.592444,566.490888 190.277344,566.011719 C190.962243,565.53255 191.916661,565.292969 193.140625,565.292969 L194.835938,565.292969 L194.835938,564.332031 C194.835938,563.727862 194.649741,563.252606 194.277344,562.90625 C193.904946,562.559894 193.361983,562.386719 192.648438,562.386719 C191.997393,562.386719 191.458335,562.553384 191.03125,562.886719 C190.604165,563.220054 190.390625,563.621091 190.390625,564.089844 L189.453125,564.082031 C189.453125,563.410153 189.765622,562.828127 190.390625,562.335938 C191.015628,561.843748 191.78385,561.597656 192.695312,561.597656 C193.638026,561.597656 194.381508,561.833331 194.925781,562.304688 C195.470055,562.776044 195.75,563.43359 195.765625,564.277344 L195.765625,568.277344 C195.765625,569.095056 195.851562,569.707029 196.023438,570.113281 L196.023438,570.207031 L195.023438,570.207031 Z M192.085938,569.535156 C192.710941,569.535156 193.269529,569.384116 193.761719,569.082031 C194.253909,568.779946 194.611978,568.376305 194.835938,567.871094 L194.835938,566.011719 L193.164062,566.011719 C192.231766,566.022135 191.502607,566.192707 190.976562,566.523438 C190.450518,566.854168 190.1875,567.308591 190.1875,567.886719 C190.1875,568.360679 190.363279,568.753905 190.714844,569.066406 C191.066408,569.378908 191.523435,569.535156 192.085938,569.535156 Z M199.648438,561.753906 L199.679688,563.199219 C199.997397,562.678383 200.393227,562.281251 200.867188,562.007812 C201.341148,561.734374 201.86458,561.597656 202.4375,561.597656 C203.343755,561.597656 204.018227,561.852862 204.460938,562.363281 C204.903648,562.8737 205.127604,563.639318 205.132812,564.660156 L205.132812,570.207031 L204.203125,570.207031 L204.203125,564.652344 C204.197917,563.897132 204.037762,563.334637 203.722656,562.964844 C203.407551,562.59505 202.903649,562.410156 202.210938,562.410156 C201.63281,562.410156 201.121096,562.591144 200.675781,562.953125 C200.230467,563.315106 199.901043,563.803382 199.6875,564.417969 L199.6875,570.207031 L198.757812,570.207031 L198.757812,561.753906 L199.648438,561.753906 Z M209.09375,570.207031 L208.15625,570.207031 L208.15625,561.753906 L209.09375,561.753906 L209.09375,570.207031 Z M207.992188,559.308594 C207.992188,559.13151 208.049479,558.981771 208.164062,558.859375 C208.278646,558.736979 208.434895,558.675781 208.632812,558.675781 C208.83073,558.675781 208.988281,558.736979 209.105469,558.859375 C209.222657,558.981771 209.28125,559.13151 209.28125,559.308594 C209.28125,559.485678 209.222657,559.634114 209.105469,559.753906 C208.988281,559.873699 208.83073,559.933594 208.632812,559.933594 C208.434895,559.933594 208.278646,559.873699 208.164062,559.753906 C208.049479,559.634114 207.992188,559.485678 207.992188,559.308594 Z M215.257812,569.574219 C215.908857,569.574219 216.454425,569.390627 216.894531,569.023438 C217.334638,568.656248 217.572916,568.180992 217.609375,567.597656 L218.507812,567.597656 C218.481771,568.113284 218.320314,568.583331 218.023438,569.007812 C217.726561,569.432294 217.332034,569.764322 216.839844,570.003906 C216.347654,570.243491 215.820315,570.363281 215.257812,570.363281 C214.148438,570.363281 213.269534,569.977868 212.621094,569.207031 C211.972653,568.436194 211.648438,567.399746 211.648438,566.097656 L211.648438,565.816406 C211.648438,564.983069 211.794269,564.246097 212.085938,563.605469 C212.377606,562.964841 212.79557,562.470054 213.339844,562.121094 C213.884117,561.772134 214.52083,561.597656 215.25,561.597656 C216.177088,561.597656 216.941403,561.873695 217.542969,562.425781 C218.144534,562.977867 218.466146,563.704423 218.507812,564.605469 L217.609375,564.605469 C217.567708,563.944007 217.329429,563.410158 216.894531,563.003906 C216.459633,562.597656 215.911462,562.394531 215.25,562.394531 C214.406246,562.394531 213.751304,562.699216 213.285156,563.308594 C212.819008,563.917972 212.585938,564.77213 212.585938,565.871094 L212.585938,566.144531 C212.585938,567.222662 212.819008,568.063799 213.285156,568.667969 C213.751304,569.272138 214.40885,569.574219 215.257812,569.574219 Z M224.148438,570.363281 C223.429684,570.363281 222.779951,570.1862 222.199219,569.832031 C221.618487,569.477863 221.166668,568.984378 220.84375,568.351562 C220.520832,567.718747 220.359375,567.009119 220.359375,566.222656 L220.359375,565.886719 C220.359375,565.074215 220.516926,564.342451 220.832031,563.691406 C221.147137,563.040361 221.585935,562.528648 222.148438,562.15625 C222.71094,561.783852 223.320309,561.597656 223.976562,561.597656 C225.002609,561.597656 225.816403,561.947913 226.417969,562.648438 C227.019534,563.348962 227.320312,564.305984 227.320312,565.519531 L227.320312,566.042969 L221.289062,566.042969 L221.289062,566.222656 C221.289062,567.180994 221.563799,567.979163 222.113281,568.617188 C222.662763,569.255212 223.354163,569.574219 224.1875,569.574219 C224.687502,569.574219 225.128904,569.483074 225.511719,569.300781 C225.894533,569.118489 226.242186,568.826825 226.554688,568.425781 L227.140625,568.871094 C226.453122,569.86589 225.455736,570.363281 224.148438,570.363281 Z M223.976562,562.394531 C223.273434,562.394531 222.680992,562.652341 222.199219,563.167969 C221.717446,563.683596 221.42448,564.376298 221.320312,565.246094 L226.390625,565.246094 L226.390625,565.144531 C226.364583,564.332027 226.132815,563.670575 225.695312,563.160156 C225.25781,562.649737 224.684899,562.394531 223.976562,562.394531 Z M188.257812,598.207031 L188.257812,586.832031 L191.4375,586.832031 C192.369796,586.832031 193.205725,587.044269 193.945312,587.46875 C194.6849,587.893231 195.261717,588.501298 195.675781,589.292969 C196.089846,590.084639 196.296875,590.985672 196.296875,591.996094 L196.296875,593.042969 C196.296875,594.058599 196.091148,594.959631 195.679688,595.746094 C195.268227,596.532556 194.688806,597.139321 193.941406,597.566406 C193.194007,597.993492 192.335942,598.207031 191.367188,598.207031 L188.257812,598.207031 Z M189.21875,587.652344 L189.21875,597.394531 L191.375,597.394531 C192.572923,597.394531 193.533851,596.9974 194.257812,596.203125 C194.981774,595.40885 195.34375,594.334642 195.34375,592.980469 L195.34375,591.980469 C195.34375,590.673171 194.986983,589.626306 194.273438,588.839844 C193.559892,588.053381 192.619798,587.657552 191.453125,587.652344 L189.21875,587.652344 Z M204.351562,598.207031 C204.257812,597.941405 204.197917,597.54818 204.171875,597.027344 C203.843748,597.454429 203.425784,597.783853 202.917969,598.015625 C202.410154,598.247397 201.872399,598.363281 201.304688,598.363281 C200.492183,598.363281 199.834638,598.136721 199.332031,597.683594 C198.829425,597.230466 198.578125,596.657556 198.578125,595.964844 C198.578125,595.141923 198.920569,594.490888 199.605469,594.011719 C200.290368,593.53255 201.244786,593.292969 202.46875,593.292969 L204.164062,593.292969 L204.164062,592.332031 C204.164062,591.727862 203.977866,591.252606 203.605469,590.90625 C203.233071,590.559894 202.690108,590.386719 201.976562,590.386719 C201.325518,590.386719 200.78646,590.553384 200.359375,590.886719 C199.93229,591.220054 199.71875,591.621091 199.71875,592.089844 L198.78125,592.082031 C198.78125,591.410153 199.093747,590.828127 199.71875,590.335938 C200.343753,589.843748 201.111975,589.597656 202.023438,589.597656 C202.966151,589.597656 203.709633,589.833331 204.253906,590.304688 C204.79818,590.776044 205.078125,591.43359 205.09375,592.277344 L205.09375,596.277344 C205.09375,597.095056 205.179687,597.707029 205.351562,598.113281 L205.351562,598.207031 L204.351562,598.207031 Z M201.414062,597.535156 C202.039066,597.535156 202.597654,597.384116 203.089844,597.082031 C203.582034,596.779946 203.940103,596.376305 204.164062,595.871094 L204.164062,594.011719 L202.492188,594.011719 C201.559891,594.022135 200.830732,594.192707 200.304688,594.523438 C199.778643,594.854168 199.515625,595.308591 199.515625,595.886719 C199.515625,596.360679 199.691404,596.753905 200.042969,597.066406 C200.394533,597.378908 200.85156,597.535156 201.414062,597.535156 Z M210.601562,596.917969 L213.171875,589.753906 L214.132812,589.753906 L210.976562,598.207031 L210.21875,598.207031 L207.046875,589.753906 L208.007812,589.753906 L210.601562,596.917969 Z M217.210938,598.207031 L216.273438,598.207031 L216.273438,589.753906 L217.210938,589.753906 L217.210938,598.207031 Z M216.109375,587.308594 C216.109375,587.13151 216.166666,586.981771 216.28125,586.859375 C216.395834,586.736979 216.552082,586.675781 216.75,586.675781 C216.947918,586.675781 217.105468,586.736979 217.222656,586.859375 C217.339844,586.981771 217.398438,587.13151 217.398438,587.308594 C217.398438,587.485678 217.339844,587.634114 217.222656,587.753906 C217.105468,587.873699 216.947918,587.933594 216.75,587.933594 C216.552082,587.933594 216.395834,587.873699 216.28125,587.753906 C216.166666,587.634114 216.109375,587.485678 216.109375,587.308594 Z M219.875,593.902344 C219.875,592.589837 220.167966,591.544275 220.753906,590.765625 C221.339847,589.986975 222.135412,589.597656 223.140625,589.597656 C224.281256,589.597656 225.151039,590.048173 225.75,590.949219 L225.75,586.207031 L226.679688,586.207031 L226.679688,598.207031 L225.804688,598.207031 L225.765625,597.082031 C225.166664,597.936202 224.286464,598.363281 223.125,598.363281 C222.151037,598.363281 221.365888,597.971358 220.769531,597.1875 C220.173174,596.403642 219.875,595.345059 219.875,594.011719 L219.875,593.902344 Z M220.820312,594.066406 C220.820312,595.144537 221.036456,595.994789 221.46875,596.617188 C221.901044,597.239586 222.510413,597.550781 223.296875,597.550781 C224.447922,597.550781 225.265623,597.042974 225.75,596.027344 L225.75,592.058594 C225.265623,590.95963 224.453131,590.410156 223.3125,590.410156 C222.526038,590.410156 221.914065,590.718747 221.476562,591.335938 C221.03906,591.953128 220.820312,592.863275 220.820312,594.066406 Z M157.3125,620.894531 L152.007812,620.894531 L152.007812,626.207031 L151.046875,626.207031 L151.046875,614.832031 L158.09375,614.832031 L158.09375,615.652344 L152.007812,615.652344 L152.007812,620.074219 L157.3125,620.074219 L157.3125,620.894531 Z M165.59375,625.136719 C165.031247,625.954431 164.132819,626.363281 162.898438,626.363281 C161.997391,626.363281 161.312502,626.101565 160.84375,625.578125 C160.374998,625.054685 160.135417,624.279953 160.125,623.253906 L160.125,617.753906 L161.054688,617.753906 L161.054688,623.136719 C161.054688,624.746102 161.705723,625.550781 163.007812,625.550781 C164.361986,625.550781 165.218748,624.990891 165.578125,623.871094 L165.578125,617.753906 L166.515625,617.753906 L166.515625,626.207031 L165.609375,626.207031 L165.59375,625.136719 Z M170.335938,617.753906 L170.367188,619.199219 C170.684897,618.678383 171.080727,618.281251 171.554688,618.007812 C172.028648,617.734374 172.55208,617.597656 173.125,617.597656 C174.031255,617.597656 174.705727,617.852862 175.148438,618.363281 C175.591148,618.8737 175.815104,619.639318 175.820312,620.660156 L175.820312,626.207031 L174.890625,626.207031 L174.890625,620.652344 C174.885417,619.897132 174.725262,619.334637 174.410156,618.964844 C174.095051,618.59505 173.591149,618.410156 172.898438,618.410156 C172.32031,618.410156 171.808596,618.591144 171.363281,618.953125 C170.917967,619.315106 170.588543,619.803382 170.375,620.417969 L170.375,626.207031 L169.445312,626.207031 L169.445312,617.753906 L170.335938,617.753906 Z M183.34375,626.207031 L183.34375,614.832031 L186.703125,614.832031 C187.921881,614.832031 188.846351,615.083331 189.476562,615.585938 C190.106774,616.088544 190.421875,616.829422 190.421875,617.808594 C190.421875,618.397138 190.26172,618.908852 189.941406,619.34375 C189.621092,619.778648 189.182294,620.089843 188.625,620.277344 C189.286462,620.423178 189.819008,620.748695 190.222656,621.253906 C190.626304,621.759117 190.828125,622.342445 190.828125,623.003906 C190.828125,624.00912 190.503909,624.794268 189.855469,625.359375 C189.207028,625.924482 188.304693,626.207031 187.148438,626.207031 L183.34375,626.207031 Z M184.304688,620.738281 L184.304688,625.394531 L187.1875,625.394531 C188.010421,625.394531 188.662758,625.184898 189.144531,624.765625 C189.626304,624.346352 189.867188,623.764327 189.867188,623.019531 C189.867188,622.316403 189.636721,621.760419 189.175781,621.351562 C188.714841,620.942706 188.078129,620.738281 187.265625,620.738281 L184.304688,620.738281 Z M184.304688,619.933594 L186.929688,619.933594 C187.731775,619.917969 188.352862,619.729168 188.792969,619.367188 C189.233075,619.005207 189.453125,618.477868 189.453125,617.785156 C189.453125,617.055986 189.225263,616.518231 188.769531,616.171875 C188.3138,615.825519 187.625005,615.652344 186.703125,615.652344 L184.304688,615.652344 L184.304688,619.933594 Z M192.914062,621.855469 C192.914062,621.042965 193.071613,620.311201 193.386719,619.660156 C193.701824,619.009111 194.147133,618.502606 194.722656,618.140625 C195.29818,617.778644 195.950517,617.597656 196.679688,617.597656 C197.804693,617.597656 198.716142,617.992184 199.414062,618.78125 C200.111983,619.570316 200.460938,620.615879 200.460938,621.917969 L200.460938,622.113281 C200.460938,622.930994 200.303387,623.666663 199.988281,624.320312 C199.673176,624.973962 199.22917,625.477863 198.65625,625.832031 C198.08333,626.1862 197.429691,626.363281 196.695312,626.363281 C195.575515,626.363281 194.665368,625.968754 193.964844,625.179688 C193.264319,624.390621 192.914062,623.345059 192.914062,622.042969 L192.914062,621.855469 Z M193.851562,622.113281 C193.851562,623.123703 194.113279,623.953122 194.636719,624.601562 C195.160159,625.250003 195.84635,625.574219 196.695312,625.574219 C197.539067,625.574219 198.222654,625.250003 198.746094,624.601562 C199.269534,623.953122 199.53125,623.097662 199.53125,622.035156 L199.53125,621.855469 C199.53125,621.209632 199.41146,620.618492 199.171875,620.082031 C198.93229,619.54557 198.596356,619.13021 198.164062,618.835938 C197.731769,618.541665 197.236982,618.394531 196.679688,618.394531 C195.84635,618.394531 195.166669,618.721351 194.640625,619.375 C194.114581,620.028649 193.851562,620.884109 193.851562,621.941406 L193.851562,622.113281 Z M209.695312,622.066406 C209.695312,623.384121 209.403649,624.429684 208.820312,625.203125 C208.236976,625.976566 207.45313,626.363281 206.46875,626.363281 C205.291661,626.363281 204.401045,625.925786 203.796875,625.050781 L203.757812,626.207031 L202.882812,626.207031 L202.882812,614.207031 L203.8125,614.207031 L203.8125,618.980469 C204.406253,618.058589 205.286452,617.597656 206.453125,617.597656 C207.45313,617.597656 208.243487,617.979163 208.824219,618.742188 C209.404951,619.505212 209.695312,620.566399 209.695312,621.925781 L209.695312,622.066406 Z M208.757812,621.902344 C208.757812,620.787755 208.541669,619.927086 208.109375,619.320312 C207.677081,618.713539 207.067712,618.410156 206.28125,618.410156 C205.682289,618.410156 205.174481,618.55729 204.757812,618.851562 C204.341144,619.145835 204.026043,619.57682 203.8125,620.144531 L203.8125,623.957031 C204.281252,625.019537 205.109369,625.550781 206.296875,625.550781 C207.067712,625.550781 207.670571,625.246097 208.105469,624.636719 C208.540367,624.027341 208.757812,623.115891 208.757812,621.902344 Z M219.0625,622.066406 C219.0625,623.384121 218.770836,624.429684 218.1875,625.203125 C217.604164,625.976566 216.820317,626.363281 215.835938,626.363281 C214.658848,626.363281 213.768232,625.925786 213.164062,625.050781 L213.125,626.207031 L212.25,626.207031 L212.25,614.207031 L213.179688,614.207031 L213.179688,618.980469 C213.77344,618.058589 214.65364,617.597656 215.820312,617.597656 C216.820317,617.597656 217.610674,617.979163 218.191406,618.742188 C218.772138,619.505212 219.0625,620.566399 219.0625,621.925781 L219.0625,622.066406 Z M218.125,621.902344 C218.125,620.787755 217.908856,619.927086 217.476562,619.320312 C217.044269,618.713539 216.4349,618.410156 215.648438,618.410156 C215.049476,618.410156 214.541669,618.55729 214.125,618.851562 C213.708331,619.145835 213.39323,619.57682 213.179688,620.144531 L213.179688,623.957031 C213.64844,625.019537 214.476557,625.550781 215.664062,625.550781 C216.4349,625.550781 217.037758,625.246097 217.472656,624.636719 C217.907554,624.027341 218.125,623.115891 218.125,621.902344 Z M224.21875,624.863281 L226.6875,617.753906 L227.695312,617.753906 L224.085938,627.644531 L223.898438,628.082031 C223.434894,629.108078 222.718755,629.621094 221.75,629.621094 C221.526041,629.621094 221.28646,629.584636 221.03125,629.511719 L221.023438,628.738281 L221.507812,628.785156 C221.966148,628.785156 222.337238,628.671876 222.621094,628.445312 C222.904949,628.218749 223.145832,627.82943 223.34375,627.277344 L223.757812,626.136719 L220.570312,617.753906 L221.59375,617.753906 L224.21875,624.863281 Z M188.96875,642.832031 L193.164062,652.871094 L197.375,642.832031 L198.65625,642.832031 L198.65625,654.207031 L197.695312,654.207031 L197.695312,649.253906 L197.773438,644.175781 L193.539062,654.207031 L192.796875,654.207031 L188.578125,644.214844 L188.65625,649.222656 L188.65625,654.207031 L187.695312,654.207031 L187.695312,642.832031 L188.96875,642.832031 Z M201.304688,649.855469 C201.304688,649.042965 201.462238,648.311201 201.777344,647.660156 C202.092449,647.009111 202.537758,646.502606 203.113281,646.140625 C203.688805,645.778644 204.341142,645.597656 205.070312,645.597656 C206.195318,645.597656 207.106767,645.992184 207.804688,646.78125 C208.502608,647.570316 208.851562,648.615879 208.851562,649.917969 L208.851562,650.113281 C208.851562,650.930994 208.694012,651.666663 208.378906,652.320312 C208.063801,652.973962 207.619795,653.477863 207.046875,653.832031 C206.473955,654.1862 205.820316,654.363281 205.085938,654.363281 C203.96614,654.363281 203.055993,653.968754 202.355469,653.179688 C201.654944,652.390621 201.304688,651.345059 201.304688,650.042969 L201.304688,649.855469 Z M202.242188,650.113281 C202.242188,651.123703 202.503904,651.953122 203.027344,652.601562 C203.550784,653.250003 204.236975,653.574219 205.085938,653.574219 C205.929692,653.574219 206.613279,653.250003 207.136719,652.601562 C207.660159,651.953122 207.921875,651.097662 207.921875,650.035156 L207.921875,649.855469 C207.921875,649.209632 207.802085,648.618492 207.5625,648.082031 C207.322915,647.54557 206.986981,647.13021 206.554688,646.835938 C206.122394,646.541665 205.627607,646.394531 205.070312,646.394531 C204.236975,646.394531 203.557294,646.721351 203.03125,647.375 C202.505206,648.028649 202.242188,648.884109 202.242188,649.941406 L202.242188,650.113281 Z M212.171875,645.753906 L212.203125,647.199219 C212.520835,646.678383 212.916664,646.281251 213.390625,646.007812 C213.864586,645.734374 214.388018,645.597656 214.960938,645.597656 C215.867192,645.597656 216.541664,645.852862 216.984375,646.363281 C217.427086,646.8737 217.651042,647.639318 217.65625,648.660156 L217.65625,654.207031 L216.726562,654.207031 L216.726562,648.652344 C216.721354,647.897132 216.561199,647.334637 216.246094,646.964844 C215.930988,646.59505 215.427087,646.410156 214.734375,646.410156 C214.156247,646.410156 213.644533,646.591144 213.199219,646.953125 C212.753904,647.315106 212.42448,647.803382 212.210938,648.417969 L212.210938,654.207031 L211.28125,654.207031 L211.28125,645.753906 L212.171875,645.753906 Z M225.90625,654.207031 C225.8125,653.941405 225.752604,653.54818 225.726562,653.027344 C225.398436,653.454429 224.980471,653.783853 224.472656,654.015625 C223.964841,654.247397 223.427086,654.363281 222.859375,654.363281 C222.046871,654.363281 221.389325,654.136721 220.886719,653.683594 C220.384112,653.230466 220.132812,652.657556 220.132812,651.964844 C220.132812,651.141923 220.475257,650.490888 221.160156,650.011719 C221.845056,649.53255 222.799473,649.292969 224.023438,649.292969 L225.71875,649.292969 L225.71875,648.332031 C225.71875,647.727862 225.532554,647.252606 225.160156,646.90625 C224.787759,646.559894 224.244795,646.386719 223.53125,646.386719 C222.880205,646.386719 222.341148,646.553384 221.914062,646.886719 C221.486977,647.220054 221.273438,647.621091 221.273438,648.089844 L220.335938,648.082031 C220.335938,647.410153 220.648434,646.828127 221.273438,646.335938 C221.898441,645.843748 222.666662,645.597656 223.578125,645.597656 C224.520838,645.597656 225.26432,645.833331 225.808594,646.304688 C226.352867,646.776044 226.632812,647.43359 226.648438,648.277344 L226.648438,652.277344 C226.648438,653.095056 226.734374,653.707029 226.90625,654.113281 L226.90625,654.207031 L225.90625,654.207031 Z M222.96875,653.535156 C223.593753,653.535156 224.152341,653.384116 224.644531,653.082031 C225.136721,652.779946 225.494791,652.376305 225.71875,651.871094 L225.71875,650.011719 L224.046875,650.011719 C223.114579,650.022135 222.385419,650.192707 221.859375,650.523438 C221.333331,650.854168 221.070312,651.308591 221.070312,651.886719 C221.070312,652.360679 221.246092,652.753905 221.597656,653.066406 C221.949221,653.378908 222.406247,653.535156 222.96875,653.535156 Z M184.921875,679.019531 L179.757812,679.019531 L178.585938,682.207031 L177.578125,682.207031 L181.882812,670.832031 L182.796875,670.832031 L187.101562,682.207031 L186.101562,682.207031 L184.921875,679.019531 Z M180.054688,678.199219 L184.617188,678.199219 L182.335938,672.003906 L180.054688,678.199219 Z M189.945312,673.753906 L189.976562,675.199219 C190.294272,674.678383 190.690102,674.281251 191.164062,674.007812 C191.638023,673.734374 192.161455,673.597656 192.734375,673.597656 C193.64063,673.597656 194.315102,673.852862 194.757812,674.363281 C195.200523,674.8737 195.424479,675.639318 195.429688,676.660156 L195.429688,682.207031 L194.5,682.207031 L194.5,676.652344 C194.494792,675.897132 194.334637,675.334637 194.019531,674.964844 C193.704426,674.59505 193.200524,674.410156 192.507812,674.410156 C191.929685,674.410156 191.417971,674.591144 190.972656,674.953125 C190.527342,675.315106 190.197918,675.803382 189.984375,676.417969 L189.984375,682.207031 L189.054688,682.207031 L189.054688,673.753906 L189.945312,673.753906 Z M197.96875,677.902344 C197.96875,676.57942 198.261716,675.531254 198.847656,674.757812 C199.433597,673.984371 200.229162,673.597656 201.234375,673.597656 C202.385422,673.597656 203.260414,674.055985 203.859375,674.972656 L203.90625,673.753906 L204.78125,673.753906 L204.78125,682.035156 C204.78125,683.123703 204.476566,683.985674 203.867188,684.621094 C203.257809,685.256514 202.432297,685.574219 201.390625,685.574219 C200.80208,685.574219 200.240888,685.44271 199.707031,685.179688 C199.173174,684.916665 198.752606,684.566408 198.445312,684.128906 L198.96875,683.566406 C199.630212,684.37891 200.416662,684.785156 201.328125,684.785156 C202.109379,684.785156 202.718748,684.55469 203.15625,684.09375 C203.593752,683.63281 203.820312,682.993494 203.835938,682.175781 L203.835938,681.113281 C203.236976,681.946619 202.364589,682.363281 201.21875,682.363281 C200.239578,682.363281 199.453128,681.97266 198.859375,681.191406 C198.265622,680.410152 197.96875,679.355475 197.96875,678.027344 L197.96875,677.902344 Z M198.914062,678.066406 C198.914062,679.144537 199.130206,679.994789 199.5625,680.617188 C199.994794,681.239586 200.604163,681.550781 201.390625,681.550781 C202.541672,681.550781 203.356768,681.035161 203.835938,680.003906 L203.835938,676.074219 C203.617186,675.532549 203.302085,675.119793 202.890625,674.835938 C202.479165,674.552082 201.984378,674.410156 201.40625,674.410156 C200.619788,674.410156 200.007815,674.718747 199.570312,675.335938 C199.13281,675.953128 198.914062,676.863275 198.914062,678.066406 Z M210.992188,682.363281 C210.273434,682.363281 209.623701,682.1862 209.042969,681.832031 C208.462237,681.477863 208.010418,680.984378 207.6875,680.351562 C207.364582,679.718747 207.203125,679.009119 207.203125,678.222656 L207.203125,677.886719 C207.203125,677.074215 207.360676,676.342451 207.675781,675.691406 C207.990887,675.040361 208.429685,674.528648 208.992188,674.15625 C209.55469,673.783852 210.164059,673.597656 210.820312,673.597656 C211.846359,673.597656 212.660153,673.947913 213.261719,674.648438 C213.863284,675.348962 214.164062,676.305984 214.164062,677.519531 L214.164062,678.042969 L208.132812,678.042969 L208.132812,678.222656 C208.132812,679.180994 208.407549,679.979163 208.957031,680.617188 C209.506513,681.255212 210.197913,681.574219 211.03125,681.574219 C211.531252,681.574219 211.972654,681.483074 212.355469,681.300781 C212.738283,681.118489 213.085936,680.826825 213.398438,680.425781 L213.984375,680.871094 C213.296872,681.86589 212.299486,682.363281 210.992188,682.363281 Z M210.820312,674.394531 C210.117184,674.394531 209.524742,674.652341 209.042969,675.167969 C208.561196,675.683596 208.26823,676.376298 208.164062,677.246094 L213.234375,677.246094 L213.234375,677.144531 C213.208333,676.332027 212.976565,675.670575 212.539062,675.160156 C212.10156,674.649737 211.528649,674.394531 210.820312,674.394531 Z M217.53125,682.207031 L216.59375,682.207031 L216.59375,670.207031 L217.53125,670.207031 L217.53125,682.207031 Z M225.90625,682.207031 C225.8125,681.941405 225.752604,681.54818 225.726562,681.027344 C225.398436,681.454429 224.980471,681.783853 224.472656,682.015625 C223.964841,682.247397 223.427086,682.363281 222.859375,682.363281 C222.046871,682.363281 221.389325,682.136721 220.886719,681.683594 C220.384112,681.230466 220.132812,680.657556 220.132812,679.964844 C220.132812,679.141923 220.475257,678.490888 221.160156,678.011719 C221.845056,677.53255 222.799473,677.292969 224.023438,677.292969 L225.71875,677.292969 L225.71875,676.332031 C225.71875,675.727862 225.532554,675.252606 225.160156,674.90625 C224.787759,674.559894 224.244795,674.386719 223.53125,674.386719 C222.880205,674.386719 222.341148,674.553384 221.914062,674.886719 C221.486977,675.220054 221.273438,675.621091 221.273438,676.089844 L220.335938,676.082031 C220.335938,675.410153 220.648434,674.828127 221.273438,674.335938 C221.898441,673.843748 222.666662,673.597656 223.578125,673.597656 C224.520838,673.597656 225.26432,673.833331 225.808594,674.304688 C226.352867,674.776044 226.632812,675.43359 226.648438,676.277344 L226.648438,680.277344 C226.648438,681.095056 226.734374,681.707029 226.90625,682.113281 L226.90625,682.207031 L225.90625,682.207031 Z M222.96875,681.535156 C223.593753,681.535156 224.152341,681.384116 224.644531,681.082031 C225.136721,680.779946 225.494791,680.376305 225.71875,679.871094 L225.71875,678.011719 L224.046875,678.011719 C223.114579,678.022135 222.385419,678.192707 221.859375,678.523438 C221.333331,678.854168 221.070312,679.308591 221.070312,679.886719 C221.070312,680.360679 221.246092,680.753905 221.597656,681.066406 C221.949221,681.378908 222.406247,681.535156 222.96875,681.535156 Z M195.15625,707.410156 C195.15625,706.779945 194.934898,706.281252 194.492188,705.914062 C194.049477,705.546873 193.239589,705.197918 192.0625,704.867188 C190.885411,704.536457 190.026044,704.175781 189.484375,703.785156 C188.713538,703.23307 188.328125,702.509119 188.328125,701.613281 C188.328125,700.743485 188.686194,700.036461 189.402344,699.492188 C190.118493,698.947914 191.033849,698.675781 192.148438,698.675781 C192.90365,698.675781 193.579424,698.821613 194.175781,699.113281 C194.772138,699.404949 195.234373,699.811195 195.5625,700.332031 C195.890627,700.852867 196.054688,701.433591 196.054688,702.074219 L195.085938,702.074219 C195.085938,701.298173 194.820315,700.674482 194.289062,700.203125 C193.75781,699.731768 193.044275,699.496094 192.148438,699.496094 C191.278641,699.496094 190.58594,699.690102 190.070312,700.078125 C189.554685,700.466148 189.296875,700.972653 189.296875,701.597656 C189.296875,702.175781 189.528644,702.647134 189.992188,703.011719 C190.455731,703.376304 191.197912,703.697915 192.21875,703.976562 C193.239588,704.25521 194.013018,704.544269 194.539062,704.84375 C195.065107,705.143231 195.460936,705.5013 195.726562,705.917969 C195.992189,706.334638 196.125,706.82682 196.125,707.394531 C196.125,708.290369 195.766931,709.009112 195.050781,709.550781 C194.334632,710.092451 193.390631,710.363281 192.21875,710.363281 C191.416663,710.363281 190.680993,710.220054 190.011719,709.933594 C189.342445,709.647134 188.834637,709.246096 188.488281,708.730469 C188.141925,708.214841 187.96875,707.623701 187.96875,706.957031 L188.929688,706.957031 C188.929688,707.759119 189.229164,708.391925 189.828125,708.855469 C190.427086,709.319013 191.223953,709.550781 192.21875,709.550781 C193.104171,709.550781 193.815101,709.355471 194.351562,708.964844 C194.888024,708.574217 195.15625,708.055993 195.15625,707.410156 Z M199.929688,699.589844 L199.929688,701.753906 L201.679688,701.753906 L201.679688,702.519531 L199.929688,702.519531 L199.929688,708.152344 C199.929688,708.621096 200.014322,708.970051 200.183594,709.199219 C200.352865,709.428387 200.635415,709.542969 201.03125,709.542969 C201.187501,709.542969 201.440102,709.516927 201.789062,709.464844 L201.828125,710.230469 C201.583332,710.319011 201.250002,710.363281 200.828125,710.363281 C200.187497,710.363281 199.721356,710.177085 199.429688,709.804688 C199.138019,709.43229 198.992188,708.884118 198.992188,708.160156 L198.992188,702.519531 L197.4375,702.519531 L197.4375,701.753906 L198.992188,701.753906 L198.992188,699.589844 L199.929688,699.589844 Z M207.390625,710.363281 C206.671871,710.363281 206.022138,710.1862 205.441406,709.832031 C204.860674,709.477863 204.408856,708.984378 204.085938,708.351562 C203.763019,707.718747 203.601562,707.009119 203.601562,706.222656 L203.601562,705.886719 C203.601562,705.074215 203.759113,704.342451 204.074219,703.691406 C204.389324,703.040361 204.828122,702.528648 205.390625,702.15625 C205.953128,701.783852 206.562497,701.597656 207.21875,701.597656 C208.244797,701.597656 209.058591,701.947913 209.660156,702.648438 C210.261722,703.348962 210.5625,704.305984 210.5625,705.519531 L210.5625,706.042969 L204.53125,706.042969 L204.53125,706.222656 C204.53125,707.180994 204.805987,707.979163 205.355469,708.617188 C205.904951,709.255212 206.59635,709.574219 207.429688,709.574219 C207.92969,709.574219 208.371092,709.483074 208.753906,709.300781 C209.136721,709.118489 209.484373,708.826825 209.796875,708.425781 L210.382812,708.871094 C209.695309,709.86589 208.697923,710.363281 207.390625,710.363281 Z M207.21875,702.394531 C206.515621,702.394531 205.923179,702.652341 205.441406,703.167969 C204.959633,703.683596 204.666667,704.376298 204.5625,705.246094 L209.632812,705.246094 L209.632812,705.144531 C209.606771,704.332027 209.375002,703.670575 208.9375,703.160156 C208.499998,702.649737 207.927087,702.394531 207.21875,702.394531 Z M215.414062,708.917969 L217.984375,701.753906 L218.945312,701.753906 L215.789062,710.207031 L215.03125,710.207031 L211.859375,701.753906 L212.820312,701.753906 L215.414062,708.917969 Z M224.148438,710.363281 C223.429684,710.363281 222.779951,710.1862 222.199219,709.832031 C221.618487,709.477863 221.166668,708.984378 220.84375,708.351562 C220.520832,707.718747 220.359375,707.009119 220.359375,706.222656 L220.359375,705.886719 C220.359375,705.074215 220.516926,704.342451 220.832031,703.691406 C221.147137,703.040361 221.585935,702.528648 222.148438,702.15625 C222.71094,701.783852 223.320309,701.597656 223.976562,701.597656 C225.002609,701.597656 225.816403,701.947913 226.417969,702.648438 C227.019534,703.348962 227.320312,704.305984 227.320312,705.519531 L227.320312,706.042969 L221.289062,706.042969 L221.289062,706.222656 C221.289062,707.180994 221.563799,707.979163 222.113281,708.617188 C222.662763,709.255212 223.354163,709.574219 224.1875,709.574219 C224.687502,709.574219 225.128904,709.483074 225.511719,709.300781 C225.894533,709.118489 226.242186,708.826825 226.554688,708.425781 L227.140625,708.871094 C226.453122,709.86589 225.455736,710.363281 224.148438,710.363281 Z M223.976562,702.394531 C223.273434,702.394531 222.680992,702.652341 222.199219,703.167969 C221.717446,703.683596 221.42448,704.376298 221.320312,705.246094 L226.390625,705.246094 L226.390625,705.144531 C226.364583,704.332027 226.132815,703.670575 225.695312,703.160156 C225.25781,702.649737 224.684899,702.394531 223.976562,702.394531 Z M182.390625,733.472656 L179.085938,733.472656 L179.085938,738.207031 L178.117188,738.207031 L178.117188,726.832031 L181.8125,726.832031 C183.026048,726.832031 183.973955,727.126299 184.65625,727.714844 C185.338545,728.303388 185.679688,729.126297 185.679688,730.183594 C185.679688,730.912764 185.466148,731.555987 185.039062,732.113281 C184.611977,732.670576 184.039066,733.055989 183.320312,733.269531 L186.164062,738.105469 L186.164062,738.207031 L185.140625,738.207031 L182.390625,733.472656 Z M179.085938,732.652344 L182.03125,732.652344 C182.838546,732.652344 183.486977,732.423179 183.976562,731.964844 C184.466148,731.506508 184.710938,730.912764 184.710938,730.183594 C184.710938,729.381506 184.455732,728.759117 183.945312,728.316406 C183.434893,727.873696 182.718755,727.652344 181.796875,727.652344 L179.085938,727.652344 L179.085938,732.652344 Z M188.0625,733.855469 C188.0625,733.042965 188.220051,732.311201 188.535156,731.660156 C188.850262,731.009111 189.29557,730.502606 189.871094,730.140625 C190.446617,729.778644 191.098955,729.597656 191.828125,729.597656 C192.953131,729.597656 193.86458,729.992184 194.5625,730.78125 C195.26042,731.570316 195.609375,732.615879 195.609375,733.917969 L195.609375,734.113281 C195.609375,734.930994 195.451824,735.666663 195.136719,736.320312 C194.821613,736.973962 194.377607,737.477863 193.804688,737.832031 C193.231768,738.1862 192.578129,738.363281 191.84375,738.363281 C190.723953,738.363281 189.813806,737.968754 189.113281,737.179688 C188.412757,736.390621 188.0625,735.345059 188.0625,734.042969 L188.0625,733.855469 Z M189,734.113281 C189,735.123703 189.261716,735.953122 189.785156,736.601562 C190.308596,737.250003 190.994787,737.574219 191.84375,737.574219 C192.687504,737.574219 193.371091,737.250003 193.894531,736.601562 C194.417971,735.953122 194.679688,735.097662 194.679688,734.035156 L194.679688,733.855469 C194.679688,733.209632 194.559897,732.618492 194.320312,732.082031 C194.080728,731.54557 193.744794,731.13021 193.3125,730.835938 C192.880206,730.541665 192.385419,730.394531 191.828125,730.394531 C190.994788,730.394531 190.315107,730.721351 189.789062,731.375 C189.263018,732.028649 189,732.884109 189,733.941406 L189,734.113281 Z M197.664062,733.902344 C197.664062,732.57942 197.957028,731.531254 198.542969,730.757812 C199.128909,729.984371 199.924474,729.597656 200.929688,729.597656 C202.080735,729.597656 202.955726,730.055985 203.554688,730.972656 L203.601562,729.753906 L204.476562,729.753906 L204.476562,738.035156 C204.476562,739.123703 204.171878,739.985674 203.5625,740.621094 C202.953122,741.256514 202.127609,741.574219 201.085938,741.574219 C200.497393,741.574219 199.936201,741.44271 199.402344,741.179688 C198.868487,740.916665 198.447918,740.566408 198.140625,740.128906 L198.664062,739.566406 C199.325524,740.37891 200.111975,740.785156 201.023438,740.785156 C201.804691,740.785156 202.41406,740.55469 202.851562,740.09375 C203.289065,739.63281 203.515625,738.993494 203.53125,738.175781 L203.53125,737.113281 C202.932289,737.946619 202.059902,738.363281 200.914062,738.363281 C199.934891,738.363281 199.14844,737.97266 198.554688,737.191406 C197.960935,736.410152 197.664062,735.355475 197.664062,734.027344 L197.664062,733.902344 Z M198.609375,734.066406 C198.609375,735.144537 198.825519,735.994789 199.257812,736.617188 C199.690106,737.239586 200.299475,737.550781 201.085938,737.550781 C202.236985,737.550781 203.052081,737.035161 203.53125,736.003906 L203.53125,732.074219 C203.312499,731.532549 202.997398,731.119793 202.585938,730.835938 C202.174477,730.552082 201.67969,730.410156 201.101562,730.410156 C200.3151,730.410156 199.703127,730.718747 199.265625,731.335938 C198.828123,731.953128 198.609375,732.863275 198.609375,734.066406 Z M207.039062,733.902344 C207.039062,732.57942 207.332028,731.531254 207.917969,730.757812 C208.503909,729.984371 209.299474,729.597656 210.304688,729.597656 C211.455735,729.597656 212.330726,730.055985 212.929688,730.972656 L212.976562,729.753906 L213.851562,729.753906 L213.851562,738.035156 C213.851562,739.123703 213.546878,739.985674 212.9375,740.621094 C212.328122,741.256514 211.502609,741.574219 210.460938,741.574219 C209.872393,741.574219 209.311201,741.44271 208.777344,741.179688 C208.243487,740.916665 207.822918,740.566408 207.515625,740.128906 L208.039062,739.566406 C208.700524,740.37891 209.486975,740.785156 210.398438,740.785156 C211.179691,740.785156 211.78906,740.55469 212.226562,740.09375 C212.664065,739.63281 212.890625,738.993494 212.90625,738.175781 L212.90625,737.113281 C212.307289,737.946619 211.434902,738.363281 210.289062,738.363281 C209.309891,738.363281 208.52344,737.97266 207.929688,737.191406 C207.335935,736.410152 207.039062,735.355475 207.039062,734.027344 L207.039062,733.902344 Z M207.984375,734.066406 C207.984375,735.144537 208.200519,735.994789 208.632812,736.617188 C209.065106,737.239586 209.674475,737.550781 210.460938,737.550781 C211.611985,737.550781 212.427081,737.035161 212.90625,736.003906 L212.90625,732.074219 C212.687499,731.532549 212.372398,731.119793 211.960938,730.835938 C211.549477,730.552082 211.05469,730.410156 210.476562,730.410156 C209.6901,730.410156 209.078127,730.718747 208.640625,731.335938 C208.203123,731.953128 207.984375,732.863275 207.984375,734.066406 Z M217.835938,738.207031 L216.898438,738.207031 L216.898438,729.753906 L217.835938,729.753906 L217.835938,738.207031 Z M216.734375,727.308594 C216.734375,727.13151 216.791666,726.981771 216.90625,726.859375 C217.020834,726.736979 217.177082,726.675781 217.375,726.675781 C217.572918,726.675781 217.730468,726.736979 217.847656,726.859375 C217.964844,726.981771 218.023438,727.13151 218.023438,727.308594 C218.023438,727.485678 217.964844,727.634114 217.847656,727.753906 C217.730468,727.873699 217.572918,727.933594 217.375,727.933594 C217.177082,727.933594 217.020834,727.873699 216.90625,727.753906 C216.791666,727.634114 216.734375,727.485678 216.734375,727.308594 Z M224.148438,738.363281 C223.429684,738.363281 222.779951,738.1862 222.199219,737.832031 C221.618487,737.477863 221.166668,736.984378 220.84375,736.351562 C220.520832,735.718747 220.359375,735.009119 220.359375,734.222656 L220.359375,733.886719 C220.359375,733.074215 220.516926,732.342451 220.832031,731.691406 C221.147137,731.040361 221.585935,730.528648 222.148438,730.15625 C222.71094,729.783852 223.320309,729.597656 223.976562,729.597656 C225.002609,729.597656 225.816403,729.947913 226.417969,730.648438 C227.019534,731.348962 227.320312,732.305984 227.320312,733.519531 L227.320312,734.042969 L221.289062,734.042969 L221.289062,734.222656 C221.289062,735.180994 221.563799,735.979163 222.113281,736.617188 C222.662763,737.255212 223.354163,737.574219 224.1875,737.574219 C224.687502,737.574219 225.128904,737.483074 225.511719,737.300781 C225.894533,737.118489 226.242186,736.826825 226.554688,736.425781 L227.140625,736.871094 C226.453122,737.86589 225.455736,738.363281 224.148438,738.363281 Z M223.976562,730.394531 C223.273434,730.394531 222.680992,730.652341 222.199219,731.167969 C221.717446,731.683596 221.42448,732.376298 221.320312,733.246094 L226.390625,733.246094 L226.390625,733.144531 C226.364583,732.332027 226.132815,731.670575 225.695312,731.160156 C225.25781,730.649737 224.684899,730.394531 223.976562,730.394531 Z" id="RichardCarolBarryMikeJaniceDavidFunBobbyMonaAngelaSteveRoggie" fill="#000000" fill-rule="nonzero" transform="translate(189.371094, 593.890625) rotate(-90.000000) translate(-189.371094, -593.890625) "></path>
            </g>
        </g>
    </g>
</svg>