<?xml version="1.0" encoding="UTF-8"?>
<svg width="285px" height="494px" viewBox="0 0 285 494" version="1.1" xmlns="http://www.w3.org/2000/svg" xmlns:xlink="http://www.w3.org/1999/xlink">
    <!-- Generator: Sketch 56.2 (81672) - https://sketch.com -->
    <title>Group 3</title>
    <desc>Created with Sketch.</desc>
    <g id="Welcome" stroke="none" stroke-width="1" fill="none" fill-rule="evenodd">
        <g id="iPhone-8-Copy-2" transform="translate(-64.000000, -2445.000000)" fill="#2D3358" fill-rule="nonzero">
            <g id="Group-3" transform="translate(15.578125, 2397.792969)">
                <g id="Group-25" transform="translate(172.000000, 273.000000) rotate(-90.000000) translate(-172.000000, -273.000000) translate(-101.000000, 101.000000)">
                    <g id="Group-26" transform="translate(5.000000, 48.000000)">
                        <g id="Group-4">
                            <rect id="Rectangle" transform="translate(247.000000, 4.500000) rotate(-270.000000) translate(-247.000000, -4.500000) " x="243" y="-242" width="8" height="493"></rect>
                            <rect id="Rectangle-Copy-13" transform="translate(214.000000, 33.500000) rotate(-270.000000) translate(-214.000000, -33.500000) " x="210" y="-180" width="8" height="427"></rect>
                            <rect id="Rectangle-Copy-14" transform="translate(118.000000, 59.500000) rotate(-270.000000) translate(-118.000000, -59.500000) " x="114" y="-58" width="8" height="235"></rect>
                            <rect id="Rectangle-Copy-15" transform="translate(118.000000, 87.500000) rotate(-270.000000) translate(-118.000000, -87.500000) " x="114" y="-30" width="8" height="235"></rect>
                            <rect id="Rectangle-Copy-16" transform="translate(70.000000, 115.500000) rotate(-270.000000) translate(-70.000000, -115.500000) " x="66" y="46" width="8" height="139"></rect>
                            <rect id="Rectangle-Copy-17" transform="translate(70.000000, 142.500000) rotate(-270.000000) translate(-70.000000, -142.500000) " x="66" y="73" width="8" height="139"></rect>
                            <rect id="Rectangle-Copy-18" transform="translate(33.000000, 170.000000) rotate(-270.000000) translate(-33.000000, -170.000000) " x="29" y="138" width="8" height="64"></rect>
                            <rect id="Rectangle-Copy-19" transform="translate(22.000000, 197.500000) rotate(-270.000000) translate(-22.000000, -197.500000) " x="18" y="176" width="8" height="43"></rect>
                            <rect id="Rectangle-Copy-20" transform="translate(6.000000, 225.500000) rotate(-270.000000) translate(-6.000000, -225.500000) " x="2" y="220" width="8" height="11"></rect>
                            <rect id="Rectangle-Copy-57" transform="translate(6.000000, 254.000000) rotate(-270.000000) translate(-6.000000, -254.000000) " x="2" y="249" width="8" height="10"></rect>
                            <rect id="Rectangle-Copy-59" transform="translate(6.000000, 280.500000) rotate(-270.000000) translate(-6.000000, -280.500000) " x="2" y="275" width="8" height="11"></rect>
                        </g>
                    </g>
                </g>
            </g>
        </g>
    </g>
</svg>