<?xml version="1.0" encoding="UTF-8"?>
<svg width="740px" height="441px" viewBox="0 0 740 441" version="1.1" xmlns="http://www.w3.org/2000/svg" xmlns:xlink="http://www.w3.org/1999/xlink">
    <!-- Generator: Sketch 56.2 (81672) - https://sketch.com -->
    <title>Group 3 Copy 2</title>
    <desc>Created with Sketch.</desc>
    <defs>
        <path d="M25.9558518,419.257812 C25.9558518,420.861987 25.6615839,422.079423 25.0730393,422.910156 C24.4844947,423.74089 23.6173159,424.15625 22.4714768,424.15625 C21.3464712,424.15625 20.4845006,423.748702 19.8855393,422.933594 C19.286578,422.118486 18.9792894,420.932299 18.9636643,419.375 L18.9636643,417.335938 C18.9636643,415.736971 19.2605363,414.526046 19.8542893,413.703125 C20.4480423,412.880204 21.3152211,412.46875 22.4558518,412.46875 C23.5808574,412.46875 24.4402238,412.865881 25.0339768,413.660156 C25.6277298,414.454431 25.9350184,415.624992 25.9558518,417.171875 L25.9558518,419.257812 Z M25.0183518,417.21875 C25.0183518,415.91666 24.8061143,414.932295 24.3816331,414.265625 C23.9571518,413.598955 23.3152311,413.265625 22.4558518,413.265625 C21.6120976,413.265625 20.9766873,413.591143 20.5496018,414.242188 C20.1225163,414.893232 19.9037685,415.85416 19.8933518,417.125 L19.8933518,419.359375 C19.8933518,420.656256 20.1134017,421.648434 20.5535081,422.335938 C20.9936144,423.023441 21.6329309,423.367188 22.4714768,423.367188 C23.3048143,423.367188 23.9363184,423.031253 24.3660081,422.359375 C24.7956977,421.687497 25.0131434,420.703131 25.0183518,419.40625 L25.0183518,417.21875 Z" id="path-1"></path>
        <path d="M16.8542893,338 L9.7292893,338 L9.7292893,337.28125 L13.6277268,332.859375 C14.2735634,332.11458 14.7214756,331.500002 14.9714768,331.015625 C15.2214781,330.531248 15.3464768,330.059898 15.3464768,329.601562 C15.3464768,328.882809 15.1355414,328.313804 14.7136643,327.894531 C14.2917872,327.475258 13.7110638,327.265625 12.9714768,327.265625 C12.205848,327.265625 11.5873646,327.510414 11.1160081,328 C10.6446515,328.489586 10.4089768,329.124996 10.4089768,329.90625 L9.4792893,329.90625 C9.4792893,329.265622 9.62381911,328.682294 9.91288305,328.15625 C10.201947,327.630206 10.6134012,327.217449 11.1472581,326.917969 C11.6811149,326.618488 12.2891817,326.46875 12.9714768,326.46875 C14.0131487,326.46875 14.8269426,326.742185 15.4128831,327.289062 C15.9988235,327.83594 16.2917893,328.580724 16.2917893,329.523438 C16.2917893,330.05469 16.1264264,330.635414 15.7956956,331.265625 C15.4649647,331.895836 14.8829393,332.682287 14.0496018,333.625 L10.8777268,337.210938 L16.8542893,337.210938 L16.8542893,338 Z M19.7292893,332.171875 L20.2839768,326.625 L25.9714768,326.625 L25.9714768,327.492188 L21.0886643,327.492188 L20.6902268,331.335938 C21.2996048,330.919269 22.0131394,330.710938 22.8308518,330.710938 C23.8568986,330.710938 24.6745988,331.044267 25.2839768,331.710938 C25.8933548,332.377608 26.1980393,333.265619 26.1980393,334.375 C26.1980393,335.572923 25.9011673,336.502601 25.3074143,337.164062 C24.7136613,337.825524 23.8777322,338.15625 22.7996018,338.15625 C21.8100135,338.15625 21.0079382,337.880211 20.3933518,337.328125 C19.7787654,336.776039 19.4272064,336.002609 19.3386643,335.007812 L20.2371018,335.007812 C20.3256439,335.783858 20.5886621,336.371092 21.0261643,336.769531 C21.4636665,337.167971 22.0548064,337.367188 22.7996018,337.367188 C23.6121059,337.367188 24.225381,337.109378 24.6394456,336.59375 C25.0535101,336.078122 25.2605393,335.343755 25.2605393,334.390625 C25.2605393,333.557287 25.0287708,332.877607 24.5652268,332.351562 C24.1016828,331.825518 23.4688766,331.5625 22.6667893,331.5625 C22.2240788,331.5625 21.8386643,331.618489 21.5105393,331.730469 C21.1824127,331.842448 20.836062,332.059894 20.4714768,332.382812 L19.7292893,332.171875 Z" id="path-2"></path>
        <path d="M10.3621018,247.171875 L10.9167893,241.625 L16.6042893,241.625 L16.6042893,242.492188 L11.7214768,242.492188 L11.3230393,246.335938 C11.9324173,245.919269 12.6459519,245.710938 13.4636643,245.710938 C14.4897111,245.710938 15.3074113,246.044267 15.9167893,246.710938 C16.5261673,247.377608 16.8308518,248.265619 16.8308518,249.375 C16.8308518,250.572923 16.5339798,251.502601 15.9402268,252.164062 C15.3464738,252.825524 14.5105447,253.15625 13.4324143,253.15625 C12.442826,253.15625 11.6407507,252.880211 11.0261643,252.328125 C10.4115779,251.776039 10.0600189,251.002609 9.9714768,250.007812 L10.8699143,250.007812 C10.9584564,250.783858 11.2214746,251.371092 11.6589768,251.769531 C12.096479,252.167971 12.6876189,252.367188 13.4324143,252.367188 C14.2449184,252.367188 14.8581935,252.109378 15.2722581,251.59375 C15.6863226,251.078122 15.8933518,250.343755 15.8933518,249.390625 C15.8933518,248.557288 15.6615833,247.877607 15.1980393,247.351562 C14.7344953,246.825518 14.1016891,246.5625 13.2996018,246.5625 C12.8568913,246.5625 12.4714768,246.618489 12.1433518,246.730469 C11.8152252,246.842448 11.4688745,247.059894 11.1042893,247.382812 L10.3621018,247.171875 Z M25.9558518,248.257812 C25.9558518,249.861987 25.6615839,251.079423 25.0730393,251.910156 C24.4844947,252.74089 23.6173159,253.15625 22.4714768,253.15625 C21.3464712,253.15625 20.4845006,252.748702 19.8855393,251.933594 C19.286578,251.118486 18.9792894,249.932299 18.9636643,248.375 L18.9636643,246.335938 C18.9636643,244.736971 19.2605363,243.526046 19.8542893,242.703125 C20.4480423,241.880204 21.3152211,241.46875 22.4558518,241.46875 C23.5808574,241.46875 24.4402238,241.865881 25.0339768,242.660156 C25.6277298,243.454431 25.9350184,244.624992 25.9558518,246.171875 L25.9558518,248.257812 Z M25.0183518,246.21875 C25.0183518,244.91666 24.8061143,243.932295 24.3816331,243.265625 C23.9571518,242.598955 23.3152311,242.265625 22.4558518,242.265625 C21.6120976,242.265625 20.9766873,242.591143 20.5496018,243.242188 C20.1225163,243.893232 19.9037685,244.85416 19.8933518,246.125 L19.8933518,248.359375 C19.8933518,249.656256 20.1134017,250.648434 20.5535081,251.335938 C20.9936144,252.023441 21.6329309,252.367188 22.4714768,252.367188 C23.3048143,252.367188 23.9363184,252.031253 24.3660081,251.359375 C24.7956977,250.687497 25.0131434,249.703131 25.0183518,248.40625 L25.0183518,246.21875 Z" id="path-3"></path>
        <path d="M16.7371018,157.164062 L11.8777268,168 L10.9011643,168 L15.7292893,157.421875 L9.2605393,157.421875 L9.2605393,156.625 L16.7371018,156.625 L16.7371018,157.164062 Z M19.7292893,162.171875 L20.2839768,156.625 L25.9714768,156.625 L25.9714768,157.492188 L21.0886643,157.492188 L20.6902268,161.335938 C21.2996048,160.919269 22.0131394,160.710938 22.8308518,160.710938 C23.8568986,160.710938 24.6745988,161.044267 25.2839768,161.710938 C25.8933548,162.377608 26.1980393,163.265619 26.1980393,164.375 C26.1980393,165.572923 25.9011673,166.502601 25.3074143,167.164062 C24.7136613,167.825524 23.8777322,168.15625 22.7996018,168.15625 C21.8100135,168.15625 21.0079382,167.880211 20.3933518,167.328125 C19.7787654,166.776039 19.4272064,166.002609 19.3386643,165.007812 L20.2371018,165.007812 C20.3256439,165.783858 20.5886621,166.371092 21.0261643,166.769531 C21.4636665,167.167971 22.0548064,167.367188 22.7996018,167.367188 C23.6121059,167.367188 24.225381,167.109378 24.6394456,166.59375 C25.0535101,166.078122 25.2605393,165.343755 25.2605393,164.390625 C25.2605393,163.557288 25.0287708,162.877607 24.5652268,162.351562 C24.1016828,161.825518 23.4688766,161.5625 22.6667893,161.5625 C22.2240788,161.5625 21.8386643,161.618489 21.5105393,161.730469 C21.1824127,161.842448 20.836062,162.059894 20.4714768,162.382812 L19.7292893,162.171875 Z" id="path-4"></path>
        <path d="M4.7136643,84 L3.7761643,84 L3.7761643,73.75 L0.682414301,74.8984375 L0.682414301,74.0234375 L4.5574143,72.5859375 L4.7136643,72.5859375 L4.7136643,84 Z M16.5886643,79.2578125 C16.5886643,80.8619872 16.2943964,82.0794229 15.7058518,82.9101562 C15.1173072,83.7408896 14.2501284,84.15625 13.1042893,84.15625 C11.9792837,84.15625 11.1173131,83.748702 10.5183518,82.9335938 C9.91939047,82.1184855 9.61210188,80.9322995 9.5964768,79.375 L9.5964768,77.3359375 C9.5964768,75.7369712 9.89334883,74.5260458 10.4871018,73.703125 C11.0808548,72.8802042 11.9480336,72.46875 13.0886643,72.46875 C14.2136699,72.46875 15.0730363,72.8658814 15.6667893,73.6601562 C16.2605423,74.4544311 16.5678309,75.6249923 16.5886643,77.171875 L16.5886643,79.2578125 Z M15.6511643,77.21875 C15.6511643,75.9166602 15.4389268,74.932295 15.0144456,74.265625 C14.5899643,73.598955 13.9480436,73.265625 13.0886643,73.265625 C12.2449101,73.265625 11.6094998,73.5911426 11.1824143,74.2421875 C10.7553288,74.8932324 10.536581,75.8541603 10.5261643,77.125 L10.5261643,79.359375 C10.5261643,80.6562565 10.7462142,81.6484341 11.1863206,82.3359375 C11.6264269,83.0234409 12.2657434,83.3671875 13.1042893,83.3671875 C13.9376268,83.3671875 14.5691309,83.0312534 14.9988206,82.359375 C15.4285102,81.6874966 15.6459559,80.7031315 15.6511643,79.40625 L15.6511643,77.21875 Z M25.9558518,79.2578125 C25.9558518,80.8619872 25.6615839,82.0794229 25.0730393,82.9101562 C24.4844947,83.7408896 23.6173159,84.15625 22.4714768,84.15625 C21.3464712,84.15625 20.4845006,83.748702 19.8855393,82.9335938 C19.286578,82.1184855 18.9792894,80.9322995 18.9636643,79.375 L18.9636643,77.3359375 C18.9636643,75.7369712 19.2605363,74.5260458 19.8542893,73.703125 C20.4480423,72.8802042 21.3152211,72.46875 22.4558518,72.46875 C23.5808574,72.46875 24.4402238,72.8658814 25.0339768,73.6601562 C25.6277298,74.4544311 25.9350184,75.6249923 25.9558518,77.171875 L25.9558518,79.2578125 Z M25.0183518,77.21875 C25.0183518,75.9166602 24.8061143,74.932295 24.3816331,74.265625 C23.9571518,73.598955 23.3152311,73.265625 22.4558518,73.265625 C21.6120976,73.265625 20.9766873,73.5911426 20.5496018,74.2421875 C20.1225163,74.8932324 19.9037685,75.8541603 19.8933518,77.125 L19.8933518,79.359375 C19.8933518,80.6562565 20.1134017,81.6484341 20.5535081,82.3359375 C20.9936144,83.0234409 21.6329309,83.3671875 22.4714768,83.3671875 C23.3048143,83.3671875 23.9363184,83.0312534 24.3660081,82.359375 C24.7956977,81.6874966 25.0131434,80.7031315 25.0183518,79.40625 L25.0183518,77.21875 Z" id="path-5"></path>
        <path d="M4.7136643,12 L3.7761643,12 L3.7761643,1.75 L0.682414301,2.8984375 L0.682414301,2.0234375 L4.5574143,0.5859375 L4.7136643,0.5859375 L4.7136643,12 Z M16.8542893,12 L9.7292893,12 L9.7292893,11.28125 L13.6277268,6.859375 C14.2735634,6.11457961 14.7214756,5.50000242 14.9714768,5.015625 C15.2214781,4.53124758 15.3464768,4.05989813 15.3464768,3.6015625 C15.3464768,2.88280891 15.1355414,2.31380418 14.7136643,1.89453125 C14.2917872,1.47525832 13.7110638,1.265625 12.9714768,1.265625 C12.205848,1.265625 11.5873646,1.51041422 11.1160081,2 C10.6446515,2.48958578 10.4089768,3.12499609 10.4089768,3.90625 L9.4792893,3.90625 C9.4792893,3.2656218 9.62381911,2.6822943 9.91288305,2.15625 C10.201947,1.6302057 10.6134012,1.21744941 11.1472581,0.91796875 C11.6811149,0.618488086 12.2891817,0.46875 12.9714768,0.46875 C14.0131487,0.46875 14.8269426,0.742184766 15.4128831,1.2890625 C15.9988235,1.83594023 16.2917893,2.58072445 16.2917893,3.5234375 C16.2917893,4.05469016 16.1264264,4.63541352 15.7956956,5.265625 C15.4649647,5.89583648 14.8829393,6.68228695 14.0496018,7.625 L10.8777268,11.2109375 L16.8542893,11.2109375 L16.8542893,12 Z M19.7292893,6.171875 L20.2839768,0.625 L25.9714768,0.625 L25.9714768,1.4921875 L21.0886643,1.4921875 L20.6902268,5.3359375 C21.2996048,4.91926875 22.0131394,4.7109375 22.8308518,4.7109375 C23.8568986,4.7109375 24.6745988,5.0442675 25.2839768,5.7109375 C25.8933548,6.3776075 26.1980393,7.26561945 26.1980393,8.375 C26.1980393,9.57292266 25.9011673,10.5026009 25.3074143,11.1640625 C24.7136613,11.8255241 23.8777322,12.15625 22.7996018,12.15625 C21.8100135,12.15625 21.0079382,11.8802111 20.3933518,11.328125 C19.7787654,10.7760389 19.4272064,10.0026091 19.3386643,9.0078125 L20.2371018,9.0078125 C20.3256439,9.78385805 20.5886621,10.3710918 21.0261643,10.7695312 C21.4636665,11.1679707 22.0548064,11.3671875 22.7996018,11.3671875 C23.6121059,11.3671875 24.225381,11.1093776 24.6394456,10.59375 C25.0535101,10.0781224 25.2605393,9.34375477 25.2605393,8.390625 C25.2605393,7.5572875 25.0287708,6.8776068 24.5652268,6.3515625 C24.1016828,5.8255182 23.4688766,5.5625 22.6667893,5.5625 C22.2240788,5.5625 21.8386643,5.61848902 21.5105393,5.73046875 C21.1824127,5.84244848 20.836062,6.05989422 20.4714768,6.3828125 L19.7292893,6.171875 Z" id="path-6"></path>
        <path d="M81.4453125,429.445312 L77.546875,429.445312 L77.546875,440 L76.5859375,440 L76.5859375,429.445312 L72.6953125,429.445312 L72.6953125,428.625 L81.4453125,428.625 L81.4453125,429.445312 Z M87.765625,440 L86.828125,440 L86.828125,429.75 L83.734375,430.898438 L83.734375,430.023438 L87.609375,428.585938 L87.765625,428.585938 L87.765625,440 Z" id="path-7"></path>
        <path d="M505.445312,429.445312 L501.546875,429.445312 L501.546875,440 L500.585938,440 L500.585938,429.445312 L496.695312,429.445312 L496.695312,428.625 L505.445312,428.625 L505.445312,429.445312 Z M514.421875,429.164062 L509.5625,440 L508.585938,440 L513.414062,429.421875 L506.945312,429.421875 L506.945312,428.625 L514.421875,428.625 L514.421875,429.164062 Z" id="path-8"></path>
        <path d="M577.445312,429.445312 L573.546875,429.445312 L573.546875,440 L572.585938,440 L572.585938,429.445312 L568.695312,429.445312 L568.695312,428.625 L577.445312,428.625 L577.445312,429.445312 Z M586.117188,431.554688 C586.117188,432.143232 585.945314,432.670571 585.601562,433.136719 C585.257811,433.602867 584.80469,433.945311 584.242188,434.164062 C584.898441,434.388022 585.424477,434.749998 585.820312,435.25 C586.216148,435.750002 586.414062,436.328122 586.414062,436.984375 C586.414062,437.958338 586.083337,438.730466 585.421875,439.300781 C584.760413,439.871097 583.885422,440.15625 582.796875,440.15625 C581.697911,440.15625 580.819014,439.872399 580.160156,439.304688 C579.501299,438.736976 579.171875,437.963547 579.171875,436.984375 C579.171875,436.338538 579.361977,435.763023 579.742188,435.257812 C580.122398,434.752602 580.643226,434.388022 581.304688,434.164062 C580.742185,433.945311 580.294273,433.602867 579.960938,433.136719 C579.627602,432.670571 579.460938,432.143232 579.460938,431.554688 C579.460938,430.611974 579.76432,429.861982 580.371094,429.304688 C580.977868,428.747393 581.781245,428.46875 582.78125,428.46875 C583.781255,428.46875 584.587237,428.749997 585.199219,429.3125 C585.811201,429.875003 586.117188,430.622391 586.117188,431.554688 Z M585.476562,436.992188 C585.476562,436.283851 585.223961,435.701825 584.71875,435.246094 C584.213539,434.790362 583.567712,434.5625 582.78125,434.5625 C581.994788,434.5625 581.351565,434.786456 580.851562,435.234375 C580.35156,435.682294 580.101562,436.268226 580.101562,436.992188 C580.101562,437.716149 580.343748,438.292967 580.828125,438.722656 C581.312502,439.152346 581.968746,439.367188 582.796875,439.367188 C583.604171,439.367188 584.252602,439.153648 584.742188,438.726562 C585.231773,438.299477 585.476562,437.721358 585.476562,436.992188 Z M585.179688,431.546875 C585.179688,430.89583 584.954429,430.352867 584.503906,429.917969 C584.053383,429.483071 583.47917,429.265625 582.78125,429.265625 C582.072913,429.265625 581.4987,429.475258 581.058594,429.894531 C580.618487,430.313804 580.398438,430.86458 580.398438,431.546875 C580.398438,432.213545 580.618487,432.749998 581.058594,433.15625 C581.4987,433.562502 582.075517,433.765625 582.789062,433.765625 C583.492191,433.765625 584.066404,433.5612 584.511719,433.152344 C584.957033,432.743488 585.179688,432.208337 585.179688,431.546875 Z" id="path-9"></path>
        <path d="M152.445312,429.445312 L148.546875,429.445312 L148.546875,440 L147.585938,440 L147.585938,429.445312 L143.695312,429.445312 L143.695312,428.625 L152.445312,428.625 L152.445312,429.445312 Z M161.539062,440 L154.414062,440 L154.414062,439.28125 L158.3125,434.859375 C158.958337,434.11458 159.406249,433.500002 159.65625,433.015625 C159.906251,432.531248 160.03125,432.059898 160.03125,431.601562 C160.03125,430.882809 159.820315,430.313804 159.398438,429.894531 C158.97656,429.475258 158.395837,429.265625 157.65625,429.265625 C156.890621,429.265625 156.272138,429.510414 155.800781,430 C155.329425,430.489586 155.09375,431.124996 155.09375,431.90625 L154.164062,431.90625 C154.164062,431.265622 154.308592,430.682294 154.597656,430.15625 C154.88672,429.630206 155.298174,429.217449 155.832031,428.917969 C156.365888,428.618488 156.973955,428.46875 157.65625,428.46875 C158.697922,428.46875 159.511716,428.742185 160.097656,429.289062 C160.683597,429.83594 160.976562,430.580724 160.976562,431.523438 C160.976562,432.05469 160.8112,432.635414 160.480469,433.265625 C160.149738,433.895836 159.567712,434.682287 158.734375,435.625 L155.5625,439.210938 L161.539062,439.210938 L161.539062,440 Z" id="path-10"></path>
        <path d="M222.445312,429.445312 L218.546875,429.445312 L218.546875,440 L217.585938,440 L217.585938,429.445312 L213.695312,429.445312 L213.695312,428.625 L222.445312,428.625 L222.445312,429.445312 Z M226.492188,433.804688 L227.460938,433.804688 C227.997399,433.804688 228.466144,433.709636 228.867188,433.519531 C229.268231,433.329426 229.574218,433.069012 229.785156,432.738281 C229.996095,432.40755 230.101562,432.026044 230.101562,431.59375 C230.101562,430.86458 229.895835,430.294273 229.484375,429.882812 C229.072915,429.471352 228.481775,429.265625 227.710938,429.265625 C226.981767,429.265625 226.384117,429.480467 225.917969,429.910156 C225.451821,430.339846 225.21875,430.906246 225.21875,431.609375 L224.28125,431.609375 C224.28125,431.02083 224.429686,430.483075 224.726562,429.996094 C225.023439,429.509112 225.434893,429.132814 225.960938,428.867188 C226.486982,428.601561 227.070309,428.46875 227.710938,428.46875 C228.742193,428.46875 229.554685,428.749997 230.148438,429.3125 C230.74219,429.875003 231.039062,430.645828 231.039062,431.625 C231.039062,432.171878 230.865887,432.675779 230.519531,433.136719 C230.173175,433.597659 229.69792,433.942707 229.09375,434.171875 C229.802087,434.369793 230.33854,434.709633 230.703125,435.191406 C231.06771,435.673179 231.25,436.247392 231.25,436.914062 C231.25,437.888026 230.932295,438.671872 230.296875,439.265625 C229.661455,439.859378 228.812505,440.15625 227.75,440.15625 C227.072913,440.15625 226.451826,440.020835 225.886719,439.75 C225.321612,439.479165 224.884116,439.100263 224.574219,438.613281 C224.264321,438.1263 224.109375,437.559899 224.109375,436.914062 L225.046875,436.914062 C225.046875,437.638024 225.299477,438.227862 225.804688,438.683594 C226.309898,439.139325 226.958329,439.367188 227.75,439.367188 C228.557296,439.367188 229.186196,439.160158 229.636719,438.746094 C230.087242,438.332029 230.3125,437.731775 230.3125,436.945312 C230.3125,436.184892 230.069013,435.604169 229.582031,435.203125 C229.09505,434.802081 228.377609,434.601562 227.429688,434.601562 L226.492188,434.601562 L226.492188,433.804688 Z" id="path-11"></path>
        <path d="M294.445312,429.445312 L290.546875,429.445312 L290.546875,440 L289.585938,440 L289.585938,429.445312 L285.695312,429.445312 L285.695312,428.625 L294.445312,428.625 L294.445312,429.445312 Z M302.15625,436.335938 L303.929688,436.335938 L303.929688,437.125 L302.15625,437.125 L302.15625,440 L301.21875,440 L301.21875,437.125 L295.867188,437.125 L295.867188,436.59375 L301.132812,428.625 L302.15625,428.625 L302.15625,436.335938 Z M297.015625,436.335938 L301.21875,436.335938 L301.21875,429.835938 L300.804688,430.554688 L297.015625,436.335938 Z" id="path-12"></path>
        <path d="M364.445312,429.445312 L360.546875,429.445312 L360.546875,440 L359.585938,440 L359.585938,429.445312 L355.695312,429.445312 L355.695312,428.625 L364.445312,428.625 L364.445312,429.445312 Z M367.046875,434.171875 L367.601562,428.625 L373.289062,428.625 L373.289062,429.492188 L368.40625,429.492188 L368.007812,433.335938 C368.617191,432.919269 369.330725,432.710938 370.148438,432.710938 C371.174484,432.710938 371.992184,433.044267 372.601562,433.710938 C373.210941,434.377608 373.515625,435.265619 373.515625,436.375 C373.515625,437.572923 373.218753,438.502601 372.625,439.164062 C372.031247,439.825524 371.195318,440.15625 370.117188,440.15625 C369.127599,440.15625 368.325524,439.880211 367.710938,439.328125 C367.096351,438.776039 366.744792,438.002609 366.65625,437.007812 L367.554688,437.007812 C367.64323,437.783858 367.906248,438.371092 368.34375,438.769531 C368.781252,439.167971 369.372392,439.367188 370.117188,439.367188 C370.929692,439.367188 371.542967,439.109378 371.957031,438.59375 C372.371096,438.078122 372.578125,437.343755 372.578125,436.390625 C372.578125,435.557288 372.346356,434.877607 371.882812,434.351562 C371.419269,433.825518 370.786462,433.5625 369.984375,433.5625 C369.541664,433.5625 369.15625,433.618489 368.828125,433.730469 C368.499998,433.842448 368.153648,434.059894 367.789062,434.382812 L367.046875,434.171875 Z" id="path-13"></path>
        <path d="M435.445312,429.445312 L431.546875,429.445312 L431.546875,440 L430.585938,440 L430.585938,429.445312 L426.695312,429.445312 L426.695312,428.625 L435.445312,428.625 L435.445312,429.445312 Z M442.929688,428.539062 L442.929688,429.359375 L442.820312,429.359375 C441.460931,429.359375 440.390629,429.759111 439.609375,430.558594 C438.828121,431.358077 438.395834,432.468743 438.3125,433.890625 C438.625002,433.458331 439.023435,433.123699 439.507812,432.886719 C439.99219,432.649738 440.533851,432.53125 441.132812,432.53125 C442.132817,432.53125 442.928382,432.876299 443.519531,433.566406 C444.11068,434.256514 444.40625,435.158849 444.40625,436.273438 C444.40625,437.013025 444.268231,437.679685 443.992188,438.273438 C443.716144,438.86719 443.320315,439.329425 442.804688,439.660156 C442.28906,439.990887 441.700524,440.15625 441.039062,440.15625 C439.950515,440.15625 439.065108,439.761723 438.382812,438.972656 C437.700517,438.18359 437.359375,437.164069 437.359375,435.914062 L437.359375,434.976562 C437.359375,432.940094 437.822912,431.363287 438.75,430.246094 C439.677088,429.128901 440.992179,428.559896 442.695312,428.539062 L442.929688,428.539062 Z M440.984375,433.335938 C440.390622,433.335938 439.837242,433.511717 439.324219,433.863281 C438.811195,434.214846 438.468751,434.661456 438.296875,435.203125 L438.296875,436 C438.296875,436.989588 438.550779,437.796872 439.058594,438.421875 C439.566409,439.046878 440.226558,439.359375 441.039062,439.359375 C441.768233,439.359375 442.358071,439.070315 442.808594,438.492188 C443.259117,437.91406 443.484375,437.1849 443.484375,436.304688 C443.484375,435.40885 443.259117,434.690107 442.808594,434.148438 C442.358071,433.606768 441.750004,433.335938 440.984375,433.335938 Z" id="path-14"></path>
        <path d="M647.445312,429.445312 L643.546875,429.445312 L643.546875,440 L642.585938,440 L642.585938,429.445312 L638.695312,429.445312 L638.695312,428.625 L647.445312,428.625 L647.445312,429.445312 Z M655.25,434.734375 C654.916665,435.223961 654.502607,435.602863 654.007812,435.871094 C653.513018,436.139324 652.976565,436.273438 652.398438,436.273438 C651.752601,436.273438 651.182294,436.106772 650.6875,435.773438 C650.192706,435.440103 649.809897,434.97917 649.539062,434.390625 C649.268228,433.80208 649.132812,433.158858 649.132812,432.460938 C649.132812,431.710934 649.277342,431.028649 649.566406,430.414062 C649.85547,429.799476 650.259112,429.321616 650.777344,428.980469 C651.295576,428.639321 651.893226,428.46875 652.570312,428.46875 C653.710943,428.46875 654.598955,428.868486 655.234375,429.667969 C655.869795,430.467452 656.1875,431.601555 656.1875,433.070312 L656.1875,433.914062 C656.1875,435.966156 655.750004,437.507807 654.875,438.539062 C653.999996,439.570318 652.664071,440.085938 650.867188,440.085938 L650.695312,440.085938 L650.703125,439.273438 L651.03125,439.273438 C652.390632,439.252604 653.424476,438.867191 654.132812,438.117188 C654.841149,437.367184 655.213541,436.239591 655.25,434.734375 Z M652.515625,435.46875 C653.140628,435.46875 653.70182,435.282554 654.199219,434.910156 C654.696617,434.537759 655.049478,434.05469 655.257812,433.460938 L655.257812,432.921875 C655.257812,431.765619 655.016929,430.868493 654.535156,430.230469 C654.053383,429.592445 653.40365,429.273438 652.585938,429.273438 C651.84635,429.273438 651.239586,429.571612 650.765625,430.167969 C650.291664,430.764326 650.054688,431.51562 650.054688,432.421875 C650.054688,433.291671 650.28255,434.016924 650.738281,434.597656 C651.194013,435.178388 651.786455,435.46875 652.515625,435.46875 Z" id="path-15"></path>
        <path d="M713.761719,429.445312 L709.863281,429.445312 L709.863281,440 L708.902344,440 L708.902344,429.445312 L705.011719,429.445312 L705.011719,428.625 L713.761719,428.625 L713.761719,429.445312 Z M720.082031,440 L719.144531,440 L719.144531,429.75 L716.050781,430.898438 L716.050781,430.023438 L719.925781,428.585938 L720.082031,428.585938 L720.082031,440 Z M731.957031,435.257812 C731.957031,436.861987 731.662763,438.079423 731.074219,438.910156 C730.485674,439.74089 729.618495,440.15625 728.472656,440.15625 C727.347651,440.15625 726.48568,439.748702 725.886719,438.933594 C725.287757,438.118486 724.980469,436.932299 724.964844,435.375 L724.964844,433.335938 C724.964844,431.736971 725.261716,430.526046 725.855469,429.703125 C726.449222,428.880204 727.316401,428.46875 728.457031,428.46875 C729.582037,428.46875 730.441403,428.865881 731.035156,429.660156 C731.628909,430.454431 731.936198,431.624992 731.957031,433.171875 L731.957031,435.257812 Z M731.019531,433.21875 C731.019531,431.91666 730.807294,430.932295 730.382812,430.265625 C729.958331,429.598955 729.316411,429.265625 728.457031,429.265625 C727.613277,429.265625 726.977867,429.591143 726.550781,430.242188 C726.123696,430.893232 725.904948,431.85416 725.894531,433.125 L725.894531,435.359375 C725.894531,436.656256 726.114581,437.648434 726.554688,438.335938 C726.994794,439.023441 727.63411,439.367188 728.472656,439.367188 C729.305994,439.367188 729.937498,439.031253 730.367188,438.359375 C730.796877,437.687497 731.014323,436.703131 731.019531,435.40625 L731.019531,433.21875 Z" id="path-16"></path>
    </defs>
    <g id="Welcome" stroke="none" stroke-width="1" fill="none" fill-rule="evenodd">
        <g id="Friends" transform="translate(-347.000000, -3522.000000)">
            <g id="Group-3-Copy-2" transform="translate(347.000000, 3522.000000)">
                <g id="Group-3-Copy">
                    <g id="rejilla">
                        <path d="M56.2257618,417.624945 L738.592798,417.624945" id="Path" stroke="#434343" opacity="0.301469"></path>
                        <path d="M56.2257618,334.889558 L738.592798,334.889558" id="Path" stroke="#434343" opacity="0.247093564" stroke-dasharray="5,9"></path>
                        <path d="M56.2257618,252.986529 L738.592798,252.986529" id="Path" stroke="#434343" opacity="0.247093564" stroke-dasharray="5,9"></path>
                        <path d="M56.2257618,171.005412 L738.592798,171.005412" id="Path" stroke="#434343" opacity="0.247093564" stroke-dasharray="5,9"></path>
                        <path d="M56.2257618,88.1919351 L738.592798,88.1919351" id="Path" stroke="#434343" opacity="0.247093564" stroke-dasharray="5,9"></path>
                        <path d="M62.632964,6.49122807 L745,6.49122807" id="Path-Copy" stroke="#434343" opacity="0.247093564" stroke-dasharray="5,9"></path>
                        <g id="0" fill-rule="nonzero" fill="#000000">
                            <use xlink:href="#path-1"></use>
                            <use xlink:href="#path-1"></use>
                        </g>
                        <g id="25" fill-rule="nonzero" fill="#000000">
                            <use xlink:href="#path-2"></use>
                            <use xlink:href="#path-2"></use>
                        </g>
                        <g id="50" fill-rule="nonzero" fill="#000000">
                            <use xlink:href="#path-3"></use>
                            <use xlink:href="#path-3"></use>
                        </g>
                        <g id="75" fill-rule="nonzero" fill="#000000">
                            <use xlink:href="#path-4"></use>
                            <use xlink:href="#path-4"></use>
                        </g>
                        <g id="100" fill-rule="nonzero" fill="#000000">
                            <use xlink:href="#path-5"></use>
                            <use xlink:href="#path-5"></use>
                        </g>
                        <g id="125" fill-rule="nonzero" fill="#000000">
                            <use xlink:href="#path-6"></use>
                            <use xlink:href="#path-6"></use>
                        </g>
                    </g>
                    <g id="T1" fill-rule="nonzero" fill="#000000">
                        <use xlink:href="#path-7"></use>
                        <use xlink:href="#path-7"></use>
                    </g>
                    <g id="T7" fill-rule="nonzero" fill="#000000">
                        <use xlink:href="#path-8"></use>
                        <use xlink:href="#path-8"></use>
                    </g>
                    <g id="T8" fill-rule="nonzero" fill="#000000">
                        <use xlink:href="#path-9"></use>
                        <use xlink:href="#path-9"></use>
                    </g>
                    <g id="T2" fill-rule="nonzero" fill="#000000">
                        <use xlink:href="#path-10"></use>
                        <use xlink:href="#path-10"></use>
                    </g>
                    <g id="T3" fill-rule="nonzero" fill="#000000">
                        <use xlink:href="#path-11"></use>
                        <use xlink:href="#path-11"></use>
                    </g>
                    <g id="T4" fill-rule="nonzero" fill="#000000">
                        <use xlink:href="#path-12"></use>
                        <use xlink:href="#path-12"></use>
                    </g>
                    <g id="T5" fill-rule="nonzero" fill="#000000">
                        <use xlink:href="#path-13"></use>
                        <use xlink:href="#path-13"></use>
                    </g>
                    <g id="T6" fill-rule="nonzero" fill="#000000">
                        <use xlink:href="#path-14"></use>
                        <use xlink:href="#path-14"></use>
                    </g>
                    <g id="T9" fill-rule="nonzero" fill="#000000">
                        <use xlink:href="#path-15"></use>
                        <use xlink:href="#path-15"></use>
                    </g>
                    <g id="T10" fill-rule="nonzero" fill="#000000">
                        <use xlink:href="#path-16"></use>
                        <use xlink:href="#path-16"></use>
                    </g>
                </g>
            </g>
        </g>
    </g>
</svg>