<?xml version="1.0" encoding="UTF-8"?>
<svg width="597px" height="369px" viewBox="0 0 597 369" version="1.1" xmlns="http://www.w3.org/2000/svg" xmlns:xlink="http://www.w3.org/1999/xlink">
    <!-- Generator: Sketch 56.2 (81672) - https://sketch.com -->
    <title>Group 26</title>
    <desc>Created with Sketch.</desc>
    <g id="Welcome" stroke="none" stroke-width="1" fill="none" fill-rule="evenodd">
        <g id="Friends" transform="translate(-445.000000, -13554.000000)" fill="#2D3358" fill-rule="nonzero">
            <g id="Group-25" transform="translate(326.000000, 13507.000000)">
                <g id="Group-26" transform="translate(119.000000, 47.000000)">
                    <rect id="Rectangle" transform="translate(299.000000, 4.000000) rotate(-270.000000) translate(-299.000000, -4.000000) " x="295" y="-294" width="8" height="596"></rect>
                    <rect id="Rectangle-Copy-13" transform="translate(259.000000, 40.000000) rotate(-270.000000) translate(-259.000000, -40.000000) " x="255" y="-218" width="8" height="516"></rect>
                    <rect id="Rectangle-Copy-14" transform="translate(143.000000, 76.000000) rotate(-270.000000) translate(-143.000000, -76.000000) " x="139" y="-66" width="8" height="284"></rect>
                    <rect id="Rectangle-Copy-15" transform="translate(143.000000, 112.000000) rotate(-270.000000) translate(-143.000000, -112.000000) " x="139" y="-30" width="8" height="284"></rect>
                    <rect id="Rectangle-Copy-16" transform="translate(85.000000, 148.000000) rotate(-270.000000) translate(-85.000000, -148.000000) " x="81" y="64" width="8" height="168"></rect>
                    <rect id="Rectangle-Copy-17" transform="translate(85.000000, 184.000000) rotate(-270.000000) translate(-85.000000, -184.000000) " x="81" y="100" width="8" height="168"></rect>
                    <rect id="Rectangle-Copy-18" transform="translate(40.000000, 220.000000) rotate(-270.000000) translate(-40.000000, -220.000000) " x="36" y="181" width="8" height="78"></rect>
                    <rect id="Rectangle-Copy-19" transform="translate(27.000000, 256.000000) rotate(-270.000000) translate(-27.000000, -256.000000) " x="23" y="230" width="8" height="52"></rect>
                    <rect id="Rectangle-Copy-20" transform="translate(7.000000, 292.500000) rotate(-270.000000) translate(-7.000000, -292.500000) " x="3" y="286" width="8" height="13"></rect>
                    <rect id="Rectangle-Copy-57" transform="translate(8.000000, 328.500000) rotate(-270.000000) translate(-8.000000, -328.500000) " x="4" y="322" width="8" height="13"></rect>
                    <rect id="Rectangle-Copy-59" transform="translate(8.000000, 364.500000) rotate(-270.000000) translate(-8.000000, -364.500000) " x="4" y="358" width="8" height="13"></rect>
                </g>
            </g>
        </g>
    </g>
</svg>