<?xml version="1.0" encoding="UTF-8"?>
<svg width="362px" height="548px" viewBox="0 0 362 548" version="1.1" xmlns="http://www.w3.org/2000/svg" xmlns:xlink="http://www.w3.org/1999/xlink">
    <!-- Generator: Sketch 56.2 (81672) - https://sketch.com -->
    <title>Group 27</title>
    <desc>Created with Sketch.</desc>
    <defs>
        <path d="M46.4456259,522.14907 C46.4456259,523.753245 46.151358,524.970681 45.5628134,525.801414 C44.9742688,526.632148 44.1070899,527.047508 42.9612509,527.047508 C41.8362452,527.047508 40.9742747,526.63996 40.3753134,525.824852 C39.776352,525.009744 39.4690634,523.823557 39.4534384,522.266258 L39.4534384,520.227195 C39.4534384,518.628229 39.7503104,517.417304 40.3440634,516.594383 C40.9378163,515.771462 41.8049952,515.360008 42.9456259,515.360008 C44.0706315,515.360008 44.9299979,515.757139 45.5237509,516.551414 C46.1175038,517.345689 46.4247924,518.51625 46.4456259,520.063133 L46.4456259,522.14907 Z M45.5081259,520.110008 C45.5081259,518.807918 45.2958884,517.823553 44.8714071,517.156883 C44.4469258,516.490213 43.8050052,516.156883 42.9456259,516.156883 C42.1018716,516.156883 41.4664613,516.482401 41.0393759,517.133445 C40.6122904,517.78449 40.3935426,518.745418 40.3831259,520.016258 L40.3831259,522.250633 C40.3831259,523.547514 40.6031757,524.539692 41.0432821,525.227195 C41.4833885,525.914699 42.122705,526.258445 42.9612509,526.258445 C43.7945884,526.258445 44.4260925,525.922511 44.8557821,525.250633 C45.2854718,524.578755 45.5029175,523.594389 45.5081259,522.297508 L45.5081259,520.110008 Z" id="path-1"></path>
        <path d="M18.4846884,418.664412 L19.0393759,413.117537 L24.7268759,413.117537 L24.7268759,413.984725 L19.8440634,413.984725 L19.4456259,417.828475 C20.0550039,417.411806 20.7685384,417.203475 21.5862509,417.203475 C22.6122977,417.203475 23.4299978,417.536805 24.0393759,418.203475 C24.6487539,418.870145 24.9534384,419.758157 24.9534384,420.867537 C24.9534384,422.06546 24.6565663,422.995138 24.0628134,423.6566 C23.4690604,424.318061 22.6331313,424.648787 21.5550009,424.648787 C20.5654126,424.648787 19.7633373,424.372748 19.1487509,423.820662 C18.5341645,423.268576 18.1826055,422.495146 18.0940634,421.50035 L18.9925009,421.50035 C19.081043,422.276395 19.3440612,422.863629 19.7815634,423.262069 C20.2190656,423.660508 20.8102055,423.859725 21.5550009,423.859725 C22.3675049,423.859725 22.98078,423.601915 23.3948446,423.086287 C23.8089092,422.57066 24.0159384,421.836292 24.0159384,420.883162 C24.0159384,420.049825 23.7841698,419.370144 23.3206259,418.8441 C22.8570819,418.318056 22.2242757,418.055037 21.4221884,418.055037 C20.9794778,418.055037 20.5940634,418.111026 20.2659384,418.223006 C19.9378117,418.334986 19.591461,418.552432 19.2268759,418.87535 L18.4846884,418.664412 Z M35.5784384,419.75035 C35.5784384,421.354525 35.2841705,422.57196 34.6956259,423.402694 C34.1070813,424.233427 33.2399024,424.648787 32.0940634,424.648787 C30.9690577,424.648787 30.1070872,424.241239 29.5081259,423.426131 C28.9091645,422.611023 28.6018759,421.424837 28.5862509,419.867537 L28.5862509,417.828475 C28.5862509,416.229508 28.8831229,415.018583 29.4768759,414.195662 C30.0706288,413.372742 30.9378077,412.961287 32.0784384,412.961287 C33.203444,412.961287 34.0628104,413.358419 34.6565634,414.152694 C35.2503163,414.946968 35.5576049,416.11753 35.5784384,417.664412 L35.5784384,419.75035 Z M34.6409384,417.711287 C34.6409384,416.409197 34.4287009,415.424832 34.0042196,414.758162 C33.5797383,414.091492 32.9378177,413.758162 32.0784384,413.758162 C31.2346841,413.758162 30.5992738,414.08368 30.1721884,414.734725 C29.7451029,415.38577 29.5263551,416.346698 29.5159384,417.617537 L29.5159384,419.851912 C29.5159384,421.148794 29.7359882,422.140971 30.1760946,422.828475 C30.616201,423.515978 31.2555175,423.859725 32.0940634,423.859725 C32.9274009,423.859725 33.558905,423.523791 33.9885946,422.851912 C34.4182843,422.180034 34.63573,421.195669 34.6409384,419.898787 L34.6409384,417.711287 Z M46.4456259,419.75035 C46.4456259,421.354525 46.151358,422.57196 45.5628134,423.402694 C44.9742688,424.233427 44.1070899,424.648787 42.9612509,424.648787 C41.8362452,424.648787 40.9742747,424.241239 40.3753134,423.426131 C39.776352,422.611023 39.4690634,421.424837 39.4534384,419.867537 L39.4534384,417.828475 C39.4534384,416.229508 39.7503104,415.018583 40.3440634,414.195662 C40.9378163,413.372742 41.8049952,412.961287 42.9456259,412.961287 C44.0706315,412.961287 44.9299979,413.358419 45.5237509,414.152694 C46.1175038,414.946968 46.4247924,416.11753 46.4456259,417.664412 L46.4456259,419.75035 Z M45.5081259,417.711287 C45.5081259,416.409197 45.2958884,415.424832 44.8714071,414.758162 C44.4469258,414.091492 43.8050052,413.758162 42.9456259,413.758162 C42.1018716,413.758162 41.4664613,414.08368 41.0393759,414.734725 C40.6122904,415.38577 40.3935426,416.346698 40.3831259,417.617537 L40.3831259,419.851912 C40.3831259,421.148794 40.6031757,422.140971 41.0432821,422.828475 C41.4833885,423.515978 42.122705,423.859725 42.9612509,423.859725 C43.7945884,423.859725 44.4260925,423.523791 44.8557821,422.851912 C45.2854718,422.180034 45.5029175,421.195669 45.5081259,419.898787 L45.5081259,417.711287 Z" id="path-2"></path>
        <path d="M5.51593836,322.093817 L4.57843836,322.093817 L4.57843836,311.843817 L1.48468836,312.992254 L1.48468836,312.117254 L5.35968836,310.679754 L5.51593836,310.679754 L5.51593836,322.093817 Z M12.0940634,321.531317 C12.0940634,321.349024 12.1526565,321.194078 12.2698446,321.066473 C12.3870327,320.938868 12.5497915,320.875067 12.7581259,320.875067 C12.9664602,320.875067 13.1305211,320.938868 13.2503134,321.066473 C13.3701056,321.194078 13.4300009,321.349024 13.4300009,321.531317 C13.4300009,321.713609 13.3701056,321.863347 13.2503134,321.980535 C13.1305211,322.097723 12.9664602,322.156317 12.7581259,322.156317 C12.5497915,322.156317 12.3870327,322.097723 12.2698446,321.980535 C12.1526565,321.863347 12.0940634,321.713609 12.0940634,321.531317 Z M24.7112509,317.351629 C24.7112509,318.955804 24.416983,320.17324 23.8284384,321.003973 C23.2398938,321.834706 22.3727149,322.250067 21.2268759,322.250067 C20.1018702,322.250067 19.2398997,321.842519 18.6409384,321.02741 C18.041977,320.212302 17.7346884,319.026116 17.7190634,317.468817 L17.7190634,315.429754 C17.7190634,313.830788 18.0159354,312.619862 18.6096884,311.796942 C19.2034413,310.974021 20.0706202,310.562567 21.2112509,310.562567 C22.3362565,310.562567 23.1956229,310.959698 23.7893759,311.753973 C24.3831288,312.548248 24.6904174,313.718809 24.7112509,315.265692 L24.7112509,317.351629 Z M23.7737509,315.312567 C23.7737509,314.010477 23.5615134,313.026112 23.1370321,312.359442 C22.7125508,311.692772 22.0706302,311.359442 21.2112509,311.359442 C20.3674966,311.359442 19.7320863,311.684959 19.3050009,312.336004 C18.8779154,312.987049 18.6591676,313.947977 18.6487509,315.218817 L18.6487509,317.453192 C18.6487509,318.750073 18.8688007,319.742251 19.3089071,320.429754 C19.7490135,321.117258 20.38833,321.461004 21.2268759,321.461004 C22.0602134,321.461004 22.6917175,321.12507 23.1214071,320.453192 C23.5510968,319.781313 23.7685425,318.796948 23.7737509,317.500067 L23.7737509,315.312567 Z M35.5784384,317.351629 C35.5784384,318.955804 35.2841705,320.17324 34.6956259,321.003973 C34.1070813,321.834706 33.2399024,322.250067 32.0940634,322.250067 C30.9690577,322.250067 30.1070872,321.842519 29.5081259,321.02741 C28.9091645,320.212302 28.6018759,319.026116 28.5862509,317.468817 L28.5862509,315.429754 C28.5862509,313.830788 28.8831229,312.619862 29.4768759,311.796942 C30.0706288,310.974021 30.9378077,310.562567 32.0784384,310.562567 C33.203444,310.562567 34.0628104,310.959698 34.6565634,311.753973 C35.2503163,312.548248 35.5576049,313.718809 35.5784384,315.265692 L35.5784384,317.351629 Z M34.6409384,315.312567 C34.6409384,314.010477 34.4287009,313.026112 34.0042196,312.359442 C33.5797383,311.692772 32.9378177,311.359442 32.0784384,311.359442 C31.2346841,311.359442 30.5992738,311.684959 30.1721884,312.336004 C29.7451029,312.987049 29.5263551,313.947977 29.5159384,315.218817 L29.5159384,317.453192 C29.5159384,318.750073 29.7359882,319.742251 30.1760946,320.429754 C30.616201,321.117258 31.2555175,321.461004 32.0940634,321.461004 C32.9274009,321.461004 33.558905,321.12507 33.9885946,320.453192 C34.4182843,319.781313 34.63573,318.796948 34.6409384,317.500067 L34.6409384,315.312567 Z M46.4456259,317.351629 C46.4456259,318.955804 46.151358,320.17324 45.5628134,321.003973 C44.9742688,321.834706 44.1070899,322.250067 42.9612509,322.250067 C41.8362452,322.250067 40.9742747,321.842519 40.3753134,321.02741 C39.776352,320.212302 39.4690634,319.026116 39.4534384,317.468817 L39.4534384,315.429754 C39.4534384,313.830788 39.7503104,312.619862 40.3440634,311.796942 C40.9378163,310.974021 41.8049952,310.562567 42.9456259,310.562567 C44.0706315,310.562567 44.9299979,310.959698 45.5237509,311.753973 C46.1175038,312.548248 46.4247924,313.718809 46.4456259,315.265692 L46.4456259,317.351629 Z M45.5081259,315.312567 C45.5081259,314.010477 45.2958884,313.026112 44.8714071,312.359442 C44.4469258,311.692772 43.8050052,311.359442 42.9456259,311.359442 C42.1018716,311.359442 41.4664613,311.684959 41.0393759,312.336004 C40.6122904,312.987049 40.3935426,313.947977 40.3831259,315.218817 L40.3831259,317.453192 C40.3831259,318.750073 40.6031757,319.742251 41.0432821,320.429754 C41.4833885,321.117258 42.122705,321.461004 42.9612509,321.461004 C43.7945884,321.461004 44.4260925,321.12507 44.8557821,320.453192 C45.2854718,319.781313 45.5029175,318.796948 45.5081259,317.500067 L45.5081259,315.312567 Z" id="path-3"></path>
        <path d="M5.51593836,219.695096 L4.57843836,219.695096 L4.57843836,209.445096 L1.48468836,210.593533 L1.48468836,209.718533 L5.35968836,208.281033 L5.51593836,208.281033 L5.51593836,219.695096 Z M12.0940634,219.132596 C12.0940634,218.950303 12.1526565,218.795357 12.2698446,218.667752 C12.3870327,218.540147 12.5497915,218.476346 12.7581259,218.476346 C12.9664602,218.476346 13.1305211,218.540147 13.2503134,218.667752 C13.3701056,218.795357 13.4300009,218.950303 13.4300009,219.132596 C13.4300009,219.314889 13.3701056,219.464627 13.2503134,219.581815 C13.1305211,219.699003 12.9664602,219.757596 12.7581259,219.757596 C12.5497915,219.757596 12.3870327,219.699003 12.2698446,219.581815 C12.1526565,219.464627 12.0940634,219.314889 12.0940634,219.132596 Z M18.4846884,213.866971 L19.0393759,208.320096 L24.7268759,208.320096 L24.7268759,209.187283 L19.8440634,209.187283 L19.4456259,213.031033 C20.0550039,212.614365 20.7685384,212.406033 21.5862509,212.406033 C22.6122977,212.406033 23.4299978,212.739363 24.0393759,213.406033 C24.6487539,214.072703 24.9534384,214.960715 24.9534384,216.070096 C24.9534384,217.268019 24.6565663,218.197697 24.0628134,218.859158 C23.4690604,219.52062 22.6331313,219.851346 21.5550009,219.851346 C20.5654126,219.851346 19.7633373,219.575307 19.1487509,219.023221 C18.5341645,218.471135 18.1826055,217.697705 18.0940634,216.702908 L18.9925009,216.702908 C19.081043,217.478954 19.3440612,218.066188 19.7815634,218.464627 C20.2190656,218.863067 20.8102055,219.062283 21.5550009,219.062283 C22.3675049,219.062283 22.98078,218.804474 23.3948446,218.288846 C23.8089092,217.773218 24.0159384,217.038851 24.0159384,216.085721 C24.0159384,215.252383 23.7841698,214.572703 23.3206259,214.046658 C22.8570819,213.520614 22.2242757,213.257596 21.4221884,213.257596 C20.9794778,213.257596 20.5940634,213.313585 20.2659384,213.425565 C19.9378117,213.537544 19.591461,213.75499 19.2268759,214.077908 L18.4846884,213.866971 Z M35.5784384,214.952908 C35.5784384,216.557083 35.2841705,217.774519 34.6956259,218.605252 C34.1070813,219.435986 33.2399024,219.851346 32.0940634,219.851346 C30.9690577,219.851346 30.1070872,219.443798 29.5081259,218.62869 C28.9091645,217.813581 28.6018759,216.627395 28.5862509,215.070096 L28.5862509,213.031033 C28.5862509,211.432067 28.8831229,210.221142 29.4768759,209.398221 C30.0706288,208.5753 30.9378077,208.163846 32.0784384,208.163846 C33.203444,208.163846 34.0628104,208.560977 34.6565634,209.355252 C35.2503163,210.149527 35.5576049,211.320088 35.5784384,212.866971 L35.5784384,214.952908 Z M34.6409384,212.913846 C34.6409384,211.611756 34.4287009,210.627391 34.0042196,209.960721 C33.5797383,209.294051 32.9378177,208.960721 32.0784384,208.960721 C31.2346841,208.960721 30.5992738,209.286239 30.1721884,209.937283 C29.7451029,210.588328 29.5263551,211.549256 29.5159384,212.820096 L29.5159384,215.054471 C29.5159384,216.351352 29.7359882,217.34353 30.1760946,218.031033 C30.616201,218.718537 31.2555175,219.062283 32.0940634,219.062283 C32.9274009,219.062283 33.558905,218.726349 33.9885946,218.054471 C34.4182843,217.382593 34.63573,216.398227 34.6409384,215.101346 L34.6409384,212.913846 Z M46.4456259,214.952908 C46.4456259,216.557083 46.151358,217.774519 45.5628134,218.605252 C44.9742688,219.435986 44.1070899,219.851346 42.9612509,219.851346 C41.8362452,219.851346 40.9742747,219.443798 40.3753134,218.62869 C39.776352,217.813581 39.4690634,216.627395 39.4534384,215.070096 L39.4534384,213.031033 C39.4534384,211.432067 39.7503104,210.221142 40.3440634,209.398221 C40.9378163,208.5753 41.8049952,208.163846 42.9456259,208.163846 C44.0706315,208.163846 44.9299979,208.560977 45.5237509,209.355252 C46.1175038,210.149527 46.4247924,211.320088 46.4456259,212.866971 L46.4456259,214.952908 Z M45.5081259,212.913846 C45.5081259,211.611756 45.2958884,210.627391 44.8714071,209.960721 C44.4469258,209.294051 43.8050052,208.960721 42.9456259,208.960721 C42.1018716,208.960721 41.4664613,209.286239 41.0393759,209.937283 C40.6122904,210.588328 40.3935426,211.549256 40.3831259,212.820096 L40.3831259,215.054471 C40.3831259,216.351352 40.6031757,217.34353 41.0432821,218.031033 C41.4833885,218.718537 42.122705,219.062283 42.9612509,219.062283 C43.7945884,219.062283 44.4260925,218.726349 44.8557821,218.054471 C45.2854718,217.382593 45.5029175,216.398227 45.5081259,215.101346 L45.5081259,212.913846 Z" id="path-4"></path>
        <path d="M8.28937586,119.108742 L1.16437586,119.108742 L1.16437586,118.389992 L5.06281336,113.968117 C5.70864993,113.223322 6.15656211,112.608744 6.40656336,112.124367 C6.65656461,111.63999 6.78156336,111.16864 6.78156336,110.710305 C6.78156336,109.991551 6.57062797,109.422546 6.14875086,109.003273 C5.72687376,108.584 5.1461504,108.374367 4.40656336,108.374367 C3.64093454,108.374367 3.02245114,108.619156 2.55109461,109.108742 C2.07973809,109.598328 1.84406336,110.233738 1.84406336,111.014992 L0.914375864,111.014992 C0.914375864,110.374364 1.05890567,109.791036 1.34796961,109.264992 C1.63703356,108.738948 2.04848778,108.326191 2.58234461,108.026711 C3.11620145,107.72723 3.72426829,107.577492 4.40656336,107.577492 C5.44823524,107.577492 6.26202918,107.850927 6.84796961,108.397805 C7.43391004,108.944682 7.72687586,109.689466 7.72687586,110.63218 C7.72687586,111.163432 7.56151293,111.744156 7.23078211,112.374367 C6.90005129,113.004578 6.31802586,113.791029 5.48468836,114.733742 L2.31281336,118.31968 L8.28937586,118.31968 L8.28937586,119.108742 Z M12.0940634,118.546242 C12.0940634,118.363949 12.1526565,118.209003 12.2698446,118.081398 C12.3870327,117.953793 12.5497915,117.889992 12.7581259,117.889992 C12.9664602,117.889992 13.1305211,117.953793 13.2503134,118.081398 C13.3701056,118.209003 13.4300009,118.363949 13.4300009,118.546242 C13.4300009,118.728535 13.3701056,118.878273 13.2503134,118.995461 C13.1305211,119.112649 12.9664602,119.171242 12.7581259,119.171242 C12.5497915,119.171242 12.3870327,119.112649 12.2698446,118.995461 C12.1526565,118.878273 12.0940634,118.728535 12.0940634,118.546242 Z M24.7112509,114.366555 C24.7112509,115.970729 24.416983,117.188165 23.8284384,118.018898 C23.2398938,118.849632 22.3727149,119.264992 21.2268759,119.264992 C20.1018702,119.264992 19.2398997,118.857444 18.6409384,118.042336 C18.041977,117.227228 17.7346884,116.041041 17.7190634,114.483742 L17.7190634,112.44468 C17.7190634,110.845713 18.0159354,109.634788 18.6096884,108.811867 C19.2034413,107.988946 20.0706202,107.577492 21.2112509,107.577492 C22.3362565,107.577492 23.1956229,107.974623 23.7893759,108.768898 C24.3831288,109.563173 24.6904174,110.733734 24.7112509,112.280617 L24.7112509,114.366555 Z M23.7737509,112.327492 C23.7737509,111.025402 23.5615134,110.041037 23.1370321,109.374367 C22.7125508,108.707697 22.0706302,108.374367 21.2112509,108.374367 C20.3674966,108.374367 19.7320863,108.699885 19.3050009,109.35093 C18.8779154,110.001974 18.6591676,110.962902 18.6487509,112.233742 L18.6487509,114.468117 C18.6487509,115.764998 18.8688007,116.757176 19.3089071,117.44468 C19.7490135,118.132183 20.38833,118.47593 21.2268759,118.47593 C22.0602134,118.47593 22.6917175,118.139995 23.1214071,117.468117 C23.5510968,116.796239 23.7685425,115.811873 23.7737509,114.514992 L23.7737509,112.327492 Z M35.5784384,114.366555 C35.5784384,115.970729 35.2841705,117.188165 34.6956259,118.018898 C34.1070813,118.849632 33.2399024,119.264992 32.0940634,119.264992 C30.9690577,119.264992 30.1070872,118.857444 29.5081259,118.042336 C28.9091645,117.227228 28.6018759,116.041041 28.5862509,114.483742 L28.5862509,112.44468 C28.5862509,110.845713 28.8831229,109.634788 29.4768759,108.811867 C30.0706288,107.988946 30.9378077,107.577492 32.0784384,107.577492 C33.203444,107.577492 34.0628104,107.974623 34.6565634,108.768898 C35.2503163,109.563173 35.5576049,110.733734 35.5784384,112.280617 L35.5784384,114.366555 Z M34.6409384,112.327492 C34.6409384,111.025402 34.4287009,110.041037 34.0042196,109.374367 C33.5797383,108.707697 32.9378177,108.374367 32.0784384,108.374367 C31.2346841,108.374367 30.5992738,108.699885 30.1721884,109.35093 C29.7451029,110.001974 29.5263551,110.962902 29.5159384,112.233742 L29.5159384,114.468117 C29.5159384,115.764998 29.7359882,116.757176 30.1760946,117.44468 C30.616201,118.132183 31.2555175,118.47593 32.0940634,118.47593 C32.9274009,118.47593 33.558905,118.139995 33.9885946,117.468117 C34.4182843,116.796239 34.63573,115.811873 34.6409384,114.514992 L34.6409384,112.327492 Z M46.4456259,114.366555 C46.4456259,115.970729 46.151358,117.188165 45.5628134,118.018898 C44.9742688,118.849632 44.1070899,119.264992 42.9612509,119.264992 C41.8362452,119.264992 40.9742747,118.857444 40.3753134,118.042336 C39.776352,117.227228 39.4690634,116.041041 39.4534384,114.483742 L39.4534384,112.44468 C39.4534384,110.845713 39.7503104,109.634788 40.3440634,108.811867 C40.9378163,107.988946 41.8049952,107.577492 42.9456259,107.577492 C44.0706315,107.577492 44.9299979,107.974623 45.5237509,108.768898 C46.1175038,109.563173 46.4247924,110.733734 46.4456259,112.280617 L46.4456259,114.366555 Z M45.5081259,112.327492 C45.5081259,111.025402 45.2958884,110.041037 44.8714071,109.374367 C44.4469258,108.707697 43.8050052,108.374367 42.9456259,108.374367 C42.1018716,108.374367 41.4664613,108.699885 41.0393759,109.35093 C40.6122904,110.001974 40.3935426,110.962902 40.3831259,112.233742 L40.3831259,114.468117 C40.3831259,115.764998 40.6031757,116.757176 41.0432821,117.44468 C41.4833885,118.132183 42.122705,118.47593 42.9612509,118.47593 C43.7945884,118.47593 44.4260925,118.139995 44.8557821,117.468117 C45.2854718,116.796239 45.5029175,115.811873 45.5081259,114.514992 L45.5081259,112.327492 Z" id="path-5"></path>
        <path d="M58.75,536.859375 L54.8515625,536.859375 L54.8515625,547.414062 L53.890625,547.414062 L53.890625,536.859375 L50,536.859375 L50,536.039062 L58.75,536.039062 L58.75,536.859375 Z M66.5703125,547.414062 L65.6328125,547.414062 L65.6328125,537.164062 L62.5390625,538.3125 L62.5390625,537.4375 L66.4140625,536 L66.5703125,536 L66.5703125,547.414062 Z" id="path-6"></path>
        <path d="M245.75,536.820312 L241.851562,536.820312 L241.851562,547.375 L240.890625,547.375 L240.890625,536.820312 L237,536.820312 L237,536 L245.75,536 L245.75,536.820312 Z M256.226562,536.539062 L251.367188,547.375 L250.390625,547.375 L255.21875,536.796875 L248.75,536.796875 L248.75,536 L256.226562,536 L256.226562,536.539062 Z" id="path-7"></path>
        <path d="M277.75,535.976562 L273.851562,535.976562 L273.851562,546.53125 L272.890625,546.53125 L272.890625,535.976562 L269,535.976562 L269,535.15625 L277.75,535.15625 L277.75,535.976562 Z M287.921875,538.085938 C287.921875,538.674482 287.750002,539.201821 287.40625,539.667969 C287.062498,540.134117 286.609378,540.476561 286.046875,540.695312 C286.703128,540.919272 287.229165,541.281247 287.625,541.78125 C288.020835,542.281253 288.21875,542.859372 288.21875,543.515625 C288.21875,544.489588 287.888024,545.261716 287.226562,545.832031 C286.565101,546.402347 285.69011,546.6875 284.601562,546.6875 C283.502599,546.6875 282.623701,546.403649 281.964844,545.835938 C281.305986,545.268226 280.976562,544.494797 280.976562,543.515625 C280.976562,542.869788 281.166665,542.294273 281.546875,541.789062 C281.927085,541.283852 282.447913,540.919272 283.109375,540.695312 C282.546872,540.476561 282.09896,540.134117 281.765625,539.667969 C281.43229,539.201821 281.265625,538.674482 281.265625,538.085938 C281.265625,537.143224 281.569007,536.393232 282.175781,535.835938 C282.782555,535.278643 283.585933,535 284.585938,535 C285.585942,535 286.391924,535.281247 287.003906,535.84375 C287.615888,536.406253 287.921875,537.153641 287.921875,538.085938 Z M287.28125,543.523438 C287.28125,542.815101 287.028648,542.233075 286.523438,541.777344 C286.018227,541.321612 285.3724,541.09375 284.585938,541.09375 C283.799475,541.09375 283.156253,541.317706 282.65625,541.765625 C282.156247,542.213544 281.90625,542.799476 281.90625,543.523438 C281.90625,544.247399 282.148435,544.824217 282.632812,545.253906 C283.11719,545.683596 283.773433,545.898438 284.601562,545.898438 C285.408858,545.898438 286.057289,545.684898 286.546875,545.257812 C287.036461,544.830727 287.28125,544.252608 287.28125,543.523438 Z M286.984375,538.078125 C286.984375,537.42708 286.759117,536.884117 286.308594,536.449219 C285.858071,536.014321 285.283858,535.796875 284.585938,535.796875 C283.877601,535.796875 283.303388,536.006508 282.863281,536.425781 C282.423175,536.845054 282.203125,537.39583 282.203125,538.078125 C282.203125,538.744795 282.423175,539.281248 282.863281,539.6875 C283.303388,540.093752 283.880205,540.296875 284.59375,540.296875 C285.296879,540.296875 285.871092,540.09245 286.316406,539.683594 C286.761721,539.274738 286.984375,538.739587 286.984375,538.078125 Z" id="path-8"></path>
        <path d="M87.75,535.976562 L83.8515625,535.976562 L83.8515625,546.53125 L82.890625,546.53125 L82.890625,535.976562 L79,535.976562 L79,535.15625 L87.75,535.15625 L87.75,535.976562 Z M98.34375,546.53125 L91.21875,546.53125 L91.21875,545.8125 L95.1171875,541.390625 C95.7630241,540.64583 96.2109363,540.031252 96.4609375,539.546875 C96.7109387,539.062498 96.8359375,538.591148 96.8359375,538.132812 C96.8359375,537.414059 96.6250021,536.845054 96.203125,536.425781 C95.7812479,536.006508 95.2005245,535.796875 94.4609375,535.796875 C93.6953087,535.796875 93.0768253,536.041664 92.6054688,536.53125 C92.1341122,537.020836 91.8984375,537.656246 91.8984375,538.4375 L90.96875,538.4375 C90.96875,537.796872 91.1132798,537.213544 91.4023438,536.6875 C91.6914077,536.161456 92.1028619,535.748699 92.6367188,535.449219 C93.1705756,535.149738 93.7786424,535 94.4609375,535 C95.5026094,535 96.3164033,535.273435 96.9023438,535.820312 C97.4882842,536.36719 97.78125,537.111974 97.78125,538.054688 C97.78125,538.58594 97.6158871,539.166664 97.2851562,539.796875 C96.9544254,540.427086 96.3724,541.213537 95.5390625,542.15625 L92.3671875,545.742188 L98.34375,545.742188 L98.34375,546.53125 Z" id="path-9"></path>
        <path d="M119.75,535.976562 L115.851562,535.976562 L115.851562,546.53125 L114.890625,546.53125 L114.890625,535.976562 L111,535.976562 L111,535.15625 L119.75,535.15625 L119.75,535.976562 Z M125.296875,540.335938 L126.265625,540.335938 C126.802086,540.335938 127.270831,540.240886 127.671875,540.050781 C128.072919,539.860676 128.378905,539.600262 128.589844,539.269531 C128.800782,538.9388 128.90625,538.557294 128.90625,538.125 C128.90625,537.39583 128.700523,536.825523 128.289062,536.414062 C127.877602,536.002602 127.286462,535.796875 126.515625,535.796875 C125.786455,535.796875 125.188804,536.011717 124.722656,536.441406 C124.256508,536.871096 124.023438,537.437496 124.023438,538.140625 L123.085938,538.140625 C123.085938,537.55208 123.234374,537.014325 123.53125,536.527344 C123.828126,536.040362 124.239581,535.664064 124.765625,535.398438 C125.291669,535.132811 125.874997,535 126.515625,535 C127.54688,535 128.359372,535.281247 128.953125,535.84375 C129.546878,536.406253 129.84375,537.177078 129.84375,538.15625 C129.84375,538.703128 129.670575,539.207029 129.324219,539.667969 C128.977863,540.128909 128.502607,540.473957 127.898438,540.703125 C128.606774,540.901043 129.143227,541.240883 129.507812,541.722656 C129.872398,542.204429 130.054688,542.778643 130.054688,543.445312 C130.054688,544.419276 129.736982,545.203122 129.101562,545.796875 C128.466143,546.390628 127.617193,546.6875 126.554688,546.6875 C125.877601,546.6875 125.256513,546.552085 124.691406,546.28125 C124.126299,546.010415 123.688804,545.631513 123.378906,545.144531 C123.069009,544.65755 122.914062,544.091149 122.914062,543.445312 L123.851562,543.445312 C123.851562,544.169274 124.104164,544.759112 124.609375,545.214844 C125.114586,545.670575 125.763017,545.898438 126.554688,545.898438 C127.361983,545.898438 127.990883,545.691408 128.441406,545.277344 C128.891929,544.863279 129.117188,544.263025 129.117188,543.476562 C129.117188,542.716142 128.8737,542.135419 128.386719,541.734375 C127.899737,541.333331 127.182296,541.132812 126.234375,541.132812 L125.296875,541.132812 L125.296875,540.335938 Z" id="path-10"></path>
        <path d="M150.75,536.820312 L146.851562,536.820312 L146.851562,547.375 L145.890625,547.375 L145.890625,536.820312 L142,536.820312 L142,536 L150.75,536 L150.75,536.820312 Z M159.960938,543.710938 L161.734375,543.710938 L161.734375,544.5 L159.960938,544.5 L159.960938,547.375 L159.023438,547.375 L159.023438,544.5 L153.671875,544.5 L153.671875,543.96875 L158.9375,536 L159.960938,536 L159.960938,543.710938 Z M154.820312,543.710938 L159.023438,543.710938 L159.023438,537.210938 L158.609375,537.929688 L154.820312,543.710938 Z" id="path-11"></path>
        <path d="M182.75,535.820312 L178.851562,535.820312 L178.851562,546.375 L177.890625,546.375 L177.890625,535.820312 L174,535.820312 L174,535 L182.75,535 L182.75,535.820312 Z M186.851562,540.546875 L187.40625,535 L193.09375,535 L193.09375,535.867188 L188.210938,535.867188 L187.8125,539.710938 C188.421878,539.294269 189.135413,539.085938 189.953125,539.085938 C190.979172,539.085938 191.796872,539.419268 192.40625,540.085938 C193.015628,540.752607 193.320312,541.640619 193.320312,542.75 C193.320312,543.947923 193.02344,544.877601 192.429688,545.539062 C191.835935,546.200524 191.000005,546.53125 189.921875,546.53125 C188.932287,546.53125 188.130211,546.255211 187.515625,545.703125 C186.901039,545.151039 186.54948,544.377609 186.460938,543.382812 L187.359375,543.382812 C187.447917,544.158858 187.710935,544.746092 188.148438,545.144531 C188.58594,545.542971 189.17708,545.742188 189.921875,545.742188 C190.734379,545.742188 191.347654,545.484378 191.761719,544.96875 C192.175783,544.453122 192.382812,543.718755 192.382812,542.765625 C192.382812,541.932287 192.151044,541.252607 191.6875,540.726562 C191.223956,540.200518 190.59115,539.9375 189.789062,539.9375 C189.346352,539.9375 188.960938,539.993489 188.632812,540.105469 C188.304686,540.217448 187.958335,540.434894 187.59375,540.757812 L186.851562,540.546875 Z" id="path-12"></path>
        <path d="M214.75,535.90625 L210.851562,535.90625 L210.851562,546.460938 L209.890625,546.460938 L209.890625,535.90625 L206,535.90625 L206,535.085938 L214.75,535.085938 L214.75,535.90625 Z M223.734375,535 L223.734375,535.820312 L223.625,535.820312 C222.265618,535.820312 221.195316,536.220048 220.414062,537.019531 C219.632809,537.819014 219.200521,538.92968 219.117188,540.351562 C219.429689,539.919269 219.828123,539.584637 220.3125,539.347656 C220.796877,539.110676 221.338539,538.992188 221.9375,538.992188 C222.937505,538.992188 223.73307,539.337236 224.324219,540.027344 C224.915368,540.717451 225.210938,541.619786 225.210938,542.734375 C225.210938,543.473962 225.072918,544.140622 224.796875,544.734375 C224.520832,545.328128 224.125003,545.790363 223.609375,546.121094 C223.093747,546.451825 222.505212,546.617188 221.84375,546.617188 C220.755203,546.617188 219.869795,546.22266 219.1875,545.433594 C218.505205,544.644527 218.164062,543.625006 218.164062,542.375 L218.164062,541.4375 C218.164062,539.401031 218.6276,537.824224 219.554688,536.707031 C220.481775,535.589838 221.796866,535.020833 223.5,535 L223.734375,535 Z M221.789062,539.796875 C221.19531,539.796875 220.64193,539.972654 220.128906,540.324219 C219.615883,540.675783 219.273438,541.122393 219.101562,541.664062 L219.101562,542.460938 C219.101562,543.450526 219.355466,544.257809 219.863281,544.882812 C220.371096,545.507816 221.031246,545.820312 221.84375,545.820312 C222.57292,545.820312 223.162758,545.531253 223.613281,544.953125 C224.063804,544.374997 224.289062,543.645838 224.289062,542.765625 C224.289062,541.869787 224.063804,541.151044 223.613281,540.609375 C223.162758,540.067706 222.554691,539.796875 221.789062,539.796875 Z" id="path-13"></path>
        <path d="M309.75,535.976562 L305.851562,535.976562 L305.851562,546.53125 L304.890625,546.53125 L304.890625,535.976562 L301,535.976562 L301,535.15625 L309.75,535.15625 L309.75,535.976562 Z M319.054688,541.265625 C318.721352,541.755211 318.307294,542.134113 317.8125,542.402344 C317.317706,542.670574 316.781253,542.804688 316.203125,542.804688 C315.557288,542.804688 314.986982,542.638022 314.492188,542.304688 C313.997393,541.971353 313.614585,541.51042 313.34375,540.921875 C313.072915,540.33333 312.9375,539.690108 312.9375,538.992188 C312.9375,538.242184 313.08203,537.559899 313.371094,536.945312 C313.660158,536.330726 314.063799,535.852866 314.582031,535.511719 C315.100263,535.170571 315.697913,535 316.375,535 C317.515631,535 318.403643,535.399736 319.039062,536.199219 C319.674482,536.998702 319.992188,538.132805 319.992188,539.601562 L319.992188,540.445312 C319.992188,542.497406 319.554692,544.039057 318.679688,545.070312 C317.804683,546.101568 316.468759,546.617188 314.671875,546.617188 L314.5,546.617188 L314.507812,545.804688 L314.835938,545.804688 C316.195319,545.783854 317.229163,545.398441 317.9375,544.648438 C318.645837,543.898434 319.018229,542.770841 319.054688,541.265625 Z M316.320312,542 C316.945316,542 317.506508,541.813804 318.003906,541.441406 C318.501305,541.069009 318.854166,540.58594 319.0625,539.992188 L319.0625,539.453125 C319.0625,538.296869 318.821617,537.399743 318.339844,536.761719 C317.858071,536.123695 317.208337,535.804688 316.390625,535.804688 C315.651038,535.804688 315.044273,536.102862 314.570312,536.699219 C314.096352,537.295576 313.859375,538.04687 313.859375,538.953125 C313.859375,539.822921 314.087237,540.548174 314.542969,541.128906 C314.9987,541.709638 315.591142,542 316.320312,542 Z" id="path-14"></path>
        <path d="M340.75,535.976562 L336.851562,535.976562 L336.851562,546.53125 L335.890625,546.53125 L335.890625,535.976562 L332,535.976562 L332,535.15625 L340.75,535.15625 L340.75,535.976562 Z M348.570312,546.53125 L347.632812,546.53125 L347.632812,536.28125 L344.539062,537.429688 L344.539062,536.554688 L348.414062,535.117188 L348.570312,535.117188 L348.570312,546.53125 Z M361.945312,541.789062 C361.945312,543.393237 361.651045,544.610673 361.0625,545.441406 C360.473955,546.27214 359.606777,546.6875 358.460938,546.6875 C357.335932,546.6875 356.473961,546.279952 355.875,545.464844 C355.276039,544.649736 354.96875,543.463549 354.953125,541.90625 L354.953125,539.867188 C354.953125,538.268221 355.249997,537.057296 355.84375,536.234375 C356.437503,535.411454 357.304682,535 358.445312,535 C359.570318,535 360.429685,535.397131 361.023438,536.191406 C361.61719,536.985681 361.924479,538.156242 361.945312,539.703125 L361.945312,541.789062 Z M361.007812,539.75 C361.007812,538.44791 360.795575,537.463545 360.371094,536.796875 C359.946612,536.130205 359.304692,535.796875 358.445312,535.796875 C357.601558,535.796875 356.966148,536.122393 356.539062,536.773438 C356.111977,537.424482 355.893229,538.38541 355.882812,539.65625 L355.882812,541.890625 C355.882812,543.187506 356.102862,544.179684 356.542969,544.867188 C356.983075,545.554691 357.622392,545.898438 358.460938,545.898438 C359.294275,545.898438 359.925779,545.562503 360.355469,544.890625 C360.785158,544.218747 361.002604,543.234381 361.007812,541.9375 L361.007812,539.75 Z" id="path-15"></path>
    </defs>
    <g id="Welcome" stroke="none" stroke-width="1" fill="none" fill-rule="evenodd">
        <g id="iPhone-8-Copy-2" transform="translate(-8.000000, -3117.000000)">
            <g id="Group-27" transform="translate(8.000000, 3117.000000)">
                <g id="salidas2-copy">
                    <g id="rejilla">
                        <path d="M54.1300138,520.891258 L351.130014,520.891258" id="Path" stroke="#000000" opacity="0.300000012"></path>
                        <path d="M54.1300138,389.891258 L351.130014,389.891258" id="Path" stroke="#000000" opacity="0.300000012" stroke-dasharray="6,9"></path>
                        <path d="M54.1300138,259.891258 L351.130014,259.891258" id="Path" stroke="#000000" opacity="0.300000012" stroke-dasharray="6,9"></path>
                        <path d="M54.1300138,130.391258 L351.130014,130.391258" id="Path" stroke="#000000" opacity="0.300000012" stroke-dasharray="6,9"></path>
                        <path d="M54.1300138,0.891257996 L351.130014,0.891257996" id="Path" stroke="#000000" opacity="0.300000012" stroke-dasharray="6,9"></path>
                        <g id="0" fill-rule="nonzero" fill="#000000">
                            <use xlink:href="#path-1"></use>
                            <use xlink:href="#path-1"></use>
                        </g>
                        <g id="500" fill-rule="nonzero" fill="#000000">
                            <use xlink:href="#path-2"></use>
                            <use xlink:href="#path-2"></use>
                        </g>
                        <g id="1.000" fill-rule="nonzero" fill="#000000">
                            <use xlink:href="#path-3"></use>
                            <use xlink:href="#path-3"></use>
                        </g>
                        <g id="1.500" fill-rule="nonzero" fill="#000000">
                            <use xlink:href="#path-4"></use>
                            <use xlink:href="#path-4"></use>
                        </g>
                        <g id="2.000" fill-rule="nonzero" fill="#000000">
                            <use xlink:href="#path-5"></use>
                            <use xlink:href="#path-5"></use>
                        </g>
                    </g>
                </g>
                <g id="T1" fill-rule="nonzero" fill="#000000">
                    <use xlink:href="#path-6"></use>
                    <use xlink:href="#path-6"></use>
                </g>
                <g id="T7" fill-rule="nonzero" fill="#000000">
                    <use xlink:href="#path-7"></use>
                    <use xlink:href="#path-7"></use>
                </g>
                <g id="T8" fill-rule="nonzero" fill="#000000">
                    <use xlink:href="#path-8"></use>
                    <use xlink:href="#path-8"></use>
                </g>
                <g id="T2" fill-rule="nonzero" fill="#000000">
                    <use xlink:href="#path-9"></use>
                    <use xlink:href="#path-9"></use>
                </g>
                <g id="T3" fill-rule="nonzero" fill="#000000">
                    <use xlink:href="#path-10"></use>
                    <use xlink:href="#path-10"></use>
                </g>
                <g id="T4" fill-rule="nonzero" fill="#000000">
                    <use xlink:href="#path-11"></use>
                    <use xlink:href="#path-11"></use>
                </g>
                <g id="T5" fill-rule="nonzero" fill="#000000">
                    <use xlink:href="#path-12"></use>
                    <use xlink:href="#path-12"></use>
                </g>
                <g id="T6" fill-rule="nonzero" fill="#000000">
                    <use xlink:href="#path-13"></use>
                    <use xlink:href="#path-13"></use>
                </g>
                <g id="T9" fill-rule="nonzero" fill="#000000">
                    <use xlink:href="#path-14"></use>
                    <use xlink:href="#path-14"></use>
                </g>
                <g id="T10" fill-rule="nonzero" fill="#000000">
                    <use xlink:href="#path-15"></use>
                    <use xlink:href="#path-15"></use>
                </g>
            </g>
        </g>
    </g>
</svg>