<?xml version="1.0" encoding="UTF-8"?>
<svg width="689px" height="384px" viewBox="0 0 689 384" version="1.1" xmlns="http://www.w3.org/2000/svg" xmlns:xlink="http://www.w3.org/1999/xlink">
    <!-- Generator: Sketch 56.2 (81672) - https://sketch.com -->
    <title>salidas2 copy 2</title>
    <desc>Created with Sketch.</desc>
    <g id="Welcome" stroke="none" stroke-width="1" fill="none" fill-rule="evenodd">
        <g id="Friends" transform="translate(-403.000000, -3556.000000)" fill-rule="nonzero">
            <g id="Group-3-Copy-2" transform="translate(347.000000, 3522.000000)">
                <g id="Group-3-Copy">
                    <g id="salidas2-copy-2" transform="translate(56.000000, 34.000000)">
                        <rect id="Rectangle" fill="#2D3358" opacity="0.300000012" x="0.225761773" y="272" width="7.47506925" height="112"></rect>
                        <rect id="Rectangle" fill="#2D3358" opacity="0.699999988" x="9.8365651" y="123" width="7.47506925" height="261"></rect>
                        <rect id="Rectangle" fill="#B9404C" x="29.0581717" y="367" width="7.47506925" height="17"></rect>
                        <rect id="Rectangle" fill="#B9404C" opacity="0.600000024" x="38.6689751" y="187" width="7.47506925" height="197"></rect>
                        <rect id="Rectangle-Copy-2" fill="#2D3358" opacity="0.300000012" x="71.7728532" y="220" width="7.47506925" height="164"></rect>
                        <rect id="Rectangle-Copy-8" fill="#2D3358" opacity="0.699999988" x="81.3836565" y="148" width="7.47506925" height="236"></rect>
                        <rect id="Rectangle-Copy-10" fill="#B9404C" x="100.605263" y="361" width="7.47506925" height="23"></rect>
                        <rect id="Rectangle-Copy-12" fill="#2D3358" x="90.9944598" y="376" width="7.47506925" height="8"></rect>
                        <rect id="Rectangle-Copy-11" fill="#B9404C" opacity="0.600000024" x="110.216066" y="217" width="7.47506925" height="167"></rect>
                        <rect id="Rectangle-Copy-21" fill="#2D3358" opacity="0.300000012" x="143.319945" y="245" width="7.47506925" height="139"></rect>
                        <rect id="Rectangle-Copy-22" fill="#2D3358" opacity="0.699999988" x="152.930748" y="73" width="7.47506925" height="311"></rect>
                        <rect id="Rectangle-Copy-23" fill="#B9404C" x="172.152355" y="364" width="7.47506925" height="20"></rect>
                        <rect id="Rectangle-Copy-24" fill="#2D3358" x="162.541551" y="364" width="7.47506925" height="20"></rect>
                        <rect id="Rectangle-Copy-25" fill="#B9404C" opacity="0.600000024" x="181.763158" y="187" width="7.47506925" height="197"></rect>
                        <rect id="Rectangle-Copy-33" fill="#2D3358" opacity="0.300000012" x="356.893352" y="248" width="7.47506925" height="136"></rect>
                        <rect id="Rectangle-Copy-35" fill="#2D3358" opacity="0.699999988" x="366.504155" y="26" width="7.47506925" height="358"></rect>
                        <rect id="Rectangle-Copy-36" fill="#B9404C" x="385.725762" y="334" width="7.47506925" height="50"></rect>
                        <rect id="Rectangle-Copy-37" fill="#2D3358" x="376.114958" y="357" width="7.47506925" height="27"></rect>
                        <rect id="Rectangle-Copy-38" fill="#B9404C" opacity="0.600000024" x="395.336565" y="177" width="7.47506925" height="207"></rect>
                        <rect id="Rectangle-Copy-39" fill="#2D3358" opacity="0.300000012" x="428.440443" y="189" width="7.47506925" height="195"></rect>
                        <rect id="Rectangle-Copy-40" fill="#2D3358" opacity="0.699999988" x="438.051247" y="69" width="7.47506925" height="315"></rect>
                        <rect id="Rectangle-Copy-41" fill="#B9404C" x="457.272853" y="331" width="7.47506925" height="53"></rect>
                        <rect id="Rectangle-Copy-42" fill="#2D3358" x="447.66205" y="361" width="7.47506925" height="23"></rect>
                        <rect id="Rectangle-Copy-43" fill="#B9404C" opacity="0.600000024" x="466.883657" y="193" width="7.47506925" height="191"></rect>
                        <rect id="Rectangle-Copy-44" fill="#2D3358" opacity="0.300000012" x="499.987535" y="256" width="7.47506925" height="128"></rect>
                        <rect id="Rectangle-Copy-45" fill="#2D3358" opacity="0.699999988" x="509.598338" y="124" width="7.47506925" height="260"></rect>
                        <rect id="Rectangle-Copy-46" fill="#B9404C" x="528.819945" y="314" width="7.47506925" height="70"></rect>
                        <rect id="Rectangle-Copy-47" fill="#2D3358" x="519.209141" y="374" width="7.47506925" height="10"></rect>
                        <rect id="Rectangle-Copy-48" fill="#B9404C" opacity="0.600000024" x="538.430748" y="246" width="7.47506925" height="138"></rect>
                        <rect id="Rectangle-Copy-49" fill="#2D3358" opacity="0.300000012" x="571.534626" y="301" width="7.47506925" height="82"></rect>
                        <rect id="Rectangle-Copy-50" fill="#2D3358" opacity="0.699999988" x="581.145429" y="164" width="7.47506925" height="220"></rect>
                        <rect id="Rectangle-Copy-51" fill="#B9404C" x="600.367036" y="262" width="7.47506925" height="122"></rect>
                        <rect id="Rectangle-Copy-52" fill="#2D3358" x="590.756233" y="331" width="7.47506925" height="53"></rect>
                        <rect id="Rectangle-Copy-53" fill="#B9404C" opacity="0.600000024" x="609.977839" y="242" width="7.47506925" height="142"></rect>
                        <rect id="Rectangle-Copy-54" fill="#2D3358" opacity="0.300000012" x="643.081717" y="246" width="7.47506925" height="138"></rect>
                        <rect id="Rectangle-Copy-55" fill="#2D3358" opacity="0.699999988" x="652.692521" y="207" width="7.47506925" height="177"></rect>
                        <rect id="Rectangle-Copy-56" fill="#B9404C" x="671.914127" y="334" width="7.47506925" height="50"></rect>
                        <rect id="Rectangle-Copy-58" fill="#B9404C" opacity="0.600000024" x="681.524931" y="276" width="7.47506925" height="108"></rect>
                        <rect id="Rectangle-Copy-29" fill="#2D3358" opacity="0.300000012" x="286.414127" y="220" width="7.47506925" height="164"></rect>
                        <rect id="Rectangle-Copy-31" fill="#2D3358" opacity="0.699999988" x="296.024931" y="81" width="7.47506925" height="303"></rect>
                        <rect id="Rectangle-Copy-32" fill="#B9404C" x="315.246537" y="344" width="7.47506925" height="40"></rect>
                        <rect id="Rectangle-Copy-34" fill="#B9404C" opacity="0.600000024" x="324.857341" y="213" width="7.47506925" height="171"></rect>
                        <rect id="Rectangle-Copy-26" fill="#2D3358" opacity="0.300000012" x="214.867036" y="183" width="7.47506925" height="201"></rect>
                        <rect id="Rectangle-Copy-27" fill="#2D3358" opacity="0.699999988" x="224.477839" y="0" width="7.47506925" height="384"></rect>
                        <rect id="Rectangle-Copy-28" fill="#B9404C" x="243.699446" y="367" width="7.47506925" height="17"></rect>
                        <rect id="Rectangle-Copy-30" fill="#B9404C" opacity="0.600000024" x="253.310249" y="228" width="7.47506925" height="156"></rect>
                    </g>
                </g>
            </g>
        </g>
    </g>
</svg>