<?xml version="1.0" encoding="UTF-8"?>
<svg width="357px" height="631px" viewBox="0 0 357 631" version="1.1" xmlns="http://www.w3.org/2000/svg" xmlns:xlink="http://www.w3.org/1999/xlink">
    <!-- Generator: Sketch 56.2 (81672) - https://sketch.com -->
    <title>Group 8</title>
    <desc>Created with Sketch.</desc>
    <defs>
        <path d="M39.28125,601.960938 L33.9609375,601.960938 L33.9609375,606.601562 L40.078125,606.601562 L40.078125,607.414062 L33,607.414062 L33,596.039062 L40.0390625,596.039062 L40.0390625,596.859375 L33.9609375,596.859375 L33.9609375,601.148438 L39.28125,601.148438 L39.28125,601.960938 Z M46.5859375,607.414062 L45.6484375,607.414062 L45.6484375,597.164062 L42.5546875,598.3125 L42.5546875,597.4375 L46.4296875,596 L46.5859375,596 L46.5859375,607.414062 Z" id="path-1"></path>
        <path d="M150.226562,608.078125 L144.90625,608.078125 L144.90625,612.71875 L151.023438,612.71875 L151.023438,613.53125 L143.945312,613.53125 L143.945312,602.15625 L150.984375,602.15625 L150.984375,602.976562 L144.90625,602.976562 L144.90625,607.265625 L150.226562,607.265625 L150.226562,608.078125 Z M159.015625,608.265625 C158.68229,608.755211 158.268232,609.134113 157.773438,609.402344 C157.278643,609.670574 156.74219,609.804688 156.164062,609.804688 C155.518226,609.804688 154.947919,609.638022 154.453125,609.304688 C153.958331,608.971353 153.575522,608.51042 153.304688,607.921875 C153.033853,607.33333 152.898438,606.690108 152.898438,605.992188 C152.898438,605.242184 153.042967,604.559899 153.332031,603.945312 C153.621095,603.330726 154.024737,602.852866 154.542969,602.511719 C155.061201,602.170571 155.658851,602 156.335938,602 C157.476568,602 158.36458,602.399736 159,603.199219 C159.63542,603.998702 159.953125,605.132805 159.953125,606.601562 L159.953125,607.445312 C159.953125,609.497406 159.515629,611.039057 158.640625,612.070312 C157.765621,613.101568 156.429696,613.617188 154.632812,613.617188 L154.460938,613.617188 L154.46875,612.804688 L154.796875,612.804688 C156.156257,612.783854 157.190101,612.398441 157.898438,611.648438 C158.606774,610.898434 158.979166,609.770841 159.015625,608.265625 Z M156.28125,609 C156.906253,609 157.467445,608.813804 157.964844,608.441406 C158.462242,608.069009 158.815103,607.58594 159.023438,606.992188 L159.023438,606.453125 C159.023438,605.296869 158.782554,604.399743 158.300781,603.761719 C157.819008,603.123695 157.169275,602.804688 156.351562,602.804688 C155.611975,602.804688 155.005211,603.102862 154.53125,603.699219 C154.057289,604.295576 153.820312,605.04687 153.820312,605.953125 C153.820312,606.822921 154.048175,607.548174 154.503906,608.128906 C154.959638,608.709638 155.55208,609 156.28125,609 Z M169.671875,613.53125 L162.546875,613.53125 L162.546875,612.8125 L166.445312,608.390625 C167.091149,607.64583 167.539061,607.031252 167.789062,606.546875 C168.039064,606.062498 168.164062,605.591148 168.164062,605.132812 C168.164062,604.414059 167.953127,603.845054 167.53125,603.425781 C167.109373,603.006508 166.52865,602.796875 165.789062,602.796875 C165.023434,602.796875 164.40495,603.041664 163.933594,603.53125 C163.462237,604.020836 163.226562,604.656246 163.226562,605.4375 L162.296875,605.4375 C162.296875,604.796872 162.441405,604.213544 162.730469,603.6875 C163.019533,603.161456 163.430987,602.748699 163.964844,602.449219 C164.498701,602.149738 165.106767,602 165.789062,602 C166.830734,602 167.644528,602.273435 168.230469,602.820312 C168.816409,603.36719 169.109375,604.111974 169.109375,605.054688 C169.109375,605.58594 168.944012,606.166664 168.613281,606.796875 C168.28255,607.427086 167.700525,608.213537 166.867188,609.15625 L163.695312,612.742188 L169.671875,612.742188 L169.671875,613.53125 Z" id="path-2"></path>
        <path d="M215.609375,613.007812 L210.289062,613.007812 L210.289062,617.648438 L216.40625,617.648438 L216.40625,618.460938 L209.328125,618.460938 L209.328125,607.085938 L216.367188,607.085938 L216.367188,607.90625 L210.289062,607.90625 L210.289062,612.195312 L215.609375,612.195312 L215.609375,613.007812 Z M222.914062,618.460938 L221.976562,618.460938 L221.976562,608.210938 L218.882812,609.359375 L218.882812,608.484375 L222.757812,607.046875 L222.914062,607.046875 L222.914062,618.460938 Z M233.671875,614.796875 L235.445312,614.796875 L235.445312,615.585938 L233.671875,615.585938 L233.671875,618.460938 L232.734375,618.460938 L232.734375,615.585938 L227.382812,615.585938 L227.382812,615.054688 L232.648438,607.085938 L233.671875,607.085938 L233.671875,614.796875 Z M228.53125,614.796875 L232.734375,614.796875 L232.734375,608.296875 L232.320312,609.015625 L228.53125,614.796875 Z M242.8125,607 L242.8125,607.820312 L242.703125,607.820312 C241.343743,607.820312 240.273441,608.220048 239.492188,609.019531 C238.710934,609.819014 238.278646,610.92968 238.195312,612.351562 C238.507814,611.919269 238.906248,611.584637 239.390625,611.347656 C239.875002,611.110676 240.416664,610.992188 241.015625,610.992188 C242.01563,610.992188 242.811195,611.337236 243.402344,612.027344 C243.993493,612.717451 244.289062,613.619786 244.289062,614.734375 C244.289062,615.473962 244.151043,616.140622 243.875,616.734375 C243.598957,617.328128 243.203128,617.790363 242.6875,618.121094 C242.171872,618.451825 241.583337,618.617188 240.921875,618.617188 C239.833328,618.617188 238.94792,618.22266 238.265625,617.433594 C237.58333,616.644527 237.242188,615.625006 237.242188,614.375 L237.242188,613.4375 C237.242188,611.401031 237.705725,609.824224 238.632812,608.707031 C239.5599,607.589838 240.874991,607.020833 242.578125,607 L242.8125,607 Z M240.867188,611.796875 C240.273435,611.796875 239.720055,611.972654 239.207031,612.324219 C238.694008,612.675783 238.351563,613.122393 238.179688,613.664062 L238.179688,614.460938 C238.179688,615.450526 238.433591,616.257809 238.941406,616.882812 C239.449221,617.507816 240.109371,617.820312 240.921875,617.820312 C241.651045,617.820312 242.240883,617.531253 242.691406,616.953125 C243.141929,616.374997 243.367188,615.645838 243.367188,614.765625 C243.367188,613.869787 243.141929,613.151044 242.691406,612.609375 C242.240883,612.067706 241.632816,611.796875 240.867188,611.796875 Z" id="path-3"></path>
        <path d="M168.710938,613.078125 L163.390625,613.078125 L163.390625,617.71875 L169.507812,617.71875 L169.507812,618.53125 L162.429688,618.53125 L162.429688,607.15625 L169.46875,607.15625 L169.46875,607.976562 L163.390625,607.976562 L163.390625,612.265625 L168.710938,612.265625 L168.710938,613.078125 Z M176.015625,618.53125 L175.078125,618.53125 L175.078125,608.28125 L171.984375,609.429688 L171.984375,608.554688 L175.859375,607.117188 L176.015625,607.117188 L176.015625,618.53125 Z M185.382812,618.53125 L184.445312,618.53125 L184.445312,608.28125 L181.351562,609.429688 L181.351562,608.554688 L185.226562,607.117188 L185.382812,607.117188 L185.382812,618.53125 Z M197.257812,613.789062 C197.257812,615.393237 196.963545,616.610673 196.375,617.441406 C195.786455,618.27214 194.919277,618.6875 193.773438,618.6875 C192.648432,618.6875 191.786461,618.279952 191.1875,617.464844 C190.588539,616.649736 190.28125,615.463549 190.265625,613.90625 L190.265625,611.867188 C190.265625,610.268221 190.562497,609.057296 191.15625,608.234375 C191.750003,607.411454 192.617182,607 193.757812,607 C194.882818,607 195.742185,607.397131 196.335938,608.191406 C196.92969,608.985681 197.236979,610.156242 197.257812,611.703125 L197.257812,613.789062 Z M196.320312,611.75 C196.320312,610.44791 196.108075,609.463545 195.683594,608.796875 C195.259112,608.130205 194.617192,607.796875 193.757812,607.796875 C192.914058,607.796875 192.278648,608.122393 191.851562,608.773438 C191.424477,609.424482 191.205729,610.38541 191.195312,611.65625 L191.195312,613.890625 C191.195312,615.187506 191.415362,616.179684 191.855469,616.867188 C192.295575,617.554691 192.934892,617.898438 193.773438,617.898438 C194.606775,617.898438 195.238279,617.562503 195.667969,616.890625 C196.097658,616.218747 196.315104,615.234381 196.320312,613.9375 L196.320312,611.75 Z" id="path-4"></path>
        <path d="M103.292969,608.007812 L97.9726562,608.007812 L97.9726562,612.648438 L104.089844,612.648438 L104.089844,613.460938 L97.0117188,613.460938 L97.0117188,602.085938 L104.050781,602.085938 L104.050781,602.90625 L97.9726562,602.90625 L97.9726562,607.195312 L103.292969,607.195312 L103.292969,608.007812 Z M106.878906,607.632812 L107.433594,602.085938 L113.121094,602.085938 L113.121094,602.953125 L108.238281,602.953125 L107.839844,606.796875 C108.449222,606.380206 109.162756,606.171875 109.980469,606.171875 C111.006516,606.171875 111.824216,606.505205 112.433594,607.171875 C113.042972,607.838545 113.347656,608.726557 113.347656,609.835938 C113.347656,611.03386 113.050784,611.963538 112.457031,612.625 C111.863278,613.286462 111.027349,613.617188 109.949219,613.617188 C108.95963,613.617188 108.157555,613.341149 107.542969,612.789062 C106.928382,612.236976 106.576823,611.463547 106.488281,610.46875 L107.386719,610.46875 C107.475261,611.244796 107.738279,611.832029 108.175781,612.230469 C108.613283,612.628908 109.204423,612.828125 109.949219,612.828125 C110.761723,612.828125 111.374998,612.570315 111.789062,612.054688 C112.203127,611.53906 112.410156,610.804692 112.410156,609.851562 C112.410156,609.018225 112.178388,608.338544 111.714844,607.8125 C111.2513,607.286456 110.618494,607.023438 109.816406,607.023438 C109.373696,607.023438 108.988281,607.079427 108.660156,607.191406 C108.33203,607.303386 107.985679,607.520832 107.621094,607.84375 L106.878906,607.632812 Z M121.128906,602 L121.128906,602.820312 L121.019531,602.820312 C119.660149,602.820312 118.589848,603.220048 117.808594,604.019531 C117.02734,604.819014 116.595052,605.92968 116.511719,607.351562 C116.82422,606.919269 117.222654,606.584637 117.707031,606.347656 C118.191409,606.110676 118.73307,605.992188 119.332031,605.992188 C120.332036,605.992188 121.127601,606.337236 121.71875,607.027344 C122.309899,607.717451 122.605469,608.619786 122.605469,609.734375 C122.605469,610.473962 122.467449,611.140622 122.191406,611.734375 C121.915363,612.328128 121.519534,612.790363 121.003906,613.121094 C120.488279,613.451825 119.899743,613.617188 119.238281,613.617188 C118.149734,613.617188 117.264326,613.22266 116.582031,612.433594 C115.899736,611.644527 115.558594,610.625006 115.558594,609.375 L115.558594,608.4375 C115.558594,606.401031 116.022131,604.824224 116.949219,603.707031 C117.876307,602.589838 119.191398,602.020833 120.894531,602 L121.128906,602 Z M119.183594,606.796875 C118.589841,606.796875 118.036461,606.972654 117.523438,607.324219 C117.010414,607.675783 116.66797,608.122393 116.496094,608.664062 L116.496094,609.460938 C116.496094,610.450526 116.749997,611.257809 117.257812,611.882812 C117.765628,612.507816 118.425777,612.820312 119.238281,612.820312 C119.967452,612.820312 120.557289,612.531253 121.007812,611.953125 C121.458336,611.374997 121.683594,610.645838 121.683594,609.765625 C121.683594,608.869787 121.458336,608.151044 121.007812,607.609375 C120.557289,607.067706 119.949223,606.796875 119.183594,606.796875 Z" id="path-5"></path>
        <path d="M262.578125,613.078125 L257.257812,613.078125 L257.257812,617.71875 L263.375,617.71875 L263.375,618.53125 L256.296875,618.53125 L256.296875,607.15625 L263.335938,607.15625 L263.335938,607.976562 L257.257812,607.976562 L257.257812,612.265625 L262.578125,612.265625 L262.578125,613.078125 Z M269.882812,618.53125 L268.945312,618.53125 L268.945312,608.28125 L265.851562,609.429688 L265.851562,608.554688 L269.726562,607.117188 L269.882812,607.117188 L269.882812,618.53125 Z M281.601562,610.085938 C281.601562,610.674482 281.429689,611.201821 281.085938,611.667969 C280.742186,612.134117 280.289065,612.476561 279.726562,612.695312 C280.382816,612.919272 280.908852,613.281247 281.304688,613.78125 C281.700523,614.281253 281.898438,614.859372 281.898438,615.515625 C281.898438,616.489588 281.567712,617.261716 280.90625,617.832031 C280.244788,618.402347 279.369797,618.6875 278.28125,618.6875 C277.182286,618.6875 276.303389,618.403649 275.644531,617.835938 C274.985674,617.268226 274.65625,616.494797 274.65625,615.515625 C274.65625,614.869788 274.846352,614.294273 275.226562,613.789062 C275.606773,613.283852 276.127601,612.919272 276.789062,612.695312 C276.22656,612.476561 275.778648,612.134117 275.445312,611.667969 C275.111977,611.201821 274.945312,610.674482 274.945312,610.085938 C274.945312,609.143224 275.248695,608.393232 275.855469,607.835938 C276.462243,607.278643 277.26562,607 278.265625,607 C279.26563,607 280.071612,607.281247 280.683594,607.84375 C281.295576,608.406253 281.601562,609.153641 281.601562,610.085938 Z M280.960938,615.523438 C280.960938,614.815101 280.708336,614.233075 280.203125,613.777344 C279.697914,613.321612 279.052087,613.09375 278.265625,613.09375 C277.479163,613.09375 276.83594,613.317706 276.335938,613.765625 C275.835935,614.213544 275.585938,614.799476 275.585938,615.523438 C275.585938,616.247399 275.828123,616.824217 276.3125,617.253906 C276.796877,617.683596 277.453121,617.898438 278.28125,617.898438 C279.088546,617.898438 279.736977,617.684898 280.226562,617.257812 C280.716148,616.830727 280.960938,616.252608 280.960938,615.523438 Z M280.664062,610.078125 C280.664062,609.42708 280.438804,608.884117 279.988281,608.449219 C279.537758,608.014321 278.963545,607.796875 278.265625,607.796875 C277.557288,607.796875 276.983075,608.006508 276.542969,608.425781 C276.102862,608.845054 275.882812,609.39583 275.882812,610.078125 C275.882812,610.744795 276.102862,611.281248 276.542969,611.6875 C276.983075,612.093752 277.559892,612.296875 278.273438,612.296875 C278.976566,612.296875 279.550779,612.09245 279.996094,611.683594 C280.441408,611.274738 280.664062,610.739587 280.664062,610.078125 Z M291.390625,618.53125 L284.265625,618.53125 L284.265625,617.8125 L288.164062,613.390625 C288.809899,612.64583 289.257811,612.031252 289.507812,611.546875 C289.757814,611.062498 289.882812,610.591148 289.882812,610.132812 C289.882812,609.414059 289.671877,608.845054 289.25,608.425781 C288.828123,608.006508 288.2474,607.796875 287.507812,607.796875 C286.742184,607.796875 286.1237,608.041664 285.652344,608.53125 C285.180987,609.020836 284.945312,609.656246 284.945312,610.4375 L284.015625,610.4375 C284.015625,609.796872 284.160155,609.213544 284.449219,608.6875 C284.738283,608.161456 285.149737,607.748699 285.683594,607.449219 C286.217451,607.149738 286.825517,607 287.507812,607 C288.549484,607 289.363278,607.273435 289.949219,607.820312 C290.535159,608.36719 290.828125,609.111974 290.828125,610.054688 C290.828125,610.58594 290.662762,611.166664 290.332031,611.796875 C290.0013,612.427086 289.419275,613.213537 288.585938,614.15625 L285.414062,617.742188 L291.390625,617.742188 L291.390625,618.53125 Z" id="path-6"></path>
        <path d="M239.347656,613.007812 L234.027344,613.007812 L234.027344,617.648438 L240.144531,617.648438 L240.144531,618.460938 L233.066406,618.460938 L233.066406,607.085938 L240.105469,607.085938 L240.105469,607.90625 L234.027344,607.90625 L234.027344,612.195312 L239.347656,612.195312 L239.347656,613.007812 Z M246.652344,618.460938 L245.714844,618.460938 L245.714844,608.210938 L242.621094,609.359375 L242.621094,608.484375 L246.496094,607.046875 L246.652344,607.046875 L246.652344,618.460938 Z M257.183594,607 L257.183594,607.820312 L257.074219,607.820312 C255.714837,607.820312 254.644535,608.220048 253.863281,609.019531 C253.082027,609.819014 252.64974,610.92968 252.566406,612.351562 C252.878908,611.919269 253.277341,611.584637 253.761719,611.347656 C254.246096,611.110676 254.787757,610.992188 255.386719,610.992188 C256.386724,610.992188 257.182289,611.337236 257.773438,612.027344 C258.364586,612.717451 258.660156,613.619786 258.660156,614.734375 C258.660156,615.473962 258.522137,616.140622 258.246094,616.734375 C257.970051,617.328128 257.574221,617.790363 257.058594,618.121094 C256.542966,618.451825 255.95443,618.617188 255.292969,618.617188 C254.204422,618.617188 253.319014,618.22266 252.636719,617.433594 C251.954424,616.644527 251.613281,615.625006 251.613281,614.375 L251.613281,613.4375 C251.613281,611.401031 252.076818,609.824224 253.003906,608.707031 C253.930994,607.589838 255.246085,607.020833 256.949219,607 L257.183594,607 Z M255.238281,611.796875 C254.644528,611.796875 254.091148,611.972654 253.578125,612.324219 C253.065102,612.675783 252.722657,613.122393 252.550781,613.664062 L252.550781,614.460938 C252.550781,615.450526 252.804685,616.257809 253.3125,616.882812 C253.820315,617.507816 254.480465,617.820312 255.292969,617.820312 C256.022139,617.820312 256.611977,617.531253 257.0625,616.953125 C257.513023,616.374997 257.738281,615.645838 257.738281,614.765625 C257.738281,613.869787 257.513023,613.151044 257.0625,612.609375 C256.611977,612.067706 256.00391,611.796875 255.238281,611.796875 Z M266.777344,614.796875 L268.550781,614.796875 L268.550781,615.585938 L266.777344,615.585938 L266.777344,618.460938 L265.839844,618.460938 L265.839844,615.585938 L260.488281,615.585938 L260.488281,615.054688 L265.753906,607.085938 L266.777344,607.085938 L266.777344,614.796875 Z M261.636719,614.796875 L265.839844,614.796875 L265.839844,608.296875 L265.425781,609.015625 L261.636719,614.796875 Z" id="path-7"></path>
        <path d="M192.640625,613.078125 L187.320312,613.078125 L187.320312,617.71875 L193.4375,617.71875 L193.4375,618.53125 L186.359375,618.53125 L186.359375,607.15625 L193.398438,607.15625 L193.398438,607.976562 L187.320312,607.976562 L187.320312,612.265625 L192.640625,612.265625 L192.640625,613.078125 Z M199.945312,618.53125 L199.007812,618.53125 L199.007812,608.28125 L195.914062,609.429688 L195.914062,608.554688 L199.789062,607.117188 L199.945312,607.117188 L199.945312,618.53125 Z M212.085938,618.53125 L204.960938,618.53125 L204.960938,617.8125 L208.859375,613.390625 C209.505212,612.64583 209.953124,612.031252 210.203125,611.546875 C210.453126,611.062498 210.578125,610.591148 210.578125,610.132812 C210.578125,609.414059 210.36719,608.845054 209.945312,608.425781 C209.523435,608.006508 208.942712,607.796875 208.203125,607.796875 C207.437496,607.796875 206.819013,608.041664 206.347656,608.53125 C205.8763,609.020836 205.640625,609.656246 205.640625,610.4375 L204.710938,610.4375 C204.710938,609.796872 204.855467,609.213544 205.144531,608.6875 C205.433595,608.161456 205.845049,607.748699 206.378906,607.449219 C206.912763,607.149738 207.52083,607 208.203125,607 C209.244797,607 210.058591,607.273435 210.644531,607.820312 C211.230472,608.36719 211.523438,609.111974 211.523438,610.054688 C211.523438,610.58594 211.358075,611.166664 211.027344,611.796875 C210.696613,612.427086 210.114587,613.213537 209.28125,614.15625 L206.109375,617.742188 L212.085938,617.742188 L212.085938,618.53125 Z M221.03125,610.085938 C221.03125,610.674482 220.859377,611.201821 220.515625,611.667969 C220.171873,612.134117 219.718753,612.476561 219.15625,612.695312 C219.812503,612.919272 220.33854,613.281247 220.734375,613.78125 C221.13021,614.281253 221.328125,614.859372 221.328125,615.515625 C221.328125,616.489588 220.997399,617.261716 220.335938,617.832031 C219.674476,618.402347 218.799485,618.6875 217.710938,618.6875 C216.611974,618.6875 215.733076,618.403649 215.074219,617.835938 C214.415361,617.268226 214.085938,616.494797 214.085938,615.515625 C214.085938,614.869788 214.27604,614.294273 214.65625,613.789062 C215.03646,613.283852 215.557288,612.919272 216.21875,612.695312 C215.656247,612.476561 215.208335,612.134117 214.875,611.667969 C214.541665,611.201821 214.375,610.674482 214.375,610.085938 C214.375,609.143224 214.678382,608.393232 215.285156,607.835938 C215.89193,607.278643 216.695308,607 217.695312,607 C218.695317,607 219.501299,607.281247 220.113281,607.84375 C220.725263,608.406253 221.03125,609.153641 221.03125,610.085938 Z M220.390625,615.523438 C220.390625,614.815101 220.138023,614.233075 219.632812,613.777344 C219.127602,613.321612 218.481775,613.09375 217.695312,613.09375 C216.90885,613.09375 216.265628,613.317706 215.765625,613.765625 C215.265622,614.213544 215.015625,614.799476 215.015625,615.523438 C215.015625,616.247399 215.25781,616.824217 215.742188,617.253906 C216.226565,617.683596 216.882808,617.898438 217.710938,617.898438 C218.518233,617.898438 219.166664,617.684898 219.65625,617.257812 C220.145836,616.830727 220.390625,616.252608 220.390625,615.523438 Z M220.09375,610.078125 C220.09375,609.42708 219.868492,608.884117 219.417969,608.449219 C218.967446,608.014321 218.393233,607.796875 217.695312,607.796875 C216.986976,607.796875 216.412763,608.006508 215.972656,608.425781 C215.53255,608.845054 215.3125,609.39583 215.3125,610.078125 C215.3125,610.744795 215.53255,611.281248 215.972656,611.6875 C216.412763,612.093752 216.98958,612.296875 217.703125,612.296875 C218.406254,612.296875 218.980467,612.09245 219.425781,611.683594 C219.871096,611.274738 220.09375,610.739587 220.09375,610.078125 Z" id="path-8"></path>
        <path d="M126.910156,607.921875 L121.589844,607.921875 L121.589844,612.5625 L127.707031,612.5625 L127.707031,613.375 L120.628906,613.375 L120.628906,602 L127.667969,602 L127.667969,602.820312 L121.589844,602.820312 L121.589844,607.109375 L126.910156,607.109375 L126.910156,607.921875 Z M136.871094,602.539062 L132.011719,613.375 L131.035156,613.375 L135.863281,602.796875 L129.394531,602.796875 L129.394531,602 L136.871094,602 L136.871094,602.539062 Z M144.972656,609.710938 L146.746094,609.710938 L146.746094,610.5 L144.972656,610.5 L144.972656,613.375 L144.035156,613.375 L144.035156,610.5 L138.683594,610.5 L138.683594,609.96875 L143.949219,602 L144.972656,602 L144.972656,609.710938 Z M139.832031,609.710938 L144.035156,609.710938 L144.035156,603.210938 L143.621094,603.929688 L139.832031,609.710938 Z" id="path-9"></path>
        <path d="M333.589844,613.078125 L328.269531,613.078125 L328.269531,617.71875 L334.386719,617.71875 L334.386719,618.53125 L327.308594,618.53125 L327.308594,607.15625 L334.347656,607.15625 L334.347656,607.976562 L328.269531,607.976562 L328.269531,612.265625 L333.589844,612.265625 L333.589844,613.078125 Z M343.667969,618.53125 L336.542969,618.53125 L336.542969,617.8125 L340.441406,613.390625 C341.087243,612.64583 341.535155,612.031252 341.785156,611.546875 C342.035157,611.062498 342.160156,610.591148 342.160156,610.132812 C342.160156,609.414059 341.949221,608.845054 341.527344,608.425781 C341.105467,608.006508 340.524743,607.796875 339.785156,607.796875 C339.019527,607.796875 338.401044,608.041664 337.929688,608.53125 C337.458331,609.020836 337.222656,609.656246 337.222656,610.4375 L336.292969,610.4375 C336.292969,609.796872 336.437499,609.213544 336.726562,608.6875 C337.015626,608.161456 337.427081,607.748699 337.960938,607.449219 C338.494794,607.149738 339.102861,607 339.785156,607 C340.826828,607 341.640622,607.273435 342.226562,607.820312 C342.812503,608.36719 343.105469,609.111974 343.105469,610.054688 C343.105469,610.58594 342.940106,611.166664 342.609375,611.796875 C342.278644,612.427086 341.696619,613.213537 340.863281,614.15625 L337.691406,617.742188 L343.667969,617.742188 L343.667969,618.53125 Z M347.988281,612.335938 L348.957031,612.335938 C349.493492,612.335938 349.962238,612.240886 350.363281,612.050781 C350.764325,611.860676 351.070311,611.600262 351.28125,611.269531 C351.492189,610.9388 351.597656,610.557294 351.597656,610.125 C351.597656,609.39583 351.391929,608.825523 350.980469,608.414062 C350.569008,608.002602 349.977868,607.796875 349.207031,607.796875 C348.477861,607.796875 347.880211,608.011717 347.414062,608.441406 C346.947914,608.871096 346.714844,609.437496 346.714844,610.140625 L345.777344,610.140625 C345.777344,609.55208 345.92578,609.014325 346.222656,608.527344 C346.519533,608.040362 346.930987,607.664064 347.457031,607.398438 C347.983076,607.132811 348.566403,607 349.207031,607 C350.238286,607 351.050778,607.281247 351.644531,607.84375 C352.238284,608.406253 352.535156,609.177078 352.535156,610.15625 C352.535156,610.703128 352.361981,611.207029 352.015625,611.667969 C351.669269,612.128909 351.194013,612.473957 350.589844,612.703125 C351.298181,612.901043 351.834634,613.240883 352.199219,613.722656 C352.563804,614.204429 352.746094,614.778642 352.746094,615.445312 C352.746094,616.419276 352.428389,617.203122 351.792969,617.796875 C351.157549,618.390628 350.308599,618.6875 349.246094,618.6875 C348.569007,618.6875 347.947919,618.552085 347.382812,618.28125 C346.817706,618.010415 346.38021,617.631513 346.070312,617.144531 C345.760415,616.65755 345.605469,616.091149 345.605469,615.445312 L346.542969,615.445312 C346.542969,616.169274 346.79557,616.759112 347.300781,617.214844 C347.805992,617.670575 348.454423,617.898438 349.246094,617.898438 C350.053389,617.898438 350.682289,617.691408 351.132812,617.277344 C351.583336,616.863279 351.808594,616.263025 351.808594,615.476562 C351.808594,614.716142 351.565107,614.135419 351.078125,613.734375 C350.591143,613.333331 349.873703,613.132812 348.925781,613.132812 L347.988281,613.132812 L347.988281,612.335938 Z M355.910156,612.703125 L356.464844,607.15625 L362.152344,607.15625 L362.152344,608.023438 L357.269531,608.023438 L356.871094,611.867188 C357.480472,611.450519 358.194006,611.242188 359.011719,611.242188 C360.037766,611.242188 360.855466,611.575517 361.464844,612.242188 C362.074222,612.908858 362.378906,613.796869 362.378906,614.90625 C362.378906,616.104173 362.082034,617.033851 361.488281,617.695312 C360.894528,618.356774 360.058599,618.6875 358.980469,618.6875 C357.99088,618.6875 357.188805,618.411461 356.574219,617.859375 C355.959632,617.307289 355.608073,616.533859 355.519531,615.539062 L356.417969,615.539062 C356.506511,616.315108 356.769529,616.902342 357.207031,617.300781 C357.644533,617.699221 358.235673,617.898438 358.980469,617.898438 C359.792973,617.898438 360.406248,617.640628 360.820312,617.125 C361.234377,616.609372 361.441406,615.875005 361.441406,614.921875 C361.441406,614.088537 361.209638,613.408857 360.746094,612.882812 C360.28255,612.356768 359.649744,612.09375 358.847656,612.09375 C358.404946,612.09375 358.019531,612.149739 357.691406,612.261719 C357.36328,612.373698 357.016929,612.591144 356.652344,612.914062 L355.910156,612.703125 Z" id="path-10"></path>
        <path d="M80.3203125,608.078125 L75,608.078125 L75,612.71875 L81.1171875,612.71875 L81.1171875,613.53125 L74.0390625,613.53125 L74.0390625,602.15625 L81.078125,602.15625 L81.078125,602.976562 L75,602.976562 L75,607.265625 L80.3203125,607.265625 L80.3203125,608.078125 Z M85.3515625,607.335938 L86.3203125,607.335938 C86.8567735,607.335938 87.3255188,607.240886 87.7265625,607.050781 C88.1276062,606.860676 88.4335927,606.600262 88.6445312,606.269531 C88.8554698,605.9388 88.9609375,605.557294 88.9609375,605.125 C88.9609375,604.39583 88.7552104,603.825523 88.34375,603.414062 C87.9322896,603.002602 87.3411497,602.796875 86.5703125,602.796875 C85.8411422,602.796875 85.2434919,603.011717 84.7773438,603.441406 C84.3111956,603.871096 84.078125,604.437496 84.078125,605.140625 L83.140625,605.140625 C83.140625,604.55208 83.289061,604.014325 83.5859375,603.527344 C83.882814,603.040362 84.2942682,602.664064 84.8203125,602.398438 C85.3463568,602.132811 85.9296843,602 86.5703125,602 C87.6015677,602 88.4140595,602.281247 89.0078125,602.84375 C89.6015655,603.406253 89.8984375,604.177078 89.8984375,605.15625 C89.8984375,605.703128 89.7252621,606.207029 89.3789062,606.667969 C89.0325504,607.128909 88.5572947,607.473957 87.953125,607.703125 C88.6614619,607.901043 89.1979148,608.240883 89.5625,608.722656 C89.9270852,609.204429 90.109375,609.778642 90.109375,610.445312 C90.109375,611.419276 89.7916698,612.203122 89.15625,612.796875 C88.5208302,613.390628 87.6718803,613.6875 86.609375,613.6875 C85.9322883,613.6875 85.3112007,613.552085 84.7460938,613.28125 C84.1809868,613.010415 83.7434911,612.631513 83.4335938,612.144531 C83.1236964,611.65755 82.96875,611.091149 82.96875,610.445312 L83.90625,610.445312 C83.90625,611.169274 84.1588516,611.759112 84.6640625,612.214844 C85.1692734,612.670575 85.8177044,612.898438 86.609375,612.898438 C87.4166707,612.898438 88.0455707,612.691408 88.4960938,612.277344 C88.9466168,611.863279 89.171875,611.263025 89.171875,610.476562 C89.171875,609.716142 88.9283879,609.135419 88.4414062,608.734375 C87.9544246,608.333331 87.2369839,608.132812 86.2890625,608.132812 L85.3515625,608.132812 L85.3515625,607.335938 Z M99.6484375,602.695312 L94.7890625,613.53125 L93.8125,613.53125 L98.640625,602.953125 L92.171875,602.953125 L92.171875,602.15625 L99.6484375,602.15625 L99.6484375,602.695312 Z" id="path-11"></path>
        <path d="M309.640625,613.078125 L304.320312,613.078125 L304.320312,617.71875 L310.4375,617.71875 L310.4375,618.53125 L303.359375,618.53125 L303.359375,607.15625 L310.398438,607.15625 L310.398438,607.976562 L304.320312,607.976562 L304.320312,612.265625 L309.640625,612.265625 L309.640625,613.078125 Z M319.71875,618.53125 L312.59375,618.53125 L312.59375,617.8125 L316.492188,613.390625 C317.138024,612.64583 317.585936,612.031252 317.835938,611.546875 C318.085939,611.062498 318.210938,610.591148 318.210938,610.132812 C318.210938,609.414059 318.000002,608.845054 317.578125,608.425781 C317.156248,608.006508 316.575525,607.796875 315.835938,607.796875 C315.070309,607.796875 314.451825,608.041664 313.980469,608.53125 C313.509112,609.020836 313.273438,609.656246 313.273438,610.4375 L312.34375,610.4375 C312.34375,609.796872 312.48828,609.213544 312.777344,608.6875 C313.066408,608.161456 313.477862,607.748699 314.011719,607.449219 C314.545576,607.149738 315.153642,607 315.835938,607 C316.877609,607 317.691403,607.273435 318.277344,607.820312 C318.863284,608.36719 319.15625,609.111974 319.15625,610.054688 C319.15625,610.58594 318.990887,611.166664 318.660156,611.796875 C318.329425,612.427086 317.7474,613.213537 316.914062,614.15625 L313.742188,617.742188 L319.71875,617.742188 L319.71875,618.53125 Z M326.3125,618.53125 L325.375,618.53125 L325.375,608.28125 L322.28125,609.429688 L322.28125,608.554688 L326.15625,607.117188 L326.3125,607.117188 L326.3125,618.53125 Z M338.03125,610.085938 C338.03125,610.674482 337.859377,611.201821 337.515625,611.667969 C337.171873,612.134117 336.718753,612.476561 336.15625,612.695312 C336.812503,612.919272 337.33854,613.281247 337.734375,613.78125 C338.13021,614.281253 338.328125,614.859372 338.328125,615.515625 C338.328125,616.489588 337.997399,617.261716 337.335938,617.832031 C336.674476,618.402347 335.799485,618.6875 334.710938,618.6875 C333.611974,618.6875 332.733076,618.403649 332.074219,617.835938 C331.415361,617.268226 331.085938,616.494797 331.085938,615.515625 C331.085938,614.869788 331.27604,614.294273 331.65625,613.789062 C332.03646,613.283852 332.557288,612.919272 333.21875,612.695312 C332.656247,612.476561 332.208335,612.134117 331.875,611.667969 C331.541665,611.201821 331.375,610.674482 331.375,610.085938 C331.375,609.143224 331.678382,608.393232 332.285156,607.835938 C332.89193,607.278643 333.695307,607 334.695312,607 C335.695318,607 336.501299,607.281247 337.113281,607.84375 C337.725263,608.406253 338.03125,609.153641 338.03125,610.085938 Z M337.390625,615.523438 C337.390625,614.815101 337.138023,614.233075 336.632812,613.777344 C336.127602,613.321612 335.481775,613.09375 334.695312,613.09375 C333.90885,613.09375 333.265627,613.317706 332.765625,613.765625 C332.265623,614.213544 332.015625,614.799476 332.015625,615.523438 C332.015625,616.247399 332.25781,616.824217 332.742188,617.253906 C333.226565,617.683596 333.882808,617.898438 334.710938,617.898438 C335.518233,617.898438 336.166664,617.684898 336.65625,617.257812 C337.145836,616.830727 337.390625,616.252608 337.390625,615.523438 Z M337.09375,610.078125 C337.09375,609.42708 336.868492,608.884117 336.417969,608.449219 C335.967446,608.014321 335.393233,607.796875 334.695312,607.796875 C333.986976,607.796875 333.412763,608.006508 332.972656,608.425781 C332.53255,608.845054 332.3125,609.39583 332.3125,610.078125 C332.3125,610.744795 332.53255,611.281248 332.972656,611.6875 C333.412763,612.093752 333.98958,612.296875 334.703125,612.296875 C335.406254,612.296875 335.980467,612.09245 336.425781,611.683594 C336.871096,611.274738 337.09375,610.739587 337.09375,610.078125 Z" id="path-12"></path>
        <path d="M286.710938,613.078125 L281.390625,613.078125 L281.390625,617.71875 L287.507812,617.71875 L287.507812,618.53125 L280.429688,618.53125 L280.429688,607.15625 L287.46875,607.15625 L287.46875,607.976562 L281.390625,607.976562 L281.390625,612.265625 L286.710938,612.265625 L286.710938,613.078125 Z M296.789062,618.53125 L289.664062,618.53125 L289.664062,617.8125 L293.5625,613.390625 C294.208337,612.64583 294.656249,612.031252 294.90625,611.546875 C295.156251,611.062498 295.28125,610.591148 295.28125,610.132812 C295.28125,609.414059 295.070315,608.845054 294.648438,608.425781 C294.22656,608.006508 293.645837,607.796875 292.90625,607.796875 C292.140621,607.796875 291.522138,608.041664 291.050781,608.53125 C290.579425,609.020836 290.34375,609.656246 290.34375,610.4375 L289.414062,610.4375 C289.414062,609.796872 289.558592,609.213544 289.847656,608.6875 C290.13672,608.161456 290.548174,607.748699 291.082031,607.449219 C291.615888,607.149738 292.223955,607 292.90625,607 C293.947922,607 294.761716,607.273435 295.347656,607.820312 C295.933597,608.36719 296.226562,609.111974 296.226562,610.054688 C296.226562,610.58594 296.0612,611.166664 295.730469,611.796875 C295.399738,612.427086 294.817712,613.213537 293.984375,614.15625 L290.8125,617.742188 L296.789062,617.742188 L296.789062,618.53125 Z M305.890625,613.789062 C305.890625,615.393237 305.596357,616.610673 305.007812,617.441406 C304.419268,618.27214 303.552089,618.6875 302.40625,618.6875 C301.281244,618.6875 300.419274,618.279952 299.820312,617.464844 C299.221351,616.649736 298.914063,615.463549 298.898438,613.90625 L298.898438,611.867188 C298.898438,610.268221 299.19531,609.057296 299.789062,608.234375 C300.382815,607.411454 301.249994,607 302.390625,607 C303.515631,607 304.374997,607.397131 304.96875,608.191406 C305.562503,608.985681 305.869792,610.156242 305.890625,611.703125 L305.890625,613.789062 Z M304.953125,611.75 C304.953125,610.44791 304.740888,609.463545 304.316406,608.796875 C303.891925,608.130205 303.250004,607.796875 302.390625,607.796875 C301.546871,607.796875 300.91146,608.122393 300.484375,608.773438 C300.05729,609.424482 299.838542,610.38541 299.828125,611.65625 L299.828125,613.890625 C299.828125,615.187506 300.048175,616.179684 300.488281,616.867188 C300.928388,617.554691 301.567704,617.898438 302.40625,617.898438 C303.239587,617.898438 303.871092,617.562503 304.300781,616.890625 C304.730471,616.218747 304.947917,615.234381 304.953125,613.9375 L304.953125,611.75 Z M315.257812,613.789062 C315.257812,615.393237 314.963545,616.610673 314.375,617.441406 C313.786455,618.27214 312.919277,618.6875 311.773438,618.6875 C310.648432,618.6875 309.786461,618.279952 309.1875,617.464844 C308.588539,616.649736 308.28125,615.463549 308.265625,613.90625 L308.265625,611.867188 C308.265625,610.268221 308.562497,609.057296 309.15625,608.234375 C309.750003,607.411454 310.617182,607 311.757812,607 C312.882818,607 313.742185,607.397131 314.335938,608.191406 C314.92969,608.985681 315.236979,610.156242 315.257812,611.703125 L315.257812,613.789062 Z M314.320312,611.75 C314.320312,610.44791 314.108075,609.463545 313.683594,608.796875 C313.259112,608.130205 312.617192,607.796875 311.757812,607.796875 C310.914058,607.796875 310.278648,608.122393 309.851562,608.773438 C309.424477,609.424482 309.205729,610.38541 309.195312,611.65625 L309.195312,613.890625 C309.195312,615.187506 309.415362,616.179684 309.855469,616.867188 C310.295575,617.554691 310.934892,617.898438 311.773438,617.898438 C312.606775,617.898438 313.238279,617.562503 313.667969,616.890625 C314.097658,616.218747 314.315104,615.234381 314.320312,613.9375 L314.320312,611.75 Z" id="path-13"></path>
        <path d="M56.4023438,608.078125 L51.0820312,608.078125 L51.0820312,612.71875 L57.1992188,612.71875 L57.1992188,613.53125 L50.1210938,613.53125 L50.1210938,602.15625 L57.1601562,602.15625 L57.1601562,602.976562 L51.0820312,602.976562 L51.0820312,607.265625 L56.4023438,607.265625 L56.4023438,608.078125 Z M63.7070312,613.53125 L62.7695312,613.53125 L62.7695312,603.28125 L59.6757812,604.429688 L59.6757812,603.554688 L63.5507812,602.117188 L63.7070312,602.117188 L63.7070312,613.53125 Z M74.5585938,608.265625 C74.2252588,608.755211 73.8112004,609.134113 73.3164062,609.402344 C72.8216121,609.670574 72.2851591,609.804688 71.7070312,609.804688 C71.0611947,609.804688 70.4908879,609.638022 69.9960938,609.304688 C69.5012996,608.971353 69.1184909,608.51042 68.8476562,607.921875 C68.5768216,607.33333 68.4414062,606.690108 68.4414062,605.992188 C68.4414062,605.242184 68.5859361,604.559899 68.875,603.945312 C69.1640639,603.330726 69.5677057,602.852866 70.0859375,602.511719 C70.6041693,602.170571 71.2018195,602 71.8789062,602 C73.019537,602 73.9075489,602.399736 74.5429688,603.199219 C75.1783886,603.998702 75.4960938,605.132805 75.4960938,606.601562 L75.4960938,607.445312 C75.4960938,609.497406 75.0585981,611.039057 74.1835938,612.070312 C73.3085894,613.101568 71.9726652,613.617188 70.1757812,613.617188 L70.0039062,613.617188 L70.0117188,612.804688 L70.3398438,612.804688 C71.6992255,612.783854 72.7330694,612.398441 73.4414062,611.648438 C74.1497431,610.898434 74.5221352,609.770841 74.5585938,608.265625 Z M71.8242188,609 C72.4492219,609 73.0104142,608.813804 73.5078125,608.441406 C74.0052108,608.069009 74.3580719,607.58594 74.5664062,606.992188 L74.5664062,606.453125 C74.5664062,605.296869 74.3255232,604.399743 73.84375,603.761719 C73.3619768,603.123695 72.7122437,602.804688 71.8945312,602.804688 C71.1549442,602.804688 70.5481795,603.102862 70.0742188,603.699219 C69.600258,604.295576 69.3632812,605.04687 69.3632812,605.953125 C69.3632812,606.822921 69.5911436,607.548174 70.046875,608.128906 C70.5026064,608.709638 71.0950484,609 71.8242188,609 Z" id="path-14"></path>
        <path d="M24.9921875,585.789062 C24.9921875,587.393237 24.6979196,588.610673 24.109375,589.441406 C23.5208304,590.27214 22.6536516,590.6875 21.5078125,590.6875 C20.3828069,590.6875 19.5208363,590.279952 18.921875,589.464844 C18.3229137,588.649736 18.0156251,587.463549 18,585.90625 L18,583.867188 C18,582.268221 18.296872,581.057296 18.890625,580.234375 C19.484378,579.411454 20.3515568,579 21.4921875,579 C22.6171931,579 23.4765595,579.397131 24.0703125,580.191406 C24.6640655,580.985681 24.9713541,582.156242 24.9921875,583.703125 L24.9921875,585.789062 Z M24.0546875,583.75 C24.0546875,582.44791 23.84245,581.463545 23.4179688,580.796875 C22.9934875,580.130205 22.3515668,579.796875 21.4921875,579.796875 C20.6484333,579.796875 20.013023,580.122393 19.5859375,580.773438 C19.158852,581.424482 18.9401042,582.38541 18.9296875,583.65625 L18.9296875,585.890625 C18.9296875,587.187506 19.1497374,588.179684 19.5898438,588.867188 C20.0299501,589.554691 20.6692666,589.898438 21.5078125,589.898438 C22.34115,589.898438 22.9726541,589.562503 23.4023438,588.890625 C23.8320334,588.218747 24.0494791,587.234381 24.0546875,585.9375 L24.0546875,583.75 Z" id="path-15"></path>
        <path d="M4.03125,104.53125 L3.09375,104.53125 L3.09375,94.28125 L0,95.4296875 L0,94.5546875 L3.875,93.1171875 L4.03125,93.1171875 L4.03125,104.53125 Z M11.1796875,98.703125 L11.734375,93.15625 L17.421875,93.15625 L17.421875,94.0234375 L12.5390625,94.0234375 L12.140625,97.8671875 C12.750003,97.4505188 13.4635376,97.2421875 14.28125,97.2421875 C15.3072968,97.2421875 16.124997,97.5755175 16.734375,98.2421875 C17.343753,98.9088575 17.6484375,99.7968695 17.6484375,100.90625 C17.6484375,102.104173 17.3515655,103.033851 16.7578125,103.695312 C16.1640595,104.356774 15.3281304,104.6875 14.25,104.6875 C13.2604117,104.6875 12.4583364,104.411461 11.84375,103.859375 C11.2291636,103.307289 10.8776046,102.533859 10.7890625,101.539062 L11.6875,101.539062 C11.7760421,102.315108 12.0390603,102.902342 12.4765625,103.300781 C12.9140647,103.699221 13.5052046,103.898438 14.25,103.898438 C15.0625041,103.898438 15.6757792,103.640628 16.0898438,103.125 C16.5039083,102.609372 16.7109375,101.875005 16.7109375,100.921875 C16.7109375,100.088538 16.479169,99.4088568 16.015625,98.8828125 C15.552081,98.3567682 14.9192748,98.09375 14.1171875,98.09375 C13.674477,98.09375 13.2890625,98.149739 12.9609375,98.2617188 C12.6328109,98.3736985 12.2864602,98.5911442 11.921875,98.9140625 L11.1796875,98.703125 Z M28.2734375,99.7890625 C28.2734375,101.393237 27.9791696,102.610673 27.390625,103.441406 C26.8020804,104.27214 25.9349016,104.6875 24.7890625,104.6875 C23.6640569,104.6875 22.8020863,104.279952 22.203125,103.464844 C21.6041637,102.649736 21.2968751,101.463549 21.28125,99.90625 L21.28125,97.8671875 C21.28125,96.2682212 21.578122,95.0572958 22.171875,94.234375 C22.765628,93.4114542 23.6328068,93 24.7734375,93 C25.8984431,93 26.7578095,93.3971314 27.3515625,94.1914062 C27.9453155,94.9856811 28.2526041,96.1562423 28.2734375,97.703125 L28.2734375,99.7890625 Z M27.3359375,97.75 C27.3359375,96.4479102 27.1237,95.463545 26.6992188,94.796875 C26.2747375,94.130205 25.6328168,93.796875 24.7734375,93.796875 C23.9296833,93.796875 23.294273,94.1223926 22.8671875,94.7734375 C22.440102,95.4244824 22.2213542,96.3854103 22.2109375,97.65625 L22.2109375,99.890625 C22.2109375,101.187506 22.4309874,102.179684 22.8710938,102.867188 C23.3112001,103.554691 23.9505166,103.898438 24.7890625,103.898438 C25.6224,103.898438 26.2539041,103.562503 26.6835938,102.890625 C27.1132834,102.218747 27.3307291,101.234381 27.3359375,99.9375 L27.3359375,97.75 Z" id="path-16"></path>
        <path d="M4.03125,268.53125 L3.09375,268.53125 L3.09375,258.28125 L0,259.429688 L0,258.554688 L3.875,257.117188 L4.03125,257.117188 L4.03125,268.53125 Z M17.40625,263.789062 C17.40625,265.393237 17.1119821,266.610673 16.5234375,267.441406 C15.9348929,268.27214 15.0677141,268.6875 13.921875,268.6875 C12.7968694,268.6875 11.9348988,268.279952 11.3359375,267.464844 C10.7369762,266.649736 10.4296876,265.463549 10.4140625,263.90625 L10.4140625,261.867188 C10.4140625,260.268221 10.7109345,259.057296 11.3046875,258.234375 C11.8984405,257.411454 12.7656193,257 13.90625,257 C15.0312556,257 15.890622,257.397131 16.484375,258.191406 C17.078128,258.985681 17.3854166,260.156242 17.40625,261.703125 L17.40625,263.789062 Z M16.46875,261.75 C16.46875,260.44791 16.2565125,259.463545 15.8320312,258.796875 C15.40755,258.130205 14.7656293,257.796875 13.90625,257.796875 C13.0624958,257.796875 12.4270855,258.122393 12,258.773438 C11.5729145,259.424482 11.3541667,260.38541 11.34375,261.65625 L11.34375,263.890625 C11.34375,265.187506 11.5637999,266.179684 12.0039062,266.867188 C12.4440126,267.554691 13.0833291,267.898438 13.921875,267.898438 C14.7552125,267.898438 15.3867166,267.562503 15.8164062,266.890625 C16.2460959,266.218747 16.4635416,265.234381 16.46875,263.9375 L16.46875,261.75 Z M28.2734375,263.789062 C28.2734375,265.393237 27.9791696,266.610673 27.390625,267.441406 C26.8020804,268.27214 25.9349016,268.6875 24.7890625,268.6875 C23.6640569,268.6875 22.8020863,268.279952 22.203125,267.464844 C21.6041637,266.649736 21.2968751,265.463549 21.28125,263.90625 L21.28125,261.867188 C21.28125,260.268221 21.578122,259.057296 22.171875,258.234375 C22.765628,257.411454 23.6328068,257 24.7734375,257 C25.8984431,257 26.7578095,257.397131 27.3515625,258.191406 C27.9453155,258.985681 28.2526041,260.156242 28.2734375,261.703125 L28.2734375,263.789062 Z M27.3359375,261.75 C27.3359375,260.44791 27.1237,259.463545 26.6992188,258.796875 C26.2747375,258.130205 25.6328168,257.796875 24.7734375,257.796875 C23.9296833,257.796875 23.294273,258.122393 22.8671875,258.773438 C22.440102,259.424482 22.2213542,260.38541 22.2109375,261.65625 L22.2109375,263.890625 C22.2109375,265.187506 22.4309874,266.179684 22.8710938,266.867188 C23.3112001,267.554691 23.9505166,267.898438 24.7890625,267.898438 C25.6224,267.898438 26.2539041,267.562503 26.6835938,266.890625 C27.1132834,266.218747 27.3307291,265.234381 27.3359375,263.9375 L27.3359375,261.75 Z" id="path-17"></path>
        <path d="M9.390625,423.703125 L9.9453125,418.15625 L15.6328125,418.15625 L15.6328125,419.023438 L10.75,419.023438 L10.3515625,422.867188 C10.9609405,422.450519 11.6744751,422.242188 12.4921875,422.242188 C13.5182343,422.242188 14.3359345,422.575517 14.9453125,423.242188 C15.5546905,423.908858 15.859375,424.796869 15.859375,425.90625 C15.859375,427.104173 15.562503,428.033851 14.96875,428.695312 C14.374997,429.356774 13.5390679,429.6875 12.4609375,429.6875 C11.4713492,429.6875 10.6692739,429.411461 10.0546875,428.859375 C9.44010109,428.307289 9.08854211,427.533859 9,426.539062 L9.8984375,426.539062 C9.98697961,427.315108 10.2499978,427.902342 10.6875,428.300781 C11.1250022,428.699221 11.7161421,428.898438 12.4609375,428.898438 C13.2734416,428.898438 13.8867167,428.640628 14.3007812,428.125 C14.7148458,427.609372 14.921875,426.875005 14.921875,425.921875 C14.921875,425.088538 14.6901065,424.408857 14.2265625,423.882812 C13.7630185,423.356768 13.1302123,423.09375 12.328125,423.09375 C11.8854145,423.09375 11.5,423.149739 11.171875,423.261719 C10.8437484,423.373698 10.4973977,423.591144 10.1328125,423.914062 L9.390625,423.703125 Z M26.484375,424.789062 C26.484375,426.393237 26.1901071,427.610673 25.6015625,428.441406 C25.0130179,429.27214 24.1458391,429.6875 23,429.6875 C21.8749944,429.6875 21.0130238,429.279952 20.4140625,428.464844 C19.8151012,427.649736 19.5078126,426.463549 19.4921875,424.90625 L19.4921875,422.867188 C19.4921875,421.268221 19.7890595,420.057296 20.3828125,419.234375 C20.9765655,418.411454 21.8437443,418 22.984375,418 C24.1093806,418 24.968747,418.397131 25.5625,419.191406 C26.156253,419.985681 26.4635416,421.156242 26.484375,422.703125 L26.484375,424.789062 Z M25.546875,422.75 C25.546875,421.44791 25.3346375,420.463545 24.9101562,419.796875 C24.485675,419.130205 23.8437543,418.796875 22.984375,418.796875 C22.1406208,418.796875 21.5052105,419.122393 21.078125,419.773438 C20.6510395,420.424482 20.4322917,421.38541 20.421875,422.65625 L20.421875,424.890625 C20.421875,426.187506 20.6419249,427.179684 21.0820312,427.867188 C21.5221376,428.554691 22.1614541,428.898438 23,428.898438 C23.8333375,428.898438 24.4648416,428.562503 24.8945312,427.890625 C25.3242209,427.218747 25.5416666,426.234381 25.546875,424.9375 L25.546875,422.75 Z" id="path-18"></path>
    </defs>
    <g id="Welcome" stroke="none" stroke-width="1" fill="none" fill-rule="evenodd">
        <g id="iPhone-8-Copy-2" transform="translate(-5.000000, -1591.000000)">
            <g id="Group-8" transform="translate(5.000000, 1591.000000)">
                <g id="Group-28" transform="translate(33.000000, 0.000000)">
                    <g id="Group-24">
                        <g id="Group-20">
                            <g id="Group-12" transform="translate(0.000000, 6.116232)">
                                <path d="M0.619550859,579.498998 L317.745046,579.498998" id="Path-Copy-7" stroke="#000000" opacity="0.300000012"></path>
                                <path d="M0.619550859,416.142285 L317.745046,416.142285" id="Path-Copy-8" stroke="#000000" opacity="0.300000012" stroke-dasharray="6,9"></path>
                                <path d="M0.619550859,256.362725 L317.745046,256.362725" id="Path-Copy-9" stroke="#000000" opacity="0.300000012" stroke-dasharray="6,9"></path>
                                <path d="M0.619550859,93.006012 L317.745046,93.006012" id="Path-Copy-10" stroke="#000000" opacity="0.300000012" stroke-dasharray="6,9"></path>
                                <path d="M0.619550859,261.994108 L2.01868423,309.816129 L3.47200431,129.308785 L4.65385075,321.560413 L6.32445776,291.544072 L7.64204102,340.211729 L8.93244092,255.262061 L11.7035243,314.566263 L13.0346092,272.39784 C14.2299573,268.181674 14.8276314,266.073591 14.8276314,266.073591 C14.8276314,266.073591 15.1853357,284.569198 15.9007444,321.560413 L17.2590127,238.242687 L18.5357309,290.028535 L19.989231,307.077198 L21.660018,274.670395 L22.8551861,274.670395 L24.2543195,208.313464 L25.3409341,288.630156 L27.2018247,309.816129 L28.3156227,241.594442 L29.7691228,240.282429 L31.2768096,203.388345 L32.159639,301.685702 L33.8576094,269.628869 L35.2295594,274.670395 L38.2721164,255.262061 L39.519851,360.822429 L40.7965692,311.047033 L43.594836,328.911292 L44.9802876,309.816129 L46.2570058,356.392976 L47.6426375,299.477735 L49.0687743,370.846902 L52.0162795,283.741085 L54.7601795,269.628869 L55.8332925,319.090343 L57.653318,326.667276 L59.3313059,283.741085 L60.2550004,246.434697 L63.0667688,206.626697 L64.2349335,250.077843 L65.8104887,227.754842 L67.2503072,299.477735 L68.3369218,226.006493 L70.0620756,261.994108 L74.1370605,156.064994 L76.6498119,291.544072 L78.5650692,269.628869 L79.2849784,240.282429 L80.9150804,227.754842 L82.3955838,253.603832 L83.8202804,156.064994 L85.0563135,208.313464 L86.7542839,216.579073 L87.9903171,173.390028 L90.8292688,238.242687 L91.9023818,118.10673 L93.4644354,160.100918 L94.9362978,168.756301 L96.5613591,216.579073 L97.6207904,240.282429 L98.924872,161.616455 L100.595479,176.653915 L101.899561,176.653915 L102.252764,148.939418 L104.665063,93.3519608 L105.982647,108.214435 L107.245863,220.645788 L108.631495,127.389956 L110.003265,120.104415 L111.606183,126.107983 L112.760666,170.25832 L114.064748,121.241443 L115.884774,114.3637 L117.06662,154.1717 L118.343338,68.552131 L119.334901,108.214435 L119.72879,126.107983 L121.195792,66.6287961 L122.323271,95.945947 L123.994058,95.945947 L125.13504,131.295205 L126.600421,340.211729 L129.499501,58.2813275 L130.735534,198.864265 L132.460687,173.390028 L133.886824,172.198928 L135.041487,115.371554 L136.399756,203.388345 C137.033674,157.202773 137.432123,134.109988 137.595104,134.109988 C137.758084,134.109988 138.274208,158.84448 139.143476,208.313464 L140.420374,173.390028 L142.199714,164.680573 L143.221881,264.192313 L144.621014,146.16594 L147.269682,238.242687 L148.723003,195.619904 C149.67388,212.303827 150.149319,220.645788 150.149319,220.645788 C150.149319,220.645788 150.715309,237.560521 151.84729,271.389986 L153.110506,159.10508 L154.294693,240.282429 L156.411215,220.645788 L157.25336,198.864265 L158.62513,260.43276 L160.064948,194.600034 L161.328164,290.028535 L162.645748,224.412851 L164.262168,192.006798 L165.688485,194.600034 C166.45814,177.370878 166.842968,168.756301 166.842968,168.756301 C166.842968,168.756301 167.771163,193.933388 169.627553,244.287561 L170.795718,201.564894 L172.317086,168.756301 C174.952133,188.828277 176.165543,198.864265 175.957317,198.864265 C175.749091,198.864265 176.378449,213.107657 177.845391,241.594442 L179.434628,224.412851 L180.697845,287.127386 L182.11048,182.739343 L183.672533,182.739343 L184.895065,219.517021 L186.131098,154.1717 C187.164666,202.061562 187.68145,226.006493 187.68145,226.006493 C187.68145,226.006493 188.079899,187.937079 188.876798,111.798252 L190.316616,166.060928 L193.427222,138.579995 L194.826175,100.491055 L196.07589,283.741085 C196.96328,179.506999 197.406975,127.389956 197.406975,127.389956 C197.406975,127.389956 198.330669,172.258007 200.178058,261.994108 L201.441275,142.513782 L204.320912,241.594442 L205.502578,168.756301 L207.159683,170.25832 L209.808532,251.039886 C210.424208,231.529665 210.732046,221.398299 210.732046,220.645788 C210.732046,219.893277 210.908648,212.632769 211.261852,198.864265 L211.981761,240.282429 L212.511567,263.104851 C213.462324,218.114887 213.937703,195.619904 213.937703,195.619904 C213.937703,195.619904 214.368977,230.97517 215.231524,301.685702 L216.780076,234.841366 L217.846348,370.846902 L219.326851,400.882017 L221.065507,397.122465 L223.51057,227.754842 L225.153993,220.645788 L226.41721,244.287561 L227.796901,188.757181 L229.318269,260.43276 L230.540801,179.490477 L231.994121,253.603832 L233.189469,177.97494 L234.765024,168.756301 L236.286393,183.978509 L237.287137,293.414836 L238.781322,380.579231 L240.343375,288.630156 L241.986979,279.892162 L243.168645,279.892162 L244.676512,299.477735 L245.803812,387.923352 C246.709324,343.681392 247.16208,321.560413 247.16208,321.560413 C247.16208,321.560413 247.610336,318.055953 248.506847,311.047033 L250.191136,325.675193 L251.630954,325.675193 C252.382607,371.564366 252.758434,394.508952 252.758434,394.508952 C252.758434,394.508952 253.709251,397.763326 255.610887,404.272073 L258.354607,341.295436 L259.631505,380.579231 L261.016957,335.787533 L262.524644,384.425901 L263.86941,471.264358 L266.463892,290.028535 L268.025945,480.531062 L269.368732,237.227323 L270.631948,319.090343 C271.546582,291.054164 272.003898,277.036074 272.003898,277.036074 C272.003898,277.036074 272.524583,306.032794 273.565952,364.026235 L275.114324,305.246237 L276.391222,377.402462 L277.627255,305.246237 L278.849787,364.026235 L280.615625,347.910326 L281.675057,285.837152 L283.250612,309.816129 L284.812666,295.046029 L286.198297,260.43276 L287.35278,394.508952 L290.056355,220.645788 L291.319572,299.477735 L293.112594,335.787533 L294.334945,218.208012 L295.693394,368.816172 L296.974072,108.214435 L298.210106,210.046042 C299.151862,193.542362 299.622741,185.868299 299.622741,187.023852 C299.622741,188.179405 300.197732,196.883102 301.347714,213.134944 L302.366461,131.295205 L303.724909,192.006798 L305.572118,204.683836 L306.672414,141.270111 L308.071548,248.426374 L309.511366,77.9149642 L310.611482,121.241443 L312.119169,216.579073 L313.640538,241.594442 L315.229775,242.859893 L316.72594,279.892162 L317.745046,0" id="Path-2-Copy" stroke="#2D3358" opacity="0.900000036" stroke-linecap="round" stroke-linejoin="round"></path>
                            </g>
                            <path d="M128.55703,55.8694584 L129.096753,55.8244814 C132.135273,55.5712714 134.803748,57.8292113 135.056958,60.8677313 C135.069666,61.0202267 135.076028,61.1731846 135.076028,61.3262086 C135.076028,64.6399171 132.389736,67.3262086 129.076028,67.3262086 L128.576028,67.3262086 C125.538462,67.3262086 123.076028,64.8637747 123.076028,61.8262086 C123.076028,58.717432 125.458991,56.1276283 128.55703,55.8694584 Z" id="Rectangle-Copy-61" fill="#2D3358" opacity="0.429999977" transform="translate(129.076028, 61.326209) rotate(-90.000000) translate(-129.076028, -61.326209) "></path>
                            <path d="M317.398353,0.0917396219 C320.712061,0.0917396219 323.398353,2.77803112 323.398353,6.09173962 C323.398353,9.40544812 320.712061,12.0917396 317.398353,12.0917396 C314.084644,12.0917396 311.398353,9.40544812 311.398353,6.09173962 C311.398353,2.77803112 314.084644,0.0917396219 317.398353,0.0917396219 Z" id="Rectangle-Copy-64" fill="#2D3358" opacity="0.699999988" transform="translate(317.398353, 6.091740) rotate(-90.000000) translate(-317.398353, -6.091740) "></path>
                            <path d="M267.64406,484.16188 C270.957768,484.16188 273.64406,486.848171 273.64406,490.16188 C273.64406,493.475588 270.957768,496.16188 267.64406,496.16188 C264.330351,496.16188 261.64406,493.475588 261.64406,490.16188 C261.64406,486.848171 264.330351,484.16188 267.64406,484.16188 Z" id="Rectangle-Copy-65" fill="#B9404C" opacity="0.900000036" transform="translate(267.644060, 490.161880) rotate(-90.000000) translate(-267.644060, -490.161880) "></path>
                            <path d="M263.459119,474.815187 C266.772828,474.815187 269.459119,477.501478 269.459119,480.815187 C269.459119,484.128895 266.772828,486.815187 263.459119,486.815187 C260.145411,486.815187 257.459119,484.128895 257.459119,480.815187 C257.459119,477.501478 260.145411,474.815187 263.459119,474.815187 Z" id="Rectangle-Copy-66" fill="#B9404C" opacity="0.5" transform="translate(263.459119, 480.815187) rotate(-90.000000) translate(-263.459119, -480.815187) "></path>
                        </g>
                    </g>
                </g>
                <g id="E1" fill-rule="nonzero" transform="translate(39.792969, 601.707031) rotate(-90.000000) translate(-39.792969, -601.707031) " fill="#000000">
                    <use xlink:href="#path-1"></use>
                    <use xlink:href="#path-1"></use>
                </g>
                <g id="E92" fill-rule="nonzero" transform="translate(156.808594, 607.808594) rotate(-90.000000) translate(-156.808594, -607.808594) " fill="#000000">
                    <use xlink:href="#path-2"></use>
                    <use xlink:href="#path-2"></use>
                </g>
                <g id="E146" fill-rule="nonzero" transform="translate(226.808594, 612.808594) rotate(-90.000000) translate(-226.808594, -612.808594) " fill="#000000">
                    <use xlink:href="#path-3"></use>
                    <use xlink:href="#path-3"></use>
                </g>
                <g id="E110" fill-rule="nonzero" transform="translate(179.843750, 612.843750) rotate(-90.000000) translate(-179.843750, -612.843750) " fill="#000000">
                    <use xlink:href="#path-4"></use>
                    <use xlink:href="#path-4"></use>
                </g>
                <g id="E56" fill-rule="nonzero" transform="translate(109.808594, 607.808594) rotate(-90.000000) translate(-109.808594, -607.808594) " fill="#000000">
                    <use xlink:href="#path-5"></use>
                    <use xlink:href="#path-5"></use>
                </g>
                <g id="E182" fill-rule="nonzero" transform="translate(273.843750, 612.843750) rotate(-90.000000) translate(-273.843750, -612.843750) " fill="#000000">
                    <use xlink:href="#path-6"></use>
                    <use xlink:href="#path-6"></use>
                </g>
                <g id="E164" fill-rule="nonzero" transform="translate(250.808594, 612.808594) rotate(-90.000000) translate(-250.808594, -612.808594) " fill="#000000">
                    <use xlink:href="#path-7"></use>
                    <use xlink:href="#path-7"></use>
                </g>
                <g id="E128" fill-rule="nonzero" transform="translate(203.843750, 612.843750) rotate(-90.000000) translate(-203.843750, -612.843750) " fill="#000000">
                    <use xlink:href="#path-8"></use>
                    <use xlink:href="#path-8"></use>
                </g>
                <g id="E74" fill-rule="nonzero" transform="translate(133.687500, 607.687500) rotate(-90.000000) translate(-133.687500, -607.687500) " fill="#000000">
                    <use xlink:href="#path-9"></use>
                    <use xlink:href="#path-9"></use>
                </g>
                <g id="E235" fill-rule="nonzero" transform="translate(344.843750, 612.843750) rotate(-90.000000) translate(-344.843750, -612.843750) " fill="#000000">
                    <use xlink:href="#path-10"></use>
                    <use xlink:href="#path-10"></use>
                </g>
                <g id="E37" fill-rule="nonzero" transform="translate(86.843750, 607.843750) rotate(-90.000000) translate(-86.843750, -607.843750) " fill="#000000">
                    <use xlink:href="#path-11"></use>
                    <use xlink:href="#path-11"></use>
                </g>
                <g id="E218" fill-rule="nonzero" transform="translate(320.843750, 612.843750) rotate(-90.000000) translate(-320.843750, -612.843750) " fill="#000000">
                    <use xlink:href="#path-12"></use>
                    <use xlink:href="#path-12"></use>
                </g>
                <g id="E200" fill-rule="nonzero" transform="translate(297.843750, 612.843750) rotate(-90.000000) translate(-297.843750, -612.843750) " fill="#000000">
                    <use xlink:href="#path-13"></use>
                    <use xlink:href="#path-13"></use>
                </g>
                <g id="E19" fill-rule="nonzero" transform="translate(62.808594, 607.808594) rotate(-90.000000) translate(-62.808594, -607.808594) " fill="#000000">
                    <use xlink:href="#path-14"></use>
                    <use xlink:href="#path-14"></use>
                </g>
                <g id="0" fill-rule="nonzero" fill="#000000">
                    <use xlink:href="#path-15"></use>
                    <use xlink:href="#path-15"></use>
                </g>
                <g id="150" fill-rule="nonzero" fill="#000000">
                    <use xlink:href="#path-16"></use>
                    <use xlink:href="#path-16"></use>
                </g>
                <g id="100" fill-rule="nonzero" fill="#000000">
                    <use xlink:href="#path-17"></use>
                    <use xlink:href="#path-17"></use>
                </g>
                <g id="50" fill-rule="nonzero" fill="#000000">
                    <use xlink:href="#path-18"></use>
                    <use xlink:href="#path-18"></use>
                </g>
            </g>
        </g>
    </g>
</svg>