<?xml version="1.0" encoding="UTF-8"?>
<svg width="749px" height="543px" viewBox="0 0 749 543" version="1.1" xmlns="http://www.w3.org/2000/svg" xmlns:xlink="http://www.w3.org/1999/xlink">
    <!-- Generator: Sketch 56.2 (81672) - https://sketch.com -->
    <title>Group 28</title>
    <desc>Created with Sketch.</desc>
    <defs>
        <path d="M38.9296875,482.257812 C38.9296875,483.861987 38.6354196,485.079423 38.046875,485.910156 C37.4583304,486.74089 36.5911516,487.15625 35.4453125,487.15625 C34.3203069,487.15625 33.4583363,486.748702 32.859375,485.933594 C32.2604137,485.118486 31.9531251,483.932299 31.9375,482.375 L31.9375,480.335938 C31.9375,478.736971 32.234372,477.526046 32.828125,476.703125 C33.421878,475.880204 34.2890568,475.46875 35.4296875,475.46875 C36.5546931,475.46875 37.4140595,475.865881 38.0078125,476.660156 C38.6015655,477.454431 38.9088541,478.624992 38.9296875,480.171875 L38.9296875,482.257812 Z M37.9921875,480.21875 C37.9921875,478.91666 37.77995,477.932295 37.3554688,477.265625 C36.9309875,476.598955 36.2890668,476.265625 35.4296875,476.265625 C34.5859333,476.265625 33.950523,476.591143 33.5234375,477.242188 C33.096352,477.893232 32.8776042,478.85416 32.8671875,480.125 L32.8671875,482.359375 C32.8671875,483.656256 33.0872374,484.648434 33.5273438,485.335938 C33.9674501,486.023441 34.6067666,486.367188 35.4453125,486.367188 C36.27865,486.367188 36.9101541,486.031253 37.3398438,485.359375 C37.7695334,484.687497 37.9869791,483.703131 37.9921875,482.40625 L37.9921875,480.21875 Z" id="path-1"></path>
        <path d="M19.96875,339.171875 L20.5234375,333.625 L26.2109375,333.625 L26.2109375,334.492188 L21.328125,334.492188 L20.9296875,338.335938 C21.5390655,337.919269 22.2526001,337.710938 23.0703125,337.710938 C24.0963593,337.710938 24.9140595,338.044268 25.5234375,338.710938 C26.1328155,339.377608 26.4375,340.265619 26.4375,341.375 C26.4375,342.572923 26.140628,343.502601 25.546875,344.164063 C24.953122,344.825524 24.1171929,345.15625 23.0390625,345.15625 C22.0494742,345.15625 21.2473989,344.880211 20.6328125,344.328125 C20.0182261,343.776039 19.6666671,343.002609 19.578125,342.007813 L20.4765625,342.007813 C20.5651046,342.783858 20.8281228,343.371092 21.265625,343.769531 C21.7031272,344.167971 22.2942671,344.367188 23.0390625,344.367188 C23.8515666,344.367188 24.4648417,344.109378 24.8789062,343.59375 C25.2929708,343.078122 25.5,342.343755 25.5,341.390625 C25.5,340.557288 25.2682315,339.877607 24.8046875,339.351563 C24.3411435,338.825518 23.7083373,338.5625 22.90625,338.5625 C22.4635395,338.5625 22.078125,338.618489 21.75,338.730469 C21.4218734,338.842448 21.0755227,339.059894 20.7109375,339.382813 L19.96875,339.171875 Z M37.0625,340.257813 C37.0625,341.861987 36.7682321,343.079423 36.1796875,343.910156 C35.5911429,344.74089 34.7239641,345.15625 33.578125,345.15625 C32.4531194,345.15625 31.5911488,344.748702 30.9921875,343.933594 C30.3932262,343.118486 30.0859376,341.932299 30.0703125,340.375 L30.0703125,338.335938 C30.0703125,336.736971 30.3671845,335.526046 30.9609375,334.703125 C31.5546905,333.880204 32.4218693,333.46875 33.5625,333.46875 C34.6875056,333.46875 35.546872,333.865881 36.140625,334.660156 C36.734378,335.454431 37.0416666,336.624992 37.0625,338.171875 L37.0625,340.257813 Z M36.125,338.21875 C36.125,336.91666 35.9127625,335.932295 35.4882812,335.265625 C35.0638,334.598955 34.4218793,334.265625 33.5625,334.265625 C32.7187458,334.265625 32.0833355,334.591143 31.65625,335.242188 C31.2291645,335.893232 31.0104167,336.85416 31,338.125 L31,340.359375 C31,341.656256 31.2200499,342.648434 31.6601562,343.335938 C32.1002626,344.023441 32.7395791,344.367188 33.578125,344.367188 C34.4114625,344.367188 35.0429666,344.031253 35.4726562,343.359375 C35.9023459,342.687497 36.1197916,341.703131 36.125,340.40625 L36.125,338.21875 Z" id="path-2"></path>
        <path d="M12.8203125,205 L11.8828125,205 L11.8828125,194.75 L8.7890625,195.898438 L8.7890625,195.023438 L12.6640625,193.585938 L12.8203125,193.585938 L12.8203125,205 Z M26.1953125,200.257812 C26.1953125,201.861987 25.9010446,203.079423 25.3125,203.910156 C24.7239554,204.74089 23.8567766,205.15625 22.7109375,205.15625 C21.5859319,205.15625 20.7239613,204.748702 20.125,203.933594 C19.5260387,203.118486 19.2187501,201.932299 19.203125,200.375 L19.203125,198.335938 C19.203125,196.736971 19.499997,195.526046 20.09375,194.703125 C20.687503,193.880204 21.5546818,193.46875 22.6953125,193.46875 C23.8203181,193.46875 24.6796845,193.865881 25.2734375,194.660156 C25.8671905,195.454431 26.1744791,196.624992 26.1953125,198.171875 L26.1953125,200.257812 Z M25.2578125,198.21875 C25.2578125,196.91666 25.045575,195.932295 24.6210938,195.265625 C24.1966125,194.598955 23.5546918,194.265625 22.6953125,194.265625 C21.8515583,194.265625 21.216148,194.591143 20.7890625,195.242188 C20.361977,195.893232 20.1432292,196.85416 20.1328125,198.125 L20.1328125,200.359375 C20.1328125,201.656256 20.3528624,202.648434 20.7929688,203.335938 C21.2330751,204.023441 21.8723916,204.367188 22.7109375,204.367188 C23.544275,204.367188 24.1757791,204.031253 24.6054688,203.359375 C25.0351584,202.687497 25.2526041,201.703131 25.2578125,200.40625 L25.2578125,198.21875 Z M37.0625,200.257812 C37.0625,201.861987 36.7682321,203.079423 36.1796875,203.910156 C35.5911429,204.74089 34.7239641,205.15625 33.578125,205.15625 C32.4531194,205.15625 31.5911488,204.748702 30.9921875,203.933594 C30.3932262,203.118486 30.0859376,201.932299 30.0703125,200.375 L30.0703125,198.335938 C30.0703125,196.736971 30.3671845,195.526046 30.9609375,194.703125 C31.5546905,193.880204 32.4218693,193.46875 33.5625,193.46875 C34.6875056,193.46875 35.546872,193.865881 36.140625,194.660156 C36.734378,195.454431 37.0416666,196.624992 37.0625,198.171875 L37.0625,200.257812 Z M36.125,198.21875 C36.125,196.91666 35.9127625,195.932295 35.4882812,195.265625 C35.0638,194.598955 34.4218793,194.265625 33.5625,194.265625 C32.7187458,194.265625 32.0833355,194.591143 31.65625,195.242188 C31.2291645,195.893232 31.0104167,196.85416 31,198.125 L31,200.359375 C31,201.656256 31.2200499,202.648434 31.6601562,203.335938 C32.1002626,204.023441 32.7395791,204.367188 33.578125,204.367188 C34.4114625,204.367188 35.0429666,204.031253 35.4726562,203.359375 C35.9023459,202.687497 36.1197916,201.703131 36.125,200.40625 L36.125,198.21875 Z" id="path-3"></path>
        <path d="M12.8203125,65 L11.8828125,65 L11.8828125,54.75 L8.7890625,55.8984375 L8.7890625,55.0234375 L12.6640625,53.5859375 L12.8203125,53.5859375 L12.8203125,65 Z M19.96875,59.171875 L20.5234375,53.625 L26.2109375,53.625 L26.2109375,54.4921875 L21.328125,54.4921875 L20.9296875,58.3359375 C21.5390655,57.9192688 22.2526001,57.7109375 23.0703125,57.7109375 C24.0963593,57.7109375 24.9140595,58.0442675 25.5234375,58.7109375 C26.1328155,59.3776075 26.4375,60.2656195 26.4375,61.375 C26.4375,62.5729227 26.140628,63.5026009 25.546875,64.1640625 C24.953122,64.8255241 24.1171929,65.15625 23.0390625,65.15625 C22.0494742,65.15625 21.2473989,64.8802111 20.6328125,64.328125 C20.0182261,63.7760389 19.6666671,63.0026091 19.578125,62.0078125 L20.4765625,62.0078125 C20.5651046,62.783858 20.8281228,63.3710918 21.265625,63.7695312 C21.7031272,64.1679707 22.2942671,64.3671875 23.0390625,64.3671875 C23.8515666,64.3671875 24.4648417,64.1093776 24.8789062,63.59375 C25.2929708,63.0781224 25.5,62.3437548 25.5,61.390625 C25.5,60.5572875 25.2682315,59.8776068 24.8046875,59.3515625 C24.3411435,58.8255182 23.7083373,58.5625 22.90625,58.5625 C22.4635395,58.5625 22.078125,58.618489 21.75,58.7304688 C21.4218734,58.8424485 21.0755227,59.0598942 20.7109375,59.3828125 L19.96875,59.171875 Z M37.0625,60.2578125 C37.0625,61.8619872 36.7682321,63.0794229 36.1796875,63.9101562 C35.5911429,64.7408896 34.7239641,65.15625 33.578125,65.15625 C32.4531194,65.15625 31.5911488,64.748702 30.9921875,63.9335938 C30.3932262,63.1184855 30.0859376,61.9322995 30.0703125,60.375 L30.0703125,58.3359375 C30.0703125,56.7369712 30.3671845,55.5260458 30.9609375,54.703125 C31.5546905,53.8802042 32.4218693,53.46875 33.5625,53.46875 C34.6875056,53.46875 35.546872,53.8658814 36.140625,54.6601562 C36.734378,55.4544311 37.0416666,56.6249923 37.0625,58.171875 L37.0625,60.2578125 Z M36.125,58.21875 C36.125,56.9166602 35.9127625,55.932295 35.4882812,55.265625 C35.0638,54.598955 34.4218793,54.265625 33.5625,54.265625 C32.7187458,54.265625 32.0833355,54.5911426 31.65625,55.2421875 C31.2291645,55.8932324 31.0104167,56.8541603 31,58.125 L31,60.359375 C31,61.6562565 31.2200499,62.6484341 31.6601562,63.3359375 C32.1002626,64.0234409 32.7395791,64.3671875 33.578125,64.3671875 C34.4114625,64.3671875 35.0429666,64.0312534 35.4726562,63.359375 C35.9023459,62.6874966 36.1197916,61.7031315 36.125,60.40625 L36.125,58.21875 Z" id="path-4"></path>
        <path d="M72.734375,515.546875 L67.4140625,515.546875 L67.4140625,520.1875 L73.53125,520.1875 L73.53125,521 L66.453125,521 L66.453125,509.625 L73.4921875,509.625 L73.4921875,510.445312 L67.4140625,510.445312 L67.4140625,514.734375 L72.734375,514.734375 L72.734375,515.546875 Z M80.0390625,521 L79.1015625,521 L79.1015625,510.75 L76.0078125,511.898438 L76.0078125,511.023438 L79.8828125,509.585938 L80.0390625,509.585938 L80.0390625,521 Z" id="path-5"></path>
        <path d="M119.050781,520.546875 L113.730469,520.546875 L113.730469,525.1875 L119.847656,525.1875 L119.847656,526 L112.769531,526 L112.769531,514.625 L119.808594,514.625 L119.808594,515.445312 L113.730469,515.445312 L113.730469,519.734375 L119.050781,519.734375 L119.050781,520.546875 Z M126.355469,526 L125.417969,526 L125.417969,515.75 L122.324219,516.898438 L122.324219,516.023438 L126.199219,514.585938 L126.355469,514.585938 L126.355469,526 Z M137.207031,520.734375 C136.873696,521.223961 136.459638,521.602863 135.964844,521.871094 C135.47005,522.139324 134.933597,522.273438 134.355469,522.273438 C133.709632,522.273438 133.139325,522.106772 132.644531,521.773438 C132.149737,521.440103 131.766928,520.97917 131.496094,520.390625 C131.225259,519.80208 131.089844,519.158858 131.089844,518.460938 C131.089844,517.710934 131.234374,517.028649 131.523438,516.414062 C131.812501,515.799476 132.216143,515.321616 132.734375,514.980469 C133.252607,514.639321 133.850257,514.46875 134.527344,514.46875 C135.667974,514.46875 136.555986,514.868486 137.191406,515.667969 C137.826826,516.467452 138.144531,517.601555 138.144531,519.070312 L138.144531,519.914062 C138.144531,521.966156 137.707036,523.507807 136.832031,524.539062 C135.957027,525.570318 134.621103,526.085938 132.824219,526.085938 L132.652344,526.085938 L132.660156,525.273438 L132.988281,525.273438 C134.347663,525.252604 135.381507,524.867191 136.089844,524.117188 C136.798181,523.367184 137.170573,522.239591 137.207031,520.734375 Z M134.472656,521.46875 C135.097659,521.46875 135.658852,521.282554 136.15625,520.910156 C136.653648,520.537759 137.006509,520.05469 137.214844,519.460938 L137.214844,518.921875 C137.214844,517.765619 136.973961,516.868493 136.492188,516.230469 C136.010414,515.592445 135.360681,515.273438 134.542969,515.273438 C133.803382,515.273438 133.196617,515.571612 132.722656,516.167969 C132.248696,516.764326 132.011719,517.51562 132.011719,518.421875 C132.011719,519.291671 132.239581,520.016924 132.695312,520.597656 C133.151044,521.178388 133.743486,521.46875 134.472656,521.46875 Z" id="path-6"></path>
        <path d="M325.050781,520.546875 L319.730469,520.546875 L319.730469,525.1875 L325.847656,525.1875 L325.847656,526 L318.769531,526 L318.769531,514.625 L325.808594,514.625 L325.808594,515.445312 L319.730469,515.445312 L319.730469,519.734375 L325.050781,519.734375 L325.050781,520.546875 Z M333.839844,520.734375 C333.506509,521.223961 333.09245,521.602863 332.597656,521.871094 C332.102862,522.139324 331.566409,522.273438 330.988281,522.273438 C330.342445,522.273438 329.772138,522.106772 329.277344,521.773438 C328.78255,521.440103 328.399741,520.97917 328.128906,520.390625 C327.858072,519.80208 327.722656,519.158858 327.722656,518.460938 C327.722656,517.710934 327.867186,517.028649 328.15625,516.414062 C328.445314,515.799476 328.848956,515.321616 329.367188,514.980469 C329.885419,514.639321 330.48307,514.46875 331.160156,514.46875 C332.300787,514.46875 333.188799,514.868486 333.824219,515.667969 C334.459639,516.467452 334.777344,517.601555 334.777344,519.070312 L334.777344,519.914062 C334.777344,521.966156 334.339848,523.507807 333.464844,524.539062 C332.589839,525.570318 331.253915,526.085938 329.457031,526.085938 L329.285156,526.085938 L329.292969,525.273438 L329.621094,525.273438 C330.980476,525.252604 332.014319,524.867191 332.722656,524.117188 C333.430993,523.367184 333.803385,522.239591 333.839844,520.734375 Z M331.105469,521.46875 C331.730472,521.46875 332.291664,521.282554 332.789062,520.910156 C333.286461,520.537759 333.639322,520.05469 333.847656,519.460938 L333.847656,518.921875 C333.847656,517.765619 333.606773,516.868493 333.125,516.230469 C332.643227,515.592445 331.993494,515.273438 331.175781,515.273438 C330.436194,515.273438 329.829429,515.571612 329.355469,516.167969 C328.881508,516.764326 328.644531,517.51562 328.644531,518.421875 C328.644531,519.291671 328.872394,520.016924 329.328125,520.597656 C329.783856,521.178388 330.376298,521.46875 331.105469,521.46875 Z M344.496094,526 L337.371094,526 L337.371094,525.28125 L341.269531,520.859375 C341.915368,520.11458 342.36328,519.500002 342.613281,519.015625 C342.863282,518.531248 342.988281,518.059898 342.988281,517.601562 C342.988281,516.882809 342.777346,516.313804 342.355469,515.894531 C341.933592,515.475258 341.352868,515.265625 340.613281,515.265625 C339.847652,515.265625 339.229169,515.510414 338.757812,516 C338.286456,516.489586 338.050781,517.124996 338.050781,517.90625 L337.121094,517.90625 C337.121094,517.265622 337.265624,516.682294 337.554688,516.15625 C337.843751,515.630206 338.255206,515.217449 338.789062,514.917969 C339.322919,514.618488 339.930986,514.46875 340.613281,514.46875 C341.654953,514.46875 342.468747,514.742185 343.054688,515.289062 C343.640628,515.83594 343.933594,516.580724 343.933594,517.523438 C343.933594,518.05469 343.768231,518.635414 343.4375,519.265625 C343.106769,519.895836 342.524744,520.682287 341.691406,521.625 L338.519531,525.210938 L344.496094,525.210938 L344.496094,526 Z" id="path-7"></path>
        <path d="M171.050781,520.546875 L165.730469,520.546875 L165.730469,525.1875 L171.847656,525.1875 L171.847656,526 L164.769531,526 L164.769531,514.625 L171.808594,514.625 L171.808594,515.445312 L165.730469,515.445312 L165.730469,519.734375 L171.050781,519.734375 L171.050781,520.546875 Z M176.082031,519.804688 L177.050781,519.804688 C177.587242,519.804688 178.055988,519.709636 178.457031,519.519531 C178.858075,519.329426 179.164061,519.069012 179.375,518.738281 C179.585939,518.40755 179.691406,518.026044 179.691406,517.59375 C179.691406,516.86458 179.485679,516.294273 179.074219,515.882812 C178.662758,515.471352 178.071618,515.265625 177.300781,515.265625 C176.571611,515.265625 175.973961,515.480467 175.507812,515.910156 C175.041664,516.339846 174.808594,516.906246 174.808594,517.609375 L173.871094,517.609375 C173.871094,517.02083 174.01953,516.483075 174.316406,515.996094 C174.613283,515.509112 175.024737,515.132814 175.550781,514.867188 C176.076826,514.601561 176.660153,514.46875 177.300781,514.46875 C178.332036,514.46875 179.144528,514.749997 179.738281,515.3125 C180.332034,515.875003 180.628906,516.645828 180.628906,517.625 C180.628906,518.171878 180.455731,518.675779 180.109375,519.136719 C179.763019,519.597659 179.287763,519.942707 178.683594,520.171875 C179.391931,520.369793 179.928384,520.709633 180.292969,521.191406 C180.657554,521.673179 180.839844,522.247392 180.839844,522.914062 C180.839844,523.888026 180.522139,524.671872 179.886719,525.265625 C179.251299,525.859378 178.402349,526.15625 177.339844,526.15625 C176.662757,526.15625 176.041669,526.020835 175.476562,525.75 C174.911456,525.479165 174.47396,525.100263 174.164062,524.613281 C173.854165,524.1263 173.699219,523.559899 173.699219,522.914062 L174.636719,522.914062 C174.636719,523.638024 174.88932,524.227862 175.394531,524.683594 C175.899742,525.139325 176.548173,525.367188 177.339844,525.367188 C178.147139,525.367188 178.776039,525.160158 179.226562,524.746094 C179.677086,524.332029 179.902344,523.731775 179.902344,522.945312 C179.902344,522.184892 179.658857,521.604169 179.171875,521.203125 C178.684893,520.802081 177.967453,520.601562 177.019531,520.601562 L176.082031,520.601562 L176.082031,519.804688 Z M190.378906,515.164062 L185.519531,526 L184.542969,526 L189.371094,515.421875 L182.902344,515.421875 L182.902344,514.625 L190.378906,514.625 L190.378906,515.164062 Z" id="path-8"></path>
        <path d="M474.367188,524.546875 L469.046875,524.546875 L469.046875,529.1875 L475.164062,529.1875 L475.164062,530 L468.085938,530 L468.085938,518.625 L475.125,518.625 L475.125,519.445312 L469.046875,519.445312 L469.046875,523.734375 L474.367188,523.734375 L474.367188,524.546875 Z M481.671875,530 L480.734375,530 L480.734375,519.75 L477.640625,520.898438 L477.640625,520.023438 L481.515625,518.585938 L481.671875,518.585938 L481.671875,530 Z M492.429688,526.335938 L494.203125,526.335938 L494.203125,527.125 L492.429688,527.125 L492.429688,530 L491.492188,530 L491.492188,527.125 L486.140625,527.125 L486.140625,526.59375 L491.40625,518.625 L492.429688,518.625 L492.429688,526.335938 Z M487.289062,526.335938 L491.492188,526.335938 L491.492188,519.835938 L491.078125,520.554688 L487.289062,526.335938 Z M501.570312,518.539062 L501.570312,519.359375 L501.460938,519.359375 C500.101556,519.359375 499.031254,519.759111 498.25,520.558594 C497.468746,521.358077 497.036459,522.468743 496.953125,523.890625 C497.265627,523.458331 497.66406,523.123699 498.148438,522.886719 C498.632815,522.649738 499.174476,522.53125 499.773438,522.53125 C500.773442,522.53125 501.569007,522.876299 502.160156,523.566406 C502.751305,524.256514 503.046875,525.158849 503.046875,526.273438 C503.046875,527.013025 502.908856,527.679685 502.632812,528.273438 C502.356769,528.86719 501.96094,529.329425 501.445312,529.660156 C500.929685,529.990887 500.341149,530.15625 499.679688,530.15625 C498.59114,530.15625 497.705733,529.761723 497.023438,528.972656 C496.341142,528.18359 496,527.164069 496,525.914062 L496,524.976562 C496,522.940094 496.463537,521.363287 497.390625,520.246094 C498.317713,519.128901 499.632804,518.559896 501.335938,518.539062 L501.570312,518.539062 Z M499.625,523.335938 C499.031247,523.335938 498.477867,523.511717 497.964844,523.863281 C497.45182,524.214846 497.109376,524.661456 496.9375,525.203125 L496.9375,526 C496.9375,526.989588 497.191404,527.796872 497.699219,528.421875 C498.207034,529.046878 498.867183,529.359375 499.679688,529.359375 C500.408858,529.359375 500.998696,529.070315 501.449219,528.492188 C501.899742,527.91406 502.125,527.1849 502.125,526.304688 C502.125,525.40885 501.899742,524.690107 501.449219,524.148438 C500.998696,523.606768 500.390629,523.335938 499.625,523.335938 Z" id="path-9"></path>
        <path d="M372.367188,524.546875 L367.046875,524.546875 L367.046875,529.1875 L373.164062,529.1875 L373.164062,530 L366.085938,530 L366.085938,518.625 L373.125,518.625 L373.125,519.445312 L367.046875,519.445312 L367.046875,523.734375 L372.367188,523.734375 L372.367188,524.546875 Z M379.671875,530 L378.734375,530 L378.734375,519.75 L375.640625,520.898438 L375.640625,520.023438 L379.515625,518.585938 L379.671875,518.585938 L379.671875,530 Z M389.039062,530 L388.101562,530 L388.101562,519.75 L385.007812,520.898438 L385.007812,520.023438 L388.882812,518.585938 L389.039062,518.585938 L389.039062,530 Z M400.914062,525.257812 C400.914062,526.861987 400.619795,528.079423 400.03125,528.910156 C399.442705,529.74089 398.575527,530.15625 397.429688,530.15625 C396.304682,530.15625 395.442711,529.748702 394.84375,528.933594 C394.244789,528.118486 393.9375,526.932299 393.921875,525.375 L393.921875,523.335938 C393.921875,521.736971 394.218747,520.526046 394.8125,519.703125 C395.406253,518.880204 396.273432,518.46875 397.414062,518.46875 C398.539068,518.46875 399.398435,518.865881 399.992188,519.660156 C400.58594,520.454431 400.893229,521.624992 400.914062,523.171875 L400.914062,525.257812 Z M399.976562,523.21875 C399.976562,521.91666 399.764325,520.932295 399.339844,520.265625 C398.915362,519.598955 398.273442,519.265625 397.414062,519.265625 C396.570308,519.265625 395.934898,519.591143 395.507812,520.242188 C395.080727,520.893232 394.861979,521.85416 394.851562,523.125 L394.851562,525.359375 C394.851562,526.656256 395.071612,527.648434 395.511719,528.335938 C395.951825,529.023441 396.591142,529.367188 397.429688,529.367188 C398.263025,529.367188 398.894529,529.031253 399.324219,528.359375 C399.753908,527.687497 399.971354,526.703131 399.976562,525.40625 L399.976562,523.21875 Z" id="path-10"></path>
        <path d="M222.050781,520.546875 L216.730469,520.546875 L216.730469,525.1875 L222.847656,525.1875 L222.847656,526 L215.769531,526 L215.769531,514.625 L222.808594,514.625 L222.808594,515.445312 L216.730469,515.445312 L216.730469,519.734375 L222.050781,519.734375 L222.050781,520.546875 Z M225.636719,520.171875 L226.191406,514.625 L231.878906,514.625 L231.878906,515.492188 L226.996094,515.492188 L226.597656,519.335938 C227.207034,518.919269 227.920569,518.710938 228.738281,518.710938 C229.764328,518.710938 230.582028,519.044267 231.191406,519.710938 C231.800784,520.377608 232.105469,521.265619 232.105469,522.375 C232.105469,523.572923 231.808597,524.502601 231.214844,525.164062 C230.621091,525.825524 229.785162,526.15625 228.707031,526.15625 C227.717443,526.15625 226.915368,525.880211 226.300781,525.328125 C225.686195,524.776039 225.334636,524.002609 225.246094,523.007812 L226.144531,523.007812 C226.233073,523.783858 226.496092,524.371092 226.933594,524.769531 C227.371096,525.167971 227.962236,525.367188 228.707031,525.367188 C229.519535,525.367188 230.13281,525.109378 230.546875,524.59375 C230.96094,524.078122 231.167969,523.343755 231.167969,522.390625 C231.167969,521.557287 230.9362,520.877607 230.472656,520.351562 C230.009112,519.825518 229.376306,519.5625 228.574219,519.5625 C228.131508,519.5625 227.746094,519.618489 227.417969,519.730469 C227.089842,519.842448 226.743491,520.059894 226.378906,520.382812 L225.636719,520.171875 Z M239.886719,514.539062 L239.886719,515.359375 L239.777344,515.359375 C238.417962,515.359375 237.34766,515.759111 236.566406,516.558594 C235.785152,517.358077 235.352865,518.468743 235.269531,519.890625 C235.582033,519.458331 235.980466,519.123699 236.464844,518.886719 C236.949221,518.649738 237.490882,518.53125 238.089844,518.53125 C239.089849,518.53125 239.885414,518.876299 240.476562,519.566406 C241.067711,520.256514 241.363281,521.158849 241.363281,522.273438 C241.363281,523.013025 241.225262,523.679685 240.949219,524.273438 C240.673176,524.86719 240.277346,525.329425 239.761719,525.660156 C239.246091,525.990887 238.657555,526.15625 237.996094,526.15625 C236.907547,526.15625 236.022139,525.761723 235.339844,524.972656 C234.657549,524.18359 234.316406,523.164069 234.316406,521.914062 L234.316406,520.976562 C234.316406,518.940094 234.779943,517.363287 235.707031,516.246094 C236.634119,515.128901 237.94921,514.559896 239.652344,514.539062 L239.886719,514.539062 Z M237.941406,519.335938 C237.347653,519.335938 236.794273,519.511717 236.28125,519.863281 C235.768227,520.214846 235.425782,520.661456 235.253906,521.203125 L235.253906,522 C235.253906,522.989588 235.50781,523.796872 236.015625,524.421875 C236.52344,525.046878 237.18359,525.359375 237.996094,525.359375 C238.725264,525.359375 239.315102,525.070315 239.765625,524.492188 C240.216148,523.91406 240.441406,523.1849 240.441406,522.304688 C240.441406,521.40885 240.216148,520.690107 239.765625,520.148438 C239.315102,519.606768 238.707035,519.335938 237.941406,519.335938 Z" id="path-11"></path>
        <path d="M577.367188,524.546875 L572.046875,524.546875 L572.046875,529.1875 L578.164062,529.1875 L578.164062,530 L571.085938,530 L571.085938,518.625 L578.125,518.625 L578.125,519.445312 L572.046875,519.445312 L572.046875,523.734375 L577.367188,523.734375 L577.367188,524.546875 Z M584.671875,530 L583.734375,530 L583.734375,519.75 L580.640625,520.898438 L580.640625,520.023438 L584.515625,518.585938 L584.671875,518.585938 L584.671875,530 Z M596.390625,521.554688 C596.390625,522.143232 596.218752,522.670571 595.875,523.136719 C595.531248,523.602867 595.078128,523.945311 594.515625,524.164062 C595.171878,524.388022 595.697915,524.749997 596.09375,525.25 C596.489585,525.750003 596.6875,526.328122 596.6875,526.984375 C596.6875,527.958338 596.356774,528.730466 595.695312,529.300781 C595.033851,529.871097 594.15886,530.15625 593.070312,530.15625 C591.971349,530.15625 591.092451,529.872399 590.433594,529.304688 C589.774736,528.736976 589.445312,527.963547 589.445312,526.984375 C589.445312,526.338538 589.635415,525.763023 590.015625,525.257812 C590.395835,524.752602 590.916663,524.388022 591.578125,524.164062 C591.015622,523.945311 590.56771,523.602867 590.234375,523.136719 C589.90104,522.670571 589.734375,522.143232 589.734375,521.554688 C589.734375,520.611974 590.037757,519.861982 590.644531,519.304688 C591.251305,518.747393 592.054683,518.46875 593.054688,518.46875 C594.054692,518.46875 594.860674,518.749997 595.472656,519.3125 C596.084638,519.875003 596.390625,520.622391 596.390625,521.554688 Z M595.75,526.992188 C595.75,526.283851 595.497398,525.701825 594.992188,525.246094 C594.486977,524.790362 593.84115,524.5625 593.054688,524.5625 C592.268225,524.5625 591.625003,524.786456 591.125,525.234375 C590.624997,525.682294 590.375,526.268226 590.375,526.992188 C590.375,527.716149 590.617185,528.292967 591.101562,528.722656 C591.58594,529.152346 592.242183,529.367188 593.070312,529.367188 C593.877608,529.367188 594.526039,529.153648 595.015625,528.726562 C595.505211,528.299477 595.75,527.721358 595.75,526.992188 Z M595.453125,521.546875 C595.453125,520.89583 595.227867,520.352867 594.777344,519.917969 C594.326821,519.483071 593.752608,519.265625 593.054688,519.265625 C592.346351,519.265625 591.772138,519.475258 591.332031,519.894531 C590.891925,520.313804 590.671875,520.86458 590.671875,521.546875 C590.671875,522.213545 590.891925,522.749998 591.332031,523.15625 C591.772138,523.562502 592.348955,523.765625 593.0625,523.765625 C593.765629,523.765625 594.339842,523.5612 594.785156,523.152344 C595.230471,522.743488 595.453125,522.208337 595.453125,521.546875 Z M606.179688,530 L599.054688,530 L599.054688,529.28125 L602.953125,524.859375 C603.598962,524.11458 604.046874,523.500002 604.296875,523.015625 C604.546876,522.531248 604.671875,522.059898 604.671875,521.601562 C604.671875,520.882809 604.46094,520.313804 604.039062,519.894531 C603.617185,519.475258 603.036462,519.265625 602.296875,519.265625 C601.531246,519.265625 600.912763,519.510414 600.441406,520 C599.97005,520.489586 599.734375,521.124996 599.734375,521.90625 L598.804688,521.90625 C598.804688,521.265622 598.949217,520.682294 599.238281,520.15625 C599.527345,519.630206 599.938799,519.217449 600.472656,518.917969 C601.006513,518.618488 601.61458,518.46875 602.296875,518.46875 C603.338547,518.46875 604.152341,518.742185 604.738281,519.289062 C605.324222,519.83594 605.617188,520.580724 605.617188,521.523438 C605.617188,522.05469 605.451825,522.635414 605.121094,523.265625 C604.790363,523.895836 604.208337,524.682287 603.375,525.625 L600.203125,529.210938 L606.179688,529.210938 L606.179688,530 Z" id="path-12"></path>
        <path d="M526.367188,524.546875 L521.046875,524.546875 L521.046875,529.1875 L527.164062,529.1875 L527.164062,530 L520.085938,530 L520.085938,518.625 L527.125,518.625 L527.125,519.445312 L521.046875,519.445312 L521.046875,523.734375 L526.367188,523.734375 L526.367188,524.546875 Z M533.671875,530 L532.734375,530 L532.734375,519.75 L529.640625,520.898438 L529.640625,520.023438 L533.515625,518.585938 L533.671875,518.585938 L533.671875,530 Z M544.203125,518.539062 L544.203125,519.359375 L544.09375,519.359375 C542.734368,519.359375 541.664066,519.759111 540.882812,520.558594 C540.101559,521.358077 539.669271,522.468743 539.585938,523.890625 C539.898439,523.458331 540.296873,523.123699 540.78125,522.886719 C541.265627,522.649738 541.807289,522.53125 542.40625,522.53125 C543.406255,522.53125 544.20182,522.876299 544.792969,523.566406 C545.384118,524.256514 545.679688,525.158849 545.679688,526.273438 C545.679688,527.013025 545.541668,527.679685 545.265625,528.273438 C544.989582,528.86719 544.593753,529.329425 544.078125,529.660156 C543.562497,529.990887 542.973962,530.15625 542.3125,530.15625 C541.223953,530.15625 540.338545,529.761723 539.65625,528.972656 C538.973955,528.18359 538.632812,527.164069 538.632812,525.914062 L538.632812,524.976562 C538.632812,522.940094 539.09635,521.363287 540.023438,520.246094 C540.950525,519.128901 542.265616,518.559896 543.96875,518.539062 L544.203125,518.539062 Z M542.257812,523.335938 C541.66406,523.335938 541.11068,523.511717 540.597656,523.863281 C540.084633,524.214846 539.742188,524.661456 539.570312,525.203125 L539.570312,526 C539.570312,526.989588 539.824216,527.796872 540.332031,528.421875 C540.839846,529.046878 541.499996,529.359375 542.3125,529.359375 C543.04167,529.359375 543.631508,529.070315 544.082031,528.492188 C544.532554,527.91406 544.757812,527.1849 544.757812,526.304688 C544.757812,525.40885 544.532554,524.690107 544.082031,524.148438 C543.631508,523.606768 543.023441,523.335938 542.257812,523.335938 Z M553.796875,526.335938 L555.570312,526.335938 L555.570312,527.125 L553.796875,527.125 L553.796875,530 L552.859375,530 L552.859375,527.125 L547.507812,527.125 L547.507812,526.59375 L552.773438,518.625 L553.796875,518.625 L553.796875,526.335938 Z M548.65625,526.335938 L552.859375,526.335938 L552.859375,519.835938 L552.445312,520.554688 L548.65625,526.335938 Z" id="path-13"></path>
        <path d="M423.367188,524.546875 L418.046875,524.546875 L418.046875,529.1875 L424.164062,529.1875 L424.164062,530 L417.085938,530 L417.085938,518.625 L424.125,518.625 L424.125,519.445312 L418.046875,519.445312 L418.046875,523.734375 L423.367188,523.734375 L423.367188,524.546875 Z M430.671875,530 L429.734375,530 L429.734375,519.75 L426.640625,520.898438 L426.640625,520.023438 L430.515625,518.585938 L430.671875,518.585938 L430.671875,530 Z M442.8125,530 L435.6875,530 L435.6875,529.28125 L439.585938,524.859375 C440.231774,524.11458 440.679686,523.500002 440.929688,523.015625 C441.179689,522.531248 441.304688,522.059898 441.304688,521.601562 C441.304688,520.882809 441.093752,520.313804 440.671875,519.894531 C440.249998,519.475258 439.669275,519.265625 438.929688,519.265625 C438.164059,519.265625 437.545575,519.510414 437.074219,520 C436.602862,520.489586 436.367188,521.124996 436.367188,521.90625 L435.4375,521.90625 C435.4375,521.265622 435.58203,520.682294 435.871094,520.15625 C436.160158,519.630206 436.571612,519.217449 437.105469,518.917969 C437.639326,518.618488 438.247392,518.46875 438.929688,518.46875 C439.971359,518.46875 440.785153,518.742185 441.371094,519.289062 C441.957034,519.83594 442.25,520.580724 442.25,521.523438 C442.25,522.05469 442.084637,522.635414 441.753906,523.265625 C441.423175,523.895836 440.84115,524.682287 440.007812,525.625 L436.835938,529.210938 L442.8125,529.210938 L442.8125,530 Z M451.757812,521.554688 C451.757812,522.143232 451.585939,522.670571 451.242188,523.136719 C450.898436,523.602867 450.445315,523.945311 449.882812,524.164062 C450.539066,524.388022 451.065102,524.749997 451.460938,525.25 C451.856773,525.750003 452.054688,526.328122 452.054688,526.984375 C452.054688,527.958338 451.723962,528.730466 451.0625,529.300781 C450.401038,529.871097 449.526047,530.15625 448.4375,530.15625 C447.338536,530.15625 446.459639,529.872399 445.800781,529.304688 C445.141924,528.736976 444.8125,527.963547 444.8125,526.984375 C444.8125,526.338538 445.002602,525.763023 445.382812,525.257812 C445.763023,524.752602 446.283851,524.388022 446.945312,524.164062 C446.38281,523.945311 445.934898,523.602867 445.601562,523.136719 C445.268227,522.670571 445.101562,522.143232 445.101562,521.554688 C445.101562,520.611974 445.404945,519.861982 446.011719,519.304688 C446.618493,518.747393 447.42187,518.46875 448.421875,518.46875 C449.42188,518.46875 450.227862,518.749997 450.839844,519.3125 C451.451826,519.875003 451.757812,520.622391 451.757812,521.554688 Z M451.117188,526.992188 C451.117188,526.283851 450.864586,525.701825 450.359375,525.246094 C449.854164,524.790362 449.208337,524.5625 448.421875,524.5625 C447.635413,524.5625 446.99219,524.786456 446.492188,525.234375 C445.992185,525.682294 445.742188,526.268226 445.742188,526.992188 C445.742188,527.716149 445.984373,528.292967 446.46875,528.722656 C446.953127,529.152346 447.609371,529.367188 448.4375,529.367188 C449.244796,529.367188 449.893227,529.153648 450.382812,528.726562 C450.872398,528.299477 451.117188,527.721358 451.117188,526.992188 Z M450.820312,521.546875 C450.820312,520.89583 450.595054,520.352867 450.144531,519.917969 C449.694008,519.483071 449.119795,519.265625 448.421875,519.265625 C447.713538,519.265625 447.139325,519.475258 446.699219,519.894531 C446.259112,520.313804 446.039062,520.86458 446.039062,521.546875 C446.039062,522.213545 446.259112,522.749998 446.699219,523.15625 C447.139325,523.562502 447.716142,523.765625 448.429688,523.765625 C449.132816,523.765625 449.707029,523.5612 450.152344,523.152344 C450.597658,522.743488 450.820312,522.208337 450.820312,521.546875 Z" id="path-14"></path>
        <path d="M274.050781,520.546875 L268.730469,520.546875 L268.730469,525.1875 L274.847656,525.1875 L274.847656,526 L267.769531,526 L267.769531,514.625 L274.808594,514.625 L274.808594,515.445312 L268.730469,515.445312 L268.730469,519.734375 L274.050781,519.734375 L274.050781,520.546875 Z M284.011719,515.164062 L279.152344,526 L278.175781,526 L283.003906,515.421875 L276.535156,515.421875 L276.535156,514.625 L284.011719,514.625 L284.011719,515.164062 Z M292.113281,522.335938 L293.886719,522.335938 L293.886719,523.125 L292.113281,523.125 L292.113281,526 L291.175781,526 L291.175781,523.125 L285.824219,523.125 L285.824219,522.59375 L291.089844,514.625 L292.113281,514.625 L292.113281,522.335938 Z M286.972656,522.335938 L291.175781,522.335938 L291.175781,515.835938 L290.761719,516.554688 L286.972656,522.335938 Z" id="path-15"></path>
        <path d="M629.367188,524.546875 L624.046875,524.546875 L624.046875,529.1875 L630.164062,529.1875 L630.164062,530 L623.085938,530 L623.085938,518.625 L630.125,518.625 L630.125,519.445312 L624.046875,519.445312 L624.046875,523.734375 L629.367188,523.734375 L629.367188,524.546875 Z M639.445312,530 L632.320312,530 L632.320312,529.28125 L636.21875,524.859375 C636.864587,524.11458 637.312499,523.500002 637.5625,523.015625 C637.812501,522.531248 637.9375,522.059898 637.9375,521.601562 C637.9375,520.882809 637.726565,520.313804 637.304688,519.894531 C636.88281,519.475258 636.302087,519.265625 635.5625,519.265625 C634.796871,519.265625 634.178388,519.510414 633.707031,520 C633.235675,520.489586 633,521.124996 633,521.90625 L632.070312,521.90625 C632.070312,521.265622 632.214842,520.682294 632.503906,520.15625 C632.79297,519.630206 633.204424,519.217449 633.738281,518.917969 C634.272138,518.618488 634.880205,518.46875 635.5625,518.46875 C636.604172,518.46875 637.417966,518.742185 638.003906,519.289062 C638.589847,519.83594 638.882812,520.580724 638.882812,521.523438 C638.882812,522.05469 638.71745,522.635414 638.386719,523.265625 C638.055988,523.895836 637.473962,524.682287 636.640625,525.625 L633.46875,529.210938 L639.445312,529.210938 L639.445312,530 Z M648.546875,525.257812 C648.546875,526.861987 648.252607,528.079423 647.664062,528.910156 C647.075518,529.74089 646.208339,530.15625 645.0625,530.15625 C643.937494,530.15625 643.075524,529.748702 642.476562,528.933594 C641.877601,528.118486 641.570313,526.932299 641.554688,525.375 L641.554688,523.335938 C641.554688,521.736971 641.85156,520.526046 642.445312,519.703125 C643.039065,518.880204 643.906244,518.46875 645.046875,518.46875 C646.171881,518.46875 647.031247,518.865881 647.625,519.660156 C648.218753,520.454431 648.526042,521.624992 648.546875,523.171875 L648.546875,525.257812 Z M647.609375,523.21875 C647.609375,521.91666 647.397138,520.932295 646.972656,520.265625 C646.548175,519.598955 645.906254,519.265625 645.046875,519.265625 C644.203121,519.265625 643.56771,519.591143 643.140625,520.242188 C642.71354,520.893232 642.494792,521.85416 642.484375,523.125 L642.484375,525.359375 C642.484375,526.656256 642.704425,527.648434 643.144531,528.335938 C643.584638,529.023441 644.223954,529.367188 645.0625,529.367188 C645.895837,529.367188 646.527342,529.031253 646.957031,528.359375 C647.386721,527.687497 647.604167,526.703131 647.609375,525.40625 L647.609375,523.21875 Z M657.914062,525.257812 C657.914062,526.861987 657.619795,528.079423 657.03125,528.910156 C656.442705,529.74089 655.575527,530.15625 654.429688,530.15625 C653.304682,530.15625 652.442711,529.748702 651.84375,528.933594 C651.244789,528.118486 650.9375,526.932299 650.921875,525.375 L650.921875,523.335938 C650.921875,521.736971 651.218747,520.526046 651.8125,519.703125 C652.406253,518.880204 653.273432,518.46875 654.414062,518.46875 C655.539068,518.46875 656.398435,518.865881 656.992188,519.660156 C657.58594,520.454431 657.893229,521.624992 657.914062,523.171875 L657.914062,525.257812 Z M656.976562,523.21875 C656.976562,521.91666 656.764325,520.932295 656.339844,520.265625 C655.915362,519.598955 655.273442,519.265625 654.414062,519.265625 C653.570308,519.265625 652.934898,519.591143 652.507812,520.242188 C652.080727,520.893232 651.861979,521.85416 651.851562,523.125 L651.851562,525.359375 C651.851562,526.656256 652.071612,527.648434 652.511719,528.335938 C652.951825,529.023441 653.591142,529.367188 654.429688,529.367188 C655.263025,529.367188 655.894529,529.031253 656.324219,528.359375 C656.753908,527.687497 656.971354,526.703131 656.976562,525.40625 L656.976562,523.21875 Z" id="path-16"></path>
        <path d="M680.367188,524.546875 L675.046875,524.546875 L675.046875,529.1875 L681.164062,529.1875 L681.164062,530 L674.085938,530 L674.085938,518.625 L681.125,518.625 L681.125,519.445312 L675.046875,519.445312 L675.046875,523.734375 L680.367188,523.734375 L680.367188,524.546875 Z M690.445312,530 L683.320312,530 L683.320312,529.28125 L687.21875,524.859375 C687.864587,524.11458 688.312499,523.500002 688.5625,523.015625 C688.812501,522.531248 688.9375,522.059898 688.9375,521.601562 C688.9375,520.882809 688.726565,520.313804 688.304688,519.894531 C687.88281,519.475258 687.302087,519.265625 686.5625,519.265625 C685.796871,519.265625 685.178388,519.510414 684.707031,520 C684.235675,520.489586 684,521.124996 684,521.90625 L683.070312,521.90625 C683.070312,521.265622 683.214842,520.682294 683.503906,520.15625 C683.79297,519.630206 684.204424,519.217449 684.738281,518.917969 C685.272138,518.618488 685.880205,518.46875 686.5625,518.46875 C687.604172,518.46875 688.417966,518.742185 689.003906,519.289062 C689.589847,519.83594 689.882812,520.580724 689.882812,521.523438 C689.882812,522.05469 689.71745,522.635414 689.386719,523.265625 C689.055988,523.895836 688.473962,524.682287 687.640625,525.625 L684.46875,529.210938 L690.445312,529.210938 L690.445312,530 Z M697.039062,530 L696.101562,530 L696.101562,519.75 L693.007812,520.898438 L693.007812,520.023438 L696.882812,518.585938 L697.039062,518.585938 L697.039062,530 Z M708.757812,521.554688 C708.757812,522.143232 708.585939,522.670571 708.242188,523.136719 C707.898436,523.602867 707.445315,523.945311 706.882812,524.164062 C707.539066,524.388022 708.065102,524.749997 708.460938,525.25 C708.856773,525.750003 709.054688,526.328122 709.054688,526.984375 C709.054688,527.958338 708.723962,528.730466 708.0625,529.300781 C707.401038,529.871097 706.526047,530.15625 705.4375,530.15625 C704.338536,530.15625 703.459639,529.872399 702.800781,529.304688 C702.141924,528.736976 701.8125,527.963547 701.8125,526.984375 C701.8125,526.338538 702.002602,525.763023 702.382812,525.257812 C702.763023,524.752602 703.283851,524.388022 703.945312,524.164062 C703.38281,523.945311 702.934898,523.602867 702.601562,523.136719 C702.268227,522.670571 702.101562,522.143232 702.101562,521.554688 C702.101562,520.611974 702.404945,519.861982 703.011719,519.304688 C703.618493,518.747393 704.42187,518.46875 705.421875,518.46875 C706.42188,518.46875 707.227862,518.749997 707.839844,519.3125 C708.451826,519.875003 708.757812,520.622391 708.757812,521.554688 Z M708.117188,526.992188 C708.117188,526.283851 707.864586,525.701825 707.359375,525.246094 C706.854164,524.790362 706.208337,524.5625 705.421875,524.5625 C704.635413,524.5625 703.99219,524.786456 703.492188,525.234375 C702.992185,525.682294 702.742188,526.268226 702.742188,526.992188 C702.742188,527.716149 702.984373,528.292967 703.46875,528.722656 C703.953127,529.152346 704.609371,529.367188 705.4375,529.367188 C706.244796,529.367188 706.893227,529.153648 707.382812,528.726562 C707.872398,528.299477 708.117188,527.721358 708.117188,526.992188 Z M707.820312,521.546875 C707.820312,520.89583 707.595054,520.352867 707.144531,519.917969 C706.694008,519.483071 706.119795,519.265625 705.421875,519.265625 C704.713538,519.265625 704.139325,519.475258 703.699219,519.894531 C703.259112,520.313804 703.039062,520.86458 703.039062,521.546875 C703.039062,522.213545 703.259112,522.749998 703.699219,523.15625 C704.139325,523.562502 704.716142,523.765625 705.429688,523.765625 C706.132816,523.765625 706.707029,523.5612 707.152344,523.152344 C707.597658,522.743488 707.820312,522.208337 707.820312,521.546875 Z" id="path-17"></path>
        <path d="M732.367188,524.546875 L727.046875,524.546875 L727.046875,529.1875 L733.164062,529.1875 L733.164062,530 L726.085938,530 L726.085938,518.625 L733.125,518.625 L733.125,519.445312 L727.046875,519.445312 L727.046875,523.734375 L732.367188,523.734375 L732.367188,524.546875 Z M742.445312,530 L735.320312,530 L735.320312,529.28125 L739.21875,524.859375 C739.864587,524.11458 740.312499,523.500002 740.5625,523.015625 C740.812501,522.531248 740.9375,522.059898 740.9375,521.601562 C740.9375,520.882809 740.726565,520.313804 740.304688,519.894531 C739.88281,519.475258 739.302087,519.265625 738.5625,519.265625 C737.796871,519.265625 737.178388,519.510414 736.707031,520 C736.235675,520.489586 736,521.124996 736,521.90625 L735.070312,521.90625 C735.070312,521.265622 735.214842,520.682294 735.503906,520.15625 C735.79297,519.630206 736.204424,519.217449 736.738281,518.917969 C737.272138,518.618488 737.880205,518.46875 738.5625,518.46875 C739.604172,518.46875 740.417966,518.742185 741.003906,519.289062 C741.589847,519.83594 741.882812,520.580724 741.882812,521.523438 C741.882812,522.05469 741.71745,522.635414 741.386719,523.265625 C741.055988,523.895836 740.473962,524.682287 739.640625,525.625 L736.46875,529.210938 L742.445312,529.210938 L742.445312,530 Z M746.765625,523.804688 L747.734375,523.804688 C748.270836,523.804688 748.739581,523.709636 749.140625,523.519531 C749.541669,523.329426 749.847655,523.069012 750.058594,522.738281 C750.269532,522.40755 750.375,522.026044 750.375,521.59375 C750.375,520.86458 750.169273,520.294273 749.757812,519.882812 C749.346352,519.471352 748.755212,519.265625 747.984375,519.265625 C747.255205,519.265625 746.657554,519.480467 746.191406,519.910156 C745.725258,520.339846 745.492188,520.906246 745.492188,521.609375 L744.554688,521.609375 C744.554688,521.02083 744.703124,520.483075 745,519.996094 C745.296876,519.509112 745.708331,519.132814 746.234375,518.867188 C746.760419,518.601561 747.343747,518.46875 747.984375,518.46875 C749.01563,518.46875 749.828122,518.749997 750.421875,519.3125 C751.015628,519.875003 751.3125,520.645828 751.3125,521.625 C751.3125,522.171878 751.139325,522.675779 750.792969,523.136719 C750.446613,523.597659 749.971357,523.942707 749.367188,524.171875 C750.075524,524.369793 750.611977,524.709633 750.976562,525.191406 C751.341148,525.673179 751.523438,526.247392 751.523438,526.914062 C751.523438,527.888026 751.205732,528.671872 750.570312,529.265625 C749.934893,529.859378 749.085943,530.15625 748.023438,530.15625 C747.346351,530.15625 746.725263,530.020835 746.160156,529.75 C745.595049,529.479165 745.157554,529.100263 744.847656,528.613281 C744.537759,528.1263 744.382812,527.559899 744.382812,526.914062 L745.320312,526.914062 C745.320312,527.638024 745.572914,528.227862 746.078125,528.683594 C746.583336,529.139325 747.231767,529.367188 748.023438,529.367188 C748.830733,529.367188 749.459633,529.160158 749.910156,528.746094 C750.360679,528.332029 750.585938,527.731775 750.585938,526.945312 C750.585938,526.184892 750.34245,525.604169 749.855469,525.203125 C749.368487,524.802081 748.651046,524.601562 747.703125,524.601562 L746.765625,524.601562 L746.765625,523.804688 Z M754.6875,524.171875 L755.242188,518.625 L760.929688,518.625 L760.929688,519.492188 L756.046875,519.492188 L755.648438,523.335938 C756.257816,522.919269 756.97135,522.710938 757.789062,522.710938 C758.815109,522.710938 759.632809,523.044267 760.242188,523.710938 C760.851566,524.377608 761.15625,525.265619 761.15625,526.375 C761.15625,527.572923 760.859378,528.502601 760.265625,529.164062 C759.671872,529.825524 758.835943,530.15625 757.757812,530.15625 C756.768224,530.15625 755.966149,529.880211 755.351562,529.328125 C754.736976,528.776039 754.385417,528.002609 754.296875,527.007812 L755.195312,527.007812 C755.283855,527.783858 755.546873,528.371092 755.984375,528.769531 C756.421877,529.167971 757.013017,529.367188 757.757812,529.367188 C758.570317,529.367188 759.183592,529.109378 759.597656,528.59375 C760.011721,528.078122 760.21875,527.343755 760.21875,526.390625 C760.21875,525.557287 759.986981,524.877607 759.523438,524.351562 C759.059894,523.825518 758.427087,523.5625 757.625,523.5625 C757.182289,523.5625 756.796875,523.618489 756.46875,523.730469 C756.140623,523.842448 755.794273,524.059894 755.429688,524.382812 L754.6875,524.171875 Z" id="path-18"></path>
    </defs>
    <g id="Welcome" stroke="none" stroke-width="1" fill="none" fill-rule="evenodd">
        <g id="Friends" transform="translate(-350.000000, -8593.000000)">
            <g id="Group-28" transform="translate(342.000000, 8593.000000)">
                <g id="Group-24">
                    <g id="Group-20">
                        <g id="Group-12" transform="translate(0.000000, 11.000000)">
                            <path d="M68,486 L750,486" id="Path-Copy-7" stroke="#000000" opacity="0.300000012"></path>
                            <path d="M68,349 L750,349" id="Path-Copy-8" stroke="#000000" opacity="0.300000012" stroke-dasharray="6,9"></path>
                            <path d="M68,215 L750,215" id="Path-Copy-9" stroke="#000000" opacity="0.300000012" stroke-dasharray="6,9"></path>
                            <path d="M68,78 L750,78" id="Path-Copy-10" stroke="#000000" opacity="0.300000012" stroke-dasharray="6,9"></path>
                            <g id="0" fill-rule="nonzero" fill="#000000">
                                <use xlink:href="#path-1"></use>
                                <use xlink:href="#path-1"></use>
                            </g>
                            <g id="50" fill-rule="nonzero" fill="#000000">
                                <use xlink:href="#path-2"></use>
                                <use xlink:href="#path-2"></use>
                            </g>
                            <g id="100" fill-rule="nonzero" fill="#000000">
                                <use xlink:href="#path-3"></use>
                                <use xlink:href="#path-3"></use>
                            </g>
                            <g id="150" fill-rule="nonzero" fill="#000000">
                                <use xlink:href="#path-4"></use>
                                <use xlink:href="#path-4"></use>
                            </g>
                            <path d="M68,219.72279 L71.0089317,259.828989 L74.1343956,108.445519 L76.676037,269.678397 L80.2687913,244.505029 L83.1023439,285.320425 L85.8774369,214.076922 L91.8368406,263.812715 L94.6994295,228.447937 C97.2701071,224.912026 98.5554459,223.14407 98.5554459,223.14407 C98.5554459,223.14407 99.3247135,238.655512 100.863249,269.678397 L103.784297,199.803531 L106.529967,243.234015 L109.655818,257.531969 L113.248959,230.353827 L115.81925,230.353827 L118.828181,174.703224 L121.16502,242.061257 L125.166992,259.828989 L127.562291,202.614498 L130.688142,201.514171 L133.930525,170.572746 L135.82911,253.010362 L139.480711,226.125724 L142.431183,230.353827 L148.974409,214.076922 L151.657748,302.605701 L154.403417,260.861293 L160.421281,275.843252 L163.400789,259.828989 L166.146459,298.890916 L169.126354,251.158638 L172.193358,311.01278 L178.532169,237.961011 L184.433113,226.125724 L186.740916,267.606859 L190.655005,273.961295 L194.263632,237.961011 L196.2501,206.673805 L202.297,173.288608 L204.809218,209.729149 L208.197557,191.007842 L211.293984,251.158638 L213.630823,189.541579 L217.340884,219.72279 L226.104417,130.88476 L231.50826,244.505029 L235.627152,226.125724 L237.175365,201.514171 L240.681011,191.007842 L243.864935,212.686239 L246.928842,130.88476 L249.587015,174.703224 L253.238616,181.635222 L255.89679,145.414494 L262.002149,199.803531 L264.309952,99.0508543 L267.669254,134.26951 L270.834595,141.528394 L274.3294,181.635222 L276.607779,201.514171 L279.412296,135.540523 L283.00505,148.151771 L285.809566,148.151771 L286.569155,124.908856 L291.756968,78.2901319 L294.590521,90.7546273 L297.307154,185.045795 L300.28705,106.836283 L303.237135,100.726224 L306.68432,105.761149 L309.167115,142.78807 L311.971631,101.679798 L315.88572,95.9117414 L318.427362,129.296938 L321.173031,57.4916191 L323.305455,90.7546273 L324.152539,105.761149 L327.307427,55.8786038 L329.732149,80.4655926 L333.32529,80.4655926 L335.779048,110.111441 L338.930451,285.320425 L345.165119,48.8779536 L347.823293,166.778602 L351.533353,145.414494 L354.600358,144.415571 L357.083539,96.7569841 L360.004588,170.572746 C361.367873,131.838965 362.224766,112.472074 362.575266,112.472074 C362.925766,112.472074 364.035725,133.215791 365.905145,174.703224 L368.651201,145.414494 L372.477794,138.110262 L374.676034,221.566326 L377.684965,122.582864 L383.381107,199.803531 L386.506571,164.057701 C388.551498,178.049764 389.573962,185.045795 389.573962,185.045795 C389.573962,185.045795 390.791163,199.231428 393.225563,227.602694 L395.942197,133.434344 L398.488871,201.514171 L403.040596,185.045795 L404.851685,166.778602 L407.80177,218.413357 L410.898198,163.202381 L413.614831,243.234015 L416.448384,188.205063 L419.924606,161.02755 L422.991997,163.202381 C424.647193,148.753056 425.474792,141.528394 425.474792,141.528394 C425.474792,141.528394 427.470938,162.643295 431.463232,204.873098 L433.975449,169.043499 L437.247256,141.528394 C442.914103,158.361866 445.523625,166.778602 445.075821,166.778602 C444.628017,166.778602 445.981495,178.723901 449.136253,202.614498 L452.554015,188.205063 L455.270649,240.800951 L458.308617,153.255349 L461.667919,153.255349 L464.297057,184.099149 L466.95523,129.296938 C469.177989,169.460032 470.289368,189.541579 470.289368,189.541579 C470.289368,189.541579 471.146261,157.614458 472.860046,93.7602146 L475.956473,139.267905 L482.646042,116.22087 L485.654587,84.2773726 L488.342184,237.961011 C490.250577,150.544525 491.204773,106.836283 491.204773,106.836283 C491.204773,106.836283 493.191241,144.465118 497.164177,219.72279 L499.88081,119.519962 L506.073665,202.614498 L508.614919,141.528394 L512.178637,142.78807 L517.875166,210.535972 C519.19922,194.173619 519.861247,185.676893 519.861247,185.045795 C519.861247,184.414698 520.241041,178.325633 521.00063,166.778602 L522.548844,201.514171 L523.688227,220.65432 C525.732897,182.923241 526.755231,164.057701 526.755231,164.057701 C526.755231,164.057701 527.682714,193.708588 529.53768,253.010362 L532.867947,196.950995 L535.161037,311.01278 L538.344961,336.201894 L542.084058,333.048924 L547.342333,191.007842 L550.876627,185.045795 L553.593261,204.873098 L556.56038,158.302241 L559.832187,218.413357 L562.461324,150.530669 L565.586788,212.686239 L568.157466,149.259656 L571.545805,141.528394 L574.817611,154.294581 L576.96978,246.073955 L580.183127,319.174851 L583.542429,242.061257 L587.077111,234.733091 L589.618365,234.733091 L592.861136,251.158638 L595.285471,325.334038 C597.232836,288.230277 598.206519,269.678397 598.206519,269.678397 C598.206519,269.678397 599.170523,266.739362 601.098531,260.861293 L604.720709,273.129279 L607.817137,273.129279 C609.433618,311.614485 610.241859,330.857088 610.241859,330.857088 C610.241859,330.857088 612.286657,333.586386 616.376254,339.044983 L622.276811,286.229281 L625.022868,319.174851 L628.002376,281.610049 L631.24476,322.400882 L634.136772,395.228428 L639.716381,243.234015 L643.075684,403 L645.963438,198.95199 L648.680071,267.606859 C650.647052,244.094164 651.630543,232.337817 651.630543,232.337817 C651.630543,232.337817 652.75031,256.656075 654.989846,305.29259 L658.319725,255.996424 L661.065781,316.510636 L663.723955,255.996424 L666.353092,305.29259 L670.150649,291.776895 L672.429028,239.718889 L675.817367,259.828989 L679.17667,247.441963 L682.156565,218.413357 L684.63936,330.857088 L690.453582,185.045795 L693.170216,251.158638 L697.026232,281.610049 L699.654982,183.001341 L702.576418,309.309697 L705.330605,90.7546273 L707.988778,176.156261 C710.01409,162.315359 711.026746,155.879464 711.026746,156.848575 C711.026746,157.817686 712.263304,165.117089 714.73642,178.746785 L716.927303,110.111441 L719.848739,161.02755 L723.821288,171.659217 L726.18755,118.47695 L729.196482,208.344135 L732.292909,65.3438103 L734.658784,101.679798 L737.901168,181.635222 L741.172974,202.614498 L744.590737,203.675776 L747.808342,234.733091 L750,5.68434189e-14" id="Path-2-Copy" stroke="#2D3358" stroke-width="2" opacity="0.900000036" stroke-linecap="round" stroke-linejoin="round"></path>
                        </g>
                        <path d="M345,48 C348.865993,48 352,51.1340068 352,55 C352,58.8659932 348.865993,62 345,62 C341.134007,62 338,58.8659932 338,55 C338,51.1340068 341.134007,48 345,48 Z" id="Rectangle-Copy-61" fill="#2D3358" opacity="0.429999977" transform="translate(345.000000, 55.000000) rotate(-90.000000) translate(-345.000000, -55.000000) "></path>
                        <path d="M750,0 C753.865993,-7.10171439e-16 757,3.13400675 757,7 C757,10.8659932 753.865993,14 750,14 C746.134007,14 743,10.8659932 743,7 C743,3.13400675 746.134007,7.10171439e-16 750,0 Z" id="Rectangle-Copy-64" fill="#2D3358" opacity="0.699999988" transform="translate(750.000000, 7.000000) rotate(-90.000000) translate(-750.000000, -7.000000) "></path>
                        <path d="M643,411 C646.865993,411 650,414.134007 650,418 C650,421.865993 646.865993,425 643,425 C639.134007,425 636,421.865993 636,418 C636,414.134007 639.134007,411 643,411 Z" id="Rectangle-Copy-65" fill="#B9404C" opacity="0.900000036" transform="translate(643.000000, 418.000000) rotate(-90.000000) translate(-643.000000, -418.000000) "></path>
                        <path d="M634,404 C637.865993,404 641,407.134007 641,411 C641,414.865993 637.865993,418 634,418 C630.134007,418 627,414.865993 627,411 C627,407.134007 630.134007,404 634,404 Z" id="Rectangle-Copy-66" fill="#B9404C" opacity="0.5" transform="translate(634.000000, 411.000000) rotate(-90.000000) translate(-634.000000, -411.000000) "></path>
                    </g>
                </g>
                <g id="E1" fill-rule="nonzero" transform="translate(73.246094, 515.292969) rotate(-90.000000) translate(-73.246094, -515.292969) " fill="#000000">
                    <use xlink:href="#path-5"></use>
                    <use xlink:href="#path-5"></use>
                </g>
                <g id="E19" fill-rule="nonzero" transform="translate(125.457031, 520.277344) rotate(-90.000000) translate(-125.457031, -520.277344) " fill="#000000">
                    <use xlink:href="#path-6"></use>
                    <use xlink:href="#path-6"></use>
                </g>
                <g id="E92" fill-rule="nonzero" transform="translate(331.632812, 520.277344) rotate(-90.000000) translate(-331.632812, -520.277344) " fill="#000000">
                    <use xlink:href="#path-7"></use>
                    <use xlink:href="#path-7"></use>
                </g>
                <g id="E37" fill-rule="nonzero" transform="translate(177.574219, 520.312500) rotate(-90.000000) translate(-177.574219, -520.312500) " fill="#000000">
                    <use xlink:href="#path-8"></use>
                    <use xlink:href="#path-8"></use>
                </g>
                <g id="E146" fill-rule="nonzero" transform="translate(485.566406, 524.347656) rotate(-90.000000) translate(-485.566406, -524.347656) " fill="#000000">
                    <use xlink:href="#path-9"></use>
                    <use xlink:href="#path-9"></use>
                </g>
                <g id="E110" fill-rule="nonzero" transform="translate(383.500000, 524.312500) rotate(-90.000000) translate(-383.500000, -524.312500) " fill="#000000">
                    <use xlink:href="#path-10"></use>
                    <use xlink:href="#path-10"></use>
                </g>
                <g id="E56" fill-rule="nonzero" transform="translate(228.566406, 520.347656) rotate(-90.000000) translate(-228.566406, -520.347656) " fill="#000000">
                    <use xlink:href="#path-11"></use>
                    <use xlink:href="#path-11"></use>
                </g>
                <g id="E182" fill-rule="nonzero" transform="translate(588.632812, 524.312500) rotate(-90.000000) translate(-588.632812, -524.312500) " fill="#000000">
                    <use xlink:href="#path-12"></use>
                    <use xlink:href="#path-12"></use>
                </g>
                <g id="E164" fill-rule="nonzero" transform="translate(537.828125, 524.347656) rotate(-90.000000) translate(-537.828125, -524.347656) " fill="#000000">
                    <use xlink:href="#path-13"></use>
                    <use xlink:href="#path-13"></use>
                </g>
                <g id="E128" fill-rule="nonzero" transform="translate(434.570312, 524.312500) rotate(-90.000000) translate(-434.570312, -524.312500) " fill="#000000">
                    <use xlink:href="#path-14"></use>
                    <use xlink:href="#path-14"></use>
                </g>
                <g id="E74" fill-rule="nonzero" transform="translate(280.828125, 520.312500) rotate(-90.000000) translate(-280.828125, -520.312500) " fill="#000000">
                    <use xlink:href="#path-15"></use>
                    <use xlink:href="#path-15"></use>
                </g>
                <g id="E200" fill-rule="nonzero" transform="translate(640.500000, 524.312500) rotate(-90.000000) translate(-640.500000, -524.312500) " fill="#000000">
                    <use xlink:href="#path-16"></use>
                    <use xlink:href="#path-16"></use>
                </g>
                <g id="E218" fill-rule="nonzero" transform="translate(691.570312, 524.312500) rotate(-90.000000) translate(-691.570312, -524.312500) " fill="#000000">
                    <use xlink:href="#path-17"></use>
                    <use xlink:href="#path-17"></use>
                </g>
                <g id="E235" fill-rule="nonzero" transform="translate(743.621094, 524.312500) rotate(-90.000000) translate(-743.621094, -524.312500) " fill="#000000">
                    <use xlink:href="#path-18"></use>
                    <use xlink:href="#path-18"></use>
                </g>
            </g>
        </g>
    </g>
</svg>