<?xml version="1.0" encoding="UTF-8"?>
<svg width="362px" height="553px" viewBox="0 0 362 553" version="1.1" xmlns="http://www.w3.org/2000/svg" xmlns:xlink="http://www.w3.org/1999/xlink">
    <!-- Generator: Sketch 56.2 (81672) - https://sketch.com -->
    <title>Group 27</title>
    <desc>Created with Sketch.</desc>
    <defs>
        <path d="M46.4456259,527.14907 C46.4456259,528.753245 46.151358,529.970681 45.5628134,530.801414 C44.9742688,531.632148 44.1070899,532.047508 42.9612509,532.047508 C41.8362452,532.047508 40.9742747,531.63996 40.3753134,530.824852 C39.776352,530.009744 39.4690634,528.823557 39.4534384,527.266258 L39.4534384,525.227195 C39.4534384,523.628229 39.7503104,522.417304 40.3440634,521.594383 C40.9378163,520.771462 41.8049952,520.360008 42.9456259,520.360008 C44.0706315,520.360008 44.9299979,520.757139 45.5237509,521.551414 C46.1175038,522.345689 46.4247924,523.51625 46.4456259,525.063133 L46.4456259,527.14907 Z M45.5081259,525.110008 C45.5081259,523.807918 45.2958884,522.823553 44.8714071,522.156883 C44.4469258,521.490213 43.8050052,521.156883 42.9456259,521.156883 C42.1018716,521.156883 41.4664613,521.482401 41.0393759,522.133445 C40.6122904,522.78449 40.3935426,523.745418 40.3831259,525.016258 L40.3831259,527.250633 C40.3831259,528.547514 40.6031757,529.539692 41.0432821,530.227195 C41.4833885,530.914699 42.122705,531.258445 42.9612509,531.258445 C43.7945884,531.258445 44.4260925,530.922511 44.8557821,530.250633 C45.2854718,529.578755 45.5029175,528.594389 45.5081259,527.297508 L45.5081259,525.110008 Z" id="path-1"></path>
        <path d="M18.4846884,393.664412 L19.0393759,388.117537 L24.7268759,388.117537 L24.7268759,388.984725 L19.8440634,388.984725 L19.4456259,392.828475 C20.0550039,392.411806 20.7685384,392.203475 21.5862509,392.203475 C22.6122977,392.203475 23.4299978,392.536805 24.0393759,393.203475 C24.6487539,393.870145 24.9534384,394.758157 24.9534384,395.867537 C24.9534384,397.06546 24.6565663,397.995138 24.0628134,398.6566 C23.4690604,399.318061 22.6331313,399.648787 21.5550009,399.648787 C20.5654126,399.648787 19.7633373,399.372748 19.1487509,398.820662 C18.5341645,398.268576 18.1826055,397.495146 18.0940634,396.50035 L18.9925009,396.50035 C19.081043,397.276395 19.3440612,397.863629 19.7815634,398.262069 C20.2190656,398.660508 20.8102055,398.859725 21.5550009,398.859725 C22.3675049,398.859725 22.98078,398.601915 23.3948446,398.086287 C23.8089092,397.57066 24.0159384,396.836292 24.0159384,395.883162 C24.0159384,395.049825 23.7841698,394.370144 23.3206259,393.8441 C22.8570819,393.318056 22.2242757,393.055037 21.4221884,393.055037 C20.9794778,393.055037 20.5940634,393.111026 20.2659384,393.223006 C19.9378117,393.334986 19.591461,393.552432 19.2268759,393.87535 L18.4846884,393.664412 Z M35.5784384,394.75035 C35.5784384,396.354525 35.2841705,397.57196 34.6956259,398.402694 C34.1070813,399.233427 33.2399024,399.648787 32.0940634,399.648787 C30.9690577,399.648787 30.1070872,399.241239 29.5081259,398.426131 C28.9091645,397.611023 28.6018759,396.424837 28.5862509,394.867537 L28.5862509,392.828475 C28.5862509,391.229508 28.8831229,390.018583 29.4768759,389.195662 C30.0706288,388.372742 30.9378077,387.961287 32.0784384,387.961287 C33.203444,387.961287 34.0628104,388.358419 34.6565634,389.152694 C35.2503163,389.946968 35.5576049,391.11753 35.5784384,392.664412 L35.5784384,394.75035 Z M34.6409384,392.711287 C34.6409384,391.409197 34.4287009,390.424832 34.0042196,389.758162 C33.5797383,389.091492 32.9378177,388.758162 32.0784384,388.758162 C31.2346841,388.758162 30.5992738,389.08368 30.1721884,389.734725 C29.7451029,390.38577 29.5263551,391.346698 29.5159384,392.617537 L29.5159384,394.851912 C29.5159384,396.148794 29.7359882,397.140971 30.1760946,397.828475 C30.616201,398.515978 31.2555175,398.859725 32.0940634,398.859725 C32.9274009,398.859725 33.558905,398.523791 33.9885946,397.851912 C34.4182843,397.180034 34.63573,396.195669 34.6409384,394.898787 L34.6409384,392.711287 Z M46.4456259,394.75035 C46.4456259,396.354525 46.151358,397.57196 45.5628134,398.402694 C44.9742688,399.233427 44.1070899,399.648787 42.9612509,399.648787 C41.8362452,399.648787 40.9742747,399.241239 40.3753134,398.426131 C39.776352,397.611023 39.4690634,396.424837 39.4534384,394.867537 L39.4534384,392.828475 C39.4534384,391.229508 39.7503104,390.018583 40.3440634,389.195662 C40.9378163,388.372742 41.8049952,387.961287 42.9456259,387.961287 C44.0706315,387.961287 44.9299979,388.358419 45.5237509,389.152694 C46.1175038,389.946968 46.4247924,391.11753 46.4456259,392.664412 L46.4456259,394.75035 Z M45.5081259,392.711287 C45.5081259,391.409197 45.2958884,390.424832 44.8714071,389.758162 C44.4469258,389.091492 43.8050052,388.758162 42.9456259,388.758162 C42.1018716,388.758162 41.4664613,389.08368 41.0393759,389.734725 C40.6122904,390.38577 40.3935426,391.346698 40.3831259,392.617537 L40.3831259,394.851912 C40.3831259,396.148794 40.6031757,397.140971 41.0432821,397.828475 C41.4833885,398.515978 42.122705,398.859725 42.9612509,398.859725 C43.7945884,398.859725 44.4260925,398.523791 44.8557821,397.851912 C45.2854718,397.180034 45.5029175,396.195669 45.5081259,394.898787 L45.5081259,392.711287 Z" id="path-2"></path>
        <path d="M5.51593836,270.093817 L4.57843836,270.093817 L4.57843836,259.843817 L1.48468836,260.992254 L1.48468836,260.117254 L5.35968836,258.679754 L5.51593836,258.679754 L5.51593836,270.093817 Z M12.0940634,269.531317 C12.0940634,269.349024 12.1526565,269.194078 12.2698446,269.066473 C12.3870327,268.938868 12.5497915,268.875067 12.7581259,268.875067 C12.9664602,268.875067 13.1305211,268.938868 13.2503134,269.066473 C13.3701056,269.194078 13.4300009,269.349024 13.4300009,269.531317 C13.4300009,269.713609 13.3701056,269.863347 13.2503134,269.980535 C13.1305211,270.097723 12.9664602,270.156317 12.7581259,270.156317 C12.5497915,270.156317 12.3870327,270.097723 12.2698446,269.980535 C12.1526565,269.863347 12.0940634,269.713609 12.0940634,269.531317 Z M24.7112509,265.351629 C24.7112509,266.955804 24.416983,268.17324 23.8284384,269.003973 C23.2398938,269.834706 22.3727149,270.250067 21.2268759,270.250067 C20.1018702,270.250067 19.2398997,269.842519 18.6409384,269.02741 C18.041977,268.212302 17.7346884,267.026116 17.7190634,265.468817 L17.7190634,263.429754 C17.7190634,261.830788 18.0159354,260.619862 18.6096884,259.796942 C19.2034413,258.974021 20.0706202,258.562567 21.2112509,258.562567 C22.3362565,258.562567 23.1956229,258.959698 23.7893759,259.753973 C24.3831288,260.548248 24.6904174,261.718809 24.7112509,263.265692 L24.7112509,265.351629 Z M23.7737509,263.312567 C23.7737509,262.010477 23.5615134,261.026112 23.1370321,260.359442 C22.7125508,259.692772 22.0706302,259.359442 21.2112509,259.359442 C20.3674966,259.359442 19.7320863,259.684959 19.3050009,260.336004 C18.8779154,260.987049 18.6591676,261.947977 18.6487509,263.218817 L18.6487509,265.453192 C18.6487509,266.750073 18.8688007,267.742251 19.3089071,268.429754 C19.7490135,269.117258 20.38833,269.461004 21.2268759,269.461004 C22.0602134,269.461004 22.6917175,269.12507 23.1214071,268.453192 C23.5510968,267.781313 23.7685425,266.796948 23.7737509,265.500067 L23.7737509,263.312567 Z M35.5784384,265.351629 C35.5784384,266.955804 35.2841705,268.17324 34.6956259,269.003973 C34.1070813,269.834706 33.2399024,270.250067 32.0940634,270.250067 C30.9690577,270.250067 30.1070872,269.842519 29.5081259,269.02741 C28.9091645,268.212302 28.6018759,267.026116 28.5862509,265.468817 L28.5862509,263.429754 C28.5862509,261.830788 28.8831229,260.619862 29.4768759,259.796942 C30.0706288,258.974021 30.9378077,258.562567 32.0784384,258.562567 C33.203444,258.562567 34.0628104,258.959698 34.6565634,259.753973 C35.2503163,260.548248 35.5576049,261.718809 35.5784384,263.265692 L35.5784384,265.351629 Z M34.6409384,263.312567 C34.6409384,262.010477 34.4287009,261.026112 34.0042196,260.359442 C33.5797383,259.692772 32.9378177,259.359442 32.0784384,259.359442 C31.2346841,259.359442 30.5992738,259.684959 30.1721884,260.336004 C29.7451029,260.987049 29.5263551,261.947977 29.5159384,263.218817 L29.5159384,265.453192 C29.5159384,266.750073 29.7359882,267.742251 30.1760946,268.429754 C30.616201,269.117258 31.2555175,269.461004 32.0940634,269.461004 C32.9274009,269.461004 33.558905,269.12507 33.9885946,268.453192 C34.4182843,267.781313 34.63573,266.796948 34.6409384,265.500067 L34.6409384,263.312567 Z M46.4456259,265.351629 C46.4456259,266.955804 46.151358,268.17324 45.5628134,269.003973 C44.9742688,269.834706 44.1070899,270.250067 42.9612509,270.250067 C41.8362452,270.250067 40.9742747,269.842519 40.3753134,269.02741 C39.776352,268.212302 39.4690634,267.026116 39.4534384,265.468817 L39.4534384,263.429754 C39.4534384,261.830788 39.7503104,260.619862 40.3440634,259.796942 C40.9378163,258.974021 41.8049952,258.562567 42.9456259,258.562567 C44.0706315,258.562567 44.9299979,258.959698 45.5237509,259.753973 C46.1175038,260.548248 46.4247924,261.718809 46.4456259,263.265692 L46.4456259,265.351629 Z M45.5081259,263.312567 C45.5081259,262.010477 45.2958884,261.026112 44.8714071,260.359442 C44.4469258,259.692772 43.8050052,259.359442 42.9456259,259.359442 C42.1018716,259.359442 41.4664613,259.684959 41.0393759,260.336004 C40.6122904,260.987049 40.3935426,261.947977 40.3831259,263.218817 L40.3831259,265.453192 C40.3831259,266.750073 40.6031757,267.742251 41.0432821,268.429754 C41.4833885,269.117258 42.122705,269.461004 42.9612509,269.461004 C43.7945884,269.461004 44.4260925,269.12507 44.8557821,268.453192 C45.2854718,267.781313 45.5029175,266.796948 45.5081259,265.500067 L45.5081259,263.312567 Z" id="path-3"></path>
        <path d="M5.51593836,139.695096 L4.57843836,139.695096 L4.57843836,129.445096 L1.48468836,130.593533 L1.48468836,129.718533 L5.35968836,128.281033 L5.51593836,128.281033 L5.51593836,139.695096 Z M12.0940634,139.132596 C12.0940634,138.950303 12.1526565,138.795357 12.2698446,138.667752 C12.3870327,138.540147 12.5497915,138.476346 12.7581259,138.476346 C12.9664602,138.476346 13.1305211,138.540147 13.2503134,138.667752 C13.3701056,138.795357 13.4300009,138.950303 13.4300009,139.132596 C13.4300009,139.314889 13.3701056,139.464627 13.2503134,139.581815 C13.1305211,139.699003 12.9664602,139.757596 12.7581259,139.757596 C12.5497915,139.757596 12.3870327,139.699003 12.2698446,139.581815 C12.1526565,139.464627 12.0940634,139.314889 12.0940634,139.132596 Z M18.4846884,133.866971 L19.0393759,128.320096 L24.7268759,128.320096 L24.7268759,129.187283 L19.8440634,129.187283 L19.4456259,133.031033 C20.0550039,132.614365 20.7685384,132.406033 21.5862509,132.406033 C22.6122977,132.406033 23.4299978,132.739363 24.0393759,133.406033 C24.6487539,134.072703 24.9534384,134.960715 24.9534384,136.070096 C24.9534384,137.268019 24.6565663,138.197697 24.0628134,138.859158 C23.4690604,139.52062 22.6331313,139.851346 21.5550009,139.851346 C20.5654126,139.851346 19.7633373,139.575307 19.1487509,139.023221 C18.5341645,138.471135 18.1826055,137.697705 18.0940634,136.702908 L18.9925009,136.702908 C19.081043,137.478954 19.3440612,138.066188 19.7815634,138.464627 C20.2190656,138.863067 20.8102055,139.062283 21.5550009,139.062283 C22.3675049,139.062283 22.98078,138.804474 23.3948446,138.288846 C23.8089092,137.773218 24.0159384,137.038851 24.0159384,136.085721 C24.0159384,135.252383 23.7841698,134.572703 23.3206259,134.046658 C22.8570819,133.520614 22.2242757,133.257596 21.4221884,133.257596 C20.9794778,133.257596 20.5940634,133.313585 20.2659384,133.425565 C19.9378117,133.537544 19.591461,133.75499 19.2268759,134.077908 L18.4846884,133.866971 Z M35.5784384,134.952908 C35.5784384,136.557083 35.2841705,137.774519 34.6956259,138.605252 C34.1070813,139.435986 33.2399024,139.851346 32.0940634,139.851346 C30.9690577,139.851346 30.1070872,139.443798 29.5081259,138.62869 C28.9091645,137.813581 28.6018759,136.627395 28.5862509,135.070096 L28.5862509,133.031033 C28.5862509,131.432067 28.8831229,130.221142 29.4768759,129.398221 C30.0706288,128.5753 30.9378077,128.163846 32.0784384,128.163846 C33.203444,128.163846 34.0628104,128.560977 34.6565634,129.355252 C35.2503163,130.149527 35.5576049,131.320088 35.5784384,132.866971 L35.5784384,134.952908 Z M34.6409384,132.913846 C34.6409384,131.611756 34.4287009,130.627391 34.0042196,129.960721 C33.5797383,129.294051 32.9378177,128.960721 32.0784384,128.960721 C31.2346841,128.960721 30.5992738,129.286239 30.1721884,129.937283 C29.7451029,130.588328 29.5263551,131.549256 29.5159384,132.820096 L29.5159384,135.054471 C29.5159384,136.351352 29.7359882,137.34353 30.1760946,138.031033 C30.616201,138.718537 31.2555175,139.062283 32.0940634,139.062283 C32.9274009,139.062283 33.558905,138.726349 33.9885946,138.054471 C34.4182843,137.382593 34.63573,136.398227 34.6409384,135.101346 L34.6409384,132.913846 Z M46.4456259,134.952908 C46.4456259,136.557083 46.151358,137.774519 45.5628134,138.605252 C44.9742688,139.435986 44.1070899,139.851346 42.9612509,139.851346 C41.8362452,139.851346 40.9742747,139.443798 40.3753134,138.62869 C39.776352,137.813581 39.4690634,136.627395 39.4534384,135.070096 L39.4534384,133.031033 C39.4534384,131.432067 39.7503104,130.221142 40.3440634,129.398221 C40.9378163,128.5753 41.8049952,128.163846 42.9456259,128.163846 C44.0706315,128.163846 44.9299979,128.560977 45.5237509,129.355252 C46.1175038,130.149527 46.4247924,131.320088 46.4456259,132.866971 L46.4456259,134.952908 Z M45.5081259,132.913846 C45.5081259,131.611756 45.2958884,130.627391 44.8714071,129.960721 C44.4469258,129.294051 43.8050052,128.960721 42.9456259,128.960721 C42.1018716,128.960721 41.4664613,129.286239 41.0393759,129.937283 C40.6122904,130.588328 40.3935426,131.549256 40.3831259,132.820096 L40.3831259,135.054471 C40.3831259,136.351352 40.6031757,137.34353 41.0432821,138.031033 C41.4833885,138.718537 42.122705,139.062283 42.9612509,139.062283 C43.7945884,139.062283 44.4260925,138.726349 44.8557821,138.054471 C45.2854718,137.382593 45.5029175,136.398227 45.5081259,135.101346 L45.5081259,132.913846 Z" id="path-4"></path>
        <path d="M8.28937586,12.108742 L1.16437586,12.108742 L1.16437586,11.389992 L5.06281336,6.968117 C5.70864993,6.22332161 6.15656211,5.60874443 6.40656336,5.124367 C6.65656461,4.63998958 6.78156336,4.16864013 6.78156336,3.7103045 C6.78156336,2.99155091 6.57062797,2.42254618 6.14875086,2.00327325 C5.72687376,1.58400032 5.1461504,1.374367 4.40656336,1.374367 C3.64093454,1.374367 3.02245114,1.61915622 2.55109461,2.108742 C2.07973809,2.59832779 1.84406336,3.2337381 1.84406336,4.014992 L0.914375864,4.014992 C0.914375864,3.3743638 1.05890567,2.7910363 1.34796961,2.264992 C1.63703356,1.73894771 2.04848778,1.32619142 2.58234461,1.02671075 C3.11620145,0.72723009 3.72426829,0.577492004 4.40656336,0.577492004 C5.44823524,0.577492004 6.26202918,0.85092677 6.84796961,1.3978045 C7.43391004,1.94468224 7.72687586,2.68946646 7.72687586,3.6321795 C7.72687586,4.16343216 7.56151293,4.74415552 7.23078211,5.374367 C6.90005129,6.00457849 6.31802586,6.79102896 5.48468836,7.733742 L2.31281336,11.3196795 L8.28937586,11.3196795 L8.28937586,12.108742 Z M12.0940634,11.546242 C12.0940634,11.3639494 12.1526565,11.2090031 12.2698446,11.0813983 C12.3870327,10.9537934 12.5497915,10.889992 12.7581259,10.889992 C12.9664602,10.889992 13.1305211,10.9537934 13.2503134,11.0813983 C13.3701056,11.2090031 13.4300009,11.3639494 13.4300009,11.546242 C13.4300009,11.7285346 13.3701056,11.8782727 13.2503134,11.9954608 C13.1305211,12.1126488 12.9664602,12.171242 12.7581259,12.171242 C12.5497915,12.171242 12.3870327,12.1126488 12.2698446,11.9954608 C12.1526565,11.8782727 12.0940634,11.7285346 12.0940634,11.546242 Z M24.7112509,7.3665545 C24.7112509,8.97072919 24.416983,10.1881649 23.8284384,11.0188983 C23.2398938,11.8496316 22.3727149,12.264992 21.2268759,12.264992 C20.1018702,12.264992 19.2398997,11.857444 18.6409384,11.0423358 C18.041977,10.2272275 17.7346884,9.04104146 17.7190634,7.483742 L17.7190634,5.4446795 C17.7190634,3.84571318 18.0159354,2.63478779 18.6096884,1.811867 C19.2034413,0.988946223 20.0706202,0.577492004 21.2112509,0.577492004 C22.3362565,0.577492004 23.1956229,0.97462345 23.7893759,1.76889825 C24.3831288,2.56317306 24.6904174,3.73373427 24.7112509,5.280617 L24.7112509,7.3665545 Z M23.7737509,5.327492 C23.7737509,4.02540216 23.5615134,3.041037 23.1370321,2.374367 C22.7125508,1.707697 22.0706302,1.374367 21.2112509,1.374367 C20.3674966,1.374367 19.7320863,1.69988458 19.3050009,2.3509295 C18.8779154,3.00197443 18.6591676,3.96290232 18.6487509,5.233742 L18.6487509,7.468117 C18.6487509,8.76499849 18.8688007,9.75717607 19.3089071,10.4446795 C19.7490135,11.1321829 20.38833,11.4759295 21.2268759,11.4759295 C22.0602134,11.4759295 22.6917175,11.1399954 23.1214071,10.468117 C23.5510968,9.79623864 23.7685425,8.81187349 23.7737509,7.514992 L23.7737509,5.327492 Z M35.5784384,7.3665545 C35.5784384,8.97072919 35.2841705,10.1881649 34.6956259,11.0188983 C34.1070813,11.8496316 33.2399024,12.264992 32.0940634,12.264992 C30.9690577,12.264992 30.1070872,11.857444 29.5081259,11.0423358 C28.9091645,10.2272275 28.6018759,9.04104146 28.5862509,7.483742 L28.5862509,5.4446795 C28.5862509,3.84571318 28.8831229,2.63478779 29.4768759,1.811867 C30.0706288,0.988946223 30.9378077,0.577492004 32.0784384,0.577492004 C33.203444,0.577492004 34.0628104,0.97462345 34.6565634,1.76889825 C35.2503163,2.56317306 35.5576049,3.73373427 35.5784384,5.280617 L35.5784384,7.3665545 Z M34.6409384,5.327492 C34.6409384,4.02540216 34.4287009,3.041037 34.0042196,2.374367 C33.5797383,1.707697 32.9378177,1.374367 32.0784384,1.374367 C31.2346841,1.374367 30.5992738,1.69988458 30.1721884,2.3509295 C29.7451029,3.00197443 29.5263551,3.96290232 29.5159384,5.233742 L29.5159384,7.468117 C29.5159384,8.76499849 29.7359882,9.75717607 30.1760946,10.4446795 C30.616201,11.1321829 31.2555175,11.4759295 32.0940634,11.4759295 C32.9274009,11.4759295 33.558905,11.1399954 33.9885946,10.468117 C34.4182843,9.79623864 34.63573,8.81187349 34.6409384,7.514992 L34.6409384,5.327492 Z M46.4456259,7.3665545 C46.4456259,8.97072919 46.151358,10.1881649 45.5628134,11.0188983 C44.9742688,11.8496316 44.1070899,12.264992 42.9612509,12.264992 C41.8362452,12.264992 40.9742747,11.857444 40.3753134,11.0423358 C39.776352,10.2272275 39.4690634,9.04104146 39.4534384,7.483742 L39.4534384,5.4446795 C39.4534384,3.84571318 39.7503104,2.63478779 40.3440634,1.811867 C40.9378163,0.988946223 41.8049952,0.577492004 42.9456259,0.577492004 C44.0706315,0.577492004 44.9299979,0.97462345 45.5237509,1.76889825 C46.1175038,2.56317306 46.4247924,3.73373427 46.4456259,5.280617 L46.4456259,7.3665545 Z M45.5081259,5.327492 C45.5081259,4.02540216 45.2958884,3.041037 44.8714071,2.374367 C44.4469258,1.707697 43.8050052,1.374367 42.9456259,1.374367 C42.1018716,1.374367 41.4664613,1.69988458 41.0393759,2.3509295 C40.6122904,3.00197443 40.3935426,3.96290232 40.3831259,5.233742 L40.3831259,7.468117 C40.3831259,8.76499849 40.6031757,9.75717607 41.0432821,10.4446795 C41.4833885,11.1321829 42.122705,11.4759295 42.9612509,11.4759295 C43.7945884,11.4759295 44.4260925,11.1399954 44.8557821,10.468117 C45.2854718,9.79623864 45.5029175,8.81187349 45.5081259,7.514992 L45.5081259,5.327492 Z" id="path-5"></path>
        <path d="M8.75,1.859375 L4.8515625,1.859375 L4.8515625,12.4140625 L3.890625,12.4140625 L3.890625,1.859375 L0,1.859375 L0,1.0390625 L8.75,1.0390625 L8.75,1.859375 Z M16.5703125,12.4140625 L15.6328125,12.4140625 L15.6328125,2.1640625 L12.5390625,3.3125 L12.5390625,2.4375 L16.4140625,1 L16.5703125,1 L16.5703125,12.4140625 Z" id="path-6"></path>
        <path d="M195.75,1.8203125 L191.851562,1.8203125 L191.851562,12.375 L190.890625,12.375 L190.890625,1.8203125 L187,1.8203125 L187,1 L195.75,1 L195.75,1.8203125 Z M206.226562,1.5390625 L201.367188,12.375 L200.390625,12.375 L205.21875,1.796875 L198.75,1.796875 L198.75,1 L206.226562,1 L206.226562,1.5390625 Z" id="path-7"></path>
        <path d="M227.75,0.9765625 L223.851562,0.9765625 L223.851562,11.53125 L222.890625,11.53125 L222.890625,0.9765625 L219,0.9765625 L219,0.15625 L227.75,0.15625 L227.75,0.9765625 Z M237.921875,3.0859375 C237.921875,3.67448211 237.750002,4.20182059 237.40625,4.66796875 C237.062498,5.13411691 236.609378,5.47656141 236.046875,5.6953125 C236.703128,5.91927195 237.229165,6.2812475 237.625,6.78125 C238.020835,7.2812525 238.21875,7.85937172 238.21875,8.515625 C238.21875,9.4895882 237.888024,10.2617159 237.226562,10.8320312 C236.565101,11.4023466 235.69011,11.6875 234.601562,11.6875 C233.502599,11.6875 232.623701,11.4036487 231.964844,10.8359375 C231.305986,10.2682263 230.976562,9.49479656 230.976562,8.515625 C230.976562,7.86978844 231.166665,7.29427336 231.546875,6.7890625 C231.927085,6.28385164 232.447913,5.91927195 233.109375,5.6953125 C232.546872,5.47656141 232.09896,5.13411691 231.765625,4.66796875 C231.43229,4.20182059 231.265625,3.67448211 231.265625,3.0859375 C231.265625,2.14322445 231.569007,1.39323195 232.175781,0.8359375 C232.782555,0.278643047 233.585933,0 234.585938,0 C235.585942,0 236.391924,0.281247188 237.003906,0.84375 C237.615888,1.40625281 237.921875,2.15364117 237.921875,3.0859375 Z M237.28125,8.5234375 C237.28125,7.81510063 237.028648,7.2330752 236.523438,6.77734375 C236.018227,6.3216123 235.3724,6.09375 234.585938,6.09375 C233.799475,6.09375 233.156253,6.31770609 232.65625,6.765625 C232.156247,7.21354391 231.90625,7.79947555 231.90625,8.5234375 C231.90625,9.24739945 232.148435,9.8242166 232.632812,10.2539062 C233.11719,10.6835959 233.773433,10.8984375 234.601562,10.8984375 C235.408858,10.8984375 236.057289,10.684898 236.546875,10.2578125 C237.036461,9.83072703 237.28125,9.25260781 237.28125,8.5234375 Z M236.984375,3.078125 C236.984375,2.42708008 236.759117,1.88411676 236.308594,1.44921875 C235.858071,1.01432074 235.283858,0.796875 234.585938,0.796875 C233.877601,0.796875 233.303388,1.00650832 232.863281,1.42578125 C232.423175,1.84505418 232.203125,2.39582992 232.203125,3.078125 C232.203125,3.744795 232.423175,4.28124797 232.863281,4.6875 C233.303388,5.09375203 233.880205,5.296875 234.59375,5.296875 C235.296879,5.296875 235.871092,5.09244996 236.316406,4.68359375 C236.761721,4.27473754 236.984375,3.73958664 236.984375,3.078125 Z" id="path-8"></path>
        <path d="M37.75,0.9765625 L33.8515625,0.9765625 L33.8515625,11.53125 L32.890625,11.53125 L32.890625,0.9765625 L29,0.9765625 L29,0.15625 L37.75,0.15625 L37.75,0.9765625 Z M48.34375,11.53125 L41.21875,11.53125 L41.21875,10.8125 L45.1171875,6.390625 C45.7630241,5.64582961 46.2109363,5.03125242 46.4609375,4.546875 C46.7109387,4.06249758 46.8359375,3.59114813 46.8359375,3.1328125 C46.8359375,2.41405891 46.6250021,1.84505418 46.203125,1.42578125 C45.7812479,1.00650832 45.2005245,0.796875 44.4609375,0.796875 C43.6953087,0.796875 43.0768253,1.04166422 42.6054688,1.53125 C42.1341122,2.02083578 41.8984375,2.65624609 41.8984375,3.4375 L40.96875,3.4375 C40.96875,2.7968718 41.1132798,2.2135443 41.4023438,1.6875 C41.6914077,1.1614557 42.1028619,0.748699414 42.6367188,0.44921875 C43.1705756,0.149738086 43.7786424,0 44.4609375,0 C45.5026094,0 46.3164033,0.273434766 46.9023438,0.8203125 C47.4882842,1.36719023 47.78125,2.11197445 47.78125,3.0546875 C47.78125,3.58594016 47.6158871,4.16666352 47.2851562,4.796875 C46.9544254,5.42708648 46.3724,6.21353695 45.5390625,7.15625 L42.3671875,10.7421875 L48.34375,10.7421875 L48.34375,11.53125 Z" id="path-9"></path>
        <path d="M69.75,0.9765625 L65.8515625,0.9765625 L65.8515625,11.53125 L64.890625,11.53125 L64.890625,0.9765625 L61,0.9765625 L61,0.15625 L69.75,0.15625 L69.75,0.9765625 Z M75.296875,5.3359375 L76.265625,5.3359375 C76.802086,5.3359375 77.2708313,5.24088637 77.671875,5.05078125 C78.0729187,4.86067613 78.3789052,4.60026207 78.5898438,4.26953125 C78.8007823,3.93880043 78.90625,3.55729383 78.90625,3.125 C78.90625,2.39582969 78.7005229,1.82552289 78.2890625,1.4140625 C77.8776021,1.00260211 77.2864622,0.796875 76.515625,0.796875 C75.7864547,0.796875 75.1888044,1.0117166 74.7226562,1.44140625 C74.2565081,1.8710959 74.0234375,2.43749648 74.0234375,3.140625 L73.0859375,3.140625 C73.0859375,2.55208039 73.2343735,2.01432535 73.53125,1.52734375 C73.8281265,1.04036215 74.2395807,0.664063828 74.765625,0.3984375 C75.2916693,0.132811172 75.8749968,0 76.515625,0 C77.5468802,0 78.359372,0.281247188 78.953125,0.84375 C79.546878,1.40625281 79.84375,2.17707844 79.84375,3.15625 C79.84375,3.70312773 79.6705746,4.20702895 79.3242188,4.66796875 C78.9778629,5.12890855 78.5026072,5.47395719 77.8984375,5.703125 C78.6067744,5.90104266 79.1432273,6.24088301 79.5078125,6.72265625 C79.8723977,7.20442949 80.0546875,7.7786425 80.0546875,8.4453125 C80.0546875,9.4192757 79.7369823,10.203122 79.1015625,10.796875 C78.4661427,11.390628 77.6171928,11.6875 76.5546875,11.6875 C75.8776008,11.6875 75.2565132,11.5520847 74.6914062,11.28125 C74.1262993,11.0104153 73.6888036,10.6315129 73.3789062,10.1445312 C73.0690089,9.65754965 72.9140625,9.09114906 72.9140625,8.4453125 L73.8515625,8.4453125 C73.8515625,9.16927445 74.1041641,9.7591123 74.609375,10.2148438 C75.1145859,10.6705752 75.7630169,10.8984375 76.5546875,10.8984375 C77.3619832,10.8984375 77.9908832,10.6914083 78.4414062,10.2773438 C78.8919293,9.86327918 79.1171875,9.26302477 79.1171875,8.4765625 C79.1171875,7.71614203 78.8737004,7.13541867 78.3867188,6.734375 C77.8997371,6.33333133 77.1822964,6.1328125 76.234375,6.1328125 L75.296875,6.1328125 L75.296875,5.3359375 Z" id="path-10"></path>
        <path d="M100.75,1.8203125 L96.8515625,1.8203125 L96.8515625,12.375 L95.890625,12.375 L95.890625,1.8203125 L92,1.8203125 L92,1 L100.75,1 L100.75,1.8203125 Z M109.960938,8.7109375 L111.734375,8.7109375 L111.734375,9.5 L109.960938,9.5 L109.960938,12.375 L109.023438,12.375 L109.023438,9.5 L103.671875,9.5 L103.671875,8.96875 L108.9375,1 L109.960938,1 L109.960938,8.7109375 Z M104.820312,8.7109375 L109.023438,8.7109375 L109.023438,2.2109375 L108.609375,2.9296875 L104.820312,8.7109375 Z" id="path-11"></path>
        <path d="M132.75,0.8203125 L128.851562,0.8203125 L128.851562,11.375 L127.890625,11.375 L127.890625,0.8203125 L124,0.8203125 L124,0 L132.75,0 L132.75,0.8203125 Z M136.851562,5.546875 L137.40625,0 L143.09375,0 L143.09375,0.8671875 L138.210938,0.8671875 L137.8125,4.7109375 C138.421878,4.29426875 139.135413,4.0859375 139.953125,4.0859375 C140.979172,4.0859375 141.796872,4.4192675 142.40625,5.0859375 C143.015628,5.7526075 143.320312,6.64061945 143.320312,7.75 C143.320312,8.94792266 143.02344,9.87760086 142.429688,10.5390625 C141.835935,11.2005241 141.000005,11.53125 139.921875,11.53125 C138.932287,11.53125 138.130211,11.2552111 137.515625,10.703125 C136.901039,10.1510389 136.54948,9.37760914 136.460938,8.3828125 L137.359375,8.3828125 C137.447917,9.15885805 137.710935,9.74609176 138.148438,10.1445312 C138.58594,10.5429707 139.17708,10.7421875 139.921875,10.7421875 C140.734379,10.7421875 141.347654,10.4843776 141.761719,9.96875 C142.175783,9.45312242 142.382812,8.71875477 142.382812,7.765625 C142.382812,6.9322875 142.151044,6.2526068 141.6875,5.7265625 C141.223956,5.2005182 140.59115,4.9375 139.789062,4.9375 C139.346352,4.9375 138.960938,4.99348902 138.632812,5.10546875 C138.304686,5.21744848 137.958335,5.43489422 137.59375,5.7578125 L136.851562,5.546875 Z" id="path-12"></path>
        <path d="M164.75,0.90625 L160.851562,0.90625 L160.851562,11.4609375 L159.890625,11.4609375 L159.890625,0.90625 L156,0.90625 L156,0.0859375 L164.75,0.0859375 L164.75,0.90625 Z M173.734375,0 L173.734375,0.8203125 L173.625,0.8203125 C172.265618,0.8203125 171.195316,1.22004809 170.414062,2.01953125 C169.632809,2.81901441 169.200521,3.92968039 169.117188,5.3515625 C169.429689,4.91926867 169.828123,4.5846366 170.3125,4.34765625 C170.796877,4.1106759 171.338539,3.9921875 171.9375,3.9921875 C172.937505,3.9921875 173.73307,4.33723613 174.324219,5.02734375 C174.915368,5.71745137 175.210938,6.61978609 175.210938,7.734375 C175.210938,8.47396203 175.072918,9.14062203 174.796875,9.734375 C174.520832,10.328128 174.125003,10.7903629 173.609375,11.1210938 C173.093747,11.4518246 172.505212,11.6171875 171.84375,11.6171875 C170.755203,11.6171875 169.869795,11.2226602 169.1875,10.4335938 C168.505205,9.6445273 168.164062,8.62500625 168.164062,7.375 L168.164062,6.4375 C168.164062,4.40103148 168.6276,2.82422434 169.554688,1.70703125 C170.481775,0.589838164 171.796866,0.0208334375 173.5,0 L173.734375,0 Z M171.789062,4.796875 C171.19531,4.796875 170.64193,4.97265449 170.128906,5.32421875 C169.615883,5.67578301 169.273438,6.12239312 169.101562,6.6640625 L169.101562,7.4609375 C169.101562,8.45052578 169.355466,9.25780938 169.863281,9.8828125 C170.371096,10.5078156 171.031246,10.8203125 171.84375,10.8203125 C172.57292,10.8203125 173.162758,10.5312529 173.613281,9.953125 C174.063804,9.37499711 174.289062,8.64583773 174.289062,7.765625 C174.289062,6.86978719 174.063804,6.15104438 173.613281,5.609375 C173.162758,5.06770562 172.554691,4.796875 171.789062,4.796875 Z" id="path-13"></path>
        <path d="M259.75,0.9765625 L255.851562,0.9765625 L255.851562,11.53125 L254.890625,11.53125 L254.890625,0.9765625 L251,0.9765625 L251,0.15625 L259.75,0.15625 L259.75,0.9765625 Z M269.054688,6.265625 C268.721352,6.75521078 268.307294,7.13411324 267.8125,7.40234375 C267.317706,7.67057426 266.781253,7.8046875 266.203125,7.8046875 C265.557288,7.8046875 264.986982,7.6380225 264.492188,7.3046875 C263.997393,6.9713525 263.614585,6.51041961 263.34375,5.921875 C263.072915,5.33333039 262.9375,4.69010766 262.9375,3.9921875 C262.9375,3.24218375 263.08203,2.55989891 263.371094,1.9453125 C263.660158,1.33072609 264.063799,0.852866289 264.582031,0.51171875 C265.100263,0.170571211 265.697913,0 266.375,0 C267.515631,0 268.403643,0.399735586 269.039062,1.19921875 C269.674482,1.99870191 269.992188,3.13280516 269.992188,4.6015625 L269.992188,5.4453125 C269.992188,7.49740609 269.554692,9.03905734 268.679688,10.0703125 C267.804683,11.1015677 266.468759,11.6171875 264.671875,11.6171875 L264.5,11.6171875 L264.507812,10.8046875 L264.835938,10.8046875 C266.195319,10.7838541 267.229163,10.3984412 267.9375,9.6484375 C268.645837,8.89843375 269.018229,7.77084086 269.054688,6.265625 Z M266.320312,7 C266.945316,7 267.506508,6.81380395 268.003906,6.44140625 C268.501305,6.06900855 268.854166,5.58594047 269.0625,4.9921875 L269.0625,4.453125 C269.0625,3.29686922 268.821617,2.39974277 268.339844,1.76171875 C267.858071,1.12369473 267.208337,0.8046875 266.390625,0.8046875 C265.651038,0.8046875 265.044273,1.1028616 264.570312,1.69921875 C264.096352,2.2955759 263.859375,3.04687047 263.859375,3.953125 C263.859375,4.82292102 264.087237,5.54817418 264.542969,6.12890625 C264.9987,6.70963832 265.591142,7 266.320312,7 Z" id="path-14"></path>
        <path d="M290.75,0.9765625 L286.851562,0.9765625 L286.851562,11.53125 L285.890625,11.53125 L285.890625,0.9765625 L282,0.9765625 L282,0.15625 L290.75,0.15625 L290.75,0.9765625 Z M298.570312,11.53125 L297.632812,11.53125 L297.632812,1.28125 L294.539062,2.4296875 L294.539062,1.5546875 L298.414062,0.1171875 L298.570312,0.1171875 L298.570312,11.53125 Z M311.945312,6.7890625 C311.945312,8.39323719 311.651045,9.61067293 311.0625,10.4414062 C310.473955,11.2721396 309.606777,11.6875 308.460938,11.6875 C307.335932,11.6875 306.473961,11.279952 305.875,10.4648438 C305.276039,9.64973551 304.96875,8.46354945 304.953125,6.90625 L304.953125,4.8671875 C304.953125,3.26822117 305.249997,2.05729578 305.84375,1.234375 C306.437503,0.411454219 307.304682,0 308.445312,0 C309.570318,0 310.429685,0.397131445 311.023438,1.19140625 C311.61719,1.98568105 311.924479,3.15624227 311.945312,4.703125 L311.945312,6.7890625 Z M311.007812,4.75 C311.007812,3.44791016 310.795575,2.463545 310.371094,1.796875 C309.946612,1.130205 309.304692,0.796875 308.445312,0.796875 C307.601558,0.796875 306.966148,1.12239258 306.539062,1.7734375 C306.111977,2.42448242 305.893229,3.38541031 305.882812,4.65625 L305.882812,6.890625 C305.882812,8.18750648 306.102862,9.17968406 306.542969,9.8671875 C306.983075,10.5546909 307.622392,10.8984375 308.460938,10.8984375 C309.294275,10.8984375 309.925779,10.5625034 310.355469,9.890625 C310.785158,9.21874664 311.002604,8.23438148 311.007812,6.9375 L311.007812,4.75 Z" id="path-15"></path>
    </defs>
    <g id="Welcome" stroke="none" stroke-width="1" fill="none" fill-rule="evenodd">
        <g id="iPhone-8-Copy-2" transform="translate(-8.000000, -3112.000000)">
            <g id="Group-27" transform="translate(8.000000, 3112.000000)">
                <g id="salidas2-copy">
                    <g id="rejilla">
                        <path d="M54.1300138,525.891258 L351.130014,525.891258" id="Path" stroke="#000000" opacity="0.300000012"></path>
                        <path d="M54.1300138,394.891258 L351.130014,394.891258" id="Path" stroke="#000000" opacity="0.300000012" stroke-dasharray="6,9"></path>
                        <path d="M54.1300138,264.891258 L351.130014,264.891258" id="Path" stroke="#000000" opacity="0.300000012" stroke-dasharray="6,9"></path>
                        <path d="M54.1300138,135.391258 L351.130014,135.391258" id="Path" stroke="#000000" opacity="0.300000012" stroke-dasharray="6,9"></path>
                        <path d="M54.1300138,5.891258 L351.130014,5.891258" id="Path" stroke="#000000" opacity="0.300000012" stroke-dasharray="6,9"></path>
                        <g id="0" fill-rule="nonzero" fill="#000000">
                            <use xlink:href="#path-1"></use>
                            <use xlink:href="#path-1"></use>
                        </g>
                        <g id="500" fill-rule="nonzero" fill="#000000">
                            <use xlink:href="#path-2"></use>
                            <use xlink:href="#path-2"></use>
                        </g>
                        <g id="1.000" fill-rule="nonzero" fill="#000000">
                            <use xlink:href="#path-3"></use>
                            <use xlink:href="#path-3"></use>
                        </g>
                        <g id="1.500" fill-rule="nonzero" fill="#000000">
                            <use xlink:href="#path-4"></use>
                            <use xlink:href="#path-4"></use>
                        </g>
                        <g id="2.000" fill-rule="nonzero" fill="#000000">
                            <use xlink:href="#path-5"></use>
                            <use xlink:href="#path-5"></use>
                        </g>
                    </g>
                </g>
                <g id="Group-7" transform="translate(50.000000, 540.000000)" fill="#000000" fill-rule="nonzero">
                    <g id="T1">
                        <use xlink:href="#path-6"></use>
                        <use xlink:href="#path-6"></use>
                    </g>
                    <g id="T7">
                        <use xlink:href="#path-7"></use>
                        <use xlink:href="#path-7"></use>
                    </g>
                    <g id="T8">
                        <use xlink:href="#path-8"></use>
                        <use xlink:href="#path-8"></use>
                    </g>
                    <g id="T2">
                        <use xlink:href="#path-9"></use>
                        <use xlink:href="#path-9"></use>
                    </g>
                    <g id="T3">
                        <use xlink:href="#path-10"></use>
                        <use xlink:href="#path-10"></use>
                    </g>
                    <g id="T4">
                        <use xlink:href="#path-11"></use>
                        <use xlink:href="#path-11"></use>
                    </g>
                    <g id="T5">
                        <use xlink:href="#path-12"></use>
                        <use xlink:href="#path-12"></use>
                    </g>
                    <g id="T6">
                        <use xlink:href="#path-13"></use>
                        <use xlink:href="#path-13"></use>
                    </g>
                    <g id="T9">
                        <use xlink:href="#path-14"></use>
                        <use xlink:href="#path-14"></use>
                    </g>
                    <g id="T10">
                        <use xlink:href="#path-15"></use>
                        <use xlink:href="#path-15"></use>
                    </g>
                </g>
            </g>
        </g>
    </g>
</svg>