<?xml version="1.0" encoding="UTF-8"?>
<svg width="906px" height="102px" viewBox="0 0 906 102" version="1.1" xmlns="http://www.w3.org/2000/svg" xmlns:xlink="http://www.w3.org/1999/xlink">
    <!-- Generator: Sketch 55.1 (78136) - https://sketchapp.com -->
    <title>01 Fragment / Logo / El Confidencial 160px Copy 3</title>
    <desc>Created with Sketch.</desc>
    <g id="Welcome" stroke="none" stroke-width="1" fill="none" fill-rule="evenodd">
        <g id="01-Fragment-/-Logo-/-El-Confidencial-160px-Copy-3" transform="translate(-0.420000, 0.000000)" fill="#FFFFFF" fill-rule="nonzero">
            <path d="M0.42,100.075472 L0.42,92.1451485 L11.3986237,92.1451485 L11.3986237,13.3591114 L0.42,13.3591114 L0.42,5.77358491 L77.4446296,5.77358491 L77.4446296,28.0129695 L69.6027555,28.0129695 L69.6027555,14.3935014 L33.5301349,14.3935014 L33.5301349,44.5632093 L56.0101738,44.5632093 L56.0101738,32.6677245 L63.8520479,32.6677245 L63.8520479,65.2510089 L56.0101738,65.2510089 L56.0101738,53.3555241 L33.5301349,53.3555241 L33.5301349,91.4555552 L70.6483387,91.4555552 L70.6483387,77.8360871 L78.4902128,77.8360871 L78.4902128,100.075472 L0.42,100.075472 Z M110.269823,91.4489173 L118.971064,91.4489173 L118.971064,99.1132075 L81.3817021,99.1132075 L81.3817021,91.4489173 L90.0829433,91.4489173 L90.0829433,7.66429021 L81.3817021,7.66429021 L81.3817021,0 L110.269823,0 L110.269823,91.4489173 Z M236.558298,72.2514168 C234.284961,81.9624642 230.262903,89.2457497 224.317253,93.9278619 C218.371602,98.609974 210.502359,101.037736 200.709523,101.037736 C186.195141,101.037736 174.653585,96.7024468 166.259725,87.8584572 C157.865866,79.0144676 153.668936,67.0490699 153.668936,51.9622642 C153.668936,36.8754584 157.865866,24.9100607 166.259725,16.0660711 C174.653585,7.22208147 186.195141,2.88679245 200.709523,2.88679245 C205.780813,2.88679245 211.026975,3.5804387 216.622882,4.96773118 C222.218788,6.35502367 227.989566,8.4359624 234.110089,11.0371358 L234.110089,34.274285 L226.940334,34.274285 C225.366485,26.2973532 222.743404,20.4013601 218.721347,16.4128942 C214.699289,12.4244283 209.627999,10.5169011 203.157732,10.5169011 C194.763873,10.5169011 188.468478,13.9851323 184.446421,20.7481832 C180.424363,27.5112341 178.325898,37.9159277 178.325898,51.9622642 C178.325898,66.0086006 180.424363,76.4132942 184.446421,83.1763451 C188.468478,89.939396 194.763873,93.2342156 203.157732,93.2342156 C208.928511,93.2342156 213.650057,91.5001 217.147498,88.0318688 C220.819811,84.5636376 223.442893,79.1878792 225.016741,72.0780052 L236.558298,72.0780052 L236.558298,72.2514168 Z M274.629574,102 C263.861101,102 255.524218,98.8661715 249.44524,92.424413 C243.366263,86.156756 240.413617,77.2775753 240.413617,66.3091756 C240.413617,55.1666744 243.366263,46.4615952 249.44524,40.1939383 C255.524218,33.9262813 263.861101,30.7924528 274.629574,30.7924528 C285.398048,30.7924528 293.734931,33.9262813 299.813909,40.1939383 C305.892886,46.4615952 308.845532,55.1666744 308.845532,66.3091756 C308.845532,77.4516769 305.719201,86.156756 299.640224,92.424413 C293.561246,98.8661715 285.224363,102 274.629574,102 Z M275.111489,94.3018868 C279.254519,94.3018868 282.361791,92.2537649 284.088053,88.328198 C285.814316,84.4026311 286.677447,77.0635278 286.677447,66.310888 C286.677447,55.728925 285.814316,48.3898217 284.088053,44.4642548 C282.361791,40.5386879 279.427145,38.490566 275.111489,38.490566 C270.795834,38.490566 267.861188,40.5386879 266.134925,44.4642548 C264.408663,48.3898217 263.545532,55.728925 263.545532,66.310888 C263.545532,76.892851 264.408663,84.2319543 266.134925,88.1575212 C267.688561,92.2537649 270.795834,94.3018868 275.111489,94.3018868 Z M308.845532,99.7290566 L308.845532,92.1079245 L317.500766,92.1079245 L317.500766,40.1456604 L308.845532,40.1456604 L308.845532,32.5245283 L337.58091,32.5245283 L337.58091,42.0509434 C340.004375,38.0671698 342.77405,35.1226415 345.889934,33.390566 C349.005819,31.6584906 352.987226,30.7924528 357.661053,30.7924528 C364.412136,30.7924528 369.605276,33.0441509 373.06737,37.5475472 C376.529464,42.0509434 378.26051,48.6328302 378.26051,57.2932075 L378.26051,92.4543396 L386.915745,92.4543396 L386.915745,100.075472 L350.736866,100.075472 L350.736866,92.4543396 L358.007262,92.4543396 L358.007262,56.2539623 C358.007262,50.5381132 357.314844,46.5543396 356.103111,44.3026415 C354.718273,42.0509434 352.467912,41.0116981 349.352028,41.0116981 C345.37062,41.0116981 342.254736,42.7437736 340.350585,46.034717 C338.446433,49.3256604 337.58091,54.6950943 337.58091,61.7966038 L337.58091,91.934717 L344.851306,91.934717 L344.851306,99.5558491 L308.845532,99.5558491 L308.845532,99.7290566 Z M442.817872,16.9260231 L436.408089,16.9260231 C436.061615,13.6106165 435.195428,11.1676854 433.809529,9.5972296 C432.42363,8.02677385 430.344781,7.15429843 427.74622,7.15429843 C424.627947,7.15429843 422.549099,8.37576402 421.1632,10.8186952 C419.777301,13.2616264 419.084351,17.2750133 419.084351,22.6843609 L419.084351,31.4091151 L434.329241,31.4091151 L434.329241,39.0868988 L419.084351,39.0868988 L419.084351,91.4354239 L430.691256,91.4354239 L430.691256,99.1132075 L390.153709,99.1132075 L390.153709,91.4354239 L398.815578,91.4354239 L398.815578,39.0868988 L389.807234,39.0868988 L389.807234,31.4091151 L398.815578,31.4091151 L398.815578,22.858856 C398.815578,15.3555674 400.894426,9.5972296 405.225361,5.75833776 C409.556295,1.91944592 415.792841,0 424.108235,0 C427.399746,0 430.518018,0.174495084 433.636291,0.523485251 C436.754564,0.872475419 439.699599,1.57045575 442.644635,2.26843609 L442.644635,16.9260231 L442.817872,16.9260231 Z M466.886844,91.4746158 L475.588085,91.4746158 L475.588085,99.1132075 L437.998723,99.1132075 L437.998723,91.4746158 L446.699965,91.4746158 L446.699965,39.3933087 L437.998723,39.3933087 L437.998723,31.754717 L466.886844,31.754717 L466.886844,91.4746158 Z M444.745532,13.0771006 C444.745532,9.61571875 445.8096,6.84661328 447.937736,4.42364599 C450.065872,2.0006787 452.726043,0.962264151 455.918247,0.962264151 C458.933106,0.962264151 461.593277,2.17374779 463.721413,4.42364599 C465.849549,6.67354418 466.913617,9.61571875 466.913617,13.0771006 C466.913617,16.3654133 465.849549,19.3075879 463.721413,21.5574861 C461.593277,23.8073843 458.933106,25.0188679 455.918247,25.0188679 C452.726043,25.0188679 450.065872,23.8073843 447.937736,21.5574861 C445.8096,19.3075879 444.745532,16.3654133 444.745532,13.0771006 Z M542.096844,91.5478204 L550.766809,91.5478204 L550.766809,99.1397528 L521.982527,99.1397528 L521.982527,90.6851008 C520.248534,94.1359792 517.994344,96.7241379 515.046556,98.4495771 C512.098768,100.175016 508.457383,101.037736 504.2958,101.037736 C495.799235,101.037736 489.036663,97.9319453 484.008084,91.5478204 C479.152904,85.1636955 476.551915,76.5364997 476.551915,65.6662329 C476.551915,54.6234223 478.979505,45.9962264 484.008084,39.7846454 C488.863264,33.5730644 495.625836,30.4672739 504.2958,30.4672739 C508.630782,30.4672739 512.098768,31.3299935 515.046556,33.0554327 C517.994344,34.7808718 520.248534,37.3690306 521.982527,40.8199089 L521.982527,8.55419649 L513.312563,8.55419649 L513.312563,0.962264151 L542.270244,0.962264151 L542.270244,91.5478204 L542.096844,91.5478204 Z M522.815745,69.0164457 L522.815745,62.4691484 C522.815745,54.71577 521.939536,49.0299592 520.011876,45.5840133 C518.259458,42.1380673 515.280348,40.4150943 511.249787,40.4150943 C507.043985,40.4150943 504.064874,42.3103646 502.312456,45.9286079 C500.560039,49.5468511 499.68383,56.2664457 499.68383,65.9150943 C499.68383,75.563743 500.560039,82.1110403 502.312456,85.9015808 C504.064874,89.5198241 507.043985,91.4150943 511.249787,91.4150943 C515.280348,91.4150943 518.259458,89.6921214 520.011876,86.2461754 C521.939536,82.4556349 522.815745,76.7698241 522.815745,69.0164457 Z M616.307234,68.7338242 L574.820648,68.7338242 L574.820648,69.254855 C574.820648,77.9387023 576.030673,84.1910723 578.277863,88.185642 C580.697914,92.0065347 584.500851,93.9169811 589.686674,93.9169811 C594.008194,93.9169811 597.465409,92.7012425 600.231182,90.0960884 C602.996954,87.4909342 604.725562,83.8437184 605.417005,78.807087 L614.924348,78.807087 C613.19574,86.4488725 610.084246,92.1802117 605.244144,95.6537506 C600.404043,99.3009664 593.662472,101.037736 585.019433,101.037736 C574.474926,101.037736 566.52333,97.9115509 560.991785,91.8328578 C555.460241,85.7541647 552.694468,76.8966406 552.694468,65.4339623 C552.694468,54.3186378 555.460241,45.4611137 561.337507,39.2087437 C567.041913,32.9563737 574.993508,29.8301887 585.192294,29.8301887 C595.218219,29.8301887 602.824093,33.1300506 608.182778,39.7297745 C613.19574,46.5031753 615.961512,56.0554073 616.307234,68.7338242 Z M593.175319,61.5849057 C593.175319,52.758382 592.492962,46.5278947 590.957658,42.8934437 C589.422354,39.2589928 587.034103,37.5283019 583.451727,37.5283019 C580.03994,37.5283019 577.651689,39.2589928 576.116385,42.7203746 C574.581081,46.1817565 573.898723,52.0661056 573.898723,60.373422 L573.898723,61.5849057 L593.175319,61.5849057 Z M616.307234,99.7290566 L616.307234,92.1079245 L624.962468,92.1079245 L624.962468,40.1456604 L616.307234,40.1456604 L616.307234,32.5245283 L645.042612,32.5245283 L645.042612,42.0509434 C647.466077,38.0671698 650.235752,35.1226415 653.351637,33.390566 C656.467521,31.6584906 660.448929,30.7924528 665.122755,30.7924528 C671.873838,30.7924528 677.066978,33.0441509 680.529072,37.5475472 C683.991166,42.0509434 685.722213,48.6328302 685.722213,57.2932075 L685.722213,92.4543396 L694.377447,92.4543396 L694.377447,100.075472 L658.198568,100.075472 L658.198568,92.4543396 L665.468964,92.4543396 L665.468964,56.2539623 C665.468964,50.5381132 664.776546,46.5543396 663.564813,44.3026415 C662.179975,42.0509434 659.929615,41.0116981 656.81373,41.0116981 C652.832322,41.0116981 649.716438,42.7437736 647.812287,46.034717 C645.908135,49.3256604 645.042612,54.6950943 645.042612,61.7966038 L645.042612,91.934717 L652.313008,91.934717 L652.313008,99.5558491 L616.307234,99.5558491 L616.307234,99.7290566 Z M757.026383,79.0746434 C755.449207,86.7164289 752.470097,92.4477681 748.089052,96.2686608 C743.532766,100.089554 737.399304,102 729.688665,102 C718.823675,102 710.236828,98.873815 704.278607,92.621445 C698.320387,86.369075 695.341277,77.6852278 695.341277,66.3962264 C695.341277,55.280902 698.320387,46.4233778 704.278607,40.1710078 C710.236828,33.9186378 718.473191,30.7924528 728.812456,30.7924528 C733.018259,30.7924528 737.399304,31.3134837 741.780348,32.1818684 C746.161393,33.0502531 750.542437,34.4396687 755.098723,36.1764381 L755.098723,54.9335481 L748.614778,54.9335481 C748.089052,49.2022089 746.511876,45.0339623 744.058491,42.2551312 C741.605106,39.4763 738.275513,38.0868845 733.894468,38.0868845 C728.286731,38.0868845 724.080928,40.1710078 721.802785,44.5129314 C719.3494,48.6811781 718.122708,56.1492867 718.122708,66.5699034 C718.122708,76.8168431 719.3494,84.1112747 721.627544,88.4531983 C723.905687,92.795122 727.761006,95.0529222 733.018259,95.0529222 C737.04882,95.0529222 740.378414,93.6635067 742.831799,91.0583525 C745.285184,88.2795214 746.86236,84.4586286 747.388085,79.4219972 L757.026383,79.4219972 L757.026383,79.0746434 Z M787.842163,91.4746158 L796.543404,91.4746158 L796.543404,99.1132075 L758.954043,99.1132075 L758.954043,91.4746158 L767.655284,91.4746158 L767.655284,39.3933087 L758.954043,39.3933087 L758.954043,31.754717 L787.842163,31.754717 L787.842163,91.4746158 Z M765.700851,13.0771006 C765.700851,9.61571875 766.764919,6.84661328 768.893055,4.42364599 C771.021191,2.0006787 773.681362,0.962264151 776.873566,0.962264151 C779.888426,0.962264151 782.548596,2.17374779 784.676732,4.42364599 C786.804868,6.67354418 787.868936,9.61571875 787.868936,13.0771006 C787.868936,16.3654133 786.804868,19.3075879 784.676732,21.5574861 C782.548596,23.8073843 779.888426,25.0188679 776.873566,25.0188679 C773.681362,25.0188679 771.021191,23.8073843 768.893055,21.5574861 C766.942264,19.3075879 765.700851,16.3654133 765.700851,13.0771006 Z M857.333526,57.8973971 L857.333526,91.5087454 L865.939149,91.5087454 L865.939149,99.1319377 L837.36848,99.1319377 L837.36848,90.6424735 C834.786793,94.1075609 831.860881,96.8796309 828.590745,98.4389203 C825.320608,100.171464 821.706246,101.037736 817.575547,101.037736 C811.379498,101.037736 806.732462,99.1319377 803.462325,95.4935959 C800.192188,91.8552541 798.471064,86.4843685 798.471064,79.5541936 C798.471064,71.9310012 800.880638,66.3868613 805.527675,62.5752651 C810.174711,58.7636689 817.403435,56.8578708 826.86962,56.8578708 L837.36848,56.8578708 L837.36848,52.8730202 C837.36848,47.5021347 836.163693,43.3440297 833.926231,40.7452142 C831.688769,38.1463986 828.074407,36.933618 823.255258,36.933618 C819.296672,36.933618 816.198647,37.7998898 813.961185,39.7056879 C811.723723,41.611486 810.346824,44.5568104 809.314149,48.7149153 L802.945988,48.7149153 L802.945988,34.161548 C806.56035,32.775513 810.346824,31.5627324 814.133298,30.8697149 C817.919772,30.1766974 822.050471,29.8301887 826.353283,29.8301887 C837.196368,29.8301887 844.941429,32.0824955 849.93269,36.5871092 C854.923951,41.2649773 857.333526,48.1951522 857.333526,57.8973971 Z M837.988085,77.9818868 L837.988085,64.4716981 L830.415137,64.4716981 C826.628663,64.4716981 823.874863,65.6841509 821.809514,67.9358491 C819.744164,70.1875472 818.711489,73.4784906 818.711489,77.8086792 C818.711489,82.1388679 819.399939,85.2566038 820.948951,87.3350943 C822.497964,89.4135849 824.563313,90.4528302 827.661337,90.4528302 C830.759362,90.4528302 833.341049,89.2403774 835.062173,86.9886792 C836.95541,84.7369811 837.988085,81.7924528 837.988085,77.9818868 Z M897.718759,91.4489173 L906.42,91.4489173 L906.42,99.1132075 L868.830638,99.1132075 L868.830638,91.4489173 L877.531879,91.4489173 L877.531879,7.66429021 L868.830638,7.66429021 L868.830638,0 L897.718759,0 L897.718759,91.4489173 Z" id="El-Confidencial"></path>
        </g>
    </g>
</svg>