<?xml version="1.0" encoding="UTF-8"?>
<svg width="769px" height="83px" viewBox="0 0 769 83" version="1.1" xmlns="http://www.w3.org/2000/svg" xmlns:xlink="http://www.w3.org/1999/xlink">
    <!-- Generator: Sketch 56.2 (81672) - https://sketch.com -->
    <title>Group 8</title>
    <desc>Created with Sketch.</desc>
    <defs>
        <path d="M60.078,26.826 C60.078,31.0420211 58.4460163,33.4559969 55.182,34.068 C53.8899935,34.3400014 50.1160313,34.9519952 43.86,35.904 C39.3039772,36.5840034 34.6120241,37.5699935 29.784,38.862 C27.8799905,39.3380024 26.0100092,39.8139976 24.174,40.29 C21.6579874,40.9020031 19.7200068,41.6159959 18.36,42.432 C16.6599915,43.4520051 15.1300068,46.3759759 13.77,51.204 C12.7499949,55.4200211 11.7300051,59.6019793 10.71,63.75 C9.3499932,68.0340214 7.68400986,70.176 5.712,70.176 C3.87599082,70.176 2.41400544,69.1560102 1.326,67.116 C0.44199558,65.5519922 -2.84217094e-13,64.0560071 -2.84217094e-13,62.628 C-2.84217094e-13,59.635985 1.29198708,55.7260241 3.876,50.898 C6.46001292,46.0699759 7.752,43.1460051 7.752,42.126 C7.752,41.5139969 7.19100561,40.511007 6.069,39.117 C4.94699439,37.722993 4.386,36.3460068 4.386,34.986 C4.386,33.0819905 5.7459864,31.926002 8.466,31.518 L12.954,31.11 C15.6060133,24.717968 18.2919864,18.326032 21.012,11.934 C22.9160095,7.58197824 25.0409883,4.79400612 27.387,3.57 C29.7330117,2.34599388 34.1699674,1.734 40.698,1.734 C40.902001,1.734 42.5169849,1.61500119 45.543,1.377 C48.5690151,1.13899881 51.1359895,1.02 53.244,1.02 C60.5880367,1.02 64.26,2.34598674 64.26,4.998 C64.26,7.31001156 63.1890107,9.33299133 61.047,11.067 C58.9049893,12.8010087 56.8820095,13.668 54.978,13.668 L34.17,14.79 C30.9059837,15.0620014 28.3220095,16.8639833 26.418,20.196 C24.8539922,22.9840139 24.2419983,25.1599922 24.582,26.724 L52.938,23.358 C57.6980238,23.358 60.078,24.5139884 60.078,26.826 Z M176.419408,13.362 C175.875405,21.9980432 168.667478,27.1319918 154.795408,28.764 C159.691433,31.6880146 164.247387,34.951982 168.463408,38.556 C174.78744,43.9960272 177.949408,48.517982 177.949408,52.122 C177.949408,53.3460061 177.643411,54.9099905 177.031408,56.814 C176.351405,59.1940119 175.569413,60.384 174.685408,60.384 C174.209406,60.384 172.594422,58.6160177 169.840408,55.08 C167.086394,51.5439823 165.471411,49.7080007 164.995408,49.572 L142.249408,37.74 C141.229403,37.74 139.699418,37.4680027 137.659408,36.924 C134.939395,36.1759963 133.579408,35.2920051 133.579408,34.272 C133.579408,31.075984 136.197382,28.2540122 141.433408,25.806 C142.861415,25.1939969 145.853385,24.2080068 150.409408,22.848 C152.925421,22.1679966 154.863401,21.5560027 156.223408,21.012 C159.079422,19.9239946 161.017403,18.7680061 162.037408,17.544 C161.765407,16.7959963 160.745417,16.422 158.977408,16.422 C155.781392,16.422 150.885441,17.6799874 144.289408,20.196 C137.489374,22.7120126 133.715412,24.8539912 132.967408,26.622 C132.355405,27.9820068 131.556413,30.6679799 130.570408,34.68 C129.584403,38.6920201 128.513414,42.0919861 127.357408,44.88 C126.745405,46.3760075 126.099412,49.0959803 125.419408,53.04 C124.943406,55.6920133 123.957416,58.717983 122.461408,62.118 C120.013396,67.6940279 117.259423,70.482 114.199408,70.482 C113.655405,70.482 112.873413,70.0400044 111.853408,69.156 C111.717407,64.3959762 112.159403,59.9760204 113.179408,55.896 C113.791411,53.5159881 115.253397,49.3340299 117.565408,43.35 C120.081421,36.8219674 122.1214,30.8720269 123.685408,25.5 C122.0534,25.091998 120.353417,24.4460044 118.585408,23.562 C118.517408,22.7459959 118.687406,21.6580068 119.095408,20.298 C119.639411,18.2579898 119.945408,17.1020014 120.013408,16.83 C121.713417,16.3539976 123.685397,15.4360068 125.929408,14.076 C126.677412,12.9879946 127.425404,11.9510049 128.173408,10.965 C128.921412,9.97899507 130.1454,9.486 131.845408,9.486 C132.11741,9.486 133.426396,9.6559983 135.772408,9.996 C138.11842,10.3360017 139.461406,10.506 139.801408,10.506 C139.869409,10.506 142.402383,9.63900867 147.400408,7.905 C152.398433,6.17099133 156.903388,5.304 160.915408,5.304 C165.811433,5.304 169.177399,5.54199762 171.013408,6.018 C174.889428,7.17400578 176.69141,9.6219813 176.419408,13.362 Z M258.284816,1.836 C258.624818,8.2960323 257.638828,15.3339619 255.326816,22.95 C253.014805,29.6820337 250.668828,36.3799667 248.288816,43.044 C245.636803,50.7960388 243.834821,57.4939718 242.882816,63.138 C240.842806,64.5660071 239.278822,65.28 238.190816,65.28 C234.586798,65.28 232.784816,62.6960258 232.784816,57.528 C232.784816,51.4079694 234.620798,43.9960435 238.292816,35.292 C245.228851,18.6319167 249.614807,7.5820272 251.450816,2.142 C252.742823,1.1219949 254.03481,0.612 255.326816,0.612 C256.346821,0.612 257.332812,1.01999592 258.284816,1.836 Z M381.664224,28.356 C375.000191,30.0560085 365.888282,31.6199929 354.328224,33.048 C345.284179,34.1360054 339.402238,35.4279925 336.682224,36.924 C332.534204,39.0320105 330.664222,42.9079718 331.072224,48.552 C331.412226,48.756001 332.02422,48.858 332.908224,48.858 C333.724229,48.858 334.999216,48.756001 336.733224,48.552 C338.467233,48.347999 339.538222,48.246 339.946224,48.246 C340.626228,48.246 344.247192,47.4640078 350.809224,45.9 C357.371257,44.336 360.958221,43.554 361.570224,43.554 C363.542234,43.554 364.97022,43.7239983 365.854224,44.064 C367.418232,44.7440034 368.880218,46.2739881 370.240224,48.654 C367.996213,52.8700211 362.046273,57.0519793 352.390224,61.2 C343.210179,65.1440197 335.526255,67.116 329.338224,67.116 C325.122203,67.116 322.062234,66.3680075 320.158224,64.872 C317.914213,63.1039912 316.792224,60.1800204 316.792224,56.1 C316.792224,50.7279731 319.2402,40.9360711 324.136224,26.724 C328.828248,13.2599327 332.041216,5.74600782 333.775224,4.182 C335.509233,2.61799218 340.86418,1.836 349.840224,1.836 C353.920245,1.836 356.980214,2.14199694 359.020224,2.754 C362.012239,3.70600476 364.732212,5.64398538 367.180224,8.568 L366.262224,11.934 C366.126224,12.138001 363.50825,12.138001 358.408224,11.934 C352.492195,11.729999 347.97024,12.0699956 344.842224,12.954 C340.0142,14.3820071 337.600224,17.1359796 337.600224,21.216 L337.600224,23.97 C340.864241,24.0380003 346.98418,23.7660031 355.960224,23.154 C365.344271,22.5419969 371.294212,22.236 373.810224,22.236 C375.782234,22.236 377.805214,22.6269961 379.879224,23.409 C381.953235,24.1910039 382.990224,25.1599942 382.990224,26.316 C382.990224,26.9960034 382.548229,27.6759966 381.664224,28.356 Z M508.613633,4.896 C508.613633,7.14001122 506.573653,13.0219524 502.493633,22.542 C498.073611,32.8780517 493.619655,41.7179633 489.131633,49.062 C483.487604,58.1740456 478.96565,62.73 475.565633,62.73 C472.641618,62.73 469.513649,59.9080282 466.181633,54.264 C463.801621,50.2519799 461.353645,44.846034 458.837633,38.046 C457.613627,34.645983 456.423638,31.246017 455.267633,27.846 C451.935616,34.7820347 448.297652,45.4579279 444.353633,59.874 C444.013631,60.9620054 442.925642,62.1349937 441.089633,63.393 C439.253623,64.6510063 437.825638,65.28 436.805633,65.28 C434.35762,65.28 432.487639,64.1920109 431.195633,62.016 C430.243628,60.3159915 429.767633,58.4800099 429.767633,56.508 C429.767633,53.7199861 430.243628,51.1020122 431.195633,48.654 C433.643645,42.6019697 437.825603,34.2040537 443.741633,23.46 C447.27765,16.9319674 450.609617,12.0360163 453.737633,8.772 C454.145635,8.36399796 455.199624,8.02400136 456.899633,7.752 C459.347645,7.47999864 460.775631,7.27600068 461.183633,7.14 C467.099662,16.7280479 470.873624,29.919916 472.505633,46.716 C473.253636,47.3280031 474.375625,48.3479929 475.871633,49.776 C479.067649,44.2679725 483.011609,35.9380558 487.703633,24.786 C490.627647,17.7139646 492.565628,13.2600092 493.517633,11.424 C497.665653,3.80796192 501.609614,5.68434189e-14 505.349633,5.68434189e-14 C506.981641,5.68434189e-14 508.001631,0.6799932 508.409633,2.04 C508.545633,2.3800017 508.613633,3.33199218 508.613633,4.896 Z M648.109041,22.236 C648.109041,31.6200469 638.011142,40.9019541 617.815041,50.082 C611.55901,52.9380143 601.427111,56.6099776 587.419041,61.098 C584.155024,62.1180051 579.701069,63.7839884 574.057041,66.096 C570.929025,67.3880065 568.277052,68.034 566.101041,68.034 C563.99303,68.034 562.599044,67.5920044 561.919041,66.708 C561.443038,66.0959969 561.205041,64.8380095 561.205041,62.934 C561.205041,58.8539796 562.531028,52.4450437 565.183041,43.707 C567.835054,34.9689563 569.161041,28.798018 569.161041,25.194 C569.161041,23.0179891 568.855044,21.0800085 568.243041,19.38 C568.855044,18.4959956 569.977033,18.054 571.609041,18.054 C572.425045,18.054 573.309036,18.1899986 574.261041,18.462 C575.077045,17.3739946 575.757038,15.4020143 576.301041,12.546 C576.913044,9.34998402 577.457038,7.2420051 577.933041,6.222 C578.885046,4.24999014 580.44903,3.264 582.625041,3.264 C583.237044,3.264 583.917037,3.36599898 584.665041,3.57 C585.685046,4.2500034 586.195041,5.47399116 586.195041,7.242 L586.195041,7.65 C586.195041,8.87400612 586.331039,9.85999626 586.603041,10.608 C594.35508,6.59597994 599.761026,4.21600374 602.821041,3.468 C604.861051,2.99199762 609.383006,2.754 616.387041,2.754 C624.751083,2.754 631.211018,3.56999184 635.767041,5.202 C643.995082,8.19401496 648.109041,13.8719582 648.109041,22.236 Z M637.807041,24.582 C637.807041,20.2979786 634.271076,16.9660119 627.199041,14.586 C622.167016,12.9539918 617.339064,12.138 612.715041,12.138 C605.371004,12.138 598.707071,13.7019844 592.723041,16.83 C590.683031,17.8500051 588.643051,18.9039946 586.603041,19.992 C584.223029,21.2840065 582.863043,22.2359969 582.523041,22.848 C580.551031,26.7920197 578.749049,31.8919687 577.117041,38.148 C575.825034,43.3160258 574.533047,48.5179738 573.241041,53.754 C581.469082,51.4419884 593.64096,47.8380245 609.757041,42.942 C628.457134,36.9579701 637.807041,30.8380313 637.807041,24.582 Z M757.514449,52.224 C757.514449,58.4120309 751.734507,63.3759813 740.174449,67.116 C732.082409,69.7680133 725.384475,71.094 720.080449,71.094 C719.128444,71.094 717.224463,70.7880031 714.368449,70.176 C710.968432,69.4279963 708.282459,68.6120044 706.310449,67.728 L706.310449,64.464 C706.310449,63.1719935 706.650446,61.5400099 707.330449,59.568 C708.350454,56.9839871 709.642441,55.488002 711.206449,55.08 L732.422449,55.08 C732.55845,55.08 733.221443,55.1479993 734.411449,55.284 C735.601455,55.4200007 736.638445,55.488 737.522449,55.488 C741.466469,55.488 744.118442,54.2640122 745.478449,51.816 L745.478449,50.184 C742.350433,46.3079806 736.808489,44.0300034 728.852449,43.35 C722.596418,43.0099983 716.34048,42.636002 710.084449,42.228 C704.168419,41.0039939 701.210449,37.6040279 701.210449,32.028 C701.210449,28.4919823 703.760423,24.5140221 708.860449,20.094 C713.212471,16.3539813 718.482418,12.988015 724.670449,9.996 C730.450478,7.20798606 734.666436,5.814 737.318449,5.814 C743.098478,5.814 745.988449,7.8539796 745.988449,11.934 C745.988449,16.0140204 743.472474,18.6659939 738.440449,19.89 C733.612425,20.5020031 728.818473,21.1479966 724.058449,21.828 C718.686422,22.9160054 715.762451,25.363981 715.286449,29.172 C720.454475,29.9880041 725.656423,30.8379956 730.892449,31.722 C738.644488,33.1500071 744.628428,35.1559871 748.844449,37.74 C754.624478,41.344018 757.514449,46.1719697 757.514449,52.224 Z" id="path-1"></path>
        <filter x="-1.3%" y="-11.3%" width="102.6%" height="128.1%" filterUnits="objectBoundingBox" id="filter-2">
            <feOffset dx="0" dy="2" in="SourceAlpha" result="shadowOffsetOuter1"></feOffset>
            <feGaussianBlur stdDeviation="3" in="shadowOffsetOuter1" result="shadowBlurOuter1"></feGaussianBlur>
            <feColorMatrix values="0 0 0 0 0   0 0 0 0 0   0 0 0 0 0  0 0 0 0.100223995 0" type="matrix" in="shadowBlurOuter1"></feColorMatrix>
        </filter>
        <circle id="path-3" cx="87" cy="36" r="8"></circle>
        <filter x="-62.5%" y="-50.0%" width="225.0%" height="225.0%" filterUnits="objectBoundingBox" id="filter-4">
            <feOffset dx="0" dy="2" in="SourceAlpha" result="shadowOffsetOuter1"></feOffset>
            <feGaussianBlur stdDeviation="3" in="shadowOffsetOuter1" result="shadowBlurOuter1"></feGaussianBlur>
            <feColorMatrix values="0 0 0 0 0   0 0 0 0 0   0 0 0 0 0  0 0 0 0.100223995 0" type="matrix" in="shadowBlurOuter1"></feColorMatrix>
        </filter>
        <circle id="path-5" cx="210" cy="36" r="8"></circle>
        <filter x="-62.5%" y="-50.0%" width="225.0%" height="225.0%" filterUnits="objectBoundingBox" id="filter-6">
            <feOffset dx="0" dy="2" in="SourceAlpha" result="shadowOffsetOuter1"></feOffset>
            <feGaussianBlur stdDeviation="3" in="shadowOffsetOuter1" result="shadowBlurOuter1"></feGaussianBlur>
            <feColorMatrix values="0 0 0 0 0   0 0 0 0 0   0 0 0 0 0  0 0 0 0.100223995 0" type="matrix" in="shadowBlurOuter1"></feColorMatrix>
        </filter>
        <circle id="path-7" cx="288" cy="36" r="8"></circle>
        <filter x="-62.5%" y="-50.0%" width="225.0%" height="225.0%" filterUnits="objectBoundingBox" id="filter-8">
            <feOffset dx="0" dy="2" in="SourceAlpha" result="shadowOffsetOuter1"></feOffset>
            <feGaussianBlur stdDeviation="3" in="shadowOffsetOuter1" result="shadowBlurOuter1"></feGaussianBlur>
            <feColorMatrix values="0 0 0 0 0   0 0 0 0 0   0 0 0 0 0  0 0 0 0.100223995 0" type="matrix" in="shadowBlurOuter1"></feColorMatrix>
        </filter>
        <circle id="path-9" cx="407" cy="36" r="8"></circle>
        <filter x="-62.5%" y="-50.0%" width="225.0%" height="225.0%" filterUnits="objectBoundingBox" id="filter-10">
            <feOffset dx="0" dy="2" in="SourceAlpha" result="shadowOffsetOuter1"></feOffset>
            <feGaussianBlur stdDeviation="3" in="shadowOffsetOuter1" result="shadowBlurOuter1"></feGaussianBlur>
            <feColorMatrix values="0 0 0 0 0   0 0 0 0 0   0 0 0 0 0  0 0 0 0.100223995 0" type="matrix" in="shadowBlurOuter1"></feColorMatrix>
        </filter>
        <circle id="path-11" cx="535" cy="36" r="8"></circle>
        <filter x="-62.5%" y="-50.0%" width="225.0%" height="225.0%" filterUnits="objectBoundingBox" id="filter-12">
            <feOffset dx="0" dy="2" in="SourceAlpha" result="shadowOffsetOuter1"></feOffset>
            <feGaussianBlur stdDeviation="3" in="shadowOffsetOuter1" result="shadowBlurOuter1"></feGaussianBlur>
            <feColorMatrix values="0 0 0 0 0   0 0 0 0 0   0 0 0 0 0  0 0 0 0.100223995 0" type="matrix" in="shadowBlurOuter1"></feColorMatrix>
        </filter>
        <circle id="path-13" cx="671" cy="36" r="8"></circle>
        <filter x="-62.5%" y="-50.0%" width="225.0%" height="225.0%" filterUnits="objectBoundingBox" id="filter-14">
            <feOffset dx="0" dy="2" in="SourceAlpha" result="shadowOffsetOuter1"></feOffset>
            <feGaussianBlur stdDeviation="3" in="shadowOffsetOuter1" result="shadowBlurOuter1"></feGaussianBlur>
            <feColorMatrix values="0 0 0 0 0   0 0 0 0 0   0 0 0 0 0  0 0 0 0.100223995 0" type="matrix" in="shadowBlurOuter1"></feColorMatrix>
        </filter>
    </defs>
    <g id="Welcome" stroke="none" stroke-width="1" fill="none" fill-rule="evenodd">
        <g id="Desktop-HD-Copy-15" transform="translate(-335.000000, -570.000000)">
            <g id="Group-8" transform="translate(341.000000, 574.000000)">
                <g id="Group-4">
                    <g id="friends:" fill-rule="nonzero">
                        <use fill="black" fill-opacity="1" filter="url(#filter-2)" xlink:href="#path-1"></use>
                        <use fill="#FFFFFF" xlink:href="#path-1"></use>
                    </g>
                    <g id="Oval">
                        <use fill="black" fill-opacity="1" filter="url(#filter-4)" xlink:href="#path-3"></use>
                        <use fill="#D44F5C" fill-rule="evenodd" xlink:href="#path-3"></use>
                    </g>
                    <g id="Oval-Copy">
                        <use fill="black" fill-opacity="1" filter="url(#filter-6)" xlink:href="#path-5"></use>
                        <use fill="#4C5796" fill-rule="evenodd" xlink:href="#path-5"></use>
                    </g>
                    <g id="Oval-Copy-2">
                        <use fill="black" fill-opacity="1" filter="url(#filter-8)" xlink:href="#path-7"></use>
                        <use fill="#E5BE60" fill-rule="evenodd" xlink:href="#path-7"></use>
                    </g>
                    <g id="Oval-Copy-3">
                        <use fill="black" fill-opacity="1" filter="url(#filter-10)" xlink:href="#path-9"></use>
                        <use fill="#D44F5C" fill-rule="evenodd" xlink:href="#path-9"></use>
                    </g>
                    <g id="Oval-Copy-4">
                        <use fill="black" fill-opacity="1" filter="url(#filter-12)" xlink:href="#path-11"></use>
                        <use fill="#E5BE60" fill-rule="evenodd" xlink:href="#path-11"></use>
                    </g>
                    <g id="Oval-Copy-5">
                        <use fill="black" fill-opacity="1" filter="url(#filter-14)" xlink:href="#path-13"></use>
                        <use fill="#4C5796" fill-rule="evenodd" xlink:href="#path-13"></use>
                    </g>
                </g>
            </g>
        </g>
    </g>
</svg>