<?xml version="1.0" encoding="UTF-8"?>
<svg width="201px" height="14px" viewBox="0 0 201 14" version="1.1" xmlns="http://www.w3.org/2000/svg" xmlns:xlink="http://www.w3.org/1999/xlink">
    <!-- Generator: Sketch 56.2 (81672) - https://sketch.com -->
    <title>ILUSTRACIÓNYFORMATO</title>
    <desc>Created with Sketch.</desc>
    <g id="Welcome" stroke="none" stroke-width="1" fill="none" fill-rule="evenodd">
        <g id="Friends" transform="translate(-805.000000, -1052.000000)" fill="#434343" fill-rule="nonzero">
            <path d="M808.792,1054.264 C808.832,1055.168 808.628002,1056.20399 808.18,1057.372 L806.98,1060.324 C806.771999,1060.924 806.548001,1061.94399 806.308,1063.384 C806.123999,1063.52 805.964001,1063.588 805.828,1063.588 C805.299997,1063.588 805.036,1063.208 805.036,1062.448 C805.036,1061.76 805.163999,1061.04 805.42,1060.288 C805.540001,1059.92 805.867997,1059.10601 806.404,1057.846 C806.940003,1056.58599 807.395998,1055.40401 807.772,1054.3 C807.964001,1054.148 808.159999,1054.072 808.36,1054.072 C808.504001,1054.072 808.647999,1054.136 808.792,1054.264 Z M820.038491,1061.524 C820.038491,1061.668 819.934492,1061.9 819.726491,1062.22 C819.502489,1062.588 819.290492,1062.772 819.090491,1062.772 C819.114491,1062.772 818.870493,1062.72 818.358491,1062.616 C817.846488,1062.512 817.282494,1062.46 816.666491,1062.46 C815.730486,1062.46 814.666497,1062.586 813.474491,1062.838 C812.282485,1063.09 811.394493,1063.216 810.810491,1063.216 C810.530489,1063.216 810.334491,1063.188 810.222491,1063.132 C810.06249,1063.052 809.982491,1062.88 809.982491,1062.616 C809.982491,1062.592 810.130489,1062.252 810.426491,1061.596 C810.762492,1060.844 811.01049,1060.212 811.170491,1059.7 C811.594493,1058.26799 811.986489,1056.42801 812.346491,1054.18 C812.402491,1053.804 812.610489,1053.616 812.970491,1053.616 C813.122491,1053.616 813.28249,1053.696 813.450491,1053.856 C813.474491,1056.10401 812.998495,1058.43999 812.022491,1060.864 C812.182491,1060.84 812.690486,1060.756 813.546491,1060.612 C814.250494,1060.484 814.63849,1060.42 814.710491,1060.42 C815.758496,1060.42 816.702486,1060.464 817.542491,1060.552 C819.206499,1060.736 820.038491,1061.06 820.038491,1061.524 Z M828.500981,1054.612 C828.500981,1055.084 828.236984,1055.97999 827.708981,1057.3 C827.100978,1058.83601 826.416981,1060.11199 825.656981,1061.128 C824.696976,1062.42401 823.748986,1063.072 822.812981,1063.072 C822.172978,1063.072 821.668983,1062.52401 821.300981,1061.428 C821.04498,1060.676 820.916981,1060.024 820.916981,1059.472 C820.916981,1059.392 820.98898,1058.65601 821.132981,1057.264 C821.292982,1055.71199 821.396981,1054.58 821.444981,1053.868 C821.468981,1053.868 821.54898,1053.844 821.684981,1053.796 C821.820982,1053.748 821.944981,1053.724 822.056981,1053.724 C822.560984,1053.724 822.96498,1053.87 823.268981,1054.162 C823.572983,1054.454 823.724981,1054.836 823.724981,1055.308 C823.724981,1055.412 823.520983,1056.30599 823.112981,1057.99 C822.704979,1059.67401 822.500981,1060.568 822.500981,1060.672 C822.500981,1060.912 822.528981,1061.072 822.584981,1061.152 C822.656981,1061.256 822.79698,1061.308 823.004981,1061.308 C823.596984,1061.308 824.232978,1060.66801 824.912981,1059.388 C825.400984,1058.484 825.900979,1057.26801 826.412981,1055.74 L827.132981,1053.484 L827.828981,1053.484 C828.276983,1053.924 828.500981,1054.3 828.500981,1054.612 Z M837.839472,1061.488 C837.839472,1062.176 837.371476,1062.776 836.435472,1063.288 C835.739468,1063.672 834.831477,1063.984 833.711472,1064.224 C832.887468,1064.4 832.283474,1064.488 831.899472,1064.488 C831.747471,1064.488 831.443474,1064.436 830.987472,1064.332 C830.459469,1064.212 830.035473,1064.084 829.715472,1063.948 L829.715472,1063.432 C829.707472,1062.984 829.91947,1062.592 830.351472,1062.256 L833.651472,1062.58 C834.523476,1062.548 835.339468,1062.3 836.099472,1061.836 L836.099472,1061.572 C835.611469,1060.956 834.719478,1060.56 833.423472,1060.384 C832.399472,1060.256 831.379477,1060.128 830.363472,1060 C829.387467,1059.744 828.899472,1059.172 828.899472,1058.284 C828.899472,1057.716 829.307468,1057.08 830.123472,1056.376 C830.811475,1055.792 831.647467,1055.26 832.631472,1054.78 C833.551476,1054.34 834.22347,1054.12 834.647472,1054.12 C835.239475,1054.12 835.575471,1054.128 835.655472,1054.144 C835.983473,1054.224 836.131472,1054.444 836.099472,1054.804 C836.059471,1055.26 835.639476,1055.624 834.839472,1055.896 C834.079468,1056.128 833.323475,1056.36 832.571472,1056.592 C831.747468,1056.936 831.291472,1057.416 831.203472,1058.032 C832.027476,1058.152 832.847468,1058.272 833.663472,1058.392 C834.895478,1058.584 835.839468,1058.868 836.495472,1059.244 C837.391476,1059.772 837.839472,1060.52 837.839472,1061.488 Z M849.457962,1054.42 C849.457962,1054.668 849.185965,1054.884 848.641962,1055.068 C848.305961,1055.188 847.993964,1055.264 847.705962,1055.296 C846.353956,1055.456 844.86997,1055.756 843.253962,1056.196 C843.245962,1056.324 843.209963,1056.488 843.145962,1056.688 C843.065962,1056.936 843.017962,1057.092 843.001962,1057.156 C842.801961,1057.94 842.597963,1058.724 842.389962,1059.508 C841.98996,1061.11601 841.789962,1062.108 841.789962,1062.484 L841.753962,1063.948 C841.753962,1064.052 841.645963,1064.136 841.429962,1064.2 C841.269961,1064.248 841.141963,1064.272 841.045962,1064.272 C840.60596,1064.272 840.385962,1063.916 840.385962,1063.204 C840.385962,1062.868 840.469961,1062.316 840.637962,1061.548 C840.773963,1060.908 840.893962,1060.428 840.997962,1060.108 C841.061963,1059.924 841.161962,1059.388 841.297962,1058.5 C841.449963,1057.556 841.525962,1056.932 841.525962,1056.628 C841.525962,1056.468 841.461963,1056.356 841.333962,1056.292 L839.257962,1056.4 C838.921961,1056.48 838.753962,1056.216 838.753962,1055.608 C838.753962,1055.264 838.841961,1055.036 839.017962,1054.924 C839.137963,1054.852 839.349961,1054.816 839.653962,1054.816 C839.693962,1054.816 839.781962,1054.824 839.917962,1054.84 C840.053963,1054.856 840.149962,1054.868 840.205962,1054.876 L847.369962,1053.796 C847.857965,1053.852 848.34196,1053.904 848.821962,1053.952 C849.245964,1054.024 849.457962,1054.18 849.457962,1054.42 Z M858.436453,1056.112 C858.436453,1056.608 858.076456,1057.016 857.356453,1057.336 C856.83645,1057.568 856.152457,1057.744 855.304453,1057.864 C854.896451,1057.904 854.492455,1057.944 854.092453,1057.984 C854.564455,1058.24 855.03645,1058.492 855.508453,1058.74 C856.212456,1059.132 856.752451,1059.496 857.128453,1059.832 C857.640455,1060.296 857.896453,1060.748 857.896453,1061.188 C857.896453,1061.38 857.864453,1061.552 857.800453,1061.704 C857.712452,1061.904 857.588454,1062.004 857.428453,1062.004 C857.348452,1062.004 857.112455,1061.784 856.720453,1061.344 C856.328451,1060.904 856.088453,1060.672 856.000453,1060.648 L852.520453,1059.76 C852.336452,1059.76 852.060455,1059.712 851.692453,1059.616 C851.21245,1059.48 850.972453,1059.324 850.972453,1059.148 C850.972453,1058.58 851.436448,1058.084 852.364453,1057.66 C852.620454,1057.548 853.148449,1057.376 853.948453,1057.144 C854.396455,1057.008 854.736452,1056.896 854.968453,1056.808 C855.472455,1056.608 855.820452,1056.404 856.012453,1056.196 C855.964453,1056.06 855.780454,1055.992 855.460453,1055.992 C854.84445,1055.992 854.000458,1056.14 852.928453,1056.436 C851.760447,1056.764 851.112453,1057.076 850.984453,1057.372 C850.656451,1058.092 850.136456,1059.26799 849.424453,1060.9 C849.312452,1061.164 849.196453,1061.644 849.076453,1062.34 C849.036453,1062.644 848.996453,1062.944 848.956453,1063.24 C848.844452,1063.864 848.696454,1064.368 848.512453,1064.752 C848.256452,1065.28 847.940455,1065.544 847.564453,1065.544 C847.460452,1065.544 847.324454,1065.464 847.156453,1065.304 C847.124453,1064.472 847.200452,1063.692 847.384453,1062.964 C847.496453,1062.54 847.752451,1061.80401 848.152453,1060.756 C848.600455,1059.60399 848.964451,1058.552 849.244453,1057.6 C849.204453,1057.576 849.028454,1057.524 848.716453,1057.444 C848.476452,1057.372 848.352453,1057.308 848.344453,1057.252 C848.328453,1057.108 848.356452,1056.916 848.428453,1056.676 C848.532453,1056.316 848.584453,1056.116 848.584453,1056.076 C848.592453,1056.076 848.784451,1056.004 849.160453,1055.86 C849.416454,1055.764 849.576453,1055.672 849.640453,1055.584 C849.760453,1055.392 849.884452,1055.204 850.012453,1055.02 C850.156454,1054.86 850.380451,1054.78 850.684453,1054.78 C850.732453,1054.78 850.962451,1054.808 851.374453,1054.864 C851.786455,1054.92 852.024453,1054.948 852.088453,1054.948 C852.160453,1054.948 852.404451,1054.868 852.820453,1054.708 C853.332455,1054.508 853.768451,1054.36 854.128453,1054.264 C854.728456,1054.104 855.28845,1054.024 855.808453,1054.024 C856.432456,1054.024 856.99645,1054.18 857.500453,1054.492 C858.124456,1054.876 858.436453,1055.416 858.436453,1056.112 Z M871.002943,1058.896 C870.922943,1059.32 870.838944,1059.592 870.750943,1059.712 C870.662943,1059.832 870.514944,1059.892 870.306943,1059.892 C870.258943,1059.892 870.158944,1059.888 870.006943,1059.88 C869.854943,1059.872 869.726944,1059.868 869.622943,1059.868 C869.638943,1059.868 869.494945,1059.884 869.190943,1059.916 C868.942942,1059.94 868.770944,1059.94 868.674943,1059.916 L868.530943,1061.044 C868.418943,1061.82 868.270944,1062.44 868.086943,1062.904 C867.830942,1063.56 867.518945,1063.888 867.150943,1063.888 C866.606941,1063.888 866.334943,1063.24401 866.334943,1061.956 C866.334943,1061.636 866.352943,1061.274 866.388943,1060.87 C866.424944,1060.466 866.442943,1060.276 866.442943,1060.3 C866.426943,1060.284 866.420943,1060.25 866.424943,1060.198 C866.428943,1060.146 866.402944,1060.12 866.346943,1060.12 C866.178943,1060.12 865.710947,1060.172 864.942943,1060.276 C863.982939,1060.412 863.246946,1060.556 862.734943,1060.708 C862.694943,1060.716 862.542945,1060.9 862.278943,1061.26 C861.966942,1061.684 861.782944,1061.928 861.726943,1061.992 L860.790943,1063.24 C860.438942,1063.672 860.042946,1063.888 859.602943,1063.888 C858.95494,1063.888 858.630943,1063.584 858.630943,1062.976 C858.630943,1062.464 859.890931,1061.05201 862.410943,1058.74 C863.906951,1057.41999 865.398936,1056.10001 866.886943,1054.78 C867.038944,1054.652 867.266942,1054.544 867.570943,1054.456 C867.850945,1054.384 868.110942,1054.348 868.350943,1054.348 C868.750945,1054.348 869.002943,1054.496 869.106943,1054.792 C869.154944,1054.92 869.178943,1055.212 869.178943,1055.668 L868.938943,1058.644 L870.606943,1058.644 C870.774944,1058.636 870.906943,1058.72 871.002943,1058.896 Z M866.526943,1058.572 L866.430943,1057.66 C866.390943,1057.284 866.294944,1057.024 866.142943,1056.88 C865.846942,1057.096 865.494945,1057.444 865.086943,1057.924 C864.782942,1058.3 864.478945,1058.672 864.174943,1059.04 L866.526943,1058.572 Z M884.565434,1060.648 C884.565434,1060.776 884.261437,1060.972 883.653434,1061.236 C880.165417,1062.73201 877.421444,1063.48 875.421434,1063.48 C874.501429,1063.48 873.761437,1063.324 873.201434,1063.012 C872.43343,1062.58 872.049434,1061.88 872.049434,1060.912 C872.049434,1060.024 872.665428,1058.99201 873.897434,1057.816 C874.929439,1056.824 876.181427,1055.92 877.653434,1055.104 C879.045441,1054.328 880.049434,1053.94 880.665434,1053.94 C881.121436,1053.94 881.349434,1054.22 881.349434,1054.78 C881.349434,1055.02 881.333434,1055.176 881.301434,1055.248 C881.261434,1055.368 881.137435,1055.52 880.929434,1055.704 C880.873434,1055.752 880.177441,1056.088 878.841434,1056.712 C877.457427,1057.368 876.385438,1057.992 875.625434,1058.584 C874.513428,1059.464 873.957434,1060.352 873.957434,1061.248 C873.957434,1061.688 874.229431,1062 874.773434,1062.184 C875.101436,1062.296 875.477432,1062.352 875.901434,1062.352 C876.581437,1062.352 877.377429,1062.256 878.289434,1062.064 C879.017438,1061.904 879.545432,1061.756 879.873434,1061.62 C880.433437,1061.324 881.289428,1060.908 882.441434,1060.372 C883.209438,1060.06 883.609434,1059.904 883.641434,1059.904 C883.769435,1059.904 883.955433,1059.994 884.199434,1060.174 C884.443435,1060.354 884.565434,1060.512 884.565434,1060.648 Z M888.407925,1054.264 C888.447925,1055.168 888.243927,1056.20399 887.795925,1057.372 L886.595925,1060.324 C886.387923,1060.924 886.163926,1061.94399 885.923925,1063.384 C885.739924,1063.52 885.579925,1063.588 885.443925,1063.588 C884.915922,1063.588 884.651925,1063.208 884.651925,1062.448 C884.651925,1061.76 884.779923,1061.04 885.035925,1060.288 C885.155925,1059.92 885.483922,1059.10601 886.019925,1057.846 C886.555927,1056.58599 887.011923,1055.40401 887.387925,1054.3 C887.579925,1054.148 887.775924,1054.072 887.975925,1054.072 C888.119925,1054.072 888.263924,1054.136 888.407925,1054.264 Z M897.794415,1058.536 C897.794415,1059.82401 897.378419,1061.01999 896.546415,1062.124 C895.61041,1063.37201 894.446422,1063.996 893.054415,1063.996 C891.96641,1063.996 891.114418,1063.68 890.498415,1063.048 C889.914412,1062.44 889.622415,1061.62801 889.622415,1060.612 C889.622415,1060.204 889.766414,1059.47601 890.054415,1058.428 C890.414417,1057.13999 890.834413,1056.088 891.314415,1055.272 C891.938418,1054.19199 892.602412,1053.652 893.306415,1053.652 C894.578421,1053.652 895.638411,1054.1 896.486415,1054.996 C897.358419,1055.916 897.794415,1057.09599 897.794415,1058.536 Z M895.178415,1059.016 C895.178415,1058.28 895.134416,1057.636 895.046415,1057.084 C894.854414,1055.93199 894.506418,1055.356 894.002415,1055.356 C893.554413,1055.356 893.110417,1055.744 892.670415,1056.52 C892.326413,1057.136 892.018416,1057.912 891.746415,1058.848 C891.514414,1059.648 891.398415,1060.208 891.398415,1060.528 C891.398415,1060.768 891.506414,1061.048 891.722415,1061.368 C892.034417,1061.824 892.470412,1062.052 893.030415,1062.052 C893.798419,1062.052 894.378413,1061.628 894.770415,1060.78 C895.042416,1060.196 895.178415,1059.608 895.178415,1059.016 Z M894.338415,1052.896 C893.842413,1053.04 893.530416,1053.128 893.402415,1053.16 C892.946413,1053.368 892.558417,1053.56 892.238415,1053.736 C891.966414,1053.848 891.674417,1053.904 891.362415,1053.904 C891.226414,1053.904 891.140415,1053.886 891.104415,1053.85 C891.068415,1053.814 891.022415,1053.724 890.966415,1053.58 C890.958415,1053.556 891.006415,1053.476 891.110415,1053.34 C891.214416,1053.204 891.294415,1053.116 891.350415,1053.076 C891.582416,1052.956 891.774414,1052.868 891.926415,1052.812 C892.614419,1052.604 893.038414,1052.48 893.198415,1052.44 C893.222415,1052.432 893.382414,1052.384 893.678415,1052.296 C893.886416,1052.232 894.022415,1052.204 894.086415,1052.212 C894.246416,1052.212 894.398414,1052.308 894.542415,1052.5 C894.606415,1052.58 894.614415,1052.676 894.566415,1052.788 L894.338415,1052.896 Z M910.600906,1054.12 C910.600906,1054.456 910.300909,1055.32399 909.700906,1056.724 C909.052902,1058.24401 908.396909,1059.54399 907.732906,1060.624 C906.908902,1061.96001 906.248908,1062.628 905.752906,1062.628 C905.312903,1062.628 904.848908,1062.216 904.360906,1061.392 C904.008904,1060.8 903.648908,1060.00401 903.280906,1059.004 L902.752906,1057.492 C902.264903,1058.52401 901.728909,1060.09599 901.144906,1062.208 C901.104905,1062.376 900.946907,1062.552 900.670906,1062.736 C900.394904,1062.92 900.184906,1063.012 900.040906,1063.012 C899.680904,1063.012 899.404907,1062.848 899.212906,1062.52 C899.068905,1062.28 898.996906,1062.016 898.996906,1061.728 C898.996906,1061.304 899.068905,1060.916 899.212906,1060.564 C899.580908,1059.676 900.196901,1058.44001 901.060906,1056.856 C901.580908,1055.896 902.068903,1055.176 902.524906,1054.696 C902.588906,1054.632 902.744904,1054.584 902.992906,1054.552 C903.352907,1054.504 903.564905,1054.472 903.628906,1054.456 C904.50091,1055.87201 905.056904,1057.81199 905.296906,1060.276 C905.400906,1060.372 905.564905,1060.524 905.788906,1060.732 C906.252908,1059.924 906.828902,1058.69601 907.516906,1057.048 C907.956908,1056.00799 908.244905,1055.356 908.380906,1055.092 C908.988909,1053.97199 909.568903,1053.412 910.120906,1053.412 C910.360907,1053.412 910.512905,1053.512 910.576906,1053.712 C910.592906,1053.76 910.600906,1053.896 910.600906,1054.12 Z M924.201887,1054.048 C924.153887,1054.8 923.885889,1055.536 923.397887,1056.256 C923.021885,1056.8 922.51389,1057.352 921.873887,1057.912 C921.417885,1058.28 920.961889,1058.644 920.505887,1059.004 C920.321886,1059.156 920.125888,1059.73599 919.917887,1060.744 C919.733886,1061.672 919.637887,1062.424 919.629887,1063 C919.557886,1063.16 919.337889,1063.24 918.969887,1063.24 C918.705885,1063.24 918.573887,1062.94 918.573887,1062.34 C918.573887,1062.092 918.609886,1061.584 918.681887,1060.816 C918.745887,1060.08 918.773887,1059.524 918.765887,1059.148 C918.757887,1058.924 918.617888,1058.532 918.345887,1057.972 C918.073885,1057.412 917.933887,1057.1 917.925887,1057.036 C917.813886,1056.092 917.757887,1055.428 917.757887,1055.044 C917.757887,1054.22 917.897885,1053.64 918.177887,1053.304 L918.897887,1053.4 C919.025887,1053.576 919.089887,1053.82 919.089887,1054.132 C919.089887,1054.244 919.079887,1054.414 919.059887,1054.642 C919.039887,1054.87 919.029887,1055.032 919.029887,1055.128 C919.029887,1055.24 919.037887,1055.332 919.053887,1055.404 L919.749887,1057.948 C920.237889,1057.62 921.001882,1056.82801 922.041887,1055.572 C922.969891,1054.44399 923.497886,1053.872 923.625887,1053.856 C923.873888,1053.84 924.065886,1053.904 924.201887,1054.048 Z M941.762868,1058.248 C941.762868,1058.32 941.678869,1058.454 941.510868,1058.65 C941.342867,1058.846 941.194869,1058.956 941.066868,1058.98 C940.938867,1059.004 940.278874,1059.108 939.086868,1059.292 C938.294864,1059.412 937.462872,1059.588 936.590868,1059.82 C936.262866,1059.9 935.93887,1059.98 935.618868,1060.06 C935.170866,1060.18 934.826869,1060.308 934.586868,1060.444 C934.282866,1060.62 933.998869,1061.188 933.734868,1062.148 L933.086868,1064.62 C932.814867,1065.468 932.50687,1065.892 932.162868,1065.892 C931.834866,1065.892 931.574869,1065.712 931.382868,1065.352 C931.230867,1065.08 931.154868,1064.816 931.154868,1064.56 C931.154868,1064.032 931.382866,1063.342 931.838868,1062.49 C932.29487,1061.638 932.522868,1061.124 932.522868,1060.948 C932.522868,1060.836 932.424869,1060.656 932.228868,1060.408 C932.032867,1060.16 931.934868,1059.916 931.934868,1059.676 C931.934868,1059.348 932.174866,1059.144 932.654868,1059.064 C932.910869,1059.04 933.170867,1059.016 933.434868,1058.992 C933.442868,1058.976 933.878864,1057.90001 934.742868,1055.764 C935.014869,1055.1 935.322866,1054.696 935.666868,1054.552 C935.970869,1054.432 936.722862,1054.372 937.922868,1054.372 C937.970868,1054.372 938.078867,1054.368 938.246868,1054.36 C938.414869,1054.352 938.550867,1054.348 938.654868,1054.348 C939.598873,1054.348 940.070868,1054.64 940.070868,1055.224 C940.070868,1055.624 939.938869,1055.9 939.674868,1056.052 C939.498867,1056.148 939.22687,1056.196 938.858868,1056.196 L937.046868,1056.196 C936.678866,1056.196 936.30687,1056.492 935.930868,1057.084 C935.586866,1057.62 935.442868,1058 935.498868,1058.224 L940.490868,1057.624 C940.778869,1057.624 941.038867,1057.664 941.270868,1057.744 C941.59887,1057.856 941.762868,1058.024 941.762868,1058.248 Z M949.313358,1058.428 C949.313358,1059.71601 948.897363,1060.91199 948.065358,1062.016 C947.129354,1063.26401 945.965365,1063.888 944.573358,1063.888 C943.485353,1063.888 942.633362,1063.572 942.017358,1062.94 C941.433356,1062.332 941.141358,1061.52001 941.141358,1060.504 C941.141358,1060.096 941.285357,1059.36801 941.573358,1058.32 C941.93336,1057.03199 942.353356,1055.98 942.833358,1055.164 C943.457362,1054.08399 944.121355,1053.544 944.825358,1053.544 C946.097365,1053.544 947.157354,1053.992 948.005358,1054.888 C948.877363,1055.808 949.313358,1056.98799 949.313358,1058.428 Z M947.237358,1058.896 C947.269359,1058.264 947.10136,1057.46 946.733358,1056.484 C946.301356,1055.35599 945.817361,1054.792 945.281358,1054.792 C944.841356,1054.792 944.417358,1055.22 944.009358,1056.076 C943.705357,1056.74 943.43736,1057.58799 943.205358,1058.62 C943.013358,1059.468 942.917358,1060.068 942.917358,1060.42 C942.917358,1060.82 942.981358,1061.212 943.109358,1061.596 C943.34936,1062.276 943.745356,1062.616 944.297358,1062.616 C945.161363,1062.616 945.861356,1062.26 946.397358,1061.548 C946.901361,1060.868 947.181358,1059.98401 947.237358,1058.896 Z M961.999849,1056.112 C961.999849,1056.608 961.639853,1057.016 960.919849,1057.336 C960.399846,1057.568 959.715853,1057.744 958.867849,1057.864 C958.459847,1057.904 958.055851,1057.944 957.655849,1057.984 C958.127851,1058.24 958.599847,1058.492 959.071849,1058.74 C959.775853,1059.132 960.315847,1059.496 960.691849,1059.832 C961.203852,1060.296 961.459849,1060.748 961.459849,1061.188 C961.459849,1061.38 961.427849,1061.552 961.363849,1061.704 C961.275849,1061.904 961.15185,1062.004 960.991849,1062.004 C960.911849,1062.004 960.675851,1061.784 960.283849,1061.344 C959.891847,1060.904 959.651849,1060.672 959.563849,1060.648 L956.083849,1059.76 C955.899848,1059.76 955.623851,1059.712 955.255849,1059.616 C954.775847,1059.48 954.535849,1059.324 954.535849,1059.148 C954.535849,1058.58 954.999844,1058.084 955.927849,1057.66 C956.18385,1057.548 956.711845,1057.376 957.511849,1057.144 C957.959851,1057.008 958.299848,1056.896 958.531849,1056.808 C959.035852,1056.608 959.383848,1056.404 959.575849,1056.196 C959.527849,1056.06 959.343851,1055.992 959.023849,1055.992 C958.407846,1055.992 957.563854,1056.14 956.491849,1056.436 C955.323843,1056.764 954.67585,1057.076 954.547849,1057.372 C954.219847,1058.092 953.699853,1059.26799 952.987849,1060.9 C952.875848,1061.164 952.75985,1061.644 952.639849,1062.34 C952.599849,1062.644 952.559849,1062.944 952.519849,1063.24 C952.407848,1063.864 952.25985,1064.368 952.075849,1064.752 C951.819848,1065.28 951.503851,1065.544 951.127849,1065.544 C951.023849,1065.544 950.88785,1065.464 950.719849,1065.304 C950.687849,1064.472 950.763848,1063.692 950.947849,1062.964 C951.05985,1062.54 951.315847,1061.80401 951.715849,1060.756 C952.163851,1059.60399 952.527848,1058.552 952.807849,1057.6 C952.767849,1057.576 952.591851,1057.524 952.279849,1057.444 C952.039848,1057.372 951.915849,1057.308 951.907849,1057.252 C951.891849,1057.108 951.919849,1056.916 951.991849,1056.676 C952.09585,1056.316 952.147849,1056.116 952.147849,1056.076 C952.155849,1056.076 952.347847,1056.004 952.723849,1055.86 C952.97985,1055.764 953.139849,1055.672 953.203849,1055.584 C953.32385,1055.392 953.447848,1055.204 953.575849,1055.02 C953.71985,1054.86 953.943848,1054.78 954.247849,1054.78 C954.295849,1054.78 954.525847,1054.808 954.937849,1054.864 C955.349851,1054.92 955.587849,1054.948 955.651849,1054.948 C955.723849,1054.948 955.967847,1054.868 956.383849,1054.708 C956.895852,1054.508 957.331847,1054.36 957.691849,1054.264 C958.291852,1054.104 958.851846,1054.024 959.371849,1054.024 C959.995852,1054.024 960.559847,1054.18 961.063849,1054.492 C961.687852,1054.876 961.999849,1055.416 961.999849,1056.112 Z M975.91034,1057.588 C975.814339,1057.884 975.450343,1058.72799 974.81834,1060.12 C974.234337,1061.41601 973.89434,1062.26 973.79834,1062.652 C973.78234,1062.716 973.77434,1062.8 973.77434,1062.904 C973.77434,1063.008 973.788339,1063.196 973.81634,1063.468 C973.84434,1063.74 973.85834,1063.948 973.85834,1064.092 C973.85834,1064.796 973.562343,1065.148 972.97034,1065.148 C972.786339,1065.148 972.61034,1065.044 972.44234,1064.836 C972.274339,1064.628 972.19034,1064.412 972.19034,1064.188 C972.19034,1064.116 972.20234,1064.052 972.22634,1063.996 L974.06234,1057.864 C974.10234,1057.784 974.12234,1057.732 974.12234,1057.708 C974.12234,1057.7 974.11834,1057.696 974.11034,1057.696 C974.09434,1057.704 974.06634,1057.732 974.02634,1057.78 C973.090335,1058.572 972.154344,1059.368 971.21834,1060.168 C969.602332,1061.45601 968.522342,1062.1 967.97834,1062.1 C967.362337,1062.1 966.714343,1060.98401 966.03434,1058.752 C965.698338,1059.256 965.398341,1059.872 965.13434,1060.6 C965.078339,1060.76 964.882341,1061.38399 964.54634,1062.472 C964.490339,1062.648 964.344341,1062.884 964.10834,1063.18 C963.872338,1063.476 963.69834,1063.624 963.58634,1063.624 C963.258338,1063.624 963.05034,1063.508 962.96234,1063.276 C962.930339,1063.188 962.91434,1062.988 962.91434,1062.676 C962.91434,1062.556 963.166337,1061.90001 963.67034,1060.708 C964.222342,1059.37999 964.734337,1058.256 965.20634,1057.336 C965.822343,1056.14399 966.246338,1055.548 966.47834,1055.548 C966.966342,1055.548 967.354338,1055.916 967.64234,1056.652 C967.842341,1057.172 967.994339,1057.888 968.09834,1058.8 C968.14634,1059.28 968.194339,1059.756 968.24234,1060.228 C969.282345,1059.484 970.318334,1058.74 971.35034,1057.996 C973.246349,1056.66799 974.418337,1056.004 974.86634,1056.004 C975.178341,1056.004 975.438339,1056.172 975.64634,1056.508 C975.838341,1056.796 975.93434,1057.088 975.93434,1057.384 C975.93434,1057.464 975.92634,1057.532 975.91034,1057.588 Z M988.09283,1058.896 C988.01283,1059.32 987.928831,1059.592 987.84083,1059.712 C987.75283,1059.832 987.604831,1059.892 987.39683,1059.892 C987.34883,1059.892 987.248831,1059.888 987.09683,1059.88 C986.944829,1059.872 986.816831,1059.868 986.71283,1059.868 C986.72883,1059.868 986.584832,1059.884 986.28083,1059.916 C986.032829,1059.94 985.860831,1059.94 985.76483,1059.916 L985.62083,1061.044 C985.50883,1061.82 985.360831,1062.44 985.17683,1062.904 C984.920829,1063.56 984.608832,1063.888 984.24083,1063.888 C983.696827,1063.888 983.42483,1063.24401 983.42483,1061.956 C983.42483,1061.636 983.44283,1061.274 983.47883,1060.87 C983.51483,1060.466 983.53283,1060.276 983.53283,1060.3 C983.51683,1060.284 983.51083,1060.25 983.51483,1060.198 C983.51883,1060.146 983.49283,1060.12 983.43683,1060.12 C983.268829,1060.12 982.800834,1060.172 982.03283,1060.276 C981.072825,1060.412 980.336833,1060.556 979.82483,1060.708 C979.78483,1060.716 979.632832,1060.9 979.36883,1061.26 C979.056829,1061.684 978.87283,1061.928 978.81683,1061.992 L977.88083,1063.24 C977.528828,1063.672 977.132832,1063.888 976.69283,1063.888 C976.044827,1063.888 975.72083,1063.584 975.72083,1062.976 C975.72083,1062.464 976.980818,1061.05201 979.50083,1058.74 C980.996838,1057.41999 982.488823,1056.10001 983.97683,1054.78 C984.128831,1054.652 984.356829,1054.544 984.66083,1054.456 C984.940832,1054.384 985.200829,1054.348 985.44083,1054.348 C985.840832,1054.348 986.09283,1054.496 986.19683,1054.792 C986.24483,1054.92 986.26883,1055.212 986.26883,1055.668 L986.02883,1058.644 L987.69683,1058.644 C987.864831,1058.636 987.99683,1058.72 988.09283,1058.896 Z M983.61683,1058.572 L983.52083,1057.66 C983.48083,1057.284 983.384831,1057.024 983.23283,1056.88 C982.936829,1057.096 982.584832,1057.444 982.17683,1057.924 C981.872829,1058.3 981.568832,1058.672 981.26483,1059.04 L983.61683,1058.572 Z M999.819321,1054.42 C999.819321,1054.668 999.547323,1054.884 999.003321,1055.068 C998.667319,1055.188 998.355322,1055.264 998.067321,1055.296 C996.715314,1055.456 995.231329,1055.756 993.615321,1056.196 C993.607321,1056.324 993.571321,1056.488 993.507321,1056.688 C993.42732,1056.936 993.379321,1057.092 993.363321,1057.156 C993.16332,1057.94 992.959322,1058.724 992.751321,1059.508 C992.351319,1061.11601 992.151321,1062.108 992.151321,1062.484 L992.115321,1063.948 C992.115321,1064.052 992.007322,1064.136 991.791321,1064.2 C991.63132,1064.248 991.503321,1064.272 991.407321,1064.272 C990.967319,1064.272 990.747321,1063.916 990.747321,1063.204 C990.747321,1062.868 990.83132,1062.316 990.999321,1061.548 C991.135321,1060.908 991.25532,1060.428 991.359321,1060.108 C991.423321,1059.924 991.52332,1059.388 991.659321,1058.5 C991.811322,1057.556 991.887321,1056.932 991.887321,1056.628 C991.887321,1056.468 991.823321,1056.356 991.695321,1056.292 L989.619321,1056.4 C989.283319,1056.48 989.115321,1056.216 989.115321,1055.608 C989.115321,1055.264 989.20332,1055.036 989.379321,1054.924 C989.499321,1054.852 989.711319,1054.816 990.015321,1054.816 C990.055321,1054.816 990.14332,1054.824 990.279321,1054.84 C990.415321,1054.856 990.51132,1054.868 990.567321,1054.876 L997.731321,1053.796 C998.219323,1053.852 998.703318,1053.904 999.183321,1053.952 C999.607323,1054.024 999.819321,1054.18 999.819321,1054.42 Z M1005.58181,1058.428 C1005.58181,1059.71601 1005.16582,1060.91199 1004.33381,1062.016 C1003.39781,1063.26401 1002.23382,1063.888 1000.84181,1063.888 C999.753806,1063.888 998.901814,1063.572 998.285811,1062.94 C997.701808,1062.332 997.409811,1061.52001 997.409811,1060.504 C997.409811,1060.096 997.55381,1059.36801 997.841811,1058.32 C998.201813,1057.03199 998.621809,1055.98 999.101811,1055.164 C999.725814,1054.08399 1000.38981,1053.544 1001.09381,1053.544 C1002.36582,1053.544 1003.42581,1053.992 1004.27381,1054.888 C1005.14582,1055.808 1005.58181,1056.98799 1005.58181,1058.428 Z M1003.50581,1058.896 C1003.53781,1058.264 1003.36981,1057.46 1003.00181,1056.484 C1002.56981,1055.35599 1002.08581,1054.792 1001.54981,1054.792 C1001.10981,1054.792 1000.68581,1055.22 1000.27781,1056.076 C999.97381,1056.74 999.705812,1057.58799 999.473811,1058.62 C999.28181,1059.468 999.185811,1060.068 999.185811,1060.42 C999.185811,1060.82 999.249811,1061.212 999.377811,1061.596 C999.617813,1062.276 1000.01381,1062.616 1000.56581,1062.616 C1001.42982,1062.616 1002.12981,1062.26 1002.66581,1061.548 C1003.16981,1060.868 1003.44981,1059.98401 1003.50581,1058.896 Z" id="ILUSTRACIÓNYFORMATO"></path>
        </g>
    </g>
</svg>