<?xml version="1.0" encoding="UTF-8"?>
<svg width="98px" height="14px" viewBox="0 0 98 14" version="1.1" xmlns="http://www.w3.org/2000/svg" xmlns:xlink="http://www.w3.org/1999/xlink">
    <!-- Generator: Sketch 56.2 (81672) - https://sketch.com -->
    <title>REDACCIÓN</title>
    <desc>Created with Sketch.</desc>
    <g id="Welcome" stroke="none" stroke-width="1" fill="none" fill-rule="evenodd">
        <g id="Friends" transform="translate(-224.000000, -1050.000000)" fill="#303030" fill-rule="nonzero">
            <path d="M235.328,1054.112 C235.328,1054.608 234.968004,1055.016 234.248,1055.336 C233.727997,1055.568 233.044004,1055.744 232.196,1055.864 C231.787998,1055.904 231.384002,1055.944 230.984,1055.984 C231.456002,1056.24 231.927998,1056.492 232.4,1056.74 C233.104004,1057.132 233.643998,1057.496 234.02,1057.832 C234.532003,1058.296 234.788,1058.748 234.788,1059.188 C234.788,1059.38 234.756,1059.552 234.692,1059.704 C234.604,1059.904 234.480001,1060.004 234.32,1060.004 C234.24,1060.004 234.004002,1059.784 233.612,1059.344 C233.219998,1058.904 232.98,1058.672 232.892,1058.648 L229.412,1057.76 C229.227999,1057.76 228.952002,1057.712 228.584,1057.616 C228.103998,1057.48 227.864,1057.324 227.864,1057.148 C227.864,1056.58 228.327995,1056.084 229.256,1055.66 C229.512001,1055.548 230.039996,1055.376 230.84,1055.144 C231.288002,1055.008 231.627999,1054.896 231.86,1054.808 C232.364003,1054.608 232.711999,1054.404 232.904,1054.196 C232.856,1054.06 232.672002,1053.992 232.352,1053.992 C231.735997,1053.992 230.892005,1054.14 229.82,1054.436 C228.651994,1054.764 228.004001,1055.076 227.876,1055.372 C227.547998,1056.092 227.028004,1057.26799 226.316,1058.9 C226.203999,1059.164 226.088001,1059.644 225.968,1060.34 C225.928,1060.644 225.888,1060.944 225.848,1061.24 C225.735999,1061.864 225.588001,1062.368 225.404,1062.752 C225.147999,1063.28 224.832002,1063.544 224.456,1063.544 C224.351999,1063.544 224.216001,1063.464 224.048,1063.304 C224.016,1062.472 224.091999,1061.692 224.276,1060.964 C224.388001,1060.54 224.643998,1059.80401 225.044,1058.756 C225.492002,1057.60399 225.855999,1056.552 226.136,1055.6 C226.096,1055.576 225.920002,1055.524 225.608,1055.444 C225.367999,1055.372 225.244,1055.308 225.236,1055.252 C225.22,1055.108 225.248,1054.916 225.32,1054.676 C225.424001,1054.316 225.476,1054.116 225.476,1054.076 C225.484,1054.076 225.675998,1054.004 226.052,1053.86 C226.308001,1053.764 226.468,1053.672 226.532,1053.584 C226.652001,1053.392 226.775999,1053.204 226.904,1053.02 C227.048001,1052.86 227.271998,1052.78 227.576,1052.78 C227.624,1052.78 227.853998,1052.808 228.266,1052.864 C228.678002,1052.92 228.916,1052.948 228.98,1052.948 C229.052,1052.948 229.295998,1052.868 229.712,1052.708 C230.224003,1052.508 230.659998,1052.36 231.02,1052.264 C231.620003,1052.104 232.179997,1052.024 232.7,1052.024 C233.324003,1052.024 233.887997,1052.18 234.392,1052.492 C235.016003,1052.876 235.328,1053.416 235.328,1054.112 Z M245.590491,1056.356 C244.662486,1056.556 243.350499,1056.752 241.654491,1056.944 C240.550485,1057.064 239.806492,1057.252 239.422491,1057.508 C238.926488,1057.836 238.570492,1058.492 238.354491,1059.476 C238.498491,1059.556 238.798488,1059.596 239.254491,1059.596 C239.350491,1059.596 239.946485,1059.398 241.042491,1059.002 C242.138496,1058.606 242.73449,1058.408 242.830491,1058.408 C243.118492,1058.408 243.32649,1058.44 243.454491,1058.504 C243.678492,1058.6 243.89449,1058.82 244.102491,1059.164 C243.766489,1059.788 242.890498,1060.404 241.474491,1061.012 C240.122484,1061.588 238.994495,1061.876 238.090491,1061.876 C237.466487,1061.876 237.010492,1061.768 236.722491,1061.552 C236.394489,1061.296 236.230491,1060.864 236.230491,1060.256 C236.230491,1059.472 236.594487,1058.03201 237.322491,1055.936 C238.010494,1053.95199 238.474489,1052.856 238.714491,1052.648 C238.986492,1052.4 239.778484,1052.276 241.090491,1052.276 C241.770494,1052.276 242.20249,1052.3 242.386491,1052.348 C242.786493,1052.444 243.162489,1052.704 243.514491,1053.128 L243.322491,1053.668 C243.11449,1053.7 242.842492,1053.716 242.506491,1053.716 C242.43449,1053.716 242.318491,1053.712 242.158491,1053.704 L241.810491,1053.704 C241.130487,1053.704 240.642492,1053.784 240.346491,1053.944 C239.914488,1054.168 239.698491,1054.592 239.698491,1055.216 L239.686491,1055.72 C240.166493,1055.728 240.970485,1055.688 242.098491,1055.6 C243.282496,1055.512 244.062489,1055.468 244.438491,1055.468 C244.734492,1055.468 245.012489,1055.528 245.272491,1055.648 C245.532492,1055.768 245.662491,1055.924 245.662491,1056.116 C245.662491,1056.196 245.638491,1056.276 245.590491,1056.356 Z M258.552981,1054.892 C258.552981,1055.876 257.784989,1056.86 256.248981,1057.844 C255.152976,1058.556 253.72099,1059.228 251.952981,1059.86 C251.904981,1059.876 251.128989,1060.124 249.624981,1060.604 C249.152979,1060.756 248.500985,1061.004 247.668981,1061.348 C247.212979,1061.532 246.824983,1061.624 246.504981,1061.624 C246.18498,1061.624 245.976982,1061.564 245.880981,1061.444 C245.808981,1061.348 245.772981,1061.16 245.772981,1060.88 C245.772981,1060.28 245.968979,1059.33801 246.360981,1058.054 C246.752983,1056.76999 246.948981,1055.86 246.948981,1055.324 C246.948981,1055.012 246.904982,1054.732 246.816981,1054.484 C246.904982,1054.348 247.06898,1054.28 247.308981,1054.28 C247.428982,1054.28 247.56098,1054.3 247.704981,1054.34 C247.824982,1054.18 247.924981,1053.892 248.004981,1053.476 C248.084982,1053.004 248.160981,1052.696 248.232981,1052.552 C248.376982,1052.256 248.60898,1052.108 248.928981,1052.108 C249.016982,1052.108 249.116981,1052.12 249.228981,1052.144 C249.380982,1052.256 249.456981,1052.436 249.456981,1052.684 L249.456981,1052.756 C249.456981,1052.932 249.476981,1053.076 249.516981,1053.188 C250.660987,1052.596 251.456979,1052.244 251.904981,1052.132 C252.208983,1052.06 252.872976,1052.024 253.896981,1052.024 C255.128987,1052.024 256.080978,1052.148 256.752981,1052.396 C257.952987,1052.828 258.552981,1053.65999 258.552981,1054.892 Z M257.052981,1055.24 C257.052981,1054.608 256.528986,1054.12 255.480981,1053.776 C254.744977,1053.536 254.036985,1053.416 253.356981,1053.416 C252.276976,1053.416 251.296986,1053.644 250.416981,1054.1 C250.12098,1054.252 249.820983,1054.404 249.516981,1054.556 C249.164979,1054.756 248.964981,1054.904 248.916981,1055 C248.62898,1055.568 248.364982,1056.312 248.124981,1057.232 L247.548981,1059.536 C248.764987,1059.192 250.556969,1058.664 252.924981,1057.952 C255.676995,1057.072 257.052981,1056.168 257.052981,1055.24 Z M269.463472,1056.896 C269.383471,1057.32 269.299472,1057.592 269.211472,1057.712 C269.123471,1057.832 268.975473,1057.892 268.767472,1057.892 C268.719471,1057.892 268.619472,1057.888 268.467472,1057.88 C268.315471,1057.872 268.187472,1057.868 268.083472,1057.868 C268.099472,1057.868 267.955473,1057.884 267.651472,1057.916 C267.40347,1057.94 267.231472,1057.94 267.135472,1057.916 L266.991472,1059.044 C266.879471,1059.82 266.731473,1060.44 266.547472,1060.904 C266.29147,1061.56 265.979474,1061.888 265.611472,1061.888 C265.067469,1061.888 264.795472,1061.24401 264.795472,1059.956 C264.795472,1059.636 264.813472,1059.274 264.849472,1058.87 C264.885472,1058.466 264.903472,1058.276 264.903472,1058.3 C264.887472,1058.284 264.881472,1058.25 264.885472,1058.198 C264.889472,1058.146 264.863472,1058.12 264.807472,1058.12 C264.639471,1058.12 264.171476,1058.172 263.403472,1058.276 C262.443467,1058.412 261.707474,1058.556 261.195472,1058.708 C261.155471,1058.716 261.003473,1058.9 260.739472,1059.26 C260.42747,1059.684 260.243472,1059.928 260.187472,1059.992 L259.251472,1061.24 C258.89947,1061.672 258.503474,1061.888 258.063472,1061.888 C257.415468,1061.888 257.091472,1061.584 257.091472,1060.976 C257.091472,1060.464 258.351459,1059.05201 260.871472,1056.74 C262.367479,1055.41999 263.859464,1054.10001 265.347472,1052.78 C265.499472,1052.652 265.72747,1052.544 266.031472,1052.456 C266.311473,1052.384 266.57147,1052.348 266.811472,1052.348 C267.211474,1052.348 267.463471,1052.496 267.567472,1052.792 C267.615472,1052.92 267.639472,1053.212 267.639472,1053.668 L267.399472,1056.644 L269.067472,1056.644 C269.235473,1056.636 269.367471,1056.72 269.463472,1056.896 Z M264.987472,1056.572 L264.891472,1055.66 C264.851471,1055.284 264.755472,1055.024 264.603472,1054.88 C264.30747,1055.096 263.955474,1055.444 263.547472,1055.924 C263.24347,1056.3 262.939473,1056.672 262.635472,1057.04 L264.987472,1056.572 Z M283.025962,1058.648 C283.025962,1058.776 282.721965,1058.972 282.113962,1059.236 C278.625945,1060.73201 275.881972,1061.48 273.881962,1061.48 C272.961958,1061.48 272.221965,1061.324 271.661962,1061.012 C270.893958,1060.58 270.509962,1059.88 270.509962,1058.912 C270.509962,1058.024 271.125956,1056.99201 272.357962,1055.816 C273.389967,1054.824 274.641955,1053.92 276.113962,1053.104 C277.505969,1052.328 278.509962,1051.94 279.125962,1051.94 C279.581965,1051.94 279.809962,1052.22 279.809962,1052.78 C279.809962,1053.02 279.793962,1053.176 279.761962,1053.248 C279.721962,1053.368 279.597963,1053.52 279.389962,1053.704 C279.333962,1053.752 278.637969,1054.088 277.301962,1054.712 C275.917955,1055.368 274.845966,1055.992 274.085962,1056.584 C272.973957,1057.464 272.417962,1058.352 272.417962,1059.248 C272.417962,1059.688 272.68996,1060 273.233962,1060.184 C273.561964,1060.296 273.93796,1060.352 274.361962,1060.352 C275.041966,1060.352 275.837958,1060.256 276.749962,1060.064 C277.477966,1059.904 278.005961,1059.756 278.333962,1059.62 C278.893965,1059.324 279.749957,1058.908 280.901962,1058.372 C281.669966,1058.06 282.069962,1057.904 282.101962,1057.904 C282.229963,1057.904 282.415961,1057.994 282.659962,1058.174 C282.903963,1058.354 283.025962,1058.512 283.025962,1058.648 Z M295.616453,1058.648 C295.616453,1058.776 295.312456,1058.972 294.704453,1059.236 C291.216435,1060.73201 288.472463,1061.48 286.472453,1061.48 C285.552448,1061.48 284.812456,1061.324 284.252453,1061.012 C283.484449,1060.58 283.100453,1059.88 283.100453,1058.912 C283.100453,1058.024 283.716447,1056.99201 284.948453,1055.816 C285.980458,1054.824 287.232445,1053.92 288.704453,1053.104 C290.09646,1052.328 291.100453,1051.94 291.716453,1051.94 C292.172455,1051.94 292.400453,1052.22 292.400453,1052.78 C292.400453,1053.02 292.384453,1053.176 292.352453,1053.248 C292.312453,1053.368 292.188454,1053.52 291.980453,1053.704 C291.924453,1053.752 291.22846,1054.088 289.892453,1054.712 C288.508446,1055.368 287.436457,1055.992 286.676453,1056.584 C285.564447,1057.464 285.008453,1058.352 285.008453,1059.248 C285.008453,1059.688 285.28045,1060 285.824453,1060.184 C286.152454,1060.296 286.528451,1060.352 286.952453,1060.352 C287.632456,1060.352 288.428448,1060.256 289.340453,1060.064 C290.068456,1059.904 290.596451,1059.756 290.924453,1059.62 C291.484456,1059.324 292.340447,1058.908 293.492453,1058.372 C294.260457,1058.06 294.660453,1057.904 294.692453,1057.904 C294.820453,1057.904 295.006452,1057.994 295.250453,1058.174 C295.494454,1058.354 295.616453,1058.512 295.616453,1058.648 Z M299.458943,1052.264 C299.498944,1053.168 299.294946,1054.20399 298.846943,1055.372 L297.646943,1058.324 C297.438942,1058.924 297.214945,1059.94399 296.974943,1061.384 C296.790942,1061.52 296.630944,1061.588 296.494943,1061.588 C295.966941,1061.588 295.702943,1061.208 295.702943,1060.448 C295.702943,1059.76 295.830942,1059.04 296.086943,1058.288 C296.206944,1057.92 296.534941,1057.10601 297.070943,1055.846 C297.606946,1054.58599 298.062942,1053.40401 298.438943,1052.3 C298.630944,1052.148 298.826942,1052.072 299.026943,1052.072 C299.170944,1052.072 299.314943,1052.136 299.458943,1052.264 Z M308.845434,1056.536 C308.845434,1057.82401 308.429438,1059.01999 307.597434,1060.124 C306.661429,1061.37201 305.497441,1061.996 304.105434,1061.996 C303.017429,1061.996 302.165437,1061.68 301.549434,1061.048 C300.965431,1060.44 300.673434,1059.62801 300.673434,1058.612 C300.673434,1058.204 300.817433,1057.47601 301.105434,1056.428 C301.465436,1055.13999 301.885432,1054.088 302.365434,1053.272 C302.989437,1052.19199 303.65343,1051.652 304.357434,1051.652 C305.62944,1051.652 306.68943,1052.1 307.537434,1052.996 C308.409438,1053.916 308.845434,1055.09599 308.845434,1056.536 Z M306.229434,1057.016 C306.229434,1056.28 306.185434,1055.636 306.097434,1055.084 C305.905433,1053.93199 305.557436,1053.356 305.053434,1053.356 C304.605432,1053.356 304.161436,1053.744 303.721434,1054.52 C303.377432,1055.136 303.069435,1055.912 302.797434,1056.848 C302.565433,1057.648 302.449434,1058.208 302.449434,1058.528 C302.449434,1058.768 302.557433,1059.048 302.773434,1059.368 C303.085436,1059.824 303.521431,1060.052 304.081434,1060.052 C304.849438,1060.052 305.429432,1059.628 305.821434,1058.78 C306.093435,1058.196 306.229434,1057.608 306.229434,1057.016 Z M305.389434,1050.896 C304.893431,1051.04 304.581435,1051.128 304.453434,1051.16 C303.997432,1051.368 303.609436,1051.56 303.289434,1051.736 C303.017433,1051.848 302.725436,1051.904 302.413434,1051.904 C302.277433,1051.904 302.191434,1051.886 302.155434,1051.85 C302.119434,1051.814 302.073434,1051.724 302.017434,1051.58 C302.009434,1051.556 302.057433,1051.476 302.161434,1051.34 C302.265434,1051.204 302.345434,1051.116 302.401434,1051.076 C302.633435,1050.956 302.825433,1050.868 302.977434,1050.812 C303.665437,1050.604 304.089433,1050.48 304.249434,1050.44 C304.273434,1050.432 304.433432,1050.384 304.729434,1050.296 C304.937435,1050.232 305.073434,1050.204 305.137434,1050.212 C305.297435,1050.212 305.449433,1050.308 305.593434,1050.5 C305.657434,1050.58 305.665434,1050.676 305.617434,1050.788 L305.389434,1050.896 Z M321.651925,1052.12 C321.651925,1052.456 321.351928,1053.32399 320.751925,1054.724 C320.103921,1056.24401 319.447928,1057.54399 318.783925,1058.624 C317.95992,1059.96001 317.299927,1060.628 316.803925,1060.628 C316.363922,1060.628 315.899927,1060.216 315.411925,1059.392 C315.059923,1058.8 314.699926,1058.00401 314.331925,1057.004 L313.803925,1055.492 C313.315922,1056.52401 312.779927,1058.09599 312.195925,1060.208 C312.155924,1060.376 311.997926,1060.552 311.721925,1060.736 C311.445923,1060.92 311.235925,1061.012 311.091925,1061.012 C310.731923,1061.012 310.455925,1060.848 310.263925,1060.52 C310.119924,1060.28 310.047925,1060.016 310.047925,1059.728 C310.047925,1059.304 310.119924,1058.916 310.263925,1058.564 C310.631926,1057.676 311.24792,1056.44001 312.111925,1054.856 C312.631927,1053.896 313.119922,1053.176 313.575925,1052.696 C313.639925,1052.632 313.795923,1052.584 314.043925,1052.552 C314.403926,1052.504 314.615924,1052.472 314.679925,1052.456 C315.551929,1053.87201 316.107923,1055.81199 316.347925,1058.276 C316.451925,1058.372 316.615923,1058.524 316.839925,1058.732 C317.303927,1057.924 317.879921,1056.69601 318.567925,1055.048 C319.007927,1054.00799 319.295924,1053.356 319.431925,1053.092 C320.039928,1051.97199 320.619922,1051.412 321.171925,1051.412 C321.411926,1051.412 321.563924,1051.512 321.627925,1051.712 C321.643925,1051.76 321.651925,1051.896 321.651925,1052.12 Z" id="REDACCIÓN"></path>
        </g>
    </g>
</svg>