<?xml version="1.0" encoding="UTF-8"?>
<svg width="360px" height="542px" viewBox="0 0 360 542" version="1.1" xmlns="http://www.w3.org/2000/svg" xmlns:xlink="http://www.w3.org/1999/xlink">
    <!-- Generator: Sketch 56.2 (81672) - https://sketch.com -->
    <title>Group 30</title>
    <desc>Created with Sketch.</desc>
    <defs>
        <path d="M17.8849714,360.721154 L13.9263993,360.721154 L13.9263993,370 L12.950639,370 L12.950639,360.721154 L9,360.721154 L9,360 L17.8849714,360 L17.8849714,360.721154 Z M27,360.473901 L22.0656677,370 L21.0740414,370 L25.9766417,360.700549 L19.4081093,360.700549 L19.4081093,360 L27,360 L27,360.473901 Z" id="path-1"></path>
        <path d="M17.8888889,411.919118 L13.9285714,411.919118 L13.9285714,421.852941 L12.952381,421.852941 L12.952381,411.919118 L9,411.919118 L9,411.147059 L17.8888889,411.147059 L17.8888889,411.919118 Z M26.6984127,413.904412 C26.6984127,414.458336 26.5238113,414.954655 26.1746032,415.393382 C25.8253951,415.83211 25.3650822,416.154411 24.7936508,416.360294 C25.4603208,416.571079 25.994707,416.911762 26.3968254,417.382353 C26.7989438,417.852944 27,418.397056 27,419.014706 C27,419.931377 26.6640245,420.658086 25.9920635,421.194853 C25.3201025,421.73162 24.4312225,422 23.3253968,422 C22.2089891,422 21.3161409,421.732846 20.6468254,421.198529 C19.9775099,420.664213 19.6428571,419.936279 19.6428571,419.014706 C19.6428571,418.40686 19.8359769,417.865198 20.2222222,417.389706 C20.6084675,416.914213 21.1375628,416.571079 21.8095238,416.360294 C21.2380924,416.154411 20.7830705,415.83211 20.4444444,415.393382 C20.1058184,414.954655 19.9365079,414.458336 19.9365079,413.904412 C19.9365079,413.017152 20.2447059,412.311277 20.8611111,411.786765 C21.4775163,411.262252 22.2936457,411 23.3095238,411 C24.3254019,411 25.1441768,411.264703 25.765873,411.794118 C26.3875692,412.323532 26.6984127,413.026956 26.6984127,413.904412 Z M26.047619,419.022059 C26.047619,418.355389 25.7910079,417.8076 25.2777778,417.378676 C24.7645477,416.949753 24.1084696,416.735294 23.3095238,416.735294 C22.510578,416.735294 21.8571454,416.946076 21.3492063,417.367647 C20.8412673,417.789218 20.5873016,418.340683 20.5873016,419.022059 C20.5873016,419.703435 20.8333309,420.246322 21.3253968,420.650735 C21.8174628,421.055149 22.4841228,421.257353 23.3253968,421.257353 C24.1455067,421.257353 24.8042303,421.056375 25.3015873,420.654412 C25.7989443,420.252449 26.047619,419.708337 26.047619,419.022059 Z M25.7460317,413.897059 C25.7460317,413.284311 25.5171981,412.773286 25.0595238,412.363971 C24.6018496,411.954655 24.0185221,411.75 23.3095238,411.75 C22.5899435,411.75 22.006616,411.947302 21.5595238,412.341912 C21.1124316,412.736522 20.8888889,413.254899 20.8888889,413.897059 C20.8888889,414.524513 21.1124316,415.02941 21.5595238,415.411765 C22.006616,415.79412 22.592589,415.985294 23.3174603,415.985294 C24.0317496,415.985294 24.6150771,415.792894 25.0674603,415.408088 C25.5198435,415.023282 25.7460317,414.519611 25.7460317,413.897059 Z" id="path-2"></path>
        <path d="M17.9719626,149.919118 L13.9746328,149.919118 L13.9746328,159.852941 L12.9893191,159.852941 L12.9893191,149.919118 L9,149.919118 L9,149.147059 L17.9719626,149.147059 L17.9719626,149.919118 Z M22.1214953,154.022059 L23.1148198,154.022059 C23.6648893,154.022059 24.1455253,153.932599 24.5567423,153.753676 C24.9679593,153.574754 25.2817079,153.329658 25.4979973,153.018382 C25.7142868,152.707106 25.8224299,152.348041 25.8224299,151.941176 C25.8224299,151.254899 25.6114841,150.718139 25.1895861,150.330882 C24.7676881,149.943626 24.1615527,149.75 23.3711615,149.75 C22.6234943,149.75 22.0106833,149.952204 21.5327103,150.356618 C21.0547373,150.761031 20.8157543,151.294114 20.8157543,151.955882 L19.8544726,151.955882 C19.8544726,151.401958 20.006674,150.895836 20.3110814,150.4375 C20.6154888,149.979164 21.0373805,149.625001 21.576769,149.375 C22.1161576,149.124999 22.7142824,149 23.3711615,149 C24.4285767,149 25.2616792,149.264703 25.870494,149.794118 C26.4793088,150.323532 26.7837116,151.049015 26.7837116,151.970588 C26.7837116,152.485297 26.6061433,152.959557 26.2510013,153.393382 C25.8958594,153.827208 25.4085478,154.15196 24.7890521,154.367647 C25.5153574,154.553923 26.0654187,154.873772 26.4392523,155.327206 C26.813086,155.78064 27,156.321075 27,156.948529 C27,157.865201 26.6742356,158.602938 26.0226969,159.161765 C25.3711583,159.720591 24.500673,160 23.411215,160 C22.7169525,160 22.0801097,159.87255 21.5006676,159.617647 C20.9212254,159.362744 20.4726318,159.00613 20.1548732,158.547794 C19.8371146,158.089458 19.6782377,157.556376 19.6782377,156.948529 L20.6395194,156.948529 C20.6395194,157.629905 20.8985288,158.185047 21.4165554,158.613971 C21.934582,159.042894 22.5994619,159.257353 23.411215,159.257353 C24.2389895,159.257353 24.8838428,159.062502 25.3457944,158.672794 C25.807746,158.283086 26.0387183,157.718141 26.0387183,156.977941 C26.0387183,156.262251 25.7890546,155.715688 25.2897196,155.338235 C24.7903847,154.960782 24.0547445,154.772059 23.082777,154.772059 L22.1214953,154.772059 L22.1214953,154.022059 Z" id="path-3"></path>
        <path d="M17.6375321,202.721154 L13.7892031,202.721154 L13.7892031,212 L12.840617,212 L12.840617,202.721154 L9,202.721154 L9,202 L17.6375321,202 L17.6375321,202.721154 Z M25.2493573,208.778846 L27,208.778846 L27,209.472527 L25.2493573,209.472527 L25.2493573,212 L24.3239075,212 L24.3239075,209.472527 L19.0411311,209.472527 L19.0411311,209.005495 L24.2390746,202 L25.2493573,202 L25.2493573,208.778846 Z M20.1748072,208.778846 L24.3239075,208.778846 L24.3239075,203.06456 L23.9151671,203.696429 L20.1748072,208.778846 Z" id="path-4"></path>
        <path d="M17.8382288,255.711382 L13.9004822,255.711382 L13.9004822,264.864499 L12.9298553,264.864499 L12.9298553,255.711382 L9,255.711382 L9,255 L17.8382288,255 L17.8382288,255.711382 Z M20.4660237,259.810298 L21.0263043,255 L26.771153,255 L26.771153,255.752033 L21.8391057,255.752033 L21.4366506,259.085366 C22.0521732,258.724027 22.7729025,258.54336 23.5988601,258.54336 C24.6352529,258.54336 25.4611981,258.832427 26.0767207,259.410569 C26.6922433,259.988711 27,260.758803 27,261.720867 C27,262.759716 26.7001345,263.565941 26.1003946,264.139566 C25.5006546,264.713192 24.6562965,265 23.567295,265 C22.5677285,265 21.7575656,264.760617 21.1367821,264.281843 C20.5159986,263.803069 20.1608948,263.132344 20.0714599,262.269648 L20.9789566,262.269648 C21.0683915,262.942641 21.3340618,263.451895 21.7759754,263.797425 C22.2178891,264.142956 22.8149897,264.315718 23.567295,264.315718 C24.3879918,264.315718 25.0074508,264.092143 25.4256905,263.644986 C25.8439302,263.19783 26.0530469,262.56098 26.0530469,261.734417 C26.0530469,261.01174 25.8189414,260.422315 25.3507234,259.966125 C24.8825053,259.509934 24.2433184,259.281843 23.4331434,259.281843 C22.9859688,259.281843 22.5966681,259.330397 22.2652345,259.427507 C21.9337993,259.524617 21.5839562,259.713187 21.2156949,259.993225 L20.4660237,259.810298 Z" id="path-5"></path>
        <path d="M17.8928099,307.858104 L13.9307455,307.858104 L13.9307455,317.852051 L12.9541244,317.852051 L12.9541244,307.858104 L9,307.858104 L9,307.081372 L17.8928099,307.081372 L17.8928099,307.858104 Z M25.4993383,307 L25.4993383,307.776732 L25.3881782,307.776732 C24.0066098,307.776732 22.9188394,308.15523 22.1248346,308.912239 C21.3308297,309.669248 20.891487,310.720908 20.8067931,312.067249 C21.1243951,311.657922 21.5293315,311.341068 22.0216145,311.116678 C22.5138975,310.892288 23.0643993,310.780094 23.6731363,310.780094 C24.6894625,310.780094 25.498012,311.106811 26.098809,311.760256 C26.699606,312.4137 27,313.268096 27,314.32347 C27,315.023765 26.8597279,315.655007 26.5791795,316.217216 C26.2986312,316.779424 25.8963414,317.217102 25.3722982,317.530262 C24.848255,317.843422 24.2501136,318 23.5778562,318 C22.4715428,318 21.5716841,317.626433 20.8782532,316.879287 C20.1848223,316.132142 19.838112,315.166785 19.838112,313.983188 L19.838112,313.095494 C19.838112,311.167217 20.3092145,309.674181 21.2514336,308.616342 C22.1936527,307.558502 23.5302075,307.019727 25.2611381,307 L25.4993383,307 Z M23.5222761,311.542031 C22.9188324,311.542031 22.3564208,311.708472 21.8350243,312.041358 C21.3136277,312.374245 20.9655942,312.797128 20.7909131,313.31002 L20.7909131,314.06456 C20.7909131,315.001574 21.0489608,315.765969 21.565064,316.357767 C22.0811671,316.949566 22.7520912,317.245461 23.5778562,317.245461 C24.3189274,317.245461 24.9183921,316.971758 25.3762682,316.424344 C25.8341443,315.876931 26.063079,315.186509 26.063079,314.35306 C26.063079,313.504815 25.8341443,312.824257 25.3762682,312.311365 C24.9183921,311.798473 24.3004009,311.542031 23.5222761,311.542031 Z" id="path-6"></path>
        <path d="M17.7091757,43.752909 L13.8289269,43.752909 L13.8289269,53 L12.8724728,53 L12.8724728,43.752909 L9,43.752909 L9,43.0342231 L17.7091757,43.0342231 L17.7091757,43.752909 Z M24,53 L23.066874,53 L23.066874,44.0198494 L19.9875583,45.0260096 L19.9875583,44.2594114 L23.844479,43 L24,43 L24,53 Z" id="path-7"></path>
        <path d="M17.82662,97.8468835 L13.8940455,97.8468835 L13.8940455,107 L12.9246935,107 L12.9246935,97.8468835 L9,97.8468835 L9,97.1355014 L17.82662,97.1355014 L17.82662,97.8468835 Z M27,107 L19.8126095,107 L19.8126095,106.376694 L23.7451839,102.542005 C24.3966758,101.896112 24.8485101,101.363146 25.1007005,100.943089 C25.3528909,100.523033 25.4789842,100.114275 25.4789842,99.7168022 C25.4789842,99.0934928 25.2662018,98.600047 24.8406305,98.2364499 C24.4150592,97.8728527 23.8292507,97.6910569 23.0831874,97.6910569 C22.3108543,97.6910569 21.6869551,97.9033402 21.2114711,98.3279133 C20.7359871,98.7524863 20.4982487,99.3035196 20.4982487,99.9810298 L19.5604203,99.9810298 C19.5604203,99.4254715 19.7062157,98.9196048 19.9978109,98.4634146 C20.289406,98.0072245 20.7044632,97.6492786 21.2429947,97.3895664 C21.7815263,97.1298542 22.3949177,97 23.0831874,97 C24.1339807,97 24.9549007,97.237125 25.545972,97.7113821 C26.1370432,98.1856392 26.4325744,98.8315226 26.4325744,99.6490515 C26.4325744,100.109758 26.2657635,100.613367 25.9321366,101.159892 C25.5985097,101.706416 25.0113877,102.388433 24.1707531,103.205962 L20.9711033,106.315718 L27,106.315718 L27,107 Z" id="path-8"></path>
        <path d="M17.5037963,466.924681 L13.7150514,466.924681 L13.7150514,476.918628 L12.7811523,476.918628 L12.7811523,466.924681 L9,466.924681 L9,466.147949 L17.5037963,466.147949 L17.5037963,466.924681 Z M25.088879,471.932751 C24.7649232,472.396326 24.3625154,472.755098 23.8816436,473.009079 C23.4007718,473.263059 22.8794133,473.390047 22.3175525,473.390047 C21.6898882,473.390047 21.1356284,473.232237 20.6547566,472.916611 C20.1738847,472.600985 19.8018474,472.16454 19.5386333,471.607263 C19.2754193,471.049986 19.1438142,470.440936 19.1438142,469.780094 C19.1438142,469.069936 19.2842773,468.423899 19.5652077,467.841964 C19.8461381,467.260028 20.2384224,466.807556 20.7420724,466.484533 C21.2457223,466.161509 21.8265562,466 22.4845913,466 C23.5931275,466 24.4561529,466.378499 25.0736936,467.135508 C25.6912343,467.892517 26,468.966368 26,470.357095 L26,471.156019 C26,473.099091 25.5748144,474.558838 24.7244305,475.535306 C23.8740467,476.511774 22.5757122,477 20.8293881,477 L20.6623493,477 L20.6699419,476.230666 L20.9888343,476.230666 C22.3099664,476.210939 23.3147204,475.846002 24.0031264,475.135844 C24.6915324,474.425686 25.0534463,473.357999 25.088879,471.932751 Z M22.4314426,472.62811 C23.0388597,472.62811 23.5842614,472.451806 24.0676641,472.099193 C24.5510669,471.74658 24.8939993,471.289176 25.0964716,470.726967 L25.0964716,470.216543 C25.0964716,469.121716 24.8623665,468.272251 24.3941492,467.668124 C23.9259319,467.063996 23.2944807,466.761937 22.4997767,466.761937 C21.7809998,466.761937 21.1913079,467.04427 20.7306833,467.608944 C20.2700587,468.173619 20.0397499,468.884999 20.0397499,469.743107 C20.0397499,470.566693 20.2612007,471.253416 20.704109,471.803295 C21.1470173,472.353175 21.7227894,472.62811 22.4314426,472.62811 Z" id="path-9"></path>
        <path d="M8.76775877,519.919118 L4.8614091,519.919118 L4.8614091,529.852941 L3.89852131,529.852941 L3.89852131,519.919118 L0,519.919118 L0,519.147059 L8.76775877,519.147059 L8.76775877,519.919118 Z M15.1008988,529.852941 L14.1614961,529.852941 L14.1614961,520.205882 L11.0614671,521.286765 L11.0614671,520.463235 L14.9443317,519.110294 L15.1008988,519.110294 L15.1008988,529.852941 Z M27,525.389706 C27,526.899517 26.7051349,528.045339 26.1153958,528.827206 C25.5256567,529.609073 24.6567178,530 23.5085532,530 C22.3812643,530 21.5175443,529.616425 20.9173674,528.849265 C20.3171904,528.082104 20.0092781,526.965694 19.9936213,525.5 L19.9936213,523.580882 C19.9936213,522.075973 20.2910959,520.936278 20.8860539,520.161765 C21.481012,519.387251 22.3499508,519 23.4928965,519 C24.6201854,519 25.481296,519.373771 26.076254,520.121324 C26.671212,520.868876 26.9791243,521.970581 27,523.426471 L27,525.389706 Z M26.0605973,523.470588 C26.0605973,522.245092 25.8479291,521.318631 25.4225863,520.691176 C24.9972435,520.063722 24.35402,519.75 23.4928965,519.75 C22.6474298,519.75 22.0107299,520.056369 21.5827776,520.669118 C21.1548253,521.281866 20.9356336,522.186269 20.9251957,523.382353 L20.9251957,525.485294 C20.9251957,526.705888 21.1456922,527.639703 21.5866918,528.286765 C22.0276914,528.933827 22.6683055,529.257353 23.5085532,529.257353 C24.343582,529.257353 24.9763678,528.94118 25.4069295,528.308824 C25.8374913,527.676467 26.0553783,526.75 26.0605973,525.529412 L26.0605973,523.470588 Z" id="path-10"></path>
        <path d="M35,6.38970588 C35,7.89951735 34.7054033,9.04533923 34.1162011,9.82720588 C33.5269989,10.6090725 32.6588512,11 31.5117318,11 C30.3854692,11 29.5225356,10.6164254 28.922905,9.84926471 C28.3232745,9.08210401 28.0156425,7.9656936 28,6.5 L28,4.58088235 C28,3.07597287 28.2972037,1.93627838 28.8916201,1.16176471 C29.4860365,0.387251029 30.3541842,0 31.4960894,0 C32.622352,0 33.4826786,0.373770772 34.077095,1.12132353 C34.6715114,1.86887629 34.9791433,2.97058096 35,4.42647059 L35,6.38970588 Z M34.0614525,4.47058824 C34.0614525,3.24509191 33.8489779,2.31863059 33.4240223,1.69117647 C32.9990668,1.06372235 32.3564289,0.75 31.4960894,0.75 C30.6513924,0.75 30.0152722,1.05636949 29.5877095,1.66911765 C29.1601468,2.28186581 28.9411546,3.18626853 28.9307263,4.38235294 L28.9307263,6.48529412 C28.9307263,7.70588846 29.151022,8.63970265 29.5916201,9.28676471 C30.0322182,9.93382676 30.6722491,10.2573529 31.5117318,10.2573529 C32.3460004,10.2573529 32.9782101,9.94117963 33.4083799,9.30882353 C33.8385496,8.67646743 34.0562383,7.75 34.0614525,6.52941176 L34.0614525,4.47058824 Z" id="path-11"></path>
        <path d="M94.4990654,10.8529412 L87.2542056,10.8529412 L87.2542056,10.1764706 L91.2182243,6.01470588 C91.8749254,5.31372199 92.3303726,4.7352964 92.5845794,4.27941176 C92.8387863,3.82352713 92.9658879,3.37990412 92.9658879,2.94852941 C92.9658879,2.27205544 92.751404,1.73652158 92.3224299,1.34191176 C91.8934558,0.947301949 91.3029633,0.75 90.5509346,0.75 C89.772426,0.75 89.1435382,0.980389853 88.6642523,1.44117647 C88.1849665,1.90196309 87.9453271,2.5 87.9453271,3.23529412 L87,3.23529412 C87,2.63234993 87.1469611,2.08333581 87.4408879,1.58823529 C87.7348146,1.09313478 88.1531904,0.704658272 88.696028,0.422794118 C89.2388656,0.140929963 89.8571616,0 90.5509346,0 C91.6101299,0 92.4376138,0.257350368 93.0334112,0.772058824 C93.6292086,1.28676728 93.9271028,1.98774066 93.9271028,2.875 C93.9271028,3.3750025 93.7589581,3.92156566 93.4226636,4.51470588 C93.086369,5.1078461 92.4945525,5.84803478 91.6471963,6.73529412 L88.4219626,10.1102941 L94.4990654,10.1102941 L94.4990654,10.8529412 Z M97.4224299,5.36764706 L97.9864486,0.147058824 L103.769626,0.147058824 L103.769626,0.963235294 L98.8046729,0.963235294 L98.3995327,4.58088235 C99.019162,4.18872353 99.7446999,3.99264706 100.576168,3.99264706 C101.619476,3.99264706 102.450931,4.30636941 103.070561,4.93382353 C103.69019,5.56127765 104,6.3970536 104,7.44117647 C104,8.56863309 103.698134,9.44362434 103.094393,10.0661765 C102.490651,10.6887286 101.64066,11 100.544393,11 C99.538157,11 98.7225888,10.7401987 98.0976636,10.2205882 C97.4727383,9.70097779 97.1152652,8.9730439 97.0252336,8.03676471 L97.938785,8.03676471 C98.0288166,8.76716051 98.2962595,9.31985107 98.7411215,9.69485294 C99.1859835,10.0698548 99.7870679,10.2573529 100.544393,10.2573529 C101.370565,10.2573529 101.994157,10.0147083 102.415187,9.52941176 C102.836217,9.04411522 103.046729,8.35294566 103.046729,7.45588235 C103.046729,6.67156471 102.811062,6.03186522 102.33972,5.53676471 C101.868378,5.04166419 101.224926,4.79411765 100.409346,4.79411765 C99.9591878,4.79411765 99.5672897,4.8468132 99.2336449,4.95220588 C98.8999983,5.05759857 98.5478212,5.26225338 98.1771028,5.56617647 L97.4224299,5.36764706 Z" id="path-12"></path>
        <path d="M153.391007,5.36764706 L153.946237,0.147058824 L159.639296,0.147058824 L159.639296,0.963235294 L154.751711,0.963235294 L154.352884,4.58088235 C154.962857,4.18872353 155.677089,3.99264706 156.495601,3.99264706 C157.522651,3.99264706 158.34115,4.30636941 158.951124,4.93382353 C159.561098,5.56127765 159.86608,6.3970536 159.86608,7.44117647 C159.86608,8.56863309 159.568918,9.44362434 158.974585,10.0661765 C158.380251,10.6887286 157.543505,11 156.464321,11 C155.473765,11 154.670906,10.7401987 154.055718,10.2205882 C153.440531,9.70097779 153.088629,8.9730439 153,8.03676471 L153.899316,8.03676471 C153.987944,8.76716051 154.25122,9.31985107 154.68915,9.69485294 C155.127079,10.0698548 155.718797,10.2573529 156.464321,10.2573529 C157.277619,10.2573529 157.891494,10.0147083 158.305963,9.52941176 C158.720432,9.04411522 158.927664,8.35294566 158.927664,7.45588235 C158.927664,6.67156471 158.695669,6.03186522 158.231672,5.53676471 C157.767674,5.04166419 157.13425,4.79411765 156.331378,4.79411765 C155.888235,4.79411765 155.502444,4.8468132 155.173998,4.95220588 C154.845551,5.05759857 154.498861,5.26225338 154.13392,5.56617647 L153.391007,5.36764706 Z M169,6.38970588 C169,7.89951735 168.705444,9.04533923 168.116325,9.82720588 C167.527205,10.6090725 166.659178,11 165.512219,11 C164.386114,11 163.5233,10.6164254 162.923754,9.84926471 C162.324207,9.08210401 162.016618,7.9656936 162.000978,6.5 L162.000978,4.58088235 C162.000978,3.07597287 162.29814,1.93627838 162.892473,1.16176471 C163.486806,0.387251029 164.354833,0 165.496579,0 C166.622684,0 167.48289,0.373770772 168.077224,1.12132353 C168.671557,1.86887629 168.979146,2.97058096 169,4.42647059 L169,6.38970588 Z M168.061584,4.47058824 C168.061584,3.24509191 167.849139,2.31863059 167.424242,1.69117647 C166.999346,1.06372235 166.356798,0.75 165.496579,0.75 C164.652,0.75 164.015968,1.05636949 163.588465,1.66911765 C163.160962,2.28186581 162.942001,3.18626853 162.931574,4.38235294 L162.931574,6.48529412 C162.931574,7.70588846 163.151839,8.63970265 163.592375,9.28676471 C164.032912,9.93382676 164.672853,10.2573529 165.512219,10.2573529 C166.346371,10.2573529 166.978492,9.94117963 167.408602,9.30882353 C167.838712,8.67646743 168.05637,7.75 168.061584,6.52941176 L168.061584,4.47058824 Z" id="path-13"></path>
        <path d="M222.504151,0.467479675 L217.626845,9.86449864 L216.646679,9.86449864 L221.49262,0.691056911 L215,0.691056911 L215,0 L222.504151,0 L222.504151,0.467479675 Z M225.50738,4.8102981 L226.064114,0 L231.772601,0 L231.772601,0.75203252 L226.871771,0.75203252 L226.471863,4.08536585 C227.08349,3.7240271 227.799658,3.54336043 228.620387,3.54336043 C229.65022,3.54336043 230.470938,3.8324271 231.082565,4.41056911 C231.694191,4.98871111 232,5.75880278 232,6.72086721 C232,7.75971612 231.702033,8.56594112 231.106089,9.1395664 C230.510145,9.71319167 229.671131,10 228.589022,10 C227.595782,10 226.790747,9.76061667 226.173893,9.28184282 C225.557039,8.80306897 225.204182,8.13234397 225.115314,7.2696477 L226.017066,7.2696477 C226.105935,7.94264112 226.369924,8.45189529 226.809041,8.79742547 C227.248157,9.14295566 227.841478,9.31571816 228.589022,9.31571816 C229.404524,9.31571816 230.020062,9.09214316 230.435655,8.64498645 C230.851247,8.19782974 231.059041,7.56097974 231.059041,6.73441734 C231.059041,6.01173984 230.826417,5.42231484 230.361162,4.96612466 C229.895908,4.50993449 229.260767,4.28184282 228.45572,4.28184282 C228.011375,4.28184282 227.624539,4.33039699 227.295203,4.42750678 C226.965866,4.52461657 226.618237,4.7131874 226.252306,4.99322493 L225.50738,4.8102981 Z" id="path-14"></path>
        <path d="M277.987635,10.8529412 L277.060278,10.8529412 L277.060278,1.20588235 L274,2.28676471 L274,1.46323529 L277.833076,0.110294118 L277.987635,0.110294118 L277.987635,10.8529412 Z M289.734158,6.38970588 C289.734158,7.89951735 289.443073,9.04533923 288.860896,9.82720588 C288.278719,10.6090725 287.420923,11 286.287481,11 C285.174647,11 284.322002,10.6164254 283.729521,9.84926471 C283.13704,9.08210401 282.833076,7.9656936 282.81762,6.5 L282.81762,4.58088235 C282.81762,3.07597287 283.11128,1.93627838 283.698609,1.16176471 C284.285938,0.387251029 285.143735,0 286.272025,0 C287.384859,0 288.234928,0.373770772 288.822257,1.12132353 C289.409586,1.86887629 289.71355,2.97058096 289.734158,4.42647059 L289.734158,6.38970588 Z M288.806801,4.47058824 C288.806801,3.24509191 288.596859,2.31863059 288.176971,1.69117647 C287.757082,1.06372235 287.122106,0.75 286.272025,0.75 C285.437399,0.75 284.808864,1.05636949 284.386399,1.66911765 C283.963934,2.28186581 283.747553,3.18626853 283.737249,4.38235294 L283.737249,6.48529412 C283.737249,7.70588846 283.954918,8.63970265 284.390263,9.28676471 C284.825608,9.93382676 285.458007,10.2573529 286.287481,10.2573529 C287.111802,10.2573529 287.736474,9.94117963 288.161515,9.30882353 C288.586555,8.67646743 288.801649,7.75 288.806801,6.52941176 L288.806801,4.47058824 Z M299,6.38970588 C299,7.89951735 298.708916,9.04533923 298.126739,9.82720588 C297.544562,10.6090725 296.686765,11 295.553323,11 C294.440489,11 293.587844,10.6164254 292.995363,9.84926471 C292.402882,9.08210401 292.098918,7.9656936 292.083462,6.5 L292.083462,4.58088235 C292.083462,3.07597287 292.377122,1.93627838 292.964451,1.16176471 C293.55178,0.387251029 294.409577,0 295.537867,0 C296.650701,0 297.50077,0.373770772 298.088099,1.12132353 C298.675428,1.86887629 298.979392,2.97058096 299,4.42647059 L299,6.38970588 Z M298.072643,4.47058824 C298.072643,3.24509191 297.862702,2.31863059 297.442813,1.69117647 C297.022924,1.06372235 296.387949,0.75 295.537867,0.75 C294.703242,0.75 294.074706,1.05636949 293.652241,1.66911765 C293.229776,2.28186581 293.013395,3.18626853 293.003091,4.38235294 L293.003091,6.48529412 C293.003091,7.70588846 293.22076,8.63970265 293.656105,9.28676471 C294.09145,9.93382676 294.72385,10.2573529 295.553323,10.2573529 C296.377645,10.2573529 297.002316,9.94117963 297.427357,9.30882353 C297.852398,8.67646743 298.067491,7.75 298.072643,6.52941176 L298.072643,4.47058824 Z" id="path-15"></path>
        <path d="M338.107777,10.8529412 L337.15248,10.8529412 L337.15248,1.20588235 L334,2.28676471 L334,1.46323529 L337.948561,0.110294118 L338.107777,0.110294118 L338.107777,10.8529412 Z M350.478873,10.8529412 L343.218616,10.8529412 L343.218616,10.1764706 L347.191059,6.01470588 C347.849156,5.31372199 348.305571,4.7352964 348.560318,4.27941176 C348.815066,3.82352713 348.942437,3.37990412 348.942437,2.94852941 C348.942437,2.27205544 348.727498,1.73652158 348.297612,1.34191176 C347.867726,0.947301949 347.275978,0.75 346.522352,0.75 C345.742188,0.75 345.111964,0.980389853 344.63166,1.44117647 C344.151355,1.90196309 343.911206,2.5 343.911206,3.23529412 L342.96387,3.23529412 C342.96387,2.63234993 343.111144,2.08333581 343.405695,1.58823529 C343.700246,1.09313478 344.119511,0.704658272 344.663503,0.422794118 C345.207494,0.140929963 345.827104,0 346.522352,0 C347.583798,0 348.41304,0.257350368 349.010104,0.772058824 C349.607168,1.28676728 349.905695,1.98774066 349.905695,2.875 C349.905695,3.3750025 349.737193,3.92156566 349.400184,4.51470588 C349.063174,5.1078461 348.4701,5.84803478 347.620943,6.73529412 L344.388855,10.1102941 L350.478873,10.1102941 L350.478873,10.8529412 Z M353.408451,5.36764706 L353.973668,0.147058824 L359.769137,0.147058824 L359.769137,0.963235294 L354.793631,0.963235294 L354.38763,4.58088235 C355.008576,4.18872353 355.735656,3.99264706 356.568892,3.99264706 C357.614416,3.99264706 358.447639,4.30636941 359.068585,4.93382353 C359.689532,5.56127765 360,6.3970536 360,7.44117647 C360,8.56863309 359.697492,9.44362434 359.092468,10.0661765 C358.487443,10.6887286 357.635645,11 356.537048,11 C355.528674,11 354.711373,10.7401987 354.085119,10.2205882 C353.458866,9.70097779 353.100633,8.9730439 353.01041,8.03676471 L353.925903,8.03676471 C354.016126,8.76716051 354.284137,9.31985107 354.729945,9.69485294 C355.175752,10.0698548 355.778114,10.2573529 356.537048,10.2573529 C357.364977,10.2573529 357.989894,10.0147083 358.411819,9.52941176 C358.833744,9.04411522 359.044703,8.35294566 359.044703,7.45588235 C359.044703,6.67156471 358.808535,6.03186522 358.336191,5.53676471 C357.863847,5.04166419 357.219028,4.79411765 356.401715,4.79411765 C355.9506,4.79411765 355.557869,4.8468132 355.223515,4.95220588 C354.889159,5.05759857 354.536234,5.26225338 354.164727,5.56617647 L353.408451,5.36764706 Z" id="path-16"></path>
    </defs>
    <g id="Welcome" stroke="none" stroke-width="1" fill="none" fill-rule="evenodd">
        <g id="Group-30">
            <g id="Group-3-Copy-3" transform="translate(192.000000, 279.000000) rotate(-270.000000) translate(-192.000000, -279.000000) translate(-71.000000, 118.500000)" stroke="#434343">
                <g id="Group-3-Copy" transform="translate(-0.000000, 0.500000)">
                    <g id="rejilla">
                        <path d="M1.42108547e-12,318.826735 L519.853088,318.826735" id="Path" opacity="0.301469"></path>
                        <path d="M1.36424205e-12,254.876677 L519.853088,254.876677" id="Path" opacity="0.247093564" stroke-dasharray="5,9"></path>
                        <path d="M1.36424205e-12,191.569988 L519.853088,191.569988" id="Path" opacity="0.247093564" stroke-dasharray="5,9"></path>
                        <path d="M1.36424205e-12,128.202941 L519.853088,128.202941" id="Path" opacity="0.247093564" stroke-dasharray="5,9"></path>
                        <path d="M1.36424205e-12,64.192524 L519.853088,64.192524" id="Path" opacity="0.247093564" stroke-dasharray="5,9"></path>
                        <path d="M5.2687813,1.04221907 L525.12187,1.04221907" id="Path-Copy" opacity="0.247093564" stroke-dasharray="5,9"></path>
                    </g>
                </g>
            </g>
            <g id="Group-2" fill="#000000" fill-rule="nonzero">
                <g id="T7">
                    <use xlink:href="#path-1"></use>
                    <use xlink:href="#path-1"></use>
                </g>
                <g id="T8">
                    <use xlink:href="#path-2"></use>
                    <use xlink:href="#path-2"></use>
                </g>
                <g id="T3">
                    <use xlink:href="#path-3"></use>
                    <use xlink:href="#path-3"></use>
                </g>
                <g id="T4">
                    <use xlink:href="#path-4"></use>
                    <use xlink:href="#path-4"></use>
                </g>
                <g id="T5">
                    <use xlink:href="#path-5"></use>
                    <use xlink:href="#path-5"></use>
                </g>
                <g id="T6">
                    <use xlink:href="#path-6"></use>
                    <use xlink:href="#path-6"></use>
                </g>
                <g id="T1">
                    <use xlink:href="#path-7"></use>
                    <use xlink:href="#path-7"></use>
                </g>
                <g id="T2">
                    <use xlink:href="#path-8"></use>
                    <use xlink:href="#path-8"></use>
                </g>
                <g id="T9">
                    <use xlink:href="#path-9"></use>
                    <use xlink:href="#path-9"></use>
                </g>
                <g id="T10">
                    <use xlink:href="#path-10"></use>
                    <use xlink:href="#path-10"></use>
                </g>
                <g id="0">
                    <use xlink:href="#path-11"></use>
                    <use xlink:href="#path-11"></use>
                </g>
                <g id="25">
                    <use xlink:href="#path-12"></use>
                    <use xlink:href="#path-12"></use>
                </g>
                <g id="50">
                    <use xlink:href="#path-13"></use>
                    <use xlink:href="#path-13"></use>
                </g>
                <g id="75">
                    <use xlink:href="#path-14"></use>
                    <use xlink:href="#path-14"></use>
                </g>
                <g id="100">
                    <use xlink:href="#path-15"></use>
                    <use xlink:href="#path-15"></use>
                </g>
                <g id="125">
                    <use xlink:href="#path-16"></use>
                    <use xlink:href="#path-16"></use>
                </g>
            </g>
        </g>
    </g>
</svg>