<?xml version="1.0" encoding="UTF-8"?>
<svg width="50px" height="63px" viewBox="0 0 50 63" version="1.1" xmlns="http://www.w3.org/2000/svg" xmlns:xlink="http://www.w3.org/1999/xlink">
    <!-- Generator: Sketch 56.2 (81672) - https://sketch.com -->
    <title>U</title>
    <desc>Created with Sketch.</desc>
    <g id="Welcome" stroke="none" stroke-width="1" fill="none" fill-rule="evenodd">
        <g id="Friends" transform="translate(-444.000000, -1284.000000)" fill="#D44F5C" fill-rule="nonzero">
            <path d="M493.433,1292.177 C493.433,1295.20568 491.739017,1300.95496 488.351,1309.425 C484.449647,1319.28105 480.060691,1327.46863 475.184,1333.988 C469.023969,1342.30404 462.94103,1346.462 456.935,1346.462 C452.828313,1346.462 449.594345,1342.9457 447.233,1335.913 C445.590325,1331.08764 444.769,1326.90402 444.769,1323.362 C444.769,1322.84866 445.230995,1318.12604 446.155,1309.194 C447.181672,1299.23528 447.848998,1291.97169 448.157,1287.403 C448.311001,1287.403 448.824329,1287.249 449.697,1286.941 C450.569671,1286.633 451.36533,1286.479 452.084,1286.479 C455.318016,1286.479 457.910324,1287.41582 459.861,1289.2895 C461.811676,1291.16318 462.787,1293.61432 462.787,1296.643 C462.787,1297.31034 461.478013,1303.04678 458.86,1313.8525 C456.241987,1324.65822 454.933,1330.39466 454.933,1331.062 C454.933,1332.60201 455.112665,1333.62866 455.472,1334.142 C455.934002,1334.80934 456.832327,1335.143 458.167,1335.143 C461.965686,1335.143 466.046645,1331.03637 470.41,1322.823 C473.541349,1317.0223 476.74965,1309.21972 480.035,1299.415 L484.655,1284.939 L489.121,1284.939 C491.995681,1287.76235 493.433,1290.17499 493.433,1292.177 Z" id="U"></path>
        </g>
    </g>
</svg>